<svg width="157" height="30" viewBox="0 0 157 30" fill="none" xmlns="http://www.w3.org/2000/svg">
<path fill-rule="evenodd" clip-rule="evenodd" d="M7.98901 7.0655C5.112 14.6996 0 29.2399 0 29.789V30L0.324546 29.9322C0.502986 29.8949 2.10955 29.7007 3.89455 29.5007C5.67955 29.3006 7.37308 29.0986 7.65798 29.0518L8.17607 28.9668L8.75683 27.1197C9.07618 26.1039 9.43165 24.978 9.54659 24.6177L9.75572 23.9625L11.5753 23.8275C13.201 23.7069 18.4266 23.3684 18.6919 23.3664C18.7494 23.366 19.0467 24.0629 19.3526 24.9152C19.6586 25.7674 20.0305 26.7482 20.1792 27.0946L20.4494 27.7244L21.1117 27.6578C21.4761 27.6212 23.0752 27.486 24.6655 27.3574C28.2731 27.0659 28.678 27.0134 28.678 26.8376C28.678 26.7599 28.433 26.1347 28.1336 25.4482C27.6088 24.2451 23.9562 15.4544 20.9536 8.16807C20.1566 6.2341 19.2496 3.98129 18.9379 3.16181C18.6262 2.34233 18.3545 1.65052 18.334 1.62429C18.2808 1.55623 11.6242 0.909114 10.9102 0.902558L10.3137 0.897075L7.98901 7.0655ZM12.0377 16.9456C12.0377 16.8543 14.1681 10.6383 14.2393 10.5221C14.2807 10.4545 14.4064 10.6884 14.5186 11.0418C14.6309 11.3952 15.1276 12.86 15.6224 14.2969C16.1174 15.7338 16.5223 16.9272 16.5223 16.949C16.5223 16.9707 15.5133 16.9886 14.28 16.9886C13.0467 16.9886 12.0377 16.9693 12.0377 16.9456Z" fill="white"/>
<path d="M36.9211 2.68967C35.0358 2.91197 33.5261 3.46815 31.8895 4.5433C29.4952 6.11634 27.844 8.52125 27.0009 11.6633L26.7395 12.6379L26.7351 14.7239L26.7307 16.8098L26.9467 17.8224C27.8927 22.2576 30.5258 25.2315 34.4608 26.3092L35.464 26.5839L37.5293 26.5826L39.5946 26.5814L40.5977 26.3669C43.0311 25.8464 46.1123 24.5633 47.5048 23.4904L47.9147 23.1747V18.5917V14.0087H44.7283H41.5418V16.8647V19.7206L40.785 19.9566C38.8166 20.5707 37.1171 20.3301 35.7498 19.2437C35.1711 18.7838 34.7253 18.1014 34.377 17.1419L34.0834 16.333L34.0202 15.1301L33.9568 13.9272L34.1618 12.9846C34.7336 10.3557 36.3728 9.00244 38.9855 9.00244C40.4991 9.00244 41.8072 9.55218 43.0273 10.701C43.4276 11.0779 43.8056 11.3864 43.8672 11.3864C44.0381 11.3864 48.3227 7.58913 48.3639 7.40116C48.4019 7.22761 46.465 5.42237 45.5835 4.80982C44.0852 3.76864 41.7106 2.94261 39.4998 2.69361C38.2568 2.55367 38.0774 2.55343 36.9211 2.68967Z" fill="white"/>
<path fill-rule="evenodd" clip-rule="evenodd" d="M49.4489 14.6029V25.474L50.0095 25.4077C50.3179 25.3712 51.3136 25.312 52.2223 25.276C53.131 25.2399 54.4454 25.1784 55.1432 25.1392L56.4119 25.0679V22.4725V19.8771L56.6774 19.8052C57.1404 19.68 58.13 19.7244 58.3205 19.8791C58.4213 19.9611 59.2102 21.0741 60.0735 22.3525C60.9368 23.6308 61.7009 24.7195 61.7714 24.7716C61.9385 24.895 68.9482 24.7421 69.0855 24.6121C69.145 24.5557 68.9991 24.2439 68.7481 23.8911C67.6308 22.3203 65.2637 18.8811 65.1427 18.6526C65.0685 18.5129 65.0256 18.3866 65.0471 18.3718C65.0685 18.357 65.3665 18.1672 65.7093 17.9501C66.4778 17.463 67.5027 16.3192 67.9794 15.4169C68.4678 14.4923 68.8041 13.0917 68.8016 11.9931C68.7935 8.43006 66.7063 5.76888 63.0168 4.61804C61.5473 4.15961 60.7241 4.10024 51.7798 3.80809L49.4489 3.73193V14.6029ZM56.4119 9.61595L56.6184 9.56136C56.9733 9.46767 58.0783 9.48126 59.2262 9.59342L60.3293 9.70117L60.8004 10.0161C61.1066 10.2208 61.3549 10.5216 61.51 10.8756L61.7486 11.4203L61.6994 12.1078L61.6501 12.7952L61.3323 13.2804C61.1549 13.551 60.7926 13.8818 60.5129 14.0282L60.0114 14.2908L58.2117 14.343L56.4119 14.3953V12.0056V9.61595Z" fill="white"/>
<path fill-rule="evenodd" clip-rule="evenodd" d="M79.1418 3.82657C74.6356 4.53424 71.3861 6.89672 69.9254 10.5276C69.4468 11.7173 69.2573 12.8439 69.2597 14.4855L69.2618 15.9754L69.4997 16.8983C70.0435 19.0073 70.7152 20.2279 72.1152 21.6509C73.7005 23.2623 75.5394 24.2281 77.9777 24.73L79.1672 24.9748L80.9189 24.9706C83.4868 24.9645 84.9177 24.6497 86.8857 23.6579C88.5104 22.8391 89.7026 21.7781 90.7452 20.2233C91.8745 18.539 92.2866 17.1597 92.374 14.7718L92.4356 13.0914L92.2362 12.0971C91.8301 10.0731 90.9677 8.48644 89.4562 6.98194C87.8029 5.33643 86.2156 4.53567 83.5089 3.98141C81.6728 3.60558 80.7567 3.57304 79.1418 3.82657ZM77.0639 11.4717C77.5848 10.5954 78.4229 9.94398 79.4797 9.5939L80.1922 9.35789L81.1548 9.40461L82.1172 9.45146L82.7622 9.74969C83.6737 10.1712 84.3133 10.8042 84.7805 11.7474C85.7018 13.6075 85.5935 15.9195 84.5106 17.5093C82.5984 20.3163 78.1658 19.9232 76.7601 16.822C75.9851 15.1121 76.0997 13.0939 77.0639 11.4717Z" fill="white"/>
<path fill-rule="evenodd" clip-rule="evenodd" d="M102.497 3.60832C102.108 3.63192 99.9571 3.71548 97.7177 3.79391L93.6461 3.93659V14.3663V24.796L97.0686 24.9192C98.951 24.9869 100.531 25.024 100.58 25.0016C100.628 24.9791 100.668 23.8107 100.668 22.405V19.8493H102.766C106.304 19.8493 107.954 19.5007 109.564 18.4135C111.067 17.3979 112.001 16.12 112.651 14.1875C112.917 13.3963 113.016 11.0833 112.831 10.005C112.525 8.22314 111.506 6.36725 110.307 5.40414C109.575 4.81674 108.308 4.19155 107.336 3.93873C106.597 3.74635 104.332 3.50545 103.619 3.54336C103.391 3.55552 102.887 3.58472 102.497 3.60832ZM100.668 14.2731V11.757V9.24084H102.181C104.073 9.24084 104.723 9.41296 105.31 10.0688C106.301 11.1767 105.95 13.2249 104.651 13.9116L104.15 14.1766L102.409 14.2248L100.668 14.2731Z" fill="white"/>
<path d="M127.163 2.03683C124.796 2.24245 120.856 2.54366 118.607 2.69087C117.601 2.75678 116.193 2.86239 115.479 2.92556C114.765 2.98886 114.088 3.04106 113.974 3.04154L113.768 3.04261V14.3593C113.768 21.2369 113.811 25.7028 113.878 25.7447C113.939 25.7825 114.642 25.8647 115.442 25.9274C120.371 26.3141 123.403 26.5702 126.16 26.8331C127.88 26.9971 129.672 27.1634 130.143 27.2026L130.998 27.274V24.0406V20.8074L130.733 20.7518C130.587 20.7211 128.715 20.6127 126.573 20.5106C124.431 20.4085 122.24 20.2936 121.705 20.2553L120.731 20.1855V18.6921V17.1985L124.596 17.2941C126.722 17.3468 128.673 17.3934 128.933 17.3978L129.405 17.4058L129.437 14.434C129.455 12.6835 129.423 11.4159 129.357 11.3497C129.234 11.2255 124.354 11.2218 122.118 11.3442L120.731 11.4201V10.0325V8.64485L121.114 8.64521C122.206 8.64616 129.492 8.39383 130.025 8.33661L130.644 8.2701V5.06037V1.85065L129.789 1.86686C129.318 1.87568 128.136 1.9522 127.163 2.03683Z" fill="white"/>
<path d="M145.573 0.0185961C142.829 0.398476 141.248 0.840933 139.514 1.71512C136.761 3.10233 134.315 5.50927 132.994 8.12981C132.324 9.45837 131.769 11.1148 131.575 12.3659C131.409 13.4342 131.511 16.4901 131.75 17.5846C132.158 19.4542 133.237 21.7419 134.421 23.2464C135.827 25.0318 137.905 26.731 140.027 27.8296C144.253 30.0179 150.517 29.8375 154.189 27.4217C154.943 26.9256 156.694 25.1952 156.846 24.7967L156.936 24.5576L156.63 24.1404C156.301 23.6914 156.039 23.3785 153.664 20.5943C152.811 19.5946 152.082 18.7766 152.044 18.7766C152.006 18.7766 151.636 19.1189 151.221 19.5374C150.408 20.359 149.328 21.0022 148.17 21.3546L147.462 21.5701L146.104 21.5648L144.747 21.5595L143.823 21.2386C141.634 20.4779 140.173 18.9664 139.544 16.8098C139.272 15.8797 139.277 13.8945 139.553 12.8167C140.46 9.28101 143.882 7.17969 147.63 7.8572C149.027 8.10966 149.987 8.61994 151.058 9.6796C151.543 10.1594 151.949 10.552 151.96 10.552C151.972 10.552 152.952 9.4927 154.139 8.19787C155.326 6.90315 156.455 5.67138 156.648 5.46064L157 5.07754L156.665 4.58871C156.2 3.91227 155.242 3.05203 154.094 2.28011C152.08 0.926755 149.722 0.190358 146.872 0.0245558C146.352 -0.0057201 145.768 -0.00834233 145.573 0.0185961Z" fill="white"/>
</svg>
