<svg width="196" height="39" viewBox="0 0 196 39" fill="none" xmlns="http://www.w3.org/2000/svg">
<path fill-rule="evenodd" clip-rule="evenodd" d="M179.065 0.259943C174.869 1.19543 171.69 3.02327 168.818 6.1525C166.115 9.09669 164.605 12.3676 164.135 16.2979L163.89 18.3418L164.143 20.7259C164.281 22.0373 164.593 23.7472 164.834 24.5259C165.326 26.1158 166.382 28.292 166.894 28.771C167.08 28.9451 167.106 29.022 166.953 28.9416C166.769 28.8458 166.719 28.9192 166.807 29.156C166.881 29.3543 167.025 29.4629 167.127 29.3974C167.366 29.245 168.041 30.228 167.882 30.4951C167.816 30.6056 167.896 30.6671 168.06 30.6319C168.224 30.5967 168.331 30.7067 168.297 30.8764C168.263 31.0463 168.325 31.1274 168.436 31.0568C168.673 30.9053 169.426 31.6995 169.261 31.9268C169.199 32.0125 169.213 32.0326 169.293 31.9715C169.373 31.9102 169.775 32.1661 170.187 32.5402C172.101 34.2785 175.63 36.3469 177.203 36.6529C177.605 36.731 177.878 36.888 177.81 37.002C177.742 37.116 177.869 37.1852 178.094 37.156C178.318 37.1267 179.363 37.2313 180.417 37.3884C181.471 37.5455 182.738 37.7093 183.234 37.7524L184.136 37.8307L182.896 37.8944L181.656 37.9582L183.46 38.2475C187.55 38.9035 191.133 37.6863 194.331 34.554L195.806 33.1081L195.831 32.1053L195.856 31.1025L192.926 27.5237C191.314 25.5553 189.917 23.9404 189.82 23.9353C189.723 23.93 189.003 24.4879 188.22 25.1747C187.437 25.8615 186.299 26.622 185.692 26.8643L184.586 27.305L182.22 27.2971L179.853 27.2894L178.557 26.6185C175.09 24.8235 173.32 21.1899 174.194 17.6608C175.308 13.1663 178.911 10.7195 184.123 10.9192C185.158 10.9588 185.961 11.0646 185.909 11.1543C185.751 11.424 186.664 11.8155 187.106 11.6675L187.517 11.5298L187.211 11.7559C186.813 12.0497 187.22 12.3224 187.778 12.1353L188.193 11.9959L187.88 12.2259L187.568 12.456L188.02 12.7058C188.268 12.8433 188.535 12.8894 188.614 12.8086C188.692 12.7277 188.756 12.813 188.756 12.998C188.756 13.1831 188.913 13.5667 189.105 13.8503L189.455 14.3661L190.012 13.9885C190.591 13.5965 192.788 11.2867 194.824 8.93145L196 7.57112L195.893 6.74866C195.66 4.96369 192.039 2.12042 188.409 0.871475L186.164 0.0996042L183.347 0.0163974C181.488 -0.0383705 180.031 0.0443673 179.065 0.259943ZM9.18309 10.9101C3.50292 26.5907 -0.18529 37.663 0.0071892 38.4565L0.139265 39L1.47603 38.9811C2.21146 38.9708 2.81414 38.9089 2.81527 38.8436C2.81662 38.7781 3.90681 38.6942 5.23816 38.6569C6.56952 38.6196 8.21663 38.5148 8.89843 38.4239L10.138 38.2586L11.1385 35.08L12.1392 31.9014L14.8574 31.5252C16.3526 31.3185 17.9941 31.1495 18.5055 31.1498C20.5518 31.1512 21.6708 30.5741 19.9987 30.38C19.4433 30.3154 19.5206 30.2991 20.2241 30.3324C20.813 30.3602 21.2946 30.2886 21.2946 30.1733C21.2946 30.0581 21.7441 29.9878 22.2933 30.0171L23.292 30.0707L23.6445 30.9018C23.8386 31.359 24.1976 32.4183 24.4428 33.2554C24.8807 34.7507 25.8005 36.1665 25.9777 35.6174C26.0259 35.4678 26.3165 35.3455 26.6232 35.3455C26.9378 35.3455 27.1204 35.4471 27.042 35.5785C26.9626 35.7111 27.1754 35.8216 27.5358 35.8349L28.1689 35.8579L27.6054 36.0446L27.042 36.2313L28.0377 36.2544C29.3558 36.2851 34.1454 35.6118 34.658 35.3235C34.88 35.1989 35.1439 35.1492 35.2447 35.2138C35.3456 35.2781 35.5349 35.0882 35.6657 34.7912L35.9035 34.2517L35.4565 33.2256C35.2106 32.6611 34.1669 30.1017 33.1371 27.5381C32.1073 24.9745 29.8189 19.3113 28.0521 14.9531C26.2853 10.595 24.4343 5.92807 23.9389 4.58218C23.4437 3.23629 22.9756 2.06705 22.8989 1.98362C22.8223 1.90041 20.9847 1.65898 18.8154 1.44736C16.6461 1.23552 14.4147 1.00502 13.8569 0.934871L12.8427 0.80762L9.18309 10.9101ZM158.216 2.50776C157.101 2.61333 153.094 2.9177 149.314 3.18432C145.533 3.45093 142.313 3.71405 142.158 3.76882L141.876 3.86834V18.2965V32.7247L142.158 32.9569C142.313 33.0846 143.656 33.2596 145.144 33.3463C146.632 33.4328 149.421 33.6488 151.342 33.8264C153.264 34.004 156.306 34.2748 158.104 34.4281C159.901 34.5817 161.666 34.8509 162.026 35.0264C162.386 35.2019 162.87 35.3455 163.102 35.3455H163.523L163.462 30.8591L163.4 26.3728L157.089 26.0232L150.779 25.6737L150.704 24.864C150.663 24.4189 150.695 23.6027 150.776 23.0504L150.921 22.0464L154.569 22.1867C158.449 22.3361 158.885 22.3955 158.675 22.747C158.602 22.8698 158.925 23.0369 159.393 23.1187C159.862 23.2005 160.408 23.313 160.607 23.3687C161.48 23.613 161.626 22.6544 161.536 17.2531L161.484 14.1929L156.042 14.3167L150.599 14.4404L150.72 12.8775C150.787 12.018 150.878 11.2828 150.923 11.2436C150.968 11.2044 153.235 11.1166 155.962 11.0485C158.69 10.9805 160.736 10.9749 160.51 11.0364L160.1 11.1483L160.51 11.4701C161.066 11.9059 162.274 11.8899 162.708 11.4408L163.062 11.0744V6.66313V2.25163L161.654 2.28379C160.879 2.3015 159.332 2.40219 158.216 2.50776ZM44.1713 3.61384C42.0306 4.19228 41.0909 4.63579 39.4634 5.83672C36.8613 7.75663 35.1114 10.2468 33.9723 13.6504L33.3803 15.4192L33.3751 18.9151L33.3701 22.4109L33.7715 23.9059C34.3185 25.9421 35.411 28.1907 36.4412 29.4009C36.9118 29.954 37.3011 30.4951 37.3063 30.6035C37.3186 30.8708 40.1215 32.6539 41.2413 33.1067C43.9042 34.1839 47.8462 34.4862 50.5711 33.822C51.3638 33.6288 52.053 33.5129 52.1028 33.5644C52.1526 33.6159 51.9099 33.7267 51.5632 33.8106C50.1399 34.155 48.4394 34.7337 48.2282 34.9451C47.8392 35.3347 50.8537 34.9136 52.8766 34.2958C55.4054 33.5232 58.8326 31.7601 59.3303 30.9754L59.7229 30.3564V24.053V17.7498H55.7786H51.8344L51.7724 21.4043L51.7104 25.0586L50.8709 25.3625C50.409 25.5294 49.2706 25.6618 48.3409 25.6562L46.6505 25.6462L45.7276 25.1493C43.0908 23.7295 41.823 19.9948 42.8922 16.7964C43.5751 14.7536 45.2211 13.1644 46.9708 12.8587C47.4617 12.7729 47.8151 12.5788 47.8151 12.3947V12.0782L46.8946 12.1628L45.9744 12.2471L46.3483 12.0274C46.912 11.696 49.5783 11.5787 50.5087 11.8442C51.3617 12.0877 53.246 13.3446 54.1764 14.2908L54.7155 14.8389L54.9997 14.5949L55.2841 14.3511L55.3817 14.652L55.4795 14.9531L56.0272 14.6516C56.8952 14.1738 59.6438 11.3527 59.491 11.0968C59.4148 10.9693 59.6273 10.5274 59.9629 10.1149L60.5735 9.36471L58.7959 7.65198C55.8307 4.79473 52.6147 3.46678 48.2282 3.28826L45.749 3.18758L44.1713 3.61384ZM122.385 4.63229C119.413 4.74812 116.928 4.93153 116.863 5.03967C116.798 5.14804 116.772 11.2245 116.805 18.5431L116.865 31.8496H118.632C119.603 31.8496 121.009 31.9156 121.755 31.9962L123.111 32.1428L123.008 32.5542L122.903 32.9655L124.04 33.127C124.665 33.216 125.283 33.2209 125.412 33.138C125.56 33.0433 125.648 31.6068 125.648 29.2723V25.5571L125.93 25.5366C126.085 25.5252 127.226 25.5299 128.465 25.5469C129.705 25.5639 131.21 25.4802 131.81 25.3607C132.409 25.2413 132.815 25.2285 132.711 25.3325C132.607 25.4362 132.219 25.5555 131.848 25.5974C131.403 25.6478 131.147 25.8224 131.094 26.1113L131.013 26.549L132.106 26.3908C135.916 25.8382 139.195 23.5021 139.852 20.872C139.961 20.4367 140.258 19.3485 140.512 18.4541C141.449 15.1559 140.942 11.2021 139.249 8.61496C137.908 6.56431 135.698 5.20071 132.872 4.67936C130.987 4.33164 130.19 4.32792 122.385 4.63229ZM61.6387 18.5813V32.6166L64.6611 32.4544C66.6927 32.3456 67.7315 32.3726 67.8298 32.5371C67.9138 32.6777 67.7788 32.7818 67.512 32.7818C67.2568 32.7818 67.0479 32.8867 67.0479 33.0149C67.0479 33.1496 67.7617 33.248 68.7383 33.248H70.4287V30.0143C70.4287 28.2359 70.492 26.453 70.5696 26.0524L70.7104 25.3241H71.6882H72.6657L73.6132 26.7669C74.1345 27.5602 74.5607 28.341 74.5607 28.5018C74.5607 28.6626 74.6355 28.7735 74.727 28.7486C74.8183 28.7236 75.3376 29.3851 75.8805 30.2182L76.868 31.7331L80.4568 31.7007L84.0456 31.6683L83.6164 31.993L83.1871 32.3174L83.4247 32.563C83.5552 32.6979 84.209 32.7763 84.8775 32.7369L86.093 32.6653L86.1642 31.7685C86.2079 31.2185 86.1079 30.7228 85.9057 30.4867C85.7243 30.2749 84.7069 28.8031 83.6444 27.2158L81.7129 24.3299L82.6027 23.6636C83.6273 22.8961 84.7441 21.2787 84.5146 20.8949C84.4287 20.7511 84.5236 20.4449 84.7254 20.2144C84.9273 19.9839 85.3111 18.8783 85.5787 17.7575L86.0653 15.7201L85.804 13.8673C85.2325 9.81287 82.8296 7.10966 78.5716 5.73114L77.0776 5.24756L73.3587 5.04782C71.3133 4.93805 67.8395 4.78028 65.6393 4.69708L61.6387 4.54606V18.5813ZM97.7004 4.91475C92.0801 6.20657 88.2051 9.64531 86.7824 14.6036C86.294 16.3058 86.2875 20.5171 86.7703 22.4109C86.9664 23.18 87.4773 24.4198 87.9058 25.1661C88.3344 25.9123 88.6849 26.6376 88.6849 26.7779C88.6849 26.9184 88.7374 26.9788 88.8017 26.9124C88.8659 26.8462 89.449 27.3335 90.0976 27.9956C91.3821 29.3068 93.5397 30.551 96.01 31.4052L97.5877 31.9508L100.968 31.9585C102.828 31.9627 104.146 31.9971 103.898 32.0349C103.651 32.0727 103.194 32.3062 102.884 32.5542L102.321 33.0046L103.119 33.0098C104.391 33.0179 106.456 32.3854 108.448 31.3772C112.975 29.0858 115.333 24.6387 115.362 18.3324C115.376 15.5747 115.009 13.9624 113.852 11.6904C112.84 9.70241 110.429 7.3285 108.393 6.31588C105.309 4.78214 100.831 4.19531 97.7004 4.91475ZM99.5034 12.3122C98.4211 12.6282 98.2136 12.8983 99.139 12.7864C100.236 12.654 100.371 13.1339 99.3195 13.4266C97.381 13.9666 95.6617 16.0427 95.3191 18.2581C94.9793 20.4558 96.3985 23.0711 98.4732 24.07C100.558 25.074 102.846 24.7517 104.532 23.2163C106.21 21.6889 106.884 19.1383 106.222 16.8176C106.076 16.3049 105.945 15.8329 105.93 15.7688C105.782 15.0939 105.517 14.622 105.347 14.7303C105.232 14.804 105.138 14.6865 105.138 14.4693C105.138 13.5145 102.647 12.022 101.119 12.0609C100.664 12.0726 99.9373 12.1856 99.5034 12.3122ZM125.648 15.0697V18.0994L127.282 18.0938C129.561 18.0861 130.605 17.7899 131.339 16.9427L131.959 16.2275V15.171C131.959 13.9713 131.519 12.937 130.783 12.4037L130.281 12.0399H127.964H125.648V15.0697ZM70.5757 12.9694C70.495 13.3875 70.4287 14.7161 70.4287 15.9217V18.1141L70.8053 18.2634C71.0127 18.3457 72.1362 18.3061 73.3021 18.1753L75.4223 17.9376L76.0877 17.2494C76.9495 16.3585 77.1438 15.1801 76.6178 14.0342C76.021 12.7338 75.4724 12.4797 72.9501 12.3359L70.7228 12.2091L70.5757 12.9694ZM125.956 12.7901C125.896 12.8901 126.208 12.9722 126.649 12.9722C127.09 12.9722 127.451 12.8657 127.451 12.7354C127.451 12.4648 126.121 12.5135 125.956 12.7901ZM71.2813 13.26L71.7957 13.5163L72.0589 13.2441L72.3219 12.9722L71.5444 12.988L70.7668 13.0036L71.2813 13.26ZM17.3071 15.0941C17.0389 15.9138 16.7565 16.9789 16.6799 17.4608C16.603 17.9428 16.2451 18.9824 15.8842 19.7713C15.5234 20.5602 15.2807 21.2932 15.3447 21.4004C15.4997 21.6595 20.1071 21.6523 20.2621 21.3927C20.3289 21.2813 19.9209 19.8916 19.3559 18.3047C18.7908 16.7176 18.2084 15.0107 18.0617 14.5115L17.7951 13.6035L17.3071 15.0941ZM81.4904 23.5955C81.5012 23.867 81.5546 23.9223 81.6265 23.7365C81.6917 23.5682 81.6836 23.3671 81.6087 23.2897C81.5339 23.2124 81.4807 23.3499 81.4904 23.5955ZM126.263 26.3008C126.111 26.4006 126.595 26.4821 127.339 26.4821H128.691L128.353 26.2544C127.971 25.9971 126.681 26.0256 126.263 26.3008ZM12.297 31.0533C12.3078 31.3248 12.3612 31.38 12.4331 31.1943C12.4983 31.026 12.4902 30.8249 12.4153 30.7475C12.3405 30.6701 12.2873 30.8076 12.297 31.0533ZM65.6535 33.1741C65.816 33.2414 66.0105 33.233 66.0853 33.1557C66.1601 33.0783 66.0271 33.0233 65.7896 33.0333C65.527 33.0445 65.4736 33.0997 65.6535 33.1741ZM29.5776 35.4997C29.7326 35.5645 29.9862 35.5645 30.141 35.4997C30.2961 35.4352 30.1692 35.3823 29.8593 35.3823C29.5494 35.3823 29.4227 35.4352 29.5776 35.4997ZM0.333772 38.6154C0.333772 38.7397 0.485908 38.8413 0.671851 38.8413C0.857795 38.8413 1.00993 38.8 1.00993 38.7497C1.00993 38.6994 0.857795 38.5977 0.671851 38.5239C0.485908 38.4502 0.333772 38.4915 0.333772 38.6154Z" fill="#FFBB00"/>
</svg>
