<svg width="124" height="25" viewBox="0 0 124 25" fill="none" xmlns="http://www.w3.org/2000/svg">
<path fill-rule="evenodd" clip-rule="evenodd" d="M113.286 0.16663C110.631 0.766299 108.62 1.938 106.803 3.94391C105.093 5.83121 104.138 7.92796 103.84 10.4473L103.686 11.7575L103.845 13.2858C103.933 14.1265 104.13 15.2226 104.283 15.7217C104.594 16.7409 105.262 18.1359 105.586 18.4429C105.703 18.5545 105.72 18.6038 105.623 18.5523C105.507 18.4909 105.475 18.5379 105.531 18.6897C105.578 18.8169 105.669 18.8865 105.734 18.8445C105.884 18.7468 106.312 19.3769 106.211 19.5481C106.169 19.619 106.22 19.6584 106.324 19.6358C106.428 19.6133 106.495 19.6838 106.473 19.7926C106.452 19.9015 106.491 19.9535 106.561 19.9082C106.711 19.8111 107.188 20.3202 107.083 20.4659C107.044 20.5209 107.053 20.5337 107.104 20.4946C107.154 20.4553 107.409 20.6193 107.669 20.8591C108.881 21.9734 111.113 23.2993 112.108 23.4954C112.362 23.5455 112.535 23.6462 112.492 23.7192C112.449 23.7923 112.53 23.8367 112.671 23.818C112.813 23.7992 113.475 23.8662 114.141 23.9669C114.808 24.0676 115.61 24.1726 115.924 24.2003L116.494 24.2505L115.71 24.2913L114.926 24.3322L116.066 24.5176C118.654 24.9381 120.921 24.1579 122.944 22.15L123.878 21.2232L123.893 20.5803L123.909 19.9375L122.055 17.6434C121.036 16.3816 120.151 15.3464 120.09 15.3431C120.029 15.3397 119.574 15.6974 119.078 16.1376C118.583 16.5779 117.863 17.0654 117.478 17.2207L116.779 17.5032L115.282 17.4982L113.785 17.4932L112.965 17.0631C110.771 15.9125 109.651 13.5833 110.204 11.321C110.909 8.43993 113.189 6.87145 116.486 6.99948C117.141 7.02487 117.649 7.0927 117.616 7.15022C117.516 7.32307 118.094 7.57405 118.373 7.47918L118.633 7.39089L118.439 7.53581C118.188 7.72419 118.446 7.89898 118.798 7.77902L119.061 7.68968L118.863 7.83713L118.666 7.98458L118.951 8.14473C119.108 8.23288 119.278 8.26246 119.327 8.21062C119.377 8.15878 119.417 8.21345 119.417 8.33207C119.417 8.45069 119.517 8.6966 119.638 8.87841L119.859 9.20901L120.212 8.967C120.578 8.71572 121.968 7.23507 123.256 5.72529L124 4.85328L123.932 4.32606C123.785 3.18185 121.494 1.35924 119.197 0.558638L117.777 0.0638488L115.995 0.0105112C114.819 -0.0245965 113.897 0.0284406 113.286 0.16663ZM5.80971 6.99365C2.21613 17.0453 -0.117224 24.1429 0.00454827 24.6516L0.0881064 25L0.933812 24.9879C1.39909 24.9813 1.78037 24.9416 1.78109 24.8997C1.78194 24.8578 2.47165 24.804 3.31394 24.7801C4.15622 24.7562 5.19828 24.689 5.62962 24.6307L6.41387 24.5248L7.04682 22.4872L7.67993 20.4496L9.39958 20.2085C10.3455 20.076 11.384 19.9676 11.7076 19.9678C13.0021 19.9687 13.7101 19.5988 12.6522 19.4743C12.3009 19.433 12.3498 19.4225 12.7948 19.4439C13.1674 19.4616 13.4721 19.4158 13.4721 19.3418C13.4721 19.268 13.7564 19.2229 14.1039 19.2417L14.7358 19.2761L14.9588 19.8088C15.0815 20.102 15.3087 20.7809 15.4638 21.3176C15.7409 22.2761 16.3228 23.1837 16.4349 22.8317C16.4654 22.7358 16.6492 22.6573 16.8432 22.6573C17.0423 22.6573 17.1578 22.7225 17.1082 22.8067C17.058 22.8917 17.1926 22.9626 17.4206 22.9711L17.8211 22.9858L17.4647 23.1055L17.1082 23.2252L17.7381 23.24C18.572 23.2597 21.6022 22.8281 21.9265 22.6433C22.0669 22.5634 22.2339 22.5316 22.2976 22.5729C22.3615 22.6142 22.4813 22.4924 22.564 22.3021L22.7144 21.9562L22.4317 21.2984C22.2761 20.9366 21.6158 19.296 20.9643 17.6526C20.3128 16.0093 18.865 12.379 17.7473 9.58534C16.6295 6.79167 15.4584 3.80005 15.145 2.9373C14.8317 2.07454 14.5356 1.32503 14.4871 1.27155C14.4386 1.21821 13.2761 1.06345 11.9036 0.927797C10.5312 0.791997 9.11953 0.644244 8.76661 0.599277L8.12496 0.517705L5.80971 6.99365ZM100.096 1.60754C99.3902 1.67521 96.8557 1.87032 94.4637 2.04123C92.0718 2.21214 90.0346 2.3808 89.9365 2.41591L89.7582 2.47971V11.7286V20.9774L89.9365 21.1262C90.0346 21.2081 90.8847 21.3203 91.8258 21.3758C92.7669 21.4313 94.5314 21.5698 95.747 21.6836C96.9626 21.7974 98.8876 21.971 100.025 22.0693C101.162 22.1678 102.279 22.3403 102.506 22.4528C102.734 22.5653 103.04 22.6573 103.187 22.6573H103.453L103.414 19.7815L103.376 16.9057L99.3831 16.6816L95.3906 16.4575L95.3435 15.9385C95.3176 15.6531 95.338 15.13 95.3886 14.7759L95.4807 14.1323L97.7884 14.2222C100.243 14.318 100.519 14.3561 100.386 14.5814C100.34 14.6601 100.544 14.7672 100.841 14.8197C101.137 14.8721 101.483 14.9443 101.609 14.98C102.161 15.1365 102.253 14.5221 102.196 11.0597L102.164 9.09802L98.7202 9.17735L95.2768 9.25667L95.3535 8.25484C95.3957 7.70387 95.4534 7.23253 95.4817 7.20744C95.5101 7.18234 96.9448 7.12602 98.6702 7.08239C100.396 7.03877 101.69 7.03518 101.547 7.07462L101.288 7.14633L101.547 7.35264C101.899 7.63201 102.663 7.6217 102.938 7.33382L103.162 7.09897V4.27123V1.44335L102.271 1.46397C101.78 1.47532 100.802 1.53986 100.096 1.60754ZM27.9451 2.31656C26.5908 2.68736 25.9963 2.97166 24.9667 3.74149C23.3204 4.9722 22.2134 6.56847 21.4927 8.75023L21.1181 9.88413L21.1148 12.125L21.1117 14.366L21.3657 15.3243C21.7117 16.6296 22.4029 18.0709 23.0546 18.8467C23.3524 19.2013 23.5986 19.5481 23.6019 19.6176C23.6098 19.789 25.383 20.932 26.0914 21.2223C27.7761 21.9128 30.27 22.1065 31.994 21.6808C32.4954 21.5569 32.9315 21.4827 32.963 21.5157C32.9945 21.5487 32.8409 21.6196 32.6216 21.6734C31.7212 21.8942 30.6453 22.2652 30.5117 22.4007C30.2656 22.6505 32.1728 22.3805 33.4525 21.9845C35.0524 21.4892 37.2206 20.3591 37.5355 19.856L37.7839 19.4593V15.4186V11.3781H35.2885H32.7932L32.754 13.7207L32.7148 16.0632L32.1836 16.258C31.8914 16.365 31.1712 16.4499 30.583 16.4463L29.5136 16.4399L28.9297 16.1213C27.2615 15.2112 26.4594 12.8172 27.1359 10.7669C27.5679 9.45746 28.6093 8.43874 29.7162 8.24273C30.0268 8.18776 30.2504 8.06331 30.2504 7.94529V7.74242L29.668 7.79664L29.0858 7.85072L29.3224 7.70985C29.679 7.49741 31.3658 7.42226 31.9545 7.59242C32.4942 7.74854 33.6862 8.55422 34.2748 9.16076L34.6159 9.51214L34.7957 9.35573L34.9757 9.19945L35.0374 9.39232L35.0993 9.58534L35.4458 9.39202C35.9949 9.08577 37.7338 7.27735 37.6371 7.11332C37.5889 7.0316 37.7234 6.74835 37.9357 6.48392L38.322 6.00302L37.1974 4.90512C35.3215 3.07354 33.2868 2.22229 30.5117 2.10786L28.9432 2.04332L27.9451 2.31656ZM77.4273 2.96942C75.5468 3.04366 73.9747 3.16124 73.9338 3.23056C73.8929 3.30003 73.8765 7.19518 73.8973 11.8866L73.9352 20.4164H75.0527C75.6674 20.4164 76.5565 20.4587 77.0286 20.5104L77.8868 20.6044L77.8211 20.868L77.7552 21.1317L78.4743 21.2353C78.8699 21.2923 79.2605 21.2955 79.3425 21.2423C79.4362 21.1816 79.4917 20.2608 79.4917 18.7643V16.3828L79.6699 16.3696C79.768 16.3623 80.4898 16.3653 81.2741 16.3762C82.0583 16.3871 83.0104 16.3335 83.3897 16.2568C83.7691 16.1803 84.0258 16.1721 83.9601 16.2388C83.8945 16.3053 83.6488 16.3817 83.4142 16.4086C83.1325 16.4409 82.9703 16.5528 82.9368 16.738L82.8859 17.0186L83.5772 16.9172C85.9876 16.563 88.0621 15.0654 88.4781 13.3795C88.5469 13.1004 88.7349 12.4029 88.8956 11.8295C89.4883 9.71531 89.1672 7.18084 88.0965 5.52241C87.2478 4.20789 85.85 3.33379 84.0617 2.99959C82.8691 2.7767 82.3649 2.77431 77.4273 2.96942ZM38.9959 11.9111V20.9081L40.908 20.8041C42.1933 20.7343 42.8505 20.7517 42.9127 20.8571C42.9659 20.9472 42.8805 21.014 42.7117 21.014C42.5502 21.014 42.4181 21.0812 42.4181 21.1634C42.4181 21.2497 42.8696 21.3128 43.4875 21.3128H44.5569V19.2399C44.5569 18.0999 44.597 16.9571 44.646 16.7002L44.7352 16.2334H45.3537H45.9721L46.5716 17.1583C46.9014 17.6668 47.171 18.1673 47.171 18.2704C47.171 18.3735 47.2184 18.4446 47.2763 18.4286C47.334 18.4126 47.6626 18.8366 48.0061 19.3707L48.6307 20.3417L50.9012 20.321L53.1717 20.3002L52.9002 20.5083L52.6286 20.7163L52.7789 20.8737C52.8614 20.9602 53.2751 21.0104 53.698 20.9852L54.467 20.9393L54.5121 20.3644C54.5397 20.0119 54.4764 19.6941 54.3485 19.5428C54.2337 19.407 53.5901 18.4635 52.9179 17.446L51.6959 15.5961L52.2588 15.169C52.9071 14.677 53.6136 13.6402 53.4684 13.3942C53.4141 13.302 53.4741 13.1057 53.6017 12.9579C53.7295 12.8102 53.9723 12.1014 54.1416 11.383L54.4495 10.077L54.2842 8.88931C53.9226 6.2903 52.4024 4.55748 49.7086 3.67381L48.7634 3.36382L46.4106 3.23578C45.1166 3.16542 42.9188 3.06428 41.5269 3.01095L38.9959 2.91414V11.9111ZM61.8104 3.15048C58.2548 3.97857 55.8032 6.18289 54.9032 9.36125C54.5942 10.4524 54.59 13.152 54.8955 14.366C55.0195 14.859 55.3428 15.6537 55.6138 16.1321C55.8851 16.6105 56.1068 17.0754 56.1068 17.1653C56.1068 17.2554 56.14 17.2941 56.1807 17.2515C56.2213 17.2091 56.5902 17.5215 57.0005 17.9459C57.8132 18.7864 59.1782 19.584 60.741 20.1315L61.7391 20.4813L63.878 20.4862C65.0544 20.4889 65.8885 20.511 65.7317 20.5352C65.5748 20.5594 65.2861 20.7091 65.09 20.868L64.7335 21.1568L65.2383 21.1601C66.0434 21.1653 67.3499 20.7599 68.6102 20.1136C71.4742 18.6448 72.9656 15.794 72.9844 11.7516C72.9927 9.98378 72.7608 8.95027 72.0291 7.49383C71.3888 6.21949 69.8632 4.69776 68.5751 4.04864C66.6239 3.06548 63.791 2.6893 61.8104 3.15048ZM62.9511 7.89241C62.2664 8.09499 62.1351 8.26813 62.7206 8.19642C63.4146 8.11157 63.5003 8.41917 62.8348 8.60681C61.6084 8.95296 60.5207 10.2838 60.3039 11.7039C60.0889 13.1127 60.9868 14.7892 62.2994 15.4295C63.6185 16.0731 65.0656 15.8665 66.1328 14.8823C67.1944 13.9031 67.6204 12.2682 67.2016 10.7805C67.1091 10.4518 67.0261 10.1493 67.0171 10.1082C66.9233 9.67558 66.7556 9.37305 66.6482 9.44252C66.5755 9.48973 66.5159 9.41444 66.5159 9.2752C66.5159 8.66313 64.9401 7.70641 63.9731 7.73136C63.6855 7.73883 63.2256 7.81129 62.9511 7.89241ZM79.4917 9.66004V11.6022L80.5255 11.5986C81.9672 11.5937 82.6277 11.4038 83.0921 10.8607L83.4842 10.4022V9.72503C83.4842 8.95594 83.2062 8.29293 82.7403 7.95112L82.4226 7.71791H80.9571H79.4917V9.66004ZM44.6499 8.3137C44.5989 8.58171 44.5569 9.43341 44.5569 10.2062V11.6116L44.7952 11.7073C44.9264 11.7601 45.6372 11.7347 46.3748 11.6509L47.7162 11.4985L48.1371 11.0573C48.6824 10.4862 48.8053 9.73085 48.4725 8.99628C48.0949 8.16266 47.7478 7.99982 46.1521 7.90764L44.743 7.82638L44.6499 8.3137ZM79.6863 8.19881C79.6484 8.2629 79.8459 8.31549 80.1249 8.31549C80.404 8.31549 80.6324 8.24722 80.6324 8.16371C80.6324 7.99026 79.791 8.02148 79.6863 8.19881ZM45.0963 8.49999L45.4217 8.66433L45.5883 8.48983L45.7547 8.31549L45.2627 8.32565L44.7708 8.33566L45.0963 8.49999ZM10.9494 9.67572C10.7797 10.2011 10.601 10.8839 10.5526 11.1928C10.5039 11.5018 10.2775 12.1682 10.0492 12.6739C9.82093 13.1796 9.66736 13.6495 9.70786 13.7182C9.80596 13.8843 12.7208 13.8797 12.8189 13.7132C12.8611 13.6418 12.603 12.751 12.2455 11.7338C11.8881 10.7164 11.5196 9.62224 11.4268 9.30224L11.2581 8.7202L10.9494 9.67572ZM51.5551 15.1253C51.562 15.2994 51.5958 15.3348 51.6413 15.2157C51.6825 15.1079 51.6773 14.9789 51.63 14.9293C51.5827 14.8797 51.549 14.9679 51.5551 15.1253ZM79.8804 16.8595C79.7843 16.9234 80.0906 16.9757 80.5611 16.9757H81.4167L81.2028 16.8298C80.9612 16.6648 80.1453 16.6831 79.8804 16.8595ZM7.77974 19.9059C7.78659 20.08 7.82038 20.1154 7.86587 19.9963C7.90708 19.8885 7.90194 19.7595 7.8546 19.7099C7.80726 19.6603 7.77361 19.7485 7.77974 19.9059ZM41.5359 21.2654C41.6387 21.3086 41.7617 21.3032 41.8091 21.2536C41.8564 21.204 41.7723 21.1688 41.622 21.1752C41.4559 21.1824 41.4221 21.2178 41.5359 21.2654ZM18.7123 22.7562C18.8104 22.7978 18.9708 22.7978 19.0688 22.7562C19.1669 22.7149 19.0866 22.6809 18.8906 22.6809C18.6945 22.6809 18.6144 22.7149 18.7123 22.7562ZM0.211162 24.7535C0.211162 24.8331 0.307411 24.8983 0.425049 24.8983C0.542686 24.8983 0.638934 24.8718 0.638934 24.8395C0.638934 24.8073 0.542686 24.7421 0.425049 24.6948C0.307411 24.6476 0.211162 24.674 0.211162 24.7535Z" fill="white"/>
</svg>
