<svg width="56" height="41" viewBox="0 0 56 41" fill="none" xmlns="http://www.w3.org/2000/svg">
<path fill-rule="evenodd" clip-rule="evenodd" d="M27.8004 0.0960715C27.3574 0.215693 27.1789 0.31161 26.3689 0.864957C25.9154 1.17473 25.5549 1.36786 25.2741 1.45138C24.7081 1.61983 23.871 1.61033 23.1491 1.42741C22.207 1.18862 21.3929 1.25954 20.6306 1.64676C20.1424 1.89466 19.6258 2.42624 19.1135 3.20772C18.3859 4.31752 17.7577 4.74524 16.5774 4.93468C16.239 4.989 15.8188 5.07607 15.6436 5.12832C14.8561 5.36285 14.065 6.04157 13.6911 6.80329C13.5034 7.18573 13.4305 7.45397 13.2245 8.52133C13.0387 9.48341 12.4512 10.261 11.4612 10.8548C10.7219 11.2983 10.3425 11.6865 10.023 12.3268C9.62331 13.1279 9.53483 13.9815 9.75906 14.8746L9.8344 15.1747H10.6018H11.3691L11.2997 15.3049L11.2303 15.435L11.3242 15.4711C11.3759 15.491 11.4948 15.4979 11.5885 15.4864L11.7589 15.4654L12.1001 14.5611C12.6866 13.0073 13.4459 11.5674 14.2678 10.4503C15.3021 9.04471 16.7394 7.53277 17.8158 6.71848C19.1128 5.73709 20.6736 4.80989 21.7968 4.35336C22.5312 4.05489 22.75 3.93618 22.5663 3.93579C22.3857 3.9354 21.2913 4.39548 20.3578 4.86434C19.8388 5.12496 19.4141 5.3301 19.4141 5.32016C19.4141 5.31021 19.6729 5.15358 19.9892 4.97201C22.7098 3.41047 25.4836 2.68609 28.7515 2.68383L30.136 2.68286L30.9088 2.79454C33.1411 3.11723 34.9612 3.69345 36.801 4.65998C38.51 5.55772 39.6492 6.40069 41.1367 7.86832C43.161 9.86546 44.5252 12.0636 45.3003 14.5773L45.5044 15.2393H46.1345H46.7645L46.7338 15.4008L46.703 15.5623H46.9312H47.1595L47.2017 15.1909C47.2248 14.9866 47.3028 14.5005 47.3748 14.1107C47.5365 13.2359 47.512 12.6221 47.2988 12.2048C47.0922 11.8003 46.4496 11.1796 45.8992 10.8527C45.2833 10.4869 44.8802 10.1225 44.5853 9.66484C44.287 9.20205 44.1788 8.88129 44.0181 7.98491C43.9435 7.56881 43.8144 7.11817 43.6986 6.8702C43.3725 6.17107 42.5784 5.44088 41.8691 5.188C41.7203 5.13491 41.2419 5.02001 40.8059 4.93261C39.4879 4.66844 38.8711 4.25099 38.2104 3.17594C37.2346 1.58798 35.8897 1.0046 34.1623 1.41992C33.3399 1.6177 32.9666 1.63959 32.4053 1.5232C31.8152 1.4008 31.4258 1.21278 30.8329 0.764003C30.0931 0.204068 29.4748 -0.00779118 28.6035 0.000218048C28.3484 0.00254331 27.9871 0.0456908 27.8004 0.0960715ZM28.3847 3.69034C28.2064 3.7767 28.1022 4.06736 28.1647 4.30376L28.2125 4.485L28.4318 4.55741C28.989 4.74149 29.3832 4.17619 28.9798 3.7716C28.8126 3.60385 28.6179 3.57731 28.3847 3.69034ZM29.4742 3.68492C29.3939 3.71476 29.3122 3.78116 29.2925 3.83251C29.2382 3.97448 29.3799 4.18795 29.5583 4.2329C29.8253 4.30008 29.7423 4.40368 29.4599 4.35582L29.2023 4.31216V4.41247C29.2023 4.53344 29.3961 4.64686 29.6005 4.64551C29.795 4.64422 29.8833 4.58189 29.9374 4.40756C29.9822 4.26365 29.8883 4.13091 29.6152 3.95232L29.4921 3.87178L29.7111 3.88773C29.8315 3.89652 29.9415 3.87068 29.9555 3.83031C29.9922 3.72432 29.6481 3.62039 29.4742 3.68492ZM27.1643 4.01672C27.1866 4.20319 27.2052 4.42119 27.2055 4.50115L27.206 4.64648H27.4814C27.633 4.64648 27.8213 4.6012 27.9 4.54591L28.0432 4.44541V4.16205V3.87869L27.9 3.77819C27.8177 3.72025 27.6227 3.67762 27.4403 3.67762H27.1237L27.1643 4.01672ZM30.5875 3.81591C30.5234 3.98662 30.523 4.6789 30.5868 4.6975C30.6222 4.70777 30.6601 4.65972 30.671 4.59067L30.6907 4.46511L30.8769 4.49456C31.007 4.5151 31.1029 4.48403 31.1952 4.39147C31.4537 4.13221 31.3042 3.85537 30.8612 3.77289L30.6204 3.72806L30.5875 3.81591ZM26.0476 4.04365C26.048 4.17981 26.0663 4.40026 26.0882 4.53344L26.1282 4.77566H26.3076C26.5577 4.77566 26.6909 4.71436 26.6909 4.5992V4.50115L26.5002 4.53939L26.3095 4.57762L26.2761 4.36984C26.2577 4.25558 26.2348 4.09164 26.2253 4.00561C26.1952 3.73472 26.0468 3.76643 26.0476 4.04365ZM28.4663 3.90827C28.3357 4.03939 28.336 4.29846 28.467 4.34891C28.6723 4.4279 28.8199 4.38553 28.8919 4.2269L28.9651 4.06568L28.8484 3.93624C28.7077 3.78045 28.6016 3.77263 28.4663 3.90827ZM27.3992 4.16205V4.4527H27.5001C27.6849 4.4527 27.85 4.32062 27.85 4.17271C27.85 3.98552 27.7354 3.87139 27.5473 3.87139H27.3992V4.16205ZM31.563 3.91958C31.5466 3.94638 31.4972 4.15165 31.4533 4.37571L31.3735 4.78322L31.4491 4.85904L31.5248 4.93494L31.5623 4.79071C31.6126 4.59804 31.7665 4.60753 31.8425 4.80795C31.8762 4.89677 31.9513 4.96943 32.0094 4.96943H32.1151L32.0834 4.80285C32.0632 4.69705 32.084 4.62387 32.1403 4.60217C32.1912 4.58253 32.2289 4.47563 32.2289 4.35039V4.13272L32.084 4.04204C31.899 3.92623 31.6018 3.85641 31.563 3.91958ZM25.3031 4.0058C25.2557 4.08279 25.0869 4.76054 25.0833 4.88869C25.0795 5.02104 25.2563 4.98015 25.2928 4.84025L25.3265 4.71107H25.5219C25.6294 4.71107 25.7352 4.74013 25.7571 4.77566C25.8123 4.86518 25.9825 4.85691 25.9825 4.76468C25.9825 4.64176 25.5063 3.93714 25.4228 3.93656C25.3807 3.93624 25.3268 3.96737 25.3031 4.0058ZM30.7478 4.12975V4.25893H30.9088H31.0698V4.12975V4.00057H30.9088H30.7478V4.12975ZM24.6538 4.11458L24.5807 4.16205L24.6512 4.50509L24.7216 4.84813L24.6276 4.90781C24.5759 4.94062 24.514 4.96788 24.4899 4.96846C24.3839 4.97085 24.2521 4.75744 24.2118 4.51859C24.1647 4.23898 23.986 4.14823 23.9866 4.40426C23.9879 4.94708 24.2503 5.23561 24.6406 5.12335L24.8469 5.06399L24.895 4.88378C24.9335 4.73942 24.8053 4.06142 24.7404 4.06613C24.7329 4.06671 24.6939 4.08848 24.6538 4.11458ZM31.7137 4.25202C31.7137 4.39238 31.8982 4.48733 31.9906 4.39458C32.0855 4.29943 31.9919 4.12975 31.8445 4.12975C31.7591 4.12975 31.7137 4.17219 31.7137 4.25202ZM32.4808 4.31519L32.3319 4.43604V4.66721C32.3319 4.97977 32.5065 5.16346 32.8024 5.16223C33.07 5.16107 33.1473 5.12012 33.2496 4.92525C33.3645 4.70629 33.338 4.52582 33.1655 4.35291C32.9747 4.1614 32.6894 4.14571 32.4808 4.31519ZM25.4029 4.38812V4.54313L25.4802 4.46563L25.5575 4.38812L25.4802 4.31061L25.4029 4.2331V4.38812ZM32.6282 4.46563C32.5857 4.50826 32.5509 4.62394 32.5509 4.72276V4.90238L32.7117 4.94288C32.9506 5.00302 33.0661 4.93229 33.0661 4.72599C33.0661 4.52195 32.964 4.38812 32.8085 4.38812C32.7518 4.38812 32.6707 4.423 32.6282 4.46563ZM23.242 4.5483L22.9881 4.62122L23.0076 4.74691C23.0443 4.98267 23.2232 5.48454 23.2841 5.52226C23.3858 5.58537 23.7866 5.4204 23.8894 5.27307C24.086 4.99152 23.9504 4.56251 23.6464 4.50425C23.5637 4.48836 23.3817 4.50819 23.242 4.5483ZM33.4499 4.8801L33.3081 5.30743L33.3964 5.36356C33.5817 5.48144 33.9267 5.50585 34.0927 5.41291C34.4076 5.23645 34.3491 4.69182 33.9996 4.54533C33.6419 4.39548 33.6028 4.41931 33.4499 4.8801ZM23.3607 4.71662L23.2181 4.76978L23.289 4.98261C23.3856 5.27288 23.4359 5.31583 23.5854 5.23554C23.7511 5.1466 23.8088 4.99036 23.7302 4.84316C23.6484 4.68988 23.5358 4.65132 23.3607 4.71662ZM33.6578 4.91505L33.5743 5.18355L33.6582 5.23696C33.9934 5.45024 34.2791 4.97589 33.9532 4.74705C33.7568 4.60902 33.7523 4.6116 33.6578 4.91505ZM34.4856 5.10623C34.3175 5.4983 34.3493 5.70544 34.5976 5.83417L34.7751 5.92621L34.967 5.84476L35.1589 5.76338L35.2711 5.45631C35.4584 4.94385 35.289 4.89031 35.0678 5.39192L34.9407 5.67993H34.8064C34.6125 5.67993 34.5752 5.50921 34.6972 5.17922C34.7991 4.90322 34.7937 4.77566 34.6801 4.77566C34.6511 4.77566 34.5636 4.92441 34.4856 5.10623ZM22.2878 5.04209C22.2241 5.36149 22.2407 5.93829 22.3135 5.93829C22.3498 5.93829 22.4057 5.86931 22.4376 5.78502C22.5054 5.60616 22.796 5.50902 22.9299 5.62044L23.0203 5.69575L23.1099 5.62115L23.1995 5.54655L22.8304 5.19337C22.6274 4.99914 22.4313 4.84025 22.3947 4.84025C22.358 4.84025 22.3099 4.93106 22.2878 5.04209ZM21.5231 5.23218C21.2536 5.37487 21.1856 5.57632 21.4265 5.51832L21.5714 5.48338L21.7485 5.80775C22.036 6.33442 22.1669 6.21002 21.9184 5.64634L21.7823 5.33792L21.8862 5.27966C21.9433 5.24762 21.99 5.19375 21.99 5.15997C21.99 5.06199 21.7845 5.09377 21.5231 5.23218ZM22.4407 5.29981C22.4407 5.37338 22.4747 5.42098 22.5172 5.40677C22.6364 5.36692 22.65 5.24782 22.54 5.20551L22.4407 5.16727V5.29981ZM35.4745 5.23826C35.4495 5.27882 35.4788 5.34851 35.5398 5.39321L35.6505 5.4744L35.5112 5.79929C35.3817 6.10125 35.3829 6.30962 35.5137 6.22856C35.5447 6.20937 35.6355 6.06192 35.7158 5.90089L35.8615 5.60797L36.0093 5.64518L36.1571 5.68238V5.58537C36.1571 5.53201 36.0137 5.41549 35.8385 5.32642L35.5199 5.16449L35.4745 5.23826ZM19.1849 5.45741L19.0599 5.55785L19.2048 5.48745C19.2846 5.44869 19.3497 5.40348 19.3497 5.38701C19.3497 5.3376 19.3163 5.35187 19.1849 5.45741ZM20.8836 5.5855C20.6942 5.68852 20.6123 5.86156 20.6753 6.02607C20.7192 6.14104 20.75 6.14931 21.0884 6.13684L21.3138 6.12851L21.1888 6.2272C21.12 6.28146 21.0123 6.32583 20.9493 6.32583C20.874 6.32583 20.8476 6.35897 20.8719 6.42272C20.8923 6.47601 20.95 6.5196 21.0002 6.5196H21.0914L20.9859 6.68108L20.8804 6.84256H21.0687C21.3636 6.84256 21.4966 6.70511 21.513 6.38332C21.5332 5.98641 21.4604 5.88513 21.1364 5.8593L20.863 5.83746L21.0453 5.75828C21.1456 5.71474 21.2162 5.64479 21.2023 5.6028C21.1638 5.48699 21.0738 5.48209 20.8836 5.5855ZM36.1446 5.72372C36.0847 5.73961 36.0031 5.85141 35.9634 5.97213L35.8911 6.19174L35.9984 6.41859L36.1057 6.64536L36.3249 6.68664C36.7419 6.76511 37.0314 6.40476 36.8684 6.00998C36.759 5.74516 36.4804 5.63497 36.1446 5.72372ZM20.0714 6.05862L19.8035 6.2365L19.9469 6.49926C20.0258 6.64381 20.1379 6.831 20.1961 6.91535L20.3019 7.06862L20.5351 6.94493C20.8104 6.79883 20.9216 6.67934 20.8661 6.58923C20.8406 6.5477 20.7453 6.56256 20.6038 6.63025C20.3126 6.76957 20.2372 6.68444 20.4792 6.48944L20.6698 6.33578L20.5528 6.28992C20.4884 6.26473 20.403 6.277 20.3629 6.31724C20.2631 6.41729 20.1225 6.40948 20.1225 6.30394C20.1225 6.25633 20.1949 6.18425 20.2835 6.14382C20.372 6.10332 20.4445 6.04228 20.4445 6.00805C20.4445 5.87286 20.3273 5.88868 20.0714 6.05862ZM36.266 5.94817C36.2017 5.98428 36.1571 6.08814 36.1571 6.20195V6.39456L36.3019 6.44946C36.3857 6.48117 36.496 6.47853 36.5633 6.44307L36.6798 6.38183L36.6599 6.18315C36.6377 5.96128 36.4462 5.84702 36.266 5.94817ZM25.8681 7.1803L25.8859 8.16666L25.9669 8.15032C26.0114 8.14141 26.2979 8.13133 26.6033 8.12804L27.1588 8.12197L27.3273 8.24818L27.4958 8.37439V8.65109V8.9278L27.3138 9.06396L27.1318 9.20011L26.7975 9.19701C26.5901 9.19501 26.3519 9.13985 26.1703 9.05168C26.0092 8.97346 25.8584 8.90946 25.835 8.90946C25.7878 8.90946 25.5961 9.25934 25.5961 9.34551C25.5961 9.43529 26.1215 9.66413 26.5165 9.74635L26.884 9.82289L27.2237 9.75217C27.6978 9.65347 27.964 9.47262 28.1099 9.15031C28.2519 8.8366 28.2677 8.57016 28.1628 8.25703C28.007 7.79178 27.6195 7.55977 26.9078 7.50584L26.4333 7.4698V7.15815V6.84643L27.2543 6.82835L28.0754 6.81026V6.52283V6.23534L26.9629 6.21467L25.8504 6.194L25.8681 7.1803ZM29.2161 6.24251C29.1351 6.25808 28.954 6.38041 28.8136 6.51437L28.5583 6.75794V7.06288C28.5583 7.39455 28.6357 7.58748 28.8331 7.74779L28.9602 7.85101L28.7923 7.96133C28.5833 8.09872 28.3652 8.51661 28.3652 8.77976C28.3652 9.04774 28.5072 9.36449 28.7021 9.53101C29.0418 9.82134 30.1859 9.85713 30.5921 9.59011C31.149 9.22414 31.2035 8.56086 30.7191 8.04569L30.4988 7.81135L30.621 7.74573C30.786 7.65717 30.9041 7.23598 30.848 6.93596C30.7431 6.37499 30.0528 6.08168 29.2161 6.24251ZM37.1389 6.27112C37.0295 6.38086 37.038 6.59052 37.1589 6.76356L37.2591 6.90715H37.131C37.0594 6.90715 36.9849 6.85011 36.962 6.77797C36.9117 6.61901 36.7358 6.60629 36.7387 6.76182C36.7463 7.18146 37.3935 7.35418 37.4798 6.9596L37.5219 6.76737L37.3756 6.61119L37.2293 6.45501H37.3293C37.3842 6.45501 37.4653 6.49861 37.5094 6.5519C37.6082 6.67133 37.7026 6.67734 37.7026 6.56424C37.7026 6.32609 37.2953 6.1143 37.1389 6.27112ZM31.1485 6.62017C30.9689 6.74632 30.9669 6.92633 31.1418 7.21027C31.235 7.36148 31.3105 7.41942 31.3797 7.39274L31.4811 7.35373L31.3633 7.48433L31.2455 7.61493L31.3516 7.65582C31.5529 7.73326 31.6493 7.56255 31.6493 7.12895V6.72068L31.5062 6.62017C31.4275 6.56488 31.347 6.5196 31.3274 6.5196C31.3077 6.5196 31.2272 6.56488 31.1485 6.62017ZM18.9956 6.78643C18.7942 6.89933 18.7058 7.04395 18.7058 7.26039C18.7058 7.5475 18.8666 7.74682 19.0983 7.74682H19.2904L19.2084 7.83486C19.1585 7.88847 19.0883 7.90262 19.0288 7.8711C18.7707 7.73429 18.1652 7.48846 18.0862 7.48846C17.9679 7.48846 17.9741 7.59562 18.1194 8.06403L18.2415 8.45732H18.159C18.1137 8.45732 18.0292 8.52999 17.9711 8.6188C17.8407 8.81851 17.5801 8.8344 17.481 8.64864C17.3858 8.4703 17.451 8.29856 17.6481 8.20852C17.738 8.16744 17.7937 8.10485 17.7718 8.06952C17.6463 7.86567 17.2247 8.20645 17.2247 8.51184C17.2247 8.61608 17.28 8.77 17.3478 8.85384L17.4709 9.00634L17.7664 8.9951C18.1066 8.98218 18.1333 9.02623 17.8847 9.18997L17.7076 9.30662L17.8527 9.27555C17.9424 9.25631 18.019 9.28253 18.0535 9.34434C18.0842 9.39931 18.142 9.42398 18.1821 9.39912C18.2687 9.3455 18.2806 8.86838 18.1967 8.81632C18.1064 8.76038 18.1916 8.52637 18.2886 8.5637C18.3794 8.59864 18.5357 8.37284 18.4678 8.30476C18.4136 8.25044 18.6399 8.00519 18.7442 8.00519C18.8685 8.00519 18.9197 8.12836 18.837 8.22835C18.7868 8.28906 18.785 8.32976 18.8314 8.3585C18.9388 8.42503 19.0356 8.32924 19.0147 8.17706L18.9956 8.03748L19.1616 8.0568C19.2529 8.06745 19.3894 8.02386 19.4648 7.95991L19.602 7.84371L19.6434 7.45533L19.6849 7.06695L19.5656 6.92523C19.4191 6.75116 19.1676 6.68993 18.9956 6.78643ZM29.2391 6.86432C29.0313 7.07282 29.0289 7.25587 29.2316 7.45908L29.3896 7.61764H29.7002C30.1033 7.61764 30.297 7.4842 30.297 7.20646C30.297 6.87356 30.1727 6.76201 29.764 6.72804L29.4048 6.69813L29.2391 6.86432ZM31.263 6.86949C31.263 6.92575 31.3088 6.97174 31.3649 6.97174C31.4786 6.97174 31.4589 6.83267 31.3395 6.79276C31.2974 6.77868 31.263 6.81323 31.263 6.86949ZM20.702 6.93944L20.6219 7.03633H20.7565C20.8498 7.03633 20.8798 7.00655 20.8541 6.93944C20.8337 6.88616 20.8092 6.84256 20.7996 6.84256C20.7901 6.84256 20.7462 6.88616 20.702 6.93944ZM38.0305 7.22293C37.8856 7.39662 37.767 7.56901 37.767 7.60608C37.767 7.69871 38.0914 7.92258 38.303 7.9758C38.413 8.00351 38.5167 7.9873 38.5851 7.93168L38.6932 7.84371L38.6439 7.926C38.6168 7.97128 38.6138 8.09613 38.6373 8.20335C38.7722 8.81974 39.6344 8.79293 39.6344 8.17241V7.95209L39.4363 7.78487C39.2226 7.60447 39.1128 7.58206 38.9283 7.68107L38.8101 7.7445L38.8167 7.51152L38.8232 7.27854L38.6161 7.09285C38.5021 6.99073 38.383 6.90715 38.3515 6.90715C38.3199 6.90715 38.1755 7.04925 38.0305 7.22293ZM18.9656 7.09666C18.8644 7.28623 18.8851 7.41186 19.0302 7.48975C19.1688 7.56416 19.4086 7.52121 19.4222 7.41955C19.4266 7.38641 19.4358 7.32298 19.4425 7.27854C19.4851 6.99958 19.0965 6.85141 18.9656 7.09666ZM17.866 7.32983L17.7157 7.49014L17.7901 7.56468L17.8644 7.63922L17.9056 7.53155C17.9283 7.47232 17.9872 7.42387 18.0365 7.42387C18.0858 7.42387 18.1262 7.38202 18.1262 7.3308C18.1262 7.16583 18.02 7.16545 17.866 7.32983ZM38.1914 7.36406L38.0249 7.56261L38.121 7.65905C38.1739 7.71207 38.2969 7.74624 38.3945 7.735L38.5719 7.71453L38.5926 7.53303C38.6125 7.35909 38.5157 7.16551 38.4087 7.16551C38.3808 7.16551 38.283 7.25484 38.1914 7.36406ZM18.2801 7.84823C18.3017 7.90488 18.3194 7.96501 18.3194 7.982C18.3194 7.99892 18.3484 7.99485 18.3838 7.97289C18.4794 7.91366 18.4619 7.83053 18.3444 7.78532L18.2406 7.74534L18.2801 7.84823ZM38.939 7.95352C38.8183 8.07456 38.8478 8.31619 38.9929 8.39402C39.2691 8.54232 39.526 8.28467 39.3781 8.00764C39.3005 7.86212 39.0596 7.83247 38.939 7.95352ZM29.2599 8.24165C29.1498 8.27124 29.0414 8.4559 28.9861 8.70826L28.9523 8.8623L29.1367 9.04736L29.3212 9.23241L29.6642 9.23144C30.0255 9.23047 30.2742 9.13914 30.3804 8.96843C30.4724 8.82038 30.3782 8.37245 30.2642 8.41631C30.2087 8.43769 30.1872 8.41844 30.2073 8.3656C30.2266 8.31542 30.1791 8.2642 30.0914 8.24062C29.9288 8.19696 29.4242 8.1976 29.2599 8.24165ZM20.7151 8.62797C20.5308 8.75734 20.3801 8.88084 20.3801 8.90248C20.3801 8.94375 21.2367 9.17867 23.7041 9.81392L25.1928 10.1972L25.5287 10.1573L25.8645 10.1174L26.0227 10.2885C26.1998 10.4801 26.3776 10.5079 26.4977 10.3627C26.5418 10.3095 26.6216 10.2659 26.6752 10.2659C26.8211 10.2659 26.4432 10.5452 26.2796 10.5583C26.2047 10.5643 26.0881 10.5931 26.0204 10.6222L25.8974 10.6752L25.9342 10.534C25.9794 10.3605 25.8347 10.2013 25.6319 10.2013C25.4093 10.2013 24.8878 10.4523 24.8878 10.5596V10.6534H24.6349H24.3819L24.2485 10.8236C24.1751 10.9172 24.115 10.9558 24.115 10.9094C24.115 10.863 24.1631 10.7717 24.222 10.7066C24.2808 10.6413 24.317 10.5789 24.3025 10.5677C24.2879 10.5564 23.242 10.2917 21.9782 9.97927L19.6803 9.41119L19.4989 9.54154C19.2267 9.73718 19.0102 9.98902 19.0782 10.0311C19.1516 10.0767 23.1378 11.0001 23.7447 11.1122L24.1794 11.1925V11.2992C24.1794 11.358 24.1042 11.4764 24.0123 11.5626C23.8164 11.7462 23.6643 12.019 23.6643 12.1868C23.6643 12.3291 24.1182 12.8495 24.2423 12.8495C24.2904 12.8495 24.3148 12.8644 24.2966 12.8827C24.2351 12.9444 21.3736 12.4895 18.9956 12.04C18.3226 11.9128 17.6851 11.7933 17.5788 11.7744L17.3857 11.7401L17.1718 12.0447C17.0522 12.2152 16.9824 12.374 17.0134 12.4051C17.1798 12.5719 25.1266 13.7295 25.2508 13.6049C25.3166 13.539 25.086 13.2338 24.8827 13.1178C24.6964 13.0115 24.6368 12.9141 24.7581 12.9141C24.8719 12.9141 25.3015 13.2543 25.5154 13.5137L25.7244 13.7671L25.6914 13.9553L25.6583 14.1434L25.8848 14.3706C26.0094 14.4955 26.1113 14.6224 26.1113 14.6525C26.1113 14.6826 26.0099 14.7849 25.8859 14.8797C25.7619 14.9745 25.6605 15.0912 25.6605 15.139C25.6605 15.1868 25.7641 15.3088 25.8908 15.4102C26.0174 15.5116 26.1696 15.6415 26.2289 15.6988C26.2881 15.7562 26.3988 15.8355 26.4747 15.875L26.6127 15.947L26.7875 15.8091C27.0371 15.6121 27.3348 15.1798 27.3348 15.0144C27.3348 14.8641 27.771 14.4642 27.9349 14.4642C28.0539 14.4642 28.1577 14.3361 28.3435 13.96C28.4258 13.7933 28.4769 13.7222 28.457 13.8022C28.4371 13.8822 28.4489 13.9475 28.4831 13.9475C28.5174 13.9475 28.5951 14.1716 28.6559 14.4456C28.7166 14.7195 28.813 15.0174 28.87 15.1076C28.9875 15.2937 29.1976 15.4977 29.2715 15.4977C29.3283 15.4977 29.6417 15.2526 30.3258 14.6733L30.8036 14.2687L30.9045 14.4131C30.96 14.4926 31.0054 14.6082 31.0054 14.6701C31.0054 14.732 31.0627 14.8134 31.1327 14.851L31.26 14.9193L31.3936 14.7854C31.4764 14.7023 31.5137 14.6036 31.4916 14.5255C31.4721 14.4563 31.4419 14.3486 31.4245 14.2861L31.393 14.1726L32.5032 14.2497C34.2136 14.3687 37.6886 14.5252 39.6595 14.572L41.4375 14.6142V14.5415C41.4375 14.391 41.177 14.3509 39.9242 14.3084C37.8805 14.239 33.326 13.9475 31.5932 13.7751L31.1829 13.7343L31.3021 13.9216L31.4214 14.109L31.1329 13.8767L30.8444 13.6444L30.6834 13.1764C30.4905 12.6159 30.3682 12.5053 29.9863 12.5464L29.7077 12.5763L29.6743 12.489C29.656 12.4409 29.7444 12.2917 29.8708 12.1573C29.9972 12.0228 30.1184 11.8257 30.1401 11.7191C30.1617 11.6126 30.2371 11.4028 30.3074 11.2529L30.4354 10.9804L30.6555 10.939C30.9649 10.8808 31.1986 10.9514 31.1986 11.103C31.1986 11.1712 31.2294 11.2461 31.267 11.2695C31.3046 11.2928 31.3619 11.382 31.3945 11.4678C31.427 11.5537 31.5338 11.6558 31.632 11.6949C31.73 11.734 31.8872 11.8063 31.9812 11.8556C32.322 12.0342 32.6653 11.9517 33.3558 11.5251C33.6825 11.3233 33.967 11.3176 34.1431 11.5092C34.2166 11.5892 34.2869 11.7096 34.2992 11.7768C34.3117 11.8441 34.3743 11.9313 34.4385 11.9706L34.5552 12.0421L34.6839 11.8847C35.012 11.4836 34.4518 10.8456 33.7744 10.8487L33.4846 10.8501L33.0769 11.0705C32.806 11.217 32.6817 11.258 32.7066 11.1929C32.7272 11.1391 32.7441 11.0729 32.7441 11.0459C32.7441 11.0189 32.8628 10.9611 33.0079 10.9175C33.323 10.8228 33.3186 10.7728 33.0012 10.8405L32.7763 10.8885L32.6209 10.7889C32.5279 10.7294 32.3082 10.6872 32.0735 10.6841C31.8117 10.6806 31.5853 10.6322 31.3918 10.5384C30.9074 10.3036 30.3076 10.3779 30.0134 10.7091C29.9459 10.785 29.8633 10.8472 29.8299 10.8472C29.7965 10.8472 29.6725 10.8932 29.5545 10.9494L29.3398 11.0515L29.0582 10.886C28.8881 10.786 28.7338 10.6304 28.6685 10.4932C28.609 10.3681 28.5185 10.2659 28.4674 10.2659C28.3652 10.2659 28.1998 10.4105 28.1548 10.5392C28.1356 10.5942 28.0849 10.5707 28.0002 10.4676L27.8742 10.314L27.7356 10.3582C27.6397 10.3887 27.5834 10.4759 27.5531 10.6409C27.4927 10.971 27.271 11.1008 27.1733 10.8633C27.0827 10.6431 27.0267 10.3314 27.0841 10.367C27.1157 10.3866 27.1416 10.459 27.1416 10.528C27.1416 10.6103 27.1859 10.6534 27.2704 10.6534C27.3509 10.6534 27.3992 10.6103 27.3992 10.5386C27.3992 10.4755 27.4427 10.3615 27.4958 10.2854L27.5925 10.1471L27.2865 10.0453C27.1183 9.98941 26.5605 9.83956 26.0469 9.71232C25.2118 9.5055 22.9036 8.87438 21.7004 8.52398C21.4526 8.45177 21.2048 8.39273 21.1499 8.39273C21.095 8.39273 20.8993 8.4986 20.7151 8.62797ZM16.8129 8.7047C16.7947 8.73416 16.9375 8.91436 17.1301 9.10517C17.3515 9.32452 17.4535 9.46868 17.4075 9.49723C17.3674 9.52203 17.3525 9.58888 17.3743 9.64572C17.4453 9.83142 17.5326 9.75462 17.5584 9.48373L17.5836 9.21833L17.2603 8.93471C16.9274 8.64257 16.8695 8.61279 16.8129 8.7047ZM40.0406 8.71982C39.655 8.86605 39.6112 9.39995 39.9672 9.61704C40.0726 9.68138 40.1567 9.75191 40.1542 9.77387C40.1376 9.91765 40.1661 9.94956 40.2945 9.93121C40.4591 9.9077 40.697 10.1531 40.644 10.2916C40.6113 10.377 40.819 10.7826 40.8954 10.7826C40.917 10.7826 41.0188 10.7224 41.1217 10.649C41.3261 10.503 41.3694 10.5437 41.2043 10.7266C41.0522 10.8952 41.1369 11.0409 41.3872 11.0414L41.5985 11.0418L41.4266 11.1555L41.2546 11.2693L41.3183 11.3834L41.382 11.4975L41.7156 11.2553C42.099 10.9768 42.1459 10.9225 42.1022 10.8083L42.0705 10.7254L41.7502 10.7635L41.4297 10.8015L41.5677 10.536C41.7948 10.099 41.6509 10.0213 41.2067 10.3413C41.0504 10.4539 40.9063 10.5297 40.8865 10.5098C40.8666 10.4899 40.9376 10.2901 41.0442 10.0657C41.1773 9.7853 41.218 9.63365 41.1742 9.58075L41.1105 9.50382L40.8071 9.58436C40.6403 9.62867 40.4385 9.68583 40.3589 9.71141L40.214 9.75785V9.63985C40.214 9.57493 40.156 9.48554 40.0852 9.44116C40.0034 9.38988 39.9564 9.29054 39.9564 9.16853V8.9765L40.1137 8.93691C40.3092 8.88769 40.3974 8.93981 40.478 9.15232L40.5407 9.31805L40.6153 9.24326C40.8293 9.02863 40.3581 8.59942 40.0406 8.71982ZM36.0927 8.79248C35.2621 9.0325 29.9788 10.262 29.0508 10.4313L28.8027 10.4765L29.0266 10.7011L29.2505 10.9256L29.4518 10.8813C29.5625 10.8569 29.7694 10.7394 29.9116 10.6204C30.0798 10.4793 30.2907 10.3787 30.5161 10.3317L30.8623 10.2597L31.2075 10.3797L31.5527 10.4998L31.7781 10.4496C31.9021 10.422 32.3368 10.3273 32.7441 10.2392C35.7869 9.58158 37.1969 9.23551 37.1492 9.15806C37.0636 9.01919 36.5804 8.71601 36.4533 8.7215C36.3789 8.72472 36.2166 8.75663 36.0927 8.79248ZM16.5311 9.01726C16.388 9.075 16.2694 9.38097 16.3288 9.53921C16.3927 9.70947 16.5146 9.7222 16.7771 9.58598C17.0196 9.46022 17.0336 9.5812 16.798 9.76709L16.6289 9.90047L16.7432 9.98424L16.8574 10.068L16.7762 10.1662L16.695 10.2643L16.8044 10.3065C16.9847 10.3759 17.2054 10.0856 17.2419 9.73124L17.2736 9.42269L17.1465 9.33336L17.0194 9.24403L16.7931 9.33892C16.5178 9.45428 16.4294 9.39563 16.6392 9.23687C16.842 9.08346 16.7632 8.9236 16.5311 9.01726ZM15.8058 9.89446L15.6698 10.0398L15.6907 10.3095L15.7116 10.5792L15.5441 10.5455L15.3766 10.5119L15.1713 10.7603L14.966 11.0086L15.1474 11.1726C15.2471 11.2628 15.4003 11.3871 15.4878 11.449L15.647 11.5613L15.5504 11.6231C15.4972 11.6571 15.3654 11.6853 15.2574 11.6859L15.0611 11.6868L14.9792 11.4597C14.8795 11.1831 14.7505 11.231 14.8054 11.5244L14.8447 11.7348L14.6502 11.7738C14.5277 11.7983 14.4556 11.8524 14.4556 11.9198V12.0268L14.705 11.9933L14.9543 11.9597L15.0485 12.1591L15.1426 12.3586L14.9875 12.5879C14.8311 12.8191 14.6598 12.8997 14.7059 12.7203C14.7832 12.4198 14.7861 12.3328 14.7192 12.3328C14.6787 12.3328 14.6181 12.4054 14.5844 12.4942C14.5508 12.583 14.479 12.6557 14.4251 12.6557C14.3023 12.6557 14.3024 12.6074 14.4258 12.3701L14.5239 12.1813L14.4415 12.1303C14.3849 12.0951 14.3148 12.1642 14.2171 12.3513C14.139 12.5009 14.0738 12.656 14.0722 12.6958C14.0706 12.7356 14.2561 12.8643 14.4846 12.9818C14.713 13.0994 14.8845 13.2266 14.8657 13.2647C14.847 13.3028 14.9064 13.2523 14.9978 13.1527C15.0892 13.053 15.164 12.9132 15.164 12.8421C15.164 12.7709 15.193 12.7306 15.2284 12.7526C15.2638 12.7746 15.2971 12.7545 15.3023 12.708C15.3075 12.6615 15.3178 12.5798 15.325 12.5265C15.3322 12.4732 15.3424 12.3756 15.3477 12.3097C15.3535 12.2363 15.3916 12.203 15.4459 12.2239C15.5558 12.2662 15.6792 12.1499 15.6792 12.0038C15.6792 11.9437 15.7154 11.8805 15.7597 11.8634C15.8557 11.8265 15.857 11.4519 15.7615 11.356C15.7149 11.3093 15.7236 11.2298 15.7899 11.0966C15.8425 10.9909 15.8715 10.8506 15.8543 10.7849L15.8232 10.6654L16.0078 10.73L16.1925 10.7946L16.1288 10.9138C15.9838 11.1857 16.3482 11.1143 16.5452 10.8323C16.6763 10.6445 16.6761 10.0807 16.5448 9.89272L16.4446 9.74913H16.1932H15.9418L15.8058 9.89446ZM35.8995 10.21C34.9609 10.4206 34.1501 10.6082 34.0977 10.6269C34.0355 10.6489 34.0942 10.702 34.2662 10.7793C34.4114 10.8445 34.5755 10.9628 34.631 11.0423L34.7319 11.1868L36.5553 10.8209C37.5582 10.6197 38.42 10.4405 38.4704 10.4227L38.562 10.3905L38.2799 10.1021L37.9977 9.81372L37.8019 9.82038C37.6941 9.82406 36.838 9.99936 35.8995 10.21ZM40.7292 9.87831C40.7292 9.91384 40.7581 9.9429 40.7936 9.9429C40.829 9.9429 40.858 9.91384 40.858 9.87831C40.858 9.84279 40.829 9.81372 40.7936 9.81372C40.7581 9.81372 40.7292 9.84279 40.7292 9.87831ZM15.985 10.0127C15.9231 10.0489 15.8724 10.1439 15.8724 10.2239C15.8724 10.5488 16.2784 10.6505 16.3909 10.3537L16.4556 10.1832L16.3471 10.063C16.2252 9.92792 16.1484 9.9172 15.985 10.0127ZM27.9788 10.2943C27.9788 10.3497 28.0078 10.395 28.0432 10.395C28.0786 10.395 28.1076 10.3677 28.1076 10.3343C28.1076 10.3008 28.0786 10.2555 28.0432 10.2336C28.0078 10.2116 27.9788 10.239 27.9788 10.2943ZM26.5303 10.653C26.4659 10.7243 26.4433 10.7826 26.4798 10.7826C26.5608 10.7826 26.7214 10.598 26.6782 10.5546C26.6611 10.5375 26.5945 10.5817 26.5303 10.653ZM28.2364 10.6072C28.2364 10.6646 28.1856 10.7412 28.1237 10.7774L28.011 10.8432L28.1194 10.8452C28.2274 10.8472 28.3466 10.6133 28.2744 10.5409C28.2535 10.5199 28.2364 10.5497 28.2364 10.6072ZM18.1276 10.8781C17.9719 11.0373 17.8615 11.1845 17.8824 11.2055C17.9563 11.2795 22.6872 12.2053 23.3724 12.2797L23.5635 12.3005L23.6126 12.0139C23.6396 11.8563 23.653 11.7187 23.6426 11.7081C23.632 11.6976 23.0603 11.5716 22.372 11.4281C21.6838 11.2846 20.5376 11.0371 19.8249 10.878C19.1123 10.719 18.5025 10.5888 18.47 10.5888C18.4373 10.5888 18.2832 10.719 18.1276 10.8781ZM27.6268 10.7684C27.5986 10.885 27.503 11.0375 27.4143 11.1075C27.3256 11.1775 27.2787 11.2337 27.31 11.2324C27.3414 11.2311 27.4491 11.1628 27.5493 11.0805L27.7316 10.9309L27.7048 10.7437L27.678 10.5565L27.6268 10.7684ZM24.9333 10.7833C24.9116 10.8665 24.9317 10.9118 24.9904 10.9118C25.0899 10.9118 25.1148 10.7466 25.0239 10.6902C24.9925 10.6708 24.9517 10.7126 24.9333 10.7833ZM30.0394 10.8795C29.9562 10.9683 29.915 11.04 29.9477 11.0389C30.0028 11.0371 30.2682 10.718 30.2147 10.718C30.2015 10.718 30.1226 10.7907 30.0394 10.8795ZM30.4297 10.8275C30.3078 10.8916 30.1952 10.9877 30.1793 11.0409C30.1608 11.1035 30.2064 11.0864 30.3084 10.9925L30.4663 10.8472H30.7723C31.1593 10.8472 31.3274 10.9359 31.3274 11.1401C31.3274 11.2277 31.3543 11.2993 31.3873 11.2993C31.4202 11.2993 31.4565 11.3644 31.4677 11.444C31.48 11.5299 31.5406 11.5966 31.6171 11.6081C31.688 11.6188 31.8868 11.691 32.059 11.7685L32.3722 11.9095L32.9698 11.5915C33.66 11.2243 33.9366 11.1869 34.1912 11.4268C34.2808 11.5112 34.354 11.6461 34.354 11.7266C34.354 11.8786 34.4349 11.9718 34.5054 11.901C34.5278 11.8786 34.5101 11.8167 34.4661 11.7636C34.4222 11.7105 34.3931 11.6496 34.4015 11.6285C34.4422 11.5263 34.3262 11.3529 34.1594 11.2663C33.857 11.1094 33.578 11.1478 33.1588 11.4039C32.9485 11.5325 32.6859 11.6766 32.5754 11.7242L32.3745 11.8107L32.1271 11.6842C31.991 11.6146 31.811 11.5577 31.7269 11.5577C31.5266 11.5577 31.5749 11.4027 31.7832 11.377C32.0284 11.3469 32.2808 11.2314 32.3189 11.1319C32.3743 10.9869 31.9275 10.9936 31.6414 11.142C31.4554 11.2384 31.3542 11.1965 31.4611 11.0674L31.5292 10.985L31.3629 10.8757C31.1125 10.7111 30.6921 10.6894 30.4297 10.8275ZM15.3321 10.8842C15.3107 10.9402 15.3352 11.0281 15.3865 11.0796L15.4798 11.1732L15.5473 11.0467C15.5844 10.9772 15.6148 10.8893 15.6148 10.8514C15.6148 10.7432 15.3754 10.771 15.3321 10.8842ZM24.2778 10.9734C24.257 11.0073 24.2589 11.1113 24.2823 11.2046L24.3248 11.3743L24.1791 11.579L24.0335 11.7837L24.187 11.6366L24.3404 11.4895L24.342 11.2006C24.3436 10.8949 24.3382 10.8755 24.2778 10.9734ZM38.7329 10.9791C38.6089 11.0089 37.7686 11.167 36.8654 11.3304C35.9623 11.4939 35.1649 11.6398 35.0935 11.6546C35.0212 11.6697 34.9303 11.7704 34.8885 11.8817L34.8132 12.0817L34.8895 12.1071C35.0129 12.1483 36.9023 12.4445 39.2159 12.7853C39.7117 12.8583 40.2317 12.9352 40.3714 12.9562L40.6254 12.9942L40.5255 12.8411C40.4705 12.7569 40.332 12.5354 40.2177 12.3489L40.0097 12.0098H39.869C39.7915 12.0098 39.3868 12.0808 38.9696 12.1676L38.211 12.3254L37.5609 12.2011C37.2034 12.1328 36.9022 12.0683 36.8918 12.0578C36.8814 12.0473 37.4486 11.9408 38.1525 11.821C38.8563 11.7013 39.4676 11.5812 39.511 11.5544L39.5898 11.5055L39.3384 11.2108C39.0696 10.8955 39.074 10.8972 38.7329 10.9791ZM30.5707 11.0429C30.3485 11.1325 30.3948 11.2846 30.6673 11.3605C30.8002 11.3975 30.9745 11.4279 31.0549 11.4281L31.201 11.4285L31.1577 11.2509C31.0908 10.977 30.9011 10.9098 30.5707 11.0429ZM29.3787 11.196L29.2653 11.2823L29.3465 11.3454C29.5237 11.4829 29.5565 11.4748 29.5565 11.2932C29.5565 11.0826 29.5397 11.0734 29.3787 11.196ZM41.84 11.3698C41.4839 11.5789 41.469 11.5992 41.5624 11.7473L41.6209 11.84L41.7138 11.7626L41.8068 11.6852L41.8853 11.7801C41.9285 11.8323 41.9446 11.906 41.9213 11.944C41.8979 11.982 41.9026 12.0088 41.9318 12.0037C41.961 11.9987 42.0863 11.9999 42.2103 12.0065L42.4357 12.0185L42.2951 12.0867C42.1179 12.1726 42.0439 12.5543 42.1528 12.8201C42.1958 12.9251 42.2288 13.0255 42.2261 13.0433C42.2234 13.061 42.3389 13.0838 42.4829 13.094L42.7445 13.1124L42.896 12.9697C43.196 12.6869 43.0427 12.1757 42.6192 12.0472L42.4808 12.0052L42.5496 11.8223L42.6185 11.6394L42.4914 11.4211C42.4215 11.301 42.3224 11.1957 42.2712 11.187C42.22 11.1783 42.026 11.2606 41.84 11.3698ZM29.6531 11.2914C29.6531 11.3761 29.8195 11.4984 29.8683 11.4495C29.9564 11.3611 29.9056 11.2347 29.7819 11.2347C29.711 11.2347 29.6531 11.2602 29.6531 11.2914ZM32.3325 11.3313C32.2655 11.3822 32.1785 11.4372 32.1393 11.4535C32.0929 11.4729 32.1017 11.5072 32.1645 11.5518C32.3041 11.6507 32.3577 11.638 32.3577 11.506C32.3577 11.4421 32.3925 11.3549 32.435 11.3122C32.5398 11.2071 32.4818 11.2179 32.3325 11.3313ZM32.8085 11.3639C32.7504 11.4015 32.7425 11.4269 32.7886 11.4275C32.8307 11.428 32.8832 11.3994 32.9051 11.3639C32.9545 11.2837 32.9322 11.2837 32.8085 11.3639ZM42.1301 11.5006L42.0192 11.5629L42.098 11.6894C42.1958 11.8466 42.3394 11.8547 42.3381 11.703C42.3364 11.5122 42.2534 11.4315 42.1301 11.5006ZM33.477 11.6518L33.1626 11.7999L33.3236 11.8412C33.637 11.9215 34.127 11.9984 34.1672 11.9735C34.2222 11.9395 34.1596 11.6292 34.0889 11.5854C33.9449 11.496 33.7667 11.5154 33.477 11.6518ZM30.1368 12.0083C30.078 12.1223 30.0427 12.2284 30.0584 12.2441C30.2033 12.3895 40.2651 13.6684 40.8131 13.6111L40.9936 13.5923L40.9043 13.4708L40.8151 13.3492L39.5325 13.2023C36.8766 12.8982 34.0637 12.4755 30.4475 11.8369L30.2437 11.8009L30.1368 12.0083ZM15.2693 12.0417C15.2897 12.0948 15.3322 12.1222 15.3639 12.1025C15.4549 12.0462 15.4312 11.9452 15.327 11.9452C15.2695 11.9452 15.2469 11.9831 15.2693 12.0417ZM23.7833 12.1199C23.7607 12.1981 23.7754 12.3028 23.816 12.3524C23.9139 12.4723 24.3389 12.7849 24.404 12.7849C24.4324 12.7849 24.3229 12.6833 24.1608 12.5591C23.9587 12.4044 23.8595 12.2775 23.8452 12.1555L23.8243 11.9775L23.7833 12.1199ZM29.6148 12.1551L29.4921 12.3005L29.6531 12.172C29.7416 12.1013 29.8262 12.0359 29.8409 12.0267C29.8557 12.0174 29.8384 12.0098 29.8026 12.0098C29.7667 12.0098 29.6822 12.0752 29.6148 12.1551ZM42.3798 12.4048C42.2574 12.5799 42.3353 12.8098 42.5267 12.8383C42.7083 12.8654 42.8542 12.7432 42.8542 12.5639C42.8542 12.2691 42.5465 12.1659 42.3798 12.4048ZM24.6997 12.6995L24.6082 12.803L24.6997 12.7698C24.75 12.7516 24.8563 12.7963 24.9361 12.869C25.0158 12.9417 25.081 12.9701 25.081 12.9322C25.081 12.8943 25.0375 12.8466 24.9844 12.8261C24.9312 12.8057 24.8878 12.7445 24.8878 12.69C24.8878 12.564 24.8163 12.5676 24.6997 12.6995ZM16.4831 13.1093C16.2235 13.522 16.2223 13.5479 16.4626 13.5873C17.1301 13.6967 17.4416 13.756 17.4634 13.7779C17.4769 13.7914 17.1751 13.8236 16.7928 13.8493C16.13 13.894 15.9367 13.9489 15.9367 14.0924C15.9367 14.1591 17.2795 14.1164 18.416 14.0135C18.8002 13.9788 19.2017 13.988 19.6073 14.0409L20.2191 14.1206L19.8005 14.1627C19.188 14.2244 17.0133 14.3351 16.4144 14.3351C15.9339 14.3351 15.7436 14.3937 15.7436 14.5418C15.7436 14.5702 16.0841 14.5935 16.5002 14.5936C17.2584 14.5937 21.8883 14.4209 22.3119 14.3767C22.4359 14.3637 23.1169 14.4063 23.8252 14.4713C24.5336 14.5363 25.2679 14.5903 25.457 14.5914L25.8008 14.5934L25.6341 14.3947C25.5424 14.2854 25.4673 14.1581 25.4673 14.1118V14.0275L24.7107 13.9506C22.5371 13.7294 17.2079 13.0087 16.7608 12.8754L16.651 12.8426L16.4831 13.1093ZM30.7107 13.0174C30.7361 13.1204 30.7794 13.2279 30.8069 13.2561C30.9148 13.3674 35.8582 13.8276 39.9242 14.105C40.6326 14.1534 41.2217 14.1838 41.2334 14.1726C41.2452 14.1615 41.2253 14.0972 41.1894 14.0298L41.124 13.9073L39.6226 13.7942C36.978 13.5949 32.4178 13.1111 30.9206 12.8711L30.6645 12.83L30.7107 13.0174ZM25.4078 13.1548C25.4559 13.2178 25.5035 13.2815 25.5135 13.2963C25.5236 13.311 25.5317 13.2778 25.5317 13.2224C25.5317 13.167 25.4841 13.1034 25.4261 13.081L25.3203 13.0403L25.4078 13.1548ZM28.4093 13.3905C28.388 13.4462 28.4232 13.4956 28.4984 13.5153C28.6433 13.5533 28.6617 13.479 28.5337 13.3725L28.4446 13.2983L28.4093 13.3905ZM25.5317 13.3926C25.5317 13.4049 25.5752 13.4511 25.6283 13.4954C25.684 13.5418 25.7249 13.548 25.7249 13.5102C25.7249 13.4741 25.6815 13.4279 25.6283 13.4074C25.5752 13.387 25.5317 13.3804 25.5317 13.3926ZM28.6973 14.0767C28.6973 14.1655 28.7119 14.2019 28.7298 14.1574C28.7477 14.1131 28.7477 14.0404 28.7298 13.996C28.7119 13.9516 28.6973 13.9879 28.6973 14.0767ZM30.6623 14.1031C30.6384 14.1658 30.6557 14.1877 30.7123 14.1659C30.8303 14.1205 31.047 14.3663 31.0932 14.5979C31.114 14.702 31.1609 14.7872 31.1975 14.7872C31.2387 14.7872 31.2433 14.7442 31.2096 14.6742C31.1796 14.612 31.1141 14.4771 31.0641 14.3743C31.0141 14.2716 30.9116 14.1469 30.8362 14.0972L30.6992 14.0069L30.6623 14.1031ZM28.3957 14.3484C28.3747 14.4033 28.2403 14.5011 28.0969 14.5659L27.8363 14.6838L27.9559 14.7309C28.0216 14.7569 28.1978 14.7802 28.3474 14.7827L28.6195 14.7872L28.5804 14.5773C28.5323 14.3187 28.4473 14.2134 28.3957 14.3484ZM28.7625 14.4319C28.7614 14.503 28.7855 14.6193 28.8159 14.6903C28.8864 14.8549 28.8864 14.6851 28.8159 14.4642L28.7643 14.3028L28.7625 14.4319ZM26.1808 14.5019C26.1839 14.5771 26.1991 14.5925 26.2197 14.541C26.2383 14.4943 26.236 14.4386 26.2146 14.4172C26.1932 14.3957 26.178 14.4338 26.1808 14.5019ZM30.4762 14.6518L30.2669 14.8393L30.5747 14.8856C30.744 14.9111 30.8958 14.9186 30.9121 14.9024C30.9581 14.8561 30.8065 14.4642 30.7425 14.4642C30.7111 14.4642 30.5913 14.5487 30.4762 14.6518ZM31.5588 14.689C31.5343 14.7869 31.5284 14.8812 31.5456 14.8985C31.6002 14.9533 35.7025 15.039 38.4298 15.0423L41.0568 15.0456L41.0379 15.1586L41.0189 15.2716H41.2424H41.4659L41.5427 15.1171C41.585 15.032 41.6061 14.9273 41.5897 14.8843L41.5597 14.8061L38.9389 14.761C37.4975 14.7363 35.7095 14.6898 34.9657 14.6578C34.222 14.6257 33.1612 14.5796 32.6084 14.5553L31.6034 14.5111L31.5588 14.689ZM28.8806 14.8953C28.8804 14.937 28.9554 15.0605 29.0472 15.17L29.214 15.3688L29.4057 15.2557C29.5111 15.1934 29.6461 15.0879 29.7057 15.0213C29.7759 14.9427 29.726 14.9598 29.5636 15.0697C29.2396 15.2891 29.1629 15.2835 29.0084 15.0294C28.9382 14.9139 28.8807 14.8536 28.8806 14.8953ZM51.1613 15.3332C49.9625 15.5925 49.0543 16.0991 48.2336 16.9664C47.4614 17.7823 47.03 18.6889 46.8956 19.7781L46.8257 20.3446L46.8979 21.0053C46.9376 21.3688 47.0264 21.8427 47.0953 22.0585C47.236 22.4991 47.5377 23.1023 47.6839 23.235C47.737 23.2832 47.7446 23.3046 47.7007 23.2823C47.6483 23.2557 47.6341 23.2761 47.6592 23.3417C47.6802 23.3967 47.7214 23.4268 47.7506 23.4086C47.8188 23.3664 48.0118 23.6388 47.9662 23.7128C47.9474 23.7435 47.9703 23.7605 48.0172 23.7508C48.0641 23.741 48.0945 23.7715 48.0848 23.8185C48.0751 23.8656 48.0929 23.8881 48.1245 23.8685C48.1922 23.8265 48.4074 24.0466 48.3602 24.1096C48.3424 24.1334 48.3465 24.1389 48.3693 24.122C48.3921 24.105 48.5071 24.176 48.6247 24.2796C49.1718 24.7614 50.18 25.3346 50.6295 25.4195C50.7443 25.4411 50.8222 25.4846 50.8028 25.5162C50.7834 25.5478 50.8198 25.567 50.8839 25.5589C50.9479 25.5508 51.2466 25.5798 51.5477 25.6233C51.8487 25.6668 52.2109 25.7122 52.3526 25.7242L52.6102 25.7459L52.256 25.7635L51.9018 25.7812L52.417 25.8614C53.5858 26.0432 54.6095 25.7058 55.523 24.8377L55.9447 24.437L55.9518 24.1591L55.9588 23.8812L55.1216 22.8893C54.6612 22.3438 54.2619 21.8962 54.2343 21.8948C54.2066 21.8933 54.001 22.048 53.7772 22.2383C53.5535 22.4287 53.2283 22.6394 53.0547 22.7066L52.739 22.8287L52.0628 22.8265L51.3867 22.8244L51.0164 22.6384C50.0256 22.141 49.52 21.1339 49.7698 20.1558C50.0879 18.9102 51.1175 18.2321 52.6066 18.2874C52.9022 18.2984 53.1317 18.3277 53.1168 18.3526C53.0718 18.4273 53.3327 18.5358 53.4588 18.4948L53.5761 18.4567L53.4888 18.5193C53.375 18.6008 53.4915 18.6763 53.6508 18.6245L53.7693 18.5858L53.6801 18.6496L53.5909 18.7133L53.7199 18.7826C53.7909 18.8207 53.8673 18.8335 53.8897 18.8111C53.912 18.7886 53.9303 18.8123 53.9303 18.8636C53.9303 18.9149 53.9752 19.0212 54.0301 19.0998L54.1299 19.2427L54.2891 19.1381C54.4544 19.0294 55.0824 18.3893 55.664 17.7365L56 17.3595L55.9693 17.1316C55.9029 16.6369 54.8684 15.8489 53.831 15.5027L53.1898 15.2888L52.3848 15.2657C51.8538 15.2506 51.4374 15.2735 51.1613 15.3332ZM2.62374 18.2849C1.00083 22.6308 -0.05294 25.6994 0.00205406 25.9193L0.03979 26.0699L0.421722 26.0647C0.631845 26.0619 0.80404 26.0447 0.804362 26.0266C0.804749 26.0085 1.11623 25.9852 1.49662 25.9749C1.877 25.9645 2.34761 25.9355 2.54241 25.9103L2.89658 25.8645L3.18244 24.9835L3.46835 24.1026L4.24497 23.9983C4.67217 23.941 5.14117 23.8942 5.28728 23.8943C5.87193 23.8947 6.19166 23.7347 5.7139 23.6809C5.55523 23.663 5.57732 23.6585 5.7783 23.6678C5.94657 23.6754 6.08418 23.6556 6.08418 23.6236C6.08418 23.5917 6.21259 23.5722 6.36952 23.5804L6.65486 23.5952L6.75557 23.8255C6.81102 23.9523 6.9136 24.2458 6.98366 24.4778C7.10878 24.8923 7.37158 25.2847 7.4222 25.1325C7.43598 25.091 7.51898 25.0571 7.60663 25.0571C7.69652 25.0571 7.74868 25.0853 7.72627 25.1217C7.70361 25.1584 7.7644 25.1891 7.86737 25.1927L8.04825 25.1991L7.88726 25.2509L7.72627 25.3026L8.01078 25.309C8.38736 25.3175 9.75584 25.1309 9.90227 25.051C9.9657 25.0165 10.0411 25.0027 10.0699 25.0206C10.0987 25.0384 10.1528 24.9858 10.1902 24.9035L10.2581 24.754L10.1304 24.4696C10.0602 24.3131 9.76196 23.6038 9.46773 22.8933C9.17351 22.1828 8.5197 20.6133 8.0149 19.4054C7.5101 18.1976 6.98121 16.9042 6.83967 16.5311C6.69819 16.1581 6.56444 15.8341 6.54255 15.811C6.52066 15.7879 5.99564 15.721 5.37583 15.6623C4.75602 15.6036 4.1185 15.5397 3.95912 15.5203L3.66933 15.485L2.62374 18.2849ZM26.3698 15.6127C26.3684 15.7308 26.5566 15.7875 26.6469 15.6962L26.7231 15.6193L26.6039 15.6647C26.5298 15.693 26.4631 15.6762 26.4277 15.6202L26.3709 15.53L26.3698 15.6127ZM45.2047 15.9562C44.8859 15.9855 43.7413 16.0698 42.661 16.1437C41.5808 16.2176 40.6608 16.2905 40.6165 16.3057L40.536 16.3333V20.332V24.3308L40.6165 24.3951C40.6608 24.4305 41.0447 24.479 41.4697 24.503C41.8947 24.527 42.6916 24.5869 43.2406 24.6361C43.7896 24.6853 44.6589 24.7604 45.1725 24.8029C45.686 24.8454 46.1904 24.92 46.2932 24.9687C46.3961 25.0173 46.5343 25.0571 46.6005 25.0571H46.7207L46.7033 23.8137L46.6858 22.5704L44.8827 22.4735L43.0796 22.3766L43.0584 22.1522C43.0466 22.0288 43.0559 21.8026 43.0787 21.6496L43.1203 21.3713L44.1625 21.4102C45.2712 21.4516 45.3958 21.4681 45.3358 21.5655C45.3148 21.5995 45.4071 21.6458 45.541 21.6685C45.6748 21.6912 45.8309 21.7224 45.8879 21.7378C46.1373 21.8055 46.1788 21.5398 46.153 20.0429L46.1384 19.1947L44.5833 19.229L43.0282 19.2633L43.0629 18.8302C43.0819 18.592 43.108 18.3882 43.1208 18.3773C43.1336 18.3665 43.7815 18.3421 44.5607 18.3233C45.3399 18.3044 45.9246 18.3029 45.8601 18.3199L45.7428 18.3509L45.8601 18.4401C46.019 18.5609 46.3639 18.5564 46.488 18.432L46.5892 18.3304V17.1079V15.8852L46.1867 15.8942C45.9654 15.8991 45.5234 15.927 45.2047 15.9562ZM12.6204 16.2628C12.0087 16.4231 11.7403 16.546 11.2753 16.8788C10.5318 17.4109 10.0318 18.1011 9.70638 19.0444L9.53721 19.5346L9.53573 20.5035L9.53432 21.4723L9.64901 21.8867C9.80529 22.451 10.1174 23.0742 10.4118 23.4096C10.5462 23.5629 10.6574 23.7128 10.6589 23.7429C10.6625 23.817 11.4633 24.3111 11.7832 24.4366C12.5441 24.7352 13.6703 24.819 14.4489 24.6349C14.6754 24.5813 14.8723 24.5492 14.8865 24.5635C14.9007 24.5778 14.8314 24.6085 14.7324 24.6317C14.3257 24.7272 13.8398 24.8875 13.7795 24.9461C13.6683 25.0541 14.5296 24.9374 15.1076 24.7662C15.8301 24.5521 16.8093 24.0634 16.9515 23.846L17.0637 23.6744V21.9274V20.1805H15.9367H14.8098L14.7921 21.1934L14.7744 22.2061L14.5345 22.2904C14.4026 22.3366 14.0773 22.3733 13.8117 22.3717L13.3287 22.369L13.065 22.2313C12.3116 21.8378 11.9494 20.8027 12.2549 19.9163C12.45 19.3501 12.9203 18.9097 13.4202 18.8249C13.5605 18.8012 13.6614 18.7474 13.6614 18.6963V18.6086L13.3985 18.6321L13.1355 18.6555L13.2424 18.5946C13.4034 18.5027 14.1652 18.4702 14.431 18.5438C14.6748 18.6113 15.2131 18.9596 15.479 19.2219L15.633 19.3738L15.7142 19.3061L15.7955 19.2386L15.8233 19.322L15.8513 19.4054L16.0078 19.3218C16.2558 19.1894 17.0411 18.4076 16.9974 18.3366C16.9756 18.3013 17.0364 18.1788 17.1323 18.0645L17.3067 17.8566L16.7988 17.3819C15.9516 16.59 15.0328 16.222 13.7795 16.1725L13.0711 16.1446L12.6204 16.2628ZM34.9671 16.545C34.1179 16.5771 33.4079 16.628 33.3894 16.6579C33.371 16.688 33.3636 18.372 33.373 20.4004L33.3901 24.0882H33.8948C34.1724 24.0882 34.5739 24.1065 34.7871 24.1289L35.1747 24.1695L35.145 24.2835L35.1153 24.3975L35.44 24.4423C35.6186 24.4669 35.7951 24.4683 35.8321 24.4453C35.8744 24.4191 35.8995 24.0209 35.8995 23.3739V22.3443L35.98 22.3386C36.0243 22.3354 36.3502 22.3367 36.7044 22.3415C37.0586 22.3462 37.4886 22.323 37.6599 22.2898C37.8312 22.2568 37.9471 22.2532 37.9174 22.282C37.8878 22.3108 37.7769 22.3438 37.6709 22.3555C37.5437 22.3694 37.4705 22.4178 37.4553 22.4979L37.4324 22.6192L37.7445 22.5753C38.8331 22.4222 39.77 21.7747 39.9578 21.0458C39.9889 20.9252 40.0738 20.6236 40.1464 20.3757C40.4141 19.4616 40.2691 18.3658 39.7855 17.6488C39.4022 17.0805 38.7709 16.7026 37.9634 16.5581C37.4248 16.4617 37.197 16.4607 34.9671 16.545ZM17.611 20.411V24.3008L18.4746 24.2558C19.0551 24.2257 19.3519 24.2332 19.3799 24.2788C19.404 24.3177 19.3654 24.3466 19.2891 24.3466C19.2162 24.3466 19.1565 24.3757 19.1565 24.4112C19.1565 24.4485 19.3605 24.4758 19.6395 24.4758H20.1225V23.5796C20.1225 23.0867 20.1406 22.5926 20.1627 22.4816L20.203 22.2797H20.4823H20.7616L21.0323 22.6796C21.1813 22.8994 21.303 23.1158 21.303 23.1604C21.303 23.205 21.3244 23.2357 21.3506 23.2288C21.3767 23.2219 21.525 23.4052 21.6802 23.6361L21.9623 24.0559L22.9876 24.047L24.013 24.038L23.8904 24.128L23.7677 24.2179L23.8356 24.286C23.8729 24.3233 24.0597 24.3451 24.2507 24.3341L24.598 24.3143L24.6183 24.0658C24.6308 23.9133 24.6022 23.7759 24.5445 23.7105C24.4926 23.6518 24.202 23.2439 23.8984 22.804L23.3465 22.0042L23.6008 21.8195C23.8935 21.6068 24.2126 21.1585 24.147 21.0522C24.1225 21.0123 24.1496 20.9274 24.2072 20.8636C24.2649 20.7997 24.3746 20.4933 24.451 20.1826L24.5901 19.618L24.5154 19.1045C24.3521 17.9808 23.6656 17.2316 22.449 16.8496L22.0222 16.7155L20.9596 16.6602C20.3752 16.6298 19.3827 16.586 18.7541 16.563L17.611 16.5211V20.411ZM27.9144 16.6233C26.3086 16.9813 25.2014 17.9344 24.795 19.3085C24.6554 19.7803 24.6536 20.9475 24.7915 21.4723C24.8475 21.6855 24.9935 22.0291 25.1159 22.2359C25.2384 22.4427 25.3385 22.6437 25.3385 22.6826C25.3385 22.7216 25.3535 22.7383 25.3719 22.7199C25.3903 22.7015 25.5568 22.8366 25.7422 23.0201C26.1092 23.3835 26.7256 23.7283 27.4314 23.9651L27.8822 24.1163L28.8481 24.1184C29.3794 24.1196 29.7561 24.1291 29.6853 24.1396C29.6144 24.1501 29.484 24.2148 29.3955 24.2835L29.2345 24.4084L29.4625 24.4098C29.826 24.412 30.4161 24.2367 30.9852 23.9573C32.2787 23.3223 32.9522 22.0897 32.9607 20.342C32.9644 19.5777 32.8597 19.1308 32.5292 18.5012C32.2401 17.9502 31.5511 17.2923 30.9694 17.0116C30.0882 16.5866 28.8088 16.4239 27.9144 16.6233ZM28.4295 18.6735C28.1203 18.7611 28.061 18.8359 28.3254 18.8049C28.6388 18.7682 28.6775 18.9012 28.377 18.9824C27.8231 19.132 27.3319 19.7074 27.234 20.3214C27.1369 20.9305 27.5424 21.6553 28.1352 21.9321C28.7309 22.2104 29.3845 22.1211 29.8664 21.6955C30.3458 21.2722 30.5383 20.5653 30.3491 19.9221C30.3073 19.7801 30.2699 19.6493 30.2658 19.6315C30.2234 19.4444 30.1477 19.3136 30.0992 19.3437C30.0664 19.3641 30.0394 19.3315 30.0394 19.2713C30.0394 19.0067 29.3278 18.5931 28.8911 18.6039C28.7612 18.6071 28.5535 18.6384 28.4295 18.6735ZM35.8995 19.4377V20.2774L36.3663 20.2758C37.0175 20.2737 37.3157 20.1916 37.5255 19.9568L37.7026 19.7586V19.4658C37.7026 19.1333 37.577 18.8467 37.3666 18.6989L37.2231 18.598H36.5613H35.8995V19.4377ZM20.1645 18.8556C20.1414 18.9715 20.1225 19.3397 20.1225 19.6739V20.2815L20.2301 20.3229C20.2893 20.3457 20.6103 20.3347 20.9435 20.2985L21.5492 20.2326L21.7393 20.0418C21.9856 19.7949 22.0411 19.4683 21.8908 19.1507C21.7203 18.7903 21.5635 18.7199 20.8429 18.6801L20.2065 18.6449L20.1645 18.8556ZM35.9874 18.806C35.9702 18.8337 36.0594 18.8564 36.1855 18.8564C36.3115 18.8564 36.4146 18.8269 36.4146 18.7908C36.4146 18.7158 36.0346 18.7293 35.9874 18.806ZM20.3661 18.9362L20.513 19.0072L20.5883 18.9318L20.6634 18.8564L20.4412 18.8608L20.2191 18.8651L20.3661 18.9362ZM4.94489 19.4445C4.86826 19.6717 4.78757 19.9668 4.76567 20.1004C4.74372 20.234 4.64145 20.5221 4.53836 20.7408C4.43526 20.9594 4.3659 21.1625 4.38419 21.1923C4.4285 21.2641 5.74488 21.2621 5.78918 21.1901C5.80824 21.1593 5.69169 20.7741 5.53025 20.3343C5.36881 19.8944 5.20241 19.4214 5.16049 19.283L5.08431 19.0314L4.94489 19.4445ZM23.283 21.8006C23.2861 21.8759 23.3013 21.8912 23.3219 21.8397C23.3405 21.7931 23.3382 21.7373 23.3168 21.7159C23.2954 21.6944 23.2802 21.7326 23.283 21.8006ZM36.075 22.5504C36.0316 22.578 36.1699 22.6007 36.3824 22.6007H36.7688L36.6722 22.5375C36.5631 22.4662 36.1947 22.4741 36.075 22.5504ZM3.51343 23.8675C3.51652 23.9428 3.53179 23.9581 3.55233 23.9066C3.57094 23.86 3.56862 23.8042 3.54724 23.7828C3.52586 23.7613 3.51066 23.7995 3.51343 23.8675ZM18.7581 24.4553C18.8046 24.474 18.8601 24.4717 18.8815 24.4502C18.9029 24.4288 18.8649 24.4135 18.797 24.4163C18.722 24.4194 18.7067 24.4347 18.7581 24.4553ZM8.45073 25.0999C8.49503 25.1178 8.56748 25.1178 8.61172 25.0999C8.65602 25.082 8.61977 25.0673 8.53122 25.0673C8.44268 25.0673 8.40649 25.082 8.45073 25.0999ZM34.5633 25.5574C34.2357 25.5691 33.9676 25.6011 33.9676 25.6285C33.9676 25.6559 34.0041 25.7284 34.0487 25.7896L34.1299 25.901L36.5763 25.8349C37.9218 25.7986 39.5629 25.7686 40.2232 25.7682L41.4237 25.7676L41.4579 25.6783C41.4818 25.6159 41.4209 25.5773 41.2555 25.5499C41.02 25.5109 35.6977 25.5168 34.5633 25.5574ZM9.82449 25.7212C9.793 25.8042 9.7297 26.0965 9.68378 26.3707L9.60026 26.8692L9.67599 27.3903C9.82687 28.4288 10.5093 29.4197 11.399 29.892C12.5378 30.4966 13.0945 31.3301 13.3251 32.7757L13.4281 33.4216L13.6587 33.896C14.0963 34.7968 15.0171 35.5222 15.9615 35.7102C17.621 36.0405 17.8438 36.1347 18.4828 36.7769C18.7321 37.0275 19.0604 37.4448 19.2123 37.7043C19.7044 38.545 20.4573 39.1446 21.3053 39.371C21.8239 39.5095 22.585 39.482 23.413 39.2948L24.1472 39.1288L24.5336 39.1661C25.0989 39.2205 25.6812 39.4362 26.1666 39.7709C26.4018 39.9332 26.7102 40.1442 26.8519 40.24C26.9935 40.3358 27.3212 40.4903 27.5802 40.5834L28.0508 40.7526H28.652H29.2531L29.6847 40.6189C29.9221 40.5453 30.1255 40.4945 30.1367 40.5059C30.1479 40.5172 29.9544 40.6283 29.7068 40.7526L29.2566 40.9787L29.412 40.9981C29.6153 41.0234 30.1824 40.7967 30.5514 40.5424C31.4042 39.955 31.6096 39.8286 31.9519 39.6809L32.3255 39.5195L32.0562 39.548C31.908 39.5637 31.6182 39.6521 31.4122 39.7445L31.0376 39.9125L31.1979 39.7768C31.4945 39.5258 31.9926 39.3174 32.515 39.2259C33.0832 39.1263 33.339 39.1448 34.1608 39.3448C34.8355 39.509 35.5496 39.5188 36.0513 39.3708C36.2587 39.3095 36.439 39.2699 36.4519 39.2829C36.4647 39.2958 36.3121 39.3919 36.1125 39.4966C35.7072 39.7091 35.7843 39.7863 36.2666 39.651C36.9315 39.4642 37.6977 38.7812 38.2074 37.9206C38.6814 37.1204 39.4573 36.4867 40.2309 36.2684C40.4164 36.216 40.8435 36.1274 41.1799 36.0715C41.9589 35.9421 42.4937 35.6787 43.0191 35.1655C43.6191 34.5797 43.8574 34.0395 44.1112 32.6902C44.305 31.6603 44.7124 31.0323 45.5381 30.491C46.4156 29.9156 46.6148 29.7598 46.8861 29.4369C47.271 28.9787 47.4951 28.5281 47.5361 28.1304L47.5717 27.7834L47.4277 27.3083C47.3484 27.0471 47.2337 26.5717 47.1728 26.252L47.062 25.6707H46.2006H45.3391L45.0957 26.5282C44.3841 29.0337 43.2565 30.8095 40.8619 33.1955C39.3281 34.7238 36.9156 36.2476 34.7767 37.039C34.0311 37.315 32.4616 37.7248 31.5849 37.8725C29.643 38.1997 27.3049 38.1777 25.3865 37.8141C19.2471 36.6504 14.1018 32.2171 12.005 26.2843L11.7653 25.6061L10.8235 25.5882L9.88167 25.5703L9.82449 25.7212ZM32.7248 25.6449C32.8153 25.7357 33.2117 25.7369 33.3661 25.6468L33.4846 25.5778L33.0693 25.5758L32.6539 25.5738L32.7248 25.6449ZM30.0394 25.6821C29.8446 25.6931 28.8594 25.7467 27.85 25.8014C26.1129 25.8954 22.8428 26.1311 22.6339 26.1773C22.5808 26.1891 21.8129 26.1621 20.9274 26.1174C20.042 26.0727 18.4844 26.0149 17.4662 25.989L15.6148 25.9419V26.0139C15.6148 26.1513 15.8663 26.2197 16.3672 26.2186C17.1658 26.2169 20.1244 26.3685 20.0842 26.409C20.0642 26.4293 19.7966 26.4776 19.4895 26.5166L18.9312 26.5874L17.7398 26.5023C17.0846 26.4555 16.3795 26.4164 16.1729 26.4154L15.7972 26.4135L15.8236 26.4942C15.8572 26.5973 16.1373 26.6558 16.9027 26.7195L17.5144 26.7704L16.8467 26.8795C16.4795 26.9395 16.1645 27.0033 16.1467 27.0211C16.1121 27.0557 16.4204 27.6135 16.502 27.6642C16.5287 27.6807 16.6837 27.6693 16.8463 27.6388C17.2323 27.5666 19.9516 27.1654 21.185 26.9989C22.5002 26.8213 24.7355 26.5737 26.1757 26.4461L27.367 26.3406L27.6012 26.2156C27.8762 26.0687 28.027 26.0583 28.1669 26.1765L28.2686 26.2624L29.4525 26.1742L30.6364 26.086L30.9175 25.8836C31.0721 25.7722 31.1986 25.6715 31.1986 25.6597C31.1986 25.6375 30.6465 25.6482 30.0394 25.6821ZM31.2054 25.8249L30.858 26.0052L30.7224 26.3574C30.5862 26.7114 30.4384 26.8723 29.67 27.5035L29.3328 27.7806L29.1447 27.7391C28.8537 27.675 28.4939 27.3348 28.4939 27.1237C28.4939 27.026 28.4505 26.9099 28.3973 26.8656C28.3442 26.8214 28.3008 26.7061 28.3008 26.6094C28.3008 26.4019 28.1235 26.2197 27.9217 26.2197C27.5675 26.2197 27.0024 26.9381 27.0203 27.3655L27.0278 27.5438L27.0561 27.4147C27.1303 27.0765 27.2463 26.876 27.5142 26.6234C27.6742 26.4725 27.8398 26.3489 27.8821 26.3489C28.009 26.3489 28.172 26.5741 28.172 26.7498C28.172 26.8403 28.2152 26.9504 28.2679 26.9943C28.3247 27.0416 28.3496 27.1316 28.3288 27.2146L28.2936 27.3551L28.5227 27.5641C28.7721 27.7918 28.9989 27.8991 29.2309 27.8991C29.3246 27.8991 29.6167 27.6963 30.018 27.3526L30.6561 26.8063L30.7719 26.4831L30.8878 26.1599L31.1827 25.9946L31.4776 25.8293L31.9466 25.8146C32.2046 25.8065 32.4455 25.8299 32.4821 25.8665C32.5278 25.9123 32.4075 25.9252 32.0978 25.9076C31.6716 25.8835 31.263 25.9731 31.263 26.0909C31.263 26.1179 31.2099 26.154 31.1451 26.171C31.0701 26.1907 30.9966 26.3114 30.9434 26.5019L30.8597 26.8018L30.5108 27.1082C30.319 27.2768 30.0113 27.5541 29.8271 27.7246L29.4921 28.0345L29.2438 27.9973C28.9273 27.9497 28.6915 27.8265 28.3943 27.5533L28.1575 27.3359L28.1995 27.2034C28.2254 27.1215 28.1926 26.9903 28.1134 26.8598C28.043 26.7437 27.9989 26.6268 28.0154 26.6002C28.0318 26.5734 28.0164 26.5338 27.9812 26.5119C27.8989 26.4608 27.528 26.7339 27.528 26.8455C27.528 26.8921 27.4879 26.9302 27.4389 26.9302C27.2508 26.9302 27.2121 27.4757 27.3934 27.573C27.4747 27.6167 27.5049 27.6831 27.4825 27.7691L27.4486 27.8991H27.5774C27.7298 27.8991 27.7937 28.0852 27.7271 28.3351C27.6974 28.4462 27.5928 28.5572 27.4431 28.6363C27.3127 28.7052 27.206 28.8 27.206 28.847C27.206 28.894 27.1516 28.9325 27.0851 28.9325C27.0186 28.9325 26.9271 28.9774 26.8816 29.0324C26.8362 29.0873 26.7654 29.1192 26.7242 29.1034C26.6353 29.0691 26.4771 29.2992 26.5303 29.3854C26.5507 29.4184 26.4937 29.464 26.4037 29.4867C26.3137 29.5093 26.2401 29.5529 26.2401 29.5836C26.2401 29.6143 26.1235 29.6295 25.9811 29.6174C25.8386 29.6052 25.7066 29.6206 25.6875 29.6515C25.6685 29.6824 25.5887 29.7076 25.51 29.7076C25.4315 29.7076 25.31 29.7477 25.2402 29.7968C25.1703 29.8459 25.0042 29.8773 24.871 29.8667C24.7116 29.854 24.5927 29.8836 24.5232 29.9533C24.3796 30.0974 24.1256 30.2243 23.9809 30.2243C23.9012 30.2243 23.8738 30.2566 23.8985 30.3212L23.9356 30.4181H23.7677H23.5999V30.5473C23.5999 30.6308 23.5569 30.6765 23.4785 30.6765H23.3571L23.2531 30.9954C23.1959 31.1709 23.1491 31.3826 23.1491 31.4659C23.1491 31.6391 23.3785 31.7989 23.7286 31.8699C23.8526 31.895 24.066 31.9881 24.2029 32.0769L24.4517 32.2383L25.1045 32.1957C25.4634 32.1722 26.0085 32.1473 26.3158 32.1402L26.8743 32.1273L27.0126 31.9509C27.0888 31.8539 27.1936 31.7745 27.2457 31.7745C27.2978 31.7745 27.5169 31.7236 27.7326 31.6615L28.1248 31.5485L28.2865 31.3051C28.3814 31.1623 28.5174 31.0471 28.6159 31.0261C28.9268 30.96 29.3245 30.798 29.5467 30.6467C29.7764 30.4903 30.2292 30.4007 30.3649 30.4848C30.4099 30.5127 30.4276 30.5983 30.4064 30.6857C30.3815 30.789 30.4175 30.8973 30.5184 31.0226L30.6671 31.2071L30.7982 31.1654C31.1107 31.0659 31.5504 30.4939 31.5069 30.2433C31.4956 30.178 31.5918 30.0658 31.7535 29.9557C31.9368 29.8309 32.0615 29.6751 32.1577 29.4507C32.2342 29.2723 32.3268 29.1263 32.3633 29.1263C32.3998 29.1263 32.4104 29.095 32.3869 29.0567C32.3633 29.0185 32.405 28.9302 32.4797 28.8605C32.5542 28.7908 32.6153 28.6748 32.6153 28.6028C32.6153 28.5308 32.6443 28.4174 32.6799 28.3509C32.7199 28.2759 32.7213 28.2156 32.6837 28.1923C32.5991 28.1398 32.7219 27.8101 32.8794 27.6671L33.0064 27.5518L32.7948 27.3707L32.5831 27.1895L32.6519 27.0803C32.6896 27.0203 32.762 26.9508 32.8128 26.9259C32.8635 26.901 32.9867 26.8423 33.0864 26.7954C33.1999 26.742 33.2809 26.6438 33.303 26.533C33.3257 26.4193 33.3855 26.3489 33.4701 26.3363C33.6047 26.3162 33.6799 26.1194 33.5773 26.0558C33.5461 26.0364 33.4466 26.0691 33.3563 26.1285L33.1923 26.2363L32.8998 26.1243C32.739 26.0627 32.62 25.9997 32.6352 25.9844C32.6505 25.9691 32.7392 25.9913 32.8323 26.0339L33.0016 26.1113L33.2571 26.0267L33.5126 25.9421L33.6114 26.0242C33.6656 26.0694 33.71 26.1626 33.71 26.2314C33.71 26.3992 33.3534 26.8353 33.0875 26.9926C32.8552 27.1301 32.8172 27.2556 32.9695 27.3824C33.1093 27.4987 33.088 27.7472 32.9287 27.8591L32.7913 27.9556L32.8293 28.1013C32.8905 28.3358 32.6935 28.8781 32.3513 29.417C32.2611 29.5591 32.169 29.7251 32.1467 29.7858C32.1244 29.8466 32.0037 29.9628 31.8785 30.0441L31.651 30.192L31.6501 30.3883L31.6493 30.5845L31.3339 30.9214C31.1337 31.1354 30.9452 31.2731 30.8175 31.2987C30.5803 31.3463 30.4876 31.4516 30.6828 31.4516C30.9096 31.4516 31.1706 31.2785 31.4818 30.9215C31.6818 30.6922 31.7781 30.5234 31.7781 30.4021V30.2225L31.9809 30.0987C32.0928 30.0305 32.2542 29.8354 32.3408 29.6637C32.4271 29.4925 32.5387 29.3291 32.5887 29.3007C32.6387 29.2723 32.6797 29.2102 32.6797 29.1628C32.6797 29.1153 32.7229 28.9932 32.7759 28.8915C32.8288 28.7897 32.8722 28.6573 32.8725 28.5972C32.8727 28.5372 32.9018 28.4701 32.9373 28.4481C32.9727 28.4261 33.0017 28.3028 33.0017 28.1739C33.0017 28.0203 33.0512 27.8867 33.1457 27.7859L33.2898 27.6321L33.1511 27.378C33.0748 27.2383 33.0382 27.124 33.0699 27.124C33.1016 27.124 33.2875 26.9685 33.4831 26.7785L33.8388 26.4329V26.1987V25.9643L33.6779 25.8586L33.517 25.7528L33.2986 25.8567L33.0803 25.9606L32.7172 25.7995L32.354 25.6384L31.9534 25.6414L31.5527 25.6445L31.2054 25.8249ZM0.0953634 25.9634C0.0953634 25.9978 0.13883 26.026 0.191957 26.026C0.245084 26.026 0.288551 26.0145 0.288551 26.0006C0.288551 25.9866 0.245084 25.9585 0.191957 25.938C0.13883 25.9176 0.0953634 25.929 0.0953634 25.9634ZM39.57 25.9701C37.2975 26.0316 34.3448 26.1558 34.2091 26.1954C34.0511 26.2417 34.0563 26.5427 34.2149 26.5427C34.2802 26.5427 34.9539 26.5003 35.7121 26.4485C37.7896 26.3067 40.6763 26.1828 41.1445 26.2155C41.183 26.2181 41.1829 26.2426 41.1443 26.2813C41.1104 26.3153 40.2426 26.4036 39.2156 26.4775C37.2271 26.6208 35.6378 26.7517 34.3943 26.8745L33.6298 26.9501L33.4606 27.0962C33.3676 27.1764 33.3111 27.2619 33.335 27.2861C33.359 27.3101 34.4022 27.2261 35.6533 27.0991C38.3769 26.8229 40.7161 26.6372 40.7717 26.6929C40.8786 26.8002 40.6243 26.9174 40.1968 26.9577C38.7706 27.0925 35.0813 27.5337 33.8586 27.7156L33.3956 27.7845L33.3276 27.98L33.2597 28.1755L33.5975 28.1377C33.7834 28.117 34.515 28.013 35.2233 27.9066C35.9317 27.8003 36.7431 27.6835 37.0264 27.6471C40.7606 27.1668 40.5995 27.1757 40.3828 27.4619L40.2982 27.5737L37.9861 27.9296C34.3218 28.4935 33.1096 28.7099 33.0509 28.8105C33.022 28.8599 32.9005 29.0663 32.7808 29.2692L32.5632 29.6383L32.6697 29.6687C32.7283 29.6854 33.0226 29.7472 33.3236 29.8061C33.6247 29.8649 34.7208 30.0993 35.7593 30.327C36.7979 30.5547 37.6974 30.7411 37.7583 30.7411C37.8191 30.7411 37.9948 30.6125 38.1486 30.4553L38.4283 30.1694L38.1781 30.102C37.8138 30.0038 34.124 29.2721 33.7261 29.2192C33.5401 29.1945 33.388 29.1529 33.388 29.1269C33.388 29.1009 33.685 29.0294 34.0481 28.9681L34.7081 28.8565L35.8673 29.0574C36.5048 29.1679 37.4611 29.3415 37.9923 29.443C38.5236 29.5446 38.9873 29.612 39.0227 29.5926C39.0581 29.5734 39.0168 29.635 38.931 29.7295L38.7748 29.9014H38.876C39.0177 29.9014 39.3933 29.4562 39.3491 29.3407C39.3292 29.2887 39.3412 29.193 39.3759 29.1281L39.4389 29.01L39.3596 28.9807C39.3159 28.9644 38.7224 28.8526 38.0406 28.7322C37.3589 28.6116 36.801 28.4975 36.801 28.4783C36.801 28.4592 37.0927 28.3984 37.4493 28.3431L38.0976 28.2426L38.9143 28.4022C39.3635 28.49 39.7424 28.5718 39.7563 28.5841C39.7702 28.5964 39.7444 28.6514 39.6988 28.7065C39.6026 28.8227 39.6512 28.9001 39.7876 28.8476C39.9577 28.7821 40.4072 28.0486 40.4072 27.8364V27.6375L40.5594 27.5795C40.7257 27.5161 40.7936 27.3919 40.7936 27.151C40.7936 27.0641 40.8316 26.9948 40.8793 26.9948C40.9264 26.9948 41.0023 26.9149 41.0478 26.8172C41.0933 26.7195 41.1587 26.5851 41.1931 26.5184C41.2692 26.3707 41.3119 25.9678 41.2541 25.9433C41.231 25.9336 40.4732 25.9456 39.57 25.9701ZM42.7656 26.3489C42.744 26.4022 42.6728 26.6057 42.6073 26.801L42.4883 27.1563L41.979 27.1886L41.4697 27.2209L41.8722 27.4978C42.0936 27.6501 42.2747 27.7851 42.2747 27.7978C42.2747 27.8105 42.2146 28.0157 42.1414 28.2538C42.068 28.4918 42.0176 28.6962 42.0293 28.7079C42.0408 28.7196 42.2214 28.6008 42.4304 28.444C42.6574 28.2737 42.8387 28.1799 42.8806 28.2112C42.9193 28.2399 43.0885 28.374 43.2567 28.5089L43.5626 28.7543V28.6487C43.5626 28.5906 43.5144 28.369 43.4554 28.1563C43.3964 27.9436 43.3602 27.7606 43.3749 27.7496C43.3896 27.7386 43.5605 27.6151 43.7546 27.4752L44.1077 27.2209L43.6142 27.2021L43.1208 27.1833L42.9628 26.7177C42.8666 26.434 42.7895 26.2899 42.7656 26.3489ZM14.337 26.7526L14.2138 27.1563L13.7068 27.1886L13.1999 27.2209L13.6072 27.501C13.8311 27.6551 14.002 27.815 13.9868 27.8563C13.8462 28.2395 13.7404 28.6242 13.768 28.6519C13.7866 28.6706 13.9617 28.5648 14.157 28.4168L14.5122 28.1478L14.7094 28.2939C14.8177 28.3743 14.9064 28.459 14.9064 28.4822C14.9064 28.5303 15.234 28.6901 15.2663 28.6577C15.278 28.6459 15.2292 28.4486 15.1579 28.2193L15.0284 27.8022L15.191 27.673C15.2806 27.602 15.4479 27.4712 15.5629 27.3824L15.7719 27.2209L15.2942 27.1886L14.8165 27.1563L14.6881 26.7526C14.6174 26.5306 14.5373 26.3489 14.51 26.3489C14.4827 26.3489 14.4048 26.5306 14.337 26.7526ZM29.3955 26.5039L28.5905 26.575L28.6086 26.7976C28.6186 26.9201 28.6358 27.0294 28.6469 27.0407C28.6697 27.0635 29.9297 26.9417 30.1457 26.8958C30.2295 26.878 30.3121 26.786 30.355 26.6626C30.4449 26.4039 30.4463 26.4118 30.3131 26.4232C30.2512 26.4285 29.8382 26.4649 29.3955 26.5039ZM25.7249 26.8418C23.5284 27.0831 20.5365 27.4887 18.8024 27.7804C17.7398 27.9591 16.8595 28.1159 16.8461 28.1289C16.8134 28.1606 17.2268 28.8034 17.2797 28.803C17.3025 28.8028 17.698 28.7295 18.1584 28.6402C20.2504 28.2343 23.3121 27.7396 25.5317 27.4489C26.0807 27.377 26.6102 27.3011 26.7084 27.2802L26.8869 27.2423L26.9821 27.0138C27.0344 26.8881 27.0772 26.7743 27.0772 26.7609C27.0772 26.719 26.5622 26.7498 25.7249 26.8418ZM29.153 27.4281C29.0729 27.4435 29.0239 27.4832 29.0441 27.5161C29.1004 27.6075 29.3556 27.5878 29.4959 27.4813L29.6209 27.3865L29.4599 27.3932C29.3713 27.3969 29.2333 27.4126 29.153 27.4281ZM25.5317 27.9074C22.75 28.3368 18.4566 29.1227 17.8778 29.3083L17.7261 29.357L18.0066 29.6669L18.2872 29.9768L20.5411 29.4921C23.2906 28.901 23.8987 28.7821 26.3608 28.3547C26.7636 28.2848 27.1066 28.2141 27.1231 28.1976C27.1395 28.1811 27.087 28.0781 27.0064 27.9688L26.8598 27.7699L26.5983 27.7765C26.4544 27.7801 25.9745 27.839 25.5317 27.9074ZM27.206 27.8668C27.206 27.9201 27.2341 27.9637 27.2684 27.9637C27.3027 27.9637 27.3141 27.9201 27.2937 27.8668C27.2733 27.8135 27.2452 27.7699 27.2313 27.7699C27.2174 27.7699 27.206 27.8135 27.206 27.8668ZM43.466 27.8991C43.4441 27.9346 43.4552 27.9637 43.4906 27.9637C43.526 27.9637 43.5729 27.9346 43.5948 27.8991C43.6167 27.8636 43.6056 27.8345 43.5702 27.8345C43.5348 27.8345 43.4879 27.8636 43.466 27.8991ZM27.4207 28.1926C27.4207 28.2443 27.4448 28.2866 27.4744 28.2866C27.5039 28.2866 27.528 28.2593 27.528 28.2258C27.528 28.1924 27.5039 28.1501 27.4744 28.1318C27.4448 28.1135 27.4207 28.1408 27.4207 28.1926ZM27.0257 28.4287C26.9832 28.4714 26.9484 28.5434 26.9484 28.5889C26.9484 28.6343 26.8378 28.7282 26.7026 28.7973C26.5675 28.8665 26.4199 28.9677 26.3748 29.0222C26.302 29.1102 25.7254 29.3615 25.4673 29.4177C25.4142 29.4293 25.2608 29.4857 25.1264 29.543C24.992 29.6003 24.8521 29.6286 24.8155 29.6058C24.7243 29.5493 24.1991 29.7029 24.1084 29.8126C24.068 29.8614 23.9786 29.9014 23.9097 29.9014C23.7178 29.9014 23.0964 30.5803 23.0471 30.8438C23.0244 30.9657 22.98 31.0814 22.9486 31.1008C22.8695 31.1499 22.8786 31.6562 22.9607 31.7745L23.0279 31.8714L22.9877 31.6057C22.9255 31.1942 23.1012 30.7473 23.4598 30.4051C23.8468 30.0356 24.5674 29.6864 24.8108 29.7502C24.8818 29.7689 25.0369 29.7417 25.1553 29.6898C25.2738 29.6379 25.5439 29.5408 25.7556 29.4739C25.9672 29.4071 26.228 29.2767 26.3351 29.1841C26.4422 29.0916 26.6317 28.968 26.7562 28.9095C26.8806 28.851 27.011 28.7379 27.0459 28.6583C27.0808 28.5786 27.1674 28.5032 27.2382 28.4907C27.462 28.4511 27.5035 28.3512 27.2962 28.3512C27.1899 28.3512 27.0682 28.3861 27.0257 28.4287ZM24.5014 29.2523C23.2471 29.5137 21.3539 29.9367 19.8169 30.2988C19.3124 30.4177 18.9086 30.5424 18.9195 30.5758C18.9304 30.6093 19.0739 30.751 19.2383 30.8907L19.5371 31.1448L21.327 30.7034C22.3313 30.4556 23.1734 30.2142 23.2457 30.1532C23.4926 29.945 24.1548 29.6548 24.9852 29.3908C25.4452 29.2446 25.865 29.0967 25.9181 29.062L26.0147 28.9991L25.8537 29.0015C25.7652 29.0029 25.1566 29.1157 24.5014 29.2523ZM16.0945 29.5946L15.9632 29.9337L15.5958 29.9112C15.1719 29.8853 15.1277 29.9576 15.4466 30.1553C15.5665 30.2296 15.6967 30.3292 15.7358 30.3765L15.807 30.4625L15.7065 30.8019C15.6512 30.9886 15.6162 31.1515 15.6286 31.164C15.641 31.1764 15.7774 31.0864 15.9318 30.9638C16.0861 30.8413 16.2361 30.7411 16.265 30.7411C16.294 30.7411 16.3985 30.8428 16.4974 30.9671C16.5964 31.0915 16.7311 31.1932 16.7969 31.1932H16.9165L16.8762 31.088C16.804 30.8993 16.6924 30.4136 16.7174 30.3969C16.7307 30.388 16.8576 30.2946 16.9993 30.1895L17.2569 29.9983L16.8754 29.966L16.494 29.9337L16.4003 29.5946C16.3488 29.408 16.2884 29.2555 16.2661 29.2555C16.2439 29.2555 16.1666 29.408 16.0945 29.5946ZM41.1079 29.5623L41.0131 29.8691L40.6619 29.8889C40.4687 29.8998 40.2855 29.9338 40.2549 29.9642C40.2237 29.9952 40.3136 30.092 40.4588 30.1839C40.6015 30.2743 40.7349 30.3752 40.7551 30.408C40.7753 30.4409 40.7499 30.6078 40.6985 30.779C40.6471 30.9502 40.6165 31.1017 40.6304 31.1157C40.6444 31.1296 40.7896 31.0487 40.9532 30.9358L41.2506 30.7305L41.3602 30.8146C41.4205 30.8608 41.5216 30.9504 41.5849 31.0136C41.6483 31.0769 41.7409 31.1286 41.7909 31.1286H41.8816L41.811 30.9253L41.7403 30.7221L41.8133 30.6048L41.8864 30.4875L41.7907 30.5243C41.5934 30.6003 41.708 30.3803 41.9551 30.2088C42.0955 30.1114 42.2103 30.0071 42.2103 29.9768C42.2103 29.9466 42.0615 29.9166 41.8797 29.9102C41.6979 29.9037 41.5281 29.8853 41.5022 29.8693C41.4763 29.8533 41.4185 29.7086 41.3736 29.5478C41.3287 29.3871 41.2719 29.2555 41.2473 29.2555C41.2227 29.2555 41.1599 29.3936 41.1079 29.5623ZM32.084 30.4237C32.0221 30.533 31.9713 30.6583 31.9713 30.7022C31.9713 30.7489 32.1786 30.8296 32.4704 30.8965C32.7449 30.9594 33.7424 31.2002 34.6871 31.4315L36.4047 31.8522L36.6962 31.651C36.8565 31.5404 37.0035 31.4241 37.023 31.3925C37.0425 31.3609 36.6165 31.2287 36.0764 31.0986C35.1967 30.8869 32.2681 30.2237 32.2171 30.2247C32.2058 30.225 32.146 30.3145 32.084 30.4237ZM16.8061 30.5473C16.7842 30.5828 16.7953 30.6119 16.8307 30.6119C16.8661 30.6119 16.913 30.5828 16.9349 30.5473C16.9568 30.5118 16.9457 30.4827 16.9103 30.4827C16.8749 30.4827 16.828 30.5118 16.8061 30.5473ZM38.1033 30.6479C38.0245 30.7032 37.9601 30.7761 37.9601 30.8099C37.9601 30.8905 38.206 30.7356 38.2466 30.6295C38.2867 30.5248 38.2765 30.5262 38.1033 30.6479ZM29.7819 30.7078C29.4353 30.9102 28.7981 31.1932 28.6889 31.1932C28.6256 31.1932 28.4645 31.3271 28.3308 31.4907L28.0878 31.7882L27.8763 31.7538C27.7365 31.731 27.6389 31.7506 27.5885 31.8115C27.5466 31.8622 27.4281 31.9037 27.3254 31.9037H27.1384L27.0796 32.0589C27.0472 32.1442 26.9885 32.2341 26.949 32.2586C26.8674 32.3092 25.7178 32.3595 24.8571 32.3501L24.279 32.3438L24.1143 32.2262C24.0238 32.1615 23.8348 32.0877 23.6943 32.0622C23.5538 32.0368 23.3846 31.9877 23.3184 31.9534C23.2349 31.91 23.2111 31.9121 23.2407 31.9602C23.2642 31.9983 23.4225 32.0709 23.5925 32.1216C23.7625 32.1722 24.0148 32.2707 24.1532 32.3404C24.4618 32.4959 25.3398 32.5741 25.5874 32.4682C25.6807 32.4283 26.0377 32.3939 26.3807 32.3919L27.0043 32.3881L27.1911 32.2086C27.3179 32.0868 27.5025 32.0036 27.7656 31.9498C28.1928 31.8624 28.3272 31.7772 28.4677 31.5047C28.5205 31.4022 28.6149 31.3224 28.6835 31.3224C28.8473 31.3224 29.3406 31.1061 29.6359 30.9048C29.8983 30.726 30.075 30.6961 30.1256 30.8218C30.1434 30.8662 30.1604 30.8371 30.1632 30.7572C30.1691 30.5857 30.0233 30.5668 29.7819 30.7078ZM30.2713 31.1222C30.326 31.2323 30.3805 31.3224 30.3923 31.3224C30.4448 31.3224 30.3388 31.061 30.2596 30.995L30.1716 30.9219L30.2713 31.1222ZM21.4104 31.301C20.826 31.4616 20.3244 31.6152 20.2956 31.6425C20.2669 31.6698 20.4085 31.8021 20.6105 31.9365L20.9777 32.181L21.7897 31.958L22.6017 31.7351L22.621 31.3673L22.6404 30.9994L22.5566 31.0042C22.5106 31.0069 21.9948 31.1404 21.4104 31.301ZM17.933 31.8135V32.1361L17.7076 32.2179C17.4141 32.3243 17.4224 32.3989 17.7335 32.4516L17.9848 32.4943L18.0224 32.6349C18.0431 32.7124 18.0605 32.8411 18.0609 32.921C18.0622 33.1298 18.1431 33.1003 18.2827 32.8403C18.4092 32.6046 18.4362 32.5889 18.6034 32.6532C18.6737 32.6803 18.693 32.7398 18.6661 32.847L18.6274 33.0017H18.7528C18.8237 33.0017 18.9098 32.9324 18.9506 32.8425L19.023 32.6832L18.9449 32.5982C18.9019 32.5515 18.8149 32.4525 18.7514 32.3781L18.6361 32.2429L18.7755 32.006C18.8522 31.8757 18.9004 31.7545 18.8827 31.7367C18.865 31.7189 18.7452 31.7548 18.6166 31.8162L18.3828 31.9281L18.1579 31.7095L17.933 31.4908V31.8135ZM39.0886 31.7199L38.9177 31.9236L38.6943 31.8168C38.3647 31.6591 38.3186 31.6842 38.4689 31.9397C38.6395 32.2296 38.6388 32.24 38.4351 32.4828C38.3421 32.5936 38.2788 32.6971 38.2945 32.7127C38.3101 32.7283 38.4222 32.7126 38.5436 32.6777C38.8677 32.5844 38.8921 32.5929 39.0097 32.8403C39.1529 33.1416 39.2364 33.1254 39.2605 32.7918L39.2803 32.5173L39.5539 32.4597C39.7044 32.428 39.8276 32.3803 39.8276 32.3536C39.8276 32.327 39.71 32.258 39.5662 32.2004L39.3049 32.0955L39.3482 31.8058C39.4001 31.4583 39.328 31.4344 39.0886 31.7199ZM21.8934 32.1621L21.7646 32.2175L21.8934 32.2211C21.9642 32.2231 22.0656 32.1965 22.1188 32.1621L22.2153 32.0995L22.1188 32.103C22.0656 32.105 21.9642 32.1315 21.8934 32.1621ZM39.4064 32.6831C39.383 32.721 39.3792 32.7672 39.3978 32.7859C39.4483 32.8366 39.6988 32.7439 39.6988 32.6745C39.6988 32.5913 39.4586 32.5984 39.4064 32.6831ZM19.9293 33.4355V33.6996L19.72 33.7763L19.5107 33.853L19.6395 33.9065C19.7103 33.9358 19.819 33.9758 19.881 33.9955C19.9446 34.0156 19.9941 34.0954 19.9947 34.1785C19.9952 34.2595 20.0213 34.3664 20.0525 34.416L20.1095 34.5061L20.2142 34.303C20.3555 34.029 20.5868 34.0411 20.6526 34.3259L20.6824 34.455L20.7499 34.2936L20.8174 34.1321L20.6574 33.961L20.4973 33.7899L20.6084 33.6199C20.7458 33.4096 20.6921 33.3436 20.4674 33.4463L20.2967 33.5244L20.1129 33.3479L19.9293 33.1714V33.4355ZM37.1299 33.3629L36.9987 33.5302L36.7928 33.4271C36.5349 33.2981 36.5072 33.3253 36.6381 33.5793L36.7422 33.7813L36.6011 33.9802L36.4599 34.179L36.7109 34.1374L36.962 34.0959L37.0884 34.3078L37.2148 34.5196L37.239 34.3259C37.2708 34.0712 37.3405 33.9952 37.5913 33.9423L37.7991 33.8984L37.5553 33.7702L37.3114 33.6421L37.3531 33.4188C37.4036 33.1493 37.3148 33.1271 37.1299 33.3629ZM31.461 34.0432C31.1272 34.1104 30.8392 34.1803 30.821 34.1986C30.7867 34.233 30.9303 35.3531 30.9886 35.5055C31.0107 35.5634 31.0809 35.579 31.2007 35.5526C31.2991 35.5309 31.554 35.5019 31.7671 35.4882C32.1725 35.4619 32.2402 35.4954 32.3216 35.7619L32.3657 35.9062L32.1948 36.0776L32.0239 36.249L31.5524 36.2133L31.081 36.1775L31.0396 36.3429C31.0169 36.4339 31.0273 36.5374 31.0628 36.573C31.1616 36.6722 32.0555 36.7119 32.2185 36.6244C32.3811 36.5371 32.4143 36.6452 32.2529 36.7359C32.0683 36.8395 32.2587 36.8718 32.4645 36.7718C32.7067 36.6541 32.7891 36.4838 32.8403 35.9944L32.8798 35.6177L32.7636 35.3971C32.6998 35.2757 32.5461 35.1218 32.4221 35.0549L32.1967 34.9334L31.762 34.9753L31.3274 35.0172V34.7889V34.5606L31.4401 34.5297C31.502 34.5126 31.7487 34.4637 31.9882 34.421C32.2277 34.3782 32.4387 34.3189 32.4571 34.289C32.4754 34.2593 32.4719 34.1609 32.4493 34.0705L32.4081 33.906L32.2381 33.9135C32.1445 33.9176 31.7948 33.976 31.461 34.0432ZM25.242 34.0156C25.1711 34.031 25.019 34.073 24.9039 34.109L24.6946 34.1744L24.6956 34.3147C24.6961 34.3919 24.7212 34.494 24.7513 34.5415L24.8059 34.6281L25.1328 34.5116L25.4597 34.3952L25.6889 34.5048L25.9181 34.6144V34.7643C25.9181 34.951 25.6639 35.1959 24.9366 35.7098C24.5543 35.98 24.3604 36.1608 24.3322 36.2733C24.2781 36.4896 24.3327 36.5179 24.9958 36.6168C25.2986 36.662 25.6862 36.736 25.8571 36.7812C26.0281 36.8264 26.1842 36.8471 26.204 36.8272C26.2239 36.8074 26.2401 36.6988 26.2401 36.5861V36.3811L25.6544 36.2572L25.0687 36.1333L25.5222 35.8225C25.7716 35.6516 26.0786 35.3974 26.2045 35.2577L26.4333 35.0037V34.7599C26.4333 34.4775 26.3048 34.2649 26.0591 34.1407C25.8603 34.0402 25.431 33.9745 25.242 34.0156ZM27.1603 34.4205C27.0466 34.49 26.8883 34.6715 26.8084 34.8239L26.6632 35.1009L26.6609 35.7145L26.6587 36.3282L26.8041 36.5627C26.9614 36.8165 27.1494 36.9139 27.5759 36.9627L27.8493 36.994L28.0589 36.8548C28.1742 36.7782 28.3407 36.5702 28.4289 36.3927L28.5892 36.0698L28.5893 35.5531V35.0363L28.4579 34.7839C28.2197 34.3264 27.5986 34.1524 27.1603 34.4205ZM29.1057 34.4135C28.964 34.4819 28.7953 34.5785 28.7307 34.6283L28.6132 34.7186L28.6927 34.8937C28.7722 35.0686 28.9041 35.1222 28.9744 35.0081C29.0398 34.9021 29.4089 34.7457 29.594 34.7457C29.7886 34.7457 29.9751 34.8922 29.9751 35.0452C29.9751 35.2032 29.8551 35.3842 29.3198 36.0339L28.8112 36.6511L28.8296 36.8449C28.8398 36.9515 28.8701 37.0345 28.8969 37.0294C28.9237 37.0244 29.2425 37.0014 29.6053 36.9783C29.968 36.9553 30.3735 36.9206 30.5063 36.9011L30.7478 36.8658V36.6415V36.4172L30.1231 36.4632L29.4983 36.5093L29.8057 36.1281C30.3464 35.4574 30.4453 35.2802 30.4519 34.9711L30.458 34.6841L30.2838 34.5093L30.1096 34.3345L29.7364 34.3118L29.3633 34.2892L29.1057 34.4135ZM22.1188 34.5476V34.737L21.99 34.778C21.8179 34.8328 21.8265 34.9255 22.0061 34.9511L22.151 34.9718L22.1713 35.1494C22.1955 35.3601 22.2859 35.3818 22.3461 35.1914L22.3891 35.0559L22.5759 35.0834C22.789 35.1148 22.8015 35.0883 22.6654 34.8935C22.6038 34.8053 22.5921 34.7394 22.6332 34.7138C22.669 34.6916 22.6983 34.6323 22.6983 34.582V34.4906L22.5061 34.5291L22.3139 34.5677L22.2738 34.4629C22.209 34.2934 22.1188 34.3427 22.1188 34.5476ZM34.9955 34.4579C34.939 34.5263 34.8554 34.5449 34.7301 34.5174C34.5268 34.4726 34.5114 34.4962 34.6248 34.6784L34.7024 34.803L34.5926 34.9248C34.4374 35.0968 34.4553 35.1355 34.67 35.0924L34.8573 35.0549L34.9308 35.1927C35.021 35.3619 35.1267 35.3103 35.1267 35.0971V34.9395H35.2877C35.4803 34.9395 35.5011 34.8357 35.3199 34.778L35.1911 34.737V34.5476C35.1911 34.338 35.1213 34.306 34.9955 34.4579ZM27.3634 34.8403C27.2226 34.9815 27.0772 35.488 27.0772 35.8373C27.0772 36.1034 27.2027 36.4187 27.3373 36.491C27.7889 36.7334 28.1202 36.3276 28.115 35.5383C28.1126 35.1689 27.9842 34.7586 27.8644 34.7374C27.6068 34.6919 27.4868 34.7166 27.3634 34.8403ZM14.555 34.8058C14.5346 34.8389 14.5519 34.887 14.5933 34.9127C14.6383 34.9406 14.6515 34.9315 14.6262 34.8904C14.6028 34.8524 14.62 34.8066 14.6645 34.7886L14.7454 34.7559L14.6687 34.7508C14.6265 34.748 14.5754 34.7728 14.555 34.8058ZM15.4538 35.3916C15.4319 35.4271 15.443 35.4562 15.4784 35.4562C15.5138 35.4562 15.5607 35.4271 15.5826 35.3916C15.6045 35.3561 15.5934 35.327 15.558 35.327C15.5226 35.327 15.4757 35.3561 15.4538 35.3916ZM41.5663 35.6543C41.3361 35.7195 40.8878 35.8194 40.5702 35.8765C40.2407 35.9357 39.8598 36.0527 39.6836 36.1489C39.2914 36.363 39.1065 36.5647 39.4756 36.3758C39.6178 36.303 39.9218 36.2105 40.1512 36.1703C41.0401 36.0142 41.2324 35.9631 41.6182 35.78C41.8376 35.676 42.0171 35.5751 42.0171 35.5558C42.0171 35.5365 42.0099 35.5242 42.001 35.5283C41.9921 35.5325 41.7965 35.5892 41.5663 35.6543ZM19.3497 37.7413C19.3497 37.7546 19.4005 37.8055 19.4624 37.8543L19.5751 37.9429L19.4868 37.8299C19.4026 37.7223 19.3497 37.6881 19.3497 37.7413ZM19.7146 38.132C19.6952 38.1827 19.7211 38.2589 19.7721 38.3013C19.8232 38.3438 19.8653 38.3532 19.8659 38.3222C19.8664 38.2913 19.8907 38.3036 19.9199 38.3496L19.9729 38.4335L20.0451 38.3462L20.1173 38.2589L19.9428 38.2624L19.7683 38.2659L19.7872 38.1528C19.81 38.0168 19.7638 38.0034 19.7146 38.132ZM20.2669 38.4599C20.2222 38.5109 20.1382 38.5337 20.0793 38.5111C20.0076 38.4835 19.9878 38.4948 20.0191 38.5456C20.0448 38.5872 20.1054 38.6211 20.1539 38.6211C20.2024 38.6211 20.2804 38.6584 20.3272 38.704C20.6894 39.0567 21.3762 39.3181 21.9551 39.3235L22.3389 39.3271L22.1571 39.2325C22.0571 39.1804 21.8933 39.1378 21.7932 39.1378C21.6931 39.1378 21.5953 39.1121 21.5759 39.0806C21.5565 39.0491 21.4381 39.004 21.3127 38.9804C21.1874 38.9569 21.0999 38.913 21.1184 38.883C21.1667 38.8048 21.0137 38.7594 20.7612 38.777C20.5072 38.7946 20.291 38.6316 20.353 38.4694C20.4025 38.34 20.3748 38.3369 20.2669 38.4599ZM20.702 38.8806C20.702 38.9317 20.8601 39.0087 20.9649 39.0087C20.9974 39.0087 21.024 38.9687 21.024 38.9199C21.024 38.8682 20.9567 38.831 20.863 38.831C20.7745 38.831 20.702 38.8534 20.702 38.8806ZM21.1528 39.0658C21.1528 39.1238 21.3463 39.2236 21.3845 39.1854C21.3955 39.1743 21.3479 39.1298 21.2787 39.0864C21.2095 39.043 21.1528 39.0338 21.1528 39.0658ZM23.0915 39.5955C22.8324 39.6994 22.9733 39.7182 23.3123 39.6249L23.6321 39.537L23.4389 39.5353C23.3326 39.5343 23.1763 39.5614 23.0915 39.5955Z" fill="white"/>
</svg>
