<svg width="54" height="39" viewBox="0 0 54 39" fill="none" xmlns="http://www.w3.org/2000/svg">
<path fill-rule="evenodd" clip-rule="evenodd" d="M26.3608 0.090896C25.9408 0.204074 25.7715 0.294823 25.0034 0.818361C24.5735 1.11145 24.2316 1.29417 23.9654 1.37319C23.4287 1.53257 22.6349 1.52358 21.9504 1.35052C21.0571 1.12459 20.2851 1.19169 19.5623 1.55805C19.0994 1.79259 18.6095 2.29554 18.1237 3.03492C17.4339 4.08493 16.8382 4.4896 15.719 4.66884C15.3981 4.72024 14.9997 4.80261 14.8336 4.85205C14.0868 5.07395 13.3366 5.7161 12.9822 6.43678C12.8042 6.79862 12.7351 7.05242 12.5397 8.06227C12.3636 8.97252 11.8064 9.70824 10.8678 10.27C10.1667 10.6896 9.80693 11.057 9.50401 11.6628C9.125 12.4207 9.0411 13.2283 9.25371 14.0733L9.32516 14.3573H10.0528H10.7804L10.7146 14.4804L10.6488 14.6035L10.7378 14.6377C10.7868 14.6565 10.8996 14.663 10.9884 14.6521L11.15 14.6323L11.4735 13.7767C12.0296 12.3066 12.7496 10.9442 13.529 9.88729C14.5097 8.55746 15.8726 7.12697 16.8932 6.35655C18.1231 5.42803 19.6031 4.55078 20.6681 4.11884C21.3645 3.83645 21.572 3.72413 21.3978 3.72376C21.2265 3.7234 20.1888 4.15869 19.3036 4.60229C18.8115 4.84887 18.4088 5.04296 18.4088 5.03355C18.4088 5.02414 18.6542 4.87595 18.9542 4.70416C21.5338 3.22675 24.164 2.54139 27.2627 2.53925L28.5755 2.53833L29.3083 2.64399C31.425 2.9493 33.1509 3.49447 34.8954 4.40894C36.5158 5.25832 37.5961 6.05588 39.0066 7.44445C40.926 9.334 42.2196 11.4137 42.9546 13.792L43.1481 14.4184H43.7456H44.343L44.3138 14.5711L44.2846 14.7239H44.501H44.7175L44.7575 14.3725C44.7794 14.1792 44.8533 13.7194 44.9217 13.3505C45.075 12.5228 45.0518 11.9422 44.8496 11.5473C44.6537 11.1646 44.0443 10.5773 43.5224 10.268C42.9384 9.922 42.5562 9.57716 42.2765 9.14418C41.9938 8.70632 41.8911 8.40285 41.7387 7.55475C41.668 7.16107 41.5456 6.7347 41.4358 6.5001C41.1266 5.83863 40.3736 5.14777 39.701 4.90852C39.5599 4.85829 39.1063 4.74957 38.6929 4.66689C37.4431 4.41694 36.8583 4.02198 36.2318 3.00485C35.3065 1.50244 34.0313 0.950483 32.3933 1.34343C31.6135 1.53055 31.2595 1.55127 30.7273 1.44114C30.1678 1.32534 29.7985 1.14744 29.2363 0.722845C28.5348 0.193074 27.9486 -0.00737146 27.1223 0.000206302C26.8805 0.0024063 26.5379 0.0432294 26.3608 0.090896ZM26.9149 3.49154C26.7458 3.57324 26.647 3.84825 26.7063 4.07191L26.7516 4.24339L26.9595 4.31189C27.4879 4.48606 27.8617 3.95122 27.4792 3.56842C27.3207 3.40971 27.136 3.38459 26.9149 3.49154ZM27.948 3.48641C27.8719 3.51464 27.7943 3.57746 27.7757 3.62605C27.7242 3.76037 27.8586 3.96234 28.0278 4.00487C28.2809 4.06843 28.2021 4.16645 27.9344 4.12117L27.6901 4.07986V4.17476C27.6901 4.28922 27.8739 4.39653 28.0678 4.39525C28.2522 4.39403 28.3359 4.33505 28.3872 4.17011C28.4297 4.03396 28.3406 3.90838 28.0817 3.7394L27.9649 3.6632L28.1726 3.67829C28.2868 3.68661 28.3911 3.66216 28.4043 3.62397C28.4391 3.52368 28.1129 3.42536 27.948 3.48641ZM25.7577 3.80033C25.7789 3.97676 25.7965 4.18301 25.7967 4.25867L25.7972 4.39617H26.0584C26.2021 4.39617 26.3807 4.35333 26.4553 4.30102L26.591 4.20593V3.93783V3.66974L26.4553 3.57465C26.3772 3.51983 26.1923 3.4795 26.0194 3.4795H25.7191L25.7577 3.80033ZM29.0036 3.61034C28.9429 3.77185 28.9425 4.42684 29.003 4.44444C29.0366 4.45416 29.0725 4.40869 29.0828 4.34337L29.1015 4.22457L29.278 4.25243C29.4014 4.27187 29.4924 4.24247 29.5799 4.1549C29.825 3.9096 29.6832 3.64768 29.2631 3.56964L29.0348 3.52723L29.0036 3.61034ZM24.6988 3.82582C24.6992 3.95464 24.7165 4.16321 24.7373 4.28922L24.7752 4.51839H24.9454C25.1825 4.51839 25.3088 4.46039 25.3088 4.35143V4.25867L25.128 4.29484L24.9471 4.33102L24.9155 4.13443C24.898 4.02632 24.8763 3.87122 24.8673 3.78982C24.8388 3.53352 24.6981 3.56353 24.6988 3.82582ZM26.9923 3.69773C26.8684 3.82178 26.8687 4.0669 26.9929 4.11463C27.1875 4.18937 27.3275 4.14928 27.3958 3.99919L27.4653 3.84666L27.3546 3.72419C27.2212 3.57679 27.1206 3.5694 26.9923 3.69773ZM25.9804 3.93783V4.21283H26.076C26.2514 4.21283 26.4079 4.08786 26.4079 3.94792C26.4079 3.77082 26.2992 3.66283 26.1209 3.66283H25.9804V3.93783ZM29.9286 3.70842C29.913 3.73378 29.8662 3.92799 29.8246 4.13999L29.7489 4.52554L29.8206 4.59728L29.8924 4.66909L29.928 4.53263C29.9756 4.35033 30.1216 4.35932 30.1937 4.54894C30.2256 4.63297 30.2968 4.70172 30.3519 4.70172H30.4521L30.422 4.54412C30.4029 4.44402 30.4226 4.37478 30.476 4.35424C30.5243 4.33567 30.56 4.23453 30.56 4.11603V3.91009L30.4226 3.82429C30.2472 3.71472 29.9654 3.64866 29.9286 3.70842ZM23.9929 3.79C23.9479 3.86285 23.7878 4.50409 23.7844 4.62533C23.7808 4.75055 23.9485 4.71187 23.9831 4.5795L24.015 4.45728H24.2003C24.3022 4.45728 24.4026 4.48478 24.4234 4.51839C24.4757 4.60309 24.6371 4.59526 24.6371 4.508C24.6371 4.3917 24.1855 3.72505 24.1064 3.7245C24.0664 3.72419 24.0153 3.75364 23.9929 3.79ZM29.1556 3.90728V4.0295H29.3083H29.4609V3.90728V3.78506H29.3083H29.1556V3.90728ZM23.3771 3.89292L23.3079 3.93783L23.3747 4.26239L23.4415 4.58695L23.3523 4.64342C23.3033 4.67446 23.2446 4.70025 23.2217 4.7008C23.1213 4.70306 22.9962 4.50115 22.9581 4.27517C22.9134 4.01062 22.7439 3.92476 22.7445 4.167C22.7458 4.68058 22.9946 4.95356 23.3647 4.84735L23.5603 4.79119L23.6059 4.62069C23.6424 4.48411 23.5208 3.84262 23.4593 3.84708C23.4522 3.84763 23.4152 3.86823 23.3771 3.89292ZM30.0715 4.02296C30.0715 4.15576 30.2464 4.24559 30.3341 4.15783C30.424 4.06782 30.3353 3.90728 30.1956 3.90728C30.1146 3.90728 30.0715 3.94743 30.0715 4.02296ZM30.7988 4.08273L30.6577 4.19707V4.41578C30.6577 4.7115 30.8233 4.8853 31.1038 4.88414C31.3576 4.88304 31.4309 4.84429 31.5278 4.65992C31.6368 4.45276 31.6117 4.28201 31.4482 4.11842C31.2672 3.93722 30.9967 3.92237 30.7988 4.08273ZM24.0875 4.15172V4.29839L24.1608 4.22506L24.2341 4.15172L24.1608 4.07839L24.0875 4.00505V4.15172ZM30.9386 4.22506C30.8983 4.26539 30.8653 4.37484 30.8653 4.46834V4.63829L31.0179 4.6766C31.2443 4.7335 31.3538 4.66658 31.3538 4.47139C31.3538 4.27834 31.2571 4.15172 31.1096 4.15172C31.0558 4.15172 30.9789 4.18472 30.9386 4.22506ZM22.0385 4.30328L21.7977 4.37227L21.8162 4.49119C21.851 4.71425 22.0207 5.18908 22.0784 5.22477C22.1748 5.28448 22.5549 5.1284 22.6524 4.989C22.8388 4.72262 22.7102 4.31672 22.4219 4.2616C22.3435 4.24657 22.1709 4.26533 22.0385 4.30328ZM31.7178 4.61721L31.5834 5.02152L31.6671 5.07462C31.8428 5.18615 32.1699 5.20925 32.3273 5.12131C32.6259 4.95435 32.5704 4.43906 32.239 4.30047C31.8999 4.15869 31.8628 4.18124 31.7178 4.61721ZM22.151 4.46253L22.0158 4.51283L22.0831 4.71419C22.1747 4.98882 22.2223 5.02946 22.3641 4.9535C22.5212 4.86935 22.5759 4.72152 22.5014 4.58225C22.4239 4.43723 22.3171 4.40075 22.151 4.46253ZM31.9149 4.65027L31.8357 4.9043L31.9153 4.95484C32.2332 5.15663 32.504 4.70783 32.1951 4.49132C32.0088 4.36072 32.0045 4.36317 31.9149 4.65027ZM32.6999 4.83115C32.5404 5.2021 32.5707 5.39808 32.8061 5.51988L32.9743 5.60696L33.1564 5.5299L33.3383 5.4529L33.4447 5.16237C33.6223 4.67752 33.4617 4.62686 33.2519 5.10145L33.1314 5.37394H33.004C32.8202 5.37394 32.7849 5.21242 32.9005 4.90021C32.9972 4.63908 32.992 4.51839 32.8843 4.51839C32.8568 4.51839 32.7738 4.65913 32.6999 4.83115ZM21.1337 4.77047C21.0733 5.07266 21.089 5.61839 21.1581 5.61839C21.1925 5.61839 21.2455 5.55312 21.2758 5.47337C21.3401 5.30415 21.6156 5.21224 21.7425 5.31766L21.8283 5.38891L21.9133 5.31833L21.9982 5.24775L21.6482 4.91359C21.4557 4.72983 21.2698 4.5795 21.235 4.5795C21.2003 4.5795 21.1547 4.66542 21.1337 4.77047ZM20.4086 4.95032C20.153 5.08531 20.0886 5.27592 20.317 5.22104L20.4544 5.18798L20.6223 5.49488C20.8949 5.99318 21.0191 5.87548 20.7834 5.34217L20.6544 5.05036L20.7528 4.99524C20.807 4.96493 20.8513 4.91396 20.8513 4.882C20.8513 4.78929 20.6564 4.81936 20.4086 4.95032ZM21.2787 5.0143C21.2787 5.08391 21.3109 5.12895 21.3512 5.1155C21.4643 5.0778 21.4771 4.96511 21.3729 4.92508L21.2787 4.8889V5.0143ZM33.6375 4.95606C33.6138 4.99444 33.6417 5.06038 33.6994 5.10267L33.8045 5.17949L33.6723 5.48687C33.5495 5.77257 33.5507 5.96971 33.6748 5.89302C33.7041 5.87487 33.7902 5.73535 33.8663 5.583L34.0046 5.30586L34.1447 5.34106L34.2848 5.37626V5.28448C34.2848 5.234 34.1488 5.12375 33.9827 5.03948L33.6806 4.88627L33.6375 4.95606ZM18.1915 5.16341L18.073 5.25844L18.2104 5.19183C18.286 5.15516 18.3478 5.11239 18.3478 5.0968C18.3478 5.05005 18.3161 5.06356 18.1915 5.16341ZM19.8022 5.2846C19.6226 5.38207 19.545 5.54579 19.6047 5.70144C19.6464 5.81021 19.6755 5.81804 19.9964 5.80624L20.2101 5.79836L20.0916 5.89174C20.0264 5.94307 19.9242 5.98505 19.8645 5.98505C19.7931 5.98505 19.768 6.0164 19.7911 6.07672C19.8105 6.12713 19.8652 6.16839 19.9128 6.16839H19.9992L19.8992 6.32116L19.7992 6.47394H19.9777C20.2574 6.47394 20.3835 6.3439 20.399 6.03944C20.4182 5.66391 20.3492 5.56809 20.0419 5.54365L19.7827 5.52299L19.9556 5.44807C20.0506 5.40688 20.1176 5.3407 20.1044 5.30097C20.0679 5.1914 19.9826 5.18676 19.8022 5.2846ZM34.273 5.41538C34.2161 5.43041 34.1388 5.53619 34.1011 5.65041L34.0326 5.85819L34.1343 6.07281L34.2361 6.28737L34.4439 6.32642C34.8393 6.40067 35.1138 6.05973 34.9593 5.68622C34.8555 5.43566 34.5914 5.33141 34.273 5.41538ZM19.0321 5.73224L18.778 5.90054L18.914 6.14913C18.9888 6.2859 19.0951 6.463 19.1503 6.54281L19.2506 6.68783L19.4718 6.5708C19.7328 6.43257 19.8383 6.31951 19.7856 6.23426C19.7614 6.19497 19.6711 6.20902 19.5369 6.27307C19.2608 6.40488 19.1892 6.32434 19.4187 6.13985L19.5995 5.99446L19.4886 5.95107C19.4275 5.92724 19.3465 5.93885 19.3084 5.97692C19.2139 6.07158 19.0805 6.06419 19.0805 5.96433C19.0805 5.9193 19.1492 5.8511 19.2332 5.81284C19.3171 5.77453 19.3858 5.71677 19.3858 5.68439C19.3858 5.55648 19.2747 5.57145 19.0321 5.73224ZM34.3881 5.62774C34.3271 5.6619 34.2848 5.76016 34.2848 5.86784V6.05007L34.4222 6.10202C34.5016 6.13202 34.6061 6.12952 34.6699 6.09597L34.7804 6.03803L34.7615 5.85006C34.7405 5.64014 34.5589 5.53204 34.3881 5.62774ZM24.5286 6.79349L24.5455 7.72672L24.6223 7.71125C24.6645 7.70282 24.9361 7.69329 25.2258 7.69017L25.7524 7.68443L25.9122 7.80384L26.072 7.92325V8.18505V8.44685L25.8995 8.57567L25.7269 8.70449L25.4099 8.70156C25.2132 8.69966 24.9874 8.64748 24.8151 8.56406C24.6624 8.49005 24.5194 8.42949 24.4972 8.42949C24.4525 8.42949 24.2707 8.76053 24.2707 8.84205C24.2707 8.927 24.7689 9.14351 25.1434 9.22131L25.4919 9.29372L25.814 9.22681C26.2635 9.13343 26.516 8.96232 26.6543 8.65738C26.7889 8.36056 26.8039 8.10847 26.7045 7.81221C26.5568 7.37203 26.1893 7.15252 25.5145 7.10149L25.0645 7.06739V6.77253V6.47761L25.843 6.4605L26.6216 6.44338V6.17144V5.89944L25.5667 5.87988L24.5118 5.86033L24.5286 6.79349ZM27.7032 5.90622C27.6265 5.92095 27.4547 6.03669 27.3216 6.16344L27.0795 6.39389V6.68239C27.0795 6.9962 27.1529 7.17873 27.3401 7.33041L27.4606 7.42807L27.3014 7.53244C27.1032 7.66243 26.8963 8.05781 26.8963 8.30678C26.8963 8.56033 27.031 8.86002 27.2158 9.01756C27.5379 9.29225 28.6228 9.32611 29.008 9.07348C29.536 8.72722 29.5877 8.09968 29.1284 7.61226L28.9195 7.39054L29.0354 7.32846C29.1919 7.24467 29.3038 6.84617 29.2506 6.56231C29.1512 6.03156 28.4966 5.75405 27.7032 5.90622ZM35.2158 5.93329C35.112 6.03712 35.1201 6.23548 35.2347 6.3992L35.3297 6.53505H35.2083C35.1404 6.53505 35.0697 6.48109 35.048 6.41283C35.0004 6.26243 34.8336 6.2504 34.8363 6.39755C34.8435 6.79459 35.4571 6.958 35.539 6.58467L35.579 6.40281L35.4402 6.25504L35.3015 6.10727H35.3963C35.4484 6.10727 35.5252 6.14852 35.5671 6.19894C35.6607 6.31193 35.7502 6.31762 35.7502 6.21061C35.7502 5.9853 35.364 5.78491 35.2158 5.93329ZM29.5356 6.26354C29.3653 6.38288 29.3634 6.5532 29.5293 6.82184C29.6176 6.96491 29.6892 7.01972 29.7548 6.99448L29.851 6.95757L29.7392 7.08114L29.6275 7.2047L29.7282 7.24339C29.919 7.31666 30.0105 7.15514 30.0105 6.74491V6.35862L29.8747 6.26354C29.8001 6.21122 29.7238 6.16839 29.7052 6.16839C29.6865 6.16839 29.6102 6.21122 29.5356 6.26354ZM18.0119 6.42084C17.821 6.52766 17.7372 6.66448 17.7372 6.86927C17.7372 7.14091 17.8897 7.32949 18.1094 7.32949H18.2915L18.2138 7.41279C18.1664 7.46351 18.0999 7.47689 18.0435 7.44707C17.7988 7.31764 17.2245 7.08505 17.1497 7.08505C17.0375 7.08505 17.0434 7.18643 17.1812 7.62961L17.2969 8.00171H17.2187C17.1758 8.00171 17.0956 8.07046 17.0406 8.15449C16.9169 8.34345 16.6697 8.35848 16.5758 8.18273C16.4855 8.014 16.5474 7.8515 16.7343 7.76632C16.8195 7.72745 16.8723 7.66823 16.8516 7.6348C16.7325 7.44194 16.3327 7.76436 16.3327 8.05329C16.3327 8.15192 16.3853 8.29755 16.4495 8.37687L16.5662 8.52116L16.8464 8.51052C17.169 8.4983 17.1943 8.53998 16.9586 8.69489L16.7907 8.80526L16.9282 8.77587C17.0133 8.75766 17.0859 8.78247 17.1187 8.84095C17.1477 8.89296 17.2026 8.9163 17.2406 8.89277C17.3227 8.84205 17.334 8.39062 17.2544 8.34137C17.1688 8.28845 17.2496 8.06704 17.3416 8.10236C17.4277 8.13542 17.5759 7.92178 17.5115 7.85737C17.4601 7.80598 17.6747 7.57394 17.7735 7.57394C17.8915 7.57394 17.94 7.69047 17.8616 7.78507C17.814 7.84252 17.8123 7.88102 17.8563 7.90822C17.9581 7.97116 18.0499 7.88053 18.0301 7.73656L18.0119 7.60449L18.1694 7.62277C18.256 7.63285 18.3854 7.5916 18.4569 7.5311L18.587 7.42116L18.6263 7.0537L18.6656 6.68624L18.5524 6.55216C18.4136 6.38747 18.1751 6.32954 18.0119 6.42084ZM27.7251 6.49453C27.528 6.6918 27.5258 6.86499 27.7179 7.05725L27.8678 7.20727H28.1623C28.5445 7.20727 28.7282 7.08102 28.7282 6.81824C28.7282 6.50327 28.6103 6.39773 28.2227 6.36559L27.8822 6.3373L27.7251 6.49453ZM29.6441 6.49942C29.6441 6.55265 29.6876 6.59616 29.7408 6.59616C29.8486 6.59616 29.8299 6.46459 29.7167 6.42682C29.6767 6.4135 29.6441 6.44619 29.6441 6.49942ZM19.6301 6.56561L19.554 6.65727H19.6817C19.7701 6.65727 19.7986 6.6291 19.7743 6.56561C19.7549 6.51519 19.7317 6.47394 19.7226 6.47394C19.7135 6.47394 19.6719 6.51519 19.6301 6.56561ZM36.0612 6.83382C35.9238 6.99815 35.8113 7.16126 35.8113 7.19633C35.8113 7.28397 36.119 7.49578 36.3196 7.54613C36.4239 7.57235 36.5222 7.55701 36.5871 7.50439L36.6896 7.42116L36.6428 7.49901C36.6171 7.54185 36.6143 7.65998 36.6366 7.76143C36.7645 8.34461 37.5821 8.31925 37.5821 7.73215V7.52371L37.3942 7.36549C37.1915 7.1948 37.0874 7.1736 36.9125 7.26728L36.8004 7.32729L36.8067 7.10687L36.8129 6.88644L36.6165 6.71075C36.5084 6.61413 36.3955 6.53505 36.3656 6.53505C36.3356 6.53505 36.1987 6.6695 36.0612 6.83382ZM17.9835 6.71435C17.8876 6.89371 17.9072 7.01257 18.0448 7.08627C18.1762 7.15667 18.4036 7.11603 18.4165 7.01984C18.4207 6.98849 18.4293 6.92848 18.4358 6.88644C18.4761 6.6225 18.1076 6.48231 17.9835 6.71435ZM16.9408 6.93496L16.7984 7.08664L16.8689 7.15716L16.9393 7.22768L16.9784 7.12581C16.9999 7.06977 17.0558 7.02394 17.1025 7.02394C17.1493 7.02394 17.1876 6.98434 17.1876 6.93588C17.1876 6.7798 17.0868 6.77943 16.9408 6.93496ZM36.2138 6.96735L36.0559 7.15521L36.147 7.24644C36.1972 7.29662 36.3138 7.32894 36.4063 7.31831L36.5746 7.29894L36.5942 7.12722C36.6131 6.96265 36.5213 6.7795 36.4198 6.7795C36.3934 6.7795 36.3007 6.86401 36.2138 6.96735ZM17.3335 7.42544C17.354 7.47903 17.3708 7.53593 17.3708 7.552C17.3708 7.56801 17.3983 7.56416 17.4318 7.54338C17.5225 7.48734 17.5059 7.40869 17.3945 7.36592L17.2961 7.32809L17.3335 7.42544ZM36.9226 7.52505C36.8082 7.63957 36.8362 7.86819 36.9738 7.94182C37.2357 8.08214 37.4793 7.83837 37.3391 7.57626C37.2655 7.43858 37.0371 7.41053 36.9226 7.52505ZM27.7448 7.79767C27.6404 7.82565 27.5376 8.00037 27.4851 8.23913L27.453 8.38488L27.6279 8.55996L27.8029 8.73505L28.1281 8.73413C28.4708 8.73321 28.7065 8.6468 28.8072 8.48528C28.8945 8.34522 28.8052 7.92141 28.697 7.96291C28.6444 7.98314 28.624 7.96493 28.6431 7.91494C28.6614 7.86745 28.6163 7.81899 28.5332 7.79669C28.379 7.75538 27.9006 7.75599 27.7448 7.79767ZM19.6424 8.16317C19.4677 8.28557 19.3247 8.40242 19.3247 8.42289C19.3247 8.46194 20.137 8.6842 22.4767 9.28523L23.8883 9.64786L24.2068 9.61009L24.5252 9.57239L24.6752 9.73427C24.8432 9.91553 25.0117 9.94181 25.1256 9.80449C25.1674 9.75407 25.2431 9.71282 25.2939 9.71282C25.4322 9.71282 25.0739 9.97713 24.9188 9.98953C24.8478 9.99522 24.7372 10.0224 24.673 10.05L24.5564 10.1001L24.5913 9.96649C24.6341 9.80241 24.4969 9.65171 24.3047 9.65171C24.0936 9.65171 23.599 9.88925 23.599 9.99069V10.0795H23.3592H23.1194L22.9929 10.2405C22.9233 10.3291 22.8663 10.3656 22.8663 10.3217C22.8663 10.2778 22.9119 10.1914 22.9677 10.1298C23.0235 10.0681 23.0578 10.009 23.0441 9.99839C23.0303 9.98776 22.0385 9.73727 20.8401 9.44167L18.6613 8.9042L18.4892 9.02752C18.2311 9.21263 18.0258 9.4509 18.0903 9.49075C18.1599 9.53383 21.9397 10.4075 22.5152 10.5136L22.9274 10.5895V10.6905C22.9274 10.7461 22.856 10.8582 22.7689 10.9397C22.5831 11.1134 22.4389 11.3715 22.4389 11.5303C22.4389 11.6649 22.8693 12.1573 22.987 12.1573C23.0326 12.1573 23.0557 12.1714 23.0384 12.1887C22.9801 12.247 20.2668 11.8166 18.0119 11.3914C17.3738 11.271 16.7693 11.158 16.6686 11.1401L16.4854 11.1076L16.2826 11.3959C16.1692 11.5572 16.103 11.7074 16.1325 11.7368C16.2902 11.8947 23.8255 12.9898 23.9432 12.872C24.0056 12.8096 23.787 12.5209 23.5942 12.4111C23.4176 12.3106 23.3611 12.2184 23.4761 12.2184C23.584 12.2184 23.9914 12.5402 24.1942 12.7857L24.3923 13.0255L24.361 13.2035L24.3297 13.3814L24.5445 13.5964C24.6625 13.7146 24.7592 13.8346 24.7592 13.8632C24.7592 13.8917 24.663 13.9884 24.5455 14.0781C24.4279 14.1678 24.3318 14.2782 24.3318 14.3235C24.3318 14.3686 24.43 14.4841 24.5501 14.5801C24.6702 14.676 24.8145 14.7988 24.8707 14.8531C24.9269 14.9074 25.0318 14.9824 25.1038 15.0198L25.2346 15.0879L25.4004 14.9574C25.637 14.7711 25.9194 14.3621 25.9194 14.2055C25.9194 14.0634 26.333 13.685 26.4884 13.685C26.6012 13.685 26.6997 13.5638 26.8758 13.208C26.9539 13.0502 27.0023 12.983 26.9834 13.0586C26.9646 13.1343 26.9757 13.1961 27.0082 13.1961C27.0407 13.1961 27.1144 13.4082 27.172 13.6674C27.2296 13.9265 27.321 14.2084 27.375 14.2938C27.4864 14.4698 27.6857 14.6628 27.7558 14.6628C27.8096 14.6628 28.1068 14.431 28.7555 13.8828L29.2086 13.5L29.3042 13.6366C29.3568 13.7119 29.3999 13.8213 29.3999 13.8798C29.3999 13.9384 29.4542 14.0154 29.5206 14.051L29.6413 14.1156L29.7679 13.9889C29.8465 13.9102 29.8818 13.8169 29.8609 13.743C29.8424 13.6775 29.8138 13.5756 29.7973 13.5165L29.7674 13.4091L30.8201 13.4821C32.442 13.5947 35.7371 13.7427 37.6058 13.787L39.2918 13.8269V13.7581C39.2918 13.6157 39.0448 13.5778 37.8569 13.5376C35.919 13.4719 31.6003 13.1961 29.9572 13.033L29.5682 12.9944L29.6812 13.1716L29.7943 13.3489L29.5208 13.1291L29.2472 12.9094L29.0946 12.4666C28.9117 11.9362 28.7957 11.8316 28.4336 11.8705L28.1694 11.8988L28.1377 11.8162C28.1203 11.7707 28.2042 11.6295 28.324 11.5023C28.4439 11.3752 28.5588 11.1887 28.5794 11.0878C28.5999 10.987 28.6713 10.7885 28.738 10.6467L28.8594 10.3889L29.0681 10.3497C29.3615 10.2946 29.583 10.3614 29.583 10.5048C29.583 10.5694 29.6122 10.6403 29.6479 10.6624C29.6836 10.6844 29.738 10.7689 29.7688 10.85C29.7996 10.9313 29.9009 11.0279 29.994 11.0649C30.087 11.1019 30.236 11.1703 30.3252 11.2169C30.6483 11.3859 30.9738 11.3078 31.6286 10.9042C31.9384 10.7133 32.2081 10.7079 32.3751 10.8892C32.4448 10.9649 32.5114 11.0788 32.5232 11.1424C32.5349 11.206 32.5943 11.2885 32.6552 11.3257L32.7659 11.3934L32.8879 11.2444C33.199 10.8649 32.6678 10.2613 32.0255 10.2643L31.7507 10.2656L31.3641 10.4741C31.1072 10.6127 30.9894 10.6515 31.013 10.5899C31.0325 10.539 31.0485 10.4763 31.0485 10.4509C31.0485 10.4253 31.1611 10.3706 31.2987 10.3294C31.5975 10.2398 31.5933 10.1924 31.2923 10.2565L31.0791 10.3019L30.9317 10.2077C30.8435 10.1514 30.6352 10.1115 30.4127 10.1085C30.1644 10.1052 29.9498 10.0594 29.7662 9.97065C29.307 9.74851 28.7382 9.81879 28.4592 10.1322C28.3952 10.204 28.3169 10.2628 28.2852 10.2628C28.2536 10.2628 28.136 10.3063 28.0241 10.3595L27.8205 10.4562L27.5535 10.2995C27.3922 10.2049 27.2459 10.0577 27.184 9.92787C27.1276 9.80956 27.0418 9.71282 26.9933 9.71282C26.8964 9.71282 26.7395 9.84971 26.6969 9.97144C26.6787 10.0235 26.6306 10.0013 26.5503 9.90367L26.4308 9.75841L26.2994 9.80015C26.2084 9.82906 26.1551 9.91156 26.1264 10.0676C26.069 10.38 25.8589 10.5027 25.7662 10.2781C25.6803 10.0698 25.6272 9.77485 25.6817 9.80852C25.7116 9.8271 25.7362 9.8956 25.7362 9.96087C25.7362 10.0387 25.7781 10.0795 25.8583 10.0795C25.9346 10.0795 25.9804 10.0387 25.9804 9.97089C25.9804 9.91113 26.0216 9.80333 26.072 9.73134L26.1637 9.60044L25.8736 9.50419C25.7141 9.45127 25.1851 9.30949 24.6981 9.1891C23.9062 8.99342 21.7176 8.39631 20.5767 8.06478C20.3417 7.99646 20.1068 7.9406 20.0547 7.9406C20.0026 7.9406 19.8171 8.04076 19.6424 8.16317ZM15.9423 8.23577C15.925 8.26364 16.0604 8.43414 16.243 8.61466C16.453 8.82219 16.5497 8.95859 16.5061 8.9856C16.4681 9.00907 16.4539 9.07232 16.4746 9.12609C16.5419 9.30179 16.6247 9.22913 16.6492 8.97283L16.6731 8.72173L16.3666 8.45338C16.0509 8.17698 15.9959 8.14881 15.9423 8.23577ZM37.9673 8.25007C37.6016 8.38842 37.5601 8.89357 37.8976 9.09896C37.9975 9.15983 38.0774 9.22656 38.0749 9.24734C38.0592 9.38337 38.0862 9.41356 38.208 9.39621C38.364 9.37396 38.5896 9.60612 38.5393 9.73721C38.5084 9.81793 38.7053 10.2017 38.7777 10.2017C38.7982 10.2017 38.8948 10.1448 38.9924 10.0753C39.1862 9.93716 39.2273 9.97566 39.0707 10.1488C38.9265 10.3083 39.0067 10.4461 39.2441 10.4466L39.4445 10.4469L39.2814 10.5546L39.1184 10.6622L39.1788 10.7702L39.2392 10.8781L39.5555 10.6489C39.919 10.3855 39.9635 10.3341 39.9221 10.226L39.892 10.1476L39.5883 10.1836L39.2844 10.2196L39.4153 9.96845C39.6306 9.55491 39.4942 9.48146 39.0729 9.7842C38.9248 9.89072 38.7881 9.96246 38.7693 9.94364C38.7505 9.92482 38.8178 9.73574 38.9188 9.52344C39.0451 9.25816 39.0836 9.11467 39.0421 9.06462L38.9817 8.99183L38.6941 9.06804C38.5359 9.10996 38.3446 9.16404 38.269 9.18824L38.1316 9.23219V9.12053C38.1316 9.05912 38.0767 8.97454 38.0095 8.93256C37.9319 8.88403 37.8874 8.79004 37.8874 8.67461V8.49292L38.0366 8.45546C38.2219 8.4089 38.3055 8.45821 38.3819 8.65927L38.4415 8.81608L38.5122 8.74531C38.7151 8.54224 38.2683 8.13616 37.9673 8.25007ZM34.2237 8.31882C33.4361 8.54591 28.4265 9.70916 27.5465 9.86933L27.3112 9.9121L27.5235 10.1246L27.7358 10.337L27.9267 10.2951C28.0317 10.272 28.2279 10.1609 28.3627 10.0483C28.5222 9.91479 28.7221 9.81958 28.9359 9.77515L29.2642 9.70695L29.5915 9.82056L29.9189 9.93417L30.1326 9.88662C30.2501 9.86053 30.6623 9.77094 31.0485 9.68764C33.9338 9.06541 35.2708 8.73798 35.2255 8.66471C35.1444 8.53332 34.6862 8.24646 34.5657 8.25166C34.4951 8.25471 34.3413 8.2849 34.2237 8.31882ZM15.675 8.53149C15.5394 8.58612 15.4269 8.8756 15.4833 9.02532C15.5439 9.18641 15.6594 9.19845 15.9084 9.06957C16.1383 8.95059 16.1516 9.06505 15.9281 9.24092L15.7679 9.36712L15.8762 9.44638L15.9845 9.52564L15.9075 9.61853L15.8305 9.71136L15.9343 9.75126C16.1052 9.81689 16.3145 9.54232 16.3491 9.20701L16.3791 8.91508L16.2586 8.83056L16.1381 8.74605L15.9235 8.83582C15.6625 8.94496 15.5786 8.88947 15.7776 8.73926C15.9699 8.59412 15.8952 8.44288 15.675 8.53149ZM14.9873 9.36143L14.8584 9.49893L14.8782 9.75407L14.898 10.0093L14.7392 9.97743L14.5804 9.94566L14.3857 10.1806L14.1911 10.4156L14.363 10.5708C14.4576 10.6561 14.6029 10.7737 14.6859 10.8322L14.8367 10.9385L14.7451 10.9969C14.6948 11.0291 14.5698 11.0558 14.4674 11.0563L14.2812 11.0573L14.2036 10.8424C14.109 10.5807 13.9867 10.626 14.0387 10.9036L14.076 11.1026L13.8916 11.1395C13.7754 11.1627 13.7071 11.2139 13.7071 11.2777V11.3789L13.9435 11.3472L14.18 11.3155L14.2692 11.5041L14.3585 11.6928L14.2114 11.9098C14.0631 12.1285 13.9007 12.2047 13.9444 12.035C14.0177 11.7507 14.0205 11.6684 13.957 11.6684C13.9186 11.6684 13.8612 11.7371 13.8292 11.8212C13.7973 11.9052 13.7293 11.9739 13.6781 11.9739C13.5617 11.9739 13.5618 11.9282 13.6788 11.7037L13.7718 11.5251L13.6937 11.4768C13.6401 11.4435 13.5736 11.5089 13.4809 11.6859C13.4069 11.8275 13.345 11.9742 13.3435 12.0119C13.342 12.0495 13.5179 12.1713 13.7345 12.2825C13.9511 12.3937 14.1137 12.5141 14.0959 12.5501C14.0782 12.5861 14.1345 12.5384 14.2212 12.4441C14.3079 12.3498 14.3788 12.2176 14.3788 12.1502C14.3788 12.0829 14.4063 12.0448 14.4398 12.0656C14.4734 12.0864 14.505 12.0674 14.5099 12.0234C14.5149 11.9794 14.5246 11.9021 14.5314 11.8517C14.5383 11.8013 14.548 11.709 14.5529 11.6466C14.5585 11.5771 14.5946 11.5456 14.6461 11.5654C14.7503 11.6054 14.8673 11.4954 14.8673 11.3571C14.8673 11.3002 14.9016 11.2405 14.9437 11.2243C15.0347 11.1894 15.0359 10.8349 14.9453 10.7443C14.9012 10.7001 14.9094 10.6248 14.9722 10.4988C15.0221 10.3988 15.0496 10.2661 15.0334 10.2039L15.0038 10.0909L15.1789 10.152L15.354 10.2131L15.2937 10.3259C15.1561 10.5831 15.5017 10.5156 15.6885 10.2488C15.8128 10.0711 15.8126 9.53762 15.6881 9.35978L15.5931 9.22393H15.3547H15.1163L14.9873 9.36143ZM34.0405 9.65996C33.1506 9.85918 32.3817 10.0367 32.332 10.0544C32.273 10.0753 32.3287 10.1255 32.4918 10.1986C32.6295 10.2603 32.7851 10.3722 32.8377 10.4474L32.9334 10.5841L34.6624 10.2379C35.6133 10.0476 36.4305 9.87807 36.4783 9.86126L36.5652 9.83077L36.2977 9.55791L36.0301 9.28505L35.8444 9.29134C35.7422 9.29482 34.9305 9.46068 34.0405 9.65996ZM38.6201 9.34616C38.6201 9.37977 38.6476 9.40727 38.6812 9.40727C38.7148 9.40727 38.7422 9.37977 38.7422 9.34616C38.7422 9.31255 38.7148 9.28505 38.6812 9.28505C38.6476 9.28505 38.6201 9.31255 38.6201 9.34616ZM15.1573 9.47327C15.0986 9.50755 15.0505 9.59745 15.0505 9.6731C15.0505 9.98049 15.4355 10.0767 15.5422 9.79593L15.6035 9.6346L15.5007 9.52093C15.3851 9.39309 15.3122 9.38294 15.1573 9.47327ZM26.53 9.73977C26.53 9.79214 26.5575 9.83504 26.591 9.83504C26.6246 9.83504 26.6521 9.80919 26.6521 9.77754C26.6521 9.74588 26.6246 9.70304 26.591 9.68227C26.5575 9.66149 26.53 9.6874 26.53 9.73977ZM25.1565 10.0791C25.0955 10.1465 25.074 10.2017 25.1087 10.2017C25.1855 10.2017 25.3378 10.0271 25.2967 9.98599C25.2805 9.96979 25.2174 10.0117 25.1565 10.0791ZM26.7742 10.0357C26.7742 10.0901 26.7261 10.1625 26.6674 10.1968L26.5605 10.2591L26.6633 10.261C26.7657 10.2628 26.8788 10.0415 26.8103 9.97303C26.7905 9.95317 26.7742 9.98134 26.7742 10.0357ZM17.1889 10.2921C17.0412 10.4427 16.9366 10.582 16.9564 10.6019C17.0265 10.6719 21.5124 11.5477 22.1621 11.6181L22.3433 11.6378L22.3899 11.3667C22.4155 11.2176 22.4282 11.0874 22.4183 11.0774C22.4083 11.0674 21.8662 10.9482 21.2136 10.8125C20.5609 10.6767 19.4741 10.4425 18.7983 10.292C18.1226 10.1415 17.5444 10.0184 17.5135 10.0184C17.4826 10.0184 17.3365 10.1416 17.1889 10.2921ZM26.1962 10.1883C26.1695 10.2986 26.0788 10.4429 25.9947 10.5092C25.9106 10.5753 25.8661 10.6285 25.8959 10.6273C25.9256 10.6261 26.0277 10.5614 26.1228 10.4836L26.2956 10.342L26.2702 10.1649L26.2448 9.98782L26.1962 10.1883ZM23.6422 10.2024C23.6216 10.2812 23.6407 10.3239 23.6964 10.3239C23.7907 10.3239 23.8143 10.1677 23.7281 10.1143C23.6983 10.0959 23.6597 10.1355 23.6422 10.2024ZM28.4839 10.2934C28.4051 10.3774 28.3659 10.4453 28.397 10.4443C28.4492 10.4425 28.7008 10.1406 28.6501 10.1406C28.6376 10.1406 28.5628 10.2093 28.4839 10.2934ZM28.854 10.2442C28.7384 10.3049 28.6316 10.3957 28.6166 10.4462C28.599 10.5054 28.6423 10.4892 28.739 10.4003L28.8887 10.2628H29.1788C29.5458 10.2628 29.7052 10.3467 29.7052 10.54C29.7052 10.6228 29.7308 10.6906 29.762 10.6906C29.7932 10.6906 29.8276 10.7522 29.8383 10.8275C29.8499 10.9088 29.9074 10.9718 29.9799 10.9828C30.0471 10.9929 30.2357 11.0612 30.399 11.1345L30.6959 11.2679L31.2625 10.9671C31.917 10.6196 32.1793 10.5843 32.4208 10.8112C32.5056 10.891 32.5751 11.0187 32.5751 11.0948C32.5751 11.2387 32.6517 11.3268 32.7187 11.2598C32.7399 11.2386 32.7231 11.1802 32.6814 11.1299C32.6397 11.0796 32.6121 11.0221 32.6201 11.002C32.6587 10.9053 32.5487 10.7413 32.3906 10.6594C32.1038 10.5109 31.8393 10.5472 31.4418 10.7895C31.2423 10.9112 30.9933 11.0476 30.8886 11.0926L30.6981 11.1745L30.4635 11.0548C30.3345 10.9889 30.1637 10.935 30.0841 10.935C29.8941 10.935 29.9399 10.7884 30.1374 10.7641C30.3699 10.7356 30.6092 10.6264 30.6453 10.5322C30.6979 10.3951 30.2743 10.4014 30.003 10.5417C29.8266 10.633 29.7306 10.5934 29.8319 10.4711L29.8965 10.3932L29.7389 10.2898C29.5015 10.1341 29.1028 10.1136 28.854 10.2442ZM14.5381 10.2979C14.5179 10.3508 14.5411 10.434 14.5897 10.4827L14.6782 10.5712L14.7422 10.4516C14.7774 10.3858 14.8062 10.3027 14.8062 10.2669C14.8062 10.1645 14.5792 10.1908 14.5381 10.2979ZM23.0207 10.3822C23.0009 10.4143 23.0028 10.5128 23.0249 10.601L23.0652 10.7615L22.9271 10.9552L22.789 11.1489L22.9345 11.0097L23.08 10.8706L23.0815 10.5972C23.0831 10.308 23.0779 10.2896 23.0207 10.3822ZM36.7272 10.3877C36.6097 10.4158 35.8128 10.5654 34.9564 10.7201C34.1001 10.8747 33.344 11.0127 33.2763 11.0268C33.2078 11.0411 33.1216 11.1363 33.0819 11.2416L33.0105 11.4308L33.0828 11.4549C33.1998 11.4939 34.9914 11.7741 37.1852 12.0965C37.6554 12.1656 38.1484 12.2384 38.2809 12.2582L38.5217 12.2942L38.427 12.1494C38.3749 12.0697 38.2436 11.8601 38.1351 11.6837L37.938 11.3628H37.8045C37.731 11.3628 37.3472 11.43 36.9517 11.5121L36.2324 11.6614L35.6159 11.5438C35.2769 11.4792 34.9914 11.4182 34.9815 11.4082C34.9716 11.3983 35.5095 11.2975 36.1769 11.1842C36.8442 11.0709 37.4239 10.9573 37.465 10.9319L37.5398 10.8857L37.3014 10.6068C37.0465 10.3085 37.0507 10.3101 36.7272 10.3877ZM28.9877 10.448C28.777 10.5328 28.8209 10.6767 29.0793 10.7485C29.2053 10.7835 29.3706 10.8123 29.4468 10.8125L29.5854 10.8128L29.5443 10.6448C29.4809 10.3857 29.3009 10.322 28.9877 10.448ZM27.8574 10.5928L27.7499 10.6745L27.8269 10.7342C27.9949 10.8643 28.026 10.8566 28.026 10.6848C28.026 10.4856 28.01 10.4769 27.8574 10.5928ZM39.6734 10.7573C39.3358 10.9551 39.3217 10.9743 39.4102 11.1145L39.4657 11.2022L39.5538 11.1289L39.642 11.0557L39.7164 11.1455C39.7573 11.1949 39.7727 11.2646 39.7505 11.3005C39.7283 11.3365 39.7328 11.3619 39.7605 11.3571C39.7882 11.3523 39.907 11.3535 40.0245 11.3597L40.2383 11.3711L40.105 11.4356C39.937 11.5168 39.8668 11.878 39.9701 12.1295C40.0109 12.2288 40.0421 12.3238 40.0396 12.3406C40.037 12.3574 40.1465 12.379 40.283 12.3886L40.5311 12.406L40.6747 12.271C40.9593 12.0034 40.8139 11.5198 40.4123 11.3982L40.2811 11.3585L40.3463 11.1854L40.4116 11.0123L40.2911 10.8059C40.2248 10.6922 40.1308 10.5926 40.0823 10.5844C40.0338 10.5761 39.8498 10.6539 39.6734 10.7573ZM28.1176 10.6831C28.1176 10.7633 28.2754 10.8789 28.3216 10.8327C28.4052 10.749 28.3571 10.6295 28.2397 10.6295C28.1725 10.6295 28.1176 10.6536 28.1176 10.6831ZM30.6582 10.7209C30.5947 10.769 30.5123 10.8211 30.475 10.8365C30.4311 10.8548 30.4394 10.8873 30.499 10.9295C30.6313 11.0231 30.6821 11.0111 30.6821 10.8862C30.6821 10.8257 30.7151 10.7432 30.7554 10.7028C30.8548 10.6033 30.7999 10.6136 30.6582 10.7209ZM31.1096 10.7517C31.0546 10.7873 31.047 10.8113 31.0907 10.8119C31.1307 10.8124 31.1804 10.7853 31.2012 10.7517C31.248 10.6758 31.2269 10.6758 31.1096 10.7517ZM39.9485 10.8811L39.8434 10.94L39.9181 11.0597C40.0109 11.2084 40.147 11.216 40.1457 11.0725C40.1442 10.892 40.0654 10.8156 39.9485 10.8811ZM31.7435 11.0241L31.4454 11.1642L31.5981 11.2033C31.8952 11.2793 32.3599 11.3521 32.398 11.3285C32.4501 11.2963 32.3908 11.0027 32.3237 10.9613C32.1871 10.8767 32.0182 10.895 31.7435 11.0241ZM28.5763 11.3614C28.5205 11.4692 28.4871 11.5696 28.5019 11.5845C28.6393 11.722 38.1801 12.9321 38.6997 12.8779L38.8708 12.86L38.7862 12.7451L38.7016 12.6301L37.4854 12.4911C34.967 12.2034 32.2998 11.8034 28.8708 11.1992L28.6776 11.1652L28.5763 11.3614ZM14.4787 11.393C14.498 11.4432 14.5383 11.4692 14.5684 11.4505C14.6546 11.3972 14.6321 11.3017 14.5333 11.3017C14.4789 11.3017 14.4574 11.3376 14.4787 11.393ZM22.5518 11.467C22.5303 11.541 22.5443 11.64 22.5827 11.687C22.6755 11.8004 23.0786 12.0962 23.1403 12.0962C23.1672 12.0962 23.0634 12 22.9097 11.8826C22.718 11.7361 22.624 11.6161 22.6105 11.5006L22.5907 11.3323L22.5518 11.467ZM28.0812 11.5003L27.9649 11.6378L28.1176 11.5163C28.2015 11.4494 28.2817 11.3875 28.2957 11.3788C28.3097 11.37 28.2933 11.3628 28.2594 11.3628C28.2254 11.3628 28.1452 11.4247 28.0812 11.5003ZM40.1853 11.7365C40.0692 11.9022 40.1431 12.1197 40.3246 12.1467C40.4968 12.1723 40.6352 12.0567 40.6352 11.887C40.6352 11.6081 40.3434 11.5105 40.1853 11.7365ZM23.4207 12.0154L23.334 12.1133L23.4207 12.0819C23.4684 12.0647 23.5692 12.1069 23.6448 12.1757C23.7204 12.2445 23.7822 12.2714 23.7822 12.2355C23.7822 12.1997 23.741 12.1545 23.6906 12.1351C23.6403 12.1158 23.599 12.0579 23.599 12.0064C23.599 11.8872 23.5313 11.8906 23.4207 12.0154ZM15.6296 12.4031C15.3834 12.7936 15.3823 12.8181 15.6101 12.8553C16.2431 12.9588 16.5384 13.015 16.5591 13.0357C16.5719 13.0484 16.2858 13.0789 15.9233 13.1033C15.2948 13.1456 15.1115 13.1974 15.1115 13.3332C15.1115 13.3963 16.3847 13.3559 17.4624 13.2586C17.8267 13.2257 18.2074 13.2345 18.592 13.2845L19.1721 13.3599L18.7752 13.3998C18.1944 13.4581 16.1323 13.5628 15.5645 13.5628C15.1088 13.5628 14.9283 13.6183 14.9283 13.7584C14.9283 13.7853 15.2512 13.8073 15.6458 13.8074C16.3647 13.8075 20.7549 13.644 21.1566 13.6022C21.2741 13.5899 21.9199 13.6302 22.5915 13.6917C23.2632 13.7532 23.9595 13.8043 24.1388 13.8054L24.4648 13.8073L24.3067 13.6192C24.2197 13.5158 24.1486 13.3954 24.1486 13.3516V13.2719L23.4311 13.199C21.3701 12.9898 16.3169 12.3079 15.8929 12.1818L15.7888 12.1508L15.6296 12.4031ZM29.1204 12.3161C29.1446 12.4136 29.1856 12.5153 29.2116 12.542C29.314 12.6473 34.0014 13.0827 37.8569 13.3451C38.5285 13.3909 39.0872 13.4197 39.0983 13.4091C39.1094 13.3986 39.0906 13.3378 39.0565 13.274L38.9946 13.1581L37.5708 13.0511C35.0632 12.8625 30.7391 12.4048 29.3195 12.1777L29.0767 12.1388L29.1204 12.3161ZM24.0922 12.4461C24.1378 12.5057 24.1828 12.566 24.1924 12.58C24.2019 12.594 24.2097 12.5625 24.2097 12.5101C24.2097 12.4577 24.1645 12.3975 24.1094 12.3763L24.0092 12.3378L24.0922 12.4461ZM26.9382 12.6691C26.918 12.7218 26.9514 12.7686 27.0227 12.7872C27.1601 12.8231 27.1775 12.7529 27.0561 12.6521L26.9717 12.5819L26.9382 12.6691ZM24.2097 12.6711C24.2097 12.6828 24.2509 12.7265 24.3012 12.7684C24.3541 12.8122 24.3928 12.8182 24.3928 12.7824C24.3928 12.7483 24.3516 12.7045 24.3012 12.6851C24.2509 12.6658 24.2097 12.6595 24.2097 12.6711ZM27.2113 13.3184C27.2113 13.4024 27.2252 13.4368 27.2421 13.3948C27.2591 13.3528 27.2591 13.284 27.2421 13.242C27.2252 13.2 27.2113 13.2343 27.2113 13.3184ZM29.0746 13.3433C29.0519 13.4027 29.0683 13.4234 29.122 13.4028C29.2338 13.3598 29.4394 13.5924 29.4832 13.8115C29.5028 13.91 29.5473 13.9906 29.582 13.9906C29.6211 13.9906 29.6255 13.9499 29.5935 13.8836C29.565 13.8249 29.503 13.6972 29.4555 13.6C29.4081 13.5028 29.3109 13.3848 29.2395 13.3378L29.1095 13.2523L29.0746 13.3433ZM26.9253 13.5755C26.9054 13.6273 26.778 13.7199 26.642 13.7812L26.3949 13.8928L26.5082 13.9374C26.5706 13.9619 26.7376 13.9839 26.8796 13.9863L27.1375 13.9906L27.1005 13.792C27.0548 13.5473 26.9743 13.4477 26.9253 13.5755ZM27.2731 13.6545C27.2721 13.7217 27.2949 13.8317 27.3238 13.8989C27.3906 14.0546 27.3906 13.894 27.3238 13.685L27.2749 13.5323L27.2731 13.6545ZM24.8251 13.7207C24.828 13.7919 24.8425 13.8063 24.862 13.7576C24.8796 13.7135 24.8774 13.6608 24.8571 13.6405C24.8369 13.6202 24.8225 13.6563 24.8251 13.7207ZM28.8981 13.8625L28.6996 14.0399L28.9915 14.0837C29.152 14.1078 29.296 14.115 29.3114 14.0996C29.355 14.0558 29.2112 13.685 29.1506 13.685C29.1208 13.685 29.0072 13.7649 28.8981 13.8625ZM29.9246 13.8977C29.9014 13.9903 29.8958 14.0795 29.9121 14.0959C29.9639 14.1477 33.8538 14.2288 36.4399 14.232L38.9308 14.235L38.9129 14.342L38.8949 14.4489H39.1068H39.3187L39.3916 14.3027C39.4316 14.2222 39.4517 14.1231 39.4361 14.0824L39.4077 14.0085L36.9226 13.9658C35.5558 13.9424 33.8604 13.8984 33.1551 13.8681C32.4499 13.8378 31.444 13.7942 30.9199 13.7711L29.9669 13.7293L29.9246 13.8977ZM27.3851 14.0928C27.385 14.1323 27.456 14.2492 27.5431 14.3527L27.7013 14.5409L27.883 14.4338C27.9829 14.3749 28.1109 14.2751 28.1675 14.2121C28.2341 14.1377 28.1867 14.1539 28.0327 14.2579C27.7256 14.4655 27.6528 14.4602 27.5063 14.2198C27.4397 14.1105 27.3852 14.0534 27.3851 14.0928ZM48.5121 14.5072C47.3753 14.7525 46.5142 15.2318 45.736 16.0524C45.0038 16.8244 44.5947 17.6821 44.4673 18.7126L44.401 19.2486L44.4694 19.8738C44.507 20.2176 44.5913 20.666 44.6566 20.8702C44.79 21.2871 45.0761 21.8577 45.2147 21.9833C45.2651 22.0289 45.2723 22.0491 45.2307 22.028C45.181 22.0029 45.1675 22.0222 45.1913 22.0843C45.2113 22.1363 45.2503 22.1647 45.278 22.1476C45.3426 22.1076 45.5257 22.3654 45.4824 22.4354C45.4646 22.4644 45.4863 22.4805 45.5308 22.4713C45.5753 22.462 45.6041 22.4909 45.5949 22.5354C45.5856 22.5799 45.6026 22.6012 45.6325 22.5827C45.6967 22.543 45.9008 22.7512 45.856 22.8108C45.8392 22.8333 45.8431 22.8385 45.8647 22.8225C45.8863 22.8065 45.9953 22.8736 46.1069 22.9716C46.6256 23.4275 47.5816 23.9698 48.0078 24.0501C48.1166 24.0705 48.1906 24.1117 48.1721 24.1416C48.1537 24.1715 48.1883 24.1897 48.249 24.182C48.3097 24.1743 48.593 24.2018 48.8784 24.2429C49.1639 24.2841 49.5074 24.3271 49.6417 24.3384L49.8859 24.3589L49.5501 24.3756L49.2143 24.3924L49.7028 24.4682C50.811 24.6402 51.7817 24.321 52.6479 23.4997L53.0478 23.1206L53.0545 22.8576L53.0611 22.5947L52.2673 21.6562C51.8307 21.1401 51.4521 20.7167 51.4259 20.7153C51.3997 20.7139 51.2047 20.8602 50.9926 21.0403C50.7804 21.2204 50.4721 21.4198 50.3074 21.4834L50.0081 21.5989L49.3669 21.5968L48.7258 21.5948L48.3747 21.4189C47.4352 20.9482 46.9557 19.9954 47.1926 19.07C47.4943 17.8915 48.4705 17.2499 49.8825 17.3023C50.1628 17.3126 50.3805 17.3404 50.3663 17.3639C50.3236 17.4346 50.571 17.5373 50.6906 17.4985L50.8019 17.4624L50.719 17.5216C50.6112 17.5987 50.7216 17.6702 50.8727 17.6211L50.985 17.5846L50.9005 17.6449L50.8159 17.7052L50.9382 17.7707C51.0055 17.8068 51.0779 17.8189 51.0992 17.7977C51.1204 17.7765 51.1377 17.7988 51.1377 17.8474C51.1377 17.8959 51.1803 17.9965 51.2323 18.0709L51.327 18.2061L51.4779 18.1071C51.6347 18.0043 52.2301 17.3986 52.7816 16.781L53.1002 16.4243L53.0711 16.2087C53.0081 15.7406 52.0272 14.9951 51.0435 14.6676L50.4355 14.4652L49.6722 14.4434C49.1687 14.429 48.7739 14.4507 48.5121 14.5072ZM2.48788 17.2999C0.949009 21.4116 -0.0501987 24.3149 0.00194769 24.523L0.0377296 24.6655L0.399884 24.6606C0.599127 24.6579 0.762406 24.6416 0.762711 24.6245C0.763077 24.6073 1.05843 24.5853 1.41912 24.5756C1.77981 24.5658 2.22604 24.5383 2.41076 24.5145L2.74659 24.4711L3.01764 23.6376L3.28876 22.8041L4.02516 22.7055C4.43024 22.6513 4.87495 22.607 5.01349 22.6071C5.56787 22.6074 5.87104 22.4561 5.41803 22.4052C5.26757 22.3883 5.28852 22.384 5.47909 22.3927C5.63864 22.4 5.76913 22.3813 5.76913 22.351C5.76913 22.3208 5.89089 22.3024 6.03969 22.3101L6.31025 22.3241L6.40575 22.542C6.45833 22.6619 6.5556 22.9397 6.62203 23.1592C6.74068 23.5513 6.98987 23.9225 7.03786 23.7786C7.05093 23.7393 7.12964 23.7072 7.21274 23.7072C7.29798 23.7072 7.34744 23.7339 7.32619 23.7684C7.3047 23.8031 7.36234 23.8321 7.45998 23.8356L7.6315 23.8416L7.47885 23.8906L7.32619 23.9395L7.59596 23.9456C7.95305 23.9536 9.25066 23.7771 9.38951 23.7015C9.44966 23.6688 9.52117 23.6558 9.54846 23.6727C9.57582 23.6896 9.62711 23.6398 9.66252 23.5619L9.72694 23.4204L9.60586 23.1514C9.53924 23.0034 9.25646 22.3322 8.97747 21.66C8.69849 20.9878 8.07853 19.5028 7.59987 18.36C7.12121 17.2173 6.61971 15.9935 6.4855 15.6406C6.35135 15.2877 6.22452 14.9811 6.20376 14.9592C6.183 14.9374 5.68517 14.8741 5.09745 14.8186C4.50974 14.763 3.90523 14.7026 3.7541 14.6842L3.47933 14.6508L2.48788 17.2999ZM25.0044 14.7717C25.003 14.8834 25.1814 14.937 25.267 14.8507L25.3393 14.7778L25.2263 14.8208C25.156 14.8476 25.0928 14.8317 25.0593 14.7787L25.0053 14.6934L25.0044 14.7717ZM42.8639 15.0966C42.5616 15.1243 41.4763 15.2041 40.452 15.274C39.4277 15.344 38.5553 15.413 38.5133 15.4273L38.4369 15.4534V19.2367V23.02L38.5133 23.0809C38.5553 23.1144 38.9193 23.1603 39.3223 23.183C39.7253 23.2057 40.481 23.2624 41.0015 23.3089C41.5221 23.3555 42.3464 23.4265 42.8334 23.4667C43.3203 23.507 43.7986 23.5776 43.8961 23.6236C43.9936 23.6696 44.1247 23.7072 44.1874 23.7072H44.3015L44.2849 22.5309L44.2683 21.3545L42.5586 21.2628L40.8489 21.1711L40.8287 20.9588C40.8176 20.8421 40.8263 20.6281 40.848 20.4833L40.8875 20.22L41.8757 20.2568C42.927 20.296 43.0451 20.3115 42.9882 20.4037C42.9683 20.4359 43.0559 20.4797 43.1828 20.5012C43.3096 20.5226 43.4576 20.5521 43.5117 20.5667C43.7482 20.6308 43.7876 20.3794 43.7631 18.9631L43.7493 18.1607L42.2747 18.1931L40.8001 18.2256L40.833 17.8158C40.8511 17.5904 40.8758 17.3976 40.8879 17.3873C40.9 17.3771 41.5144 17.354 42.2533 17.3362C42.9921 17.3183 43.5466 17.3169 43.4854 17.333L43.3741 17.3623L43.4854 17.4467C43.636 17.561 43.9631 17.5568 44.0808 17.439L44.1767 17.343V16.1862V15.0295L43.7951 15.0379C43.5852 15.0426 43.1661 15.069 42.8639 15.0966ZM11.9669 15.3867C11.3869 15.5384 11.1323 15.6546 10.6914 15.9695C9.98645 16.473 9.51237 17.126 9.20377 18.0184L9.04336 18.4823L9.04195 19.3989L9.04061 20.3156L9.14936 20.7076C9.29756 21.2415 9.59352 21.8311 9.87263 22.1485C10.0001 22.2935 10.1056 22.4354 10.107 22.4638C10.1103 22.5339 10.8697 23.0015 11.1731 23.1202C11.8945 23.4027 12.9625 23.4819 13.7007 23.3078C13.9154 23.2571 14.1022 23.2267 14.1157 23.2402C14.1292 23.2537 14.0634 23.2828 13.9695 23.3048C13.5839 23.3951 13.1232 23.5468 13.066 23.6023C12.9606 23.7044 13.7773 23.594 14.3253 23.432C15.0104 23.2294 15.9389 22.7671 16.0737 22.5613L16.1801 22.399V20.7462V19.0934H15.1115H14.0429L14.0261 20.0516L14.0094 21.0099L13.7819 21.0896C13.6568 21.1333 13.3484 21.168 13.0965 21.1666L12.6385 21.1639L12.3885 21.0336C11.6741 20.6613 11.3307 19.682 11.6203 18.8434C11.8053 18.3077 12.2513 17.891 12.7253 17.8108C12.8583 17.7883 12.954 17.7374 12.954 17.6892V17.6062L12.7047 17.6283L12.4553 17.6505L12.5566 17.5928C12.7094 17.5059 13.4317 17.4752 13.6838 17.5448C13.9149 17.6087 14.4254 17.9382 14.6774 18.1863L14.8235 18.3301L14.9005 18.2661L14.9775 18.2022L15.004 18.2811L15.0305 18.36L15.1789 18.281C15.414 18.1557 16.1587 17.4159 16.1173 17.3488C16.0966 17.3154 16.1542 17.1995 16.2451 17.0914L16.4105 16.8946L15.9289 16.4455C15.1256 15.6963 14.2543 15.3481 13.066 15.3013L12.3943 15.2749L11.9669 15.3867ZM33.1565 15.6537C32.3512 15.6841 31.678 15.7322 31.6605 15.7606C31.643 15.789 31.6359 17.3823 31.6448 19.3014L31.6611 22.7906H32.1396C32.4029 22.7906 32.7836 22.8079 32.9858 22.829L33.3533 22.8675L33.3251 22.9753L33.2969 23.0832L33.6049 23.1255C33.7742 23.1489 33.9415 23.1502 33.9767 23.1284C34.0168 23.1036 34.0405 22.7269 34.0405 22.1147V21.1406L34.1169 21.1352C34.1589 21.1322 34.468 21.1334 34.8038 21.1379C35.1396 21.1424 35.5473 21.1204 35.7098 21.0891C35.8722 21.0578 35.9822 21.0544 35.954 21.0817C35.9259 21.1089 35.8207 21.1401 35.7203 21.1511C35.5996 21.1643 35.5302 21.2101 35.5158 21.2859L35.494 21.4007L35.7901 21.3592C36.8222 21.2143 37.7106 20.6017 37.8887 19.9121C37.9182 19.7979 37.9987 19.5126 38.0675 19.278C38.3214 18.4132 38.1838 17.3764 37.7253 16.6981C37.3619 16.1603 36.7633 15.8028 35.9975 15.6661C35.4868 15.5749 35.2709 15.5739 33.1565 15.6537ZM16.6991 19.3114V22.9917L17.5179 22.9492C18.0683 22.9206 18.3498 22.9277 18.3764 22.9709C18.3992 23.0077 18.3626 23.035 18.2903 23.035C18.2212 23.035 18.1646 23.0625 18.1646 23.0961C18.1646 23.1315 18.358 23.1572 18.6225 23.1572H19.0805V22.3093C19.0805 21.843 19.0977 21.3755 19.1187 21.2704L19.1568 21.0795H19.4217H19.6865L19.9432 21.4578C20.0845 21.6658 20.1999 21.8706 20.1999 21.9127C20.1999 21.9549 20.2202 21.984 20.245 21.9774C20.2697 21.9709 20.4104 22.1443 20.5575 22.3628L20.825 22.76L21.7973 22.7515L22.7696 22.743L22.6533 22.8282L22.537 22.9132L22.6014 22.9776C22.6367 23.013 22.8138 23.0336 22.995 23.0232L23.3243 23.0045L23.3436 22.7693C23.3554 22.6251 23.3283 22.4951 23.2735 22.4332C23.2244 22.3776 22.9487 21.9917 22.6609 21.5755L22.1376 20.8188L22.3787 20.6441C22.6562 20.4428 22.9588 20.0187 22.8966 19.9181C22.8734 19.8803 22.8991 19.8 22.9537 19.7396C23.0085 19.6792 23.1124 19.3893 23.1849 19.0954L23.3168 18.5611L23.246 18.0753C23.0911 17.0122 22.4402 16.3033 21.2866 15.9419L20.8818 15.8151L19.8743 15.7627C19.3202 15.7339 18.379 15.6925 17.7829 15.6707L16.6991 15.6311V19.3114ZM26.4689 15.7278C24.9463 16.0665 23.8965 16.9682 23.511 18.2684C23.3787 18.7147 23.377 19.819 23.5078 20.3156C23.5609 20.5172 23.6993 20.8424 23.8154 21.038C23.9315 21.2337 24.0265 21.4239 24.0265 21.4607C24.0265 21.4975 24.0407 21.5134 24.0581 21.4959C24.0755 21.4786 24.2335 21.6064 24.4092 21.78C24.7572 22.1238 25.3417 22.4501 26.011 22.674L26.4384 22.8171L27.3543 22.8191C27.8581 22.8202 28.2153 22.8293 28.1481 22.8392C28.0809 22.8491 27.9573 22.9103 27.8733 22.9753L27.7207 23.0934L27.9368 23.0948C28.2816 23.0969 28.8411 22.9311 29.3808 22.6667C30.6072 22.0659 31.2459 20.8997 31.2539 19.2461C31.2575 18.523 31.1582 18.1002 30.8448 17.5045C30.5707 16.9832 29.9174 16.3607 29.3657 16.0952C28.5302 15.693 27.3171 15.5391 26.4689 15.7278ZM26.9574 17.6675C26.6642 17.7504 26.608 17.8212 26.8587 17.7919C27.1559 17.7572 27.1926 17.883 26.9076 17.9598C26.3824 18.1013 25.9166 18.6457 25.8238 19.2266C25.7317 19.8029 26.1162 20.4887 26.6783 20.7506C27.2432 21.0139 27.8629 20.9294 28.3199 20.5268C28.7745 20.1263 28.9569 19.4575 28.7776 18.8489C28.738 18.7145 28.7024 18.5907 28.6986 18.5739C28.6584 18.3969 28.5866 18.2732 28.5406 18.3016C28.5095 18.3209 28.4839 18.2901 28.4839 18.2332C28.4839 17.9828 27.8092 17.5914 27.395 17.6016C27.2719 17.6047 27.075 17.6343 26.9574 17.6675ZM34.0405 18.3906V19.185L34.4832 19.1836C35.1006 19.1815 35.3834 19.1039 35.5823 18.8817L35.7502 18.6942V18.4172C35.7502 18.1026 35.6312 17.8314 35.4317 17.6915L35.2956 17.5961H34.6681H34.0405V18.3906ZM19.1203 17.8399C19.0985 17.9495 19.0805 18.2979 19.0805 18.614V19.1889L19.1825 19.228C19.2387 19.2496 19.5431 19.2392 19.859 19.2049L20.4334 19.1426L20.6136 18.9622C20.8471 18.7285 20.8998 18.4196 20.7572 18.1191C20.5956 17.7781 20.4469 17.7115 19.7636 17.6738L19.1602 17.6405L19.1203 17.8399ZM34.1239 17.7929C34.1076 17.8191 34.1922 17.8406 34.3117 17.8406C34.4312 17.8406 34.529 17.8127 34.529 17.7785C34.529 17.7075 34.1687 17.7203 34.1239 17.7929ZM19.3115 17.9161L19.4508 17.9833L19.5222 17.9119L19.5934 17.8406L19.3828 17.8447L19.1721 17.8488L19.3115 17.9161ZM4.68883 18.397C4.61617 18.6119 4.53966 18.8912 4.5189 19.0176C4.49808 19.144 4.40111 19.4166 4.30335 19.6234C4.20559 19.8303 4.13983 20.0225 4.15717 20.0506C4.19918 20.1186 5.4474 20.1167 5.48941 20.0486C5.50748 20.0194 5.39696 19.655 5.24388 19.2389C5.0908 18.8227 4.93302 18.3751 4.89327 18.2442L4.82103 18.0061L4.68883 18.397ZM22.0773 20.6262C22.0803 20.6974 22.0947 20.7119 22.1142 20.6632C22.1319 20.6191 22.1297 20.5663 22.1094 20.546C22.0891 20.5257 22.0747 20.5618 22.0773 20.6262ZM34.207 21.3356C34.1658 21.3617 34.297 21.3831 34.4985 21.3831H34.8649L34.7733 21.3234C34.6698 21.256 34.3204 21.2634 34.207 21.3356ZM3.3315 22.5818C3.33443 22.653 3.3489 22.6674 3.36838 22.6187C3.38603 22.5746 3.38383 22.5219 3.36356 22.5016C3.34328 22.4813 3.32887 22.5173 3.3315 22.5818ZM17.7868 23.1379C17.8308 23.1555 17.8835 23.1533 17.9038 23.133C17.9241 23.1128 17.888 23.0983 17.8237 23.101C17.7525 23.1039 17.7381 23.1184 17.7868 23.1379ZM8.01313 23.7477C8.05514 23.7647 8.12384 23.7647 8.16579 23.7477C8.2078 23.7308 8.17342 23.7169 8.08946 23.7169C8.0055 23.7169 7.97118 23.7308 8.01313 23.7477ZM32.7735 24.1805C32.4629 24.1917 32.2087 24.2219 32.2087 24.2478C32.2087 24.2738 32.2433 24.3424 32.2856 24.4003L32.3626 24.5057L34.6823 24.4431C35.9582 24.4088 37.5142 24.3804 38.1404 24.3801L39.2787 24.3795L39.3111 24.295C39.3338 24.236 39.276 24.1994 39.1192 24.1735C38.8959 24.1365 33.8492 24.1422 32.7735 24.1805ZM9.31575 24.3356C9.2859 24.4141 9.22587 24.6906 9.18234 24.9501L9.10314 25.4217L9.17495 25.9148C9.31801 26.8973 9.96514 27.8348 10.8087 28.2816C11.8886 28.8537 12.4164 29.6423 12.6351 31.01L12.7328 31.6211L12.9514 32.07C13.3664 32.9222 14.2395 33.6086 15.135 33.7864C16.7086 34.0989 16.9198 34.1881 17.5258 34.7957C17.7621 35.0328 18.0734 35.4276 18.2175 35.6731C18.6841 36.4685 19.398 37.0358 20.2021 37.25C20.6939 37.3811 21.4155 37.355 22.2007 37.1779L22.8968 37.0209L23.2632 37.0561C23.7993 37.1077 24.3514 37.3117 24.8117 37.6284C25.0347 37.7819 25.3271 37.9816 25.4614 38.0722C25.5957 38.1629 25.9065 38.309 26.152 38.3971L26.5983 38.5572H27.1683H27.7383L28.1476 38.4307C28.3726 38.3611 28.5655 38.313 28.5761 38.3238C28.5868 38.3345 28.4033 38.4396 28.1686 38.5572L27.7417 38.7711L27.889 38.7894C28.0817 38.8135 28.6195 38.5989 28.9694 38.3584C29.778 37.8026 29.9728 37.683 30.2973 37.5432L30.6516 37.3905L30.3963 37.4175C30.2558 37.4323 29.981 37.516 29.7857 37.6035L29.4304 37.7624L29.5824 37.634C29.8636 37.3965 30.3359 37.1993 30.8313 37.1127C31.3701 37.0185 31.6127 37.036 32.3919 37.2252C33.0317 37.3806 33.7088 37.3899 34.1844 37.2498C34.3812 37.1918 34.5521 37.1544 34.5643 37.1666C34.5765 37.1789 34.4317 37.2699 34.2425 37.3689C33.8583 37.57 33.9314 37.643 34.3886 37.5149C35.0192 37.3382 35.7456 36.692 36.2289 35.8777C36.6784 35.1206 37.4142 34.5211 38.1476 34.3146C38.3236 34.265 38.7285 34.1812 39.0476 34.1283C39.7862 34.0059 40.2933 33.7566 40.7915 33.2711C41.3604 32.7168 41.5864 32.2058 41.8271 30.9291C42.0108 29.9547 42.3971 29.3606 43.1801 28.8484C44.0121 28.304 44.201 28.1566 44.4582 27.8511C44.8232 27.4175 45.0357 26.9913 45.0746 26.615L45.1084 26.2867L44.9718 25.8372C44.8966 25.59 44.7879 25.1403 44.7301 24.8378L44.6251 24.2878H43.8083H42.9914L42.7605 25.0991C42.0858 27.4696 41.0166 29.1497 38.746 31.4072C37.2916 32.8532 35.0041 34.2949 32.9759 35.0437C32.2689 35.3048 30.7807 35.6925 29.9494 35.8323C28.108 36.1419 25.891 36.121 24.072 35.777C18.2505 34.676 13.3716 30.4815 11.3834 24.8683L11.1561 24.2267L10.263 24.2098L9.36998 24.1928L9.31575 24.3356ZM31.0302 24.2633C31.1161 24.3493 31.4919 24.3504 31.6384 24.2652L31.7507 24.1999L31.3569 24.198L30.963 24.1961L31.0302 24.2633ZM28.4839 24.2986C28.2992 24.3089 27.365 24.3597 26.4079 24.4114C24.7607 24.5004 21.66 24.7234 21.4619 24.7671C21.4115 24.7782 20.6834 24.7527 19.8438 24.7104C19.0042 24.6681 17.5273 24.6135 16.5617 24.5889L14.8062 24.5444V24.6125C14.8062 24.7425 15.0447 24.8072 15.5196 24.8062C16.2769 24.8046 19.0823 24.948 19.0442 24.9864C19.0252 25.0055 18.7715 25.0513 18.4803 25.0881L17.9509 25.1551L16.8212 25.0746C16.1999 25.0304 15.5313 24.9933 15.3354 24.9923L14.9792 24.9906L15.0042 25.067C15.0361 25.1645 15.3017 25.2198 16.0274 25.2801L16.6075 25.3283L15.9744 25.4315C15.6261 25.4883 15.3274 25.5486 15.3106 25.5654C15.2778 25.5982 15.5701 26.126 15.6475 26.1739C15.6728 26.1895 15.8198 26.1788 15.9739 26.1499C16.3399 26.0815 18.9184 25.702 20.088 25.5444C21.3351 25.3764 23.4547 25.1422 24.8203 25.0214L25.9499 24.9216L26.1719 24.8033C26.4327 24.6644 26.5757 24.6545 26.7083 24.7663L26.8048 24.8476L27.9274 24.7642L29.05 24.6807L29.3165 24.4892C29.4631 24.3839 29.583 24.2885 29.583 24.2774C29.583 24.2564 29.0596 24.2665 28.4839 24.2986ZM29.5895 24.4337L29.2602 24.6043L29.1316 24.9375C29.0024 25.2724 28.8622 25.4246 28.1336 26.0218L27.8139 26.284L27.6355 26.2448C27.3596 26.1841 27.0185 25.8622 27.0185 25.6625C27.0185 25.5701 26.9773 25.4602 26.9269 25.4183C26.8765 25.3765 26.8353 25.2674 26.8353 25.1759C26.8353 24.9796 26.6672 24.8072 26.4758 24.8072C26.14 24.8072 25.6042 25.4869 25.6211 25.8913L25.6282 26.06L25.6551 25.9378C25.7254 25.6178 25.8355 25.4281 26.0894 25.1892C26.2412 25.0464 26.3982 24.9295 26.4383 24.9295C26.5587 24.9295 26.7132 25.1426 26.7132 25.3087C26.7132 25.3944 26.7541 25.4985 26.8041 25.5401C26.858 25.5848 26.8816 25.6699 26.8618 25.7485L26.8285 25.8814L27.0457 26.0792C27.2823 26.2946 27.4973 26.3961 27.7173 26.3961C27.8062 26.3961 28.0831 26.2043 28.4636 25.8791L29.0687 25.3622L29.1785 25.0564L29.2884 24.7506L29.568 24.5942L29.8476 24.4378L30.2923 24.4239C30.5369 24.4163 30.7654 24.4384 30.8001 24.4731C30.8434 24.5164 30.7294 24.5286 30.4357 24.512C30.0315 24.4891 29.6441 24.5739 29.6441 24.6853C29.6441 24.7109 29.5938 24.745 29.5323 24.7612C29.4612 24.7797 29.3915 24.894 29.3411 25.0742L29.2617 25.358L28.9309 25.6479C28.749 25.8073 28.4573 26.0697 28.2826 26.231L27.9649 26.5243L27.7295 26.489C27.4294 26.444 27.2058 26.3275 26.924 26.069L26.6995 25.8632L26.7392 25.7379C26.7638 25.6604 26.7327 25.5363 26.6577 25.4128C26.5909 25.303 26.5491 25.1924 26.5647 25.1672C26.5803 25.1419 26.5657 25.1044 26.5323 25.0836C26.4543 25.0354 26.1026 25.2937 26.1026 25.3993C26.1026 25.4434 26.0645 25.4795 26.0181 25.4795C25.8397 25.4795 25.803 25.9955 25.9749 26.0876C26.0521 26.1289 26.0806 26.1918 26.0594 26.2731L26.0273 26.3961H26.1494C26.2939 26.3961 26.3545 26.5722 26.2913 26.8087C26.2632 26.9137 26.164 27.0188 26.022 27.0936C25.8984 27.1588 25.7972 27.2485 25.7972 27.293C25.7972 27.3375 25.7456 27.3739 25.6826 27.3739C25.6196 27.3739 25.5327 27.4164 25.4896 27.4684C25.4466 27.5203 25.3794 27.5505 25.3404 27.5355C25.2561 27.5032 25.1061 27.7208 25.1565 27.8024C25.1758 27.8336 25.1218 27.8767 25.0365 27.8982C24.9511 27.9196 24.8813 27.9609 24.8813 27.9899C24.8813 28.0189 24.7708 28.0333 24.6357 28.0219C24.5007 28.0104 24.3754 28.0249 24.3574 28.0541C24.3393 28.0833 24.2636 28.1072 24.1891 28.1072C24.1146 28.1072 23.9994 28.1452 23.9332 28.1916C23.867 28.2381 23.7094 28.2678 23.5831 28.2577C23.432 28.2457 23.3193 28.2738 23.2534 28.3397C23.1171 28.476 22.8763 28.5961 22.7391 28.5961C22.6636 28.5961 22.6376 28.6266 22.661 28.6878L22.6962 28.7795H22.537H22.3778V28.9017C22.3778 28.9807 22.3371 29.0239 22.2627 29.0239H22.1476L22.049 29.3257C21.9948 29.4916 21.9504 29.692 21.9504 29.7708C21.9504 29.9346 22.1679 30.0859 22.4999 30.153C22.6175 30.1768 22.8198 30.2649 22.9496 30.3489L23.1856 30.5016L23.8045 30.4612C24.1449 30.439 24.6617 30.4155 24.9531 30.4087L25.4827 30.3966L25.6139 30.2297C25.6861 30.1379 25.7855 30.0628 25.8349 30.0628C25.8843 30.0628 26.092 30.0146 26.2965 29.9558L26.6684 29.8489L26.8217 29.6187C26.9117 29.4835 27.0407 29.3746 27.1341 29.3547C27.4289 29.2922 27.806 29.1388 28.0167 28.9957C28.2345 28.8478 28.6639 28.763 28.7925 28.8426C28.8352 28.869 28.852 28.9499 28.8319 29.0326C28.8082 29.1304 28.8424 29.2328 28.9381 29.3513L29.0791 29.5259L29.2034 29.4864C29.4998 29.3923 29.9166 28.8511 29.8754 28.614C29.8647 28.5522 29.9559 28.4461 30.1092 28.342C30.2831 28.2239 30.4013 28.0765 30.4926 27.8642C30.5651 27.6954 30.6528 27.5572 30.6875 27.5572C30.7221 27.5572 30.7322 27.5277 30.7098 27.4914C30.6875 27.4552 30.727 27.3717 30.7978 27.3057C30.8685 27.2398 30.9264 27.1301 30.9264 27.0619C30.9264 26.9939 30.9539 26.8865 30.9876 26.8236C31.0256 26.7526 31.027 26.6956 30.9912 26.6735C30.911 26.6238 31.0275 26.3119 31.1768 26.1767L31.2973 26.0675L31.0966 25.8962L30.8959 25.7248L30.9611 25.6215C30.9969 25.5646 31.0656 25.4989 31.1137 25.4754C31.1618 25.4518 31.2785 25.3962 31.3731 25.3519C31.4807 25.3014 31.5576 25.2084 31.5785 25.1036C31.6 24.9961 31.6567 24.9295 31.7369 24.9175C31.8645 24.8985 31.9359 24.7123 31.8386 24.6521C31.809 24.6338 31.7147 24.6647 31.6291 24.7209L31.4735 24.8229L31.1962 24.7169C31.0438 24.6587 30.9309 24.5991 30.9453 24.5846C30.9598 24.5701 31.0439 24.5912 31.1322 24.6314L31.2927 24.7046L31.535 24.6246L31.7773 24.5445L31.8709 24.6223C31.9223 24.665 31.9644 24.7532 31.9644 24.8183C31.9644 24.9771 31.6263 25.3896 31.3742 25.5385C31.1539 25.6685 31.1179 25.7873 31.2622 25.9072C31.3948 26.0173 31.3746 26.2524 31.2236 26.3583L31.0933 26.4496L31.1294 26.5875C31.1874 26.8094 31.0005 27.3224 30.6761 27.8322C30.5906 27.9667 30.5032 28.1237 30.4821 28.1812C30.4609 28.2387 30.3465 28.3487 30.2278 28.4256L30.012 28.5656L30.0112 28.7512L30.0105 28.9369L29.7114 29.2556C29.5216 29.4581 29.3428 29.5884 29.2217 29.6126C28.9968 29.6576 28.9089 29.7572 29.094 29.7572C29.3091 29.7572 29.5565 29.5935 29.8517 29.2558C30.0413 29.0388 30.1326 28.8791 30.1326 28.7643V28.5944L30.3249 28.4773C30.431 28.4127 30.584 28.2282 30.6661 28.0657C30.748 27.9037 30.8538 27.7491 30.9012 27.7222C30.9486 27.6953 30.9875 27.6366 30.9875 27.5918C30.9875 27.5468 31.0285 27.4313 31.0787 27.335C31.1288 27.2388 31.17 27.1135 31.1703 27.0567C31.1705 26.9998 31.1981 26.9363 31.2317 26.9156C31.2653 26.8948 31.2928 26.7781 31.2928 26.6562C31.2928 26.5108 31.3398 26.3845 31.4294 26.289L31.566 26.1435L31.4344 25.9031C31.3621 25.771 31.3274 25.6628 31.3575 25.6628C31.3875 25.6628 31.5638 25.5157 31.7493 25.3359L32.0866 25.009V24.7873V24.5656L31.934 24.4656L31.7814 24.3655L31.5744 24.4638L31.3674 24.5621L31.0231 24.4097L30.6787 24.2572L30.2987 24.2601L29.9189 24.263L29.5895 24.4337ZM0.0904253 24.5647C0.0904253 24.5973 0.131642 24.6239 0.182017 24.6239C0.232393 24.6239 0.273609 24.6131 0.273609 24.5999C0.273609 24.5867 0.232393 24.56 0.182017 24.5407C0.131642 24.5214 0.0904253 24.5322 0.0904253 24.5647ZM37.521 24.571C35.3662 24.6293 32.5663 24.7467 32.4377 24.7843C32.2879 24.828 32.2928 25.1128 32.4432 25.1128C32.5051 25.1128 33.144 25.0727 33.8629 25.0237C35.8328 24.8895 38.57 24.7723 39.014 24.8032C39.0505 24.8057 39.0504 24.8289 39.0137 24.8655C38.9817 24.8976 38.1587 24.9812 37.1849 25.0511C35.2994 25.1867 33.7924 25.3105 32.6133 25.4268L31.8884 25.4983L31.7279 25.6365C31.6397 25.7124 31.5862 25.7933 31.6089 25.8161C31.6316 25.8389 32.6208 25.7593 33.8071 25.6393C36.3897 25.3779 38.6077 25.2023 38.6604 25.2549C38.7618 25.3564 38.5207 25.4673 38.1153 25.5055C36.7629 25.633 33.2647 26.0504 32.1054 26.2225L31.6663 26.2877L31.6019 26.4726L31.5374 26.6576L31.8578 26.6219C32.034 26.6023 32.7277 26.5039 33.3994 26.4033C34.0711 26.3027 34.8404 26.1921 35.1091 26.1577C38.6499 25.7033 38.4972 25.7117 38.2917 25.9825L38.2114 26.0883L36.0191 26.425C32.5445 26.9585 31.3952 27.1633 31.3394 27.2584C31.3121 27.3052 31.1968 27.5005 31.0833 27.6925L30.877 28.0416L30.978 28.0704C31.0336 28.0862 31.3126 28.1447 31.5981 28.2004C31.8835 28.256 32.9229 28.4778 33.9076 28.6933C34.8924 28.9087 35.7454 29.085 35.8031 29.085C35.8608 29.085 36.0273 28.9633 36.1732 28.8146L36.4384 28.5442L36.2012 28.4804C35.8558 28.3874 32.357 27.6952 31.9797 27.6451C31.8034 27.6218 31.6591 27.5824 31.6591 27.5578C31.6591 27.5332 31.9408 27.4655 32.285 27.4075L32.9109 27.302L34.01 27.492C34.6145 27.5966 35.5213 27.7608 36.025 27.8569C36.5288 27.953 36.9684 28.0167 37.002 27.9985C37.0356 27.9802 36.9964 28.0385 36.9151 28.128L36.767 28.2906H36.8629C36.9972 28.2906 37.3534 27.8693 37.3115 27.7601C37.2927 27.7109 37.3041 27.6204 37.3369 27.5589L37.3966 27.4472L37.3215 27.4194C37.2801 27.4041 36.7173 27.2983 36.0708 27.1843C35.4244 27.0703 34.8954 26.9623 34.8954 26.9442C34.8954 26.9261 35.172 26.8685 35.5101 26.8163L36.1248 26.7212L36.8992 26.8721C37.3252 26.9552 37.6845 27.0326 37.6977 27.0443C37.7108 27.0559 37.6863 27.1079 37.6431 27.16C37.5519 27.27 37.598 27.3432 37.7273 27.2935C37.8886 27.2316 38.3148 26.5376 38.3148 26.3369V26.1486L38.4592 26.0937C38.6168 26.0337 38.6812 25.9163 38.6812 25.6883C38.6812 25.6061 38.7172 25.5406 38.7625 25.5406C38.8072 25.5406 38.8791 25.465 38.9223 25.3725C38.9654 25.2801 39.0274 25.1529 39.06 25.0898C39.1322 24.9501 39.1727 24.5689 39.1178 24.5457C39.096 24.5365 38.3774 24.5479 37.521 24.571ZM40.5511 24.9295C40.5306 24.9799 40.4631 25.1724 40.401 25.3572L40.2882 25.6933L39.8053 25.7239L39.3223 25.7545L39.704 26.0164C39.9139 26.1605 40.0856 26.2883 40.0856 26.3003C40.0856 26.3123 40.0287 26.5064 39.9592 26.7317C39.8897 26.9569 39.8418 27.1503 39.8529 27.1614C39.8639 27.1724 40.0351 27.06 40.2333 26.9117C40.4485 26.7506 40.6204 26.6618 40.6602 26.6914C40.6968 26.7186 40.8573 26.8454 41.0168 26.9731L41.3068 27.2053V27.1053C41.3068 27.0504 41.2611 26.8408 41.2052 26.6395C41.1493 26.4383 41.1149 26.2651 41.1288 26.2547C41.1428 26.2443 41.3048 26.1275 41.4889 25.9951L41.8237 25.7545L41.3558 25.7367L40.8879 25.7189L40.7381 25.2783C40.6469 25.01 40.5738 24.8736 40.5511 24.9295ZM13.5946 25.3114L13.4778 25.6933L12.9971 25.7239L12.5164 25.7545L12.9026 26.0195C13.1149 26.1653 13.2769 26.3166 13.2625 26.3556C13.1292 26.7182 13.0289 27.0822 13.0551 27.1084C13.0727 27.126 13.2387 27.0259 13.424 26.886L13.7608 26.6315L13.9477 26.7697C14.0504 26.8458 14.1345 26.9259 14.1345 26.9478C14.1345 26.9934 14.4451 27.1445 14.4758 27.1139C14.4869 27.1028 14.4406 26.9161 14.373 26.699L14.2502 26.3045L14.4044 26.1822C14.4893 26.115 14.6479 25.9913 14.757 25.9072L14.9552 25.7545L14.5022 25.7239L14.0493 25.6933L13.9275 25.3114C13.8605 25.1014 13.7845 24.9295 13.7586 24.9295C13.7327 24.9295 13.6589 25.1014 13.5946 25.3114ZM27.8733 25.0761L27.1101 25.1434L27.1272 25.354C27.1366 25.4699 27.153 25.5733 27.1636 25.584C27.1851 25.6055 28.3799 25.4903 28.5847 25.4469C28.6642 25.4301 28.7425 25.343 28.7831 25.2263C28.8684 24.9815 28.8697 24.9889 28.7435 24.9997C28.6847 25.0047 28.2931 25.0392 27.8733 25.0761ZM24.3928 25.3958C22.3101 25.6241 19.4731 26.0079 17.8287 26.2839C16.8212 26.4529 15.9865 26.6013 15.9738 26.6136C15.9427 26.6436 16.3348 27.2517 16.3849 27.2514C16.4066 27.2512 16.7815 27.1818 17.2181 27.0973C19.2018 26.7133 22.1049 26.2452 24.2097 25.9702C24.7302 25.9022 25.2322 25.8304 25.3254 25.8106L25.4946 25.7747L25.5849 25.5585C25.6345 25.4396 25.6751 25.3319 25.6751 25.3192C25.6751 25.2796 25.1868 25.3088 24.3928 25.3958ZM27.6434 25.9505C27.5674 25.9651 27.5209 26.0026 27.5402 26.0338C27.5935 26.1202 27.8355 26.1016 27.9685 26.0009L28.087 25.9111L27.9344 25.9175C27.8504 25.921 27.7195 25.9358 27.6434 25.9505ZM24.2097 26.4039C21.572 26.8103 17.5009 27.5538 16.9521 27.7294L16.8082 27.7755L17.0742 28.0687L17.3403 28.3619L19.4774 27.9034C22.0846 27.3441 22.6612 27.2316 24.9958 26.8272C25.3777 26.7611 25.703 26.6942 25.7186 26.6786C25.7342 26.6629 25.6844 26.5655 25.608 26.4621L25.469 26.2739L25.2209 26.2801C25.0845 26.2836 24.6294 26.3392 24.2097 26.4039ZM25.7972 26.3656C25.7972 26.416 25.8239 26.4572 25.8564 26.4572C25.8889 26.4572 25.8997 26.416 25.8804 26.3656C25.8611 26.3152 25.8344 26.2739 25.8212 26.2739C25.8081 26.2739 25.7972 26.3152 25.7972 26.3656ZM41.2152 26.3961C41.1945 26.4297 41.205 26.4572 41.2386 26.4572C41.2721 26.4572 41.3166 26.4297 41.3374 26.3961C41.3581 26.3625 41.3476 26.335 41.314 26.335C41.2804 26.335 41.236 26.3625 41.2152 26.3961ZM26.0008 26.6738C26.0008 26.7228 26.0237 26.7628 26.0517 26.7628C26.0797 26.7628 26.1026 26.7369 26.1026 26.7053C26.1026 26.6736 26.0797 26.6336 26.0517 26.6163C26.0237 26.599 26.0008 26.6249 26.0008 26.6738ZM25.6263 26.8972C25.586 26.9376 25.553 27.0058 25.553 27.0488C25.553 27.0918 25.4481 27.1805 25.3199 27.246C25.1918 27.3114 25.0519 27.4072 25.0091 27.4588C24.9401 27.542 24.3933 27.7798 24.1486 27.833C24.0982 27.8439 23.9528 27.8973 23.8253 27.9515C23.6979 28.0057 23.5652 28.0324 23.5305 28.0109C23.4441 27.9575 22.946 28.1028 22.86 28.2065C22.8217 28.2527 22.7369 28.2906 22.6716 28.2906C22.4897 28.2906 21.9004 28.9329 21.8537 29.1822C21.8321 29.2976 21.79 29.407 21.7603 29.4254C21.6853 29.4718 21.6939 29.9508 21.7717 30.0628L21.8355 30.1545L21.7974 29.903C21.7384 29.5138 21.905 29.0909 22.245 28.7671C22.612 28.4176 23.2953 28.0871 23.5261 28.1475C23.5934 28.1652 23.7405 28.1394 23.8527 28.0904C23.9651 28.0413 24.2212 27.9494 24.4219 27.8861C24.6226 27.8229 24.8699 27.6995 24.9715 27.6119C25.073 27.5244 25.2526 27.4074 25.3707 27.3521C25.4886 27.2968 25.6123 27.1898 25.6454 27.1144C25.6785 27.0391 25.7606 26.9677 25.8278 26.9558C26.04 26.9184 26.0794 26.8239 25.8827 26.8239C25.782 26.8239 25.6666 26.8569 25.6263 26.8972ZM23.2327 27.6764C22.0433 27.9237 20.2481 28.3239 18.7908 28.6666C18.3123 28.7791 17.9294 28.897 17.9398 28.9287C17.9502 28.9603 18.0862 29.0944 18.2421 29.2266L18.5254 29.467L20.2227 29.0493C21.175 28.8149 21.9735 28.5865 22.042 28.5288C22.2761 28.3318 22.904 28.0572 23.6914 27.8075C24.1276 27.6692 24.5256 27.5292 24.576 27.4964L24.6676 27.4369L24.515 27.4392C24.431 27.4405 23.854 27.5472 23.2327 27.6764ZM15.2611 28.0003L15.1366 28.3211L14.7882 28.2999C14.3862 28.2753 14.3443 28.3437 14.6467 28.5308C14.7605 28.6011 14.8839 28.6953 14.921 28.7401L14.9885 28.8214L14.8932 29.1426C14.8408 29.3192 14.8075 29.4734 14.8193 29.4852C14.8311 29.4969 14.9604 29.4117 15.1068 29.2958C15.2532 29.1799 15.3954 29.085 15.4228 29.085C15.4502 29.085 15.5494 29.1813 15.6432 29.2989C15.737 29.4165 15.8648 29.5128 15.9271 29.5128H16.0405L16.0023 29.4132C15.9339 29.2347 15.828 28.7752 15.8517 28.7593C15.8644 28.7509 15.9847 28.6626 16.119 28.5631L16.3633 28.3822L16.0016 28.3517L15.6399 28.3211L15.5511 28.0003C15.5022 27.8238 15.445 27.6795 15.4238 27.6795C15.4027 27.6795 15.3294 27.8238 15.2611 28.0003ZM38.9792 27.9697L38.8894 28.26L38.5563 28.2788C38.3731 28.2891 38.1995 28.3212 38.1704 28.35C38.1409 28.3793 38.226 28.4709 38.3637 28.5579C38.4991 28.6434 38.6256 28.7388 38.6447 28.7699C38.6639 28.801 38.6398 28.9589 38.5911 29.1209C38.5423 29.2829 38.5133 29.4263 38.5265 29.4395C38.5397 29.4527 38.6774 29.3761 38.8326 29.2693L39.1146 29.075L39.2185 29.1546C39.2756 29.1983 39.3715 29.2831 39.4316 29.3429C39.4917 29.4027 39.5795 29.4517 39.6268 29.4517H39.7129L39.6459 29.2594L39.5789 29.0671L39.6482 28.9561L39.7175 28.8451L39.6267 28.8799C39.4396 28.9518 39.5483 28.7436 39.7826 28.5815C39.9157 28.4893 40.0245 28.3905 40.0245 28.3619C40.0245 28.3333 39.8835 28.3049 39.7111 28.2989C39.5387 28.2928 39.3777 28.2754 39.3531 28.2602C39.3286 28.245 39.2737 28.1082 39.2312 27.956C39.1886 27.8039 39.1348 27.6795 39.1114 27.6795C39.0881 27.6795 39.0286 27.8101 38.9792 27.9697ZM30.4226 28.7848C30.3639 28.8881 30.3158 29.0067 30.3158 29.0482C30.3158 29.0924 30.5123 29.1687 30.789 29.232C31.0493 29.2916 31.9952 29.5194 32.8909 29.7383L34.5196 30.1362L34.796 29.9459C34.948 29.8413 35.0874 29.7312 35.1059 29.7013C35.1244 29.6714 34.7204 29.5463 34.2083 29.4233C33.3741 29.2229 30.5972 28.5955 30.5488 28.5965C30.5382 28.5967 30.4814 28.6814 30.4226 28.7848ZM15.9358 28.9017C15.9151 28.9353 15.9256 28.9628 15.9592 28.9628C15.9927 28.9628 16.0372 28.9353 16.058 28.9017C16.0787 28.8681 16.0682 28.8406 16.0346 28.8406C16.0011 28.8406 15.9566 28.8681 15.9358 28.9017ZM36.1302 28.9968C36.0556 29.0491 35.9945 29.1181 35.9945 29.1501C35.9945 29.2264 36.2276 29.0799 36.2661 28.9794C36.3041 28.8804 36.2945 28.8817 36.1302 28.9968ZM28.2397 29.0535C27.9111 29.2451 27.3069 29.5128 27.2033 29.5128C27.1433 29.5128 26.9906 29.6395 26.8638 29.7943L26.6334 30.0757L26.4328 30.0432C26.3002 30.0216 26.2077 30.0402 26.1599 30.0978C26.1201 30.1458 26.0078 30.185 25.9104 30.185H25.7331L25.6774 30.3319C25.6467 30.4126 25.591 30.4977 25.5535 30.5208C25.4761 30.5687 24.3861 30.6163 23.5699 30.6073L23.0218 30.6014L22.8656 30.4901C22.7798 30.4289 22.6006 30.3591 22.4673 30.335C22.3342 30.3109 22.1737 30.2645 22.1109 30.232C22.0318 30.191 22.0092 30.193 22.0372 30.2384C22.0595 30.2745 22.2096 30.3432 22.3708 30.3911C22.532 30.439 22.7712 30.5322 22.9025 30.5982C23.1951 30.7453 24.0276 30.8193 24.2625 30.7191C24.3509 30.6814 24.6894 30.6488 25.0146 30.6469L25.6059 30.6433L25.7831 30.4735C25.9034 30.3583 26.0784 30.2795 26.3279 30.2286C26.7329 30.1459 26.8603 30.0654 26.9936 29.8075C27.0437 29.7105 27.1332 29.635 27.1982 29.635C27.3535 29.635 27.8212 29.4304 28.1013 29.2399C28.3501 29.0707 28.5177 29.0424 28.5656 29.1614C28.5826 29.2034 28.5986 29.1759 28.6012 29.1003C28.6069 28.938 28.4686 28.9201 28.2397 29.0535ZM28.7038 29.4456C28.7557 29.5498 28.8073 29.635 28.8186 29.635C28.8683 29.635 28.7678 29.3877 28.6927 29.3253L28.6093 29.2561L28.7038 29.4456ZM20.3017 29.6148C19.7476 29.7667 19.2719 29.9121 19.2446 29.9379C19.2174 29.9637 19.3517 30.0889 19.5432 30.2161L19.8914 30.4474L20.6614 30.2364L21.4314 30.0254L21.4497 29.6775L21.468 29.3295L21.3886 29.334C21.345 29.3365 20.8559 29.4629 20.3017 29.6148ZM17.0044 30.0996V30.4049L16.7907 30.4823C16.5124 30.583 16.5202 30.6535 16.8152 30.7034L17.0535 30.7437L17.0892 30.8768C17.1088 30.9501 17.1253 31.0719 17.1257 31.1475C17.1269 31.345 17.2036 31.3171 17.336 31.0711C17.456 30.8482 17.4815 30.8333 17.6401 30.8941C17.7067 30.9197 17.725 30.976 17.6995 31.0775L17.6628 31.2239H17.7818C17.849 31.2239 17.9306 31.1583 17.9693 31.0732L18.0379 30.9226L17.9639 30.8421C17.9231 30.798 17.8406 30.7042 17.7804 30.6339L17.6711 30.506L17.8033 30.2818C17.876 30.1585 17.9217 30.0438 17.9049 30.027C17.8882 30.0102 17.7746 30.0441 17.6526 30.1023L17.4309 30.2081L17.2176 30.0012L17.0044 29.7944V30.0996ZM37.0645 30.0111L36.9025 30.2038L36.6907 30.1028C36.3781 29.9536 36.3344 29.9774 36.4769 30.219C36.6386 30.4933 36.638 30.5031 36.4449 30.7329C36.3567 30.8377 36.2967 30.9356 36.3115 30.9504C36.3263 30.9652 36.4326 30.9503 36.5477 30.9173C36.855 30.8291 36.8782 30.8371 36.9897 31.0711C37.1255 31.3562 37.2047 31.3409 37.2275 31.0253L37.2462 30.7656L37.5058 30.7111C37.6485 30.681 37.7653 30.6359 37.7653 30.6107C37.7653 30.5855 37.6537 30.5203 37.5174 30.4657L37.2696 30.3664L37.3107 30.0924C37.3599 29.7636 37.2916 29.741 37.0645 30.0111ZM20.7597 30.4295L20.6376 30.4819L20.7597 30.4853C20.8269 30.4872 20.923 30.462 20.9734 30.4295L21.065 30.3702L20.9734 30.3736C20.923 30.3754 20.8269 30.4005 20.7597 30.4295ZM37.3659 30.9224C37.3437 30.9582 37.34 31.002 37.3577 31.0197C37.4056 31.0676 37.6431 30.9799 37.6431 30.9142C37.6431 30.8355 37.4153 30.8423 37.3659 30.9224ZM18.8973 31.6343V31.8841L18.6989 31.9567L18.5004 32.0293L18.6225 32.0799C18.6897 32.1076 18.7928 32.1455 18.8515 32.1641C18.9118 32.1831 18.9588 32.2586 18.9593 32.3373C18.9598 32.4139 18.9845 32.515 19.0142 32.562L19.0682 32.6472L19.1675 32.455C19.3014 32.1958 19.5208 32.2073 19.5832 32.4767L19.6114 32.5989L19.6754 32.4461L19.7394 32.2933L19.5877 32.1315L19.4359 31.9696L19.5413 31.8087C19.6715 31.6098 19.6206 31.5474 19.4076 31.6445L19.2457 31.7184L19.0715 31.5514L18.8973 31.3844V31.6343ZM35.2072 31.5656L35.0828 31.7238L34.8876 31.6264C34.643 31.5043 34.6168 31.5301 34.7409 31.7703L34.8396 31.9614L34.7058 32.1496L34.5719 32.3377L34.81 32.2984L35.048 32.2591L35.1679 32.4596L35.2878 32.66L35.3107 32.4767C35.3408 32.2357 35.407 32.1638 35.6447 32.1138L35.8418 32.0722L35.6106 31.951L35.3794 31.8297L35.4189 31.6185C35.4667 31.3635 35.3826 31.3425 35.2072 31.5656ZM29.8319 32.2093C29.5154 32.2729 29.2423 32.339 29.225 32.3563C29.1925 32.3889 29.3287 33.4486 29.3839 33.5927C29.4049 33.6476 29.4715 33.6623 29.5851 33.6374C29.6784 33.6168 29.92 33.5894 30.1221 33.5764C30.5065 33.5516 30.5707 33.5832 30.648 33.8354L30.6897 33.9719L30.5277 34.1341L30.3656 34.2963L29.9186 34.2624L29.4716 34.2285L29.4323 34.385C29.4108 34.4712 29.4206 34.5691 29.4543 34.6028C29.548 34.6966 30.3956 34.7342 30.5502 34.6514C30.7043 34.5688 30.7358 34.6711 30.5827 34.7568C30.4077 34.8549 30.5882 34.8855 30.7834 34.7909C31.0131 34.6795 31.0912 34.5184 31.1398 34.0553L31.1772 33.6989L31.0671 33.4902C31.0065 33.3754 30.8608 33.2297 30.7432 33.1665L30.5295 33.0515L30.1173 33.0911L29.7052 33.1307V32.9148V32.6988L29.812 32.6695C29.8708 32.6534 30.1047 32.6071 30.3318 32.5667C30.5589 32.5262 30.759 32.4701 30.7764 32.4418C30.7938 32.4137 30.7905 32.3206 30.769 32.235L30.73 32.0794L30.5687 32.0865C30.48 32.0905 30.1484 32.1456 29.8319 32.2093ZM23.9349 32.1832C23.8677 32.1977 23.7235 32.2375 23.6143 32.2715L23.4159 32.3334L23.4168 32.4662C23.4173 32.5391 23.4411 32.6357 23.4696 32.6807L23.5214 32.7626L23.8314 32.6524L24.1413 32.5422L24.3586 32.646L24.576 32.7497V32.8915C24.576 33.0682 24.3349 33.2999 23.6453 33.7861C23.2829 34.0417 23.0989 34.2128 23.0723 34.3192C23.0209 34.5238 23.0727 34.5506 23.7014 34.6442C23.9886 34.687 24.3561 34.757 24.5182 34.7997C24.6803 34.8425 24.8283 34.8621 24.8471 34.8433C24.8659 34.8245 24.8813 34.7218 24.8813 34.6151V34.4212L24.326 34.304L23.7706 34.1867L24.2006 33.8927C24.4371 33.731 24.7282 33.4905 24.8476 33.3583L25.0645 33.118V32.8873C25.0645 32.6202 24.9427 32.419 24.7097 32.3015C24.5212 32.2064 24.1141 32.1442 23.9349 32.1832ZM25.7539 32.5662C25.6461 32.632 25.496 32.8037 25.4202 32.9479L25.2825 33.21L25.2804 33.7906L25.2782 34.3711L25.4162 34.5931C25.5653 34.8332 25.7435 34.9253 26.148 34.9715L26.4072 35.001L26.6059 34.8694C26.7153 34.7969 26.8731 34.6002 26.9568 34.4322L27.1088 34.1267L27.1088 33.6378V33.1489L26.9843 32.9101C26.7585 32.4772 26.1695 32.3126 25.7539 32.5662ZM27.5986 32.5596C27.4642 32.6243 27.3042 32.7157 27.2429 32.7628L27.1316 32.8483L27.207 33.0139C27.2823 33.1794 27.4074 33.2301 27.4741 33.1222C27.536 33.0219 27.8861 32.8739 28.0615 32.8739C28.2461 32.8739 28.4229 33.0125 28.4229 33.1573C28.4229 33.3067 28.3091 33.478 27.8015 34.0927L27.3193 34.6767L27.3368 34.86C27.3464 34.9608 27.3751 35.0394 27.4006 35.0346C27.426 35.0298 27.7282 35.0081 28.0723 34.9863C28.4162 34.9645 28.8007 34.9316 28.9266 34.9132L29.1556 34.8798V34.6676V34.4554L28.5633 34.4989L27.9708 34.5425L28.2623 34.1818C28.775 33.5473 28.8688 33.3796 28.875 33.0872L28.8808 32.8156L28.7156 32.6502L28.5504 32.4849L28.1966 32.4634L27.8428 32.442L27.5986 32.5596ZM20.9734 32.6865V32.8656L20.8513 32.9044C20.6881 32.9563 20.6963 33.044 20.8665 33.0682L21.0039 33.0878L21.0232 33.2558C21.0462 33.4552 21.1319 33.4758 21.189 33.2956L21.2297 33.1673L21.4069 33.1934C21.6089 33.2231 21.6208 33.198 21.4918 33.0137C21.4334 32.9303 21.4222 32.8679 21.4612 32.8438C21.4952 32.8227 21.523 32.7666 21.523 32.719V32.6325L21.3407 32.669L21.1585 32.7055L21.1204 32.6063C21.059 32.446 20.9734 32.4926 20.9734 32.6865ZM33.1834 32.6016C33.1298 32.6663 33.0505 32.684 32.9317 32.6579C32.7389 32.6155 32.7243 32.6379 32.8319 32.8102L32.9055 32.9282L32.8013 33.0434C32.6541 33.2061 32.6711 33.2427 32.8747 33.2019L33.0523 33.1664L33.122 33.2968C33.2076 33.4569 33.3078 33.4081 33.3078 33.2064V33.0572H33.4604C33.6431 33.0572 33.6627 32.959 33.491 32.9044L33.3689 32.8656V32.6865C33.3689 32.4882 33.3026 32.4578 33.1834 32.6016ZM25.9465 32.9634C25.813 33.097 25.6751 33.5762 25.6751 33.9067C25.6751 34.1584 25.7941 34.4568 25.9218 34.5252C26.35 34.7545 26.6641 34.3706 26.6591 33.6238C26.6569 33.2743 26.5351 32.8861 26.4215 32.8661C26.1772 32.823 26.0635 32.8463 25.9465 32.9634ZM13.8013 32.9308C13.782 32.9621 13.7983 33.0075 13.8377 33.0319C13.8803 33.0583 13.8929 33.0497 13.8688 33.0108C13.8466 32.9748 13.863 32.9315 13.9052 32.9145L13.9819 32.8835L13.9092 32.8787C13.8692 32.8761 13.8206 32.8995 13.8013 32.9308ZM14.6536 33.485C14.6328 33.5186 14.6433 33.5461 14.6769 33.5461C14.7105 33.5461 14.7549 33.5186 14.7757 33.485C14.7964 33.4514 14.7859 33.4239 14.7523 33.4239C14.7188 33.4239 14.6743 33.4514 14.6536 33.485ZM39.4139 33.7336C39.1956 33.7952 38.7706 33.8898 38.4694 33.9438C38.157 33.9998 37.7958 34.1105 37.6287 34.2015C37.2568 34.4041 37.0815 34.5949 37.4314 34.4162C37.5663 34.3473 37.8546 34.2598 38.0721 34.2218C38.915 34.0741 39.0973 34.0257 39.4631 33.8525C39.6712 33.7541 39.8414 33.6586 39.8414 33.6403C39.8414 33.6221 39.8345 33.6105 39.8261 33.6144C39.8177 33.6183 39.6322 33.6719 39.4139 33.7336ZM18.3478 35.7081C18.3478 35.7207 18.3959 35.7689 18.4546 35.815L18.5615 35.8989L18.4777 35.7919C18.3979 35.6901 18.3478 35.6578 18.3478 35.7081ZM18.6937 36.0778C18.6754 36.1257 18.6999 36.1978 18.7483 36.238C18.7967 36.2782 18.8367 36.2871 18.8372 36.2577C18.8377 36.2285 18.8607 36.2401 18.8884 36.2837L18.9387 36.363L19.0071 36.2804L19.0756 36.1978L18.9101 36.2011L18.7447 36.2044L18.7626 36.0975C18.7842 35.9687 18.7404 35.9561 18.6937 36.0778ZM19.2175 36.388C19.175 36.4362 19.0954 36.4579 19.0395 36.4364C18.9716 36.4103 18.9528 36.421 18.9825 36.4691C19.0068 36.5084 19.0643 36.5406 19.1103 36.5406C19.1563 36.5406 19.2302 36.5758 19.2746 36.619C19.618 36.9527 20.2693 37.1999 20.8182 37.2051L21.1821 37.2085L21.0097 37.119C20.9149 37.0697 20.7596 37.0294 20.6647 37.0294C20.5698 37.0294 20.477 37.0051 20.4587 36.9752C20.4403 36.9455 20.328 36.9028 20.2091 36.8805C20.0903 36.8582 20.0073 36.8167 20.0249 36.7883C20.0706 36.7144 19.9256 36.6714 19.6862 36.688C19.4453 36.7047 19.2403 36.5505 19.2991 36.397C19.3461 36.2746 19.3198 36.2717 19.2175 36.388ZM19.6301 36.7861C19.6301 36.8344 19.7799 36.9072 19.8793 36.9072C19.9101 36.9072 19.9354 36.8694 19.9354 36.8232C19.9354 36.7743 19.8715 36.7392 19.7827 36.7392C19.6987 36.7392 19.6301 36.7603 19.6301 36.7861ZM20.0575 36.9613C20.0575 37.0161 20.241 37.1106 20.2772 37.0744C20.2876 37.0639 20.2425 37.0218 20.1769 36.9808C20.1112 36.9397 20.0575 36.931 20.0575 36.9613ZM21.8957 37.4624C21.6501 37.5607 21.7837 37.5785 22.1052 37.4903L22.4083 37.407L22.2252 37.4055C22.1244 37.4045 21.9762 37.4302 21.8957 37.4624Z" fill="black"/>
</svg>
