<svg width="284" height="128" viewBox="0 0 284 128" fill="none" xmlns="http://www.w3.org/2000/svg">
<path d="M1.2017 31V1.90909H13.3324C15.5104 1.90909 17.3333 2.21686 18.8011 2.83239C20.2784 3.44792 21.3864 4.30966 22.125 5.41761C22.8731 6.52557 23.2472 7.80871 23.2472 9.26705C23.2472 10.375 23.0152 11.3646 22.5511 12.2358C22.0871 13.0975 21.4479 13.8125 20.6335 14.3807C19.8191 14.9489 18.8769 15.3466 17.8068 15.5739V15.858C18.9811 15.9148 20.0653 16.232 21.0597 16.8097C22.0634 17.3873 22.8684 18.1922 23.4744 19.2244C24.0805 20.2472 24.3835 21.4593 24.3835 22.8608C24.3835 24.4233 23.9858 25.8201 23.1903 27.0511C22.3949 28.2727 21.2443 29.2386 19.7386 29.9489C18.233 30.6496 16.4053 31 14.2557 31H1.2017ZM8.23295 25.3324H12.5795C14.1042 25.3324 15.2263 25.0436 15.946 24.4659C16.6752 23.8883 17.0398 23.0833 17.0398 22.0511C17.0398 21.303 16.8646 20.6591 16.5142 20.1193C16.1638 19.5701 15.6667 19.1487 15.0227 18.8551C14.3788 18.5521 13.607 18.4006 12.7074 18.4006H8.23295V25.3324ZM8.23295 13.8693H12.125C12.892 13.8693 13.5739 13.7415 14.1705 13.4858C14.767 13.2301 15.2311 12.8608 15.5625 12.3778C15.9034 11.8949 16.0739 11.3125 16.0739 10.6307C16.0739 9.6553 15.7282 8.88826 15.0369 8.32955C14.3456 7.77083 13.4129 7.49148 12.2386 7.49148H8.23295V13.8693ZM37.9631 31.4119C35.6809 31.4119 33.7112 30.9621 32.054 30.0625C30.4063 29.1534 29.1373 27.8608 28.2472 26.1847C27.3665 24.4991 26.9261 22.4962 26.9261 20.1761C26.9261 17.9223 27.3712 15.9527 28.2614 14.267C29.1515 12.572 30.4062 11.2557 32.0256 10.3182C33.6449 9.37121 35.553 8.89773 37.75 8.89773C39.303 8.89773 40.7235 9.1392 42.0114 9.62216C43.2992 10.1051 44.4119 10.8201 45.3494 11.767C46.2869 12.714 47.0161 13.8835 47.5369 15.2756C48.0578 16.6581 48.3182 18.2443 48.3182 20.0341V21.767H29.3551V17.733H41.8551C41.8456 16.9943 41.6705 16.3362 41.3295 15.7585C40.9886 15.1809 40.5199 14.7311 39.9233 14.4091C39.3362 14.0777 38.6591 13.9119 37.892 13.9119C37.1155 13.9119 36.4195 14.0871 35.804 14.4375C35.1884 14.7784 34.7008 15.2472 34.3409 15.8438C33.9811 16.4309 33.7917 17.0985 33.7727 17.8466V21.9517C33.7727 22.8419 33.9479 23.6231 34.2983 24.2955C34.6487 24.9583 35.1458 25.4744 35.7898 25.8438C36.4337 26.2131 37.2008 26.3977 38.0909 26.3977C38.7064 26.3977 39.2652 26.3125 39.767 26.142C40.2689 25.9716 40.6998 25.7206 41.0597 25.3892C41.4195 25.0578 41.6894 24.6506 41.8693 24.1676L48.2472 24.3523C47.982 25.7822 47.3996 27.0275 46.5 28.0881C45.6098 29.1392 44.4403 29.9583 42.9915 30.5455C41.5426 31.1231 39.8665 31.4119 37.9631 31.4119ZM51.8658 31V9.18182H58.4709V13.1875H58.7124C59.1669 11.8617 59.9339 10.8153 61.0135 10.0483C62.093 9.28125 63.3809 8.89773 64.8771 8.89773C66.3923 8.89773 67.6896 9.28598 68.7692 10.0625C69.8487 10.839 70.5353 11.8807 70.8288 13.1875H71.0561C71.4633 11.8902 72.2588 10.8532 73.4425 10.0767C74.6262 9.29072 76.023 8.89773 77.6328 8.89773C79.6972 8.89773 81.3733 9.56061 82.6612 10.8864C83.9491 12.2027 84.593 14.0114 84.593 16.3125V31H77.647V17.9034C77.647 16.8144 77.3677 15.9858 76.8089 15.4176C76.2502 14.84 75.5258 14.5511 74.6357 14.5511C73.6792 14.5511 72.9264 14.8636 72.3771 15.4886C71.8374 16.1042 71.5675 16.9328 71.5675 17.9744V31H64.8913V17.8324C64.8913 16.8191 64.6167 16.0189 64.0675 15.4318C63.5182 14.8447 62.7938 14.5511 61.8942 14.5511C61.2881 14.5511 60.7531 14.6979 60.2891 14.9915C59.825 15.2756 59.4605 15.6828 59.1953 16.2131C58.9396 16.7434 58.8118 17.3684 58.8118 18.0881V31H51.8658ZM102.86 16.554V21.9091H89.3942V16.554H102.86ZM128.929 9.18182L121.443 31H113.489L106.017 9.18182H113.332L117.352 24.2102H117.58L121.614 9.18182H128.929ZM131.592 31V9.18182H138.538V31H131.592ZM135.072 6.6392C134.097 6.6392 133.259 6.31723 132.558 5.6733C131.857 5.01989 131.507 4.2339 131.507 3.31534C131.507 2.40625 131.857 1.62973 132.558 0.985795C133.259 0.332385 134.097 0.00568008 135.072 0.00568008C136.057 0.00568008 136.895 0.332385 137.587 0.985795C138.287 1.62973 138.638 2.40625 138.638 3.31534C138.638 4.2339 138.287 5.01989 137.587 5.6733C136.895 6.31723 136.057 6.6392 135.072 6.6392ZM149.906 18.5568V31H142.96V9.18182H149.565V13.1875H149.806C150.289 11.8523 151.113 10.8059 152.278 10.0483C153.442 9.28125 154.83 8.89773 156.44 8.89773C157.974 8.89773 159.304 9.24337 160.431 9.93466C161.567 10.6165 162.448 11.5729 163.073 12.804C163.708 14.0256 164.02 15.4555 164.011 17.0938V31H157.065V18.4574C157.074 17.2453 156.766 16.2983 156.141 15.6165C155.526 14.9347 154.669 14.5938 153.57 14.5938C152.841 14.5938 152.197 14.7547 151.638 15.0767C151.089 15.3892 150.663 15.839 150.36 16.4261C150.067 17.0133 149.915 17.7235 149.906 18.5568ZM176.28 31.3125C174.67 31.3125 173.207 30.8958 171.891 30.0625C170.574 29.2292 169.523 27.9792 168.737 26.3125C167.951 24.6458 167.558 22.5767 167.558 20.1051C167.558 17.5388 167.965 15.4271 168.78 13.7699C169.594 12.1127 170.66 10.8864 171.976 10.0909C173.302 9.29545 174.727 8.89773 176.251 8.89773C177.397 8.89773 178.377 9.09659 179.192 9.49432C180.006 9.88258 180.679 10.3845 181.209 11C181.739 11.6155 182.142 12.2547 182.416 12.9176H182.558V1.90909H189.504V31H182.629V27.4631H182.416C182.123 28.1354 181.706 28.7652 181.166 29.3523C180.626 29.9394 179.949 30.4129 179.135 30.7727C178.33 31.1326 177.378 31.3125 176.28 31.3125ZM178.695 25.9006C179.537 25.9006 180.257 25.6638 180.854 25.1903C181.45 24.7074 181.91 24.0303 182.232 23.1591C182.554 22.2879 182.714 21.2652 182.714 20.0909C182.714 18.8977 182.554 17.8703 182.232 17.0085C181.919 16.1468 181.46 15.4839 180.854 15.0199C180.257 14.5559 179.537 14.3239 178.695 14.3239C177.833 14.3239 177.104 14.5606 176.507 15.0341C175.911 15.5076 175.456 16.1752 175.143 17.0369C174.84 17.8987 174.689 18.9167 174.689 20.0909C174.689 21.2652 174.845 22.2879 175.158 23.1591C175.47 24.0303 175.92 24.7074 176.507 25.1903C177.104 25.6638 177.833 25.9006 178.695 25.9006ZM204.082 31.4119C201.79 31.4119 199.82 30.9432 198.173 30.0057C196.534 29.0587 195.27 27.7424 194.38 26.0568C193.499 24.3617 193.059 22.3968 193.059 20.1619C193.059 17.9176 193.499 15.9527 194.38 14.267C195.27 12.572 196.534 11.2557 198.173 10.3182C199.82 9.37121 201.79 8.89773 204.082 8.89773C206.373 8.89773 208.338 9.37121 209.977 10.3182C211.624 11.2557 212.888 12.572 213.769 14.267C214.659 15.9527 215.104 17.9176 215.104 20.1619C215.104 22.3968 214.659 24.3617 213.769 26.0568C212.888 27.7424 211.624 29.0587 209.977 30.0057C208.338 30.9432 206.373 31.4119 204.082 31.4119ZM204.124 26.1705C204.958 26.1705 205.663 25.9148 206.241 25.4034C206.818 24.892 207.259 24.1818 207.562 23.2727C207.874 22.3636 208.031 21.3125 208.031 20.1193C208.031 18.9072 207.874 17.8466 207.562 16.9375C207.259 16.0284 206.818 15.3182 206.241 14.8068C205.663 14.2955 204.958 14.0398 204.124 14.0398C203.263 14.0398 202.533 14.2955 201.937 14.8068C201.35 15.3182 200.9 16.0284 200.587 16.9375C200.284 17.8466 200.133 18.9072 200.133 20.1193C200.133 21.3125 200.284 22.3636 200.587 23.2727C200.9 24.1818 201.35 24.892 201.937 25.4034C202.533 25.9148 203.263 26.1705 204.124 26.1705ZM220.04 19.5511C220.04 16.0379 220.514 12.8087 221.461 9.86364C222.408 6.90909 223.885 4.16761 225.893 1.6392H232.626C231.868 2.5767 231.163 3.7178 230.509 5.0625C229.856 6.4072 229.288 7.87973 228.805 9.48011C228.331 11.0805 227.957 12.7377 227.683 14.4517C227.417 16.1657 227.285 17.8655 227.285 19.5511C227.285 21.786 227.517 24.0445 227.981 26.3267C228.445 28.5994 229.079 30.7064 229.884 32.6477C230.689 34.5985 231.603 36.1989 232.626 37.4489H225.893C223.885 34.9205 222.408 32.1837 221.461 29.2386C220.514 26.2841 220.04 23.0549 220.04 19.5511ZM241.805 31.3693C240.413 31.3693 239.178 31.1373 238.098 30.6733C237.028 30.1998 236.18 29.4896 235.555 28.5426C234.94 27.5862 234.632 26.3883 234.632 24.9489C234.632 23.7367 234.845 22.714 235.271 21.8807C235.697 21.0473 236.285 20.3703 237.033 19.8494C237.781 19.3286 238.643 18.9356 239.618 18.6705C240.593 18.3958 241.635 18.2112 242.743 18.1165C243.983 18.0028 244.982 17.8845 245.74 17.7614C246.498 17.6288 247.047 17.4441 247.388 17.2074C247.738 16.9612 247.913 16.6155 247.913 16.1705V16.0994C247.913 15.3703 247.662 14.8068 247.161 14.4091C246.659 14.0114 245.982 13.8125 245.129 13.8125C244.211 13.8125 243.472 14.0114 242.913 14.4091C242.355 14.8068 242 15.3561 241.848 16.0568L235.442 15.8295C235.631 14.5038 236.119 13.3201 236.905 12.2784C237.7 11.2273 238.789 10.4034 240.172 9.80682C241.564 9.20076 243.235 8.89773 245.186 8.89773C246.578 8.89773 247.861 9.06345 249.036 9.39489C250.21 9.71686 251.232 10.1903 252.104 10.8153C252.975 11.4309 253.647 12.1884 254.121 13.0881C254.604 13.9877 254.845 15.0152 254.845 16.1705V31H248.311V27.9602H248.141C247.752 28.6989 247.255 29.3239 246.649 29.8352C246.053 30.3466 245.347 30.7301 244.533 30.9858C243.728 31.2415 242.819 31.3693 241.805 31.3693ZM243.95 26.8239C244.698 26.8239 245.371 26.6723 245.967 26.3693C246.573 26.0663 247.056 25.6496 247.416 25.1193C247.776 24.5795 247.956 23.9545 247.956 23.2443V21.1705C247.757 21.2746 247.516 21.3693 247.232 21.4545C246.957 21.5398 246.654 21.6203 246.322 21.696C245.991 21.7718 245.65 21.8381 245.3 21.8949C244.949 21.9517 244.613 22.0038 244.291 22.0511C243.638 22.1553 243.079 22.3163 242.615 22.5341C242.161 22.7519 241.81 23.036 241.564 23.3864C241.327 23.7273 241.209 24.1345 241.209 24.608C241.209 25.3277 241.464 25.8769 241.976 26.2557C242.497 26.6345 243.155 26.8239 243.95 26.8239ZM270.3 19.5511C270.3 23.0549 269.826 26.2841 268.879 29.2386C267.932 32.1837 266.455 34.9205 264.447 37.4489H257.714C258.482 36.5114 259.187 35.3703 259.831 34.0256C260.484 32.6809 261.048 31.2083 261.521 29.608C262.004 28.0076 262.378 26.3504 262.643 24.6364C262.918 22.9223 263.055 21.2273 263.055 19.5511C263.055 17.3068 262.823 15.0483 262.359 12.7756C261.895 10.4934 261.261 8.38163 260.456 6.44034C259.651 4.48958 258.737 2.8892 257.714 1.6392H264.447C266.455 4.16761 267.932 6.90909 268.879 9.86364C269.826 12.8087 270.3 16.0379 270.3 19.5511ZM283.173 27.0227L283.045 28.5994C282.931 29.9062 282.699 31.1799 282.349 32.4205C282.008 33.6705 281.643 34.7926 281.255 35.7869C280.867 36.7813 280.559 37.553 280.332 38.1023H275.957C276.108 37.553 276.312 36.7813 276.567 35.7869C276.833 34.7926 277.079 33.6705 277.306 32.4205C277.533 31.1705 277.661 29.9015 277.69 28.6136L277.718 27.0227H283.173ZM7.35227 79.3693C5.96023 79.3693 4.72443 79.1373 3.64489 78.6733C2.57481 78.1998 1.72727 77.4896 1.10227 76.5426C0.486742 75.5862 0.178977 74.3883 0.178977 72.9489C0.178977 71.7367 0.392046 70.714 0.818182 69.8807C1.24432 69.0473 1.83144 68.3703 2.57955 67.8494C3.32765 67.3286 4.18939 66.9356 5.16477 66.6705C6.14015 66.3958 7.18182 66.2112 8.28977 66.1165C9.5303 66.0028 10.5294 65.8845 11.2869 65.7614C12.0445 65.6288 12.5938 65.4441 12.9347 65.2074C13.285 64.9612 13.4602 64.6155 13.4602 64.1705V64.0994C13.4602 63.3703 13.2093 62.8068 12.7074 62.4091C12.2055 62.0114 11.5284 61.8125 10.6761 61.8125C9.75758 61.8125 9.01894 62.0114 8.46023 62.4091C7.90152 62.8068 7.5464 63.3561 7.39489 64.0568L0.988636 63.8295C1.17803 62.5038 1.66572 61.3201 2.4517 60.2784C3.24716 59.2273 4.33617 58.4034 5.71875 57.8068C7.1108 57.2008 8.7822 56.8977 10.733 56.8977C12.125 56.8977 13.4081 57.0634 14.5824 57.3949C15.7566 57.7169 16.7794 58.1903 17.6506 58.8153C18.5218 59.4309 19.1941 60.1884 19.6676 61.0881C20.1506 61.9877 20.392 63.0152 20.392 64.1705V79H13.858V75.9602H13.6875C13.2992 76.6989 12.8021 77.3239 12.196 77.8352C11.5994 78.3466 10.8939 78.7301 10.0795 78.9858C9.27462 79.2415 8.36553 79.3693 7.35227 79.3693ZM9.49716 74.8239C10.2453 74.8239 10.9176 74.6723 11.5142 74.3693C12.1203 74.0663 12.6032 73.6496 12.9631 73.1193C13.3229 72.5795 13.5028 71.9545 13.5028 71.2443V69.1705C13.304 69.2746 13.0625 69.3693 12.7784 69.4545C12.5038 69.5398 12.2008 69.6203 11.8693 69.696C11.5379 69.7718 11.197 69.8381 10.8466 69.8949C10.4962 69.9517 10.16 70.0038 9.83807 70.0511C9.18466 70.1553 8.62595 70.3163 8.16193 70.5341C7.70739 70.7519 7.35701 71.036 7.1108 71.3864C6.87405 71.7273 6.75568 72.1345 6.75568 72.608C6.75568 73.3277 7.01136 73.8769 7.52273 74.2557C8.04356 74.6345 8.7017 74.8239 9.49716 74.8239ZM34.8239 79.4119C32.5322 79.4119 30.5625 78.9432 28.9148 78.0057C27.2765 77.0587 26.0123 75.7424 25.1222 74.0568C24.2415 72.3617 23.8011 70.3968 23.8011 68.1619C23.8011 65.9176 24.2415 63.9527 25.1222 62.267C26.0123 60.572 27.2765 59.2557 28.9148 58.3182C30.5625 57.3712 32.5322 56.8977 34.8239 56.8977C37.1155 56.8977 39.0805 57.3712 40.7188 58.3182C42.3665 59.2557 43.6307 60.572 44.5114 62.267C45.4015 63.9527 45.8466 65.9176 45.8466 68.1619C45.8466 70.3968 45.4015 72.3617 44.5114 74.0568C43.6307 75.7424 42.3665 77.0587 40.7188 78.0057C39.0805 78.9432 37.1155 79.4119 34.8239 79.4119ZM34.8665 74.1705C35.6998 74.1705 36.4053 73.9148 36.983 73.4034C37.5606 72.892 38.0009 72.1818 38.304 71.2727C38.6165 70.3636 38.7727 69.3125 38.7727 68.1193C38.7727 66.9072 38.6165 65.8466 38.304 64.9375C38.0009 64.0284 37.5606 63.3182 36.983 62.8068C36.4053 62.2955 35.6998 62.0398 34.8665 62.0398C34.0047 62.0398 33.2756 62.2955 32.679 62.8068C32.0919 63.3182 31.642 64.0284 31.3295 64.9375C31.0265 65.8466 30.875 66.9072 30.875 68.1193C30.875 69.3125 31.0265 70.3636 31.3295 71.2727C31.642 72.1818 32.0919 72.892 32.679 73.4034C33.2756 73.9148 34.0047 74.1705 34.8665 74.1705ZM1.14489 127V121.943L11.7557 112.653C12.5511 111.934 13.2282 111.276 13.7869 110.679C14.3456 110.073 14.7718 109.467 15.0653 108.861C15.3589 108.245 15.5057 107.578 15.5057 106.858C15.5057 106.053 15.3305 105.366 14.9801 104.798C14.6297 104.221 14.1468 103.776 13.5312 103.463C12.9157 103.151 12.2102 102.994 11.4148 102.994C10.6098 102.994 9.90436 103.16 9.2983 103.491C8.69224 103.813 8.21875 104.282 7.87784 104.898C7.5464 105.513 7.38068 106.261 7.38068 107.142H0.71875C0.71875 105.163 1.16383 103.454 2.05398 102.014C2.94413 100.575 4.19413 99.4669 5.80398 98.6903C7.4233 97.9044 9.30303 97.5114 11.4432 97.5114C13.6496 97.5114 15.5672 97.8807 17.196 98.6193C18.8248 99.358 20.0843 100.39 20.9744 101.716C21.8741 103.032 22.3239 104.562 22.3239 106.304C22.3239 107.412 22.1013 108.51 21.6562 109.599C21.2112 110.688 20.411 111.891 19.2557 113.207C18.1098 114.524 16.4811 116.1 14.3693 117.938L10.8892 121.148V121.332H22.679V127H1.14489ZM38.6839 127.71C36.1461 127.71 33.9586 127.109 32.1214 125.906C30.2843 124.694 28.8686 122.956 27.8743 120.693C26.88 118.42 26.3875 115.688 26.397 112.497C26.4065 109.306 26.9036 106.598 27.8885 104.372C28.8828 102.137 30.2938 100.437 32.1214 99.2727C33.9586 98.0985 36.1461 97.5114 38.6839 97.5114C41.2218 97.5114 43.4093 98.0985 45.2464 99.2727C47.093 100.437 48.5135 102.137 49.5078 104.372C50.5021 106.607 50.9946 109.315 50.9851 112.497C50.9851 115.698 50.4879 118.435 49.4936 120.707C48.4993 122.98 47.0836 124.718 45.2464 125.92C43.4188 127.114 41.2313 127.71 38.6839 127.71ZM38.6839 121.957C40.1991 121.957 41.4254 121.186 42.3629 119.642C43.3004 118.089 43.7644 115.707 43.755 112.497C43.755 110.395 43.5419 108.662 43.1158 107.298C42.6896 105.925 42.0978 104.902 41.3402 104.23C40.5826 103.558 39.6972 103.222 38.6839 103.222C37.1783 103.222 35.9614 103.984 35.0334 105.509C34.1054 107.024 33.6366 109.353 33.6271 112.497C33.6177 114.628 33.8213 116.394 34.2379 117.795C34.6641 119.197 35.2607 120.243 36.0277 120.935C36.7947 121.616 37.6802 121.957 38.6839 121.957ZM55.0121 127V121.943L65.6229 112.653C66.4183 111.934 67.0954 111.276 67.6541 110.679C68.2128 110.073 68.639 109.467 68.9325 108.861C69.2261 108.245 69.3729 107.578 69.3729 106.858C69.3729 106.053 69.1977 105.366 68.8473 104.798C68.4969 104.221 68.014 103.776 67.3984 103.463C66.7829 103.151 66.0774 102.994 65.282 102.994C64.477 102.994 63.7715 103.16 63.1655 103.491C62.5594 103.813 62.0859 104.282 61.745 104.898C61.4136 105.513 61.2479 106.261 61.2479 107.142H54.5859C54.5859 105.163 55.031 103.454 55.9212 102.014C56.8113 100.575 58.0613 99.4669 59.6712 98.6903C61.2905 97.9044 63.1702 97.5114 65.3104 97.5114C67.5168 97.5114 69.4344 97.8807 71.0632 98.6193C72.692 99.358 73.9515 100.39 74.8416 101.716C75.7412 103.032 76.1911 104.562 76.1911 106.304C76.1911 107.412 75.9685 108.51 75.5234 109.599C75.0784 110.688 74.2782 111.891 73.1229 113.207C71.977 114.524 70.3482 116.1 68.2365 117.938L64.7564 121.148V121.332H76.5462V127H55.0121ZM91.6562 127.398C89.535 127.398 87.6506 127.014 86.0028 126.247C84.3551 125.48 83.053 124.424 82.0966 123.08C81.1496 121.735 80.6572 120.191 80.6193 118.449H87.4375C87.4943 119.519 87.9299 120.381 88.7443 121.034C89.5587 121.678 90.5294 122 91.6562 122C92.5369 122 93.3182 121.806 94 121.418C94.6818 121.029 95.2169 120.485 95.6051 119.784C95.9934 119.074 96.1828 118.259 96.1733 117.341C96.1828 116.403 95.9886 115.584 95.5909 114.884C95.2027 114.183 94.6629 113.638 93.9716 113.25C93.2898 112.852 92.5038 112.653 91.6136 112.653C90.7708 112.644 89.9706 112.829 89.2131 113.207C88.465 113.586 87.8968 114.102 87.5085 114.756L81.3011 113.591L82.5653 97.9091H101.23V103.577H88.3466L87.679 110.438H87.8494C88.3324 109.633 89.1089 108.97 90.179 108.449C91.2585 107.919 92.4848 107.653 93.858 107.653C95.6004 107.653 97.1534 108.061 98.517 108.875C99.8902 109.68 100.97 110.797 101.756 112.227C102.551 113.657 102.949 115.295 102.949 117.142C102.949 119.14 102.475 120.911 101.528 122.455C100.591 123.998 99.2746 125.21 97.5795 126.091C95.8939 126.962 93.9195 127.398 91.6562 127.398ZM115.033 97.9091L114.38 118.094H108.542L107.888 97.9091H115.033ZM111.454 127.412C110.441 127.412 109.569 127.052 108.84 126.332C108.121 125.613 107.761 124.741 107.761 123.719C107.761 122.715 108.121 121.858 108.84 121.148C109.569 120.428 110.441 120.068 111.454 120.068C112.429 120.068 113.286 120.428 114.025 121.148C114.773 121.858 115.147 122.715 115.147 123.719C115.147 124.401 114.972 125.021 114.621 125.58C114.281 126.138 113.831 126.583 113.272 126.915C112.723 127.246 112.117 127.412 111.454 127.412Z" fill="white"/>
</svg>
