<svg width="24" height="30" viewBox="0 0 24 30" fill="none" xmlns="http://www.w3.org/2000/svg">
<path fill-rule="evenodd" clip-rule="evenodd" d="M5.77737 0.208733C4.69158 0.577326 3.73616 1.52536 3.49676 2.47139L3.41922 2.77775L2.95236 2.91371C2.6956 2.98848 2.18689 3.31488 1.82195 3.63894L1.15827 4.22834L0.910794 4.87118L0.663317 5.51402V7.61928V9.72442H1.92965H3.19598V14.6434V19.5624L1.59799 19.5951L0 19.6278V20.5068V21.3858L0.753769 21.4207L1.50754 21.4555V25.7278V30H12H22.4925V25.7278V21.4555L23.2462 21.4207L24 21.3858V20.5068V19.6278L22.4623 19.595L20.9246 19.5622V14.6433V9.72442H22.142H23.3592L23.3179 7.52693L23.2764 5.32943L22.9374 4.65858C22.5561 3.90416 21.8727 3.27468 21.0956 2.96234L20.5731 2.75232L20.3808 2.26325C20.1138 1.58372 19.3219 0.748555 18.5877 0.372227L17.9699 0.0554355L12.1809 0.0277763L6.39196 0L5.77737 0.208733ZM6.04137 2.03131C5.4152 2.40213 5.13696 2.93539 5.13069 3.77653L5.12563 4.45043L4.43216 4.4509C3.61954 4.45137 3.07682 4.71917 2.71297 5.29907L2.47321 5.68103L2.47284 6.82373L2.47236 7.96643H12H21.5276V6.93647V5.90652L21.2563 5.39225C20.9153 4.74601 20.3671 4.45043 19.5095 4.45043H18.8744V3.88928C18.8744 3.21796 18.4818 2.40236 17.9913 2.05475L17.6509 1.81343L12.0818 1.78284L6.51256 1.75226L6.04137 2.03131ZM11.0352 3.74723V4.56763H11.9397H12.8442V3.74723V2.92683H11.9397H11.0352V3.74723ZM7.8995 5.62243V6.44283H8.80402H9.70854V5.62243V4.80203H8.80402H7.8995V5.62243ZM14.2915 5.62243V6.44283H15.196H16.1005V5.62243V4.80203H15.196H14.2915V5.62243ZM5.00503 14.6522V19.5799L5.80619 19.5453L6.60736 19.5106L6.75075 19.0418C7.07711 17.9747 7.81351 16.9824 8.72117 16.3863C9.03208 16.1823 9.30742 15.9991 9.33298 15.9791C9.35867 15.9593 9.26364 15.6812 9.12193 15.3612C8.46645 13.8803 9.12796 12.1376 10.6183 11.4194L11.0955 11.1894L12 11.1933L12.9045 11.1972L13.3984 11.4501C13.9793 11.7476 14.6083 12.4092 14.8693 12.9975C14.9723 13.2299 15.0557 13.7553 15.0568 14.178L15.0585 14.9398L14.7871 15.4493C14.6379 15.7295 14.5331 15.9708 14.5544 15.9856C14.5756 16.0004 14.7887 16.1268 15.0279 16.2664C15.9671 16.8147 16.8496 17.9585 17.1916 19.0711L17.3448 19.5692H18.2301H19.1156V14.6468V9.72442H12.0603H5.00503V14.6522ZM11.0834 13.2873L10.6734 13.6858V14.1402C10.6734 14.3902 10.758 14.7122 10.8616 14.8558C11.071 15.1463 11.6399 15.4672 11.9456 15.4672C12.3705 15.4672 12.951 15.0877 13.1503 14.6795L13.3544 14.2615L13.2134 13.8039C13.0474 13.2657 12.5068 12.8899 11.8975 12.8893L11.4935 12.8888L11.0834 13.2873ZM10.6369 17.3945C9.69021 17.7226 8.82874 18.5205 8.57186 19.307L8.48623 19.5692H11.9814H15.4765L15.3362 19.1883C15.1161 18.5906 14.0814 17.6491 13.3945 17.4216C12.6804 17.1852 11.2804 17.1714 10.6369 17.3945ZM3.31658 21.5654C3.31658 21.8586 3.67694 22.4812 3.98159 22.7139C4.37343 23.0135 5.09367 23.0506 5.59779 22.7974C5.93307 22.6288 6.33166 21.9958 6.33166 21.6318V21.4444H4.82412C3.86822 21.4444 3.31658 21.4887 3.31658 21.5654ZM8.1407 21.6847C8.1407 22.3987 8.839 22.968 9.71457 22.968H10.2151L10.6251 22.5695L11.0352 22.1711V21.8077V21.4444H9.58794H8.1407V21.6847ZM12.9648 21.8077V22.1711L13.3749 22.5695L13.7849 22.968H14.2854C15.161 22.968 15.8593 22.3987 15.8593 21.6847V21.4444H14.4121H12.9648V21.8077ZM17.6683 21.6318C17.6683 21.9958 18.0669 22.6288 18.4022 22.7974C18.9063 23.0506 19.6266 23.0135 20.0184 22.7139C20.3231 22.4812 20.6834 21.8586 20.6834 21.5654C20.6834 21.4887 20.1318 21.4444 19.1759 21.4444H17.6683V21.6318ZM6.87087 24.0955C6.67381 24.2491 6.28474 24.46 6.00627 24.564L5.5001 24.7532L4.67964 24.6933C4.22846 24.6605 3.73713 24.5954 3.58794 24.5489L3.31658 24.4643V26.3531V28.242H12H20.6834V26.3531V24.4643L20.4121 24.5473C19.9612 24.6851 18.7891 24.7586 18.3413 24.6769C18.11 24.6347 17.649 24.4226 17.3173 24.2056L16.7138 23.811L16.5781 23.9698C16.5036 24.0571 16.1649 24.2631 15.8256 24.4274L15.2089 24.726L14.4186 24.7234C13.5727 24.7207 12.7672 24.4474 12.2714 23.9951L12 23.7475L11.7286 23.9951C10.7034 24.9305 8.79305 24.9752 7.601 24.0916L7.22919 23.8161L6.87087 24.0955Z" fill="#3E5943"/>
</svg>
