<svg width="33" height="13" viewBox="0 0 33 13" fill="none" xmlns="http://www.w3.org/2000/svg">
<path d="M6.986 12.192C6.10067 12.192 5.28467 12.0533 4.538 11.776C3.802 11.488 3.15667 11.0827 2.602 10.56C2.058 10.0373 1.63133 9.424 1.322 8.72C1.02333 8.016 0.874 7.24267 0.874 6.4C0.874 5.55733 1.02333 4.784 1.322 4.08C1.63133 3.376 2.06333 2.76267 2.618 2.24C3.17267 1.71733 3.82333 1.31733 4.57 1.04C5.31667 0.752 6.138 0.608 7.034 0.608C8.026 0.608 8.91667 0.773333 9.706 1.104C10.506 1.43467 11.178 1.91467 11.722 2.544L10.058 4.08C9.65267 3.65333 9.21 3.33867 8.73 3.136C8.25 2.92267 7.72733 2.816 7.162 2.816C6.618 2.816 6.122 2.90133 5.674 3.072C5.226 3.24267 4.83667 3.488 4.506 3.808C4.186 4.128 3.93533 4.50667 3.754 4.944C3.58333 5.38133 3.498 5.86667 3.498 6.4C3.498 6.92267 3.58333 7.40267 3.754 7.84C3.93533 8.27733 4.186 8.66133 4.506 8.992C4.83667 9.312 5.22067 9.55733 5.658 9.728C6.106 9.89867 6.59667 9.984 7.13 9.984C7.642 9.984 8.138 9.904 8.618 9.744C9.10867 9.57333 9.58333 9.29067 10.042 8.896L11.514 10.768C10.906 11.2267 10.1967 11.5787 9.386 11.824C8.586 12.0693 7.786 12.192 6.986 12.192ZM11.514 10.768L9.146 10.432V6.224H11.514V10.768ZM18.0178 12.128C17.0364 12.128 16.1724 11.936 15.4258 11.552C14.6898 11.168 14.1191 10.6453 13.7138 9.984C13.3084 9.312 13.1058 8.54933 13.1058 7.696C13.1058 6.832 13.3031 6.06933 13.6978 5.408C14.1031 4.736 14.6524 4.21333 15.3458 3.84C16.0391 3.456 16.8231 3.264 17.6978 3.264C18.5404 3.264 19.2978 3.44533 19.9698 3.808C20.6524 4.16 21.1911 4.672 21.5858 5.344C21.9804 6.00533 22.1778 6.8 22.1778 7.728C22.1778 7.824 22.1724 7.936 22.1618 8.064C22.1511 8.18133 22.1404 8.29333 22.1298 8.4H15.1378V6.944H20.8177L19.8578 7.376C19.8578 6.928 19.7671 6.53867 19.5858 6.208C19.4044 5.87733 19.1538 5.62133 18.8338 5.44C18.5138 5.248 18.1404 5.152 17.7138 5.152C17.2871 5.152 16.9084 5.248 16.5778 5.44C16.2578 5.62133 16.0071 5.88267 15.8258 6.224C15.6444 6.55467 15.5538 6.94933 15.5538 7.408V7.792C15.5538 8.26133 15.6551 8.67733 15.8578 9.04C16.0711 9.392 16.3644 9.664 16.7378 9.856C17.1218 10.0373 17.5698 10.128 18.0818 10.128C18.5404 10.128 18.9404 10.0587 19.2818 9.92C19.6338 9.78133 19.9538 9.57333 20.2418 9.296L21.5698 10.736C21.1751 11.184 20.6791 11.5307 20.0818 11.776C19.4844 12.0107 18.7964 12.128 18.0178 12.128ZM23.8395 12V3.392H26.2235V5.776L25.7755 5.056C26.0848 4.48 26.5275 4.03733 27.1035 3.728C27.6795 3.41867 28.3355 3.264 29.0715 3.264C29.7542 3.264 30.3622 3.40267 30.8955 3.68C31.4395 3.94667 31.8662 4.36267 32.1755 4.928C32.4848 5.48267 32.6395 6.19733 32.6395 7.072V12H30.1435V7.456C30.1435 6.76267 29.9888 6.25067 29.6795 5.92C29.3808 5.58933 28.9542 5.424 28.3995 5.424C28.0048 5.424 27.6475 5.50933 27.3275 5.68C27.0182 5.84 26.7728 6.09067 26.5915 6.432C26.4208 6.77333 26.3355 7.21067 26.3355 7.744V12H23.8395Z" fill="black"/>
</svg>
