<svg width="440" height="257" viewBox="0 0 440 257" fill="none" xmlns="http://www.w3.org/2000/svg">
<path fill-rule="evenodd" clip-rule="evenodd" d="M-2.32583 18.46C-3.06967 18.8405 -7.81051 31.6601 -12.8604 46.9515L-22.0413 74.7516L-19.6593 75.5383L-17.2773 76.3249L-8.03921 48.3516C0.356691 22.9284 1.5919 16.463 -2.32583 18.46ZM5.61423 21.0822C4.87039 21.4626 0.129545 34.2822 -4.92039 49.5737L-14.1013 77.3738L-11.7192 78.1605L-9.33723 78.9471L-0.0991494 50.9738C8.29675 25.5506 9.53196 19.0852 5.61423 21.0822ZM13.5543 23.7043C12.8105 24.0848 8.0696 36.9044 3.01967 52.1958L-6.16121 79.996L-3.77916 80.7826L-1.39715 81.5693L7.84093 53.5959C16.2368 28.1727 17.472 21.7073 13.5543 23.7043ZM11.313 53.7482C5.31023 71.9251 2.36644 82.8122 3.36689 83.1426C4.36733 83.473 8.48625 72.9739 14.4891 54.7971C20.4919 36.6203 23.4357 25.7331 22.4352 25.4027C21.4348 25.0723 17.3159 35.5714 11.313 53.7482ZM26.2171 33.3578C24.5908 36.4691 19.8574 49.2982 15.6963 61.8663L8.13093 84.7159L10.5129 85.5026L12.895 86.2892L22.1331 58.3158C30.9087 31.7427 32.6646 21.0075 26.2171 33.3578ZM35.3528 31.661C32.4004 35.2948 16.7549 87.5711 18.4509 88.1312C20.6011 88.8412 39.4697 34.5699 38.0579 31.7307C37.3647 30.3367 36.4468 30.311 35.3528 31.661ZM33.5892 60.9572L24.0111 89.9603L26.4296 90.759L28.8481 91.5577L37.773 63.0771L46.6972 34.598L44.9326 33.2753L43.1679 31.9525L33.5892 60.9572ZM41.1145 64.8352C34.965 83.4563 31.9624 94.4361 33.1976 93.7945C34.2903 93.2268 38.5034 83.0506 42.5585 71.1821C53.2991 39.7525 54.3654 35.9475 52.6075 35.367C51.6054 35.0361 47.3647 45.9094 41.1145 64.8352ZM85.6258 50.1258L80.3894 52.052L78.4161 48.5346C75.6309 43.5716 69.7102 42.2051 62.74 44.9177L56.7645 47.2419L59.0865 49.1543C60.4716 50.293 63.5896 50.2643 66.8053 49.0814L72.2015 47.0978L74.5485 51.4678C77.3357 56.6592 80.8255 58.1337 84.6306 55.7259C86.1553 54.762 88.6567 54.3873 90.1891 54.8934C91.7216 55.3995 93.5078 57.1901 94.1587 58.8725C95.8534 63.2549 99.6769 63.911 106.465 60.9834C114.166 57.662 112.745 53.4536 104.898 56.3393L99.4456 58.3452L97.5156 55.1125C94.1234 49.4279 91.0406 48.1341 85.6258 50.1258ZM117.976 58.7387C117.142 59.4452 115.835 63.6154 115.07 68.0072C110.48 94.3795 123.861 120.721 146.629 130.131L155.689 133.873L156.547 131.275L157.405 128.677L151.336 126.672C129.906 119.595 115.497 91.8794 120.354 67.0786C121.998 58.6743 121.232 55.9809 117.976 58.7387ZM123.676 65.4879C120.12 76.2548 121.287 88.1918 127.058 100.075L132.398 111.071L140.463 117.519C150.075 125.205 157.582 128.143 158.729 124.667C159.214 123.201 158.044 121.772 155.737 121.01C147.584 118.318 137.136 108.809 132.551 99.9093C126.823 88.789 125.679 81.8848 127.698 70.6231C129.613 59.942 126.726 56.2527 123.676 65.4879ZM132.424 63.327C129.625 65.6969 129.139 82.2271 131.601 91.2778L134.118 100.53L141.424 107.738C145.443 111.702 151.148 115.987 154.104 117.262L159.477 119.577L160.94 116.948L162.406 114.319L157.043 112.548C149.584 110.085 139.102 98.8993 136.246 90.3535C134.93 86.4199 134.281 78.9782 134.804 73.8216C135.76 64.3754 135.023 61.1257 132.424 63.327ZM140.654 65.6305C136.05 67.9772 136.079 85.8353 140.701 94.6548C146.198 105.144 161.682 115.725 163.497 110.232C163.934 108.909 163.4 107.527 162.309 107.161C157.278 105.475 149.287 98.7551 146.105 93.5345C142.151 87.0473 140.919 77.2712 143.188 70.4002C144.65 65.9735 143.655 64.1009 140.654 65.6305ZM146.68 68.0775C144.305 70.088 144.085 82.2977 146.308 88.5302C149.634 97.8486 164.255 107.935 166.145 102.213C166.582 100.889 165.617 99.3699 164 98.836C154.157 95.5856 148.805 86.0766 150.574 74.9812C151.506 69.143 149.538 65.656 146.68 68.0775ZM154.181 71.3287C149.768 76.7607 152.517 88.037 159.714 94.0338C168.379 101.251 171.315 96.7159 163.124 88.7633L157.571 83.3718L157.589 77.7245C157.609 70.4631 156.529 68.4363 154.181 71.3287ZM-35.4087 20.4931C-43.7748 19.7901 -56.0543 23.7591 -58.7523 28.0409C-60.0565 30.1076 -61.5698 34.5725 -62.1151 37.9625L-63.1068 44.1276L-66.5253 46.0902C-71.6846 49.0522 -70.7403 52.3418 -65.4408 49.8726L-60.9344 47.773L-56.6672 51.0695L-52.3995 54.3644L-46.2064 54.3462C-36.7455 54.3204 -29.0302 47.2664 -20.8134 31.1317L-17.5173 24.6602L-23.6662 22.811C-27.0487 21.7954 -32.3326 20.7512 -35.4087 20.4931ZM60.4415 55.6426C57.9305 56.6491 55.6147 58.259 55.2974 59.2197C54.3843 61.9848 59.6265 62.9049 62.8979 60.5558L65.867 58.4234L69.6692 62.7919C74.3282 68.1443 77.301 69.2435 80.9228 66.9531C82.4476 65.9891 84.949 65.6145 86.4814 66.1206C88.0138 66.6267 89.8001 68.4173 90.4509 70.0997C91.1017 71.7822 92.8785 73.5696 94.4014 74.0726C97.5202 75.1025 107.471 71.8925 108.224 69.6134C109.022 67.1947 103.707 66.2399 99.6264 68.0692L95.8453 69.7644L93.8174 66.1508C91.2244 61.5287 85.4059 59.6072 80.5702 61.776L76.7891 63.4712L74.7612 59.8576C72.1026 55.1195 66.1316 53.3611 60.4415 55.6426ZM-33.1252 24.3192L-36.9276 23.8337L-38.2153 27.7328C-39.728 32.3135 -38.9282 32.8622 -34.227 30.4658C-29.316 27.9626 -29.6514 32.3006 -34.5873 35.1354L-38.4077 37.3282L-35.1792 38.3943C-31.0441 39.76 -28.0792 37.7525 -25.0225 31.5204L-22.5817 26.5454L-25.952 25.6742C-27.8052 25.1956 -31.0327 24.5852 -33.1252 24.3192ZM-44.6777 26.9238C-48.7685 31.6635 -50.6482 36.8434 -48.533 37.5419C-46.5162 38.208 -42.693 32.1188 -41.9202 27.0109L-41.316 23.0267L-44.6777 26.9238ZM-53.7598 28.1385C-57.5402 31.5647 -60.0465 38.4393 -58.2878 40.5534C-56.4835 42.7217 -53.9498 39.0385 -52.1565 31.6404L-50.618 25.2911L-53.7598 28.1385ZM56.7338 66.8698C51.8055 68.8443 49.8722 71.8186 52.8719 72.8093C53.8946 73.147 56.4346 72.6606 58.5168 71.726L62.3 70.0297L66.9052 74.9374L71.5108 79.8434L77.3754 78.6175L83.239 77.3894L85.1165 80.7328C86.1485 82.5731 88.2561 84.4948 89.798 85.004C93.7347 86.3041 103.509 83.888 104.327 81.4132C105.247 78.6256 102.591 77.967 96.1785 79.3947L90.8295 80.5845L89.0706 77.0473C86.8719 72.623 83.1528 71.3361 77.5401 73.0526L73.1857 74.3824L70.4797 70.7209C66.9217 65.9011 62.3466 64.6197 56.7338 66.8698ZM-45.0625 40.4669C-45.9747 41.24 -44.02 42.59 -40.1278 43.8754C-36.5833 45.0459 -33.4437 45.2823 -33.1523 44.4001C-32.861 43.518 -35.0809 41.9844 -38.087 40.9917C-41.0931 39.9989 -44.2312 39.7631 -45.0625 40.4669ZM52.7803 78.8412C43.9823 83.6273 45.5469 87.3956 54.9026 83.9553L60.2814 81.9766L62.2547 85.4939C64.7991 90.0288 70.6488 91.925 75.449 89.773L79.2301 88.0778L81.258 91.6914C82.3735 93.6785 85.0232 95.8521 87.1479 96.5218C91.2895 97.8255 99.7721 95.205 100.722 92.3292C101.598 89.6748 97.2132 88.8527 93.169 90.9129L89.5768 92.7452L85.7815 88.4732C81.0458 83.1453 77.9491 82.08 73.2807 84.1741L69.6262 85.8115L66.8477 82.0496C62.9716 76.801 58.4345 75.767 52.7803 78.8412ZM-53.0916 44.3382C-57.668 46.6709 -52.7821 50.5684 -45.3095 50.5476C-42.6436 50.5386 -40.2459 49.8807 -39.9832 49.0852C-39.435 47.4252 -50.9607 43.2506 -53.0916 44.3382ZM49.451 90.3677L43.4289 92.7103L44.5486 94.9621L45.6684 97.2139L51.1207 95.2096L56.5737 93.2038L58.5037 96.4364C61.8959 102.121 64.9786 103.415 70.3934 101.423L75.6298 99.497L77.6032 103.014C80.3883 107.977 86.3091 109.344 93.2793 106.631L99.2547 104.307L96.8396 102.319C95.4148 101.146 92.9071 101.012 90.7217 101.992C86.0951 104.067 82.4538 102.944 80.9167 98.9697C80.2659 97.2872 78.4796 95.4966 76.9472 94.9905C75.4148 94.4844 72.9134 94.8591 71.3887 95.8231C69.8639 96.787 67.3625 97.1617 65.8301 96.6556C64.2977 96.1495 62.5114 94.3589 61.8606 92.6764C60.1918 88.3596 56.4191 87.6562 49.451 90.3677Z" fill="black" fill-opacity="0.2"/>
<path fill-rule="evenodd" clip-rule="evenodd" d="M183.709 79.8973C182.965 80.2778 178.225 93.0974 173.175 108.389L163.994 136.189L166.376 136.976L168.758 137.762L177.996 109.789C186.392 84.3657 187.627 77.9003 183.709 79.8973ZM191.649 82.5195C190.906 82.9 186.165 95.7195 181.115 111.011L171.934 138.811L174.316 139.598L176.698 140.384L185.936 112.411C194.332 86.9879 195.567 80.5225 191.649 82.5195ZM199.589 85.1416C198.846 85.5221 194.105 98.3417 189.055 113.633L179.874 141.433L182.256 142.22L184.638 143.007L193.876 115.033C202.272 89.6101 203.507 83.1447 199.589 85.1416ZM197.348 115.186C191.345 133.362 188.402 144.25 189.402 144.58C190.402 144.91 194.521 134.411 200.524 116.234C206.527 98.0576 209.471 87.1704 208.47 86.84C207.47 86.5097 203.351 97.0087 197.348 115.186ZM212.252 94.7951C210.626 97.9064 205.893 110.736 201.731 123.304L194.166 146.153L196.548 146.94L198.93 147.727L208.168 119.753C216.944 93.18 218.7 82.4448 212.252 94.7951ZM221.388 93.0983C218.436 96.7321 202.79 149.008 204.486 149.568C206.636 150.279 225.505 96.0072 224.093 93.168C223.4 91.774 222.482 91.7483 221.388 93.0983ZM219.624 122.395L210.046 151.398L212.465 152.196L214.883 152.995L223.808 124.514L232.732 96.0354L230.968 94.7126L229.203 93.3899L219.624 122.395ZM227.15 126.273C221 144.894 217.998 155.873 219.233 155.232C220.325 154.664 224.539 144.488 228.594 132.619C239.334 101.19 240.401 97.3848 238.643 96.8043C237.641 96.4734 233.4 107.347 227.15 126.273Z" fill="black" fill-opacity="0.2"/>
<path fill-rule="evenodd" clip-rule="evenodd" d="M301.141 118.679C300.398 119.059 295.657 131.879 290.607 147.17L281.426 174.971L283.808 175.757L286.19 176.544L295.428 148.57C303.824 123.147 305.059 116.682 301.141 118.679ZM309.082 121.301C308.338 121.682 303.597 134.501 298.547 149.793L289.366 177.593L291.748 178.379L294.13 179.166L303.368 151.193C311.764 125.769 312.999 119.304 309.082 121.301ZM317.022 123.923C316.278 124.304 311.537 137.123 306.487 152.415L297.306 180.215L299.688 181.002L302.07 181.788L311.308 153.815C319.704 128.392 320.939 121.926 317.022 123.923ZM314.78 153.967C308.778 172.144 305.834 183.031 306.834 183.361C307.835 183.692 311.954 173.193 317.956 155.016C323.959 136.839 326.903 125.952 325.903 125.622C324.902 125.291 320.783 135.79 314.78 153.967ZM329.684 133.577C328.058 136.688 323.325 149.517 319.164 162.085L311.598 184.935L313.98 185.721L316.362 186.508L325.6 158.535C334.376 131.962 336.132 121.226 329.684 133.577ZM338.82 131.88C335.868 135.514 320.222 187.79 321.918 188.35C324.068 189.06 342.937 134.789 341.525 131.95C340.832 130.556 339.914 130.53 338.82 131.88ZM337.056 161.176L327.478 190.179L329.897 190.978L332.315 191.777L341.24 163.296L350.164 134.817L348.4 133.494L346.635 132.171L337.056 161.176ZM344.582 165.054C338.432 183.675 335.43 194.655 336.665 194.013C337.758 193.446 341.971 183.269 346.026 171.401C356.766 139.971 357.833 136.166 356.075 135.586C355.073 135.255 350.832 146.128 344.582 165.054ZM389.093 150.345L383.857 152.271L381.883 148.753C379.098 143.79 373.177 142.424 366.207 145.137L360.232 147.461L362.554 149.373C363.939 150.512 367.057 150.483 370.273 149.3L375.669 147.317L378.016 151.687C380.803 156.878 384.293 158.353 388.098 155.945C389.623 154.981 392.124 154.606 393.656 155.112C395.189 155.618 396.975 157.409 397.626 159.091C399.321 163.474 403.144 164.13 409.932 161.202C417.633 157.881 416.212 153.672 408.366 156.558L402.913 158.564L400.983 155.331C397.591 149.647 394.508 148.353 389.093 150.345ZM421.443 158.958C420.609 159.664 419.302 163.834 418.537 168.226C413.947 194.598 427.328 220.94 450.096 230.349L459.156 234.092L460.014 231.494L460.873 228.896L454.803 226.891C433.373 219.814 418.964 192.098 423.821 167.297C425.466 158.893 424.7 156.2 421.443 158.958ZM427.143 165.707C423.587 176.474 424.754 188.411 430.525 200.294L435.866 211.29L443.93 217.738C453.542 225.424 461.049 228.361 462.197 224.886C462.681 223.42 461.511 221.991 459.204 221.229C451.051 218.537 440.604 209.028 436.019 200.128C430.29 189.008 429.146 182.104 431.166 170.842C433.08 160.161 430.193 156.472 427.143 165.707ZM435.891 163.546C433.092 165.916 432.607 182.446 435.069 191.497L437.586 200.749L444.892 207.957C448.91 211.921 454.616 216.206 457.571 217.481L462.944 219.796L464.408 217.167L465.873 214.538L460.51 212.767C453.051 210.303 442.569 199.118 439.713 190.572C438.397 186.639 437.748 179.197 438.271 174.04C439.228 164.594 438.49 161.345 435.891 163.546ZM444.121 165.849C439.518 168.196 439.546 186.054 444.168 194.874C449.665 205.363 465.15 215.944 466.964 210.451C467.401 209.128 466.867 207.745 465.776 207.38C460.745 205.693 452.754 198.974 449.572 193.753C445.619 187.266 444.386 177.49 446.655 170.619C448.117 166.192 447.122 164.32 444.121 165.849ZM450.147 168.296C447.773 170.307 447.552 182.517 449.775 188.749C453.101 198.067 467.722 208.154 469.612 202.431C470.049 201.108 469.084 199.589 467.467 199.055C457.625 195.804 452.273 186.296 454.042 175.2C454.973 169.362 453.005 165.875 450.147 168.296ZM457.648 171.548C453.236 176.98 455.984 188.256 463.181 194.253C471.846 201.47 474.783 196.935 466.591 188.982L461.038 183.591L461.056 177.943C461.076 170.682 459.997 168.655 457.648 171.548ZM268.059 120.712C259.692 120.009 247.413 123.978 244.715 128.26C243.411 130.326 241.898 134.791 241.352 138.181L240.361 144.346L236.942 146.309C231.783 149.271 232.727 152.561 238.026 150.091L242.533 147.992L246.8 151.288L251.068 154.583L257.261 154.565C266.722 154.539 274.437 147.485 282.654 131.351L285.95 124.879L279.801 123.03C276.419 122.014 271.135 120.97 268.059 120.712ZM363.909 155.861C361.398 156.868 359.082 158.478 358.765 159.439C357.852 162.204 363.094 163.124 366.365 160.775L369.334 158.642L373.136 163.011C377.796 168.363 380.768 169.462 384.39 167.172C385.915 166.208 388.416 165.833 389.949 166.339C391.481 166.846 393.267 168.636 393.918 170.319C394.569 172.001 396.346 173.788 397.869 174.291C400.988 175.321 410.938 172.111 411.691 169.832C412.49 167.414 407.174 166.459 403.094 168.288L399.313 169.983L397.285 166.37C394.692 161.748 388.873 159.826 384.037 161.995L380.256 163.69L378.229 160.076C375.57 155.338 369.599 153.58 363.909 155.861ZM270.342 124.538L266.54 124.053L265.252 127.952C263.739 132.532 264.539 133.081 269.24 130.685C274.151 128.181 273.816 132.519 268.88 135.354L265.06 137.547L268.288 138.613C272.423 139.979 275.388 137.971 278.445 131.739L280.886 126.764L277.515 125.893C275.662 125.415 272.435 124.804 270.342 124.538ZM258.79 127.143C254.699 131.882 252.819 137.062 254.934 137.761C256.951 138.427 260.774 132.338 261.547 127.23L262.151 123.246L258.79 127.143ZM249.707 128.357C245.927 131.784 243.421 138.658 245.18 140.772C246.984 142.941 249.517 139.257 251.311 131.859L252.849 125.51L249.707 128.357ZM360.201 167.089C355.273 169.063 353.339 172.038 356.339 173.028C357.362 173.366 359.902 172.88 361.984 171.945L365.767 170.249L370.372 175.156L374.978 180.062L380.843 178.836L386.706 177.608L388.584 180.952C389.616 182.792 391.723 184.714 393.265 185.223C397.202 186.523 406.977 184.107 407.794 181.632C408.715 178.844 406.058 178.186 399.646 179.614L394.297 180.803L392.538 177.266C390.339 172.842 386.62 171.555 381.007 173.271L376.653 174.601L373.947 170.94C370.389 166.12 365.814 164.839 360.201 167.089ZM258.405 140.686C257.493 141.459 259.447 142.809 263.34 144.094C266.884 145.265 270.024 145.501 270.315 144.619C270.606 143.737 268.386 142.203 265.38 141.211C262.374 140.218 259.236 139.982 258.405 140.686ZM356.248 179.06C347.45 183.846 349.014 187.615 358.37 184.174L363.749 182.195L365.722 185.713C368.266 190.248 374.116 192.144 378.916 189.992L382.697 188.297L384.725 191.91C385.841 193.897 388.49 196.071 390.615 196.741C394.757 198.044 403.239 195.424 404.189 192.548C405.066 189.894 400.681 189.072 396.636 191.132L393.044 192.964L389.249 188.692C384.513 183.364 381.416 182.299 376.748 184.393L373.093 186.03L370.315 182.269C366.439 177.02 361.902 175.986 356.248 179.06ZM250.376 144.557C245.799 146.89 250.685 150.787 258.158 150.767C260.824 150.758 263.221 150.1 263.484 149.304C264.032 147.644 252.507 143.47 250.376 144.557ZM352.918 190.587L346.896 192.929L348.016 195.181L349.136 197.433L354.588 195.428L360.041 193.423L361.971 196.655C365.363 202.34 368.446 203.634 373.861 201.642L379.097 199.716L381.07 203.233C383.856 208.196 389.776 209.563 396.747 206.85L402.722 204.526L400.307 202.538C398.882 201.365 396.374 201.231 394.189 202.211C389.562 204.286 385.921 203.163 384.384 199.189C383.733 197.506 381.947 195.715 380.415 195.209C378.882 194.703 376.381 195.078 374.856 196.042C373.331 197.006 370.83 197.381 369.297 196.874C367.765 196.368 365.979 194.578 365.328 192.895C363.659 188.578 359.886 187.875 352.918 190.587Z" fill="black" fill-opacity="0.2"/>
<path fill-rule="evenodd" clip-rule="evenodd" d="M487.177 180.116C486.433 180.497 481.692 193.316 476.642 208.608L467.461 236.408L469.843 237.194L472.225 237.981L481.463 210.008C489.859 184.585 491.094 178.119 487.177 180.116ZM495.117 182.738C494.373 183.119 489.632 195.938 484.582 211.23L475.401 239.03L477.783 239.817L480.165 240.603L489.403 212.63C497.799 187.207 499.034 180.741 495.117 182.738ZM503.057 185.361C502.313 185.741 497.572 198.561 492.522 213.852L483.341 241.652L485.723 242.439L488.105 243.225L497.343 215.252C505.739 189.829 506.974 183.364 503.057 185.361ZM500.816 215.404C494.813 233.581 491.869 244.468 492.869 244.799C493.87 245.129 497.989 234.63 503.992 216.453C509.994 198.276 512.938 187.389 511.938 187.059C510.937 186.729 506.818 197.228 500.816 215.404ZM515.72 195.014C514.093 198.125 509.36 210.954 505.199 223.523L497.633 246.372L500.015 247.159L502.397 247.945L511.636 219.972C520.411 193.399 522.167 182.664 515.72 195.014ZM524.855 193.317C521.903 196.951 506.257 249.227 507.953 249.787C510.104 250.497 528.972 196.226 527.56 193.387C526.867 191.993 525.949 191.967 524.855 193.317ZM523.092 222.613L513.514 251.616L515.932 252.415L518.351 253.214L527.275 224.733L536.2 196.254L534.435 194.931L532.67 193.609L523.092 222.613ZM530.617 226.491C524.467 245.113 521.465 256.092 522.7 255.451C523.793 254.883 528.006 244.707 532.061 232.838C542.802 201.409 543.868 197.604 542.11 197.023C541.108 196.692 536.867 207.566 530.617 226.491Z" fill="black" fill-opacity="0.2"/>
</svg>
