<svg width="336" height="150" viewBox="0 0 336 150" fill="none" xmlns="http://www.w3.org/2000/svg">
<path fill-rule="evenodd" clip-rule="evenodd" d="M47.1439 65.8917C43.1308 76.5794 36 96.9358 36 97.7046V98L36.4527 97.905C36.7016 97.8528 38.9426 97.581 41.4325 97.301C43.9224 97.0208 46.2847 96.7381 46.6821 96.6725L47.4048 96.5535L48.2149 93.9676C48.6604 92.5455 49.1562 90.9692 49.3166 90.4647L49.6083 89.5474L52.1464 89.3585C54.4141 89.1897 61.7034 88.7157 62.0735 88.7129C62.1536 88.7124 62.5683 89.6881 62.995 90.8813C63.4219 92.0744 63.9406 93.4475 64.148 93.9324L64.525 94.8142L65.4489 94.7209C65.9571 94.6697 68.1877 94.4804 70.406 94.3004C75.4383 93.8922 76.0031 93.8188 76.0031 93.5726C76.0031 93.4638 75.6613 92.5886 75.2437 91.6275C74.5116 89.9431 69.4166 77.6362 65.2283 67.4353C64.1166 64.7277 62.8513 61.5738 62.4165 60.4265C61.9818 59.2793 61.6028 58.3107 61.5742 58.274C61.4999 58.1787 52.2146 57.2728 51.2186 57.2636L50.3866 57.2559L47.1439 65.8917ZM52.7914 79.7238C52.7914 79.596 55.7632 70.8936 55.8624 70.7309C55.9202 70.6363 56.0955 70.9637 56.2521 71.4585C56.4087 71.9533 57.1016 74.004 57.7918 76.0157C58.4822 78.0274 59.0471 79.6981 59.0471 79.7287C59.0471 79.759 57.6395 79.7841 55.9192 79.7841C54.1989 79.7841 52.7914 79.757 52.7914 79.7238Z" fill="#FFCB00"/>
<path d="M87.5014 59.7655C84.8716 60.0768 82.7658 60.8554 80.4828 62.3606C77.1429 64.5629 74.8397 67.9297 73.6637 72.3286L73.299 73.6931L73.2929 76.6134L73.2868 79.5338L73.5881 80.9514C74.9077 87.1606 78.5806 91.3242 84.0696 92.8329L85.4688 93.2175L88.3497 93.2157L91.2306 93.214L92.6299 92.9136C96.0242 92.1849 100.322 90.3887 102.265 88.8866L102.836 88.4446V82.0284V75.6122H98.3917H93.9469V79.6105V83.6088L92.8912 83.9393C90.1454 84.799 87.7749 84.4621 85.8676 82.9412C85.0603 82.2974 84.4385 81.342 83.9527 79.9987L83.5431 78.8663L83.4549 77.1821L83.3665 75.498L83.6524 74.1784C84.45 70.498 86.7366 68.6034 90.381 68.6034C92.4924 68.6034 94.3171 69.3731 96.019 70.9814C96.5774 71.5091 97.1047 71.9409 97.1906 71.9409C97.429 71.9409 103.406 66.6248 103.463 66.3616C103.516 66.1187 100.814 63.5913 99.5847 62.7338C97.4946 61.2761 94.1823 60.1197 91.0984 59.771C89.3646 59.5751 89.1144 59.5748 87.5014 59.7655Z" fill="#FFCB00"/>
<path fill-rule="evenodd" clip-rule="evenodd" d="M104.977 76.4441V91.6636L105.758 91.5708C106.189 91.5197 107.578 91.4368 108.845 91.3864C110.113 91.3358 111.946 91.2497 112.92 91.1948L114.689 91.095V87.4615V83.828L115.06 83.7273C115.705 83.5519 117.086 83.6142 117.351 83.8308C117.492 83.9456 118.593 85.5037 119.797 87.2935C121.001 89.0832 122.067 90.6073 122.165 90.6802C122.398 90.8531 132.176 90.639 132.368 90.4569C132.451 90.378 132.247 89.9414 131.897 89.4475C130.338 87.2484 127.037 82.4335 126.868 82.1136C126.764 81.9181 126.704 81.7412 126.734 81.7205C126.764 81.6998 127.18 81.4341 127.658 81.1301C128.73 80.4482 130.16 78.8469 130.825 77.5836C131.506 76.2892 131.975 74.3284 131.972 72.7903C131.96 67.8021 129.049 64.0764 123.902 62.4653C121.853 61.8234 120.704 61.7403 108.228 61.3313L104.977 61.2247V76.4441ZM114.689 69.4623L114.977 69.3859C115.472 69.2547 117.014 69.2738 118.615 69.4308L120.154 69.5816L120.811 70.0225C121.238 70.3091 121.584 70.7302 121.801 71.2259L122.133 71.9885L122.065 72.9509L121.996 73.9132L121.553 74.5926C121.305 74.9714 120.8 75.4345 120.41 75.6396L119.71 76.0072L117.2 76.0803L114.689 76.1534V72.8078V69.4623Z" fill="#FFCB00"/>
<path fill-rule="evenodd" clip-rule="evenodd" d="M146.395 61.3572C140.109 62.3479 135.577 65.6554 133.539 70.7386C132.872 72.4042 132.607 73.9815 132.611 76.2797L132.614 78.3656L132.945 79.6576C133.704 82.6103 134.641 84.3191 136.594 86.3112C138.805 88.5672 141.37 89.9194 144.771 90.6219L146.431 90.9647L148.874 90.9589C152.456 90.9504 154.452 90.5096 157.197 89.1211C159.464 87.9748 161.127 86.4893 162.581 84.3126C164.156 81.9546 164.731 80.0235 164.853 76.6805L164.939 74.3279L164.661 72.936C164.094 70.1023 162.891 67.881 160.783 65.7747C158.477 63.471 156.262 62.3499 152.487 61.574C149.926 61.0478 148.648 61.0023 146.395 61.3572ZM143.497 72.0604C144.223 70.8335 145.393 69.9216 146.867 69.4315L147.861 69.101L149.203 69.1665L150.546 69.232L151.445 69.6496C152.717 70.2396 153.609 71.1259 154.261 72.4464C155.546 75.0505 155.395 78.2874 153.884 80.513C151.217 84.4429 145.034 83.8925 143.073 79.5508C141.992 77.1569 142.152 74.3314 143.497 72.0604Z" fill="#FFCB00"/>
<path fill-rule="evenodd" clip-rule="evenodd" d="M178.974 61.0517C178.431 61.0847 175.431 61.2017 172.307 61.3115L166.627 61.5112V76.1128V90.7144L171.401 90.8869C174.027 90.9817 176.231 91.0336 176.299 91.0023C176.367 90.9707 176.422 89.335 176.422 87.367V83.7891H179.349C184.284 83.7891 186.586 83.301 188.831 81.7789C190.928 80.3571 192.23 78.568 193.137 75.8625C193.508 74.7548 193.647 71.5166 193.388 70.007C192.961 67.5124 191.541 64.9141 189.867 63.5658C188.847 62.7434 187.079 61.8682 185.724 61.5142C184.693 61.2449 181.533 60.9076 180.538 60.9607C180.221 60.9777 179.517 61.0186 178.974 61.0517ZM176.422 75.9823V72.4597V68.9372H178.533C181.172 68.9372 182.079 69.1781 182.897 70.0963C184.28 71.6474 183.79 74.5148 181.978 75.4762L181.279 75.8473L178.851 75.9147L176.422 75.9823Z" fill="#FFCB00"/>
<path d="M213.38 58.8516C210.078 59.1394 204.582 59.5611 201.445 59.7672C200.042 59.8595 198.078 60.0073 197.082 60.0958C196.086 60.1844 195.142 60.2575 194.984 60.2582L194.695 60.2597V76.103C194.695 85.7317 194.756 91.984 194.849 92.0426C194.934 92.0955 195.915 92.2106 197.03 92.2984C203.906 92.8397 208.135 93.1983 211.981 93.5663C214.38 93.7959 216.88 94.0287 217.537 94.0836L218.73 94.1836V89.6569V85.1304L218.36 85.0525C218.156 85.0096 215.545 84.8577 212.557 84.7149C209.569 84.5719 206.513 84.411 205.766 84.3575L204.408 84.2597V82.1689V80.0779L209.799 80.2118C212.765 80.2855 215.487 80.3508 215.849 80.3569L216.508 80.3681L216.552 76.2076C216.578 73.7569 216.532 71.9823 216.441 71.8895C216.269 71.7156 209.462 71.7105 206.342 71.8819L204.408 71.9882V70.0456V68.1028L204.943 68.1033C206.466 68.1046 216.628 67.7514 217.372 67.6713L218.236 67.5781V63.0845V58.5909L217.043 58.6136C216.386 58.626 214.738 58.7331 213.38 58.8516Z" fill="#FFCB00"/>
<path d="M239.061 56.026C235.232 56.5579 233.028 57.1773 230.608 58.4012C226.769 60.3433 223.356 63.713 221.514 67.3817C220.58 69.2417 219.806 71.5608 219.534 73.3123C219.303 74.8078 219.446 79.0862 219.779 80.6184C220.347 83.2359 221.853 86.4387 223.505 88.545C225.466 91.0445 228.364 93.4235 231.324 94.9614C237.219 98.025 245.956 97.7726 251.079 94.3903C252.131 93.6958 254.574 91.2733 254.785 90.7154L254.911 90.3806L254.484 89.7966C254.024 89.168 253.659 88.7299 250.346 84.832C249.157 83.4325 248.14 82.2872 248.087 82.2872C248.034 82.2872 247.517 82.7665 246.939 83.3524C245.805 84.5026 244.298 85.4031 242.683 85.8964L241.695 86.1981L239.802 86.1907L237.909 86.1832L236.62 85.734C233.566 84.669 231.529 82.553 230.65 79.5338C230.271 78.2316 230.278 75.4523 230.663 73.9434C231.928 68.9934 236.701 66.0516 241.93 67.0001C243.878 67.3535 245.217 68.0679 246.711 69.5514C247.387 70.2231 247.954 70.7728 247.97 70.7728C247.986 70.7728 249.353 69.2898 251.009 67.477C252.664 65.6644 254.24 63.9399 254.509 63.6449L255 63.1086L254.532 62.4242C253.885 61.4772 252.548 60.2728 250.947 59.1922C248.137 57.2975 244.848 56.2665 240.872 56.0344C240.147 55.992 239.333 55.9883 239.061 56.026Z" fill="#FFCB00"/>
<path d="M3.8 39V11H18.12C21.8 11 24.5467 11.68 26.36 13.04C28.1733 14.3733 29.08 16.1333 29.08 18.32C29.08 19.76 28.6933 21.0267 27.92 22.12C27.1733 23.1867 26.1067 24.04 24.72 24.68C23.36 25.2933 21.7333 25.6 19.84 25.6L20.64 23.68C22.6133 23.68 24.3333 23.9867 25.8 24.6C27.2667 25.1867 28.4 26.0533 29.2 27.2C30.0267 28.32 30.44 29.6933 30.44 31.32C30.44 33.7467 29.4533 35.64 27.48 37C25.5333 38.3333 22.68 39 18.92 39H3.8ZM11.64 33.28H18.28C19.64 33.28 20.6667 33.0533 21.36 32.6C22.08 32.12 22.44 31.4 22.44 30.44C22.44 29.48 22.08 28.7733 21.36 28.32C20.6667 27.84 19.64 27.6 18.28 27.6H11.08V22.12H17.08C18.4133 22.12 19.4133 21.8933 20.08 21.44C20.7467 20.9867 21.08 20.3067 21.08 19.4C21.08 18.4933 20.7467 17.8267 20.08 17.4C19.4133 16.9467 18.4133 16.72 17.08 16.72H11.64V33.28ZM45.5422 39.36C42.9822 39.36 40.7422 38.88 38.8222 37.92C36.9289 36.9333 35.4489 35.6 34.3822 33.92C33.3422 32.2133 32.8222 30.28 32.8222 28.12C32.8222 25.96 33.3289 24.04 34.3422 22.36C35.3822 20.6533 36.8089 19.3333 38.6222 18.4C40.4355 17.44 42.4755 16.96 44.7422 16.96C46.8755 16.96 48.8222 17.4 50.5822 18.28C52.3422 19.1333 53.7422 20.4 54.7822 22.08C55.8222 23.76 56.3422 25.8 56.3422 28.2C56.3422 28.4667 56.3289 28.7733 56.3022 29.12C56.2755 29.4667 56.2489 29.7867 56.2222 30.08H39.0622V26.08H52.1822L49.3022 27.2C49.3289 26.2133 49.1422 25.36 48.7422 24.64C48.3689 23.92 47.8355 23.36 47.1422 22.96C46.4755 22.56 45.6889 22.36 44.7822 22.36C43.8755 22.36 43.0755 22.56 42.3822 22.96C41.7155 23.36 41.1955 23.9333 40.8222 24.68C40.4489 25.4 40.2622 26.2533 40.2622 27.24V28.4C40.2622 29.4667 40.4755 30.3867 40.9022 31.16C41.3555 31.9333 41.9955 32.5333 42.8222 32.96C43.6489 33.36 44.6355 33.56 45.7822 33.56C46.8489 33.56 47.7555 33.4133 48.5022 33.12C49.2755 32.8 50.0355 32.32 50.7822 31.68L54.7822 35.84C53.7422 36.9867 52.4622 37.8667 50.9422 38.48C49.4222 39.0667 47.6222 39.36 45.5422 39.36ZM59.8463 39V17.32H67.0863V23.36L65.6463 21.64C66.4463 20.0933 67.5396 18.9333 68.9263 18.16C70.3129 17.36 71.8596 16.96 73.5663 16.96C75.5129 16.96 77.2196 17.4667 78.6863 18.48C80.1796 19.4667 81.1796 21.0133 81.6863 23.12L79.2063 22.6C79.9796 20.84 81.1396 19.4667 82.6863 18.48C84.2596 17.4667 86.0596 16.96 88.0863 16.96C89.7663 16.96 91.2596 17.3067 92.5663 18C93.8996 18.6667 94.9396 19.7067 95.6863 21.12C96.4596 22.5333 96.8463 24.36 96.8463 26.6V39H89.2463V27.84C89.2463 26.2933 88.9529 25.1733 88.3663 24.48C87.7796 23.76 86.9796 23.4 85.9663 23.4C85.2463 23.4 84.5929 23.5733 84.0063 23.92C83.4196 24.2667 82.9663 24.8 82.6463 25.52C82.3263 26.2133 82.1663 27.12 82.1663 28.24V39H74.5663V27.84C74.5663 26.2933 74.2729 25.1733 73.6863 24.48C73.1263 23.76 72.3263 23.4 71.2863 23.4C70.5396 23.4 69.8729 23.5733 69.2863 23.92C68.7263 24.2667 68.2729 24.8 67.9263 25.52C67.6063 26.2133 67.4463 27.12 67.4463 28.24V39H59.8463ZM101.123 30.52V24.68H112.803V30.52H101.123ZM122.488 39L113.568 17.32H121.368L128.488 35.44H124.568L132.048 17.32H139.288L130.328 39H122.488ZM141.253 39V17.32H148.853V39H141.253ZM145.053 14.92C143.666 14.92 142.546 14.5333 141.693 13.76C140.839 12.9867 140.413 12.0267 140.413 10.88C140.413 9.73333 140.839 8.77333 141.693 8C142.546 7.22667 143.666 6.84 145.053 6.84C146.439 6.84 147.559 7.21333 148.413 7.96C149.266 8.68 149.693 9.61333 149.693 10.76C149.693 11.96 149.266 12.96 148.413 13.76C147.586 14.5333 146.466 14.92 145.053 14.92ZM153.792 39V17.32H161.032V23.48L159.632 21.68C160.458 20.1067 161.592 18.9333 163.032 18.16C164.472 17.36 166.098 16.96 167.912 16.96C169.592 16.96 171.112 17.3067 172.472 18C173.832 18.6667 174.898 19.7067 175.672 21.12C176.472 22.5333 176.872 24.36 176.872 26.6V39H169.272V27.84C169.272 26.2933 168.952 25.1733 168.312 24.48C167.698 23.76 166.832 23.4 165.712 23.4C164.912 23.4 164.178 23.5867 163.512 23.96C162.845 24.3067 162.325 24.8533 161.952 25.6C161.578 26.3467 161.392 27.32 161.392 28.52V39H153.792ZM191.357 39.36C189.383 39.36 187.583 38.9067 185.957 38C184.357 37.0667 183.077 35.7733 182.117 34.12C181.157 32.44 180.677 30.44 180.677 28.12C180.677 25.8267 181.157 23.8533 182.117 22.2C183.077 20.52 184.357 19.2267 185.957 18.32C187.583 17.4133 189.383 16.96 191.357 16.96C193.223 16.96 194.797 17.36 196.077 18.16C197.383 18.96 198.37 20.1867 199.037 21.84C199.703 23.4933 200.037 25.5867 200.037 28.12C200.037 30.7067 199.717 32.8267 199.077 34.48C198.437 36.1333 197.477 37.36 196.197 38.16C194.917 38.96 193.303 39.36 191.357 39.36ZM192.957 33.32C193.81 33.32 194.57 33.12 195.237 32.72C195.93 32.32 196.477 31.7333 196.877 30.96C197.277 30.16 197.477 29.2133 197.477 28.12C197.477 27.0267 197.277 26.1067 196.877 25.36C196.477 24.5867 195.93 24 195.237 23.6C194.57 23.2 193.81 23 192.957 23C192.077 23 191.29 23.2 190.597 23.6C189.93 24 189.397 24.5867 188.997 25.36C188.597 26.1067 188.397 27.0267 188.397 28.12C188.397 29.2133 188.597 30.16 188.997 30.96C189.397 31.7333 189.93 32.32 190.597 32.72C191.29 33.12 192.077 33.32 192.957 33.32ZM197.717 39V35.28L197.757 28.12L197.357 20.96V9.32H204.957V39H197.717ZM220.726 39.36C218.353 39.36 216.246 38.88 214.406 37.92C212.566 36.96 211.113 35.64 210.046 33.96C209.006 32.2533 208.486 30.3067 208.486 28.12C208.486 25.9333 209.006 24 210.046 22.32C211.113 20.64 212.566 19.3333 214.406 18.4C216.246 17.44 218.353 16.96 220.726 16.96C223.1 16.96 225.206 17.44 227.046 18.4C228.913 19.3333 230.366 20.64 231.406 22.32C232.446 24 232.966 25.9333 232.966 28.12C232.966 30.3067 232.446 32.2533 231.406 33.96C230.366 35.64 228.913 36.96 227.046 37.92C225.206 38.88 223.1 39.36 220.726 39.36ZM220.726 33.32C221.606 33.32 222.38 33.12 223.046 32.72C223.74 32.32 224.286 31.7333 224.686 30.96C225.086 30.16 225.286 29.2133 225.286 28.12C225.286 27.0267 225.086 26.1067 224.686 25.36C224.286 24.5867 223.74 24 223.046 23.6C222.38 23.2 221.606 23 220.726 23C219.873 23 219.1 23.2 218.406 23.6C217.74 24 217.193 24.5867 216.766 25.36C216.366 26.1067 216.166 27.0267 216.166 28.12C216.166 29.2133 216.366 30.16 216.766 30.96C217.193 31.7333 217.74 32.32 218.406 32.72C219.1 33.12 219.873 33.32 220.726 33.32ZM241.607 46.76C239.954 44.36 238.674 41.56 237.767 38.36C236.887 35.1333 236.447 31.6933 236.447 28.04C236.447 24.3867 236.887 20.96 237.767 17.76C238.674 14.5333 239.954 11.72 241.607 9.32H248.887C247.154 12.4133 245.887 15.48 245.087 18.52C244.287 21.56 243.887 24.7333 243.887 28.04C243.887 31.3467 244.287 34.52 245.087 37.56C245.887 40.6 247.154 43.6667 248.887 46.76H241.607ZM264.493 39V34.96L263.973 33.96V26.52C263.973 25.32 263.599 24.4 262.853 23.76C262.133 23.0933 260.973 22.76 259.372 22.76C258.333 22.76 257.279 22.9333 256.213 23.28C255.146 23.6 254.239 24.0533 253.493 24.64L250.933 19.48C252.159 18.68 253.626 18.0667 255.333 17.64C257.066 17.1867 258.786 16.96 260.493 16.96C264.013 16.96 266.733 17.7733 268.653 19.4C270.599 21 271.573 23.52 271.573 26.96V39H264.493ZM258.093 39.36C256.359 39.36 254.893 39.0667 253.693 38.48C252.493 37.8933 251.573 37.0933 250.933 36.08C250.319 35.0667 250.013 33.9333 250.013 32.68C250.013 31.3467 250.346 30.2 251.013 29.24C251.706 28.2533 252.759 27.5067 254.173 27C255.586 26.4667 257.413 26.2 259.653 26.2H264.773V30.16H260.693C259.466 30.16 258.599 30.36 258.093 30.76C257.613 31.16 257.373 31.6933 257.373 32.36C257.373 33.0267 257.626 33.56 258.133 33.96C258.639 34.36 259.333 34.56 260.213 34.56C261.039 34.56 261.786 34.36 262.453 33.96C263.146 33.5333 263.653 32.8933 263.973 32.04L265.013 34.84C264.613 36.3333 263.826 37.4667 262.653 38.24C261.506 38.9867 259.986 39.36 258.093 39.36ZM273.85 46.76C275.61 43.6667 276.876 40.6 277.65 37.56C278.45 34.52 278.85 31.3467 278.85 28.04C278.85 24.7333 278.45 21.56 277.65 18.52C276.876 15.48 275.61 12.4133 273.85 9.32H281.13C282.81 11.72 284.09 14.5333 284.97 17.76C285.85 20.96 286.29 24.3867 286.29 28.04C286.29 31.6933 285.85 35.1333 284.97 38.36C284.09 41.56 282.81 44.36 281.13 46.76H273.85ZM290.295 45.28L293.295 34.88L294.375 39.2C293.042 39.2 291.949 38.8133 291.095 38.04C290.242 37.24 289.815 36.1733 289.815 34.84C289.815 33.4533 290.242 32.36 291.095 31.56C291.975 30.76 293.069 30.36 294.375 30.36C295.682 30.36 296.762 30.7733 297.615 31.6C298.469 32.4 298.895 33.48 298.895 34.84C298.895 35.2133 298.869 35.5867 298.815 35.96C298.762 36.3333 298.642 36.7867 298.455 37.32C298.269 37.8533 297.975 38.56 297.575 39.44L295.055 45.28H290.295ZM16.68 89V84.96L16.16 83.96V76.52C16.16 75.32 15.7867 74.4 15.04 73.76C14.32 73.0933 13.16 72.76 11.56 72.76C10.52 72.76 9.46667 72.9333 8.4 73.28C7.33333 73.6 6.42667 74.0533 5.68 74.64L3.12 69.48C4.34667 68.68 5.81333 68.0667 7.52 67.64C9.25333 67.1867 10.9733 66.96 12.68 66.96C16.2 66.96 18.92 67.7733 20.84 69.4C22.7867 71 23.76 73.52 23.76 76.96V89H16.68ZM10.28 89.36C8.54667 89.36 7.08 89.0667 5.88 88.48C4.68 87.8933 3.76 87.0933 3.12 86.08C2.50667 85.0667 2.2 83.9333 2.2 82.68C2.2 81.3467 2.53333 80.2 3.2 79.24C3.89333 78.2533 4.94667 77.5067 6.36 77C7.77333 76.4667 9.6 76.2 11.84 76.2H16.96V80.16H12.88C11.6533 80.16 10.7867 80.36 10.28 80.76C9.8 81.16 9.56 81.6933 9.56 82.36C9.56 83.0267 9.81333 83.56 10.32 83.96C10.8267 84.36 11.52 84.56 12.4 84.56C13.2267 84.56 13.9733 84.36 14.64 83.96C15.3333 83.5333 15.84 82.8933 16.16 82.04L17.2 84.84C16.8 86.3333 16.0133 87.4667 14.84 88.24C13.6933 88.9867 12.1733 89.36 10.28 89.36ZM2.2 139V134.04L12.68 124.24C13.4267 123.547 13.9733 122.933 14.32 122.4C14.6933 121.867 14.9333 121.387 15.04 120.96C15.1733 120.507 15.24 120.093 15.24 119.72C15.24 118.813 14.9333 118.107 14.32 117.6C13.7333 117.093 12.84 116.84 11.64 116.84C10.6267 116.84 9.68 117.067 8.8 117.52C7.92 117.973 7.2 118.653 6.64 119.56L0.76 116.28C1.8 114.52 3.30667 113.107 5.28 112.04C7.25333 110.973 9.61333 110.44 12.36 110.44C14.52 110.44 16.4133 110.787 18.04 111.48C19.6667 112.173 20.9333 113.16 21.84 114.44C22.7733 115.72 23.24 117.227 23.24 118.96C23.24 119.867 23.12 120.773 22.88 121.68C22.64 122.56 22.1733 123.507 21.48 124.52C20.8133 125.507 19.8133 126.613 18.48 127.84L10.16 135.52L8.84 132.72H24V139H2.2ZM38.6653 139.56C36.2653 139.56 34.132 138.987 32.2653 137.84C30.4253 136.693 28.972 135.04 27.9053 132.88C26.8386 130.72 26.3053 128.093 26.3053 125C26.3053 121.907 26.8386 119.28 27.9053 117.12C28.972 114.96 30.4253 113.307 32.2653 112.16C34.132 111.013 36.2653 110.44 38.6653 110.44C41.0386 110.44 43.1453 111.013 44.9853 112.16C46.852 113.307 48.3186 114.96 49.3853 117.12C50.452 119.28 50.9853 121.907 50.9853 125C50.9853 128.093 50.452 130.72 49.3853 132.88C48.3186 135.04 46.852 136.693 44.9853 137.84C43.1453 138.987 41.0386 139.56 38.6653 139.56ZM38.6653 133.08C39.5186 133.08 40.2653 132.813 40.9053 132.28C41.572 131.747 42.092 130.893 42.4653 129.72C42.8386 128.52 43.0253 126.947 43.0253 125C43.0253 123.027 42.8386 121.453 42.4653 120.28C42.092 119.107 41.572 118.253 40.9053 117.72C40.2653 117.187 39.5186 116.92 38.6653 116.92C37.812 116.92 37.052 117.187 36.3853 117.72C35.7453 118.253 35.2253 119.107 34.8253 120.28C34.452 121.453 34.2653 123.027 34.2653 125C34.2653 126.947 34.452 128.52 34.8253 129.72C35.2253 130.893 35.7453 131.747 36.3853 132.28C37.052 132.813 37.812 133.08 38.6653 133.08ZM53.2547 139V134.04L63.7347 124.24C64.4814 123.547 65.028 122.933 65.3747 122.4C65.748 121.867 65.988 121.387 66.0947 120.96C66.228 120.507 66.2947 120.093 66.2947 119.72C66.2947 118.813 65.988 118.107 65.3747 117.6C64.788 117.093 63.8947 116.84 62.6947 116.84C61.6814 116.84 60.7347 117.067 59.8547 117.52C58.9747 117.973 58.2547 118.653 57.6947 119.56L51.8147 116.28C52.8547 114.52 54.3614 113.107 56.3347 112.04C58.308 110.973 60.668 110.44 63.4147 110.44C65.5747 110.44 67.468 110.787 69.0947 111.48C70.7214 112.173 71.988 113.16 72.8947 114.44C73.828 115.72 74.2947 117.227 74.2947 118.96C74.2947 119.867 74.1747 120.773 73.9347 121.68C73.6947 122.56 73.228 123.507 72.5347 124.52C71.868 125.507 70.868 126.613 69.5347 127.84L61.2147 135.52L59.8947 132.72H75.0547V139H53.2547ZM87.16 139.56C85.24 139.56 83.3067 139.32 81.36 138.84C79.4133 138.36 77.7333 137.68 76.32 136.8L79.16 130.84C80.3067 131.587 81.5467 132.16 82.88 132.56C84.24 132.96 85.5867 133.16 86.92 133.16C88.2533 133.16 89.3333 132.907 90.16 132.4C90.9867 131.867 91.4 131.133 91.4 130.2C91.4 129.64 91.24 129.147 90.92 128.72C90.6 128.267 90.0533 127.933 89.28 127.72C88.5067 127.48 87.4 127.36 85.96 127.36H78.36L79.76 111H97.6V117.12H82.56L86.6 113.64L85.68 124.68L81.64 121.2H87.84C90.6133 121.2 92.84 121.6 94.52 122.4C96.2 123.173 97.4267 124.227 98.2 125.56C98.9733 126.867 99.36 128.347 99.36 130C99.36 131.653 98.92 133.213 98.04 134.68C97.1867 136.12 95.8667 137.293 94.08 138.2C92.2933 139.107 89.9867 139.56 87.16 139.56ZM103.297 128.8L101.817 111H110.857L109.337 128.8H103.297ZM106.337 139.36C105.004 139.36 103.91 138.947 103.057 138.12C102.204 137.293 101.777 136.307 101.777 135.16C101.777 133.987 102.204 133.013 103.057 132.24C103.91 131.44 105.004 131.04 106.337 131.04C107.67 131.04 108.75 131.44 109.577 132.24C110.43 133.013 110.857 133.987 110.857 135.16C110.857 136.307 110.43 137.293 109.577 138.12C108.75 138.947 107.67 139.36 106.337 139.36Z" fill="white"/>
</svg>
