<svg width="34" height="30" viewBox="0 0 34 30" fill="none" xmlns="http://www.w3.org/2000/svg">
<path fill-rule="evenodd" clip-rule="evenodd" d="M8.6184 6.62948C4.05552 10.2757 0.249833 13.3265 0.161195 13.409L0 13.559L1.74072 15.524C2.69818 16.6048 3.68489 17.7127 3.93339 17.9861L4.38535 18.483L4.74588 18.2034L5.10641 17.9238L5.14096 23.9619L5.17551 30H17H28.8245L28.859 23.9619L28.8936 17.9238L29.2541 18.2034L29.6147 18.483L30.0666 17.9861C30.3151 17.7127 31.3018 16.6048 32.2593 15.524L34 13.559L33.8388 13.409C33.3996 13.0003 17.0739 0 17 0C16.9528 0 13.1812 2.98323 8.6184 6.62948ZM9.93188 8.09555C6.08102 11.1724 2.92649 13.7236 2.92197 13.7649C2.90762 13.8951 4.4999 15.655 4.63199 15.655C4.70136 15.655 7.48592 13.4738 10.8197 10.8079C14.1536 8.14192 16.9348 5.9607 17 5.9607C17.0653 5.9607 19.8464 8.14192 23.1803 10.8079C26.5141 13.4738 29.2986 15.655 29.368 15.655C29.5 15.655 31.0922 13.8952 31.0782 13.7649C31.0694 13.6835 17.1714 2.57175 17.0235 2.52786C16.9741 2.51319 13.7828 5.01865 9.93188 8.09555ZM11.9834 12.3996L7.16619 16.268V22.0859V27.9039H9.89042H12.6147V23.0568V18.2096H17H21.3853V23.0568V27.9039H24.1096H26.8338V22.0859V16.2679L21.9901 12.3916C19.326 10.2596 17.0686 8.51882 16.9736 8.52314C16.8784 8.5276 14.633 10.2719 11.9834 12.3996ZM14.608 24.0393V27.9039H17H19.392V24.0393V20.1747H17H14.608V24.0393Z" fill="#3E5943"/>
</svg>
