<svg width="42" height="42" viewBox="0 0 42 42" fill="none" xmlns="http://www.w3.org/2000/svg">
<path fill-rule="evenodd" clip-rule="evenodd" d="M10.1835 0.162406C10.0234 0.339197 9.99262 0.681235 10.1189 0.880579C10.1732 0.966355 10.5354 1.04085 11.2548 1.11438C11.8358 1.17369 12.6486 1.30946 13.0612 1.41601C16.4638 2.29499 19.1603 4.99063 20.1389 8.49146L20.3839 9.36786L20.3824 11.0106L20.381 12.6533L20.1374 13.5297C18.9774 17.7042 15.4455 20.6026 11.133 20.919C10.5927 20.9587 10.2449 21.0264 10.1634 21.1078C9.98596 21.2851 10.0051 21.6989 10.1989 21.8742L10.3613 22.0211L16.0388 22.0206L21.7161 22.0201L22.5599 21.8919C25.0071 21.5204 26.9743 20.5304 28.742 18.7805C30.9073 16.6371 31.9747 14.0717 31.9747 11.0106C31.9747 8.58638 31.326 6.55431 29.9255 4.59052C28.2495 2.24056 25.6669 0.6411 22.7441 0.142782L21.9069 0H16.1187H10.3305L10.1835 0.162406ZM15.8097 1.27936C15.8097 1.29925 16.1595 1.54761 16.5869 1.83131C17.5535 2.47285 18.8179 3.6833 19.4712 4.59265C20.4035 5.89003 21.1584 7.7137 21.4115 9.27907C21.5476 10.1212 21.5475 11.8748 21.4111 12.7421C21.1594 14.3438 20.3402 16.2698 19.3548 17.5773C18.6631 18.495 17.5219 19.569 16.5798 20.1888C16.1485 20.4725 15.8101 20.7193 15.828 20.7372C15.8903 20.7994 17.1979 20.4263 17.8291 20.1661C18.6463 19.8292 19.4461 19.3592 20.1174 18.8211C22.325 17.0522 23.6124 14.7112 23.9055 11.9332L24.0029 11.0106L23.9044 10.0783C23.4721 5.98016 20.665 2.604 16.7458 1.46858C15.968 1.24331 15.8097 1.21125 15.8097 1.27936ZM19.2736 1.26897C19.2736 1.29099 19.5834 1.51111 19.962 1.75823C22.6851 3.53573 24.4436 6.26102 24.9082 9.42363C25.0832 10.6153 25.0832 11.4059 24.9082 12.5975C24.4271 15.8726 22.4974 18.7482 19.602 20.5046C19.4163 20.6173 19.2781 20.7233 19.2949 20.7402C19.3118 20.7571 19.574 20.7129 19.8774 20.6422C21.6854 20.2205 23.6606 19.0369 24.8899 17.6384C29.1685 12.7714 27.8836 5.37298 22.2236 2.2862C21.3578 1.81408 19.2736 1.09537 19.2736 1.26897ZM22.7375 1.26773C22.762 1.29259 23.1617 1.56457 23.6257 1.87215C26.6474 3.87439 28.5108 7.36012 28.5108 11.0106C28.5108 14.6662 26.6181 18.1914 23.5979 20.1613C23.1186 20.4741 22.7614 20.7415 22.8043 20.7558C22.9966 20.8199 24.5584 20.2839 25.4465 19.849C28.0272 18.5852 29.8888 16.2637 30.6549 13.3535L30.8627 12.5645V11.0106V9.45666L30.6549 8.66763C29.7566 5.25551 27.2617 2.58606 24.0254 1.57451C23.2642 1.33654 22.6652 1.19385 22.7375 1.26773ZM0 33.2093V39.0698H1.02141H2.04283V36.4947V33.9197H4.57416H7.10548V36.4947V39.0698H8.1269H9.14831V33.2093V27.3488H8.12832H7.10842L7.0847 29.7241L7.06107 32.0994H4.57416H2.08724L2.06361 29.7241L2.0399 27.3488H1.01999H0V33.2093ZM25.1357 29.4218V31.4947L24.7633 31.1406C24.5586 30.9459 24.129 30.6624 23.8085 30.5106L23.2261 30.2347L22.2935 30.2391L21.3609 30.2436L20.8761 30.4448C19.7544 30.9108 18.9955 31.7532 18.5912 32.9814L18.3554 33.6977L18.3482 34.7188L18.341 35.74L18.5574 36.4004C19.1048 38.0715 20.3262 39.0859 21.9556 39.2225C23.0694 39.3158 24.1452 38.9693 24.864 38.2857C25.0617 38.0977 25.2437 37.9642 25.2683 37.9889C25.293 38.0136 25.3133 38.2669 25.3133 38.5518V39.0698H26.2015H27.0897V33.2093V27.3488H26.1127H25.1357V29.4218ZM36.2615 30.3272C35.5566 30.517 34.928 30.8695 34.3938 31.3746C33.8499 31.8888 33.5729 32.3188 33.2928 33.0832L33.1003 33.6089L33.0926 34.7188L33.0849 35.8288L33.2878 36.4156C33.8091 37.9232 34.8899 38.8781 36.4341 39.1955C37.2804 39.3694 37.7914 39.3709 38.5901 39.2017C39.5083 39.0073 40.11 38.6772 40.7789 38.0011L41.3674 37.4062L41.6516 36.6696L41.9358 35.9329L41.9855 35.1651C42.0499 34.1718 41.9006 33.3279 41.5199 32.534L41.2175 31.903L40.6518 31.374C40.0431 30.8048 39.544 30.5289 38.7475 30.3215C38.1207 30.1583 36.8781 30.1611 36.2615 30.3272ZM31.4662 30.4259C31.2296 30.5097 30.9425 30.7238 30.689 31.0057L30.2871 31.4526V30.9546V30.4567H29.3536H28.4202L28.4433 34.741L28.4663 39.0254H29.4433H30.4204L30.4648 36.2283L30.5092 33.4313L30.6689 33.0774C30.7566 32.8826 30.9147 32.6317 31.02 32.5195C31.2735 32.2498 32.0764 32.0202 32.5188 32.0908L32.8629 32.1459V31.2125V30.2791L32.3522 30.2861C32.0712 30.2899 31.6726 30.3529 31.4662 30.4259ZM10.0603 30.6121C10.0847 30.6975 10.7125 32.3258 11.4554 34.2304C12.1982 36.1351 12.9018 37.9565 13.0188 38.2782L13.2317 38.8629L12.6477 40.2317C12.3265 40.9845 12.0283 41.6904 11.9849 41.8002L11.9061 42L12.9031 41.9997L13.9001 41.9995L15.0294 39.1805C16.4106 35.7329 18.4743 30.524 18.4743 30.4851C18.4743 30.4694 18.0044 30.4567 17.43 30.4567H16.3859L15.8571 32.0328C15.3705 33.4831 14.4465 36.1802 14.3285 36.4947L14.2785 36.6279L14.162 36.3615C14.098 36.215 13.6181 34.8264 13.0957 33.2759L12.1458 30.4567H11.0808H10.0158L10.0603 30.6121ZM21.9793 31.9244C21.4213 32.131 20.9959 32.5398 20.6877 33.1657L20.4062 33.7373L20.3615 34.5215L20.3168 35.3057L20.4608 35.8009C20.6733 36.5318 21.1116 37.114 21.6684 37.4048L22.1361 37.649L22.7255 37.6482L23.3149 37.6473L23.759 37.4371C24.3104 37.1759 24.7113 36.7614 24.9707 36.1839L25.1701 35.74L25.2056 34.8964L25.2411 34.0529L25.0555 33.5602C24.7919 32.8608 24.4163 32.3931 23.8866 32.1049L23.4279 31.8553L22.8829 31.8236C22.5433 31.8038 22.2027 31.8418 21.9793 31.9244ZM36.8592 31.8662C36.1669 32.0932 35.6502 32.5628 35.3321 33.2537L35.1277 33.6977V34.7632V35.8288L35.3382 36.2942C35.5685 36.8034 36.0892 37.3296 36.5558 37.5245C36.9891 37.7055 38.066 37.6822 38.5063 37.4823C39.5396 37.013 40.1403 35.5349 39.8802 34.1013C39.6274 32.7069 38.8171 31.8913 37.6172 31.8235C37.3227 31.8068 36.9816 31.8261 36.8592 31.8662Z" fill="black"/>
</svg>
