<svg width="440" height="17" viewBox="0 0 440 17" fill="none" xmlns="http://www.w3.org/2000/svg">
<path d="M-71.8846 5.50111L-71.3713 4.09168L-71.6125 4.00382L-71.8692 4.00119L-71.8846 5.50111ZM57.6647 5.75309L56.4903 4.81988L57.6647 5.75309ZM173.761 6.70963L173.384 8.16156L173.761 6.70963ZM177.628 6.96184L177.438 5.47402L177.628 6.96184ZM251.124 10.6482L250.859 12.1245L251.124 10.6482ZM285.945 11.7804L285.778 13.2712L285.945 11.7804ZM297.573 9.99549L297.105 11.4206L297.573 9.99549ZM463.988 10.4036L463.233 9.10767L463.988 10.4036ZM471.725 10.697L470.394 11.3881L471.725 10.697ZM510.242 12.2671L510.837 13.6439L510.852 13.6373L510.867 13.6304L510.242 12.2671ZM511.915 11.4991L511.931 9.99913L511.595 9.99568L511.29 10.1358L511.915 11.4991ZM-71.9846 5.50008L-72 7L-71.9 7.00103L-71.8846 5.50111L-71.8692 4.00119L-71.9692 4.00016L-71.9846 5.50008ZM-71.8846 5.50111L-72.3979 6.91054C-69.7276 7.88312 -67.1882 8.03879 -65.2743 6.59365L-66.1782 5.39657L-67.0821 4.19949C-67.7685 4.71778 -69.0334 4.94314 -71.3713 4.09168L-71.8846 5.50111ZM-66.1782 5.39657L-65.2743 6.59365C-63.9956 5.62811 -62.7188 4.71797 -61.444 3.863L-62.2795 2.61722L-63.1149 1.37144C-64.4382 2.25885 -65.7605 3.20161 -67.0821 4.19949L-66.1782 5.39657ZM-62.2795 2.61722L-61.444 3.863C-61.2786 3.75208 -61.18 3.73095 -61.1398 3.72642C-61.1074 3.72276 -61.0558 3.72221 -60.9593 3.76576C-60.717 3.87517 -60.2746 4.23067 -59.6991 5.1514L-58.4271 4.35638L-57.1551 3.56135C-57.8489 2.45146 -58.6832 1.50179 -59.7249 1.03148C-60.8985 0.501641 -62.0913 0.684943 -63.1149 1.37144L-62.2795 2.61722ZM-58.4271 4.35638L-59.6991 5.1514C-58.375 7.2698 -56.9793 8.92535 -55.4846 10.012L-54.6026 8.79878L-53.7205 7.58555C-54.7868 6.81026 -55.9408 5.5042 -57.1551 3.56135L-58.4271 4.35638ZM-54.6026 8.79878L-55.4846 10.012C-54.6367 10.6285 -53.6728 10.9989 -52.6233 10.9632C-51.5815 10.9278 -50.6363 10.4984 -49.806 9.84793L-50.731 8.66709L-51.656 7.48626C-52.1262 7.85461 -52.4766 7.9565 -52.7253 7.96496C-52.9663 7.97316 -53.2879 7.90003 -53.7205 7.58555L-54.6026 8.79878ZM-50.731 8.66709L-49.806 9.84793C-48.6966 8.97889 -47.7223 8.64746 -46.8573 8.65439L-46.8453 7.15444L-46.8332 5.65449C-48.5481 5.64074 -50.1643 6.31775 -51.656 7.48626L-50.731 8.66709ZM-46.8453 7.15444L-46.8573 8.65439C-45.3898 8.66615 -43.931 8.4219 -42.4871 7.93266L-42.9685 6.51199L-43.4498 5.09133C-44.595 5.47936 -45.7208 5.6634 -46.8332 5.65449L-46.8453 7.15444ZM-42.9685 6.51199L-42.4871 7.93266C-41.0539 7.44706 -39.6412 6.73502 -38.249 5.81147L-39.0782 4.5615L-39.9074 3.31154C-41.1131 4.11137 -42.2939 4.69966 -43.4498 5.09133L-42.9685 6.51199ZM-39.0782 4.5615L-38.249 5.81147C-37.8536 5.54915 -37.59 5.52685 -37.3946 5.56074C-37.1637 5.60082 -36.792 5.76337 -36.2886 6.27933L-35.2149 5.23187L-34.1412 4.18441C-34.9145 3.39177 -35.8249 2.78829 -36.8817 2.60491C-37.9742 2.41535 -39.0039 2.71217 -39.9074 3.31154L-39.0782 4.5615ZM-35.2149 5.23187L-36.2886 6.27933C-34.9672 7.6338 -33.6339 8.82517 -32.2877 9.84869L-31.3799 8.65461L-30.472 7.46054C-31.6859 6.5376 -32.9093 5.44715 -34.1412 4.18441L-35.2149 5.23187ZM-31.3799 8.65461L-32.2877 9.84869C-31.3696 10.5467 -30.2699 10.8924 -29.0912 10.6022C-27.9942 10.3321 -27.0868 9.57084 -26.3351 8.64452L-27.4998 7.69932L-28.6646 6.75412C-29.2195 7.43789 -29.6121 7.64086 -29.8084 7.68921C-29.923 7.71742 -30.11 7.73577 -30.472 7.46054L-31.3799 8.65461ZM-27.4998 7.69932L-26.3351 8.64452C-25.7858 7.96767 -25.4402 7.84822 -25.3311 7.83206C-25.2952 7.82674 -25.0948 7.79204 -24.663 8.20691L-23.6237 7.12526L-22.5845 6.04361C-23.4302 5.2311 -24.5145 4.6784 -25.7706 4.86443C-26.9536 5.03962 -27.9072 5.82089 -28.6646 6.75412L-27.4998 7.69932ZM-23.6237 7.12526L-24.663 8.20691C-23.817 9.01969 -22.732 9.5723 -21.4753 9.3848C-20.2923 9.2083 -19.339 8.42553 -18.5821 7.49115L-19.7476 6.54695L-20.9131 5.60274C-21.4628 6.28128 -21.8089 6.40136 -21.918 6.41764C-21.9533 6.42291 -22.153 6.45821 -22.5845 6.04361L-23.6237 7.12526ZM-19.7476 6.54695L-18.5821 7.49115C-17.3459 5.96517 -16.1648 4.8871 -15.0506 4.19732L-15.8402 2.92194L-16.6297 1.64655C-18.1121 2.56428 -19.5361 3.90288 -20.9131 5.60274L-19.7476 6.54695ZM-15.8402 2.92194L-15.0506 4.19732C-14.1379 3.63227 -13.3761 3.60231 -12.5908 3.96168L-11.9666 2.59772L-11.3424 1.23376C-13.1252 0.417921 -14.9458 0.604101 -16.6297 1.64655L-15.8402 2.92194ZM-11.9666 2.59772L-12.5908 3.96168C-11.7372 4.3523 -10.6575 5.40813 -9.43762 7.51685L-8.13924 6.76571L-6.84085 6.01458C-8.15605 3.74118 -9.62794 2.01836 -11.3424 1.23376L-11.9666 2.59772ZM-8.13924 6.76571L-9.43762 7.51685C-8.13212 9.77349 -6.58238 11.5122 -4.65813 11.9747L-4.30757 10.5163L-3.957 9.05782C-4.60653 8.90169 -5.61124 8.14004 -6.84085 6.01458L-8.13924 6.76571ZM-4.30757 10.5163L-4.65813 11.9747C-2.57269 12.476 -0.747243 11.3865 0.717581 9.68646L-0.418767 8.70733L-1.55512 7.7282C-2.70158 9.05874 -3.46866 9.1752 -3.957 9.05782L-4.30757 10.5163ZM-0.418767 8.70733L0.717581 9.68646C1.24803 9.07083 1.55513 9.00998 1.62493 9.00549C1.65749 9.0034 1.89426 8.9921 2.36426 9.48899L3.454 8.45823L4.54374 7.42747C3.73754 6.57514 2.69073 5.93074 1.43237 6.01168C0.211249 6.09022 -0.77994 6.82853 -1.55512 7.7282L-0.418767 8.70733ZM3.454 8.45823L2.36426 9.48899C3.13136 10.3 4.03693 10.9257 5.09396 11.1286C6.19158 11.3394 7.23034 11.0523 8.14121 10.4529L7.31659 9.19986L6.49196 7.94686C6.10399 8.2022 5.84955 8.21893 5.65964 8.18246C5.42914 8.13821 5.05285 7.9657 4.54374 7.42747L3.454 8.45823ZM7.31659 9.19986L8.14121 10.4529C9.54904 9.52633 10.9343 8.34824 12.2998 6.93427L11.2208 5.89228L10.1418 4.85028C8.89937 6.13681 7.68184 7.16378 6.49196 7.94686L7.31659 9.19986ZM11.2208 5.89228L12.2998 6.93427C12.5297 6.69618 12.6927 6.59916 12.779 6.56271C12.8472 6.53395 12.8654 6.5417 12.8715 6.54292C12.9327 6.5551 13.2821 6.68282 13.844 7.50641L15.0831 6.661L16.3222 5.81559C15.6131 4.77645 14.6834 3.84469 13.4571 3.60063C12.117 3.33391 10.9826 3.97955 10.1418 4.85028L11.2208 5.89228ZM15.0831 6.661L13.844 7.50641C15.1884 9.47685 16.7393 10.9377 18.5695 11.3773L18.9198 9.91878L19.2702 8.46027C18.5266 8.28164 17.5196 7.5706 16.3222 5.81559L15.0831 6.661ZM18.9198 9.91878L18.5695 11.3773C20.7187 11.8936 22.5527 10.6491 23.9863 8.84L22.8107 7.9084L21.635 6.97679C20.4546 8.46648 19.6947 8.56225 19.2702 8.46027L18.9198 9.91878ZM22.8107 7.9084L23.9863 8.84C25.1629 7.35522 25.9019 7.29409 26.3093 7.40429L26.7009 5.95633L27.0926 4.50837C24.927 3.92256 23.0725 5.16281 21.635 6.97679L22.8107 7.9084ZM26.7009 5.95633L26.3093 7.40429C27.4125 7.70272 28.5465 8.23227 29.7121 9.02061L30.5524 7.77812L31.3928 6.53564C29.996 5.59091 28.5624 4.90593 27.0926 4.50837L26.7009 5.95633ZM30.5524 7.77812L29.7121 9.02061C30.2056 9.35441 30.7724 9.58743 31.4008 9.63594C32.0345 9.68487 32.6336 9.53847 33.1724 9.26112C34.1957 8.7345 35.0264 7.72641 35.7316 6.54385L34.4432 5.77565L33.1549 5.00744C32.5473 6.0264 32.0733 6.45281 31.7996 6.59368C31.69 6.65009 31.6426 6.64568 31.6317 6.64484C31.6156 6.6436 31.5399 6.6351 31.3928 6.53564L30.5524 7.77812ZM34.4432 5.77565L35.7316 6.54385C36.0105 6.07601 36.2125 5.87669 36.3039 5.81036C36.355 5.77324 36.2332 5.86597 36.0362 5.81774C35.9104 5.78696 35.9723 5.74717 36.1874 6.0128C36.392 6.26555 36.6465 6.6865 36.9334 7.33089L38.3037 6.72066L39.674 6.11044C39.3305 5.33907 38.9512 4.65881 38.5189 4.12493C38.097 3.60393 37.5187 3.09206 36.7495 2.90378C35.9091 2.69805 35.1406 2.94785 34.5419 3.38235C33.9834 3.78765 33.5322 4.37452 33.1549 5.00744L34.4432 5.77565ZM38.3037 6.72066L36.9334 7.33089C37.5861 8.79634 38.3547 10.0485 39.335 10.7524C39.8614 11.1304 40.4982 11.3848 41.2164 11.3646C41.9283 11.3445 42.5478 11.0594 43.0556 10.6717L42.1456 9.47934L41.2355 8.28696C41.0932 8.39554 41.065 8.36764 41.1317 8.36575C41.2047 8.36369 41.1987 8.39733 41.0848 8.31556C40.7845 8.09994 40.2823 7.47652 39.674 6.11044L38.3037 6.72066ZM42.1456 9.47934L43.0556 10.6717C43.5531 10.292 43.9673 10.1285 44.3037 10.0801C44.6268 10.0335 44.9704 10.0789 45.3691 10.2715L46.0215 8.92079L46.6739 7.57009C45.789 7.14265 44.8447 6.97111 43.8758 7.11073C42.9203 7.24843 42.0383 7.67424 41.2355 8.28696L42.1456 9.47934ZM46.0215 8.92079L45.3691 10.2715C46.9158 11.0186 48.5284 11.2679 50.1629 10.9608L49.8859 9.48659L49.609 8.01238C48.6583 8.19098 47.6946 8.0631 46.6739 7.57009L46.0215 8.92079ZM49.8859 9.48659L50.1629 10.9608C51.4767 10.714 52.7905 10.4378 54.1043 10.1323L53.7645 8.67125L53.4247 7.21023C52.1522 7.50616 50.8803 7.77353 49.609 8.01238L49.8859 9.48659ZM53.7645 8.67125L54.1043 10.1323C55.8707 9.72148 57.4363 8.45152 58.839 6.68629L57.6647 5.75309L56.4903 4.81988C55.2791 6.34408 54.2446 7.01957 53.4247 7.21023L53.7645 8.67125ZM57.6647 5.75309L58.839 6.68629C60.0045 5.21966 60.698 5.22853 61.0761 5.3555L61.5536 3.93351L62.031 2.51153C59.8379 1.77517 57.9388 2.99708 56.4903 4.81988L57.6647 5.75309ZM61.5536 3.93351L61.0761 5.3555C62.357 5.78558 63.6379 6.22274 64.9187 6.66696L65.4103 5.24978L65.9018 3.8326C64.6116 3.38513 63.3214 2.94478 62.031 2.51153L61.5536 3.93351ZM65.4103 5.24978L64.9187 6.66696C66.1239 7.08493 67.3352 7.61969 68.5528 8.27415L69.263 6.9529L69.9731 5.63164C68.6248 4.90697 67.2676 4.30632 65.9018 3.8326L65.4103 5.24978ZM69.263 6.9529L68.5528 8.27415C70.0754 9.09247 71.6729 9.43864 73.309 9.23637L73.125 7.7477L72.941 6.25903C71.9937 6.37615 71.0165 6.19245 69.9731 5.63164L69.263 6.9529ZM73.125 7.7477L73.309 9.23637C74.9663 9.03147 76.5259 8.23593 77.9821 7.00677L77.0146 5.86051L76.0471 4.71425C74.9006 5.68195 73.8671 6.14453 72.941 6.25903L73.125 7.7477ZM77.0146 5.86051L77.9821 7.00677C78.374 6.67596 78.528 6.73422 78.5663 6.74452C78.7148 6.78439 79.0964 6.98514 79.6514 7.76613L80.8741 6.89726L82.0969 6.02839C81.3802 5.01978 80.4827 4.15294 79.3446 3.84723C78.0964 3.51194 76.9565 3.94662 76.0471 4.71425L77.0146 5.86051ZM80.8741 6.89726L79.6514 7.76613C80.3676 8.77394 81.2539 9.63404 82.3681 9.96272C83.5917 10.3236 84.7339 9.94838 85.6643 9.21101L84.7326 8.03544L83.801 6.85987C83.4307 7.15331 83.2795 7.10376 83.2169 7.08529C83.045 7.03458 82.6524 6.81018 82.0969 6.02839L80.8741 6.89726ZM84.7326 8.03544L85.6643 9.21101C86.1384 8.83532 86.4933 8.7276 86.7455 8.71593C86.988 8.70471 87.307 8.77386 87.735 9.07842L88.6047 7.85628L89.4744 6.63415C88.6217 6.02733 87.655 5.67064 86.6068 5.71914C85.5683 5.76719 84.6276 6.20473 83.801 6.85987L84.7326 8.03544ZM88.6047 7.85628L87.735 9.07842C89.0876 10.041 90.4563 10.8346 91.8416 11.4517L92.452 10.0816L93.0625 8.71139C91.8794 8.18429 90.6832 7.49436 89.4744 6.63415L88.6047 7.85628ZM92.452 10.0816L91.8416 11.4517C92.4188 11.7089 93.0474 11.8003 93.6894 11.6823C94.3154 11.5673 94.8634 11.2704 95.3314 10.8936C96.2364 10.1651 97.008 9.00341 97.6993 7.60413L96.3545 6.93973L95.0097 6.27532C94.3835 7.54273 93.846 8.23806 93.4501 8.5568C93.2677 8.70366 93.1674 8.72799 93.1471 8.73173C93.1429 8.73251 93.1273 8.74027 93.0625 8.71139L92.452 10.0816ZM96.3545 6.93973L97.6993 7.60413C97.9998 6.99593 98.2758 6.55016 98.5195 6.23924C98.7687 5.92113 98.9373 5.80426 99.0037 5.76992C99.0366 5.75297 98.984 5.78059 98.9132 5.76254C98.8791 5.75382 98.9671 5.76469 99.1644 5.96977L100.245 4.9298L101.326 3.88983C100.885 3.43154 100.333 3.02863 99.6551 2.85572C98.941 2.67348 98.2425 2.7865 97.6269 3.10454C96.5207 3.67596 95.6885 4.90129 95.0097 6.27532L96.3545 6.93973ZM100.245 4.9298L99.1644 5.96977C100.561 7.42153 102.07 8.44813 103.704 8.88273L104.09 7.43312L104.475 5.9835C103.536 5.73381 102.482 5.09154 101.326 3.88983L100.245 4.9298ZM104.09 7.43312L103.704 8.88273C105.024 9.23373 106.345 9.53641 107.668 9.79065L107.951 8.31762L108.234 6.8446C106.981 6.60378 105.729 6.31679 104.475 5.9835L104.09 7.43312ZM107.951 8.31762L107.668 9.79065C109.682 10.1778 111.467 9.18052 112.944 7.57176L111.839 6.55732L110.734 5.54287C109.602 6.77623 108.795 6.95248 108.234 6.8446L107.951 8.31762ZM111.839 6.55732L112.944 7.57176C113.174 7.32172 113.323 7.23993 113.378 7.21768C113.401 7.20835 113.403 7.21112 113.389 7.21196C113.374 7.21285 113.364 7.21021 113.367 7.21099C113.378 7.21413 113.488 7.25081 113.687 7.4488C113.886 7.64619 114.129 7.95954 114.404 8.42867L115.698 7.67013L116.992 6.91159C116.315 5.756 115.422 4.68148 114.198 4.32846C112.779 3.91936 111.579 4.62318 110.734 5.54287L111.839 6.55732ZM115.698 7.67013L114.404 8.42867C115.082 9.58509 115.97 10.6553 117.185 11.0175C118.595 11.4381 119.799 10.7581 120.652 9.84544L119.556 8.82118L118.461 7.79691C118.234 8.0397 118.088 8.11675 118.036 8.13705C118.014 8.14555 118.012 8.14288 118.026 8.14225C118.04 8.14159 118.047 8.14422 118.042 8.14269C118.026 8.13794 117.913 8.0973 117.711 7.89653C117.511 7.69648 117.267 7.3811 116.992 6.91159L115.698 7.67013ZM119.556 8.82118L120.652 9.84544C121.179 9.28131 121.554 9.11925 121.762 9.08293C121.921 9.05521 122.157 9.06695 122.543 9.35146L123.434 8.14427L124.324 6.93707C123.429 6.2773 122.38 5.92971 121.246 6.12763C120.162 6.31694 119.238 6.96548 118.461 7.79691L119.556 8.82118ZM123.434 8.14427L122.543 9.35146C123.024 9.70629 123.583 9.969 124.213 10.0467C124.852 10.1256 125.464 10.0014 126.019 9.73359C127.066 9.22773 127.906 8.21454 128.611 7.03525L127.323 6.2658L126.035 5.49636C125.427 6.51367 124.963 6.91186 124.714 7.03215C124.62 7.07745 124.586 7.06998 124.581 7.06933C124.566 7.06753 124.483 7.0544 124.324 6.93707L123.434 8.14427ZM127.323 6.2658L128.611 7.03525C128.893 6.56206 129.128 6.28286 129.298 6.13246C129.464 5.98569 129.496 6.02266 129.403 6.03056C129.29 6.04016 129.261 5.98695 129.357 6.05692C129.473 6.1417 129.673 6.34044 129.935 6.74689L131.197 5.93625L132.459 5.12562C131.771 4.05483 130.69 2.9102 129.149 3.04136C127.712 3.16363 126.717 4.35521 126.035 5.49636L127.323 6.2658ZM131.197 5.93625L129.935 6.74689C131.263 8.81529 132.856 10.3815 134.81 10.6755L135.033 9.19219L135.256 7.70888C134.635 7.61542 133.67 7.01102 132.459 5.12562L131.197 5.93625ZM135.033 9.19219L134.81 10.6755C136.215 10.8868 137.623 10.9309 139.033 10.8073L138.902 9.313L138.771 7.81873C137.599 7.92152 136.428 7.88507 135.256 7.70888L135.033 9.19219ZM138.902 9.313L139.033 10.8073C140.551 10.6742 142.039 10.2033 143.491 9.42931L142.785 8.10571L142.079 6.78212C140.936 7.3915 139.836 7.72539 138.771 7.81873L138.902 9.313ZM142.785 8.10571L143.491 9.42931C144.607 8.83395 145.669 8.55344 146.69 8.53716L146.666 7.03735L146.642 5.53754C145.083 5.56241 143.557 5.99414 142.079 6.78212L142.785 8.10571ZM146.666 7.03735L146.69 8.53716C147.256 8.52814 148.139 8.89122 149.31 10.4544L150.51 9.55522L151.711 8.65601C150.337 6.82093 148.657 5.50543 146.642 5.53754L146.666 7.03735ZM150.51 9.55522L149.31 10.4544C150.029 11.4151 150.866 12.2053 151.857 12.6134C152.917 13.0497 154.012 12.9898 155.029 12.4871L154.364 11.1424L153.7 9.79775C153.42 9.93603 153.225 9.9321 153 9.8394C152.706 9.7184 152.264 9.39452 151.711 8.65601L150.51 9.55522ZM154.364 11.1424L155.029 12.4871C156.635 11.693 158.111 10.2419 159.492 8.31678L158.273 7.44274L157.053 6.5687C155.816 8.29449 154.687 9.3098 153.7 9.79775L154.364 11.1424ZM158.273 7.44274L159.492 8.31678C159.75 7.9563 159.923 7.82846 159.982 7.79534C159.998 7.78643 159.908 7.82622 159.8 7.79467C159.744 7.77851 159.834 7.78485 160.045 8.02885C160.25 8.26626 160.501 8.64987 160.785 9.22683L162.131 8.56585L163.478 7.90487C163.129 7.19474 162.746 6.56624 162.314 6.06651C161.887 5.57337 161.337 5.11755 160.638 4.9142C159.021 4.4437 157.796 5.53374 157.053 6.5687L158.273 7.44274ZM162.131 8.56585L160.785 9.22683C161.133 9.93714 161.517 10.5659 161.95 11.0652C162.378 11.558 162.932 12.0138 163.635 12.2129C165.257 12.6719 166.477 11.5643 167.214 10.5259L165.99 9.65823L164.767 8.79054C164.507 9.15705 164.331 9.28994 164.269 9.32565C164.249 9.33703 164.339 9.29426 164.452 9.32629C164.512 9.34333 164.426 9.34076 164.216 9.09895C164.012 8.86368 163.761 8.48165 163.478 7.90487L162.131 8.56585ZM165.99 9.65823L167.214 10.5259C168.448 8.78514 169.449 8.14982 170.152 8.02656L169.892 6.54914L169.633 5.07172C167.751 5.40207 166.15 6.83948 164.767 8.79054L165.99 9.65823ZM169.892 6.54914L170.152 8.02656C171.23 7.83734 172.302 7.88093 173.384 8.16156L173.761 6.70963L174.138 5.25769C172.646 4.87073 171.14 4.80732 169.633 5.07172L169.892 6.54914ZM173.761 6.70963L173.384 8.16156C174.852 8.54238 176.334 8.64015 177.819 8.44966L177.628 6.96184L177.438 5.47402C176.34 5.61484 175.243 5.54447 174.138 5.25769L173.761 6.70963ZM177.628 6.96184L177.819 8.44966C178.649 8.34326 179.557 8.56741 180.599 9.33213L181.487 8.12283L182.374 6.91353C180.855 5.79895 179.191 5.24911 177.438 5.47402L177.628 6.96184ZM181.487 8.12283L180.599 9.33213C181.417 9.93214 182.327 10.3229 183.316 10.3878C184.311 10.453 185.256 10.1795 186.12 9.66636L185.354 8.37651L184.589 7.08666C184.155 7.34402 183.806 7.41349 183.512 7.3942C183.212 7.3745 182.837 7.25317 182.374 6.91353L181.487 8.12283ZM185.354 8.37651L186.12 9.66636C186.553 9.40958 186.9 9.34117 187.192 9.36115C187.492 9.38158 187.866 9.50398 188.33 9.84674L189.222 8.64059L190.114 7.43443C189.297 6.83061 188.387 6.43571 187.397 6.36812C186.4 6.30006 185.454 6.57291 184.589 7.08666L185.354 8.37651ZM189.222 8.64059L188.33 9.84674C189.77 10.9112 191.29 11.592 192.882 11.7981L193.075 10.3105L193.267 8.8229C192.283 8.69559 191.235 8.26317 190.114 7.43443L189.222 8.64059ZM193.075 10.3105L192.882 11.7981C194.744 12.039 196.459 11.2704 197.966 9.90871L196.961 8.79573L195.955 7.68274C194.858 8.67411 193.982 8.91538 193.267 8.8229L193.075 10.3105ZM196.961 8.79573L197.966 9.90871C199.166 8.82467 200.31 8.10264 201.393 7.68789L200.857 6.28706L200.32 4.88623C198.813 5.46328 197.36 6.41369 195.955 7.68274L196.961 8.79573ZM200.857 6.28706L201.393 7.68789C202.392 7.30529 203.346 7.26788 204.305 7.55044L204.729 6.11158L205.152 4.67272C203.539 4.19746 201.911 4.27704 200.32 4.88623L200.857 6.28706ZM204.729 6.11158L204.305 7.55044C205.257 7.83098 206.321 8.50717 207.482 9.73576L208.572 8.70545L209.662 7.67513C208.271 6.20305 206.773 5.15 205.152 4.67272L204.729 6.11158ZM208.572 8.70545L207.482 9.73576C208.305 10.6067 209.407 11.2543 210.725 11.0527C211.95 10.8653 212.908 10.001 213.649 9.01195L212.448 8.11249L211.248 7.21303C210.681 7.96959 210.339 8.07692 210.272 8.0872C210.256 8.08957 210.225 8.09477 210.146 8.05946C210.052 8.0171 209.887 7.91324 209.662 7.67513L208.572 8.70545ZM212.448 8.11249L213.649 9.01195C214.226 8.24215 214.697 7.86975 215.031 7.71517C215.305 7.58876 215.508 7.59136 215.75 7.69438L216.337 6.31424L216.925 4.93409C215.882 4.49031 214.795 4.51922 213.772 4.99222C212.81 5.43706 211.979 6.23719 211.248 7.21303L212.448 8.11249ZM216.337 6.31424L215.75 7.69438C217.387 8.39162 219.078 8.42961 220.739 7.79922L220.206 6.39689L219.674 4.99456C218.744 5.34757 217.856 5.33046 216.925 4.93409L216.337 6.31424ZM220.206 6.39689L220.739 7.79922C221.459 7.52578 222.206 7.59618 223.154 8.32576L224.069 7.13709L224.984 5.94842C223.372 4.70767 221.544 4.2846 219.674 4.99456L220.206 6.39689ZM224.069 7.13709L223.154 8.32576C224.474 9.34185 225.8 10.2557 227.133 11.0659L227.912 9.78432L228.691 8.50269C227.46 7.75359 226.224 6.90266 224.984 5.94842L224.069 7.13709ZM227.912 9.78432L227.133 11.0659C228.405 11.8396 229.677 12.6333 230.949 13.4471L231.758 12.1835L232.566 10.9198C231.275 10.094 229.983 9.28832 228.691 8.50269L227.912 9.78432ZM231.758 12.1835L230.949 13.4471C232.548 14.4699 234.287 14.7967 236.056 14.261L235.621 12.8254L235.187 11.3898C234.367 11.6378 233.53 11.5365 232.566 10.9198L231.758 12.1835ZM235.621 12.8254L236.056 14.261C237.206 13.9129 238.34 13.7552 239.464 13.7799L239.497 12.2803L239.53 10.7807C238.074 10.7486 236.625 10.9543 235.187 11.3898L235.621 12.8254ZM239.497 12.2803L239.464 13.7799C241.45 13.8237 243.146 12.5802 244.564 10.8075L243.392 9.87081L242.22 8.93417C241.024 10.4309 240.123 10.7937 239.53 10.7807L239.497 12.2803ZM243.392 9.87081L244.564 10.8075C245.122 10.1093 245.519 9.89598 245.72 9.84361C245.836 9.81348 246.017 9.79329 246.372 10.0596L247.273 8.85993L248.173 7.66022C247.248 6.96577 246.142 6.63365 244.964 6.94049C243.872 7.22508 242.969 7.99759 242.22 8.93417L243.392 9.87081ZM247.273 8.85993L246.372 10.0596C247.798 11.1301 249.295 11.8435 250.859 12.1245L251.124 10.6482L251.39 9.17179C250.378 8.99007 249.307 8.51141 248.173 7.66022L247.273 8.85993ZM251.124 10.6482L250.859 12.1245C252.307 12.3847 253.761 12.4067 255.215 12.1901L254.994 10.7065L254.773 9.22288C253.643 9.39124 252.517 9.37433 251.39 9.17179L251.124 10.6482ZM254.994 10.7065L255.215 12.1901C257.026 11.9204 258.626 10.7308 260.042 9.03807L258.891 8.07566L257.741 7.11326C256.544 8.54348 255.546 9.10775 254.773 9.22288L254.994 10.7065ZM258.891 8.07566L260.042 9.03807C261.225 7.62352 262.128 7.26319 262.751 7.27746L262.785 5.77786L262.819 4.27825C260.862 4.23335 259.17 5.4049 257.741 7.11326L258.891 8.07566ZM262.785 5.77786L262.751 7.27746C263.85 7.30269 264.963 7.5321 266.094 7.98058L266.647 6.58613L267.2 5.19167C265.761 4.62163 264.299 4.31219 262.819 4.27825L262.785 5.77786ZM266.647 6.58613L266.094 7.98058C267.607 8.5803 269.159 8.78141 270.725 8.55658L270.512 7.0718L270.299 5.58702C269.281 5.73314 268.256 5.61048 267.2 5.19167L266.647 6.58613ZM270.512 7.0718L270.725 8.55658C271.411 8.45818 272.256 8.68652 273.328 9.71435L274.366 8.63192L275.405 7.54949C273.921 6.1262 272.198 5.31446 270.299 5.58702L270.512 7.0718ZM274.366 8.63192L273.328 9.71435C274.105 10.4597 274.998 11.0159 276.011 11.2076C277.053 11.4047 278.059 11.1855 278.971 10.6663L278.229 9.36262L277.487 8.05892C277.102 8.27819 276.815 8.30638 276.569 8.2599C276.295 8.20809 275.905 8.02969 275.405 7.54949L274.366 8.63192ZM278.229 9.36262L278.971 10.6663C279.376 10.436 279.69 10.3928 279.958 10.4308C280.244 10.4713 280.628 10.6266 281.114 11.0455L282.094 9.90975L283.073 8.77399C282.28 8.08975 281.381 7.60229 280.379 7.4604C279.358 7.31596 278.38 7.55087 277.487 8.05892L278.229 9.36262ZM282.094 9.90975L281.114 11.0455C282.553 12.2871 284.11 13.0848 285.778 13.2712L285.945 11.7804L286.111 10.2897C285.202 10.1882 284.192 9.73877 283.073 8.77399L282.094 9.90975ZM285.945 11.7804L285.778 13.2712C287.363 13.4482 288.927 13.1658 290.445 12.472L289.822 11.1078L289.198 9.7435C288.124 10.2345 287.103 10.4005 286.111 10.2897L285.945 11.7804ZM289.822 11.1078L290.445 12.472C291.652 11.9203 292.847 11.5166 294.029 11.2553L293.705 9.79064L293.382 8.32597C291.978 8.63615 290.583 9.1105 289.198 9.7435L289.822 11.1078ZM293.705 9.79064L294.029 11.2553C295.053 11.029 296.069 11.0803 297.105 11.4206L297.573 9.99549L298.042 8.57039C296.506 8.0661 294.943 7.98089 293.382 8.32597L293.705 9.79064ZM297.573 9.99549L297.105 11.4206C298.17 11.7702 299.286 12.4111 300.452 13.3974L301.42 12.2523L302.389 11.1073C300.997 9.92902 299.549 9.06539 298.042 8.57039L297.573 9.99549ZM301.42 12.2523L300.452 13.3974C301.933 14.6514 303.581 15.3647 305.358 15.2668L305.275 13.7691L305.193 12.2714C304.387 12.3157 303.465 12.0178 302.389 11.1073L301.42 12.2523ZM305.275 13.7691L305.358 15.2668C306.602 15.1983 307.601 14.4318 308.371 13.5144C309.157 12.5789 309.882 11.2822 310.569 9.7027L309.193 9.10455L307.818 8.5064C307.183 9.96553 306.594 10.9655 306.074 11.5849C305.539 12.2224 305.239 12.2688 305.193 12.2714L305.275 13.7691ZM309.193 9.10455L310.569 9.7027C310.875 8.99867 311.156 8.49053 311.402 8.14499C311.523 7.97438 311.625 7.85916 311.703 7.78452C311.782 7.70954 311.823 7.68944 311.821 7.69038C311.764 7.71851 311.625 7.73323 311.526 7.69031C311.501 7.67942 311.628 7.73167 311.868 8.06304L313.083 7.18376L314.298 6.30448C313.902 5.75682 313.39 5.22982 312.723 4.93949C311.982 4.61711 311.198 4.65218 310.493 5.00044C309.855 5.31518 309.355 5.84638 308.957 6.4056C308.549 6.97977 308.172 7.69114 307.818 8.5064L309.193 9.10455ZM313.083 7.18376L311.868 8.06304C312.594 9.06652 313.607 9.98957 314.957 10.0319C316.324 10.0746 317.378 9.19844 318.135 8.22702L316.952 7.3049L315.769 6.38279C315.219 7.08866 314.975 7.03092 315.051 7.03332C315.112 7.03522 314.844 7.05906 314.298 6.30448L313.083 7.18376ZM316.952 7.3049L318.135 8.22702C319.31 6.72006 320 6.73955 320.361 6.86153L320.841 5.44043L321.322 4.01934C319.111 3.27268 317.209 4.53514 315.769 6.38279L316.952 7.3049ZM320.841 5.44043L320.361 6.86153C321.383 7.2065 322.479 7.89615 323.644 9.02037L324.686 7.94101L325.728 6.86164C324.338 5.5204 322.872 4.543 321.322 4.01934L320.841 5.44043ZM324.686 7.94101L323.644 9.02037C324.882 10.2149 326.124 11.5458 327.37 13.0151L328.514 12.045L329.658 11.0749C328.355 9.53764 327.045 8.13261 325.728 6.86164L324.686 7.94101ZM328.514 12.045L327.37 13.0151C328.776 14.6739 330.43 15.8001 332.339 15.828L332.361 14.3282L332.383 12.8284C331.712 12.8186 330.801 12.4226 329.658 11.0749L328.514 12.045ZM332.361 14.3282L332.339 15.828C333.642 15.8471 334.68 15.0656 335.456 14.1417C336.248 13.1987 336.975 11.8718 337.66 10.2496L336.279 9.66549L334.897 9.08137C334.261 10.5865 333.673 11.6004 333.159 12.2117C332.906 12.5126 332.706 12.6747 332.568 12.7563C332.44 12.8318 332.385 12.8284 332.383 12.8284L332.361 14.3282ZM336.279 9.66549L337.66 10.2496C337.968 9.52181 338.252 8.99064 338.503 8.62473C338.765 8.24299 338.926 8.13639 338.95 8.12355C338.951 8.12306 338.94 8.129 338.918 8.13573C338.895 8.14261 338.864 8.14915 338.826 8.15158C338.744 8.15691 338.679 8.14003 338.645 8.12604C338.603 8.1091 338.722 8.14669 338.959 8.47194L340.17 7.58724L341.382 6.70254C340.983 6.15687 340.462 5.62786 339.779 5.34864C339.017 5.03759 338.228 5.10825 337.537 5.47727C336.912 5.81081 336.422 6.35491 336.029 6.9282C335.625 7.5173 335.251 8.24549 334.897 9.08137L336.279 9.66549ZM340.17 7.58724L338.959 8.47194C339.682 9.4617 340.594 10.3105 341.751 10.5786C343.007 10.8698 344.133 10.3907 345.022 9.6083L344.031 8.48209L343.041 7.35588C342.628 7.7188 342.459 7.66321 342.428 7.65607C342.298 7.62595 341.931 7.45464 341.382 6.70254L340.17 7.58724ZM344.031 8.48209L345.022 9.6083C345.212 9.44097 345.31 9.4192 345.313 9.41852C345.314 9.41843 345.306 9.41946 345.298 9.41842C345.291 9.41754 345.302 9.41742 345.334 9.43255C345.522 9.52058 345.967 9.89255 346.563 10.9983L347.883 10.2864L349.203 9.57462C348.534 8.33214 347.703 7.22929 346.607 6.71587C346.014 6.43815 345.361 6.34274 344.696 6.48275C344.053 6.61803 343.501 6.95055 343.041 7.35588L344.031 8.48209ZM347.883 10.2864L346.563 10.9983C347.236 12.2465 348.044 13.326 349.074 13.8903C349.622 14.1907 350.24 14.3482 350.898 14.2873C351.546 14.2274 352.121 13.9663 352.612 13.6102L351.732 12.3956L350.851 11.1811C350.772 11.2388 350.713 11.2687 350.676 11.2838C350.641 11.2983 350.624 11.2999 350.622 11.3001C350.62 11.3002 350.618 11.3007 350.608 11.2985C350.597 11.296 350.567 11.2875 350.516 11.2595C350.262 11.1207 349.796 10.6746 349.203 9.57462L347.883 10.2864ZM351.732 12.3956L352.612 13.6102C354.067 12.5554 355.474 11.0953 356.842 9.27687L355.643 8.37504L354.445 7.4732C353.197 9.13144 351.996 10.3517 350.851 11.1811L351.732 12.3956ZM355.643 8.37504L356.842 9.27687C357.411 8.52013 357.815 8.29037 358.008 8.2352C358.097 8.20971 358.254 8.17406 358.603 8.4462L359.525 7.26281L360.446 6.07943C359.516 5.35471 358.386 5.00601 357.181 5.35125C356.08 5.66682 355.183 6.49161 354.445 7.4732L355.643 8.37504ZM359.525 7.26281L358.603 8.4462C359.835 9.40565 361.072 10.4899 362.313 11.701L363.36 10.6274L364.408 9.55377C363.095 8.27248 361.774 7.1137 360.446 6.07943L359.525 7.26281ZM363.36 10.6274L362.313 11.701C363.696 13.0501 365.146 14.0515 366.672 14.6297L367.204 13.227L367.735 11.8243C366.691 11.4288 365.58 10.6971 364.408 9.55377L363.36 10.6274ZM367.204 13.227L366.672 14.6297C368.059 15.155 369.457 15.5142 370.865 15.7024L371.064 14.2156L371.263 12.7288C370.094 12.5727 368.919 12.2729 367.735 11.8243L367.204 13.227ZM371.064 14.2156L370.865 15.7024C372.067 15.863 373.131 15.3749 373.994 14.6209C374.837 13.8836 375.593 12.8107 376.29 11.5128L374.969 10.8027L373.648 10.0926C373.03 11.2421 372.477 11.9617 372.019 12.362C371.58 12.7456 371.349 12.7403 371.263 12.7288L371.064 14.2156ZM374.969 10.8027L376.29 11.5128C376.581 10.9714 376.828 10.6391 377.014 10.4529C377.201 10.265 377.238 10.3117 377.12 10.3272C376.965 10.3475 376.9 10.2729 376.983 10.3357C377.092 10.4181 377.294 10.6258 377.559 11.0673L378.845 10.294L380.13 9.52068C379.469 8.42145 378.364 7.13821 376.729 7.35274C375.965 7.45303 375.353 7.86926 374.889 8.33561C374.422 8.80368 374.015 9.41036 373.648 10.0926L374.969 10.8027ZM378.845 10.294L377.559 11.0673C378.219 12.1641 379.35 13.4736 381.019 13.1871C381.779 13.0566 382.379 12.6139 382.832 12.1331C383.289 11.6472 383.691 11.0219 384.055 10.316L382.722 9.62842L381.389 8.9408C381.094 9.51094 380.841 9.87027 380.646 10.0779C380.446 10.2905 380.397 10.25 380.511 10.2304C380.674 10.2025 380.757 10.2797 380.69 10.2306C380.592 10.1584 380.395 9.96122 380.13 9.52068L378.845 10.294ZM382.722 9.62842L384.055 10.316C384.682 9.09925 385.173 8.59758 385.437 8.44373C385.53 8.38988 385.534 8.41344 385.488 8.40835C385.455 8.4047 385.512 8.39741 385.669 8.52463L386.615 7.36075L387.561 6.19688C387.078 5.80402 386.494 5.50115 385.817 5.42644C385.126 5.35029 384.484 5.52728 383.927 5.85137C382.894 6.45341 382.077 7.60566 381.389 8.9408L382.722 9.62842ZM386.615 7.36075L385.669 8.52463C386.982 9.59212 388.3 10.5687 389.622 11.4534L390.456 10.2067L391.29 8.95992C390.05 8.13038 388.807 7.20969 387.561 6.19688L386.615 7.36075ZM390.456 10.2067L389.622 11.4534C390.823 12.2566 392.036 13.2377 393.26 14.4034L394.294 13.3172L395.329 12.2309C393.998 10.9635 392.652 9.87094 391.29 8.95992L390.456 10.2067ZM394.294 13.3172L393.26 14.4034C394.051 15.1563 394.979 15.7078 396.044 15.8327C397.133 15.9603 398.142 15.6168 399.023 14.9972L398.16 13.7704L397.297 12.5437C396.878 12.8384 396.593 12.8765 396.394 12.8531C396.17 12.8269 395.816 12.6946 395.329 12.2309L394.294 13.3172ZM398.16 13.7704L399.023 14.9972C400.342 14.0688 401.661 13.0926 402.98 12.0688L402.06 10.8841L401.14 9.69937C399.857 10.6953 398.576 11.6434 397.297 12.5437L398.16 13.7704ZM402.06 10.8841L402.98 12.0688C404.005 11.2723 404.822 11.1442 405.547 11.341L405.94 9.89349L406.333 8.44595C404.485 7.94387 402.715 8.47611 401.14 9.69937L402.06 10.8841ZM405.94 9.89349L405.547 11.341C406.503 11.6007 407.564 12.2404 408.719 13.4075L409.785 12.3522L410.851 11.2969C409.453 9.88462 407.951 8.88525 406.333 8.44595L405.94 9.89349ZM409.785 12.3522L408.719 13.4075C410.118 14.82 411.621 15.8189 413.239 16.2558L413.63 14.8076L414.021 13.3595C413.066 13.1018 412.006 12.4637 410.851 11.2969L409.785 12.3522ZM413.63 14.8076L413.239 16.2558C414.617 16.6278 415.798 15.9807 416.654 15.0908C417.492 14.2199 418.233 12.9219 418.919 11.3344L417.542 10.7395L416.165 10.1447C415.529 11.6165 414.958 12.5262 414.492 13.0114C414.266 13.2459 414.117 13.3266 414.054 13.351C414.026 13.3618 414.017 13.3611 414.022 13.3608C414.028 13.3604 414.03 13.3618 414.021 13.3595L413.63 14.8076ZM417.542 10.7395L418.919 11.3344C419.224 10.6286 419.492 10.1703 419.706 9.8992C419.937 9.60642 419.979 9.68715 419.795 9.72382C419.687 9.7452 419.579 9.73386 419.496 9.70548C419.426 9.68121 419.418 9.65946 419.466 9.703C419.581 9.80564 419.797 10.0734 420.077 10.6365L421.42 9.96954L422.764 9.30256C422.411 8.59271 421.992 7.93776 421.467 7.46807C420.913 6.97116 420.13 6.59865 419.211 6.78126C418.38 6.94626 417.773 7.50566 417.35 8.04188C416.91 8.59977 416.521 9.32079 416.165 10.1447L417.542 10.7395ZM421.42 9.96954L420.077 10.6365C420.742 11.976 421.441 13.1006 422.19 13.9656C422.933 14.8245 423.795 15.509 424.799 15.8219L425.245 14.3898L425.691 12.9578C425.409 12.8697 424.99 12.6171 424.459 12.0026C423.932 11.3942 423.363 10.5091 422.764 9.30256L421.42 9.96954ZM425.245 14.3898L424.799 15.8219C427.004 16.5093 428.889 15.2256 430.321 13.3732L429.135 12.4555L427.948 11.5378C426.766 13.0662 426.058 13.072 425.691 12.9578L425.245 14.3898ZM429.135 12.4555L430.321 13.3732C430.891 12.6374 431.335 12.3276 431.622 12.2182C431.834 12.1372 432.021 12.1351 432.301 12.2882L433.02 10.9722L433.74 9.65608C432.737 9.10765 431.635 9.00202 430.552 9.4155C429.543 9.80058 428.687 10.5832 427.948 11.5378L429.135 12.4555ZM433.02 10.9722L432.301 12.2882C433.83 13.1244 435.439 13.4705 437.088 13.2431L436.883 11.7571L436.678 10.2712C435.742 10.4002 434.777 10.223 433.74 9.65608L433.02 10.9722ZM436.883 11.7571L437.088 13.2431C438.401 13.0619 439.715 12.8511 441.029 12.6109L440.759 11.1354L440.489 9.65983C439.218 9.89224 437.948 10.096 436.678 10.2712L436.883 11.7571ZM440.759 11.1354L441.029 12.6109C442.645 12.3155 444.175 11.4965 445.618 10.2763L444.65 9.13073L443.682 7.9852C442.522 8.96518 441.459 9.48262 440.489 9.65983L440.759 11.1354ZM444.65 9.13073L445.618 10.2763C445.819 10.1067 445.95 10.0546 446.008 10.0391C446.051 10.0276 446.081 10.0272 446.132 10.0435C446.288 10.0938 446.687 10.3343 447.255 11.1955L448.507 10.3696L449.76 9.54379C449.057 8.47894 448.178 7.5499 447.049 7.18722C445.782 6.78033 444.609 7.20115 443.682 7.9852L444.65 9.13073ZM448.507 10.3696L447.255 11.1955C447.955 12.2567 448.924 13.2609 450.249 13.4186C451.662 13.5865 452.767 12.7302 453.54 11.7711L452.373 10.8292L451.205 9.88734C450.673 10.5478 450.48 10.4249 450.604 10.4396C450.63 10.4427 450.568 10.4465 450.41 10.3176C450.245 10.1842 450.024 9.94446 449.76 9.54379L448.507 10.3696ZM452.373 10.8292L453.54 11.7711C454.088 11.0925 454.404 11.0232 454.46 11.018C454.48 11.0161 454.527 11.0136 454.626 11.0622C454.738 11.1172 454.915 11.2379 455.146 11.4876L456.247 10.4692L457.348 9.45075C456.542 8.57934 455.475 7.91078 454.183 8.03088C452.947 8.14569 451.965 8.94626 451.205 9.88734L452.373 10.8292ZM456.247 10.4692L455.146 11.4876C456.624 13.0861 458.44 14.0157 460.475 13.491L460.101 12.0385L459.726 10.586C459.175 10.7282 458.422 10.6116 457.348 9.45075L456.247 10.4692ZM460.101 12.0385L460.475 13.491C461.918 13.1191 463.341 12.5169 464.743 11.6996L463.988 10.4036L463.233 9.10767C462.039 9.80314 460.871 10.2909 459.726 10.586L460.101 12.0385ZM463.988 10.4036L464.743 11.6996C466.038 10.9452 467.332 10.1977 468.626 9.45717L467.881 8.15523L467.136 6.85329C465.835 7.5978 464.534 8.34926 463.233 9.10767L463.988 10.4036ZM467.881 8.15523L468.626 9.45717C468.689 9.42137 468.731 9.4067 468.754 9.40062C468.775 9.39492 468.786 9.39499 468.791 9.39518C468.792 9.39523 468.852 9.39511 468.988 9.48499C469.308 9.69627 469.8 10.2431 470.394 11.3881L471.725 10.697L473.057 10.006C472.386 8.71387 471.605 7.61856 470.643 6.98257C470.138 6.64883 469.556 6.4238 468.912 6.39765C468.266 6.3714 467.666 6.55023 467.136 6.85329L467.881 8.15523ZM471.725 10.697L470.394 11.3881C471.063 12.6763 471.861 13.7866 472.874 14.3839C473.414 14.7021 474.032 14.8838 474.699 14.84C475.358 14.7967 475.944 14.5414 476.442 14.1861L475.572 12.9643L474.702 11.7425C474.551 11.85 474.489 11.8473 474.502 11.8464C474.524 11.845 474.499 11.859 474.397 11.7994C474.129 11.6409 473.653 11.1548 473.057 10.006L471.725 10.697ZM475.572 12.9643L476.442 14.1861C476.889 13.8683 477.219 13.7939 477.463 13.8022C477.711 13.8107 478.054 13.9111 478.51 14.2719L479.441 13.096L480.372 11.9201C479.548 11.2676 478.607 10.8394 477.565 10.8039C476.52 10.7683 475.555 11.1348 474.702 11.7425L475.572 12.9643ZM479.441 13.096L478.51 14.2719C479.375 14.9572 480.4 15.365 481.531 15.242C482.631 15.1225 483.577 14.5288 484.372 13.7394L483.316 12.6749L482.259 11.6105C481.75 12.115 481.4 12.2386 481.207 12.2595C481.048 12.2769 480.787 12.2481 480.372 11.9201L479.441 13.096ZM483.316 12.6749L484.372 13.7394C484.89 13.225 485.275 13.0565 485.519 13.0142C485.725 12.9784 485.986 13.0036 486.366 13.2543L487.193 12.0025L488.019 10.7506C487.118 10.1555 486.092 9.86993 485.006 10.0583C483.958 10.2401 483.044 10.8307 482.259 11.6105L483.316 12.6749ZM487.193 12.0025L486.366 13.2543C487.812 14.2084 489.324 14.8009 490.893 14.9641L491.048 13.4721L491.203 11.9802C490.195 11.8753 489.136 11.488 488.019 10.7506L487.193 12.0025ZM491.048 13.4721L490.893 14.9641C492.6 15.1416 494.24 14.6339 495.767 13.6055L494.929 12.3613L494.092 11.117C493.021 11.8378 492.073 12.0706 491.203 11.9802L491.048 13.4721ZM494.929 12.3613L495.767 13.6055C496.171 13.3337 496.444 13.3053 496.643 13.3358C496.873 13.371 497.239 13.5226 497.736 14.0164L498.794 12.9522L499.851 11.8881C499.071 11.1133 498.154 10.5321 497.096 10.3703C496.008 10.2038 494.987 10.5142 494.092 11.117L494.929 12.3613ZM498.794 12.9522L497.736 14.0164C499.242 15.5124 501.047 16.3171 503.027 15.8016L502.649 14.35L502.271 12.8984C501.664 13.0564 500.899 12.9292 499.851 11.8881L498.794 12.9522ZM502.649 14.35L503.027 15.8016C504.298 15.4709 505.567 15.173 506.836 14.9078L506.529 13.4395L506.222 11.9713C504.905 12.2465 503.588 12.5556 502.271 12.8984L502.649 14.35ZM506.529 13.4395L506.836 14.9078C508.225 14.6174 509.56 14.1964 510.837 13.6439L510.242 12.2671L509.646 10.8904C508.559 11.3606 507.418 11.7212 506.222 11.9713L506.529 13.4395ZM510.242 12.2671L510.867 13.6304L512.541 12.8623L511.915 11.4991L511.29 10.1358L509.616 10.9039L510.242 12.2671ZM511.915 11.4991L511.9 12.999L512 13L512.015 11.5001L512.031 10.0002L511.931 9.99913L511.915 11.4991Z" fill="white"/>
</svg>
