<svg width="54" height="40" viewBox="0 0 54 40" fill="none" xmlns="http://www.w3.org/2000/svg">
<path fill-rule="evenodd" clip-rule="evenodd" d="M26.926 0.31697C26.506 0.430148 26.3367 0.520897 25.5686 1.04443C25.1386 1.33752 24.7968 1.52025 24.5306 1.59926C23.9939 1.75864 23.2001 1.74966 22.5156 1.57659C21.6223 1.35066 20.8503 1.41776 20.1275 1.78412C19.6646 2.01867 19.1747 2.52161 18.6889 3.26099C17.999 4.311 17.4034 4.71568 16.2841 4.89492C15.9633 4.94631 15.5649 5.02869 15.3987 5.07813C14.652 5.30002 13.9018 5.94218 13.5474 6.66286C13.3694 7.0247 13.3003 7.27849 13.1049 8.28835C12.9288 9.1986 12.3716 9.93431 11.4329 10.4961C10.7319 10.9157 10.3721 11.283 10.0692 11.8888C9.69018 12.6467 9.60628 13.4544 9.8189 14.2993L9.89034 14.5833H10.618H11.3456L11.2798 14.7065L11.214 14.8296L11.303 14.8638C11.352 14.8826 11.4647 14.8891 11.5536 14.8782L11.7152 14.8583L12.0387 14.0028C12.5948 12.5327 13.3148 11.1703 14.0942 10.1134C15.0749 8.78353 16.4378 7.35305 17.4584 6.58262C18.6883 5.6541 20.1682 4.77685 21.2333 4.34492C21.9297 4.06252 22.1372 3.9502 21.963 3.94984C21.7917 3.94947 20.754 4.38476 19.8688 4.82837C19.3766 5.07495 18.974 5.26904 18.974 5.25963C18.974 5.25022 19.2194 5.10202 19.5193 4.93024C22.099 3.45282 24.7292 2.76746 27.8279 2.76532L29.1407 2.7644L29.8735 2.87006C31.9901 3.17538 33.716 3.72055 35.4606 4.63501C37.081 5.4844 38.1612 6.28196 39.5718 7.67052C41.4912 9.56007 42.7848 11.6398 43.5197 14.0181L43.7133 14.6444H44.3107H44.9082L44.879 14.7972L44.8498 14.95H45.0662H45.2827L45.3226 14.5986C45.3446 14.4053 45.4185 13.9455 45.4868 13.5766C45.6402 12.7489 45.617 12.1682 45.4148 11.7734C45.2188 11.3907 44.6095 10.8034 44.0876 10.4941C43.5036 10.1481 43.1214 9.80323 42.8417 9.37026C42.5589 8.9324 42.4563 8.62892 42.3039 7.78082C42.2332 7.38715 42.1108 6.96078 42.001 6.72617C41.6918 6.0647 40.9388 5.37384 40.2662 5.13459C40.1251 5.08436 39.6715 4.97565 39.2581 4.89296C38.0083 4.64302 37.4235 4.24806 36.797 3.23093C35.8717 1.72851 34.5965 1.17656 32.9585 1.5695C32.1786 1.75662 31.8247 1.77734 31.2925 1.66722C30.733 1.55141 30.3637 1.37352 29.8015 0.94892C29.1 0.419148 28.5137 0.218703 27.6875 0.226281C27.4457 0.228481 27.103 0.269304 26.926 0.31697ZM27.48 3.71761C27.311 3.79932 27.2122 4.07432 27.2715 4.29799L27.3168 4.46946L27.5247 4.53797C28.053 4.71213 28.4269 4.17729 28.0444 3.79449C27.8858 3.63578 27.7012 3.61067 27.48 3.71761ZM28.5132 3.71248C28.4371 3.74071 28.3595 3.80354 28.3409 3.85212C28.2893 3.98644 28.4237 4.18841 28.5929 4.23095C28.846 4.2945 28.7673 4.39252 28.4996 4.34724L28.2553 4.30593V4.40084C28.2553 4.5153 28.4391 4.62261 28.6329 4.62132C28.8173 4.6201 28.9011 4.56113 28.9524 4.39619C28.9948 4.26003 28.9058 4.13445 28.6469 3.96548L28.5301 3.88927L28.7378 3.90437C28.852 3.91268 28.9563 3.88824 28.9695 3.85004C29.0043 3.74976 28.6781 3.65143 28.5132 3.71248ZM26.3229 4.02641C26.3441 4.20283 26.3616 4.40908 26.3619 4.48474L26.3624 4.62224H26.6236C26.7673 4.62224 26.9459 4.5794 27.0205 4.52709L27.1562 4.432V4.16391V3.89581L27.0205 3.80073C26.9424 3.74591 26.7575 3.70558 26.5846 3.70558H26.2843L26.3229 4.02641ZM29.5688 3.83641C29.5081 3.99793 29.5076 4.65292 29.5682 4.67052C29.6017 4.68023 29.6376 4.63477 29.648 4.56944L29.6667 4.45064L29.8432 4.47851C29.9666 4.49794 30.0576 4.46855 30.1451 4.38097C30.3902 4.13567 30.2484 3.87375 29.8283 3.79571L29.6 3.7533L29.5688 3.83641ZM25.264 4.05189C25.2644 4.18071 25.2817 4.38928 25.3025 4.5153L25.3404 4.74446H25.5106C25.7477 4.74446 25.8739 4.68647 25.8739 4.57751V4.48474L25.6931 4.52092L25.5123 4.5571L25.4806 4.3605C25.4632 4.2524 25.4415 4.0973 25.4325 4.0159C25.404 3.7596 25.2633 3.7896 25.264 4.05189ZM27.5575 3.9238C27.4336 4.04786 27.4339 4.29297 27.5581 4.3407C27.7527 4.41544 27.8927 4.37535 27.961 4.22526L28.0304 4.07273L27.9197 3.95026C27.7864 3.80286 27.6858 3.79547 27.5575 3.9238ZM26.5456 4.16391V4.43891H26.6412C26.8165 4.43891 26.973 4.31393 26.973 4.17399C26.973 3.99689 26.8644 3.88891 26.6861 3.88891H26.5456V4.16391ZM30.4938 3.9345C30.4782 3.95986 30.4314 4.15407 30.3898 4.36606L30.3141 4.75161L30.3858 4.82336L30.4576 4.89516L30.4932 4.7587C30.5408 4.57641 30.6868 4.58539 30.7588 4.77502C30.7908 4.85905 30.862 4.9278 30.9171 4.9278H31.0173L30.9872 4.77019C30.9681 4.67009 30.9878 4.60085 31.0412 4.58032C31.0895 4.56174 31.1252 4.4606 31.1252 4.34211V4.13616L30.9878 4.05036C30.8124 3.94079 30.5305 3.87473 30.4938 3.9345ZM24.5581 4.01608C24.5131 4.08892 24.353 4.73016 24.3496 4.85141C24.346 4.97662 24.5137 4.93794 24.5483 4.80557L24.5802 4.68335H24.7655C24.8674 4.68335 24.9678 4.71085 24.9886 4.74446C25.0409 4.82916 25.2023 4.82134 25.2023 4.73407C25.2023 4.61778 24.7507 3.95112 24.6716 3.95057C24.6316 3.95026 24.5805 3.97972 24.5581 4.01608ZM29.7208 4.13335V4.25557H29.8735H30.0261V4.13335V4.01113H29.8735H29.7208V4.13335ZM23.9423 4.11899L23.8731 4.16391L23.9399 4.48847L24.0067 4.81303L23.9175 4.86949C23.8685 4.90054 23.8098 4.92633 23.7869 4.92688C23.6865 4.92914 23.5614 4.72723 23.5233 4.50124C23.4786 4.23669 23.3091 4.15083 23.3097 4.39307C23.311 4.90665 23.5598 5.17963 23.9299 5.07342L24.1255 5.01726L24.1711 4.84676C24.2076 4.71018 24.086 4.0687 24.0245 4.07316C24.0174 4.07371 23.9804 4.0943 23.9423 4.11899ZM30.6367 4.24904C30.6367 4.38183 30.8116 4.47166 30.8993 4.38391C30.9892 4.29389 30.9004 4.13335 30.7607 4.13335C30.6798 4.13335 30.6367 4.1735 30.6367 4.24904ZM31.364 4.3088L31.2229 4.42314V4.64186C31.2229 4.93757 31.3885 5.11137 31.669 5.11021C31.9228 5.10911 31.9961 5.07037 32.093 4.886C32.202 4.67883 32.1769 4.50808 32.0133 4.34449C31.8324 4.1633 31.5619 4.14845 31.364 4.3088ZM24.6527 4.3778V4.52446L24.726 4.45113L24.7993 4.3778L24.726 4.30446L24.6527 4.23113V4.3778ZM31.5038 4.45113C31.4635 4.49146 31.4305 4.60091 31.4305 4.69441V4.86436L31.5831 4.90268C31.8095 4.95957 31.919 4.89265 31.919 4.69747C31.919 4.50442 31.8223 4.3778 31.6748 4.3778C31.621 4.3778 31.5441 4.4108 31.5038 4.45113ZM22.6037 4.52935L22.3629 4.59835L22.3814 4.71727C22.4162 4.94032 22.5858 5.41516 22.6436 5.45084C22.74 5.51055 23.1201 5.35447 23.2176 5.21508C23.404 4.94869 23.2754 4.5428 22.9871 4.48767C22.9087 4.47264 22.7361 4.4914 22.6037 4.52935ZM32.283 4.84328L32.1485 5.24759L32.2323 5.30069C32.408 5.41222 32.7351 5.43532 32.8925 5.34738C33.191 5.18043 33.1356 4.66514 32.8042 4.52654C32.4651 4.38476 32.428 4.40731 32.283 4.84328ZM22.7162 4.68861L22.581 4.7389L22.6483 4.94026C22.7398 5.2149 22.7875 5.25553 22.9293 5.17957C23.0864 5.09542 23.1411 4.9476 23.0666 4.80832C22.989 4.66331 22.8823 4.62682 22.7162 4.68861ZM32.4801 4.87634L32.4009 5.13038L32.4805 5.18092C32.7984 5.3827 33.0692 4.93391 32.7603 4.71739C32.574 4.5868 32.5697 4.58924 32.4801 4.87634ZM33.265 5.05723C33.1056 5.42817 33.1358 5.62416 33.3713 5.74595L33.5395 5.83303L33.7215 5.75597L33.9035 5.67897L34.0099 5.38845C34.1874 4.90359 34.0269 4.85293 33.8171 5.32752L33.6966 5.60002H33.5692C33.3853 5.60002 33.35 5.4385 33.4657 5.12628C33.5624 4.86515 33.5572 4.74446 33.4495 4.74446C33.422 4.74446 33.339 4.8852 33.265 5.05723ZM21.6989 4.99654C21.6385 5.29874 21.6542 5.84446 21.7233 5.84446C21.7577 5.84446 21.8107 5.77919 21.841 5.69944C21.9053 5.53023 22.1808 5.43832 22.3077 5.54373L22.3934 5.61499L22.4784 5.54441L22.5634 5.47382L22.2134 5.13967C22.0209 4.95591 21.835 4.80557 21.8002 4.80557C21.7655 4.80557 21.7199 4.89149 21.6989 4.99654ZM20.9738 5.17639C20.7182 5.31139 20.6537 5.50199 20.8822 5.44712L21.0196 5.41406L21.1875 5.72096C21.4601 6.21925 21.5843 6.10156 21.3486 5.56824L21.2196 5.27643L21.318 5.22131C21.3722 5.191 21.4165 5.14003 21.4165 5.10807C21.4165 5.01537 21.2216 5.04543 20.9738 5.17639ZM21.8439 5.24038C21.8439 5.30998 21.8761 5.35502 21.9164 5.34158C22.0295 5.30387 22.0423 5.19118 21.938 5.15116L21.8439 5.11498V5.24038ZM34.2027 5.18214C34.179 5.22052 34.2069 5.28646 34.2646 5.32875L34.3696 5.40556L34.2375 5.71295C34.1147 5.99864 34.1159 6.19579 34.24 6.11909C34.2693 6.10094 34.3554 5.96143 34.4315 5.80908L34.5697 5.53194L34.7099 5.56714L34.85 5.60234V5.51055C34.85 5.46007 34.714 5.34983 34.5479 5.26556L34.2458 5.11235L34.2027 5.18214ZM18.7567 5.38949L18.6382 5.48451L18.7756 5.4179C18.8512 5.38124 18.9129 5.33846 18.9129 5.32288C18.9129 5.27613 18.8813 5.28963 18.7567 5.38949ZM20.3674 5.51067C20.1878 5.60814 20.1102 5.77186 20.1698 5.92751C20.2115 6.03629 20.2407 6.04411 20.5616 6.03231L20.7753 6.02443L20.6568 6.11781C20.5916 6.16914 20.4894 6.21113 20.4297 6.21113C20.3583 6.21113 20.3332 6.24248 20.3563 6.30279C20.3757 6.35321 20.4304 6.39446 20.478 6.39446H20.5644L20.4644 6.54724L20.3644 6.70001H20.5429C20.8226 6.70001 20.9487 6.56997 20.9642 6.26551C20.9834 5.88999 20.9144 5.79417 20.6071 5.76972L20.3479 5.74907L20.5208 5.67415C20.6158 5.63296 20.6828 5.56677 20.6696 5.52705C20.6331 5.41748 20.5477 5.41283 20.3674 5.51067ZM34.8382 5.64145C34.7813 5.65648 34.704 5.76226 34.6663 5.87648L34.5978 6.08426L34.6995 6.29888L34.8013 6.51344L35.0091 6.55249C35.4045 6.62674 35.679 6.2858 35.5244 5.91229C35.4207 5.66174 35.1565 5.55748 34.8382 5.64145ZM19.5973 5.95831L19.3432 6.12661L19.4792 6.37521C19.554 6.51197 19.6603 6.68908 19.7155 6.76889L19.8158 6.9139L20.037 6.79687C20.298 6.65864 20.4035 6.54559 20.3508 6.46034C20.3266 6.42104 20.2363 6.4351 20.1021 6.49914C19.8259 6.63096 19.7544 6.55041 19.9839 6.36592L20.1647 6.22054L20.0538 6.17715C19.9927 6.15331 19.9117 6.16493 19.8736 6.203C19.779 6.29766 19.6457 6.29026 19.6457 6.19041C19.6457 6.14537 19.7144 6.07717 19.7983 6.03892C19.8823 6.0006 19.951 5.94285 19.951 5.91046C19.951 5.78255 19.8399 5.79753 19.5973 5.95831ZM34.9533 5.85381C34.8923 5.88797 34.85 5.98624 34.85 6.09391V6.27615L34.9873 6.32809C35.0668 6.3581 35.1713 6.35559 35.2351 6.32204L35.3456 6.26411L35.3267 6.07613C35.3057 5.86621 35.1241 5.75811 34.9533 5.85381ZM25.0938 7.01956L25.1107 7.95279L25.1875 7.93733C25.2297 7.9289 25.5013 7.91936 25.791 7.91624L26.3176 7.9105L26.4774 8.02991L26.6372 8.14932V8.41112V8.67292L26.4646 8.80174L26.2921 8.93056L25.9751 8.92763C25.7784 8.92574 25.5526 8.87355 25.3803 8.79013C25.2276 8.71613 25.0845 8.65557 25.0624 8.65557C25.0177 8.65557 24.8359 8.9866 24.8359 9.06813C24.8359 9.15307 25.3341 9.36959 25.7086 9.44738L26.0571 9.5198L26.3792 9.45288C26.8287 9.3595 27.0812 9.18839 27.2195 8.88345C27.3541 8.58663 27.3691 8.33455 27.2697 8.03828C27.122 7.5981 26.7545 7.37859 26.0797 7.32756L25.6297 7.29346V6.9986V6.70368L26.4082 6.68657L27.1868 6.66946V6.39751V6.12551L26.1319 6.10595L25.077 6.0864L25.0938 7.01956ZM28.2684 6.13229C28.1916 6.14702 28.0199 6.26277 27.8868 6.38951L27.6447 6.61996V6.90846C27.6447 7.22227 27.7181 7.40481 27.9053 7.55648L28.0257 7.65414L27.8666 7.75852C27.6683 7.8885 27.4615 8.28389 27.4615 8.53285C27.4615 8.7864 27.5962 9.08609 27.781 9.24364C28.1031 9.51833 29.188 9.55219 29.5732 9.29955C30.1012 8.9533 30.1529 8.32575 29.6936 7.83833L29.4847 7.61662L29.6006 7.55453C29.7571 7.47075 29.869 7.07224 29.8158 6.78838C29.7163 6.25763 29.0618 5.98013 28.2684 6.13229ZM35.781 6.15937C35.6772 6.26319 35.6853 6.46156 35.7999 6.62528L35.8949 6.76112H35.7734C35.7056 6.76112 35.6349 6.70716 35.6132 6.6389C35.5655 6.48851 35.3988 6.47647 35.4015 6.62363C35.4087 7.02066 36.0223 7.18407 36.1042 6.81075L36.1442 6.62888L36.0054 6.48111L35.8667 6.33335H35.9615C36.0136 6.33335 36.0904 6.3746 36.1322 6.42501C36.2259 6.53801 36.3154 6.54369 36.3154 6.43669C36.3154 6.21137 35.9292 6.01099 35.781 6.15937ZM30.1008 6.48961C29.9305 6.60896 29.9286 6.77927 30.0944 7.04792C30.1828 7.19098 30.2544 7.2458 30.32 7.22056L30.4162 7.18365L30.3044 7.30721L30.1927 7.43078L30.2934 7.46946C30.4842 7.54273 30.5757 7.38122 30.5757 6.97098V6.5847L30.4399 6.48961C30.3653 6.4373 30.289 6.39446 30.2704 6.39446C30.2517 6.39446 30.1754 6.4373 30.1008 6.48961ZM18.5771 6.64691C18.3862 6.75373 18.3023 6.89056 18.3023 7.09534C18.3023 7.36698 18.4549 7.55557 18.6746 7.55557H18.8567L18.779 7.63886C18.7316 7.68959 18.6651 7.70297 18.6087 7.67315C18.3639 7.54371 17.7897 7.31112 17.7149 7.31112C17.6027 7.31112 17.6086 7.41251 17.7464 7.85568L17.8621 8.22779H17.7839C17.7409 8.22779 17.6608 8.29654 17.6057 8.38057C17.482 8.56952 17.2349 8.58456 17.1409 8.4088C17.0507 8.24007 17.1126 8.07758 17.2995 7.99239C17.3846 7.95352 17.4375 7.89431 17.4168 7.86088C17.2977 7.66801 16.8979 7.99043 16.8979 8.27937C16.8979 8.378 16.9504 8.52363 17.0147 8.60295L17.1314 8.74723L17.4116 8.7366C17.7342 8.72437 17.7595 8.76605 17.5238 8.92097L17.3559 9.03134L17.4934 9.00194C17.5785 8.98373 17.6511 9.00854 17.6838 9.06703C17.7129 9.11903 17.7678 9.14237 17.8058 9.11885C17.8879 9.06812 17.8991 8.6167 17.8196 8.56744C17.734 8.51452 17.8148 8.29312 17.9068 8.32844C17.9929 8.3615 18.1411 8.14786 18.0767 8.08345C18.0253 8.03205 18.2399 7.80001 18.3387 7.80001C18.4566 7.80001 18.5052 7.91655 18.4268 8.01115C18.3791 8.06859 18.3775 8.10709 18.4215 8.13429C18.5233 8.19723 18.6151 8.10661 18.5953 7.96263L18.5771 7.83057L18.7346 7.84884C18.8212 7.85892 18.9506 7.81767 19.0221 7.75717L19.1522 7.64723L19.1915 7.27977L19.2308 6.91231L19.1176 6.77824C18.9788 6.61354 18.7403 6.55561 18.5771 6.64691ZM28.2903 6.72061C28.0932 6.91787 28.091 7.09106 28.2831 7.28332L28.433 7.43335H28.7275C29.1097 7.43335 29.2934 7.30709 29.2934 7.04431C29.2934 6.72935 29.1755 6.62381 28.7879 6.59166L28.4474 6.56337L28.2903 6.72061ZM30.2093 6.7255C30.2093 6.77872 30.2528 6.82224 30.306 6.82224C30.4138 6.82224 30.395 6.69066 30.2818 6.6529C30.2419 6.63958 30.2093 6.67227 30.2093 6.7255ZM20.1952 6.79168L20.1192 6.88335H20.2469C20.3353 6.88335 20.3638 6.85517 20.3395 6.79168C20.3201 6.74126 20.2968 6.70001 20.2877 6.70001C20.2787 6.70001 20.2371 6.74126 20.1952 6.79168ZM36.6264 7.0599C36.489 7.22422 36.3765 7.38733 36.3765 7.42241C36.3765 7.51004 36.6842 7.72185 36.8848 7.77221C36.9891 7.79842 37.0874 7.78308 37.1523 7.73047L37.2548 7.64723L37.208 7.72509C37.1823 7.76793 37.1794 7.88606 37.2017 7.9875C37.3297 8.57068 38.1473 8.54532 38.1473 7.95823V7.74978L37.9594 7.59156C37.7567 7.42088 37.6526 7.39967 37.4777 7.49336L37.3656 7.55337L37.3719 7.33294L37.3781 7.11251L37.1816 6.93682C37.0736 6.8402 36.9607 6.76112 36.9307 6.76112C36.9008 6.76112 36.7639 6.89557 36.6264 7.0599ZM18.5487 6.94042C18.4528 7.11979 18.4724 7.23865 18.61 7.31235C18.7414 7.38275 18.9688 7.34211 18.9816 7.24592C18.9859 7.21457 18.9945 7.15456 19.0009 7.11251C19.0413 6.84857 18.6728 6.70839 18.5487 6.94042ZM17.506 7.16104L17.3636 7.31271L17.434 7.38323L17.5045 7.45376L17.5436 7.35189C17.5651 7.29585 17.621 7.25001 17.6677 7.25001C17.7145 7.25001 17.7528 7.21041 17.7528 7.16195C17.7528 7.00587 17.652 7.00551 17.506 7.16104ZM36.7789 7.19342L36.621 7.38128L36.7122 7.47252C36.7623 7.52269 36.879 7.55502 36.9715 7.54438L37.1398 7.52501L37.1594 7.35329C37.1783 7.18872 37.0864 7.00557 36.985 7.00557C36.9586 7.00557 36.8658 7.09009 36.7789 7.19342ZM17.8987 7.65151C17.9192 7.70511 17.936 7.762 17.936 7.77807C17.936 7.79408 17.9634 7.79024 17.997 7.76946C18.0876 7.71342 18.0711 7.63477 17.9597 7.59199L17.8613 7.55416L17.8987 7.65151ZM37.4878 7.75112C37.3734 7.86565 37.4014 8.09426 37.539 8.1679C37.8009 8.30821 38.0444 8.06444 37.9042 7.80233C37.8307 7.66465 37.6022 7.6366 37.4878 7.75112ZM28.31 8.02374C28.2056 8.05173 28.1028 8.22645 28.0503 8.46521L28.0182 8.61095L28.1931 8.78604L28.3681 8.96112L28.6933 8.9602C29.0359 8.95929 29.2717 8.87288 29.3724 8.71136C29.4597 8.57129 29.3704 8.14749 29.2622 8.18898C29.2096 8.20921 29.1892 8.191 29.2083 8.14101C29.2266 8.09353 29.1815 8.04507 29.0984 8.02276C28.9442 7.98145 28.4658 7.98206 28.31 8.02374ZM20.2076 8.38924C20.0329 8.51165 19.8899 8.62849 19.8899 8.64897C19.8899 8.68802 20.7022 8.91028 23.0419 9.5113L24.4535 9.87394L24.772 9.83617L25.0904 9.79846L25.2404 9.96035C25.4083 10.1416 25.5769 10.1679 25.6908 10.0306C25.7326 9.98015 25.8083 9.9389 25.8591 9.9389C25.9974 9.9389 25.6391 10.2032 25.484 10.2156C25.413 10.2213 25.3024 10.2485 25.2382 10.276L25.1216 10.3262L25.1565 10.1926C25.1993 10.0285 25.0621 9.87778 24.8698 9.87778C24.6588 9.87778 24.1642 10.1153 24.1642 10.2168V10.3056H23.9244H23.6846L23.5581 10.4666C23.4885 10.5551 23.4315 10.5917 23.4315 10.5478C23.4315 10.5039 23.4771 10.4175 23.5329 10.3559C23.5887 10.2941 23.623 10.235 23.6092 10.2245C23.5954 10.2138 22.6037 9.96334 21.4053 9.66775L19.2264 9.13028L19.0544 9.2536C18.7963 9.4387 18.591 9.67698 18.6555 9.71682C18.7251 9.7599 22.5049 10.6335 23.0804 10.7396L23.4925 10.8156V10.9166C23.4925 10.9722 23.4212 11.0842 23.3341 11.1658C23.1483 11.3395 23.0041 11.5976 23.0041 11.7563C23.0041 11.891 23.4345 12.3833 23.5522 12.3833C23.5978 12.3833 23.6209 12.3975 23.6036 12.4147C23.5453 12.4731 20.832 12.0427 18.5771 11.6175C17.939 11.4971 17.3345 11.384 17.2338 11.3662L17.0506 11.3337L16.8478 11.622C16.7344 11.7832 16.6682 11.9334 16.6976 11.9629C16.8554 12.1207 24.3907 13.2159 24.5084 13.0981C24.5708 13.0357 24.3522 12.7469 24.1594 12.6372C23.9827 12.5367 23.9263 12.4444 24.0413 12.4444C24.1491 12.4444 24.5565 12.7663 24.7594 13.0118L24.9575 13.2515L24.9262 13.4296L24.8949 13.6075L25.1096 13.8225C25.2277 13.9407 25.3244 14.0607 25.3244 14.0893C25.3244 14.1177 25.2282 14.2145 25.1107 14.3042C24.9931 14.3939 24.897 14.5043 24.897 14.5495C24.897 14.5947 24.9952 14.7102 25.1153 14.8061C25.2354 14.9021 25.3796 15.0249 25.4359 15.0792C25.4921 15.1335 25.597 15.2085 25.669 15.2459L25.7998 15.314L25.9656 15.1835C26.2022 14.9972 26.4846 14.5882 26.4846 14.4316C26.4846 14.2894 26.8982 13.9111 27.0536 13.9111C27.1664 13.9111 27.2649 13.7899 27.441 13.4341C27.5191 13.2763 27.5675 13.2091 27.5486 13.2847C27.5298 13.3604 27.5409 13.4222 27.5734 13.4222C27.6059 13.4222 27.6796 13.6343 27.7372 13.8934C27.7948 14.1526 27.8862 14.4345 27.9402 14.5198C28.0516 14.6958 28.2509 14.8889 28.321 14.8889C28.3748 14.8889 28.672 14.657 29.3207 14.1089L29.7737 13.7261L29.8694 13.8627C29.922 13.9379 29.965 14.0473 29.965 14.1059C29.965 14.1645 30.0194 14.2415 30.0858 14.277L30.2065 14.3417L30.3331 14.215C30.4117 14.1363 30.447 14.043 30.4261 13.9691C30.4076 13.9036 30.379 13.8017 30.3625 13.7426L30.3326 13.6351L31.3853 13.7082C33.0072 13.8207 36.3022 13.9687 38.171 14.013L39.857 14.053V13.9842C39.857 13.8418 39.61 13.8039 38.422 13.7637C36.4841 13.698 32.1655 13.4222 30.5224 13.2591L30.1334 13.2205L30.2464 13.3977L30.3595 13.575L30.086 13.3552L29.8124 13.1354L29.6597 12.6927C29.4769 12.1623 29.3608 12.0577 28.9988 12.0965L28.7346 12.1249L28.7029 12.0423C28.6855 11.9968 28.7693 11.8556 28.8892 11.7284C29.0091 11.6012 29.124 11.4147 29.1446 11.3139C29.1651 11.2131 29.2365 11.0146 29.3032 10.8727L29.4245 10.615L29.6333 10.5757C29.9266 10.5207 30.1482 10.5875 30.1482 10.7309C30.1482 10.7955 30.1774 10.8664 30.2131 10.8884C30.2487 10.9105 30.3031 10.995 30.334 11.0761C30.3648 11.1573 30.4661 11.254 30.5592 11.291C30.6522 11.3279 30.8012 11.3964 30.8904 11.443C31.2135 11.612 31.539 11.5339 32.1938 11.1303C32.5036 10.9394 32.7733 10.934 32.9403 11.1153C33.01 11.1909 33.0766 11.3049 33.0883 11.3685C33.1001 11.4321 33.1595 11.5146 33.2204 11.5518L33.3311 11.6194L33.4531 11.4705C33.7642 11.091 33.233 10.4874 32.5907 10.4904L32.3159 10.4916L31.9293 10.7002C31.6724 10.8388 31.5545 10.8776 31.5782 10.816C31.5977 10.7651 31.6137 10.7024 31.6137 10.6769C31.6137 10.6514 31.7263 10.5967 31.8639 10.5554C32.1626 10.4659 32.1585 10.4185 31.8575 10.4825L31.6442 10.528L31.4969 10.4338C31.4087 10.3774 31.2004 10.3376 30.9779 10.3346C30.7296 10.3313 30.515 10.2855 30.3314 10.1967C29.8722 9.97459 29.3034 10.0449 29.0244 10.3582C28.9604 10.4301 28.8821 10.4889 28.8504 10.4889C28.8187 10.4889 28.7012 10.5324 28.5893 10.5856L28.3857 10.6823L28.1187 10.5256C27.9574 10.431 27.8111 10.2838 27.7491 10.1539C27.6928 10.0356 27.607 9.9389 27.5585 9.9389C27.4616 9.9389 27.3047 10.0758 27.2621 10.1975C27.2439 10.2496 27.1958 10.2273 27.1155 10.1297L26.996 9.98449L26.8645 10.0262C26.7736 10.0551 26.7203 10.1376 26.6916 10.2937C26.6342 10.606 26.424 10.7288 26.3314 10.5042C26.2455 10.2958 26.1924 10.0009 26.2468 10.0346C26.2768 10.0532 26.3014 10.1217 26.3014 10.1869C26.3014 10.2648 26.3433 10.3056 26.4235 10.3056C26.4998 10.3056 26.5456 10.2648 26.5456 10.197C26.5456 10.1372 26.5868 10.0294 26.6372 9.95741L26.7289 9.82651L26.4388 9.73026C26.2793 9.67734 25.7503 9.53556 25.2633 9.41517C24.4714 9.2195 22.2828 8.62238 21.1419 8.29086C20.9069 8.22253 20.672 8.16668 20.6199 8.16668C20.5678 8.16668 20.3823 8.26684 20.2076 8.38924ZM16.5074 8.46184C16.4902 8.48971 16.6256 8.66021 16.8082 8.84073C17.0182 9.04827 17.1149 9.18466 17.0713 9.21168C17.0333 9.23514 17.0191 9.29839 17.0398 9.35217C17.1071 9.52786 17.1899 9.4552 17.2143 9.1989L17.2383 8.9478L16.9318 8.67946C16.6161 8.40305 16.5611 8.37488 16.5074 8.46184ZM38.5324 8.47614C38.1667 8.6145 38.1253 9.11964 38.4628 9.32504C38.5627 9.3859 38.6425 9.45264 38.6401 9.47341C38.6244 9.60945 38.6514 9.63964 38.7731 9.62228C38.9292 9.60004 39.1548 9.8322 39.1045 9.96328C39.0736 10.044 39.2705 10.4278 39.3429 10.4278C39.3634 10.4278 39.46 10.3709 39.5575 10.3014C39.7514 10.1632 39.7924 10.2017 39.6359 10.3749C39.4917 10.5344 39.5719 10.6722 39.8093 10.6727L40.0096 10.673L39.8466 10.7806L39.6836 10.8883L39.744 10.9962L39.8044 11.1042L40.1207 10.875C40.4842 10.6115 40.5287 10.5602 40.4873 10.4521L40.4572 10.3736L40.1534 10.4097L39.8496 10.4457L39.9804 10.1945C40.1958 9.78099 40.0593 9.70753 39.6381 10.0103C39.4899 10.1168 39.3533 10.1885 39.3345 10.1697C39.3157 10.1509 39.383 9.96181 39.484 9.74951C39.6102 9.48423 39.6488 9.34074 39.6073 9.29069L39.5469 9.21791L39.2593 9.29412C39.101 9.33604 38.9097 9.39012 38.8342 9.41432L38.6968 9.45826V9.34661C38.6968 9.28519 38.6419 9.20061 38.5747 9.15863C38.4971 9.11011 38.4526 9.01612 38.4526 8.90068V8.719L38.6017 8.68154C38.7871 8.63497 38.8707 8.68429 38.9471 8.88534L39.0066 9.04215L39.0774 8.97139C39.2803 8.76832 38.8335 8.36223 38.5324 8.47614ZM34.7889 8.54489C34.0013 8.77198 28.9917 9.93523 28.1117 10.0954L27.8764 10.1382L28.0887 10.3507L28.301 10.5631L28.4919 10.5212C28.5969 10.4981 28.7931 10.387 28.9279 10.2743C29.0874 10.1409 29.2873 10.0457 29.5011 10.0012L29.8294 9.93303L30.1567 10.0466L30.4841 10.1602L30.6978 10.1127C30.8153 10.0866 31.2275 9.99701 31.6137 9.91372C34.499 9.29149 35.836 8.96405 35.7907 8.89078C35.7096 8.75939 35.2514 8.47254 35.1308 8.47773C35.0603 8.48079 34.9064 8.51098 34.7889 8.54489ZM16.2402 8.75756C16.1046 8.81219 15.9921 9.10168 16.0484 9.2514C16.1091 9.41249 16.2246 9.42453 16.4735 9.29564C16.7035 9.17666 16.7168 9.29112 16.4933 9.467L16.333 9.59319L16.4414 9.67245L16.5497 9.75171L16.4727 9.8446L16.3957 9.93743L16.4994 9.97733C16.6704 10.043 16.8797 9.7684 16.9143 9.43308L16.9443 9.14116L16.8238 9.05664L16.7033 8.97212L16.4887 9.06189C16.2277 9.17104 16.1438 9.11555 16.3428 8.96534C16.535 8.8202 16.4604 8.66895 16.2402 8.75756ZM15.5525 9.58751L15.4236 9.72501L15.4434 9.98015L15.4632 10.2353L15.3043 10.2035L15.1456 10.1717L14.9509 10.4067L14.7563 10.6417L14.9282 10.7968C15.0228 10.8821 15.1681 10.9998 15.251 11.0583L15.4019 11.1645L15.3103 11.223C15.26 11.2552 15.135 11.2819 15.0326 11.2824L14.8464 11.2833L14.7688 11.0685C14.6742 10.8067 14.5519 10.8521 14.6039 11.1296L14.6412 11.3287L14.4568 11.3656C14.3406 11.3888 14.2723 11.44 14.2723 11.5038V11.605L14.5087 11.5732L14.7451 11.5415L14.8344 11.7302L14.9237 11.9189L14.7766 12.1358C14.6283 12.3546 14.4659 12.4308 14.5096 12.2611C14.5828 11.9768 14.5857 11.8944 14.5222 11.8944C14.4838 11.8944 14.4263 11.9632 14.3944 12.0472C14.3625 12.1313 14.2945 12.2 14.2433 12.2C14.1268 12.2 14.127 12.1543 14.244 11.9298L14.337 11.7511L14.2589 11.7029C14.2052 11.6696 14.1387 11.735 14.0461 11.912C13.972 12.0536 13.9102 12.2002 13.9087 12.238C13.9071 12.2756 14.0831 12.3974 14.2997 12.5086C14.5163 12.6198 14.6789 12.7402 14.6611 12.7762C14.6434 12.8122 14.6997 12.7645 14.7864 12.6702C14.8731 12.5759 14.944 12.4437 14.944 12.3763C14.944 12.309 14.9714 12.2709 15.005 12.2917C15.0386 12.3124 15.0702 12.2934 15.0751 12.2494C15.0801 12.2054 15.0898 12.1282 15.0966 12.0778C15.1035 12.0274 15.1132 11.935 15.1181 11.8726C15.1237 11.8032 15.1598 11.7717 15.2113 11.7915C15.3155 11.8315 15.4325 11.7214 15.4325 11.5832C15.4325 11.5263 15.4668 11.4665 15.5088 11.4504C15.5999 11.4155 15.6011 11.061 15.5105 10.9703C15.4663 10.9261 15.4746 10.8509 15.5374 10.7248C15.5873 10.6249 15.6148 10.4921 15.5985 10.43L15.569 10.3169L15.7441 10.378L15.9192 10.4392L15.8588 10.552C15.7213 10.8092 16.0669 10.7417 16.2537 10.4748C16.378 10.2971 16.3778 9.76369 16.2533 9.58586L16.1583 9.45001H15.9198H15.6815L15.5525 9.58751ZM34.6057 9.88604C33.7157 10.0853 32.9469 10.2628 32.8972 10.2804C32.8382 10.3013 32.8939 10.3516 33.057 10.4247C33.1946 10.4863 33.3503 10.5983 33.4029 10.6735L33.4986 10.8102L35.2276 10.464C36.1785 10.2737 36.9957 10.1041 37.0435 10.0873L37.1304 10.0568L36.8628 9.78398L36.5953 9.51112L36.4096 9.51741C36.3074 9.5209 35.4957 9.68675 34.6057 9.88604ZM39.1853 9.57223C39.1853 9.60584 39.2128 9.63334 39.2464 9.63334C39.28 9.63334 39.3074 9.60584 39.3074 9.57223C39.3074 9.53862 39.28 9.51112 39.2464 9.51112C39.2128 9.51112 39.1853 9.53862 39.1853 9.57223ZM15.7225 9.69934C15.6638 9.73362 15.6156 9.82352 15.6156 9.89918C15.6156 10.2066 16.0007 10.3028 16.1074 10.022L16.1687 9.86067L16.0658 9.74701C15.9503 9.61916 15.8774 9.60902 15.7225 9.69934ZM27.0952 9.96585C27.0952 10.0182 27.1226 10.0611 27.1562 10.0611C27.1898 10.0611 27.2173 10.0353 27.2173 10.0036C27.2173 9.97196 27.1898 9.92912 27.1562 9.90834C27.1226 9.88756 27.0952 9.91348 27.0952 9.96585ZM25.7217 10.3052C25.6607 10.3726 25.6392 10.4278 25.6738 10.4278C25.7507 10.4278 25.9029 10.2531 25.8619 10.2121C25.8457 10.1959 25.7826 10.2377 25.7217 10.3052ZM27.3394 10.2618C27.3394 10.3161 27.2913 10.3886 27.2326 10.4229L27.1257 10.4852L27.2285 10.4871C27.3309 10.4889 27.4439 10.2676 27.3755 10.1991C27.3557 10.1792 27.3394 10.2074 27.3394 10.2618ZM17.7541 10.5182C17.6064 10.6687 17.5018 10.8081 17.5216 10.8279C17.5916 10.898 22.0776 11.7738 22.7273 11.8442L22.9085 11.8639L22.9551 11.5927C22.9807 11.4436 22.9934 11.3135 22.9835 11.3034C22.9735 11.2935 22.4314 11.1743 21.7787 11.0385C21.1261 10.9027 20.0393 10.6686 19.3635 10.518C18.6878 10.3676 18.1096 10.2445 18.0787 10.2445C18.0478 10.2445 17.9016 10.3677 17.7541 10.5182ZM26.7614 10.4144C26.7347 10.5246 26.644 10.669 26.5599 10.7352C26.4758 10.8014 26.4313 10.8546 26.461 10.8534C26.4908 10.8521 26.5929 10.7875 26.6879 10.7096L26.8608 10.5681L26.8354 10.391L26.81 10.2139L26.7614 10.4144ZM24.2074 10.4285C24.1868 10.5072 24.2059 10.55 24.2616 10.55C24.3559 10.55 24.3795 10.3937 24.2933 10.3404C24.2635 10.322 24.2249 10.3616 24.2074 10.4285ZM29.0491 10.5195C28.9702 10.6035 28.9311 10.6714 28.9622 10.6703C29.0144 10.6686 29.266 10.3667 29.2153 10.3667C29.2028 10.3667 29.128 10.4354 29.0491 10.5195ZM29.4192 10.4703C29.3036 10.5309 29.1968 10.6218 29.1818 10.6722C29.1642 10.7314 29.2075 10.7153 29.3042 10.6264L29.4539 10.4889H29.744C30.111 10.4889 30.2704 10.5728 30.2704 10.766C30.2704 10.8489 30.2959 10.9167 30.3271 10.9167C30.3584 10.9167 30.3928 10.9783 30.4035 11.0536C30.4151 11.1348 30.4726 11.1979 30.5451 11.2088C30.6123 11.2189 30.8009 11.2872 30.9641 11.3606L31.2611 11.494L31.8277 11.1931C32.4822 10.8457 32.7445 10.8103 32.9859 11.0373C33.0708 11.1171 33.1402 11.2448 33.1402 11.3209C33.1402 11.4648 33.2169 11.5529 33.2839 11.4859C33.305 11.4647 33.2883 11.4062 33.2466 11.3559C33.2049 11.3057 33.1773 11.2481 33.1853 11.2281C33.2239 11.1314 33.1139 10.9673 32.9558 10.8854C32.669 10.737 32.4044 10.7733 32.007 11.0156C31.8075 11.1373 31.5585 11.2737 31.4538 11.3187L31.2633 11.4005L31.0287 11.2808C30.8997 11.215 30.7289 11.1611 30.6492 11.1611C30.4593 11.1611 30.5051 11.0145 30.7025 10.9902C30.9351 10.9617 31.1744 10.8524 31.2105 10.7583C31.2631 10.6211 30.8394 10.6274 30.5682 10.7678C30.3918 10.859 30.2958 10.8194 30.3971 10.6972L30.4617 10.6193L30.3041 10.5159C30.0667 10.3602 29.668 10.3397 29.4192 10.4703ZM15.1033 10.524C15.0831 10.5769 15.1063 10.6601 15.1549 10.7088L15.2434 10.7973L15.3074 10.6777C15.3426 10.6119 15.3714 10.5287 15.3714 10.4929C15.3714 10.3906 15.1444 10.4168 15.1033 10.524ZM23.5858 10.6083C23.5661 10.6404 23.568 10.7388 23.5901 10.8271L23.6304 10.9876L23.4922 11.1813L23.3542 11.375L23.4997 11.2358L23.6452 11.0966L23.6467 10.8233C23.6483 10.5341 23.6431 10.5157 23.5858 10.6083ZM37.2924 10.6137C37.1749 10.6419 36.378 10.7915 35.5216 10.9461C34.6652 11.1007 33.9092 11.2388 33.8415 11.2528C33.773 11.2671 33.6867 11.3624 33.647 11.4677L33.5757 11.6569L33.648 11.681C33.765 11.72 35.5566 12.0002 37.7504 12.3226C38.2205 12.3917 38.7136 12.4644 38.8461 12.4843L39.0869 12.5203L38.9922 12.3755C38.9401 12.2958 38.8087 12.0862 38.7003 11.9097L38.5031 11.5889H38.3697C38.2962 11.5889 37.9124 11.6561 37.5169 11.7382L36.7976 11.8875L36.1811 11.7699C35.8421 11.7052 35.5566 11.6443 35.5467 11.6343C35.5368 11.6244 36.0747 11.5236 36.7421 11.4103C37.4094 11.297 37.9891 11.1834 38.0302 11.158L38.105 11.1117L37.8666 10.8329C37.6117 10.5346 37.6159 10.5362 37.2924 10.6137ZM29.5529 10.6741C29.3422 10.7589 29.3861 10.9027 29.6445 10.9745C29.7704 11.0096 29.9358 11.0383 30.012 11.0385L30.1506 11.0389L30.1095 10.8708C30.0461 10.6117 29.8661 10.5481 29.5529 10.6741ZM28.4226 10.8189L28.3151 10.9006L28.392 10.9602C28.5601 11.0904 28.5912 11.0827 28.5912 10.9109C28.5912 10.7116 28.5752 10.703 28.4226 10.8189ZM40.2386 10.9833C39.901 11.1812 39.8868 11.2004 39.9754 11.3405L40.0309 11.4282L40.119 11.355L40.2072 11.2818L40.2815 11.3716C40.3225 11.421 40.3378 11.4907 40.3157 11.5266C40.2935 11.5626 40.298 11.588 40.3257 11.5831C40.3534 11.5784 40.4722 11.5795 40.5897 11.5858L40.8034 11.5971L40.6701 11.6617C40.5022 11.7429 40.432 12.1041 40.5353 12.3555C40.576 12.4548 40.6073 12.5499 40.6047 12.5667C40.6022 12.5835 40.7117 12.605 40.8482 12.6146L41.0963 12.6321L41.2399 12.4971C41.5244 12.2295 41.3791 11.7459 40.9775 11.6243L40.8462 11.5846L40.9115 11.4115L40.9768 11.2384L40.8563 11.0319C40.79 10.9183 40.696 10.8187 40.6475 10.8105C40.5989 10.8022 40.415 10.88 40.2386 10.9833ZM28.6828 10.9092C28.6828 10.9893 28.8406 11.105 28.8868 11.0588C28.9704 10.9751 28.9222 10.8556 28.8049 10.8556C28.7377 10.8556 28.6828 10.8797 28.6828 10.9092ZM31.2234 10.947C31.1599 10.9951 31.0775 11.0471 31.0402 11.0626C30.9963 11.0809 31.0046 11.1134 31.0642 11.1556C31.1965 11.2492 31.2473 11.2371 31.2473 11.1122C31.2473 11.0517 31.2803 10.9692 31.3206 10.9289C31.42 10.8294 31.3651 10.8397 31.2234 10.947ZM31.6748 10.9778C31.6197 11.0133 31.6122 11.0374 31.6559 11.038C31.6959 11.0385 31.7456 11.0114 31.7664 10.9778C31.8132 10.9019 31.7921 10.9019 31.6748 10.9778ZM40.5137 11.1072L40.4086 11.1661L40.4833 11.2858C40.576 11.4345 40.7122 11.4421 40.7109 11.2986C40.7093 11.1181 40.6306 11.0417 40.5137 11.1072ZM32.3087 11.2502L32.0106 11.3903L32.1633 11.4293C32.4604 11.5054 32.9251 11.5781 32.9632 11.5545C33.0153 11.5223 32.956 11.2288 32.8889 11.1873C32.7523 11.1028 32.5834 11.1211 32.3087 11.2502ZM29.1415 11.5874C29.0857 11.6953 29.0522 11.7957 29.0671 11.8105C29.2045 11.9481 38.7453 13.1582 39.2649 13.104L39.436 13.0861L39.3514 12.9712L39.2668 12.8562L38.0506 12.7172C35.5322 12.4295 32.865 12.0295 29.436 11.4253L29.2428 11.3913L29.1415 11.5874ZM15.0439 11.6191C15.0632 11.6693 15.1035 11.6952 15.1336 11.6766C15.2198 11.6233 15.1973 11.5278 15.0985 11.5278C15.044 11.5278 15.0226 11.5637 15.0439 11.6191ZM23.117 11.693C23.0955 11.767 23.1094 11.8661 23.1479 11.913C23.2407 12.0264 23.6438 12.3222 23.7055 12.3222C23.7324 12.3222 23.6286 12.2261 23.4749 12.1086C23.2832 11.9622 23.1892 11.8422 23.1756 11.7267L23.1559 11.5583L23.117 11.693ZM28.6464 11.7264L28.5301 11.8639L28.6828 11.7423C28.7667 11.6755 28.8469 11.6136 28.8609 11.6048C28.8749 11.596 28.8585 11.5889 28.8245 11.5889C28.7905 11.5889 28.7104 11.6507 28.6464 11.7264ZM40.7504 11.9626C40.6344 12.1283 40.7083 12.3458 40.8898 12.3728C41.062 12.3984 41.2003 12.2827 41.2003 12.1131C41.2003 11.8342 40.9086 11.7366 40.7504 11.9626ZM23.9859 12.2414L23.8992 12.3393L23.9859 12.308C24.0336 12.2908 24.1344 12.333 24.21 12.4018C24.2856 12.4705 24.3474 12.4975 24.3474 12.4616C24.3474 12.4257 24.3062 12.3806 24.2558 12.3612C24.2054 12.3419 24.1642 12.284 24.1642 12.2325C24.1642 12.1132 24.0964 12.1166 23.9859 12.2414ZM16.1948 12.6292C15.9486 13.0196 15.9475 13.0441 16.1753 13.0814C16.8083 13.1849 17.1036 13.241 17.1243 13.2617C17.1371 13.2745 16.851 13.305 16.4884 13.3293C15.8599 13.3716 15.6767 13.4235 15.6767 13.5593C15.6767 13.6224 16.9499 13.582 18.0276 13.4847C18.3919 13.4518 18.7726 13.4605 19.1572 13.5105L19.7373 13.586L19.3404 13.6258C18.7596 13.6842 16.6975 13.7889 16.1297 13.7889C15.674 13.7889 15.4935 13.8444 15.4935 13.9844C15.4935 14.0113 15.8164 14.0334 16.211 14.0335C16.9299 14.0336 21.32 13.8701 21.7218 13.8282C21.8393 13.816 22.485 13.8563 23.1567 13.9178C23.8284 13.9792 24.5247 14.0304 24.7039 14.0314L25.03 14.0333L24.8719 13.8453C24.7849 13.7419 24.7138 13.6214 24.7138 13.5776V13.4979L23.9963 13.4251C21.9353 13.2159 16.882 12.534 16.458 12.4078L16.354 12.3769L16.1948 12.6292ZM29.6856 12.5422C29.7098 12.6396 29.7508 12.7413 29.7768 12.7681C29.8792 12.8733 34.5666 13.3088 38.422 13.5712C39.0937 13.617 39.6524 13.6458 39.6635 13.6352C39.6746 13.6247 39.6558 13.5639 39.6217 13.5001L39.5597 13.3842L38.136 13.2771C35.6284 13.0886 31.3043 12.6309 29.8847 12.4037L29.6419 12.3649L29.6856 12.5422ZM24.6574 12.6722C24.703 12.7318 24.748 12.792 24.7576 12.806C24.7671 12.82 24.7748 12.7886 24.7748 12.7362C24.7748 12.6838 24.7297 12.6236 24.6746 12.6024L24.5744 12.5639L24.6574 12.6722ZM27.5034 12.8952C27.4832 12.9479 27.5166 12.9946 27.5879 13.0133C27.7253 13.0492 27.7427 12.979 27.6213 12.8782L27.5369 12.808L27.5034 12.8952ZM24.7748 12.8972C24.7748 12.9088 24.8161 12.9526 24.8664 12.9944C24.9192 13.0383 24.958 13.0443 24.958 13.0084C24.958 12.9743 24.9168 12.9306 24.8664 12.9112C24.8161 12.8919 24.7748 12.8856 24.7748 12.8972ZM27.7765 13.5444C27.7765 13.6285 27.7903 13.6629 27.8073 13.6208C27.8242 13.5789 27.8242 13.5101 27.8073 13.4681C27.7903 13.4261 27.7765 13.4604 27.7765 13.5444ZM29.6398 13.5694C29.6171 13.6288 29.6335 13.6494 29.6872 13.6288C29.799 13.5859 30.0046 13.8185 30.0483 14.0375C30.068 14.1361 30.1125 14.2167 30.1472 14.2167C30.1863 14.2167 30.1907 14.176 30.1587 14.1097C30.1302 14.0509 30.0682 13.9233 30.0207 13.826C29.9733 13.7289 29.8761 13.6109 29.8046 13.5639L29.6747 13.4784L29.6398 13.5694ZM27.4905 13.8015C27.4706 13.8534 27.3431 13.946 27.2072 14.0073L26.9601 14.1188L27.0734 14.1634C27.1358 14.188 27.3028 14.21 27.4447 14.2124L27.7027 14.2167L27.6657 14.0181C27.62 13.7734 27.5394 13.6738 27.4905 13.8015ZM27.8383 13.8806C27.8373 13.9478 27.8601 14.0578 27.889 14.125C27.9558 14.2807 27.9558 14.1201 27.889 13.9111L27.8401 13.7583L27.8383 13.8806ZM25.3903 13.9467C25.3932 14.0179 25.4077 14.0324 25.4272 13.9837C25.4448 13.9396 25.4426 13.8869 25.4223 13.8666C25.4021 13.8463 25.3876 13.8823 25.3903 13.9467ZM29.4632 14.0886L29.2648 14.266L29.5567 14.3098C29.7172 14.3339 29.8612 14.341 29.8766 14.3256C29.9202 14.2819 29.7764 13.9111 29.7158 13.9111C29.686 13.9111 29.5724 13.991 29.4632 14.0886ZM30.4898 14.1238C30.4666 14.2164 30.461 14.3056 30.4773 14.322C30.5291 14.3738 34.419 14.4549 37.0051 14.4581L39.496 14.4611L39.478 14.5681L39.4601 14.675H39.672H39.8839L39.9568 14.5288C39.9968 14.4483 40.0168 14.3492 40.0013 14.3085L39.9729 14.2346L37.4877 14.1919C36.1209 14.1685 34.4256 14.1245 33.7203 14.0942C33.0151 14.0639 32.0092 14.0203 31.485 13.9972L30.5321 13.9554L30.4898 14.1238ZM27.9503 14.3189C27.9501 14.3584 28.0212 14.4753 28.1082 14.5788L28.2664 14.767L28.4482 14.6599C28.5481 14.601 28.6761 14.5012 28.7326 14.4381C28.7993 14.3638 28.7519 14.38 28.5979 14.484C28.2907 14.6916 28.218 14.6862 28.0715 14.4458C28.0049 14.3366 27.9504 14.2795 27.9503 14.3189ZM49.0772 14.7333C47.9405 14.9786 47.0794 15.4579 46.3012 16.2784C45.569 17.0504 45.1599 17.9081 45.0325 18.9387L44.9662 19.4747L45.0346 20.0998C45.0722 20.4437 45.1565 20.8921 45.2218 21.0962C45.3552 21.5131 45.6413 22.0838 45.7799 22.2094C45.8303 22.255 45.8375 22.2752 45.7959 22.2541C45.7462 22.229 45.7327 22.2482 45.7565 22.3103C45.7765 22.3623 45.8155 22.3908 45.8432 22.3736C45.9078 22.3337 46.0909 22.5914 46.0476 22.6615C46.0297 22.6904 46.0515 22.7066 46.096 22.6973C46.1404 22.6881 46.1693 22.717 46.16 22.7614C46.1508 22.806 46.1677 22.8273 46.1977 22.8088C46.2619 22.769 46.466 22.9773 46.4212 23.0369C46.4044 23.0594 46.4083 23.0646 46.4299 23.0486C46.4515 23.0325 46.5605 23.0996 46.672 23.1977C47.1908 23.6535 48.1468 24.1959 48.5729 24.2761C48.6818 24.2966 48.7558 24.3378 48.7373 24.3677C48.7189 24.3976 48.7534 24.4157 48.8142 24.4081C48.8749 24.4004 49.1582 24.4278 49.4436 24.469C49.7291 24.5102 50.0725 24.5532 50.2069 24.5645L50.4511 24.585L50.1153 24.6017L49.7795 24.6184L50.2679 24.6943C51.3762 24.8663 52.3469 24.5471 53.2131 23.7258L53.6129 23.3467L53.6197 23.0837L53.6263 22.8207L52.8325 21.8823C52.3959 21.3662 52.0173 20.9427 51.9911 20.9414C51.9649 20.94 51.7699 21.0863 51.5577 21.2664C51.3456 21.4465 51.0373 21.6459 50.8726 21.7094L50.5732 21.825L49.9321 21.8229L49.291 21.8209L48.9399 21.645C48.0004 21.1743 47.5209 20.2215 47.7578 19.2961C48.0595 18.1176 49.0357 17.476 50.4477 17.5283C50.728 17.5387 50.9457 17.5665 50.9315 17.59C50.8888 17.6607 51.1362 17.7634 51.2558 17.7246L51.367 17.6884L51.2842 17.7477C51.1764 17.8248 51.2868 17.8963 51.4379 17.8472L51.5502 17.8107L51.4657 17.871L51.3811 17.9313L51.5034 17.9968C51.5707 18.0329 51.6431 18.045 51.6644 18.0238C51.6855 18.0026 51.7029 18.0249 51.7029 18.0734C51.7029 18.122 51.7454 18.2226 51.7975 18.2969L51.8922 18.4322L52.0431 18.3332C52.1999 18.2304 52.7953 17.6247 53.3468 17.0071L53.6654 16.6504L53.6363 16.4348C53.5733 15.9667 52.5924 15.2211 51.6087 14.8937L51.0007 14.6913L50.2374 14.6694C49.7339 14.6551 49.3391 14.6768 49.0772 14.7333ZM3.05306 17.5259C1.51419 21.6377 0.514987 24.541 0.567133 24.7491L0.602915 24.8916L0.96507 24.8866C1.16431 24.884 1.32759 24.8677 1.3279 24.8506C1.32826 24.8334 1.62362 24.8114 1.98431 24.8016C2.34499 24.7919 2.79123 24.7644 2.97594 24.7405L3.31178 24.6972L3.58283 23.8637L3.85394 23.0302L4.59034 22.9316C4.99542 22.8774 5.44013 22.8331 5.57868 22.8331C6.13306 22.8335 6.43623 22.6822 5.98321 22.6313C5.83276 22.6144 5.8537 22.6101 6.04427 22.6188C6.20383 22.6261 6.33431 22.6073 6.33431 22.5771C6.33431 22.5469 6.45607 22.5284 6.60488 22.5361L6.87544 22.5502L6.97094 22.7681C7.02351 22.888 7.12078 23.1658 7.18722 23.3853C7.30586 23.7774 7.55505 24.1486 7.60305 24.0046C7.61611 23.9654 7.69482 23.9333 7.77793 23.9333C7.86317 23.9333 7.91263 23.96 7.89138 23.9944C7.86989 24.0292 7.92753 24.0582 8.02516 24.0616L8.19669 24.0677L8.04403 24.1166L7.89138 24.1656L8.16115 24.1716C8.51823 24.1797 9.81585 24.0032 9.9547 23.9276C10.0148 23.8949 10.0864 23.8819 10.1136 23.8988C10.141 23.9157 10.1923 23.8658 10.2277 23.788L10.2921 23.6465L10.171 23.3775C10.1044 23.2294 9.82165 22.5583 9.54266 21.8861C9.26367 21.2139 8.64371 19.7289 8.16505 18.5861C7.6864 17.4433 7.1849 16.2196 7.05069 15.8667C6.91653 15.5137 6.78971 15.2072 6.76895 15.1853C6.74819 15.1635 6.25036 15.1001 5.66264 15.0447C5.07492 14.9891 4.47042 14.9287 4.31929 14.9103L4.04451 14.8769L3.05306 17.5259ZM25.5695 14.9977C25.5682 15.1094 25.7466 15.1631 25.8322 15.0767L25.9045 15.0039L25.7914 15.0469C25.7212 15.0737 25.658 15.0577 25.6244 15.0048L25.5705 14.9194L25.5695 14.9977ZM43.4291 15.3227C43.1268 15.3504 42.0415 15.4302 41.0172 15.5001C39.9928 15.57 39.1205 15.639 39.0785 15.6534L39.0021 15.6795V19.4628V23.2461L39.0785 23.307C39.1205 23.3405 39.4845 23.3864 39.8875 23.4091C40.2905 23.4318 41.0462 23.4884 41.5667 23.535C42.0872 23.5816 42.9116 23.6526 43.3985 23.6928C43.8855 23.7331 44.3637 23.8036 44.4613 23.8497C44.5588 23.8957 44.6899 23.9333 44.7526 23.9333H44.8666L44.8501 22.7569L44.8335 21.5805L43.1238 21.4889L41.4141 21.3972L41.3939 21.1849C41.3828 21.0682 41.3915 20.8542 41.4132 20.7093L41.4526 20.4461L42.4409 20.4829C43.4921 20.522 43.6103 20.5376 43.5534 20.6298C43.5335 20.662 43.6211 20.7058 43.7479 20.7272C43.8748 20.7487 44.0228 20.7782 44.0769 20.7928C44.3134 20.8569 44.3527 20.6055 44.3283 19.1892L44.3145 18.3868L42.8399 18.4192L41.3653 18.4517L41.3982 18.0418C41.4162 17.8165 41.441 17.6237 41.4531 17.6134C41.4652 17.6031 42.0796 17.5801 42.8185 17.5623C43.5573 17.5444 44.1117 17.5429 44.0506 17.5591L43.9393 17.5884L44.0506 17.6728C44.2012 17.7871 44.5282 17.7829 44.646 17.6651L44.7419 17.569V16.4123V15.2556L44.3603 15.264C44.1504 15.2686 43.7313 15.295 43.4291 15.3227ZM12.532 15.6127C11.9521 15.7644 11.6975 15.8807 11.2566 16.1956C10.5516 16.6991 10.0776 17.352 9.76895 18.2445L9.60854 18.7083L9.60714 19.625L9.6058 20.5417L9.71455 20.9337C9.86274 21.4676 10.1587 22.0572 10.4378 22.3746C10.5653 22.5196 10.6708 22.6615 10.6722 22.6899C10.6755 22.76 11.4349 23.2275 11.7382 23.3463C12.4597 23.6287 13.5276 23.708 14.2659 23.5338C14.4806 23.4832 14.6674 23.4528 14.6808 23.4663C14.6943 23.4798 14.6286 23.5088 14.5347 23.5308C14.1491 23.6212 13.6884 23.7729 13.6311 23.8283C13.5258 23.9305 14.3424 23.8201 14.8905 23.6581C15.5756 23.4555 16.5041 22.9932 16.6389 22.7874L16.7453 22.6251V20.9722V19.3194H15.6767H14.6081L14.5913 20.2777L14.5745 21.2359L14.3471 21.3156C14.222 21.3594 13.9136 21.3941 13.6617 21.3926L13.2037 21.39L12.9537 21.2597C12.2393 20.8874 11.8958 19.9081 12.1855 19.0694C12.3705 18.5338 12.8165 18.1171 13.2905 18.0369C13.4235 18.0144 13.5192 17.9635 13.5192 17.9152V17.8322L13.2698 17.8544L13.0205 17.8765L13.1218 17.8189C13.2745 17.732 13.9969 17.7013 14.249 17.7709C14.4801 17.8347 14.9906 18.1643 15.2426 18.4124L15.3887 18.5562L15.4657 18.4922L15.5427 18.4283L15.5692 18.5071L15.5957 18.5861L15.744 18.507C15.9792 18.3817 16.7238 17.642 16.6824 17.5749C16.6618 17.5415 16.7194 17.4256 16.8103 17.3174L16.9757 17.1207L16.4941 16.6716C15.6908 15.9224 14.8195 15.5742 13.6311 15.5274L12.9595 15.501L12.532 15.6127ZM33.7217 15.8798C32.9164 15.9102 32.2432 15.9583 32.2257 15.9866C32.2081 16.015 32.2011 17.6084 32.21 19.5275L32.2263 23.0166H32.7048C32.968 23.0166 33.3488 23.0339 33.5509 23.0551L33.9185 23.0935L33.8903 23.2014L33.8621 23.3093L34.17 23.3516C34.3394 23.3749 34.5067 23.3762 34.5418 23.3545C34.582 23.3297 34.6057 22.953 34.6057 22.3408V21.3667L34.682 21.3613C34.724 21.3583 35.0331 21.3595 35.369 21.364C35.7048 21.3684 36.1125 21.3465 36.2749 21.3151C36.4374 21.2838 36.5473 21.2805 36.5192 21.3077C36.4911 21.3349 36.3859 21.3662 36.2854 21.3772C36.1648 21.3904 36.0954 21.4362 36.081 21.512L36.0592 21.6267L36.3552 21.5852C37.3874 21.4404 38.2758 20.8278 38.4539 20.1381C38.4834 20.024 38.5639 19.7387 38.6327 19.5041C38.8865 18.6393 38.749 17.6025 38.2905 16.9241C37.9271 16.3864 37.3285 16.0289 36.5627 15.8921C36.052 15.801 35.8361 15.8 33.7217 15.8798ZM17.2643 19.5375V23.2178L18.0831 23.1752C18.6335 23.1467 18.915 23.1538 18.9416 23.1969C18.9644 23.2338 18.9278 23.2611 18.8555 23.2611C18.7864 23.2611 18.7298 23.2886 18.7298 23.3222C18.7298 23.3575 18.9231 23.3833 19.1877 23.3833H19.6457V22.5354C19.6457 22.0691 19.6628 21.6016 19.6838 21.4965L19.722 21.3055H19.9869H20.2517L20.5084 21.6839C20.6497 21.8919 20.7651 22.0966 20.7651 22.1388C20.7651 22.181 20.7854 22.21 20.8102 22.2035C20.8349 22.197 20.9756 22.3704 21.1227 22.5889L21.3902 22.9861L22.3625 22.9776L23.3348 22.9691L23.2185 23.0542L23.1022 23.1393L23.1665 23.2037C23.2019 23.2391 23.379 23.2596 23.5601 23.2493L23.8894 23.2305L23.9087 22.9954C23.9206 22.8512 23.8935 22.7212 23.8387 22.6593C23.7896 22.6037 23.5139 22.2178 23.2261 21.8016L22.7028 21.0448L22.9439 20.8701C23.2214 20.6689 23.524 20.2448 23.4618 20.1441C23.4386 20.1064 23.4643 20.0261 23.5189 19.9657C23.5736 19.9052 23.6776 19.6153 23.7501 19.3215L23.8819 18.7872L23.8112 18.3014C23.6563 17.2382 23.0053 16.5294 21.8518 16.1679L21.447 16.0411L20.4395 15.9888C19.8853 15.96 18.9442 15.9186 18.3481 15.8968L17.2643 15.8572V19.5375ZM27.0341 15.9539C25.5115 16.2926 24.4617 17.1943 24.0762 18.4944C23.9439 18.9408 23.9421 20.0451 24.0729 20.5417C24.1261 20.7433 24.2645 21.0684 24.3806 21.2641C24.4967 21.4598 24.5917 21.65 24.5917 21.6868C24.5917 21.7236 24.6059 21.7394 24.6233 21.722C24.6407 21.7047 24.7987 21.8324 24.9744 22.0061C25.3224 22.3499 25.9069 22.6761 26.5761 22.9001L27.0036 23.0432L27.9195 23.0452C28.4232 23.0463 28.7805 23.0553 28.7133 23.0652C28.6461 23.0751 28.5225 23.1364 28.4385 23.2014L28.2859 23.3195L28.502 23.3209C28.8468 23.323 29.4063 23.1571 29.9459 22.8928C31.1724 22.2919 31.8111 21.1258 31.8191 19.4722C31.8227 18.7491 31.7234 18.3263 31.41 17.7305C31.1358 17.2093 30.4825 16.5868 29.9309 16.3213C29.0954 15.9191 27.8822 15.7652 27.0341 15.9539ZM27.5226 17.8936C27.2294 17.9765 27.1731 18.0473 27.4239 18.018C27.721 17.9832 27.7577 18.1091 27.4728 18.1858C26.9476 18.3274 26.4818 18.8718 26.389 19.4527C26.2969 20.029 26.6814 20.7148 27.2435 20.9767C27.8084 21.24 28.4281 21.1555 28.8851 20.7529C29.3397 20.3523 29.5221 19.6835 29.3428 19.075C29.3031 18.9405 29.2676 18.8168 29.2638 18.8C29.2236 18.623 29.1518 18.4993 29.1058 18.5277C29.0746 18.547 29.0491 18.5162 29.0491 18.4592C29.0491 18.2089 28.3743 17.8175 27.9602 17.8277C27.8371 17.8308 27.6401 17.8604 27.5226 17.8936ZM34.6057 18.6167V19.4111L35.0484 19.4096C35.6658 19.4076 35.9486 19.3299 36.1475 19.1078L36.3154 18.9203V18.6432C36.3154 18.3286 36.1964 18.0574 35.9969 17.9176L35.8608 17.8222H35.2332H34.6057V18.6167ZM19.6855 18.0659C19.6636 18.1756 19.6457 18.524 19.6457 18.8401V19.415L19.7477 19.4541C19.8039 19.4757 20.1083 19.4653 20.4242 19.431L20.9986 19.3687L21.1788 19.1882C21.4123 18.9546 21.4649 18.6456 21.3224 18.3451C21.1607 18.0041 21.0121 17.9375 20.3288 17.8998L19.7254 17.8666L19.6855 18.0659ZM34.6891 18.0189C34.6728 18.0451 34.7574 18.0667 34.8769 18.0667C34.9964 18.0667 35.0942 18.0387 35.0942 18.0046C35.0942 17.9336 34.7339 17.9464 34.6891 18.0189ZM19.8767 18.1421L20.016 18.2094L20.0873 18.138L20.1586 18.0667L19.9479 18.0708L19.7373 18.0749L19.8767 18.1421ZM5.25402 18.6231C5.18135 18.838 5.10485 19.1173 5.08408 19.2437C5.06326 19.37 4.9663 19.6427 4.86854 19.8495C4.77078 20.0564 4.70501 20.2486 4.72236 20.2767C4.76437 20.3446 6.01258 20.3427 6.05459 20.2747C6.07267 20.2454 5.96215 19.881 5.80907 19.4649C5.65598 19.0488 5.4982 18.6012 5.45845 18.4703L5.38622 18.2322L5.25402 18.6231ZM22.6425 20.8523C22.6454 20.9235 22.6599 20.938 22.6794 20.8893C22.697 20.8451 22.6948 20.7924 22.6746 20.7721C22.6543 20.7518 22.6399 20.7879 22.6425 20.8523ZM34.7722 21.5617C34.731 21.5878 34.8622 21.6092 35.0637 21.6092H35.43L35.3384 21.5495C35.235 21.482 34.8856 21.4895 34.7722 21.5617ZM3.89668 22.8078C3.89962 22.879 3.91409 22.8935 3.93357 22.8448C3.95121 22.8007 3.94901 22.7479 3.92874 22.7277C3.90847 22.7074 3.89406 22.7434 3.89668 22.8078ZM18.352 23.3639C18.396 23.3816 18.4487 23.3794 18.469 23.3591C18.4892 23.3388 18.4532 23.3244 18.3889 23.327C18.3177 23.33 18.3032 23.3444 18.352 23.3639ZM8.57832 23.9738C8.62033 23.9908 8.68902 23.9908 8.73097 23.9738C8.77298 23.9568 8.7386 23.943 8.65464 23.943C8.57069 23.943 8.53637 23.9568 8.57832 23.9738ZM33.3387 24.4066C33.0281 24.4177 32.7739 24.448 32.7739 24.4739C32.7739 24.4999 32.8085 24.5684 32.8508 24.6264L32.9277 24.7317L35.2475 24.6692C36.5233 24.6349 38.0794 24.6065 38.7056 24.6061L39.8439 24.6055L39.8763 24.5211C39.8989 24.462 39.8412 24.4255 39.6844 24.3995C39.4611 24.3626 34.4143 24.3682 33.3387 24.4066ZM9.88094 24.5617C9.85108 24.6402 9.79106 24.9167 9.74752 25.1761L9.66832 25.6478L9.74013 26.1408C9.8832 27.1234 10.5303 28.0609 11.3739 28.5077C12.4538 29.0798 12.9816 29.8684 13.2003 31.2361L13.298 31.8472L13.5166 32.2961C13.9316 33.1483 14.8047 33.8346 15.7002 34.0125C17.2738 34.325 17.485 34.4142 18.0909 35.0218C18.3273 35.2588 18.6386 35.6537 18.7826 35.8992C19.2493 36.6946 19.9632 37.2619 20.7673 37.4761C21.259 37.6071 21.9807 37.5811 22.7659 37.404L23.462 37.247L23.8284 37.2822C24.3644 37.3337 24.9166 37.5378 25.3768 37.8545C25.5998 38.008 25.8923 38.2077 26.0266 38.2983C26.1609 38.3889 26.4717 38.5351 26.7172 38.6232L27.1635 38.7833H27.7335H28.3035L28.7127 38.6568C28.9378 38.5872 29.1307 38.5391 29.1413 38.5498C29.152 38.5606 28.9685 38.6657 28.7337 38.7833L28.3069 38.9972L28.4542 39.0155C28.6469 39.0395 29.1847 38.825 29.5346 38.5844C30.3432 38.0286 30.538 37.909 30.8625 37.7693L31.2168 37.6166L30.9614 37.6436C30.8209 37.6584 30.5462 37.7421 30.3508 37.8295L29.9956 37.9885L30.1476 37.86C30.4288 37.6226 30.9011 37.4254 31.3965 37.3388C31.9353 37.2446 32.1779 37.2621 32.9571 37.4513C33.5969 37.6067 34.274 37.616 34.7496 37.4759C34.9464 37.4179 35.1173 37.3805 35.1295 37.3927C35.1417 37.4049 34.9969 37.4959 34.8077 37.5949C34.4234 37.796 34.4965 37.8691 34.9538 37.741C35.5843 37.5643 36.3108 36.9181 36.7941 36.1038C37.2436 35.3467 37.9794 34.7472 38.7128 34.5407C38.8887 34.4911 39.2937 34.4073 39.6127 34.3544C40.3514 34.2319 40.8585 33.9827 41.3567 33.4972C41.9256 32.9429 42.1516 32.4318 42.3923 31.1552C42.576 30.1808 42.9623 29.5866 43.7452 29.0745C44.5773 28.5301 44.7662 28.3827 45.0234 28.0772C45.3884 27.6436 45.6009 27.2174 45.6397 26.8411L45.6736 26.5127L45.537 26.0633C45.4618 25.8161 45.3531 25.3664 45.2953 25.0639L45.1903 24.5139H44.3734H43.5566L43.3257 25.3252C42.651 27.6957 41.5818 29.3758 39.3112 31.6333C37.8568 33.0793 35.5693 34.521 33.5411 35.2698C32.8341 35.5308 31.3459 35.9186 30.5146 36.0583C28.6732 36.3679 26.4562 36.3471 24.6371 36.003C18.8157 34.9021 13.9368 30.7076 11.9485 25.0944L11.7213 24.4528L10.8282 24.4358L9.93516 24.4189L9.88094 24.5617ZM31.5954 24.4894C31.6812 24.5753 32.0571 24.5765 32.2036 24.4913L32.3159 24.4259L31.9221 24.424L31.5282 24.4222L31.5954 24.4894ZM29.0491 24.5247C28.8644 24.535 27.9302 24.5858 26.973 24.6375C25.3259 24.7265 22.2252 24.9495 22.0271 24.9932C21.9767 25.0043 21.2485 24.9787 20.409 24.9365C19.5694 24.8942 18.0925 24.8395 17.1269 24.815L15.3714 24.7705V24.8386C15.3714 24.9685 15.6099 25.0333 16.0848 25.0323C16.8421 25.0306 19.6475 25.1741 19.6094 25.2124C19.5904 25.2316 19.3367 25.2773 19.0455 25.3142L18.5161 25.3812L17.3864 25.3007C16.7651 25.2564 16.0965 25.2194 15.9006 25.2184L15.5444 25.2166L15.5694 25.293C15.6013 25.3906 15.8669 25.4459 16.5926 25.5061L17.1727 25.5543L16.5396 25.6576C16.1913 25.7143 15.8926 25.7747 15.8758 25.7915C15.843 25.8243 16.1353 26.352 16.2127 26.3999C16.238 26.4156 16.3849 26.4048 16.5391 26.376C16.9051 26.3076 19.4836 25.928 20.6532 25.7705C21.9003 25.6025 24.0199 25.3683 25.3854 25.2475L26.5151 25.1477L26.7371 25.0294C26.9979 24.8904 27.1409 24.8805 27.2735 24.9924L27.3699 25.0736L28.4926 24.9902L29.6152 24.9068L29.8817 24.7153C30.0283 24.6099 30.1482 24.5146 30.1482 24.5035C30.1482 24.4825 29.6248 24.4925 29.0491 24.5247ZM30.1547 24.6597L29.8253 24.8304L29.6967 25.1636C29.5675 25.4985 29.4274 25.6507 28.6988 26.2479L28.379 26.5101L28.2007 26.4708C27.9248 26.4102 27.5837 26.0883 27.5837 25.8886C27.5837 25.7962 27.5424 25.6863 27.4921 25.6444C27.4417 25.6026 27.4005 25.4935 27.4005 25.402C27.4005 25.2056 27.2324 25.0333 27.041 25.0333C26.7052 25.0333 26.1694 25.713 26.1863 26.1174L26.1934 26.2861L26.2203 26.1639C26.2906 25.8439 26.4007 25.6542 26.6546 25.4153C26.8064 25.2724 26.9634 25.1555 27.0035 25.1555C27.1239 25.1555 27.2783 25.3686 27.2783 25.5348C27.2783 25.6205 27.3193 25.7246 27.3693 25.7662C27.4232 25.8109 27.4468 25.896 27.427 25.9746L27.3937 26.1075L27.6109 26.3053C27.8474 26.5207 28.0625 26.6222 28.2824 26.6222C28.3713 26.6222 28.6483 26.4304 29.0288 26.1052L29.6339 25.5883L29.7437 25.2825L29.8536 24.9767L30.1332 24.8203L30.4128 24.6639L30.8575 24.65C31.1021 24.6423 31.3306 24.6644 31.3653 24.6992C31.4086 24.7425 31.2945 24.7547 31.0009 24.738C30.5967 24.7152 30.2093 24.8 30.2093 24.9114C30.2093 24.937 30.159 24.9711 30.0975 24.9872C30.0264 25.0058 29.9567 25.12 29.9062 25.3002L29.8269 25.584L29.4961 25.874C29.3142 26.0334 29.0224 26.2958 28.8477 26.4571L28.5301 26.7503L28.2947 26.7151C27.9946 26.6701 27.771 26.5536 27.4891 26.2951L27.2647 26.0893L27.3044 25.964C27.329 25.8865 27.2979 25.7624 27.2228 25.6389C27.1561 25.529 27.1143 25.4185 27.1299 25.3933C27.1455 25.368 27.1309 25.3304 27.0975 25.3097C27.0194 25.2614 26.6677 25.5198 26.6677 25.6254C26.6677 25.6695 26.6297 25.7055 26.5833 25.7055C26.4049 25.7055 26.3682 26.2216 26.5401 26.3137C26.6172 26.355 26.6458 26.4178 26.6246 26.4992L26.5925 26.6222H26.7146C26.8591 26.6222 26.9197 26.7983 26.8565 27.0348C26.8284 27.1398 26.7292 27.2449 26.5872 27.3197C26.4636 27.3849 26.3624 27.4746 26.3624 27.5191C26.3624 27.5636 26.3108 27.6 26.2478 27.6C26.1847 27.6 26.0979 27.6424 26.0548 27.6945C26.0118 27.7464 25.9446 27.7766 25.9056 27.7616C25.8212 27.7292 25.6713 27.9468 25.7217 28.0284C25.741 28.0597 25.687 28.1028 25.6017 28.1242C25.5163 28.1457 25.4465 28.1869 25.4465 28.216C25.4465 28.245 25.336 28.2594 25.2009 28.2479C25.0659 28.2365 24.9406 28.251 24.9225 28.2802C24.9045 28.3094 24.8288 28.3333 24.7543 28.3333C24.6798 28.3333 24.5646 28.3713 24.4984 28.4177C24.4322 28.4641 24.2746 28.4938 24.1483 28.4838C23.9972 28.4718 23.8844 28.4998 23.8186 28.5658C23.6823 28.7021 23.4415 28.8222 23.3043 28.8222C23.2288 28.8222 23.2028 28.8527 23.2262 28.9139L23.2614 29.0055H23.1022H22.943V29.1277C22.943 29.2068 22.9023 29.25 22.8279 29.25H22.7128L22.6142 29.5517C22.56 29.7177 22.5156 29.918 22.5156 29.9969C22.5156 30.1607 22.7331 30.312 23.0651 30.3791C23.1827 30.4028 23.385 30.491 23.5148 30.575L23.7508 30.7276L24.3697 30.6873C24.71 30.6651 25.2269 30.6415 25.5183 30.6348L26.0479 30.6226L26.1791 30.4558C26.2512 30.364 26.3506 30.2889 26.4 30.2889C26.4494 30.2889 26.6572 30.2407 26.8617 30.1819L27.2336 30.075L27.3869 29.8448C27.4769 29.7096 27.6059 29.6006 27.6993 29.5808C27.9941 29.5182 28.3712 29.3649 28.5819 29.2218C28.7997 29.0739 29.2291 28.9891 29.3577 29.0687C29.4004 29.0951 29.4171 29.176 29.3971 29.2587C29.3734 29.3564 29.4076 29.4589 29.5032 29.5774L29.6443 29.752L29.7686 29.7125C30.0649 29.6184 30.4818 29.0772 30.4406 28.8401C30.4298 28.7783 30.5211 28.6722 30.6744 28.568C30.8482 28.45 30.9665 28.3026 31.0577 28.0903C31.1303 27.9215 31.218 27.7833 31.2526 27.7833C31.2873 27.7833 31.2973 27.7537 31.275 27.7175C31.2527 27.6813 31.2922 27.5978 31.363 27.5318C31.4337 27.4658 31.4916 27.3561 31.4916 27.288C31.4916 27.2199 31.5191 27.1126 31.5528 27.0497C31.5907 26.9787 31.5921 26.9216 31.5564 26.8996C31.4762 26.8499 31.5926 26.538 31.742 26.4028L31.8625 26.2936L31.6618 26.1222L31.4611 25.9508L31.5263 25.8476C31.562 25.7907 31.6307 25.725 31.6789 25.7014C31.727 25.6778 31.8437 25.6223 31.9383 25.5779C32.0459 25.5275 32.1228 25.4345 32.1437 25.3297C32.1652 25.2221 32.2219 25.1555 32.3021 25.1436C32.4297 25.1246 32.5011 24.9384 32.4038 24.8782C32.3742 24.8599 32.2799 24.8908 32.1943 24.947L32.0387 25.049L31.7614 24.943C31.6089 24.8848 31.496 24.8252 31.5105 24.8107C31.525 24.7961 31.6091 24.8172 31.6974 24.8575L31.8579 24.9307L32.1002 24.8507L32.3425 24.7706L32.4361 24.8483C32.4875 24.8911 32.5296 24.9793 32.5296 25.0444C32.5296 25.2031 32.1915 25.6157 31.9393 25.7646C31.7191 25.8946 31.6831 26.0134 31.8274 26.1333C31.96 26.2434 31.9398 26.4785 31.7888 26.5844L31.6585 26.6757L31.6945 26.8135C31.7526 27.0354 31.5657 27.5485 31.2413 28.0583C31.1557 28.1928 31.0684 28.3498 31.0473 28.4073C31.0261 28.4648 30.9117 28.5748 30.793 28.6517L30.5772 28.7916L30.5764 28.9773L30.5757 29.163L30.2766 29.4817C30.0867 29.6842 29.908 29.8145 29.7869 29.8387C29.562 29.8837 29.4741 29.9833 29.6592 29.9833C29.8743 29.9833 30.1217 29.8195 30.4168 29.4818C30.6064 29.2649 30.6978 29.1051 30.6978 28.9904V28.8204L30.8901 28.7033C30.9962 28.6388 31.1492 28.4542 31.2313 28.2918C31.3132 28.1297 31.419 27.9752 31.4664 27.9483C31.5138 27.9214 31.5526 27.8627 31.5526 27.8178C31.5526 27.7729 31.5937 27.6574 31.6439 27.5611C31.694 27.4649 31.7352 27.3396 31.7355 27.2828C31.7356 27.2259 31.7633 27.1624 31.7969 27.1416C31.8305 27.1209 31.858 27.0041 31.858 26.8822C31.858 26.7369 31.905 26.6105 31.9945 26.5151L32.1312 26.3696L31.9996 26.1292C31.9273 25.997 31.8926 25.8889 31.9227 25.8889C31.9527 25.8889 32.129 25.7418 32.3145 25.562L32.6517 25.235V25.0134V24.7917L32.4992 24.6916L32.3466 24.5915L32.1396 24.6899L31.9326 24.7881L31.5882 24.6357L31.2439 24.4833L30.8639 24.4862L30.4841 24.4891L30.1547 24.6597ZM0.655611 24.7908C0.655611 24.8233 0.696827 24.85 0.747203 24.85C0.797578 24.85 0.838795 24.8392 0.838795 24.826C0.838795 24.8128 0.797578 24.7861 0.747203 24.7667C0.696827 24.7474 0.655611 24.7583 0.655611 24.7908ZM38.0862 24.7971C35.9314 24.8554 33.1315 24.9728 33.0029 25.0103C32.8531 25.0541 32.858 25.3389 33.0084 25.3389C33.0703 25.3389 33.7091 25.2988 34.4281 25.2498C36.398 25.1156 39.1352 24.9984 39.5792 25.0293C39.6157 25.0318 39.6155 25.0549 39.5789 25.0916C39.5469 25.1237 38.7239 25.2072 37.7501 25.2772C35.8646 25.4128 34.3576 25.5366 33.1785 25.6529L32.4535 25.7244L32.2931 25.8625C32.2049 25.9385 32.1514 26.0193 32.1741 26.0422C32.1968 26.065 33.186 25.9854 34.3723 25.8653C36.9549 25.604 39.1729 25.4283 39.2256 25.481C39.327 25.5825 39.0858 25.6934 38.6805 25.7316C37.3281 25.8591 33.8299 26.2765 32.6706 26.4486L32.2315 26.5138L32.167 26.6987L32.1026 26.8837L32.4229 26.848C32.5992 26.8284 33.2929 26.73 33.9646 26.6294C34.6362 26.5288 35.4056 26.4182 35.6743 26.3837C39.2151 25.9294 39.0623 25.9378 38.8569 26.2085L38.7766 26.3144L36.5843 26.651C33.1097 27.1846 31.9604 27.3893 31.9046 27.4845C31.8772 27.5312 31.762 27.7265 31.6485 27.9185L31.4422 28.2677L31.5432 28.2965C31.5987 28.3123 31.8778 28.3708 32.1633 28.4264C32.4487 28.4821 33.488 28.7039 34.4728 28.9194C35.4576 29.1348 36.3105 29.3111 36.3682 29.3111C36.4259 29.3111 36.5925 29.1894 36.7384 29.0407L37.0036 28.7703L36.7664 28.7065C36.4209 28.6135 32.9222 27.9213 32.5449 27.8712C32.3685 27.8478 32.2243 27.8085 32.2243 27.7839C32.2243 27.7592 32.5059 27.6916 32.8502 27.6336L33.4761 27.528L34.5752 27.7181C35.1797 27.8227 36.0864 27.9869 36.5902 28.0829C37.094 28.1791 37.5336 28.2428 37.5672 28.2245C37.6008 28.2063 37.5616 28.2646 37.4802 28.354L37.3322 28.5166H37.4281C37.5624 28.5166 37.9186 28.0954 37.8767 27.9861C37.8578 27.9369 37.8693 27.8464 37.9021 27.785L37.9618 27.6733L37.8867 27.6455C37.8453 27.6302 37.2825 27.5244 36.636 27.4104C35.9895 27.2964 35.4606 27.1883 35.4606 27.1702C35.4606 27.1522 35.7372 27.0946 36.0753 27.0423L36.69 26.9472L37.4644 27.0982C37.8904 27.1812 38.2497 27.2587 38.2629 27.2703C38.276 27.282 38.2515 27.334 38.2083 27.3861C38.1171 27.4961 38.1632 27.5693 38.2925 27.5196C38.4538 27.4576 38.88 26.7637 38.88 26.5629V26.3747L39.0244 26.3198C39.182 26.2598 39.2464 26.1424 39.2464 25.9144C39.2464 25.8322 39.2824 25.7666 39.3276 25.7666C39.3723 25.7666 39.4443 25.691 39.4874 25.5986C39.5306 25.5061 39.5926 25.379 39.6252 25.3159C39.6974 25.1762 39.7379 24.795 39.683 24.7718C39.6612 24.7626 38.9426 24.774 38.0862 24.7971ZM41.1163 25.1555C41.0958 25.206 41.0283 25.3985 40.9662 25.5833L40.8534 25.9194L40.3704 25.95L39.8875 25.9805L40.2691 26.2425C40.4791 26.3866 40.6508 26.5143 40.6508 26.5264C40.6508 26.5384 40.5939 26.7325 40.5244 26.9578C40.4548 27.183 40.407 27.3764 40.4181 27.3874C40.4291 27.3985 40.6003 27.2861 40.7985 27.1377C41.0137 26.9766 41.1856 26.8879 41.2254 26.9175C41.262 26.9447 41.4225 27.0715 41.582 27.1992L41.872 27.4314V27.3314C41.872 27.2765 41.8263 27.0668 41.7703 26.8656C41.7145 26.6644 41.6801 26.4912 41.694 26.4808C41.7079 26.4704 41.87 26.3536 42.0541 26.2212L42.3889 25.9805L41.921 25.9628L41.4531 25.945L41.3033 25.5044C41.2121 25.2361 41.139 25.0997 41.1163 25.1555ZM14.1598 25.5375L14.0429 25.9194L13.5623 25.95L13.0816 25.9805L13.4677 26.2456C13.6801 26.3914 13.8421 26.5426 13.8277 26.5817C13.6944 26.9443 13.5941 27.3082 13.6203 27.3345C13.6379 27.3521 13.8039 27.252 13.9891 27.1121L14.326 26.8575L14.5129 26.9958C14.6156 27.0719 14.6997 27.152 14.6997 27.1739C14.6997 27.2194 15.0103 27.3706 15.041 27.3399C15.0521 27.3288 15.0058 27.1421 14.9382 26.9251L14.8154 26.5305L14.9696 26.4083C15.0545 26.3411 15.2131 26.2173 15.3222 26.1333L15.5204 25.9805L15.0674 25.95L14.6145 25.9194L14.4927 25.5375C14.4257 25.3274 14.3497 25.1555 14.3238 25.1555C14.2979 25.1555 14.2241 25.3274 14.1598 25.5375ZM28.4385 25.3022L27.6752 25.3694L27.6924 25.5801C27.7018 25.6959 27.7182 25.7994 27.7287 25.81C27.7503 25.8316 28.9451 25.7163 29.1499 25.673C29.2294 25.6562 29.3077 25.5691 29.3483 25.4524C29.4336 25.2075 29.4349 25.215 29.3086 25.2258C29.2499 25.2308 28.8583 25.2652 28.4385 25.3022ZM24.958 25.6219C22.8753 25.8502 20.0383 26.234 18.3939 26.5099C17.3864 26.679 16.5517 26.8273 16.5389 26.8396C16.5079 26.8696 16.8999 27.4778 16.9501 27.4774C16.9717 27.4773 17.3467 27.4079 17.7833 27.3234C19.767 26.9394 22.6701 26.4713 24.7748 26.1963C25.2954 26.1282 25.7974 26.0564 25.8905 26.0367L26.0598 26.0008L26.1501 25.7846C26.1997 25.6657 26.2403 25.558 26.2403 25.5453C26.2403 25.5057 25.7519 25.5349 24.958 25.6219ZM28.2086 26.1766C28.1326 26.1912 28.0861 26.2287 28.1054 26.2599C28.1587 26.3463 28.4007 26.3276 28.5337 26.2269L28.6522 26.1372L28.4996 26.1436C28.4156 26.1471 28.2847 26.1619 28.2086 26.1766ZM24.7748 26.63C22.1372 27.0363 18.0661 27.7799 17.5173 27.9555L17.3734 28.0015L17.6394 28.2947L17.9054 28.588L20.0426 28.1294C22.6498 27.5702 23.2264 27.4576 25.5609 27.0533C25.9429 26.9872 26.2681 26.9202 26.2838 26.9047C26.2994 26.889 26.2496 26.7916 26.1731 26.6881L26.0342 26.5L25.7861 26.5062C25.6497 26.5096 25.1946 26.5653 24.7748 26.63ZM26.3624 26.5916C26.3624 26.6421 26.3891 26.6833 26.4216 26.6833C26.4541 26.6833 26.4649 26.6421 26.4456 26.5916C26.4262 26.5412 26.3996 26.5 26.3864 26.5C26.3732 26.5 26.3624 26.5412 26.3624 26.5916ZM41.7804 26.6222C41.7597 26.6558 41.7702 26.6833 41.8037 26.6833C41.8373 26.6833 41.8818 26.6558 41.9025 26.6222C41.9233 26.5886 41.9128 26.5611 41.8792 26.5611C41.8456 26.5611 41.8012 26.5886 41.7804 26.6222ZM26.5659 26.8999C26.5659 26.9488 26.5888 26.9889 26.6169 26.9889C26.6448 26.9889 26.6677 26.963 26.6677 26.9314C26.6677 26.8997 26.6448 26.8597 26.6169 26.8424C26.5888 26.8251 26.5659 26.8509 26.5659 26.8999ZM26.1915 27.1233C26.1512 27.1636 26.1182 27.2318 26.1182 27.2749C26.1182 27.3178 26.0133 27.4066 25.8851 27.4721C25.7569 27.5375 25.6171 27.6333 25.5742 27.6849C25.5052 27.7681 24.9584 28.0059 24.7138 28.059C24.6634 28.07 24.518 28.1233 24.3905 28.1775C24.2631 28.2317 24.1304 28.2585 24.0957 28.237C24.0093 28.1835 23.5112 28.3288 23.4252 28.4326C23.3869 28.4788 23.3021 28.5166 23.2368 28.5166C23.0549 28.5166 22.4656 29.159 22.4189 29.4083C22.3973 29.5236 22.3552 29.6331 22.3255 29.6515C22.2505 29.6979 22.2591 30.1769 22.3369 30.2889L22.4007 30.3805L22.3625 30.1291C22.3036 29.7398 22.4702 29.3169 22.8102 28.9932C23.1772 28.6436 23.8604 28.3132 24.0913 28.3736C24.1586 28.3912 24.3056 28.3655 24.4179 28.3164C24.5303 28.2674 24.7864 28.1755 24.9871 28.1122C25.1878 28.049 25.4351 27.9256 25.5366 27.838C25.6382 27.7505 25.8178 27.6335 25.9359 27.5782C26.0538 27.5229 26.1775 27.4158 26.2106 27.3405C26.2437 27.2651 26.3258 27.1938 26.393 27.1819C26.6052 27.1445 26.6445 27.05 26.4479 27.05C26.3472 27.05 26.2318 27.083 26.1915 27.1233ZM23.7979 27.9025C22.6085 28.1498 20.8133 28.55 19.3559 28.8927C18.8775 29.0052 18.4946 29.1231 18.505 29.1548C18.5154 29.1864 18.6514 29.3205 18.8073 29.4527L19.0906 29.693L20.7878 29.2754C21.7401 29.041 22.5386 28.8126 22.6072 28.7549C22.8413 28.5579 23.4692 28.2833 24.2566 28.0336C24.6928 27.8953 25.0908 27.7553 25.1412 27.7225L25.2328 27.663L25.0801 27.6652C24.9962 27.6665 24.4192 27.7733 23.7979 27.9025ZM15.8262 28.2264L15.7018 28.5472L15.3534 28.5259C14.9514 28.5014 14.9095 28.5698 15.2119 28.7569C15.3257 28.8272 15.4491 28.9214 15.4862 28.9662L15.5537 29.0475L15.4584 29.3687C15.406 29.5453 15.3727 29.6994 15.3845 29.7112C15.3962 29.723 15.5256 29.6378 15.672 29.5219C15.8184 29.4059 15.9606 29.3111 15.988 29.3111C16.0154 29.3111 16.1146 29.4073 16.2084 29.525C16.3021 29.6426 16.43 29.7389 16.4923 29.7389H16.6057L16.5675 29.6393C16.4991 29.4608 16.3932 29.0012 16.4169 28.9854C16.4296 28.977 16.5499 28.8886 16.6842 28.7892L16.9285 28.6083L16.5668 28.5778L16.2051 28.5472L16.1163 28.2264C16.0674 28.0499 16.0102 27.9055 15.989 27.9055C15.9679 27.9055 15.8946 28.0499 15.8262 28.2264ZM39.5444 28.1958L39.4546 28.4861L39.1215 28.5048C38.9383 28.5152 38.7647 28.5473 38.7356 28.576C38.706 28.6054 38.7912 28.697 38.9289 28.7839C39.0643 28.8695 39.1907 28.9649 39.2099 28.9959C39.2291 29.027 39.205 29.1849 39.1562 29.347C39.1075 29.509 39.0785 29.6523 39.0916 29.6655C39.1049 29.6787 39.2426 29.6022 39.3977 29.4953L39.6798 29.3011L39.7837 29.3806C39.8408 29.4244 39.9367 29.5091 39.9968 29.569C40.0568 29.6288 40.1447 29.6777 40.192 29.6777H40.2781L40.2111 29.4854L40.1441 29.2932L40.2133 29.1821L40.2826 29.0712L40.1919 29.106C40.0048 29.1779 40.1134 28.9697 40.3478 28.8075C40.4809 28.7154 40.5897 28.6166 40.5897 28.588C40.5897 28.5594 40.4487 28.531 40.2763 28.525C40.1039 28.5188 39.9428 28.5014 39.9183 28.4863C39.8938 28.4711 39.8389 28.3342 39.7964 28.1821C39.7538 28.03 39.6999 27.9055 39.6766 27.9055C39.6533 27.9055 39.5938 28.0362 39.5444 28.1958ZM30.9878 29.0108C30.9291 29.1142 30.881 29.2327 30.881 29.2743C30.881 29.3185 31.0775 29.3948 31.3542 29.4581C31.6145 29.5176 32.5603 29.7455 33.4561 29.9644L35.0847 30.3623L35.3612 30.172C35.5131 30.0673 35.6526 29.9573 35.6711 29.9274C35.6896 29.8975 35.2856 29.7724 34.7735 29.6494C33.9393 29.449 31.1624 28.8216 31.114 28.8226C31.1034 28.8228 31.0466 28.9075 30.9878 29.0108ZM16.501 29.1277C16.4803 29.1614 16.4908 29.1889 16.5244 29.1889C16.5579 29.1889 16.6024 29.1614 16.6231 29.1277C16.6439 29.0941 16.6334 29.0666 16.5998 29.0666C16.5662 29.0666 16.5218 29.0941 16.501 29.1277ZM36.6954 29.2229C36.6207 29.2752 36.5597 29.3442 36.5597 29.3762C36.5597 29.4524 36.7928 29.3059 36.8313 29.2055C36.8693 29.1065 36.8597 29.1078 36.6954 29.2229ZM28.8049 29.2796C28.4763 29.4711 27.872 29.7389 27.7685 29.7389C27.7085 29.7389 27.5557 29.8655 27.429 30.0203L27.1985 30.3018L26.998 30.2692C26.8654 30.2477 26.7729 30.2663 26.7251 30.3239C26.6853 30.3718 26.573 30.4111 26.4756 30.4111H26.2983L26.2426 30.5579C26.2119 30.6387 26.1562 30.7237 26.1187 30.7468C26.0413 30.7947 24.9513 30.8423 24.1351 30.8334L23.5869 30.8274L23.4308 30.7162C23.345 30.655 23.1657 30.5852 23.0325 30.561C22.8993 30.537 22.7389 30.4906 22.6761 30.4581C22.597 30.4171 22.5744 30.419 22.6024 30.4645C22.6247 30.5006 22.7748 30.5693 22.936 30.6172C23.0972 30.6651 23.3364 30.7583 23.4677 30.8243C23.7603 30.9713 24.5928 31.0454 24.8277 30.9452C24.9161 30.9074 25.2546 30.8749 25.5798 30.873L26.1711 30.8694L26.3483 30.6996C26.4686 30.5843 26.6436 30.5056 26.8931 30.4547C27.2981 30.372 27.4255 30.2914 27.5587 30.0336C27.6089 29.9366 27.6984 29.8611 27.7634 29.8611C27.9187 29.8611 28.3864 29.6565 28.6665 29.466C28.9153 29.2968 29.0828 29.2685 29.1308 29.3875C29.1477 29.4295 29.1638 29.402 29.1664 29.3264C29.1721 29.1641 29.0338 29.1462 28.8049 29.2796ZM29.2689 29.6716C29.3209 29.7758 29.3725 29.8611 29.3837 29.8611C29.4335 29.8611 29.333 29.6138 29.2578 29.5514L29.1745 29.4821L29.2689 29.6716ZM20.8669 29.8409C20.3128 29.9928 19.8371 30.1382 19.8098 30.1639C19.7826 30.1897 19.9169 30.315 20.1084 30.4421L20.4566 30.6734L21.2266 30.4625L21.9965 30.2515L22.0149 29.9036L22.0332 29.5555L21.9538 29.56C21.9101 29.5626 21.421 29.6889 20.8669 29.8409ZM17.5696 30.3257V30.631L17.3559 30.7083C17.0776 30.809 17.0854 30.8796 17.3804 30.9295L17.6187 30.9698L17.6544 31.1029C17.674 31.1762 17.6904 31.298 17.6909 31.3736C17.6921 31.5711 17.7688 31.5432 17.9012 31.2972C18.0211 31.0743 18.0467 31.0593 18.2053 31.1202C18.2719 31.1458 18.2902 31.2021 18.2647 31.3035L18.228 31.45H18.347C18.4141 31.45 18.4958 31.3844 18.5345 31.2993L18.6031 31.1486L18.5291 31.0682C18.4883 31.024 18.4058 30.9303 18.3456 30.8599L18.2363 30.732L18.3685 30.5079C18.4412 30.3846 18.4869 30.2699 18.4701 30.253C18.4533 30.2362 18.3398 30.2702 18.2178 30.3283L17.9961 30.4342L17.7828 30.2273L17.5696 30.0205V30.3257ZM37.6297 30.2372L37.4677 30.4299L37.2558 30.3288C36.9433 30.1797 36.8996 30.2034 37.0421 30.4451C37.2038 30.7194 37.2032 30.7292 37.0101 30.959C36.9219 31.0638 36.8619 31.1617 36.8767 31.1765C36.8915 31.1913 36.9978 31.1764 37.1129 31.1434C37.4202 31.0551 37.4434 31.0632 37.5549 31.2972C37.6907 31.5823 37.7698 31.567 37.7927 31.2514L37.8114 30.9916L38.0709 30.9371C38.2136 30.9071 38.3305 30.862 38.3305 30.8368C38.3305 30.8116 38.2189 30.7463 38.0826 30.6918L37.8348 30.5925L37.8759 30.3185C37.9251 29.9897 37.8567 29.9671 37.6297 30.2372ZM21.3249 30.6555L21.2027 30.708L21.3249 30.7114C21.392 30.7133 21.4882 30.6881 21.5386 30.6555L21.6302 30.5963L21.5386 30.5997C21.4882 30.6015 21.392 30.6266 21.3249 30.6555ZM37.931 31.1485C37.9089 31.1843 37.9052 31.2281 37.9229 31.2457C37.9708 31.2937 38.2083 31.206 38.2083 31.1403C38.2083 31.0616 37.9805 31.0683 37.931 31.1485ZM19.4625 31.8603V32.1102L19.2641 32.1828L19.0656 32.2554L19.1877 32.306C19.2549 32.3337 19.358 32.3716 19.4167 32.3902C19.477 32.4092 19.524 32.4847 19.5245 32.5634C19.525 32.64 19.5497 32.7411 19.5794 32.7881L19.6334 32.8733L19.7327 32.6811C19.8666 32.4219 20.086 32.4334 20.1483 32.7027L20.1766 32.825L20.2406 32.6722L20.3046 32.5194L20.1529 32.3576L20.0011 32.1957L20.1065 32.0348C20.2367 31.8359 20.1858 31.7734 19.9728 31.8706L19.8109 31.9445L19.6366 31.7775L19.4625 31.6104V31.8603ZM35.7724 31.7916L35.648 31.9499L35.4528 31.8524C35.2082 31.7303 35.1819 31.7561 35.3061 31.9964L35.4048 32.1875L35.271 32.3757L35.1371 32.5638L35.3751 32.5245L35.6132 32.4852L35.7331 32.6856L35.853 32.8861L35.8759 32.7027C35.906 32.4618 35.9721 32.3899 36.2099 32.3399L36.407 32.2983L36.1758 32.1771L35.9445 32.0558L35.9841 31.8446C36.0319 31.5896 35.9478 31.5686 35.7724 31.7916ZM30.3971 32.4353C30.0806 32.4989 29.8075 32.5651 29.7902 32.5824C29.7577 32.6149 29.8939 33.6747 29.9491 33.8188C29.9701 33.8736 30.0367 33.8884 30.1502 33.8634C30.2435 33.8429 30.4852 33.8155 30.6873 33.8024C31.0717 33.7776 31.1359 33.8093 31.2131 34.0614L31.2549 34.1979L31.0929 34.3601L30.9308 34.5223L30.4838 34.4885L30.0368 34.4546L29.9975 34.6111C29.976 34.6972 29.9858 34.7952 30.0195 34.8289C30.1132 34.9227 30.9608 34.9602 31.1154 34.8774C31.2695 34.7949 31.301 34.8972 31.1479 34.9829C30.9729 35.0809 31.1534 35.1116 31.3486 35.017C31.5783 34.9056 31.6564 34.7445 31.705 34.2814L31.7424 33.925L31.6323 33.7163C31.5717 33.6014 31.4259 33.4558 31.3084 33.3926L31.0947 33.2776L30.6825 33.3172L30.2704 33.3568V33.1409V32.9249L30.3772 32.8956C30.436 32.8795 30.6699 32.8332 30.897 32.7928C31.1241 32.7523 31.3242 32.6961 31.3416 32.6679C31.359 32.6397 31.3557 32.5467 31.3342 32.4611L31.2951 32.3055L31.1339 32.3126C31.0452 32.3165 30.7136 32.3717 30.3971 32.4353ZM24.5001 32.4092C24.4329 32.4238 24.2887 32.4636 24.1795 32.4976L23.981 32.5594L23.982 32.6922C23.9825 32.7652 24.0063 32.8618 24.0348 32.9068L24.0866 32.9887L24.3966 32.8785L24.7065 32.7683L24.9238 32.872L25.1412 32.9758V33.1176C25.1412 33.2942 24.9001 33.526 24.2105 34.0122C23.848 34.2678 23.6641 34.4388 23.6374 34.5452C23.5861 34.7499 23.6379 34.7767 24.2666 34.8703C24.5538 34.9131 24.9213 34.983 25.0834 35.0258C25.2455 35.0686 25.3935 35.0882 25.4123 35.0694C25.4311 35.0506 25.4465 34.9478 25.4465 34.8412V34.6472L24.8912 34.53L24.3358 34.4128L24.7658 34.1188C25.0023 33.9571 25.2934 33.7166 25.4127 33.5844L25.6297 33.344V33.1134C25.6297 32.8462 25.5079 32.6451 25.2749 32.5275C25.0864 32.4325 24.6793 32.3703 24.5001 32.4092ZM26.3191 32.7923C26.2113 32.858 26.0612 33.0298 25.9854 33.174L25.8477 33.4361L25.8455 34.0166L25.8434 34.5972L25.9813 34.8191C26.1305 35.0592 26.3087 35.1513 26.7132 35.1975L26.9724 35.2271L27.1711 35.0954C27.2805 35.0229 27.4383 34.8262 27.522 34.6582L27.674 34.3527L27.674 33.8639V33.375L27.5495 33.1361C27.3237 32.7033 26.7347 32.5387 26.3191 32.7923ZM28.1637 32.7857C28.0294 32.8504 27.8694 32.9418 27.8081 32.9889L27.6967 33.0744L27.7722 33.24C27.8475 33.4055 27.9726 33.4562 28.0392 33.3483C28.1012 33.248 28.4513 33.1 28.6267 33.1C28.8113 33.1 28.9881 33.2386 28.9881 33.3833C28.9881 33.5328 28.8743 33.7041 28.3667 34.3188L27.8844 34.9027L27.902 35.0861C27.9116 35.1869 27.9403 35.2655 27.9658 35.2607C27.9912 35.2559 28.2934 35.2341 28.6375 35.2123C28.9814 35.1906 29.3659 35.1577 29.4918 35.1393L29.7208 35.1059V34.8937V34.6815L29.1284 34.725L28.536 34.7685L28.8275 34.4079C29.3401 33.7733 29.4339 33.6057 29.4402 33.3132L29.446 33.0417L29.2808 32.8763L29.1156 32.7109L28.7618 32.6895L28.408 32.6681L28.1637 32.7857ZM21.5386 32.9125V33.0917L21.4165 33.1305C21.2533 33.1823 21.2615 33.2701 21.4317 33.2943L21.5691 33.3139L21.5884 33.4819C21.6114 33.6813 21.6971 33.7019 21.7542 33.5217L21.7949 33.3934L21.9721 33.4195C22.1741 33.4492 22.186 33.4241 22.0569 33.2398C21.9986 33.1564 21.9874 33.094 22.0264 33.0698C22.0604 33.0488 22.0881 32.9927 22.0881 32.9451V32.8586L21.9059 32.8951L21.7237 32.9315L21.6856 32.8324C21.6242 32.6721 21.5386 32.7187 21.5386 32.9125ZM33.7486 32.8277C33.695 32.8924 33.6157 32.91 33.4969 32.8839C33.3041 32.8416 33.2895 32.864 33.3971 33.0363L33.4706 33.1542L33.3665 33.2694C33.2193 33.4322 33.2363 33.4688 33.4399 33.428L33.6175 33.3925L33.6872 33.5229C33.7728 33.683 33.873 33.6342 33.873 33.4325V33.2833H34.0256C34.2083 33.2833 34.2279 33.1851 34.0562 33.1305L33.934 33.0917V32.9125C33.934 32.7142 33.8678 32.6839 33.7486 32.8277ZM26.5117 33.1895C26.3782 33.3231 26.2403 33.8023 26.2403 34.1327C26.2403 34.3845 26.3593 34.6829 26.4869 34.7512C26.9152 34.9806 27.2293 34.5967 27.2243 33.8499C27.222 33.5004 27.1003 33.1122 26.9867 33.0921C26.7424 33.0491 26.6287 33.0724 26.5117 33.1895ZM14.3665 33.1569C14.3471 33.1882 14.3635 33.2336 14.4028 33.2579C14.4455 33.2843 14.458 33.2758 14.434 33.2369C14.4118 33.2009 14.4282 33.1576 14.4704 33.1405L14.5471 33.1096L14.4743 33.1048C14.4343 33.1022 14.3858 33.1256 14.3665 33.1569ZM15.2187 33.7111C15.198 33.7447 15.2085 33.7722 15.2421 33.7722C15.2756 33.7722 15.3201 33.7447 15.3409 33.7111C15.3616 33.6775 15.3511 33.65 15.3175 33.65C15.284 33.65 15.2395 33.6775 15.2187 33.7111ZM39.9791 33.9597C39.7608 34.0213 39.3358 34.1159 39.0346 34.1698C38.7222 34.2259 38.361 34.3366 38.1939 34.4276C37.822 34.6302 37.6467 34.821 37.9966 34.6423C38.1315 34.5734 38.4198 34.4859 38.6373 34.4478C39.4802 34.3001 39.6625 34.2518 40.0283 34.0786C40.2364 33.9801 40.4065 33.8847 40.4065 33.8664C40.4065 33.8482 40.3997 33.8365 40.3913 33.8405C40.3828 33.8444 40.1974 33.898 39.9791 33.9597ZM18.9129 35.9342C18.9129 35.9468 18.9611 35.995 19.0198 36.0411L19.1267 36.125L19.0429 36.018C18.9631 35.9162 18.9129 35.8839 18.9129 35.9342ZM19.2589 36.3038C19.2405 36.3518 19.2651 36.4239 19.3134 36.4641C19.3619 36.5043 19.4019 36.5131 19.4024 36.4838C19.4029 36.4545 19.4259 36.4662 19.4536 36.5098L19.5038 36.5891L19.5723 36.5065L19.6408 36.4239L19.4753 36.4272L19.3098 36.4305L19.3278 36.3236C19.3494 36.1948 19.3056 36.1822 19.2589 36.3038ZM19.7826 36.6141C19.7402 36.6623 19.6606 36.6839 19.6047 36.6625C19.5368 36.6364 19.518 36.6471 19.5477 36.6951C19.572 36.7345 19.6294 36.7666 19.6755 36.7666C19.7215 36.7666 19.7954 36.8019 19.8398 36.845C20.1832 37.1788 20.8345 37.426 21.3834 37.4311L21.7473 37.4346L21.5749 37.345C21.4801 37.2958 21.3248 37.2555 21.2299 37.2555C21.135 37.2555 21.0422 37.2311 21.0238 37.2013C21.0055 37.1715 20.8932 37.1289 20.7743 37.1066C20.6555 37.0843 20.5725 37.0428 20.5901 37.0144C20.6358 36.9404 20.4908 36.8975 20.2514 36.9141C20.0105 36.9308 19.8055 36.7766 19.8643 36.6231C19.9112 36.5007 19.885 36.4977 19.7826 36.6141ZM20.1952 37.0122C20.1952 37.0605 20.3451 37.1333 20.4445 37.1333C20.4753 37.1333 20.5005 37.0955 20.5005 37.0493C20.5005 37.0004 20.4367 36.9652 20.3479 36.9652C20.2639 36.9652 20.1952 36.9864 20.1952 37.0122ZM20.6227 37.1874C20.6227 37.2422 20.8062 37.3367 20.8424 37.3005C20.8528 37.29 20.8077 37.2479 20.742 37.2069C20.6764 37.1658 20.6227 37.1571 20.6227 37.1874ZM22.4609 37.6885C22.2153 37.7868 22.3489 37.8046 22.6704 37.7164L22.9735 37.6331L22.7903 37.6315C22.6896 37.6306 22.5413 37.6563 22.4609 37.6885Z" fill="white"/>
</svg>
