<svg width="30" height="30" viewBox="0 0 30 30" fill="none" xmlns="http://www.w3.org/2000/svg">
<path fill-rule="evenodd" clip-rule="evenodd" d="M20.6586 0.169599C18.3696 0.724253 16.4989 2.69144 16.0498 5.01609C15.8738 5.92703 15.9625 7.1958 16.2706 8.17342L16.5013 8.90569H12.7208H8.94027L8.85626 7.94249C8.75784 6.81397 8.49023 6.03998 7.95923 5.34836C7.08037 4.20344 5.89242 3.6148 4.46123 3.6148C2.42417 3.6148 0.744475 4.8694 0.188052 6.80658L0 7.46094L0.0319859 17.0584L0.0639726 26.656L0.377979 27.326C0.816416 28.2614 1.63928 29.0995 2.56817 29.5569L3.3396 29.9366L16.6697 29.9684L30 30V19.4529V8.90569H28.8406H27.6813L27.912 8.17342C28.0389 7.77073 28.1726 7.06165 28.209 6.5978C28.5308 2.50749 24.6491 -0.797355 20.6586 0.169599ZM21.0656 1.87843C19.8404 2.18798 18.6392 3.19407 18.1101 4.35411C17.5741 5.52915 17.5986 7.06563 18.1716 8.20669C18.3601 8.5822 21.8375 13.9956 22.0278 14.2099C22.1025 14.2941 25.6599 8.92292 26.0453 8.14413C27.4131 5.37988 25.4285 1.97603 22.3537 1.81247C21.8872 1.78763 21.3075 1.81739 21.0656 1.87843ZM21.1539 3.69237C20.5549 3.90432 19.7471 4.75364 19.5833 5.34356C19.2925 6.391 19.5081 7.23341 20.2591 7.98443C21.3447 9.06996 22.8378 9.06996 23.9234 7.98443C25.0089 6.89891 25.0089 5.40577 23.9234 4.32025C23.1448 3.54169 22.1907 3.32541 21.1539 3.69237ZM21.5002 5.56125C21.342 5.71942 21.2125 5.98538 21.2125 6.15234C21.2125 6.54296 21.7006 7.03107 22.0913 7.03107C22.4819 7.03107 22.97 6.54296 22.97 6.15234C22.97 5.76172 22.4819 5.27361 22.0913 5.27361C21.9243 5.27361 21.6583 5.40308 21.5002 5.56125ZM3.2775 5.62241C2.69787 5.92879 2.03717 6.69258 1.88849 7.22779C1.74484 7.74507 1.70829 22.0754 1.85076 22.0029C1.89903 21.9784 2.25499 21.8031 2.64163 21.6135L3.34463 21.2689L4.45771 21.2694L5.5708 21.27L6.30309 21.6283L7.03538 21.9866V14.6201V7.2538L6.84627 6.87876C6.5803 6.35164 6.11328 5.87595 5.60477 5.61432C5.02187 5.31462 3.8522 5.3186 3.2775 5.62241ZM8.88157 18.1324L8.85146 25.6016H7.97599H7.1004L7.01218 25.0844C6.75207 23.5611 5.02398 22.5831 3.57217 23.1375C2.83332 23.4196 2.36149 23.8523 2.04022 24.5423C1.70301 25.2665 1.6927 25.9041 2.00706 26.5974C2.32833 27.3061 2.64656 27.63 3.34463 27.9592L3.93047 28.2354L7.24042 28.2366L10.5504 28.2377V27.0235C10.5504 24.7568 10.8969 23.9 12.0596 23.2926L12.6861 22.9654H14.9043H17.1224L17.4099 22.6777C17.5681 22.5196 17.6975 22.2536 17.6975 22.0866C17.6975 21.9197 17.5681 21.6537 17.4099 21.4955L17.1224 21.2079H14.9043H12.6861L12.0596 20.8807C10.1554 19.8859 10.1554 17.2575 12.0596 16.2628L12.6861 15.9355H16.842C19.1277 15.9355 20.9802 15.8923 20.9586 15.8393C20.9372 15.7865 20.1815 14.6022 19.2793 13.2077L17.6389 10.6724L13.2753 10.6677L8.9118 10.6632L8.88157 18.1324ZM24.9033 13.2077C24.0011 14.6022 23.2454 15.7865 23.2239 15.8393C23.2024 15.8923 23.9274 15.9355 24.835 15.9355H26.485V16.8143V17.693H19.7115H12.9379L12.6815 17.9319C12.5142 18.0877 12.425 18.3101 12.425 18.5717C12.425 18.8333 12.5142 19.0557 12.6815 19.2115L12.9379 19.4504L15.0541 19.4511C16.2392 19.4515 17.3765 19.5088 17.6389 19.5814C18.5929 19.8456 19.4537 21.0338 19.4537 22.0866C19.4537 23.1395 18.5929 24.3276 17.6389 24.5918C17.3765 24.6645 16.2392 24.7218 15.0541 24.7221L12.9379 24.7228L12.6815 24.9617L12.425 25.2006V26.7192V28.2377H20.3338H28.2425V19.4504V10.6632L27.393 10.6677L26.5436 10.6724L24.9033 13.2077ZM21.2125 20.3292V21.2079H22.0913H22.97V20.3292V19.4504H22.0913H21.2125V20.3292ZM24.7275 23.8441V24.7228H25.6063H26.485V23.8441V22.9654H25.6063H24.7275V23.8441ZM19.455 25.6016V26.4803H20.3338H21.2125V25.6016V24.7228H20.3338H19.455V25.6016Z" fill="#3E5943"/>
</svg>
