<svg width="24" height="24" viewBox="0 0 24 24" fill="none" xmlns="http://www.w3.org/2000/svg">
<path fill-rule="evenodd" clip-rule="evenodd" d="M16.5268 0.135679C14.6957 0.579402 13.1991 2.15315 12.8398 4.01287C12.6991 4.74163 12.77 5.75664 13.0164 6.53873L13.201 7.12455H10.1766H7.15221L7.08501 6.35399C7.00627 5.45117 6.79219 4.83198 6.36739 4.27869C5.66429 3.36275 4.71393 2.89184 3.56898 2.89184C1.93934 2.89184 0.59558 3.89552 0.150441 5.44527L0 5.96876L0.0255887 13.6467L0.0511781 21.3248L0.302383 21.8608C0.653132 22.6091 1.31142 23.2796 2.05454 23.6455L2.67168 23.9493L13.3358 23.9747L24 24V15.5623V7.12455H23.0725H22.145L22.3296 6.53873C22.4311 6.21658 22.538 5.64932 22.5672 5.27824C22.8247 2.00599 19.7193 -0.637884 16.5268 0.135679ZM16.8525 1.50275C15.8723 1.75039 14.9114 2.55526 14.4881 3.48329C14.0593 4.42332 14.0789 5.65251 14.5373 6.56535C14.6881 6.86576 17.47 11.1965 17.6222 11.368C17.682 11.4353 20.5279 7.13833 20.8362 6.5153C21.9305 4.3039 20.3428 1.58083 17.883 1.44998C17.5097 1.43011 17.046 1.45391 16.8525 1.50275ZM16.9231 2.95389C16.4439 3.12345 15.7977 3.80291 15.6667 4.27485C15.434 5.1128 15.6065 5.78673 16.2073 6.38755C17.0757 7.25597 18.2703 7.25597 19.1387 6.38755C20.0072 5.51913 20.0072 4.32462 19.1387 3.4562C18.5159 2.83336 17.7526 2.66033 16.9231 2.95389ZM17.2001 4.449C17.0736 4.57554 16.97 4.78831 16.97 4.92187C16.97 5.23437 17.3605 5.62486 17.673 5.62486C17.9855 5.62486 18.376 5.23437 18.376 4.92187C18.376 4.60937 17.9855 4.21889 17.673 4.21889C17.5394 4.21889 17.3267 4.32246 17.2001 4.449ZM2.622 4.49793C2.1583 4.74303 1.62974 5.35407 1.51079 5.78223C1.39587 6.19605 1.36663 17.6603 1.48061 17.6023C1.51923 17.5827 1.80399 17.4425 2.11331 17.2908L2.67571 17.0152L3.56617 17.0155L4.45664 17.016L5.04247 17.3026L5.6283 17.5893V11.6961V5.80304L5.47702 5.50301C5.26424 5.08131 4.89062 4.70076 4.48382 4.49146C4.0175 4.25169 3.08176 4.25488 2.622 4.49793ZM7.10526 14.5059L7.08117 20.4812H6.38079H5.68032L5.60974 20.0675C5.40165 18.8489 4.01918 18.0664 2.85774 18.51C2.26666 18.7357 1.88919 19.0818 1.63217 19.6338C1.36241 20.2132 1.35416 20.7233 1.60565 21.278C1.86267 21.8448 2.11724 22.104 2.67571 22.3674L3.14437 22.5883L5.79233 22.5893L8.4403 22.5902V21.6188C8.4403 19.8054 8.71756 19.12 9.64767 18.6341L10.1489 18.3723H11.9234H13.6979L13.9279 18.1422C14.0544 18.0156 14.158 17.8029 14.158 17.6693C14.158 17.5357 14.0544 17.323 13.9279 17.1964L13.6979 16.9663H11.9234H10.1489L9.64767 16.7045C8.12432 15.9088 8.12432 13.806 9.64767 13.0102L10.1489 12.7484H13.4736C15.3021 12.7484 16.7841 12.7138 16.7669 12.6715C16.7497 12.6292 16.1452 11.6818 15.4234 10.5662L14.1112 8.53793L10.6202 8.53418L7.12944 8.53052L7.10526 14.5059ZM19.9226 10.5662C19.2009 11.6818 18.5963 12.6292 18.5791 12.6715C18.5619 12.7138 19.1419 12.7484 19.868 12.7484H21.188V13.4514V14.1544H15.7692H10.3503L10.1452 14.3455C10.0114 14.4702 9.94003 14.6481 9.94003 14.8574C9.94003 15.0667 10.0114 15.2446 10.1452 15.3692L10.3503 15.5604L12.0433 15.5609C12.9913 15.5612 13.9012 15.607 14.1112 15.6651C14.8743 15.8765 15.563 16.827 15.563 17.6693C15.563 18.5116 14.8743 19.4621 14.1112 19.6735C13.9012 19.7316 12.9913 19.7774 12.0433 19.7777L10.3503 19.7783L10.1452 19.9694L9.94003 20.1605V21.3753V22.5902H16.267H22.594V15.5604V8.53052L21.9144 8.53418L21.2349 8.53793L19.9226 10.5662ZM16.97 16.2633V16.9663H17.673H18.376V16.2633V15.5604H17.673H16.97V16.2633ZM19.782 19.0753V19.7783H20.485H21.188V19.0753V18.3723H20.485H19.782V19.0753ZM15.564 20.4812V21.1842H16.267H16.97V20.4812V19.7783H16.267H15.564V20.4812Z" fill="#FFBB00"/>
</svg>
