<svg width="3403" height="3403" viewBox="0 0 3403 3403" fill="none" xmlns="http://www.w3.org/2000/svg">
<g clip-path="url(#clip0_235_48124)">
<rect width="3403" height="3403" fill="#517859"/>
<path d="M3013.09 933.503V1034.51L3841.8 1029.92V924.321L3013.09 933.503ZM3013.09 933.503L2540.2 935.798L2528.73 986.301L3013.09 990.892L3013.09 933.503ZM3102.62 1034.52L2994.73 2781.46H2909.79L3013.09 1034.52H3102.62ZM2043.21 472.099L2007.63 2749.32H1960.57V472.099H2043.21ZM2994.73 2864.1L3011.24 3201.63L2960.3 3217.62L2905.2 2864.1H2994.73ZM1335.02 2864.09V3167.11L1197.29 3171.7V2907.71L1335.02 2864.09ZM1362.56 2795.23L1337.31 2866.39L1199.58 2912.3V2795.23H1362.56ZM673.89 2795.22V2916.89L1199.58 2912.3V2795.22H673.89ZM678.481 2705.69V3173.99L605.022 3161.45V2705.69H678.481ZM685.893 485.86L689.965 2795.22L605.029 2790.63L606.744 485.86H685.893ZM1334.99 940.394L1337.32 1766.81H1282.22V940.394H1334.99ZM2590.71 977.122L2526.43 2763.09L2443.79 2753.9L2480.52 986.304L2590.71 977.122ZM2994.73 2866.39H1323.54V2795.23L2994.73 2779.16V2866.39ZM2547.09 2786.04L1867.6 2797.52L1952.53 2742.43H2519.54L2547.09 2786.04ZM2960.3 2026.21L2531.02 2014.73L2535.61 1971.11L2960.3 1975.7V2026.21ZM2489.7 1000.08L2016.81 995.49L2012.22 919.736H2489.7V1000.08ZM2489.7 1635.95L2016.81 1631.36L2012.22 1555.61H2489.7V1635.95ZM1968.6 993.194L1321.24 995.49L1323.54 940.396L1964 935.804L1968.6 993.194ZM1968.6 1367.37L1321.25 1369.67L1323.54 1314.57L1964.01 1309.98L1968.6 1367.37ZM1973.19 1865.52L1335.02 1766.81L1325.84 1688.76H1966.31L1973.19 1865.52ZM664.715 1881.57L1286.82 1766.8L1284.52 1702.52H664.715V1881.57ZM1291.41 1383.44H650.939V1332.94L1291.41 1326.05V1383.44ZM1966.3 557.029H676.184V485.866L1970.9 474.388L1966.3 557.029ZM1282.22 1002.37L641.756 1011.55V940.389H1282.22V1002.37ZM2671.05 42.8148L2611.37 972.527L2485.11 995.483L2528.72 42.8148H2671.05Z" stroke="#270101" stroke-width="5"/>
<rect x="2428.37" y="2727.88" width="191.893" height="96.1144" rx="5.5" transform="rotate(-178.76 2428.37 2727.88)" fill="#7EB647" stroke="#270101" stroke-width="5"/>
<rect x="2435.39" y="2403.38" width="191.893" height="96.1144" rx="5.5" transform="rotate(-178.76 2435.39 2403.38)" fill="#7EB647" stroke="#270101" stroke-width="5"/>
<rect x="2444.78" y="1969.7" width="191.893" height="96.1144" rx="5.5" transform="rotate(-178.76 2444.78 1969.7)" fill="#7EB647" stroke="#270101" stroke-width="5"/>
<rect x="2430.71" y="2619.72" width="191.893" height="96.1144" rx="5.5" transform="rotate(-178.76 2430.71 2619.72)" fill="#7EB647" stroke="#270101" stroke-width="5"/>
<rect x="2437.76" y="2294.21" width="191.893" height="95.1033" rx="5.5" transform="rotate(-178.76 2437.76 2294.21)" fill="#7EB647" stroke="#270101" stroke-width="5"/>
<rect x="2442.44" y="2077.87" width="191.893" height="96.1144" rx="5.5" transform="rotate(-178.76 2442.44 2077.87)" fill="#7EB647" stroke="#270101" stroke-width="5"/>
<rect x="2433.05" y="2511.55" width="191.893" height="96.1144" rx="5.5" transform="rotate(-178.76 2433.05 2511.55)" fill="#7EB647" stroke="#270101" stroke-width="5"/>
<rect x="2440.1" y="2186.04" width="191.893" height="95.1033" rx="5.5" transform="rotate(-178.76 2440.1 2186.04)" fill="#7EB647" stroke="#270101" stroke-width="5"/>
<rect x="2447.12" y="1861.54" width="191.893" height="96.1144" rx="5.5" transform="rotate(-178.76 2447.12 1861.54)" fill="#7EB647" stroke="#270101" stroke-width="5"/>
<rect x="2449.46" y="1753.37" width="191.893" height="96.1144" rx="5.5" transform="rotate(-178.76 2449.46 1753.37)" fill="#7EB647" stroke="#270101" stroke-width="5"/>
<rect x="2215.09" y="2723.86" width="191.893" height="96.1144" rx="5.5" transform="rotate(-179.141 2215.09 2723.86)" fill="#7EB647" stroke="#270101" stroke-width="5"/>
<rect x="2219.95" y="2399.32" width="191.893" height="96.1144" rx="5.5" transform="rotate(-179.141 2219.95 2399.32)" fill="#7EB647" stroke="#270101" stroke-width="5"/>
<rect x="2226.45" y="1965.58" width="191.893" height="96.1144" rx="5.5" transform="rotate(-179.141 2226.45 1965.58)" fill="#7EB647" stroke="#270101" stroke-width="5"/>
<rect x="2216.71" y="2615.68" width="191.893" height="96.1144" rx="5.5" transform="rotate(-179.141 2216.71 2615.68)" fill="#7EB647" stroke="#270101" stroke-width="5"/>
<rect x="2221.59" y="2290.12" width="191.893" height="95.1033" rx="5.5" transform="rotate(-179.141 2221.59 2290.12)" fill="#7EB647" stroke="#270101" stroke-width="5"/>
<rect x="2224.83" y="2073.76" width="191.893" height="96.1144" rx="5.5" transform="rotate(-179.141 2224.83 2073.76)" fill="#7EB647" stroke="#270101" stroke-width="5"/>
<rect x="2218.33" y="2507.5" width="191.893" height="96.1144" rx="5.5" transform="rotate(-179.141 2218.33 2507.5)" fill="#7EB647" stroke="#270101" stroke-width="5"/>
<rect x="2223.21" y="2181.94" width="191.893" height="95.1033" rx="5.5" transform="rotate(-179.141 2223.21 2181.94)" fill="#7EB647" stroke="#270101" stroke-width="5"/>
<rect x="2228.07" y="1857.4" width="191.893" height="96.1144" rx="5.5" transform="rotate(-179.141 2228.07 1857.4)" fill="#7EB647" stroke="#270101" stroke-width="5"/>
<rect x="2229.69" y="1749.22" width="191.893" height="96.1144" rx="5.5" transform="rotate(-179.141 2229.69 1749.22)" fill="#7EB647" stroke="#270101" stroke-width="5"/>
<rect x="2231.3" y="1540.82" width="191.893" height="96.1144" rx="5.5" transform="rotate(-179.141 2231.3 1540.82)" fill="#7EB647" stroke="#270101" stroke-width="5"/>
<rect x="2236.16" y="1216.28" width="191.893" height="96.1144" rx="5.5" transform="rotate(-179.141 2236.16 1216.28)" fill="#7EB647" stroke="#270101" stroke-width="5"/>
<rect x="2232.92" y="1432.64" width="191.893" height="96.1144" rx="5.5" transform="rotate(-179.141 2232.92 1432.64)" fill="#7EB647" stroke="#270101" stroke-width="5"/>
<rect x="2237.8" y="1107.09" width="191.893" height="95.1033" rx="5.5" transform="rotate(-179.141 2237.8 1107.09)" fill="#7EB647" stroke="#270101" stroke-width="5"/>
<rect x="2234.54" y="1324.46" width="191.893" height="96.1144" rx="5.5" transform="rotate(-179.141 2234.54 1324.46)" fill="#7EB647" stroke="#270101" stroke-width="5"/>
<rect x="2452.94" y="1324.46" width="191.893" height="96.1144" rx="5.5" transform="rotate(-179.141 2452.94 1324.46)" fill="#7EB647" stroke="#270101" stroke-width="5"/>
<rect x="2451.32" y="1432.64" width="191.893" height="96.1144" rx="5.5" transform="rotate(-179.141 2451.32 1432.64)" fill="#7EB647" stroke="#270101" stroke-width="5"/>
<rect x="2449.7" y="1540.82" width="191.893" height="95.1033" rx="5.5" transform="rotate(-179.141 2449.7 1540.82)" fill="#7EB647" stroke="#270101" stroke-width="5"/>
<rect x="2454.56" y="1216.28" width="191.893" height="96.1144" rx="5.5" transform="rotate(-179.141 2454.56 1216.28)" fill="#7EB647" stroke="#270101" stroke-width="5"/>
<rect x="2456.19" y="1108.1" width="191.893" height="96.1144" rx="5.5" transform="rotate(-179.141 2456.19 1108.1)" fill="#7EB647" stroke="#270101" stroke-width="5"/>
<rect x="-2.52178" y="2.51314" width="140.361" height="110.948" rx="5.5" transform="matrix(-0.00872653 0.999962 -0.999986 0.00529474 1954.14 1380.03)" fill="#7EB647" stroke="#270101" stroke-width="5"/>
<rect x="-2.52178" y="2.51314" width="140.361" height="110.948" rx="5.5" transform="matrix(-0.00872653 0.999962 -0.999986 0.00529474 1581.95 1382)" fill="#7EB647" stroke="#270101" stroke-width="5"/>
<rect x="-2.52178" y="2.51314" width="140.361" height="110.948" rx="5.5" transform="matrix(-0.00872653 0.999962 -0.999986 0.00529474 1830.07 1380.69)" fill="#7EB647" stroke="#270101" stroke-width="5"/>
<rect x="-2.52178" y="2.51314" width="140.361" height="109.789" rx="5.5" transform="matrix(-0.00872653 0.999962 -0.999986 0.00529474 1456.72 1382.67)" fill="#7EB647" stroke="#270101" stroke-width="5"/>
<rect x="-2.52178" y="2.51314" width="140.361" height="110.948" rx="5.5" transform="matrix(-0.00872653 0.999962 -0.999986 0.00529474 1706.01 1381.34)" fill="#7EB647" stroke="#270101" stroke-width="5"/>
<rect x="-2.52178" y="2.51314" width="85.8327" height="110.948" rx="5.5" transform="matrix(-0.00872653 0.999962 -0.999986 0.00529474 1954.14 1004.89)" fill="#7EB647" stroke="#270101" stroke-width="5"/>
<rect x="-2.52178" y="2.51314" width="85.8327" height="110.948" rx="5.5" transform="matrix(-0.00872653 0.999962 -0.999986 0.00529474 1581.95 1006.87)" fill="#7EB647" stroke="#270101" stroke-width="5"/>
<rect x="-2.52178" y="2.51314" width="85.8327" height="110.948" rx="5.5" transform="matrix(-0.00872653 0.999962 -0.999986 0.00529474 1830.07 1005.55)" fill="#7EB647" stroke="#270101" stroke-width="5"/>
<rect x="-2.52178" y="2.51314" width="85.8327" height="109.789" rx="5.5" transform="matrix(-0.00872653 0.999962 -0.999986 0.00529474 1456.73 1007.53)" fill="#7EB647" stroke="#270101" stroke-width="5"/>
<rect x="-2.52178" y="2.51314" width="85.8327" height="110.948" rx="5.5" transform="matrix(-0.00872653 0.999962 -0.999986 0.00529474 1706.01 1006.21)" fill="#7EB647" stroke="#270101" stroke-width="5"/>
<rect x="-2.52001" y="2.51432" width="131.978" height="102.773" rx="5.5" transform="matrix(-0.0080221 0.999968 -0.999983 0.0057597 1271.57 1399.74)" fill="#7EB647" stroke="#270101" stroke-width="5"/>
<rect x="-2.52001" y="2.51432" width="131.978" height="102.773" rx="5.5" transform="matrix(-0.0080221 0.999968 -0.999983 0.0057597 925.62 1401.73)" fill="#7EB647" stroke="#270101" stroke-width="5"/>
<rect x="-2.52001" y="2.51432" width="131.978" height="102.773" rx="5.5" transform="matrix(-0.0080221 0.999968 -0.999983 0.0057597 1156.25 1400.4)" fill="#7EB647" stroke="#270101" stroke-width="5"/>
<rect x="-2.52001" y="2.51432" width="131.978" height="101.696" rx="5.5" transform="matrix(-0.0080221 0.999968 -0.999983 0.0057597 809.227 1402.4)" fill="#7EB647" stroke="#270101" stroke-width="5"/>
<rect x="-2.52001" y="2.51432" width="131.978" height="102.773" rx="5.5" transform="matrix(-0.0080221 0.999968 -0.999983 0.0057597 1040.93 1401.07)" fill="#7EB647" stroke="#270101" stroke-width="5"/>
<rect x="-2.52954" y="2.5043" width="140.36" height="110.864" rx="5.5" transform="matrix(-0.0118194 0.99993 -0.999998 0.00178876 1704.92 1537.03)" fill="#7EB647" stroke="#270101" stroke-width="5"/>
<rect x="-2.52954" y="2.5043" width="140.36" height="110.864" rx="5.5" transform="matrix(-0.0118194 0.99993 -0.999998 0.00178876 1828.9 1536.81)" fill="#7EB647" stroke="#270101" stroke-width="5"/>
<rect x="-2.52948" y="2.50427" width="140.36" height="109.706" rx="5.5" transform="matrix(-0.0117935 0.99993 -0.999998 0.00177801 1952.87 1536.58)" fill="#7EB647" stroke="#270101" stroke-width="5"/>
<rect x="-2.52954" y="2.5043" width="140.36" height="110.864" rx="5.5" transform="matrix(-0.0118194 0.99993 -0.999998 0.00178876 1580.95 1537.25)" fill="#7EB647" stroke="#270101" stroke-width="5"/>
<rect x="-2.52954" y="2.5043" width="140.36" height="110.864" rx="5.5" transform="matrix(-0.0118194 0.99993 -0.999998 0.00178876 1456.98 1537.47)" fill="#7EB647" stroke="#270101" stroke-width="5"/>
<rect x="-2.48996" y="2.51924" width="194.372" height="110.869" rx="5.5" transform="matrix(0.00398505 0.999992 -0.99997 0.00770285 1703.44 1106.39)" fill="#7EB647" stroke="#270101" stroke-width="5"/>
<rect x="-2.48996" y="2.51924" width="194.372" height="110.869" rx="5.5" transform="matrix(0.00398505 0.999992 -0.99997 0.00770285 1827.42 1105.44)" fill="#7EB647" stroke="#270101" stroke-width="5"/>
<rect x="-2.48992" y="2.5192" width="194.372" height="109.711" rx="5.5" transform="matrix(0.00400391 0.999992 -0.99997 0.00768811 1951.4 1104.48)" fill="#7EB647" stroke="#270101" stroke-width="5"/>
<rect x="-2.48996" y="2.51924" width="194.372" height="110.869" rx="5.5" transform="matrix(0.00398505 0.999992 -0.99997 0.00770285 1579.47 1107.35)" fill="#7EB647" stroke="#270101" stroke-width="5"/>
<rect x="-2.48996" y="2.51924" width="194.372" height="110.869" rx="5.5" transform="matrix(0.00398505 0.999992 -0.99997 0.00770285 1455.49 1108.3)" fill="#7EB647" stroke="#270101" stroke-width="5"/>
<rect x="-2.52711" y="2.50482" width="141.969" height="102.698" rx="5.5" transform="matrix(-0.0108658 0.999982 -0.999978 0.00194581 1040.01 1548.48)" fill="#7EB647" stroke="#270101" stroke-width="5"/>
<rect x="-2.52711" y="2.50482" width="141.969" height="102.698" rx="5.5" transform="matrix(-0.0108658 0.999982 -0.999978 0.00194581 1155.24 1548.26)" fill="#7EB647" stroke="#270101" stroke-width="5"/>
<rect x="-2.52705" y="2.50479" width="141.969" height="101.621" rx="5.5" transform="matrix(-0.010842 0.999982 -0.999978 0.00193412 1270.47 1548.03)" fill="#7EB647" stroke="#270101" stroke-width="5"/>
<rect x="-2.52711" y="2.50482" width="141.969" height="102.698" rx="5.5" transform="matrix(-0.0108658 0.999982 -0.999978 0.00194581 924.772 1548.71)" fill="#7EB647" stroke="#270101" stroke-width="5"/>
<rect x="-2.52711" y="2.50482" width="141.969" height="102.698" rx="5.5" transform="matrix(-0.0108658 0.999982 -0.999978 0.00194581 809.538 1548.93)" fill="#7EB647" stroke="#270101" stroke-width="5"/>
<rect x="-2.52705" y="2.50479" width="115.793" height="146.382" rx="5.5" transform="matrix(-0.010842 0.999982 -0.999978 0.00193412 1388.43 1792.32)" fill="#7EB647" stroke="#270101" stroke-width="5"/>
<rect x="-2.52705" y="2.50479" width="451.465" height="1041.88" rx="5.5" transform="matrix(-0.010842 0.999982 -0.999978 0.00193412 1777.68 1939.97)" fill="#7EB647" stroke="#270101" stroke-width="5"/>
<rect x="-2.52062" y="2.50635" width="336.64" height="175.936" rx="5.5" transform="matrix(-0.00827274 1.00001 -0.999977 0.00253486 1768.51 2404.71)" fill="#7EB647" stroke="#270101" stroke-width="5"/>
<rect x="-2.52705" y="2.50479" width="255.68" height="135.898" rx="5.5" transform="matrix(-0.010842 0.999982 -0.999978 0.00193412 1939.37 2144.89)" fill="#7EB647" stroke="#270101" stroke-width="5"/>
<rect x="-2.52705" y="2.50479" width="201.735" height="135.898" rx="5.5" transform="matrix(-0.010842 0.999982 -0.999978 0.00193412 1936.34 2423.3)" fill="#7EB647" stroke="#270101" stroke-width="5"/>
<rect x="-2.52062" y="2.50635" width="336.64" height="531.188" rx="5.5" transform="matrix(-0.00827274 1.00001 -0.999977 0.00253486 1582.46 2403.8)" fill="#7EB647" stroke="#270101" stroke-width="5"/>
<rect x="-2.52062" y="2.50635" width="336.64" height="307.917" rx="5.5" transform="matrix(-0.00827274 1.00001 -0.999977 0.00253486 1040.52 2405.16)" fill="#7EB647" stroke="#270101" stroke-width="5"/>
<mask id="path-69-inside-1_235_48124" fill="white">
<rect width="141.568" height="84.7625" rx="4" transform="matrix(-0.00625089 0.99998 -0.999973 0.00739174 1270.05 1011.49)"/>
</mask>
<rect width="141.568" height="84.7625" rx="4" transform="matrix(-0.00625089 0.99998 -0.999973 0.00739174 1270.05 1011.49)" fill="#7EB647" stroke="#270101" stroke-width="10" mask="url(#path-69-inside-1_235_48124)"/>
<mask id="path-70-inside-2_235_48124" fill="white">
<rect width="151.892" height="83.855" rx="4" transform="matrix(-0.00825064 1.00001 -0.999977 0.00254164 1269.21 1164.75)"/>
</mask>
<rect width="151.892" height="83.855" rx="4" transform="matrix(-0.00825064 1.00001 -0.999977 0.00254164 1269.21 1164.75)" fill="#7EB647" stroke="#270101" stroke-width="10" mask="url(#path-70-inside-2_235_48124)"/>
<path d="M1173.51 1304.35C1173.51 1307.38 1171.05 1309.87 1168.02 1309.9L754.28 1314.77C751.24 1314.81 748.775 1312.37 748.775 1309.33L748.775 1069.1C748.775 1066.04 751.273 1063.54 754.334 1063.54L1168.07 1063.54C1171.08 1063.54 1173.51 1065.97 1173.51 1068.98L1173.51 1304.35Z" fill="#7EB647" stroke="#270101" stroke-width="5"/>
<path d="M1170.19 1055.99C1170.19 1056.27 1169.96 1056.5 1169.68 1056.5L1107.09 1056.5C1106.81 1056.5 1106.59 1056.28 1106.59 1056L1106.59 1015.91C1106.59 1015.63 1106.82 1015.41 1107.09 1015.4L1169.65 1014.67C1169.92 1014.66 1170.15 1014.89 1170.15 1015.16L1170.19 1055.99Z" fill="#7EB647" stroke="#270101" stroke-width="5"/>
<path d="M1098.29 1055.99C1098.29 1056.27 1098.07 1056.5 1097.79 1056.5L1035.19 1056.5C1034.92 1056.5 1034.7 1056.28 1034.7 1056L1034.7 1015.91C1034.7 1015.63 1034.92 1015.41 1035.2 1015.41L1097.75 1014.67C1098.02 1014.66 1098.25 1014.89 1098.25 1015.16L1098.29 1055.99Z" fill="#7EB647" stroke="#270101" stroke-width="5"/>
<path d="M1026.39 1055.99C1026.39 1056.27 1026.16 1056.5 1025.88 1056.5L963.291 1056.5C963.017 1056.5 962.795 1056.28 962.795 1056L962.795 1015.91C962.795 1015.63 963.019 1015.41 963.294 1015.41L1025.84 1014.67C1026.12 1014.66 1026.34 1014.89 1026.34 1015.16L1026.39 1055.99Z" fill="#7EB647" stroke="#270101" stroke-width="5"/>
<path d="M954.487 1055.99C954.487 1056.27 954.26 1056.5 953.982 1056.5L891.389 1056.5C891.115 1056.5 890.893 1056.28 890.893 1056L890.894 1016.36C890.894 1016.08 891.115 1015.86 891.389 1015.85L953.937 1014.69C954.215 1014.68 954.442 1014.9 954.442 1015.18L954.487 1055.99Z" fill="#7EB647" stroke="#270101" stroke-width="5"/>
<path d="M882.59 1055.99C882.59 1056.27 882.363 1056.5 882.085 1056.5L819.479 1056.5C819.209 1056.5 818.99 1056.28 818.983 1056.01L818.107 1017.31C818.101 1017.03 818.325 1016.8 818.605 1016.8L882.087 1015.94C882.364 1015.94 882.59 1016.16 882.59 1016.44L882.59 1055.99Z" fill="#7EB647" stroke="#270101" stroke-width="5"/>
<path d="M739.157 1287.5C739.157 1287.78 738.93 1288.01 738.652 1288.01L693.756 1287.96C693.485 1287.96 693.265 1287.74 693.261 1287.47L692.632 1238.46C692.628 1238.18 692.85 1237.95 693.126 1237.94L738.692 1236.98C738.971 1236.98 739.198 1237.2 739.198 1237.48L739.157 1287.5Z" fill="#7EB647" stroke="#270101" stroke-width="5"/>
<path d="M739.157 1230.02C739.157 1230.3 738.93 1230.53 738.652 1230.53L693.756 1230.48C693.485 1230.48 693.265 1230.26 693.261 1229.99L692.632 1180.97C692.628 1180.7 692.85 1180.47 693.126 1180.46L738.692 1179.5C738.971 1179.49 739.198 1179.72 739.198 1179.99L739.157 1230.02Z" fill="#7EB647" stroke="#270101" stroke-width="5"/>
<path d="M739.157 1172.54C739.157 1172.82 738.93 1173.04 738.652 1173.04L693.756 1173C693.485 1173 693.265 1172.78 693.261 1172.51L692.632 1123.49C692.628 1123.21 692.85 1122.98 693.126 1122.98L738.692 1122.02C738.971 1122.01 739.198 1122.23 739.198 1122.51L739.157 1172.54Z" fill="#7EB647" stroke="#270101" stroke-width="5"/>
<path d="M739.156 1115.06C739.156 1115.33 738.929 1115.56 738.651 1115.56L693.755 1115.51C693.484 1115.51 693.264 1115.29 693.26 1115.02L692.631 1066.01C692.628 1065.73 692.85 1065.5 693.126 1065.49L738.692 1064.53C738.971 1064.53 739.198 1064.75 739.198 1065.03L739.156 1115.06Z" fill="#7EB647" stroke="#270101" stroke-width="5"/>
<path d="M810.641 1055.99C810.645 1056.27 810.417 1056.5 810.137 1056.5L692.896 1056.5C692.622 1056.5 692.4 1056.27 692.4 1056L692.404 1019.62C692.404 1019.35 692.626 1019.12 692.901 1019.12L809.561 1017.35C809.835 1017.35 810.06 1017.56 810.064 1017.84L810.641 1055.99Z" fill="#7EB647" stroke="#270101" stroke-width="5"/>
<path d="M2943.9 1867.54L2816.9 1863.7C2813.83 1863.6 2811.43 1861.01 2811.58 1857.94L2837.34 1304.52C2837.48 1301.55 2839.95 1299.23 2842.92 1299.28L2974.99 1301.26C2978.12 1301.3 2980.58 1303.94 2980.4 1307.06L2949.56 1862.34C2949.4 1865.32 2946.89 1867.63 2943.9 1867.54Z" fill="#7EB647" stroke="#270101" stroke-width="5"/>
<path d="M2573.21 1955.53C2570.14 1955.48 2567.7 1952.93 2567.78 1949.87L2570.07 1856.99C2570.14 1853.98 2572.62 1851.61 2575.63 1851.66L2785.33 1855.29C2788.38 1855.35 2790.82 1857.87 2790.76 1860.93L2789.03 1953.8C2788.97 1956.82 2786.49 1959.22 2783.47 1959.17L2573.21 1955.53Z" fill="#7EB647" stroke="#270101" stroke-width="5"/>
<path d="M2581.65 1732.69C2578.59 1732.64 2576.15 1730.09 2576.22 1727.02L2578.5 1634.15C2578.58 1631.14 2581.06 1628.76 2584.07 1628.81L2793.76 1632.48C2796.82 1632.53 2799.25 1635.06 2799.2 1638.11L2797.48 1730.98C2797.42 1734.01 2794.93 1736.4 2791.91 1736.35L2581.65 1732.69Z" fill="#7EB647" stroke="#270101" stroke-width="5"/>
<path d="M2593.43 1511.32C2590.36 1511.27 2587.92 1508.72 2587.99 1505.66L2590.27 1412.78C2590.35 1409.77 2592.83 1407.4 2595.84 1407.45L2805.54 1411.11C2808.59 1411.17 2811.03 1413.69 2810.97 1416.74L2809.25 1509.62C2809.19 1512.64 2806.71 1515.04 2803.68 1514.99L2593.43 1511.32Z" fill="#7EB647" stroke="#270101" stroke-width="5"/>
<path d="M2577.79 1841.68C2574.73 1841.62 2572.28 1839.07 2572.36 1836.01L2574.57 1747.8C2574.65 1744.8 2577.13 1742.42 2580.14 1742.47L2789.84 1746.14C2792.89 1746.19 2795.33 1748.72 2795.27 1751.78L2793.61 1839.98C2793.55 1843 2791.07 1845.4 2788.05 1845.34L2577.79 1841.68Z" fill="#7EB647" stroke="#270101" stroke-width="5"/>
<path d="M2588.26 1619.37C2585.19 1619.32 2582.75 1616.77 2582.82 1613.7L2585.04 1525.5C2585.11 1522.49 2587.59 1520.12 2590.6 1520.17L2800.3 1523.84C2803.36 1523.89 2805.79 1526.42 2805.74 1529.47L2804.08 1617.67C2804.02 1620.69 2801.53 1623.09 2798.51 1623.04L2588.26 1619.37Z" fill="#7EB647" stroke="#270101" stroke-width="5"/>
<path d="M2598.72 1398.01C2595.66 1397.95 2593.21 1395.4 2593.29 1392.34L2595.5 1304.13C2595.58 1301.13 2598.06 1298.75 2601.07 1298.8L2810.77 1302.47C2813.82 1302.52 2816.26 1305.05 2816.2 1308.1L2814.54 1396.31C2814.48 1399.33 2812 1401.72 2808.98 1401.67L2598.72 1398.01Z" fill="#7EB647" stroke="#270101" stroke-width="5"/>
<path d="M2598.7 1284.29C2595.64 1284.24 2593.2 1281.7 2593.27 1278.64L2595.26 1190.43C2595.32 1187.42 2597.8 1185.04 2600.82 1185.09L2765.03 1187.94C2768.08 1187.99 2770.52 1190.51 2770.46 1193.56L2768.92 1281.77C2768.86 1284.79 2766.38 1287.19 2763.35 1287.14L2598.7 1284.29Z" fill="#7EB647" stroke="#270101" stroke-width="5"/>
<path d="M2784.67 1283.93C2781.61 1283.88 2779.16 1281.33 2779.24 1278.27L2781.41 1190.06C2781.48 1187.05 2783.96 1184.68 2786.97 1184.73L2987.37 1188.23C2990.42 1188.28 2992.86 1190.81 2992.8 1193.86L2991.16 1282.06C2991.11 1285.09 2988.62 1287.48 2985.6 1287.43L2784.67 1283.93Z" fill="#7EB647" stroke="#270101" stroke-width="5"/>
<path d="M2749.56 2208.68L2568.95 2197.54C2566.01 2197.36 2563.73 2194.89 2563.79 2191.93L2567.11 2038.52C2567.18 2035.48 2569.69 2033.07 2572.73 2033.14L2753.58 2037.05C2756.62 2037.12 2759.02 2039.64 2758.96 2042.67L2755.4 2203.31C2755.33 2206.44 2752.67 2208.87 2749.56 2208.68Z" fill="#7EB647" stroke="#270101" stroke-width="5"/>
<path d="M2792.87 1170.8C2789.81 1170.75 2787.37 1168.22 2787.43 1165.16L2790.52 1005.81C2790.57 1002.8 2793.05 1000.4 2796.07 1000.45L2994.27 1003.39C2997.4 1003.43 2999.88 1006.08 2999.72 1009.2L2991.44 1168.88C2991.29 1171.83 2988.84 1174.12 2985.89 1174.07L2792.87 1170.8Z" fill="#324520" stroke="#270101" stroke-width="5"/>
<path d="M2603.39 1171.02C2600.33 1170.97 2597.89 1168.43 2597.95 1165.37L2599.94 1077.16C2600.01 1074.15 2602.49 1071.76 2605.51 1071.82L2769.68 1074.66C2772.73 1074.72 2775.17 1077.24 2775.11 1080.29L2773.57 1168.49C2773.51 1171.52 2771.03 1173.92 2768 1173.87L2603.39 1171.02Z" fill="#7EB647" stroke="#270101" stroke-width="5"/>
<path d="M2609.1 1061.14C2606.03 1061.09 2603.59 1058.53 2603.67 1055.46L2605.12 1002.93C2605.2 999.927 2607.68 997.56 2610.68 997.612L2771.08 1000.43C2774.14 1000.49 2776.58 1003.02 2776.52 1006.07L2775.47 1058.61C2775.4 1061.63 2772.92 1064.02 2769.9 1063.96L2609.1 1061.14Z" fill="#7EB647" stroke="#270101" stroke-width="5"/>
<path d="M2939.19 1917.26L2811.3 1913.39C2808.33 1913.3 2805.97 1910.87 2805.97 1907.9L2805.97 1884.12C2805.97 1881.05 2808.48 1878.57 2811.55 1878.62L2942.66 1880.59C2945.94 1880.63 2948.44 1883.52 2948.04 1886.77L2944.82 1912.45C2944.46 1915.26 2942.03 1917.35 2939.19 1917.26Z" fill="#7EB647" stroke="#270101" stroke-width="5"/>
<path d="M2937.23 1964.28L2809.34 1960.42C2806.37 1960.33 2804.01 1957.89 2804.01 1954.92L2804.01 1931.14C2804.01 1928.07 2806.52 1925.6 2809.59 1925.64L2940.7 1927.61C2943.97 1927.66 2946.48 1930.54 2946.07 1933.79L2942.86 1959.47C2942.5 1962.28 2940.07 1964.37 2937.23 1964.28Z" fill="#7EB647" stroke="#270101" stroke-width="5"/>
<path d="M2927.83 2198.41L2878.29 2196.43C2875.26 2196.31 2872.9 2193.75 2873.02 2190.72L2876.31 2106.29C2876.54 2100.34 2871.78 2095.38 2865.82 2095.38L2778.79 2095.38C2775.76 2095.38 2773.29 2092.92 2773.29 2089.88L2773.29 2044.62C2773.29 2041.52 2775.84 2039.04 2778.94 2039.12L2935.84 2043.26C2938.93 2043.34 2941.35 2045.96 2941.19 2049.05L2933.54 2193.21C2933.38 2196.21 2930.83 2198.53 2927.83 2198.41Z" fill="#7EB647" stroke="#270101" stroke-width="5"/>
<path d="M2878.84 2766.43C2875.64 2766.43 2873.11 2763.71 2873.36 2760.51L2882.51 2640.38C2882.98 2634.28 2878.16 2629.08 2872.04 2629.08L2774.87 2629.08C2771.83 2629.08 2769.37 2626.62 2769.37 2623.58L2769.37 2527.08C2769.37 2524.04 2771.83 2521.58 2774.87 2521.58L2907.5 2521.58C2910.66 2521.58 2913.18 2524.25 2912.99 2527.41L2898.91 2761.26C2898.73 2764.17 2896.33 2766.43 2893.42 2766.43L2878.84 2766.43Z" fill="#7EB647" stroke="#270101" stroke-width="5"/>
<path d="M2870.62 2261.94C2867.69 2261.94 2865.27 2264.23 2865.13 2267.16L2858.15 2404.37C2857.86 2409.95 2853.25 2414.33 2847.66 2414.33L2779.77 2414.33C2776.85 2414.33 2774.44 2416.62 2774.28 2419.53L2769.83 2500.99C2769.65 2504.14 2772.16 2506.79 2775.32 2506.79L2907.81 2506.79C2910.72 2506.79 2913.12 2504.52 2913.3 2501.62L2927.38 2267.77C2927.57 2264.61 2925.05 2261.94 2921.89 2261.94L2870.62 2261.94Z" fill="#7EB647" stroke="#270101" stroke-width="5"/>
<rect x="-2.37579" y="-2.63959" width="208.704" height="90.2137" rx="5.5" transform="matrix(-0.998375 -0.0569928 0.0480577 -0.998845 2765.52 2311.87)" fill="#7EB647" stroke="#270101" stroke-width="5"/>
<path d="M2785.97 2212.24C2786.13 2209.3 2788.57 2206.98 2791.52 2206.98L2854.45 2206.98C2857.63 2206.98 2860.12 2209.66 2859.89 2212.84L2846.03 2398.95C2845.82 2401.84 2843.4 2404.09 2840.5 2404.09L2781.78 2404.09C2778.65 2404.09 2776.18 2401.48 2776.34 2398.35L2785.97 2212.24Z" fill="#7EB647" stroke="#270101" stroke-width="5"/>
<rect x="-2.37579" y="-2.63959" width="208.704" height="90.2137" rx="5.5" transform="matrix(-0.998375 -0.0569928 0.0480577 -0.998845 2760.29 2414.44)" fill="#7EB647" stroke="#270101" stroke-width="5"/>
<rect x="-2.37579" y="-2.63959" width="208.704" height="90.2137" rx="5.5" transform="matrix(-0.998375 -0.0569928 0.0480577 -0.998845 2755.05 2517.04)" fill="#7EB647" stroke="#270101" stroke-width="5"/>
<rect x="-2.37579" y="-2.63959" width="208.704" height="90.2137" rx="5.5" transform="matrix(-0.998375 -0.0569928 0.0480577 -0.998845 2749.82 2619.63)" fill="#7EB647" stroke="#270101" stroke-width="5"/>
<path d="M2547.93 2768.93C2544.89 2768.93 2542.41 2766.45 2542.41 2763.41L2542.25 2631.11C2542.25 2627.96 2544.88 2625.47 2548.02 2625.64L2745.38 2636.55C2748.31 2636.71 2750.6 2639.14 2750.61 2642.07L2750.75 2763.71C2750.75 2766.74 2748.31 2769.19 2745.28 2769.19L2547.93 2768.93Z" fill="#7EB647" stroke="#270101" stroke-width="5"/>
<path d="M2883.91 2881.69C2886.58 2881.69 2888.88 2883.62 2889.35 2886.25L2948.14 3214.56C2948.74 3217.92 2946.17 3221 2942.76 3221L2664.02 3221C2660.97 3221 2658.49 3218.52 2658.49 3215.47L2658.49 2887.16C2658.49 2884.14 2660.93 2881.69 2663.96 2881.69L2883.91 2881.69Z" fill="#7EB647" stroke="#270101" stroke-width="5"/>
<path d="M3029.55 3152.9C3026.61 3152.9 3024.15 3150.59 3023.94 3147.65L3018.68 3071.07C3018.46 3067.93 3020.9 3065.31 3024.04 3065.31L3200.14 3065.31C3203.04 3065.31 3205.5 3067.58 3205.74 3070.48L3212.06 3147.06C3212.32 3150.23 3209.87 3152.9 3206.71 3152.9L3029.55 3152.9Z" fill="#7EB647" stroke="#270101" stroke-width="5"/>
<path d="M3023.89 3054.33C3020.82 3054.32 3018.29 3051.79 3018.29 3048.71L3018.24 3017.74C3018.23 3014.74 3020.63 3012.34 3023.62 3012.35L3200.37 3012.77C3203.44 3012.78 3205.97 3015.31 3205.97 3018.39L3206.02 3049.36C3206.03 3052.36 3203.63 3054.76 3200.64 3054.75L3023.89 3054.33Z" fill="#7EB647" stroke="#270101" stroke-width="5"/>
<path d="M3023.89 3002.8C3020.82 3002.8 3018.29 3000.26 3018.29 2997.18L3018.24 2966.22C3018.23 2963.22 3020.63 2960.82 3023.62 2960.83L3200.37 2961.25C3203.44 2961.26 3205.97 2963.79 3205.97 2966.87L3206.02 2997.83C3206.03 3000.84 3203.63 3003.23 3200.64 3003.23L3023.89 3002.8Z" fill="#7EB647" stroke="#270101" stroke-width="5"/>
<path d="M3024.39 2950.75C3021.32 2950.74 3018.79 2948.21 3018.79 2945.13L3018.74 2914.16C3018.73 2911.16 3021.13 2908.76 3024.12 2908.77L3200.87 2909.2C3203.94 2909.2 3206.47 2911.74 3206.47 2914.82L3206.52 2945.78C3206.53 2948.78 3204.13 2951.18 3201.14 2951.17L3024.39 2950.75Z" fill="#7EB647" stroke="#270101" stroke-width="5"/>
<path d="M3023.54 2898.69C3020.46 2898.68 3017.94 2896.15 3017.93 2893.07L3017.88 2862.11C3017.88 2859.11 3020.27 2856.71 3023.27 2856.71L3200.02 2857.14C3203.09 2857.15 3205.61 2859.68 3205.62 2862.76L3205.67 2893.72C3205.67 2896.72 3203.28 2899.12 3200.28 2899.11L3023.54 2898.69Z" fill="#7EB647" stroke="#270101" stroke-width="5"/>
<path d="M3024.25 2793.95C3020.99 2793.99 3018.37 2791.19 3018.62 2787.94L3022.74 2734.72C3022.95 2731.91 3025.26 2729.75 3028.07 2729.72L3201.18 2727.76C3204.28 2727.72 3206.84 2730.27 3206.82 2733.38L3206.44 2786.56C3206.41 2789.53 3204.05 2791.91 3201.08 2791.94L3024.25 2793.95Z" fill="#7EB647" stroke="#270101" stroke-width="5"/>
<path d="M3026.14 2719.5C3022.88 2719.54 3020.26 2716.74 3020.52 2713.49L3024.63 2660.27C3024.84 2657.46 3027.15 2655.3 3029.96 2655.27L3203.07 2653.31C3206.17 2653.27 3208.73 2655.82 3208.71 2658.93L3208.33 2712.12C3208.31 2715.08 3205.94 2717.46 3202.97 2717.5L3026.14 2719.5Z" fill="#7EB647" stroke="#270101" stroke-width="5"/>
<path d="M3031.36 2645.11C3028.11 2645.14 3025.5 2642.35 3025.75 2639.1L3029.86 2585.86C3030.08 2583.05 3032.38 2580.89 3035.2 2580.86L3207.97 2578.9C3211.16 2578.87 3213.75 2581.55 3213.6 2584.75L3211.1 2638.34C3210.97 2641.22 3208.63 2643.48 3205.75 2643.51L3031.36 2645.11Z" fill="#7EB647" stroke="#270101" stroke-width="5"/>
<path d="M3037.92 2571.89C3034.66 2571.93 3032.04 2569.14 3032.29 2565.88L3036.4 2512.67C3036.62 2509.86 3038.92 2507.7 3041.74 2507.67L3214.26 2505.71C3217.51 2505.68 3220.13 2508.47 3219.88 2511.72L3215.88 2564.72C3215.67 2567.53 3213.37 2569.69 3210.55 2569.73L3037.92 2571.89Z" fill="#7EB647" stroke="#270101" stroke-width="5"/>
<path d="M3090.12 1737.11C3086.87 1737.15 3084.32 1734.38 3084.64 1731.14L3088.57 1691.1C3088.84 1688.28 3091.21 1686.11 3094.05 1686.07L3266.58 1684.12C3269.83 1684.09 3272.37 1686.85 3272.06 1690.08L3268.24 1729.95C3267.97 1732.77 3265.6 1734.95 3262.76 1734.99L3090.12 1737.11Z" fill="#7EB647" stroke="#270101" stroke-width="5"/>
<path d="M3099.45 1616.78C3096.2 1616.81 3093.65 1614.04 3093.97 1610.8L3097.75 1572.45C3098.03 1569.63 3100.4 1567.46 3103.23 1567.43L3275.74 1565.9C3278.98 1565.87 3281.52 1568.63 3281.21 1571.86L3277.54 1610.05C3277.27 1612.87 3274.9 1615.05 3272.06 1615.08L3099.45 1616.78Z" fill="#7EB647" stroke="#270101" stroke-width="5"/>
<path d="M3095.34 1677.47C3092.08 1677.51 3089.54 1674.74 3089.86 1671.51L3093.8 1631.22C3094.07 1628.4 3096.44 1626.23 3099.28 1626.19L3271.81 1624.2C3275.06 1624.16 3277.6 1626.92 3277.29 1630.15L3273.45 1670.27C3273.18 1673.09 3270.81 1675.27 3267.98 1675.31L3095.34 1677.47Z" fill="#7EB647" stroke="#270101" stroke-width="5"/>
<path d="M3105.99 1560.3C3102.74 1560.33 3100.2 1557.56 3100.51 1554.32L3104.29 1515.97C3104.57 1513.15 3106.94 1510.98 3109.77 1510.95L3282.28 1509.42C3285.53 1509.39 3288.06 1512.16 3287.75 1515.38L3284.08 1553.57C3283.81 1556.4 3281.44 1558.57 3278.6 1558.6L3105.99 1560.3Z" fill="#7EB647" stroke="#270101" stroke-width="5"/>
<path d="M3112.53 1503.82C3109.28 1503.85 3106.74 1501.08 3107.05 1497.84L3110.83 1459.49C3111.11 1456.67 3113.48 1454.5 3116.31 1454.47L3288.82 1452.94C3292.07 1452.91 3294.6 1455.68 3294.29 1458.91L3290.62 1497.09C3290.35 1499.92 3287.98 1502.09 3285.14 1502.12L3112.53 1503.82Z" fill="#7EB647" stroke="#270101" stroke-width="5"/>
<path d="M3116.92 1443.97C3113.72 1444 3111.19 1441.3 3111.44 1438.11L3120.13 1325.51C3120.35 1322.64 3122.75 1320.4 3125.62 1320.38L3298.15 1318.84C3301.35 1318.81 3303.87 1321.51 3303.63 1324.7L3295.06 1437.13C3294.84 1440 3292.45 1442.24 3289.57 1442.27L3116.92 1443.97Z" fill="#7EB647" stroke="#270101" stroke-width="5"/>
<path d="M3124.77 1307.93C3121.52 1307.96 3118.97 1305.18 3119.3 1301.94L3122.58 1269.44C3122.87 1266.62 3125.24 1264.46 3128.07 1264.44L3300.57 1262.9C3303.82 1262.87 3306.36 1265.65 3306.04 1268.88L3302.86 1301.22C3302.58 1304.03 3300.21 1306.2 3297.38 1306.23L3124.77 1307.93Z" fill="#7EB647" stroke="#270101" stroke-width="5"/>
<path d="M3127.39 1255.39C3124.13 1255.42 3121.59 1252.63 3121.92 1249.39L3125.2 1216.89C3125.48 1214.08 3127.86 1211.92 3130.68 1211.89L3303.19 1210.36C3306.44 1210.33 3308.98 1213.1 3308.66 1216.34L3305.48 1248.67C3305.2 1251.49 3302.83 1253.66 3300 1253.69L3127.39 1255.39Z" fill="#7EB647" stroke="#270101" stroke-width="5"/>
<path d="M3131.31 1202.85C3128.06 1202.88 3125.51 1200.09 3125.84 1196.85L3129.12 1164.35C3129.41 1161.54 3131.78 1159.38 3134.61 1159.35L3307.11 1157.82C3310.36 1157.79 3312.9 1160.56 3312.58 1163.8L3309.4 1196.13C3309.12 1198.95 3306.75 1201.12 3303.92 1201.15L3131.31 1202.85Z" fill="#7EB647" stroke="#270101" stroke-width="5"/>
<path d="M3135.24 1150.3C3131.98 1150.34 3129.44 1147.55 3129.77 1144.31L3133.05 1111.81C3133.33 1109 3135.7 1106.83 3138.53 1106.81L3311.04 1105.27C3314.29 1105.25 3316.83 1108.02 3316.51 1111.25L3313.32 1143.59C3313.05 1146.41 3310.68 1148.58 3307.85 1148.6L3135.24 1150.3Z" fill="#7EB647" stroke="#270101" stroke-width="5"/>
<path d="M3139.16 1097.76C3135.91 1097.79 3133.36 1095.01 3133.69 1091.77L3136.97 1059.27C3137.26 1056.46 3139.63 1054.29 3142.46 1054.27L3314.96 1052.73C3318.21 1052.7 3320.75 1055.48 3320.43 1058.71L3317.25 1091.05C3316.97 1093.86 3314.6 1096.03 3311.77 1096.06L3139.16 1097.76Z" fill="#7EB647" stroke="#270101" stroke-width="5"/>
<path d="M3081.93 2443.98C3078.71 2443.98 3076.14 2441.23 3076.36 2438.02L3081.16 2367.05C3081.36 2364.19 3083.71 2362 3086.57 2362L3113.1 2362C3116.3 2362 3118.86 2364.72 3118.67 2367.91L3114.4 2438.89C3114.23 2441.76 3111.87 2443.98 3109 2443.98L3081.93 2443.98Z" fill="#7EB647" stroke="#270101" stroke-width="5"/>
<path d="M3105.47 2241.59C3102.26 2241.59 3099.69 2238.84 3099.91 2235.63L3104.71 2164.65C3104.9 2161.8 3107.25 2159.6 3110.11 2159.6L3136.65 2159.6C3139.85 2159.6 3142.41 2162.33 3142.22 2165.52L3137.95 2236.49C3137.77 2239.37 3135.42 2241.59 3132.54 2241.59L3105.47 2241.59Z" fill="#7EB647" stroke="#270101" stroke-width="5"/>
<path d="M3042.71 2498.47C3039.36 2498.51 3036.71 2495.56 3037.11 2492.23L3041.04 2459.46C3041.37 2456.68 3043.75 2454.63 3046.55 2454.7L3216.96 2458.93C3220.17 2459.01 3222.67 2461.83 3222.37 2465.03L3219.86 2491.71C3219.59 2494.48 3217.31 2496.58 3214.53 2496.61L3042.71 2498.47Z" stroke="#270101" stroke-width="5"/>
<path d="M3042.09 2444.63C3038.86 2444.63 3036.29 2441.86 3036.53 2438.64L3048.76 2275.4C3048.97 2272.57 3051.31 2270.39 3054.16 2270.39L3222.39 2270.39C3225.57 2270.39 3228.13 2273.09 3227.96 2276.27L3224.24 2346.5C3224.08 2349.42 3221.67 2351.68 3218.74 2351.63L3079.51 2349.27C3073.96 2349.18 3069.36 2353.43 3069.02 2358.97L3064.05 2439.55C3063.87 2442.42 3061.52 2444.63 3058.65 2444.63L3042.09 2444.63Z" fill="#7EB647" stroke="#270101" stroke-width="5"/>
<path d="M3065.64 2242.24C3062.41 2242.24 3059.83 2239.46 3060.08 2236.24L3072.31 2073.01C3072.52 2070.17 3074.86 2068 3077.7 2068L3245.94 2068C3249.12 2068 3251.68 2070.7 3251.51 2073.88L3247.79 2144.11C3247.63 2147.03 3245.21 2149.29 3242.29 2149.24L3103.06 2146.88C3097.5 2146.78 3092.9 2151.04 3092.56 2156.58L3087.6 2237.16C3087.42 2240.03 3085.07 2242.24 3082.19 2242.24L3065.64 2242.24Z" fill="#7EB647" stroke="#270101" stroke-width="5"/>
<path d="M3077.56 1970.33C3074.31 1970.34 3071.67 1967.54 3071.86 1964.29L3084.7 1753.35C3084.87 1750.53 3087.14 1748.38 3089.96 1748.37L3258.2 1747.8C3261.4 1747.79 3264.03 1750.54 3263.89 1753.75L3259.84 1846.92C3259.71 1849.82 3257.35 1852.04 3254.45 1851.99L3115.05 1849.47C3109.54 1849.37 3105.04 1853.57 3104.76 1859.09L3099.42 1965.24C3099.28 1968.08 3096.99 1970.27 3094.15 1970.28L3077.56 1970.33Z" fill="#7EB647" stroke="#270101" stroke-width="5"/>
<path d="M3078.4 2022.74C3075.33 2022.74 3072.79 2020.21 3072.79 2017.12L3072.74 1986.18C3072.73 1983.18 3075.13 1980.78 3078.12 1980.79L3254.86 1981.21C3257.93 1981.22 3260.46 1983.76 3260.46 1986.84L3260.46 2017.36C3260.46 2020.35 3258.07 2022.74 3255.09 2022.74L3078.4 2022.74Z" fill="#FF0000" stroke="#270101" stroke-width="5"/>
<path d="M2639.46 2881.99C2642.51 2881.99 2644.99 2884.47 2644.99 2887.52L2644.99 3215.53C2644.99 3218.56 2642.55 3221 2639.52 3221L2491.5 3221C2488.41 3221 2485.92 3218.46 2485.97 3215.37L2492.21 2887.36C2492.27 2884.37 2494.69 2881.99 2497.68 2881.99L2639.46 2881.99Z" fill="#7EB647" stroke="#270101" stroke-width="5"/>
<path d="M2468.37 3045.06H2389.51C2386.46 3045.06 2383.98 3042.58 2383.98 3039.53L2383.98 2887.26C2383.98 2884.24 2386.42 2881.8 2389.45 2881.8H2472.45C2475.56 2881.8 2478.07 2884.37 2477.98 2887.48L2473.84 3039.74C2473.76 3042.71 2471.34 3045.06 2468.37 3045.06Z" fill="#7EB647" stroke="#270101" stroke-width="5"/>
<path d="M2364.82 3045.06H2176.01C2172.95 3045.06 2170.46 3042.56 2170.48 3039.5L2171.38 2887.23C2171.4 2884.22 2173.83 2881.8 2176.85 2881.8H2364.75C2367.8 2881.8 2370.28 2884.28 2370.28 2887.33L2370.28 3039.59C2370.28 3042.62 2367.84 3045.06 2364.82 3045.06Z" fill="#7EB647" stroke="#270101" stroke-width="5"/>
<path d="M2065.99 3009.74H1969.04C1965.98 3009.74 1963.5 3007.24 1963.51 3004.18L1963.95 2924.21C1963.97 2921.19 1966.41 2918.77 1969.42 2918.77H2065.91C2068.96 2918.77 2071.44 2921.25 2071.44 2924.3L2071.46 3004.27C2071.46 3007.3 2069.01 3009.74 2065.99 3009.74Z" fill="#7EB647" stroke="#270101" stroke-width="5"/>
<path d="M2001.93 3177.18H1605.2C1602.11 3177.18 1599.61 3174.63 1599.67 3171.54L1602.38 3030.57C1602.44 3027.59 1604.87 3025.21 1607.85 3025.21H2002.78C2005.85 3025.21 2008.33 3027.71 2008.31 3030.77L2007.4 3171.75C2007.38 3174.76 2004.94 3177.18 2001.93 3177.18Z" fill="#7EB647" stroke="#270101" stroke-width="5"/>
<path d="M2462.92 3219.69H2087.26C2084.22 3219.69 2081.73 3217.21 2081.73 3214.16L2081.73 2887.26C2081.73 2884.24 2084.18 2881.79 2087.2 2881.79H2150.59C2153.64 2881.79 2156.12 2884.28 2156.12 2887.32L2156.12 3049.31C2156.12 3055.13 2160.86 3059.87 2166.68 3059.87H2462.86C2465.91 3059.87 2468.39 3062.35 2468.39 3065.4L2468.39 3214.22C2468.39 3217.25 2465.95 3219.69 2462.92 3219.69Z" fill="#7EB647" stroke="#270101" stroke-width="5"/>
<rect x="-2.48992" y="2.5192" width="356.696" height="94.3185" rx="5.5" transform="matrix(0.00400391 0.999992 -0.99997 0.00768811 1955.08 569.634)" fill="#7EB647" stroke="#270101" stroke-width="5"/>
<rect x="-2.48992" y="2.5192" width="130.278" height="105.549" rx="5.5" transform="matrix(0.00400391 0.999992 -0.99997 0.00768811 1841.93 572.308)" fill="#7EB647" stroke="#270101" stroke-width="5"/>
<rect x="-2.48992" y="2.5192" width="130.278" height="239.076" rx="5.5" transform="matrix(0.00400391 0.999992 -0.99997 0.00768811 1468.71 572.308)" fill="#7EB647" stroke="#270101" stroke-width="5"/>
<rect x="-2.48969" y="2.51877" width="130.278" height="31.4998" rx="5.5" transform="matrix(0.00409587 0.999992 -0.999972 0.00751551 1725.09 572.308)" fill="#7EB647" stroke="#270101" stroke-width="5"/>
<rect x="-2.48956" y="2.51853" width="130.278" height="31.9702" rx="5.5" transform="matrix(0.00414866 0.999991 -0.999973 0.00741989 1218.84 572.308)" fill="#7EB647" stroke="#270101" stroke-width="5"/>
<rect x="-2.48956" y="2.51853" width="130.278" height="31.9702" rx="5.5" transform="matrix(0.00414866 0.999991 -0.999973 0.00741989 959.147 572.308)" fill="#7EB647" stroke="#270101" stroke-width="5"/>
<rect x="-2.48969" y="2.51877" width="130.278" height="31.4998" rx="5.5" transform="matrix(0.00409587 0.999992 -0.999972 0.00751551 1596.63 572.308)" fill="#7EB647" stroke="#270101" stroke-width="5"/>
<rect x="-2.48956" y="2.51853" width="130.278" height="31.9702" rx="5.5" transform="matrix(0.00414866 0.999991 -0.999973 0.00741989 1088.72 572.308)" fill="#7EB647" stroke="#270101" stroke-width="5"/>
<rect x="-2.48956" y="2.51853" width="130.278" height="31.9702" rx="5.5" transform="matrix(0.00414866 0.999991 -0.999973 0.00741989 829.029 572.308)" fill="#7EB647" stroke="#270101" stroke-width="5"/>
<rect x="-2.48969" y="2.51877" width="130.278" height="31.4998" rx="5.5" transform="matrix(0.00409587 0.999992 -0.999972 0.00751551 1682.27 572.308)" fill="#7EB647" stroke="#270101" stroke-width="5"/>
<rect x="-2.48956" y="2.51853" width="130.278" height="31.9702" rx="5.5" transform="matrix(0.00414866 0.999991 -0.999973 0.00741989 1175.47 572.308)" fill="#7EB647" stroke="#270101" stroke-width="5"/>
<rect x="-2.48956" y="2.51853" width="130.278" height="31.9702" rx="5.5" transform="matrix(0.00414866 0.999991 -0.999973 0.00741989 915.774 572.308)" fill="#7EB647" stroke="#270101" stroke-width="5"/>
<rect x="-2.48969" y="2.51877" width="130.278" height="31.4998" rx="5.5" transform="matrix(0.00409587 0.999992 -0.999972 0.00751551 1553.81 572.308)" fill="#7EB647" stroke="#270101" stroke-width="5"/>
<rect x="-2.48956" y="2.51853" width="130.278" height="31.9702" rx="5.5" transform="matrix(0.00414866 0.999991 -0.999973 0.00741989 1045.35 572.308)" fill="#7EB647" stroke="#270101" stroke-width="5"/>
<rect x="-2.48956" y="2.51853" width="130.278" height="31.9702" rx="5.5" transform="matrix(0.00414866 0.999991 -0.999973 0.00741989 785.655 572.308)" fill="#7EB647" stroke="#270101" stroke-width="5"/>
<rect x="-2.48969" y="2.51877" width="130.278" height="31.4998" rx="5.5" transform="matrix(0.00409587 0.999992 -0.999972 0.00751551 1639.45 572.308)" fill="#7EB647" stroke="#270101" stroke-width="5"/>
<rect x="-2.48956" y="2.51853" width="130.278" height="31.9702" rx="5.5" transform="matrix(0.00414866 0.999991 -0.999973 0.00741989 1132.1 572.308)" fill="#7EB647" stroke="#270101" stroke-width="5"/>
<rect x="-2.48956" y="2.51853" width="130.278" height="31.9702" rx="5.5" transform="matrix(0.00414866 0.999991 -0.999973 0.00741989 872.401 572.308)" fill="#7EB647" stroke="#270101" stroke-width="5"/>
<rect x="-2.48969" y="2.51877" width="130.278" height="31.4998" rx="5.5" transform="matrix(0.00409587 0.999992 -0.999972 0.00751551 1510.99 572.308)" fill="#7EB647" stroke="#270101" stroke-width="5"/>
<rect x="-2.48956" y="2.51853" width="130.278" height="31.9702" rx="5.5" transform="matrix(0.00414866 0.999991 -0.999973 0.00741989 1001.98 572.308)" fill="#7EB647" stroke="#270101" stroke-width="5"/>
<rect x="-2.48956" y="2.51853" width="130.278" height="31.9702" rx="5.5" transform="matrix(0.00414866 0.999991 -0.999973 0.00741989 742.282 572.308)" fill="#7EB647" stroke="#270101" stroke-width="5"/>
<rect x="-2.49068" y="2.52083" width="210.618" height="135.299" rx="5.5" transform="matrix(0.00369134 0.999993 -0.999965 0.00833908 1841.68 715.628)" fill="#7EB647" stroke="#270101" stroke-width="5"/>
<rect x="-2.49068" y="2.52083" width="210.618" height="135.299" rx="5.5" transform="matrix(0.00369134 0.999993 -0.999965 0.00833908 1694.17 715.628)" fill="#7EB647" stroke="#270101" stroke-width="5"/>
<rect x="-2.49068" y="2.52083" width="210.618" height="135.299" rx="5.5" transform="matrix(0.00369134 0.999993 -0.999965 0.00833908 1547.04 716.615)" fill="#7EB647" stroke="#270101" stroke-width="5"/>
<rect x="-2.49068" y="2.52083" width="210.618" height="135.299" rx="5.5" transform="matrix(0.00369134 0.999993 -0.999965 0.00833908 1399.91 716.615)" fill="#7EB647" stroke="#270101" stroke-width="5"/>
<rect x="-2.49068" y="2.52083" width="210.618" height="135.299" rx="5.5" transform="matrix(0.00369134 0.999993 -0.999965 0.00833908 1252.78 716.615)" fill="#7EB647" stroke="#270101" stroke-width="5"/>
<rect x="-2.49068" y="2.52083" width="210.618" height="135.299" rx="5.5" transform="matrix(0.00369134 0.999993 -0.999965 0.00833908 1108.06 716.615)" fill="#7EB647" stroke="#270101" stroke-width="5"/>
<rect x="-2.49068" y="2.52083" width="210.618" height="135.299" rx="5.5" transform="matrix(0.00369134 0.999993 -0.999965 0.00833908 963.338 716.615)" fill="#7EB647" stroke="#270101" stroke-width="5"/>
<rect x="-2.49085" y="2.52123" width="210.618" height="113.148" rx="5.5" transform="matrix(0.00362236 0.999993 -0.999964 0.00849788 818.224 716.781)" fill="#7EB647" stroke="#270101" stroke-width="5"/>
<rect x="-2.52123" y="-2.49085" width="511.726" height="467.291" rx="5.5" transform="matrix(-0.999993 0.00362236 -0.00849788 -0.999964 559.327 1102.81)" fill="#7EB647" stroke="#270101" stroke-width="5"/>
<rect x="-2.52123" y="-2.49085" width="511.726" height="126.02" rx="5.5" transform="matrix(-0.999993 0.00362236 -0.00849788 -0.999964 556.427 1387.43)" fill="#7EB647" stroke="#270101" stroke-width="5"/>
<rect x="-2.52123" y="-2.49085" width="511.726" height="126.02" rx="5.5" transform="matrix(-0.999993 0.00362236 -0.00849788 -0.999964 556.427 1597.88)" fill="#7EB647" stroke="#270101" stroke-width="5"/>
<rect x="-2.52123" y="-2.49085" width="511.726" height="126.02" rx="5.5" transform="matrix(-0.999993 0.00362236 -0.00849788 -0.999964 556.427 1841.19)" fill="#7EB647" stroke="#270101" stroke-width="5"/>
<rect x="-2.52123" y="-2.49085" width="511.726" height="126.02" rx="5.5" transform="matrix(-0.999993 0.00362236 -0.00849788 -0.999964 556.427 2101.5)" fill="#7EB647" stroke="#270101" stroke-width="5"/>
<rect x="-2.52123" y="-2.49085" width="511.726" height="126.02" rx="5.5" transform="matrix(-0.999993 0.00362236 -0.00849788 -0.999964 556.427 2249.32)" fill="#7EB647" stroke="#270101" stroke-width="5"/>
<rect x="-2.52123" y="-2.49085" width="511.726" height="126.02" rx="5.5" transform="matrix(-0.999993 0.00362236 -0.00849788 -0.999964 556.427 2394.51)" fill="#7EB647" stroke="#270101" stroke-width="5"/>
<rect x="-2.52123" y="-2.49085" width="511.726" height="126.02" rx="5.5" transform="matrix(-0.999993 0.00362236 -0.00849788 -0.999964 556.427 2684.91)" fill="#7EB647" stroke="#270101" stroke-width="5"/>
<rect x="-2.52123" y="-2.49085" width="511.726" height="126.02" rx="5.5" transform="matrix(-0.999993 0.00362236 -0.00849788 -0.999964 556.427 2991.01)" fill="#7EB647" stroke="#270101" stroke-width="5"/>
<rect x="-2.52123" y="-2.49085" width="450.408" height="126.02" rx="5.5" transform="matrix(-0.999993 0.00362236 -0.00849788 -0.999964 556.427 3144.06)" fill="#7EB647" stroke="#270101" stroke-width="5"/>
<rect x="-2.52123" y="-2.49085" width="450.408" height="201.553" rx="5.5" transform="matrix(-0.999993 0.00362236 -0.00849788 -0.999964 1160.67 3144.06)" fill="#7EB647" stroke="#270101" stroke-width="5"/>
<path d="M1327.82 3366.03L1204.17 3366.48C1201.11 3366.49 1198.62 3364.01 1198.62 3360.95L1198.62 3195.37C1198.62 3192.4 1200.98 3189.98 1203.95 3189.9L1326.17 3186.6C1329.26 3186.52 1331.82 3188.99 1331.85 3192.08L1333.28 3360.51C1333.3 3363.55 1330.86 3366.02 1327.82 3366.03ZM3022.73 3283.77L2970.75 3283.76C2967.66 3283.76 2965.17 3281.23 2965.22 3278.14L2965.98 3234.58C2966.02 3232.22 2967.57 3230.15 2969.83 3229.45L3012 3216.39C3015.2 3215.4 3018.55 3217.48 3019.08 3220.8L3028.14 3277.42C3028.67 3280.76 3026.11 3283.76 3022.73 3283.77Z" fill="#FF0000" stroke="#270101" stroke-width="5"/>
<path d="M2502.41 46.4671L2467.75 889.826C2467.62 892.801 2465.16 895.17 2462.18 895.17L2064.02 895.17C2060.96 895.17 2058.52 892.671 2058.6 889.611L2068.68 461.087C2068.82 455.211 2064.11 450.427 2058.23 450.475L694.559 461.462C691.457 461.487 688.981 458.945 689.087 455.844L702.568 62.4751C702.67 59.5039 705.113 57.1209 708.085 57.0936L2496.93 40.8119C2500.05 40.7835 2502.53 43.3501 2502.41 46.4671Z" fill="#7EB647" stroke="#270101" stroke-width="5"/>
<path d="M1463.96 3104.43C1415.39 3104.43 1376.04 3065.27 1376.04 3017C1376.04 2968.72 1415.39 2929.57 1463.96 2929.57C1512.53 2929.57 1551.88 2968.72 1551.88 3017C1551.88 3065.27 1512.53 3104.43 1463.96 3104.43Z" fill="#7EB647" stroke="#270101" stroke-width="5"/>
<path d="M1463.96 3070.22C1435.44 3070.22 1412.21 3046.45 1412.21 3017C1412.21 2987.54 1435.44 2963.78 1463.96 2963.78C1492.48 2963.78 1515.71 2987.54 1515.71 3017C1515.71 3046.45 1492.48 3070.22 1463.96 3070.22Z" fill="#7EB647" stroke="#270101" stroke-width="5"/>
<mask id="path-184-inside-3_235_48124" fill="white">
<path fill-rule="evenodd" clip-rule="evenodd" d="M2995.39 3205.83C3002.93 3202.82 3009.75 3199.71 3010.54 3198.91C3011.34 3198.12 3008.33 3128.78 3003.86 3044.84C2999.39 2960.9 2995.7 2864.32 2995.66 2830.22C2995.63 2796.11 3019.37 2384.01 3048.44 1914.44C3077.5 1444.86 3101.27 1054.19 3101.27 1046.29V1031.93H3278.35C3375.73 1031.93 3542.17 1030.27 3648.21 1028.25L3841 1024.57V971.794V919.022L3686.66 922.615C3601.77 924.595 3325.47 927.865 3072.66 929.884L2613 933.554L2615.32 909.056C2616.6 895.581 2628.8 705.614 2642.44 486.912C2656.08 268.21 2668.23 78.633 2669.44 65.636L2671.64 41.9999H2600.56H2529.47L2525.93 99.0043C2521.72 166.97 2489.47 873.602 2489.47 898.106V915.14L2262.82 915.146L2036.18 915.152L2039.58 694.08C2041.45 572.491 2042.42 472.308 2041.73 471.457C2041.05 470.601 1794.24 472.453 1493.27 475.573C1192.3 478.687 869.095 481.262 775.027 481.295L604 481.351V1821.02V3160.68L630.419 3164.41C644.946 3166.46 661.22 3169.42 666.571 3170.98L676.304 3173.82V3046.4V2918.98L755.56 2915.35C799.149 2913.36 915.536 2911.72 1014.19 2911.71L1193.56 2911.68V3039.6V3167.51H1263.08H1332.6V3017.35V2867.19H2119.01H2905.42L2910.88 2899.17C2913.88 2916.76 2926.01 2994.34 2937.82 3071.57L2959.3 3212L2970.5 3211.65C2976.65 3211.45 2987.86 3208.84 2995.39 3205.83ZM1880.45 2786.55L1649.63 2789.47C1522.68 2791.08 1254.88 2792.33 1054.51 2792.25L690.209 2792.11V2333.3V1874.48L982.206 1820.46C1142.8 1790.74 1289.48 1766.34 1308.15 1766.24C1326.81 1766.12 1479.49 1787.29 1647.42 1813.26C1815.35 1839.24 1954.62 1860.51 1956.92 1860.53C1959.22 1860.56 1960.99 2057.66 1960.86 2298.54L1960.64 2736.5L1920.54 2761.53L1880.45 2786.55ZM2910.04 2778.05L2742.86 2779.61C2650.91 2780.46 2568.86 2781.75 2560.53 2782.47L2545.37 2783.77L2536.3 2766.23L2527.23 2748.69L2540.09 2381.76L2552.94 2014.84L2750.63 2018.9C2859.36 2021.13 2949.48 2024.08 2950.91 2025.46C2952.34 2026.84 2943.72 2196.73 2931.77 2403L2910.04 2778.05ZM2455.98 2133.32C2450.05 2406.95 2445.15 2655.23 2445.09 2685.06L2444.97 2739.28H2226.33H2007.68L2009.96 2598.86C2011.22 2521.62 2015.13 2272.28 2018.65 2044.76L2025.05 1631.09L2244.63 1632.17C2365.39 1632.76 2464.77 1633.82 2465.48 1634.53C2466.19 1635.24 2461.92 1859.69 2455.98 2133.32ZM3012.28 1015.89C3012.28 1046.67 2964.77 1864.99 2959.12 1931.69L2955.68 1972.21L2759.19 1970.62C2651.11 1969.74 2560.99 1967.33 2558.92 1965.26C2556.85 1963.18 2562.94 1746.7 2572.44 1484.19C2581.95 1221.68 2589.69 1002.52 2589.65 997.171L2589.58 987.439H2800.93H3012.28V1015.89ZM1282.55 1382.3V1540.8V1699.3H984.987H687.428V1540.8V1382.3H984.987H1282.55ZM1961.09 1365.61V1526.89V1688.18H1649.63H1338.16V1526.89V1365.61H1649.63H1961.09ZM2476.15 1192.73C2474.21 1298.52 2471.11 1423.25 2469.25 1469.89L2465.88 1554.7H2246.86H2027.83L2027.84 1478.23C2027.85 1436.17 2029.5 1309.79 2031.53 1197.38L2035.2 993L2102.43 993.011C2139.41 993.017 2239.41 994.679 2324.67 996.704L2479.67 1000.38L2476.15 1192.73ZM1281.16 1322.09C1280.39 1322.62 1153.37 1324.6 998.892 1326.5C844.411 1328.39 711.138 1330.45 702.723 1331.09L687.428 1332.25V1171.58V1010.92L811.179 1007.64C879.239 1005.83 1013.14 1003.31 1108.74 1002.03L1282.55 999.713V1160.42C1282.55 1248.81 1281.92 1321.56 1281.16 1322.09ZM1961.09 993V1151.5V1310H1650.47H1339.86L1336.23 1250.74C1334.23 1218.15 1332.6 1146.82 1332.6 1092.24V993H1646.85H1961.09ZM1961.09 931.602L1842.9 933.22C1777.9 934.11 1491.33 935.412 1206.07 936.112L687.428 937.386V745.518V553.649H1324.26H1961.09V742.625V931.602Z"/>
</mask>
<path fill-rule="evenodd" clip-rule="evenodd" d="M2995.39 3205.83C3002.93 3202.82 3009.75 3199.71 3010.54 3198.91C3011.34 3198.12 3008.33 3128.78 3003.86 3044.84C2999.39 2960.9 2995.7 2864.32 2995.66 2830.22C2995.63 2796.11 3019.37 2384.01 3048.44 1914.44C3077.5 1444.86 3101.27 1054.19 3101.27 1046.29V1031.93H3278.35C3375.73 1031.93 3542.17 1030.27 3648.21 1028.25L3841 1024.57V971.794V919.022L3686.66 922.615C3601.77 924.595 3325.47 927.865 3072.66 929.884L2613 933.554L2615.32 909.056C2616.6 895.581 2628.8 705.614 2642.44 486.912C2656.08 268.21 2668.23 78.633 2669.44 65.636L2671.64 41.9999H2600.56H2529.47L2525.93 99.0043C2521.72 166.97 2489.47 873.602 2489.47 898.106V915.14L2262.82 915.146L2036.18 915.152L2039.58 694.08C2041.45 572.491 2042.42 472.308 2041.73 471.457C2041.05 470.601 1794.24 472.453 1493.27 475.573C1192.3 478.687 869.095 481.262 775.027 481.295L604 481.351V1821.02V3160.68L630.419 3164.41C644.946 3166.46 661.22 3169.42 666.571 3170.98L676.304 3173.82V3046.4V2918.98L755.56 2915.35C799.149 2913.36 915.536 2911.72 1014.19 2911.71L1193.56 2911.68V3039.6V3167.51H1263.08H1332.6V3017.35V2867.19H2119.01H2905.42L2910.88 2899.17C2913.88 2916.76 2926.01 2994.34 2937.82 3071.57L2959.3 3212L2970.5 3211.65C2976.65 3211.45 2987.86 3208.84 2995.39 3205.83ZM1880.45 2786.55L1649.63 2789.47C1522.68 2791.08 1254.88 2792.33 1054.51 2792.25L690.209 2792.11V2333.3V1874.48L982.206 1820.46C1142.8 1790.74 1289.48 1766.34 1308.15 1766.24C1326.81 1766.12 1479.49 1787.29 1647.42 1813.26C1815.35 1839.24 1954.62 1860.51 1956.92 1860.53C1959.22 1860.56 1960.99 2057.66 1960.86 2298.54L1960.64 2736.5L1920.54 2761.53L1880.45 2786.55ZM2910.04 2778.05L2742.86 2779.61C2650.91 2780.46 2568.86 2781.75 2560.53 2782.47L2545.37 2783.77L2536.3 2766.23L2527.23 2748.69L2540.09 2381.76L2552.94 2014.84L2750.63 2018.9C2859.36 2021.13 2949.48 2024.08 2950.91 2025.46C2952.34 2026.84 2943.72 2196.73 2931.77 2403L2910.04 2778.05ZM2455.98 2133.32C2450.05 2406.95 2445.15 2655.23 2445.09 2685.06L2444.97 2739.28H2226.33H2007.68L2009.96 2598.86C2011.22 2521.62 2015.13 2272.28 2018.65 2044.76L2025.05 1631.09L2244.63 1632.17C2365.39 1632.76 2464.77 1633.82 2465.48 1634.53C2466.19 1635.24 2461.92 1859.69 2455.98 2133.32ZM3012.28 1015.89C3012.28 1046.67 2964.77 1864.99 2959.12 1931.69L2955.68 1972.21L2759.19 1970.62C2651.11 1969.74 2560.99 1967.33 2558.92 1965.26C2556.85 1963.18 2562.94 1746.7 2572.44 1484.19C2581.95 1221.68 2589.69 1002.52 2589.65 997.171L2589.58 987.439H2800.93H3012.28V1015.89ZM1282.55 1382.3V1540.8V1699.3H984.987H687.428V1540.8V1382.3H984.987H1282.55ZM1961.09 1365.61V1526.89V1688.18H1649.63H1338.16V1526.89V1365.61H1649.63H1961.09ZM2476.15 1192.73C2474.21 1298.52 2471.11 1423.25 2469.25 1469.89L2465.88 1554.7H2246.86H2027.83L2027.84 1478.23C2027.85 1436.17 2029.5 1309.79 2031.53 1197.38L2035.2 993L2102.43 993.011C2139.41 993.017 2239.41 994.679 2324.67 996.704L2479.67 1000.38L2476.15 1192.73ZM1281.16 1322.09C1280.39 1322.62 1153.37 1324.6 998.892 1326.5C844.411 1328.39 711.138 1330.45 702.723 1331.09L687.428 1332.25V1171.58V1010.92L811.179 1007.64C879.239 1005.83 1013.14 1003.31 1108.74 1002.03L1282.55 999.713V1160.42C1282.55 1248.81 1281.92 1321.56 1281.16 1322.09ZM1961.09 993V1151.5V1310H1650.47H1339.86L1336.23 1250.74C1334.23 1218.15 1332.6 1146.82 1332.6 1092.24V993H1646.85H1961.09ZM1961.09 931.602L1842.9 933.22C1777.9 934.11 1491.33 935.412 1206.07 936.112L687.428 937.386V745.518V553.649H1324.26H1961.09V742.625V931.602Z" fill="#454545"/>
<path fill-rule="evenodd" clip-rule="evenodd" d="M2995.39 3205.83C3002.93 3202.82 3009.75 3199.71 3010.54 3198.91C3011.34 3198.12 3008.33 3128.78 3003.86 3044.84C2999.39 2960.9 2995.7 2864.32 2995.66 2830.22C2995.63 2796.11 3019.37 2384.01 3048.44 1914.44C3077.5 1444.86 3101.27 1054.19 3101.27 1046.29V1031.93H3278.35C3375.73 1031.93 3542.17 1030.27 3648.21 1028.25L3841 1024.57V971.794V919.022L3686.66 922.615C3601.77 924.595 3325.47 927.865 3072.66 929.884L2613 933.554L2615.32 909.056C2616.6 895.581 2628.8 705.614 2642.44 486.912C2656.08 268.21 2668.23 78.633 2669.44 65.636L2671.64 41.9999H2600.56H2529.47L2525.93 99.0043C2521.72 166.97 2489.47 873.602 2489.47 898.106V915.14L2262.82 915.146L2036.18 915.152L2039.58 694.08C2041.45 572.491 2042.42 472.308 2041.73 471.457C2041.05 470.601 1794.24 472.453 1493.27 475.573C1192.3 478.687 869.095 481.262 775.027 481.295L604 481.351V1821.02V3160.68L630.419 3164.41C644.946 3166.46 661.22 3169.42 666.571 3170.98L676.304 3173.82V3046.4V2918.98L755.56 2915.35C799.149 2913.36 915.536 2911.72 1014.19 2911.71L1193.56 2911.68V3039.6V3167.51H1263.08H1332.6V3017.35V2867.19H2119.01H2905.42L2910.88 2899.17C2913.88 2916.76 2926.01 2994.34 2937.82 3071.57L2959.3 3212L2970.5 3211.65C2976.65 3211.45 2987.86 3208.84 2995.39 3205.83ZM1880.45 2786.55L1649.63 2789.47C1522.68 2791.08 1254.88 2792.33 1054.51 2792.25L690.209 2792.11V2333.3V1874.48L982.206 1820.46C1142.8 1790.74 1289.48 1766.34 1308.15 1766.24C1326.81 1766.12 1479.49 1787.29 1647.42 1813.26C1815.35 1839.24 1954.62 1860.51 1956.92 1860.53C1959.22 1860.56 1960.99 2057.66 1960.86 2298.54L1960.64 2736.5L1920.54 2761.53L1880.45 2786.55ZM2910.04 2778.05L2742.86 2779.61C2650.91 2780.46 2568.86 2781.75 2560.53 2782.47L2545.37 2783.77L2536.3 2766.23L2527.23 2748.69L2540.09 2381.76L2552.94 2014.84L2750.63 2018.9C2859.36 2021.13 2949.48 2024.08 2950.91 2025.46C2952.34 2026.84 2943.72 2196.73 2931.77 2403L2910.04 2778.05ZM2455.98 2133.32C2450.05 2406.95 2445.15 2655.23 2445.09 2685.06L2444.97 2739.28H2226.33H2007.68L2009.96 2598.86C2011.22 2521.62 2015.13 2272.28 2018.65 2044.76L2025.05 1631.09L2244.63 1632.17C2365.39 1632.76 2464.77 1633.82 2465.48 1634.53C2466.19 1635.24 2461.92 1859.69 2455.98 2133.32ZM3012.28 1015.89C3012.28 1046.67 2964.77 1864.99 2959.12 1931.69L2955.68 1972.21L2759.19 1970.62C2651.11 1969.74 2560.99 1967.33 2558.92 1965.26C2556.85 1963.18 2562.94 1746.7 2572.44 1484.19C2581.95 1221.68 2589.69 1002.52 2589.65 997.171L2589.58 987.439H2800.93H3012.28V1015.89ZM1282.55 1382.3V1540.8V1699.3H984.987H687.428V1540.8V1382.3H984.987H1282.55ZM1961.09 1365.61V1526.89V1688.18H1649.63H1338.16V1526.89V1365.61H1649.63H1961.09ZM2476.15 1192.73C2474.21 1298.52 2471.11 1423.25 2469.25 1469.89L2465.88 1554.7H2246.86H2027.83L2027.84 1478.23C2027.85 1436.17 2029.5 1309.79 2031.53 1197.38L2035.2 993L2102.43 993.011C2139.41 993.017 2239.41 994.679 2324.67 996.704L2479.67 1000.38L2476.15 1192.73ZM1281.16 1322.09C1280.39 1322.62 1153.37 1324.6 998.892 1326.5C844.411 1328.39 711.138 1330.45 702.723 1331.09L687.428 1332.25V1171.58V1010.92L811.179 1007.64C879.239 1005.83 1013.14 1003.31 1108.74 1002.03L1282.55 999.713V1160.42C1282.55 1248.81 1281.92 1321.56 1281.16 1322.09ZM1961.09 993V1151.5V1310H1650.47H1339.86L1336.23 1250.74C1334.23 1218.15 1332.6 1146.82 1332.6 1092.24V993H1646.85H1961.09ZM1961.09 931.602L1842.9 933.22C1777.9 934.11 1491.33 935.412 1206.07 936.112L687.428 937.386V745.518V553.649H1324.26H1961.09V742.625V931.602Z" fill="#414141" fill-opacity="0.2"/>
<path fill-rule="evenodd" clip-rule="evenodd" d="M2995.39 3205.83C3002.93 3202.82 3009.75 3199.71 3010.54 3198.91C3011.34 3198.12 3008.33 3128.78 3003.86 3044.84C2999.39 2960.9 2995.7 2864.32 2995.66 2830.22C2995.63 2796.11 3019.37 2384.01 3048.44 1914.44C3077.5 1444.86 3101.27 1054.19 3101.27 1046.29V1031.93H3278.35C3375.73 1031.93 3542.17 1030.27 3648.21 1028.25L3841 1024.57V971.794V919.022L3686.66 922.615C3601.77 924.595 3325.47 927.865 3072.66 929.884L2613 933.554L2615.32 909.056C2616.6 895.581 2628.8 705.614 2642.44 486.912C2656.08 268.21 2668.23 78.633 2669.44 65.636L2671.64 41.9999H2600.56H2529.47L2525.93 99.0043C2521.72 166.97 2489.47 873.602 2489.47 898.106V915.14L2262.82 915.146L2036.18 915.152L2039.58 694.08C2041.45 572.491 2042.42 472.308 2041.73 471.457C2041.05 470.601 1794.24 472.453 1493.27 475.573C1192.3 478.687 869.095 481.262 775.027 481.295L604 481.351V1821.02V3160.68L630.419 3164.41C644.946 3166.46 661.22 3169.42 666.571 3170.98L676.304 3173.82V3046.4V2918.98L755.56 2915.35C799.149 2913.36 915.536 2911.72 1014.19 2911.71L1193.56 2911.68V3039.6V3167.51H1263.08H1332.6V3017.35V2867.19H2119.01H2905.42L2910.88 2899.17C2913.88 2916.76 2926.01 2994.34 2937.82 3071.57L2959.3 3212L2970.5 3211.65C2976.65 3211.45 2987.86 3208.84 2995.39 3205.83ZM1880.45 2786.55L1649.63 2789.47C1522.68 2791.08 1254.88 2792.33 1054.51 2792.25L690.209 2792.11V2333.3V1874.48L982.206 1820.46C1142.8 1790.74 1289.48 1766.34 1308.15 1766.24C1326.81 1766.12 1479.49 1787.29 1647.42 1813.26C1815.35 1839.24 1954.62 1860.51 1956.92 1860.53C1959.22 1860.56 1960.99 2057.66 1960.86 2298.54L1960.64 2736.5L1920.54 2761.53L1880.45 2786.55ZM2910.04 2778.05L2742.86 2779.61C2650.91 2780.46 2568.86 2781.75 2560.53 2782.47L2545.37 2783.77L2536.3 2766.23L2527.23 2748.69L2540.09 2381.76L2552.94 2014.84L2750.63 2018.9C2859.36 2021.13 2949.48 2024.08 2950.91 2025.46C2952.34 2026.84 2943.72 2196.73 2931.77 2403L2910.04 2778.05ZM2455.98 2133.32C2450.05 2406.95 2445.15 2655.23 2445.09 2685.06L2444.97 2739.28H2226.33H2007.68L2009.96 2598.86C2011.22 2521.62 2015.13 2272.28 2018.65 2044.76L2025.05 1631.09L2244.63 1632.17C2365.39 1632.76 2464.77 1633.82 2465.48 1634.53C2466.19 1635.24 2461.92 1859.69 2455.98 2133.32ZM3012.28 1015.89C3012.28 1046.67 2964.77 1864.99 2959.12 1931.69L2955.68 1972.21L2759.19 1970.62C2651.11 1969.74 2560.99 1967.33 2558.92 1965.26C2556.85 1963.18 2562.94 1746.7 2572.44 1484.19C2581.95 1221.68 2589.69 1002.52 2589.65 997.171L2589.58 987.439H2800.93H3012.28V1015.89ZM1282.55 1382.3V1540.8V1699.3H984.987H687.428V1540.8V1382.3H984.987H1282.55ZM1961.09 1365.61V1526.89V1688.18H1649.63H1338.16V1526.89V1365.61H1649.63H1961.09ZM2476.15 1192.73C2474.21 1298.52 2471.11 1423.25 2469.25 1469.89L2465.88 1554.7H2246.86H2027.83L2027.84 1478.23C2027.85 1436.17 2029.5 1309.79 2031.53 1197.38L2035.2 993L2102.43 993.011C2139.41 993.017 2239.41 994.679 2324.67 996.704L2479.67 1000.38L2476.15 1192.73ZM1281.16 1322.09C1280.39 1322.62 1153.37 1324.6 998.892 1326.5C844.411 1328.39 711.138 1330.45 702.723 1331.09L687.428 1332.25V1171.58V1010.92L811.179 1007.64C879.239 1005.83 1013.14 1003.31 1108.74 1002.03L1282.55 999.713V1160.42C1282.55 1248.81 1281.92 1321.56 1281.16 1322.09ZM1961.09 993V1151.5V1310H1650.47H1339.86L1336.23 1250.74C1334.23 1218.15 1332.6 1146.82 1332.6 1092.24V993H1646.85H1961.09ZM1961.09 931.602L1842.9 933.22C1777.9 934.11 1491.33 935.412 1206.07 936.112L687.428 937.386V745.518V553.649H1324.26H1961.09V742.625V931.602Z" stroke="#666666" stroke-width="24" mask="url(#path-184-inside-3_235_48124)"/>
<path fill-rule="evenodd" clip-rule="evenodd" d="M2861.65 1022.95C2861.14 1023.49 2861.03 1024.54 2861.41 1025.17C2861.57 1025.43 2862.69 1025.68 2864.91 1025.95C2866.71 1026.16 2869.22 1026.63 2870.49 1026.98C2880.97 1029.88 2889.17 1038.37 2892.01 1049.25L2892.72 1051.98L2892.62 1057.06L2892.53 1062.14L2891.73 1064.84C2887.92 1077.69 2876.84 1086.47 2863.48 1087.22C2861.8 1087.31 2860.72 1087.5 2860.46 1087.75C2859.91 1088.29 2859.94 1089.57 2860.53 1090.13L2861.03 1090.59L2878.59 1090.89L2896.16 1091.19L2898.78 1090.84C2906.37 1089.82 2912.51 1086.87 2918.07 1081.55C2924.89 1075.03 2928.33 1067.15 2928.49 1057.68C2928.62 1050.18 2926.72 1043.86 2922.5 1037.71C2917.44 1030.35 2909.53 1025.26 2900.51 1023.56L2897.93 1023.07L2880.02 1022.76L2862.11 1022.45L2861.65 1022.95ZM2879 1026.7C2879 1026.77 2880.07 1027.55 2881.37 1028.45C2884.33 1030.49 2888.18 1034.3 2890.15 1037.15C2892.96 1041.22 2895.2 1046.9 2895.9 1051.76C2896.28 1054.37 2896.18 1059.8 2895.71 1062.47C2894.85 1067.41 2892.21 1073.33 2889.09 1077.32C2886.9 1080.12 2883.31 1083.39 2880.37 1085.25C2879.02 1086.11 2877.96 1086.85 2878.01 1086.91C2878.2 1087.11 2882.27 1086.02 2884.23 1085.25C2886.78 1084.25 2889.28 1082.84 2891.39 1081.21C2898.31 1075.86 2902.42 1068.68 2903.48 1060.1L2903.83 1057.25L2903.57 1054.36C2902.45 1041.66 2893.95 1031.06 2881.88 1027.34C2879.49 1026.6 2879 1026.49 2879 1026.7ZM2889.72 1026.86C2889.71 1026.93 2890.66 1027.62 2891.82 1028.41C2900.15 1034.05 2905.44 1042.58 2906.71 1052.39C2907.19 1056.09 2907.15 1058.53 2906.54 1062.21C2904.88 1072.32 2898.75 1081.11 2889.7 1086.39C2889.12 1086.73 2888.69 1087.05 2888.74 1087.1C2888.79 1087.16 2889.6 1087.04 2890.55 1086.83C2896.16 1085.62 2902.34 1082.07 2906.22 1077.81C2919.72 1062.98 2916.14 1040.02 2898.79 1030.16C2896.14 1028.66 2889.73 1026.32 2889.72 1026.86ZM2900.43 1027.04C2900.51 1027.12 2901.73 1027.98 2903.15 1028.96C2912.39 1035.31 2917.97 1046.2 2917.77 1057.49C2917.58 1068.8 2911.53 1079.61 2902.08 1085.54C2900.58 1086.49 2899.46 1087.29 2899.6 1087.34C2900.19 1087.55 2905.05 1085.97 2907.82 1084.68C2915.87 1080.9 2921.76 1073.82 2924.28 1064.86L2924.97 1062.43L2925.05 1057.62L2925.13 1052.81L2924.53 1050.36C2921.94 1039.75 2914.36 1031.36 2904.4 1028.06C2902.06 1027.28 2900.21 1026.81 2900.43 1027.04ZM2828.37 1124.65L2828.06 1142.78L2831.22 1142.84L2834.38 1142.89L2834.51 1134.93L2834.65 1126.96L2842.48 1127.09L2850.32 1127.23L2850.18 1135.2L2850.04 1143.16L2853.2 1143.22L2856.36 1143.27L2856.68 1125.14L2856.99 1107.01L2853.83 1106.95L2850.68 1106.9L2850.48 1114.25L2850.28 1121.6L2842.58 1121.46L2834.89 1121.33L2834.94 1113.98L2835 1106.63L2831.84 1106.57L2828.68 1106.52L2828.37 1124.65ZM2906.34 1114.28L2906.23 1120.69L2905.1 1119.58C2904.48 1118.96 2903.16 1118.06 2902.18 1117.58L2900.39 1116.69L2897.51 1116.66L2894.62 1116.62L2893.11 1117.22C2889.61 1118.6 2887.22 1121.16 2885.9 1124.94L2885.14 1127.15L2885.06 1130.3L2884.98 1133.46L2885.62 1135.52C2887.22 1140.72 2890.95 1143.92 2895.98 1144.43C2899.42 1144.78 2902.77 1143.77 2905.03 1141.69C2905.65 1141.12 2906.22 1140.72 2906.3 1140.79C2906.37 1140.87 2906.42 1141.66 2906.4 1142.54L2906.38 1144.14L2909.13 1144.19L2911.87 1144.24L2912.19 1126.1L2912.5 1107.97L2909.48 1107.92L2906.46 1107.87L2906.34 1114.28ZM2940.72 1117.68C2938.53 1118.23 2936.57 1119.28 2934.89 1120.82C2933.17 1122.38 2932.29 1123.69 2931.39 1126.05L2930.76 1127.66L2930.68 1131.1L2930.6 1134.53L2931.19 1136.36C2932.73 1141.05 2936.02 1144.06 2940.78 1145.13C2943.39 1145.71 2944.97 1145.74 2947.45 1145.26C2950.3 1144.71 2952.18 1143.72 2954.29 1141.66L2956.14 1139.85L2957.06 1137.59L2957.98 1135.33L2958.17 1132.95C2958.42 1129.88 2958.01 1127.26 2956.87 1124.79L2955.97 1122.82L2954.25 1121.15C2952.4 1119.36 2950.87 1118.48 2948.41 1117.79C2946.48 1117.25 2942.64 1117.2 2940.72 1117.68ZM2925.88 1117.73C2925.14 1117.97 2924.24 1118.62 2923.44 1119.48L2922.17 1120.84L2922.2 1119.3L2922.23 1117.76L2919.34 1117.71L2916.45 1117.66L2916.29 1130.91L2916.14 1144.17L2919.16 1144.22L2922.18 1144.28L2922.47 1135.62L2922.76 1126.97L2923.27 1125.89C2923.55 1125.29 2924.05 1124.52 2924.39 1124.18C2925.18 1123.36 2927.68 1122.69 2929.05 1122.93L2930.11 1123.12L2930.16 1120.23L2930.21 1117.35L2928.63 1117.34C2927.76 1117.34 2926.52 1117.51 2925.88 1117.73ZM2859.64 1117.15C2859.71 1117.42 2861.56 1122.49 2863.76 1128.42C2865.96 1134.36 2868.03 1140.03 2868.38 1141.03L2869.01 1142.85L2867.13 1147.06C2866.09 1149.37 2865.13 1151.54 2864.99 1151.87L2864.74 1152.49L2867.82 1152.54L2870.91 1152.59L2874.55 1143.93C2879.01 1133.34 2885.67 1117.33 2885.68 1117.21C2885.68 1117.16 2884.22 1117.1 2882.45 1117.07L2879.22 1117.01L2877.5 1121.86C2875.91 1126.32 2872.91 1134.62 2872.53 1135.58L2872.37 1135.99L2872.02 1135.16C2871.83 1134.71 2870.42 1130.38 2868.89 1125.56L2866.1 1116.78L2862.8 1116.73L2859.51 1116.67L2859.64 1117.15ZM2896.44 1121.85C2894.71 1122.46 2893.37 1123.7 2892.38 1125.62L2891.48 1127.38L2891.3 1129.8L2891.12 1132.23L2891.54 1133.77C2892.16 1136.04 2893.48 1137.86 2895.19 1138.79L2896.62 1139.57L2898.45 1139.6L2900.27 1139.63L2901.66 1139.01C2903.38 1138.23 2904.64 1136.97 2905.47 1135.19L2906.11 1133.83L2906.27 1131.22L2906.42 1128.61L2905.87 1127.08C2905.1 1124.9 2903.96 1123.43 2902.34 1122.51L2900.93 1121.72L2899.25 1121.59C2898.2 1121.51 2897.14 1121.61 2896.44 1121.85ZM2942.49 1122.47C2940.33 1123.14 2938.71 1124.56 2937.69 1126.68L2937.03 1128.04L2936.97 1131.34L2936.92 1134.64L2937.54 1136.09C2938.23 1137.68 2939.81 1139.33 2941.25 1139.96C2942.58 1140.55 2945.91 1140.53 2947.28 1139.94C2950.5 1138.54 2952.44 1134 2951.71 1129.55C2951.01 1125.22 2948.54 1122.65 2944.83 1122.38C2943.92 1122.31 2942.87 1122.35 2942.49 1122.47Z" fill="white"/>
</g>
<defs>
<clipPath id="clip0_235_48124">
<rect width="3403" height="3403" fill="white"/>
</clipPath>
</defs>
</svg>
