<svg width="440" height="305" viewBox="0 0 440 305" fill="none" xmlns="http://www.w3.org/2000/svg">
<rect width="531.522" height="32" transform="matrix(0.939693 -0.34202 -0.34202 -0.939693 -19.0554 258.861)" fill="#074B3C"/>
<rect width="531.522" height="32" transform="matrix(0.939693 -0.34202 -0.34202 -0.939693 -19.0554 304.861)" fill="#074B3C"/>
<rect width="531.522" height="32" transform="matrix(0.939693 -0.34202 -0.34202 -0.939693 -19.0554 211.861)" fill="#074B3C"/>
<rect x="469.467" y="258.861" width="531.522" height="32" transform="rotate(-160 469.467 258.861)" fill="#074B3C"/>
<rect x="469.467" y="304.861" width="531.522" height="32" transform="rotate(-160 469.467 304.861)" fill="#074B3C"/>
<rect x="469.467" y="211.861" width="531.522" height="32" transform="rotate(-160 469.467 211.861)" fill="#074B3C"/>
<path d="M28.702 93.5953V80.8156H34.5441C35.7125 80.8156 36.7166 81.0043 37.5564 81.3816C38.4084 81.7589 39.0656 82.3066 39.5281 83.0247C39.9906 83.7306 40.2219 84.5704 40.2219 85.5441C40.2219 86.5056 39.9906 87.3393 39.5281 88.0453C39.0656 88.7512 38.4084 89.2989 37.5564 89.6883C36.7166 90.0657 35.7125 90.2543 34.5441 90.2543H30.7102L32.3168 88.6842V93.5953H28.702ZM32.3168 89.0676L30.7102 87.4063H34.325C35.0796 87.4063 35.6395 87.242 36.0046 86.9133C36.3819 86.5847 36.5706 86.1283 36.5706 85.5441C36.5706 84.9477 36.3819 84.4852 36.0046 84.1566C35.6395 83.828 35.0796 83.6637 34.325 83.6637H30.7102L32.3168 82.0023V89.0676Z" fill="#7EB647"/>
<path d="M47.7564 93.8509C45.8699 93.8509 44.3972 93.3336 43.3383 92.299C42.2795 91.2645 41.75 89.7979 41.75 87.8992V80.8156H45.3648V87.7897C45.3648 88.8851 45.5778 89.6701 46.0038 90.1448C46.442 90.6194 47.0383 90.8568 47.7929 90.8568C48.5476 90.8568 49.1378 90.6194 49.5638 90.1448C49.9898 89.6701 50.2028 88.8851 50.2028 87.7897V80.8156H53.7628V87.8992C53.7628 89.7979 53.2334 91.2645 52.1745 92.299C51.1156 93.3336 49.6429 93.8509 47.7564 93.8509ZM46.0038 79.775L48.4502 77H51.9189L48.4867 79.775H46.0038Z" fill="#7EB647"/>
<path d="M56.2117 93.5953V80.8156H62.7475C64.4271 80.8156 65.6807 81.126 66.5084 81.7467C67.336 82.3553 67.7498 83.1586 67.7498 84.1566C67.7498 84.8138 67.5733 85.392 67.2204 85.891C66.8796 86.3778 66.3927 86.7673 65.7599 87.0594C65.1391 87.3393 64.3967 87.4793 63.5325 87.4793L63.8977 86.603C64.7983 86.603 65.5834 86.7429 66.2528 87.0229C66.9222 87.2906 67.4395 87.6862 67.8046 88.2096C68.1819 88.7207 68.3705 89.3476 68.3705 90.09C68.3705 91.1976 67.9202 92.0617 67.0196 92.6824C66.1311 93.291 64.8288 93.5953 63.1126 93.5953H56.2117ZM59.7899 90.9846H62.8205C63.4413 90.9846 63.9098 90.8811 64.2263 90.6742C64.5549 90.4551 64.7192 90.1265 64.7192 89.6883C64.7192 89.2502 64.5549 88.9277 64.2263 88.7207C63.9098 88.5017 63.4413 88.3921 62.8205 88.3921H59.5344V85.891H62.2728C62.8814 85.891 63.3378 85.7875 63.6421 85.5806C63.9464 85.3737 64.0985 85.0633 64.0985 84.6495C64.0985 84.2357 63.9464 83.9314 63.6421 83.7367C63.3378 83.5298 62.8814 83.4263 62.2728 83.4263H59.7899V90.9846Z" fill="#7EB647"/>
<path d="M70.2428 93.5953V80.8156H73.8576V90.729H79.9553V93.5953H70.2428Z" fill="#7EB647"/>
<path d="M81.3858 93.5953V80.8156H85.0006V93.5953H81.3858Z" fill="#7EB647"/>
<path d="M94.0169 93.8509C92.9945 93.8509 92.0513 93.6865 91.1871 93.3579C90.323 93.0293 89.5684 92.5668 88.9233 91.9704C88.2904 91.3619 87.7975 90.6559 87.4445 89.8527C87.0916 89.0494 86.9151 88.167 86.9151 87.2054C86.9151 86.2439 87.0916 85.3615 87.4445 84.5582C87.7975 83.7549 88.2904 83.0551 88.9233 82.4587C89.5684 81.8502 90.323 81.3816 91.1871 81.053C92.0513 80.7243 92.9945 80.56 94.0169 80.56C95.0514 80.56 95.9947 80.7243 96.8467 81.053C97.7108 81.3816 98.4593 81.8502 99.0922 82.4587C99.7251 83.0551 100.218 83.7549 100.571 84.5582C100.936 85.3615 101.119 86.2439 101.119 87.2054C101.119 88.167 100.936 89.0555 100.571 89.8709C100.218 90.6742 99.7251 91.374 99.0922 91.9704C98.4593 92.5668 97.7108 93.0293 96.8467 93.3579C95.9947 93.6865 95.0514 93.8509 94.0169 93.8509ZM94.0169 90.8568C94.5037 90.8568 94.9541 90.7716 95.3679 90.6012C95.7939 90.4308 96.159 90.1874 96.4633 89.8709C96.7797 89.5423 97.0232 89.1528 97.1936 88.7025C97.3761 88.2522 97.4674 87.7531 97.4674 87.2054C97.4674 86.6456 97.3761 86.1466 97.1936 85.7084C97.0232 85.2581 96.7797 84.8747 96.4633 84.5582C96.159 84.2296 95.7939 83.9801 95.3679 83.8097C94.9541 83.6393 94.5037 83.5541 94.0169 83.5541C93.5301 83.5541 93.0737 83.6393 92.6477 83.8097C92.2338 83.9801 91.8687 84.2296 91.5523 84.5582C91.248 84.8747 91.0046 85.2581 90.822 85.7084C90.6516 86.1466 90.5664 86.6456 90.5664 87.2054C90.5664 87.7531 90.6516 88.2522 90.822 88.7025C91.0046 89.1528 91.248 89.5423 91.5523 89.8709C91.8687 90.1874 92.2338 90.4308 92.6477 90.6012C93.0737 90.7716 93.5301 90.8568 94.0169 90.8568Z" fill="#7EB647"/>
<path d="M102.646 89.7249V87.0594H107.977V89.7249H102.646Z" fill="#7EB647"/>
<path d="M108.111 93.5953L113.752 80.8156H117.312L122.972 93.5953H119.211L114.793 82.5865H116.217L111.799 93.5953H108.111ZM111.196 91.1124L112.127 88.4469H118.371L119.302 91.1124H111.196Z" fill="#7EB647"/>
<path d="M123.996 93.5953V80.8156H127.611V90.729H133.709V93.5953H123.996Z" fill="#7EB647"/>
<path d="M138.209 93.5953L132.75 80.8156H136.657L141.258 91.8791H138.957L143.667 80.8156H147.246L141.769 93.5953H138.209Z" fill="#7EB647"/>
<path d="M154.278 93.8509C153.256 93.8509 152.312 93.6865 151.448 93.3579C150.584 93.0293 149.829 92.5668 149.184 91.9704C148.551 91.3619 148.058 90.6559 147.706 89.8527C147.353 89.0494 147.176 88.167 147.176 87.2054C147.176 86.2439 147.353 85.3615 147.706 84.5582C148.058 83.7549 148.551 83.0551 149.184 82.4587C149.829 81.8502 150.584 81.3816 151.448 81.053C152.312 80.7243 153.256 80.56 154.278 80.56C155.312 80.56 156.256 80.7243 157.108 81.053C157.972 81.3816 158.72 81.8502 159.353 82.4587C159.986 83.0551 160.479 83.7549 160.832 84.5582C161.197 85.3615 161.38 86.2439 161.38 87.2054C161.38 88.167 161.197 89.0555 160.832 89.8709C160.479 90.6742 159.986 91.374 159.353 91.9704C158.72 92.5668 157.972 93.0293 157.108 93.3579C156.256 93.6865 155.312 93.8509 154.278 93.8509ZM154.278 90.8568C154.765 90.8568 155.215 90.7716 155.629 90.6012C156.055 90.4308 156.42 90.1874 156.724 89.8709C157.041 89.5423 157.284 89.1528 157.455 88.7025C157.637 88.2522 157.728 87.7531 157.728 87.2054C157.728 86.6456 157.637 86.1466 157.455 85.7084C157.284 85.2581 157.041 84.8747 156.724 84.5582C156.42 84.2296 156.055 83.9801 155.629 83.8097C155.215 83.6393 154.765 83.5541 154.278 83.5541C153.791 83.5541 153.335 83.6393 152.909 83.8097C152.495 83.9801 152.13 84.2296 151.813 84.5582C151.509 84.8747 151.266 85.2581 151.083 85.7084C150.913 86.1466 150.827 86.6456 150.827 87.2054C150.827 87.7531 150.913 88.2522 151.083 88.7025C151.266 89.1528 151.509 89.5423 151.813 89.8709C152.13 90.1874 152.495 90.4308 152.909 90.6012C153.335 90.7716 153.791 90.8568 154.278 90.8568Z" fill="#7EB647"/>
<path d="M168.586 97.137V80.0489H171.763V97.137H168.586Z" fill="white"/>
<path d="M186.011 93.8509C185.001 93.8509 184.064 93.6926 183.2 93.3762C182.348 93.0476 181.605 92.5851 180.972 91.9887C180.352 91.3923 179.865 90.6925 179.512 89.8892C179.159 89.0737 178.982 88.1791 178.982 87.2054C178.982 86.2318 179.159 85.3433 179.512 84.54C179.865 83.7245 180.352 83.0186 180.972 82.4222C181.605 81.8258 182.348 81.3694 183.2 81.053C184.064 80.7243 185.001 80.56 186.011 80.56C187.192 80.56 188.245 80.7669 189.17 81.1808C190.107 81.5946 190.886 82.191 191.507 82.9699L189.206 85.0512C188.792 84.5643 188.336 84.1931 187.837 83.9375C187.35 83.6819 186.802 83.5541 186.194 83.5541C185.67 83.5541 185.19 83.6393 184.752 83.8097C184.313 83.9801 183.936 84.2296 183.62 84.5582C183.315 84.8747 183.072 85.2581 182.889 85.7084C182.719 86.1587 182.634 86.6578 182.634 87.2054C182.634 87.7531 182.719 88.2522 182.889 88.7025C183.072 89.1528 183.315 89.5423 183.62 89.8709C183.936 90.1874 184.313 90.4308 184.752 90.6012C185.19 90.7716 185.67 90.8568 186.194 90.8568C186.802 90.8568 187.35 90.729 187.837 90.4734C188.336 90.2178 188.792 89.8466 189.206 89.3597L191.507 91.441C190.886 92.2078 190.107 92.8041 189.17 93.2301C188.245 93.6439 187.192 93.8509 186.011 93.8509Z" fill="#7EB647"/>
<path d="M198.903 93.8509C197.881 93.8509 196.938 93.6865 196.073 93.3579C195.209 93.0293 194.455 92.5668 193.81 91.9704C193.177 91.3619 192.684 90.6559 192.331 89.8527C191.978 89.0494 191.801 88.167 191.801 87.2054C191.801 86.2439 191.978 85.3615 192.331 84.5582C192.684 83.7549 193.177 83.0551 193.81 82.4587C194.455 81.8502 195.209 81.3816 196.073 81.053C196.938 80.7243 197.881 80.56 198.903 80.56C199.938 80.56 200.881 80.7243 201.733 81.053C202.597 81.3816 203.346 81.8502 203.978 82.4587C204.611 83.0551 205.104 83.7549 205.457 84.5582C205.822 85.3615 206.005 86.2439 206.005 87.2054C206.005 88.167 205.822 89.0555 205.457 89.8709C205.104 90.6742 204.611 91.374 203.978 91.9704C203.346 92.5668 202.597 93.0293 201.733 93.3579C200.881 93.6865 199.938 93.8509 198.903 93.8509ZM198.903 90.8568C199.39 90.8568 199.84 90.7716 200.254 90.6012C200.68 90.4308 201.045 90.1874 201.35 89.8709C201.666 89.5423 201.909 89.1528 202.08 88.7025C202.262 88.2522 202.354 87.7531 202.354 87.2054C202.354 86.6456 202.262 86.1466 202.08 85.7084C201.909 85.2581 201.666 84.8747 201.35 84.5582C201.045 84.2296 200.68 83.9801 200.254 83.8097C199.84 83.6393 199.39 83.5541 198.903 83.5541C198.416 83.5541 197.96 83.6393 197.534 83.8097C197.12 83.9801 196.755 84.2296 196.439 84.5582C196.134 84.8747 195.891 85.2581 195.708 85.7084C195.538 86.1466 195.453 86.6456 195.453 87.2054C195.453 87.7531 195.538 88.2522 195.708 88.7025C195.891 89.1528 196.134 89.5423 196.439 89.8709C196.755 90.1874 197.12 90.4308 197.534 90.6012C197.96 90.7716 198.416 90.8568 198.903 90.8568Z" fill="#7EB647"/>
<path d="M207.898 93.5953V80.8156H210.874L216.168 89.5058H214.598L219.747 80.8156H222.723L222.759 93.5953H219.436L219.4 85.8727H219.966L216.114 92.3356H214.507L210.545 85.8727H211.239V93.5953H207.898Z" fill="#7EB647"/>
<path d="M231.214 93.8509C229.327 93.8509 227.855 93.3336 226.796 92.299C225.737 91.2645 225.207 89.7979 225.207 87.8992V80.8156H228.822V87.7897C228.822 88.8851 229.035 89.6701 229.461 90.1448C229.899 90.6194 230.496 90.8568 231.25 90.8568C232.005 90.8568 232.595 90.6194 233.021 90.1448C233.447 89.6701 233.66 88.8851 233.66 87.7897V80.8156H237.22V87.8992C237.22 89.7979 236.691 91.2645 235.632 92.299C234.573 93.3336 233.1 93.8509 231.214 93.8509Z" fill="#7EB647"/>
<path d="M239.669 93.5953V80.8156H242.645L249.692 89.3232H248.286V80.8156H251.828V93.5953H248.852L241.805 85.0877H243.211V93.5953H239.669Z" fill="#7EB647"/>
<path d="M254.378 93.5953V80.8156H257.992V93.5953H254.378Z" fill="#7EB647"/>
<path d="M260.564 93.5953V80.8156H266.607C268.019 80.8156 269.26 81.0773 270.331 81.6007C271.403 82.124 272.236 82.8604 272.833 83.8097C273.441 84.7591 273.745 85.891 273.745 87.2054C273.745 88.5078 273.441 89.6397 272.833 90.6012C272.236 91.5505 271.403 92.2869 270.331 92.8102C269.26 93.3336 268.019 93.5953 266.607 93.5953H260.564ZM264.179 90.7107H266.461C267.191 90.7107 267.824 90.5768 268.36 90.3091C268.907 90.0291 269.333 89.6275 269.638 89.1041C269.942 88.5686 270.094 87.9357 270.094 87.2054C270.094 86.463 269.942 85.8301 269.638 85.3068C269.333 84.7834 268.907 84.3878 268.36 84.1201C267.824 83.8401 267.191 83.7002 266.461 83.7002H264.179V90.7107Z" fill="#7EB647"/>
<path d="M273.935 93.5953L279.577 80.8156H283.137L288.796 93.5953H285.035L280.617 82.5865H282.041L277.623 93.5953H273.935ZM277.021 91.1124L277.952 88.4469H284.196L285.127 91.1124H277.021Z" fill="#7EB647"/>
<path d="M289.821 93.5953V80.8156H295.864C297.276 80.8156 298.517 81.0773 299.588 81.6007C300.659 82.124 301.493 82.8604 302.09 83.8097C302.698 84.7591 303.002 85.891 303.002 87.2054C303.002 88.5078 302.698 89.6397 302.09 90.6012C301.493 91.5505 300.659 92.2869 299.588 92.8102C298.517 93.3336 297.276 93.5953 295.864 93.5953H289.821ZM293.436 90.7107H295.718C296.448 90.7107 297.081 90.5768 297.617 90.3091C298.164 90.0291 298.59 89.6275 298.895 89.1041C299.199 88.5686 299.351 87.9357 299.351 87.2054C299.351 86.463 299.199 85.8301 298.895 85.3068C298.59 84.7834 298.164 84.3878 297.617 84.1201C297.081 83.8401 296.448 83.7002 295.718 83.7002H293.436V90.7107Z" fill="#7EB647"/>
<path d="M304.904 93.5953V80.8156H314.927V83.6089H308.482V90.802H315.164V93.5953H304.904ZM308.227 88.4652V85.7632H314.16V88.4652H308.227Z" fill="#7EB647"/>
<path d="M322.483 93.5953V80.8156H332.506V83.6089H326.062V90.802H332.743V93.5953H322.483ZM325.806 88.4652V85.7632H331.739V88.4652H325.806Z" fill="#7EB647"/>
<path d="M334.749 93.5953V80.8156H337.725L343.02 89.5058H341.45L346.598 80.8156H349.574L349.61 93.5953H346.288L346.251 85.8727H346.817L342.965 92.3356H341.358L337.397 85.8727H338.09V93.5953H334.749Z" fill="#7EB647"/>
<path d="M363.871 93.8509C362.861 93.8509 361.923 93.6926 361.059 93.3762C360.195 93.0476 359.447 92.5851 358.814 91.9887C358.193 91.3923 357.706 90.6925 357.353 89.8892C357 89.0737 356.824 88.1791 356.824 87.2054C356.824 86.2318 357 85.3433 357.353 84.54C357.706 83.7245 358.199 83.0186 358.832 82.4222C359.465 81.8258 360.213 81.3694 361.078 81.053C361.954 80.7243 362.909 80.56 363.944 80.56C365.149 80.56 366.226 80.7609 367.175 81.1625C368.125 81.5642 368.91 82.1423 369.53 82.8969L367.23 84.9781C366.792 84.5035 366.317 84.1505 365.806 83.9193C365.307 83.6758 364.747 83.5541 364.126 83.5541C363.579 83.5541 363.08 83.6393 362.629 83.8097C362.179 83.9801 361.796 84.2296 361.479 84.5582C361.163 84.8747 360.913 85.2581 360.731 85.7084C360.56 86.1466 360.475 86.6456 360.475 87.2054C360.475 87.741 360.56 88.2339 360.731 88.6842C360.913 89.1346 361.163 89.524 361.479 89.8527C361.796 90.1691 362.173 90.4186 362.611 90.6012C363.061 90.7716 363.554 90.8568 364.09 90.8568C364.625 90.8568 365.149 90.7716 365.66 90.6012C366.171 90.4186 366.688 90.1143 367.212 89.6883L369.238 92.226C368.508 92.7494 367.662 93.151 366.701 93.431C365.739 93.7109 364.796 93.8509 363.871 93.8509ZM369.238 92.226L366.043 91.7513V86.9316H369.238V92.226Z" fill="#7EB647"/>
<path d="M371.53 93.5953V80.8156H381.553V83.6089H375.108V90.802H381.79V93.5953H371.53ZM374.853 88.4652V85.7632H380.786V88.4652H374.853Z" fill="#7EB647"/>
<path d="M383.796 93.5953V80.8156H389.51C391.373 80.8156 392.803 81.2416 393.801 82.0936C394.811 82.9334 395.316 84.0836 395.316 85.5441C395.316 86.5056 395.085 87.3393 394.622 88.0453C394.16 88.739 393.503 89.2745 392.651 89.6518C391.811 90.017 390.807 90.1995 389.638 90.1995H385.804L387.411 88.6842V93.5953H383.796ZM391.701 93.5953L388.525 88.9398H392.377L395.572 93.5953H391.701ZM387.411 89.0676L385.804 87.4063H389.419C390.174 87.4063 390.734 87.242 391.099 86.9133C391.476 86.5847 391.665 86.1283 391.665 85.5441C391.665 84.9477 391.476 84.4852 391.099 84.1566C390.734 83.828 390.174 83.6637 389.419 83.6637H385.804L387.411 82.0023V89.0676Z" fill="#7EB647"/>
<path d="M395.777 93.5953L401.418 80.8156H404.978L410.638 93.5953H406.877L402.459 82.5865H403.883L399.465 93.5953H395.777ZM398.862 91.1124L399.793 88.4469H406.037L406.968 91.1124H398.862Z" fill="#7EB647"/>
<path d="M411.662 93.5953V80.8156H415.277V90.729H421.375V93.5953H411.662Z" fill="#7EB647"/>
<path d="M30.4911 182.444V166.561L58.2046 140.929C59.9573 139.249 61.2352 137.788 62.0385 136.547C62.9148 135.306 63.499 134.21 63.7911 133.261C64.0832 132.238 64.2293 131.289 64.2293 130.413C64.2293 128.514 63.6086 127.054 62.3671 126.031C61.1257 124.936 59.2635 124.388 56.7806 124.388C54.5168 124.388 52.3625 125.009 50.3178 126.25C48.273 127.419 46.6665 129.171 45.498 131.508L26 121.759C28.775 116.501 32.9375 112.229 38.4875 108.943C44.0375 105.657 50.9385 104.014 59.1905 104.014C65.2517 104.014 70.6191 105 75.2928 106.971C79.9665 108.943 83.6178 111.718 86.2467 115.296C88.8757 118.875 90.1902 123.11 90.1902 128.003C90.1902 130.486 89.8615 132.969 89.2043 135.452C88.6201 137.934 87.3786 140.563 85.48 143.338C83.5813 146.04 80.7698 149.071 77.0454 152.43L56.2329 171.381L52.1799 162.398H91.9428V182.444H30.4911Z" fill="white"/>
<path d="M131.968 184.197C125.177 184.197 119.152 182.627 113.894 179.487C108.709 176.346 104.62 171.782 101.626 165.794C98.7049 159.806 97.2443 152.576 97.2443 144.105C97.2443 135.634 98.7049 128.405 101.626 122.416C104.62 116.428 108.709 111.864 113.894 108.724C119.152 105.584 125.177 104.014 131.968 104.014C138.76 104.014 144.748 105.584 149.933 108.724C155.191 111.864 159.28 116.428 162.201 122.416C165.195 128.405 166.692 135.634 166.692 144.105C166.692 152.576 165.195 159.806 162.201 165.794C159.28 171.782 155.191 176.346 149.933 179.487C144.748 182.627 138.76 184.197 131.968 184.197ZM131.968 163.494C133.648 163.494 135.145 162.91 136.459 161.741C137.774 160.573 138.796 158.564 139.527 155.716C140.33 152.868 140.732 148.998 140.732 144.105C140.732 139.139 140.33 135.269 139.527 132.494C138.796 129.646 137.774 127.638 136.459 126.469C135.145 125.301 133.648 124.717 131.968 124.717C130.289 124.717 128.792 125.301 127.477 126.469C126.163 127.638 125.104 129.646 124.301 132.494C123.57 135.269 123.205 139.139 123.205 144.105C123.205 148.998 123.57 152.868 124.301 155.716C125.104 158.564 126.163 160.573 127.477 161.741C128.792 162.91 130.289 163.494 131.968 163.494Z" fill="white"/>
<path d="M207.812 184.197C201.02 184.197 194.996 182.627 189.738 179.487C184.553 176.346 180.463 171.782 177.469 165.794C174.548 159.806 173.088 152.576 173.088 144.105C173.088 135.634 174.548 128.405 177.469 122.416C180.463 116.428 184.553 111.864 189.738 108.724C194.996 105.584 201.02 104.014 207.812 104.014C214.603 104.014 220.591 105.584 225.776 108.724C231.034 111.864 235.124 116.428 238.045 122.416C241.039 128.405 242.536 135.634 242.536 144.105C242.536 152.576 241.039 159.806 238.045 165.794C235.124 171.782 231.034 176.346 225.776 179.487C220.591 182.627 214.603 184.197 207.812 184.197ZM207.812 163.494C209.491 163.494 210.988 162.91 212.303 161.741C213.617 160.573 214.64 158.564 215.37 155.716C216.173 152.868 216.575 148.998 216.575 144.105C216.575 139.139 216.173 135.269 215.37 132.494C214.64 129.646 213.617 127.638 212.303 126.469C210.988 125.301 209.491 124.717 207.812 124.717C206.132 124.717 204.635 125.301 203.321 126.469C202.006 127.638 200.947 129.646 200.144 132.494C199.414 135.269 199.048 139.139 199.048 144.105C199.048 148.998 199.414 152.868 200.144 155.716C200.947 158.564 202.006 160.573 203.321 161.741C204.635 162.91 206.132 163.494 207.812 163.494Z" fill="white"/>
<path d="M31.2774 226.26V193.885H40.2499L53.1999 215.021H48.4824L61.0624 193.885H70.0349L70.1274 226.26H60.1836L60.0911 208.87H61.6636L53.0611 223.346H48.2511L39.2786 208.87H41.2211V226.26H31.2774Z" fill="white"/>
<path d="M75.4046 226.26V193.885H86.3196V226.26H75.4046Z" fill="white"/>
<path d="M91.574 226.26V193.885H102.489V217.796H117.104V226.26H91.574Z" fill="white"/>
<path d="M144.16 226.26L130.47 193.885H142.217L153.364 221.219H146.38L157.85 193.885H168.58L154.89 226.26H144.16Z" fill="white"/>
<path d="M169.666 226.26V193.885H180.581V226.26H169.666Z" fill="white"/>
<path d="M197.907 227C195.193 227 192.573 226.692 190.044 226.075C187.516 225.458 185.435 224.657 183.801 223.67L187.316 215.715C188.857 216.609 190.568 217.334 192.449 217.889C194.361 218.413 196.211 218.675 197.999 218.675C199.048 218.675 199.865 218.613 200.451 218.49C201.067 218.336 201.514 218.135 201.792 217.889C202.069 217.611 202.208 217.287 202.208 216.917C202.208 216.332 201.884 215.869 201.237 215.53C200.589 215.191 199.726 214.913 198.647 214.697C197.598 214.451 196.442 214.204 195.178 213.957C193.914 213.68 192.634 213.325 191.339 212.894C190.075 212.462 188.903 211.892 187.824 211.182C186.776 210.473 185.928 209.548 185.281 208.407C184.633 207.236 184.309 205.787 184.309 204.06C184.309 202.056 184.864 200.237 185.974 198.602C187.115 196.937 188.796 195.612 191.016 194.625C193.266 193.638 196.057 193.145 199.387 193.145C201.576 193.145 203.734 193.376 205.862 193.839C207.989 194.301 209.901 195.01 211.597 195.966L208.313 203.875C206.71 203.073 205.153 202.472 203.642 202.071C202.162 201.67 200.713 201.47 199.294 201.47C198.246 201.47 197.413 201.562 196.797 201.747C196.18 201.932 195.733 202.179 195.456 202.487C195.209 202.796 195.086 203.135 195.086 203.505C195.086 204.06 195.409 204.507 196.057 204.846C196.704 205.155 197.552 205.417 198.601 205.632C199.68 205.848 200.851 206.08 202.116 206.326C203.411 206.573 204.69 206.912 205.954 207.344C207.218 207.775 208.375 208.346 209.423 209.055C210.502 209.764 211.366 210.689 212.013 211.83C212.661 212.971 212.984 214.389 212.984 216.085C212.984 218.058 212.414 219.877 211.273 221.542C210.163 223.177 208.498 224.502 206.278 225.52C204.058 226.507 201.268 227 197.907 227Z" fill="white"/>
<path d="M216.232 226.26V193.885H227.147V226.26H216.232Z" fill="white"/>
<path d="M239.432 226.26V202.349H229.95V193.885H259.828V202.349H250.347V226.26H239.432Z" fill="white"/>
<path d="M257.522 226.26L271.674 193.885H282.404L296.557 226.26H285.272L274.819 199.065H279.074L268.622 226.26H257.522ZM265.939 220.617L268.714 212.755H283.607L286.382 220.617H265.939Z" fill="white"/>
<path d="M298.299 226.26V193.885H307.271L323.736 213.587H319.574V193.885H330.211V226.26H321.239L304.774 206.557H308.936V226.26H298.299Z" fill="white"/>
<path d="M342.501 226.26V202.349H333.019V193.885H362.897V202.349H353.416V226.26H342.501Z" fill="white"/>
<path d="M365.732 226.26V193.885H392.048V202.117H376.462V218.027H392.649V226.26H365.732ZM375.722 213.772V205.91H390.152V213.772H375.722Z" fill="white"/>
<path d="M408.922 227C406.209 227 403.588 226.692 401.06 226.075C398.532 225.458 396.45 224.657 394.816 223.67L398.331 215.715C399.873 216.609 401.584 217.334 403.465 217.889C405.377 218.413 407.227 218.675 409.015 218.675C410.063 218.675 410.88 218.613 411.466 218.49C412.083 218.336 412.53 218.135 412.808 217.889C413.085 217.611 413.224 217.287 413.224 216.917C413.224 216.332 412.9 215.869 412.253 215.53C411.605 215.191 410.742 214.913 409.663 214.697C408.614 214.451 407.458 214.204 406.194 213.957C404.93 213.68 403.65 213.325 402.355 212.894C401.091 212.462 399.919 211.892 398.84 211.182C397.792 210.473 396.944 209.548 396.296 208.407C395.649 207.236 395.325 205.787 395.325 204.06C395.325 202.056 395.88 200.237 396.99 198.602C398.131 196.937 399.811 195.612 402.031 194.625C404.282 193.638 407.073 193.145 410.402 193.145C412.592 193.145 414.75 193.376 416.878 193.839C419.005 194.301 420.917 195.01 422.613 195.966L419.329 203.875C417.725 203.073 416.168 202.472 414.658 202.071C413.177 201.67 411.728 201.47 410.31 201.47C409.262 201.47 408.429 201.562 407.812 201.747C407.196 201.932 406.749 202.179 406.471 202.487C406.225 202.796 406.101 203.135 406.101 203.505C406.101 204.06 406.425 204.507 407.073 204.846C407.72 205.155 408.568 205.417 409.616 205.632C410.695 205.848 411.867 206.08 413.131 206.326C414.426 206.573 415.706 206.912 416.97 207.344C418.234 207.775 419.39 208.346 420.439 209.055C421.518 209.764 422.381 210.689 423.029 211.83C423.676 212.971 424 214.389 424 216.085C424 218.058 423.43 219.877 422.289 221.542C421.179 223.177 419.514 224.502 417.294 225.52C415.074 226.507 412.283 227 408.922 227Z" fill="white"/>
<path d="M264.76 99.6808H421.766V115.503H264.76V99.6808Z" fill="#7EB647"/>
<path d="M264.76 117.937H421.766V133.76H264.76V117.937Z" fill="#7EB647"/>
<path d="M264.76 136.194H421.766V152.016H264.76V136.194Z" fill="#7EB647"/>
<path d="M264.76 154.451H421.766V170.273H264.76V154.451Z" fill="#7EB647"/>
<path d="M264.76 172.707H421.766V188.53H264.76V172.707Z" fill="#7EB647"/>
<path d="M268.922 110.635V105.523H272.931V106.64H270.353V109.517H273.026V110.635H268.922ZM270.251 108.583V107.502H272.625V108.583H270.251Z" fill="white"/>
<path d="M273.829 110.635V105.523H275.019L277.137 108.999H276.509L278.568 105.523H279.758L279.773 110.635H278.444L278.429 107.546H278.656L277.115 110.131H276.472L274.887 107.546H275.165V110.635H273.829Z" fill="white"/>
<path d="M280.796 110.635V105.523H283.133C283.6 105.523 284.002 105.598 284.338 105.749C284.679 105.9 284.941 106.119 285.126 106.407C285.311 106.689 285.404 107.025 285.404 107.414C285.404 107.799 285.311 108.132 285.126 108.415C284.941 108.697 284.679 108.916 284.338 109.072C284.002 109.223 283.6 109.298 283.133 109.298H281.599L282.242 108.67V110.635H280.796ZM282.242 108.824L281.599 108.159H283.045C283.347 108.159 283.571 108.093 283.717 107.962C283.868 107.831 283.943 107.648 283.943 107.414C283.943 107.176 283.868 106.991 283.717 106.859C283.571 106.728 283.347 106.662 283.045 106.662H281.599L282.242 105.998V108.824Z" fill="white"/>
<path d="M286.109 110.635V105.523H288.395C289.14 105.523 289.712 105.693 290.111 106.034C290.515 106.37 290.717 106.83 290.717 107.414C290.717 107.799 290.624 108.132 290.439 108.415C290.254 108.692 289.992 108.906 289.651 109.057C289.315 109.203 288.913 109.276 288.446 109.276H286.912L287.555 108.67V110.635H286.109ZM289.271 110.635L288 108.773H289.541L290.819 110.635H289.271ZM287.555 108.824L286.912 108.159H288.358C288.66 108.159 288.884 108.093 289.03 107.962C289.181 107.831 289.256 107.648 289.256 107.414C289.256 107.176 289.181 106.991 289.03 106.859C288.884 106.728 288.66 106.662 288.358 106.662H286.912L287.555 105.998V108.824Z" fill="white"/>
<path d="M291.515 110.635V105.523H295.524V106.64H292.946V109.517H295.619V110.635H291.515ZM292.844 108.583V107.502H295.217V108.583H292.844Z" fill="white"/>
<path d="M298.218 110.737C297.799 110.737 297.395 110.686 297.005 110.584C296.621 110.477 296.307 110.34 296.063 110.175L296.538 109.109C296.767 109.255 297.03 109.376 297.327 109.474C297.629 109.566 297.928 109.612 298.225 109.612C298.424 109.612 298.585 109.595 298.707 109.561C298.829 109.522 298.916 109.474 298.97 109.415C299.028 109.352 299.057 109.279 299.057 109.196C299.057 109.079 299.004 108.987 298.897 108.919C298.79 108.85 298.651 108.795 298.48 108.751C298.31 108.707 298.12 108.663 297.911 108.619C297.706 108.575 297.499 108.519 297.29 108.451C297.086 108.383 296.898 108.295 296.728 108.188C296.557 108.076 296.419 107.933 296.312 107.758C296.204 107.577 296.151 107.351 296.151 107.078C296.151 106.772 296.234 106.494 296.399 106.246C296.57 105.998 296.823 105.798 297.159 105.647C297.495 105.496 297.913 105.421 298.415 105.421C298.751 105.421 299.079 105.46 299.401 105.538C299.727 105.611 300.016 105.72 300.27 105.866L299.824 106.94C299.581 106.808 299.34 106.711 299.101 106.648C298.863 106.579 298.631 106.545 298.407 106.545C298.208 106.545 298.047 106.567 297.925 106.611C297.804 106.65 297.716 106.704 297.663 106.772C297.609 106.84 297.582 106.918 297.582 107.005C297.582 107.117 297.633 107.207 297.736 107.276C297.843 107.339 297.981 107.392 298.152 107.436C298.327 107.475 298.517 107.517 298.721 107.56C298.931 107.604 299.138 107.66 299.342 107.728C299.552 107.792 299.741 107.879 299.912 107.991C300.082 108.098 300.219 108.242 300.321 108.422C300.428 108.597 300.481 108.819 300.481 109.087C300.481 109.384 300.396 109.659 300.226 109.912C300.06 110.16 299.81 110.36 299.474 110.511C299.143 110.662 298.724 110.737 298.218 110.737Z" fill="white"/>
<path d="M300.536 110.635L302.792 105.523H304.216L306.48 110.635H304.976L303.209 106.231H303.778L302.011 110.635H300.536ZM301.77 109.642L302.142 108.575H304.64L305.012 109.642H301.77ZM302.792 105.107L303.771 103.997H305.158L303.786 105.107H302.792Z" fill="white"/>
<path d="M306.89 110.635V105.523H309.176C309.921 105.523 310.493 105.693 310.892 106.034C311.296 106.37 311.498 106.83 311.498 107.414C311.498 107.799 311.406 108.132 311.221 108.415C311.036 108.692 310.773 108.906 310.432 109.057C310.096 109.203 309.694 109.276 309.227 109.276H307.693L308.336 108.67V110.635H306.89ZM310.052 110.635L308.781 108.773H310.322L311.6 110.635H310.052ZM308.336 108.824L307.693 108.159H309.139C309.441 108.159 309.665 108.093 309.811 107.962C309.962 107.831 310.038 107.648 310.038 107.414C310.038 107.176 309.962 106.991 309.811 106.859C309.665 106.728 309.441 106.662 309.139 106.662H307.693L308.336 105.998V108.824Z" fill="white"/>
<path d="M312.296 110.635V105.523H313.742V110.635H312.296Z" fill="white"/>
<path d="M317.348 110.737C316.939 110.737 316.562 110.671 316.216 110.54C315.871 110.408 315.569 110.223 315.311 109.985C315.058 109.741 314.86 109.459 314.719 109.138C314.578 108.816 314.508 108.463 314.508 108.079C314.508 107.694 314.578 107.341 314.719 107.02C314.86 106.699 315.058 106.419 315.311 106.18C315.569 105.937 315.871 105.749 316.216 105.618C316.562 105.486 316.939 105.421 317.348 105.421C317.762 105.421 318.139 105.486 318.48 105.618C318.826 105.749 319.125 105.937 319.378 106.18C319.632 106.419 319.829 106.699 319.97 107.02C320.116 107.341 320.189 107.694 320.189 108.079C320.189 108.463 320.116 108.819 319.97 109.145C319.829 109.466 319.632 109.746 319.378 109.985C319.125 110.223 318.826 110.408 318.48 110.54C318.139 110.671 317.762 110.737 317.348 110.737ZM317.348 109.539C317.543 109.539 317.723 109.505 317.889 109.437C318.059 109.369 318.205 109.272 318.327 109.145C318.453 109.014 318.551 108.858 318.619 108.678C318.692 108.498 318.728 108.298 318.728 108.079C318.728 107.855 318.692 107.655 318.619 107.48C318.551 107.3 318.453 107.147 318.327 107.02C318.205 106.889 318.059 106.789 317.889 106.721C317.723 106.652 317.543 106.618 317.348 106.618C317.154 106.618 316.971 106.652 316.801 106.721C316.635 106.789 316.489 106.889 316.362 107.02C316.241 107.147 316.143 107.3 316.07 107.48C316.002 107.655 315.968 107.855 315.968 108.079C315.968 108.298 316.002 108.498 316.07 108.678C316.143 108.858 316.241 109.014 316.362 109.145C316.489 109.272 316.635 109.369 316.801 109.437C316.971 109.505 317.154 109.539 317.348 109.539Z" fill="white"/>
<path d="M322.743 110.737C322.324 110.737 321.92 110.686 321.53 110.584C321.146 110.477 320.832 110.34 320.588 110.175L321.063 109.109C321.292 109.255 321.555 109.376 321.852 109.474C322.154 109.566 322.453 109.612 322.75 109.612C322.95 109.612 323.11 109.595 323.232 109.561C323.354 109.522 323.441 109.474 323.495 109.415C323.553 109.352 323.583 109.279 323.583 109.196C323.583 109.079 323.529 108.987 323.422 108.919C323.315 108.85 323.176 108.795 323.006 108.751C322.835 108.707 322.645 108.663 322.436 108.619C322.232 108.575 322.025 108.519 321.815 108.451C321.611 108.383 321.423 108.295 321.253 108.188C321.083 108.076 320.944 107.933 320.837 107.758C320.73 107.577 320.676 107.351 320.676 107.078C320.676 106.772 320.759 106.494 320.924 106.246C321.095 105.998 321.348 105.798 321.684 105.647C322.02 105.496 322.438 105.421 322.94 105.421C323.276 105.421 323.604 105.46 323.926 105.538C324.252 105.611 324.542 105.72 324.795 105.866L324.349 106.94C324.106 106.808 323.865 106.711 323.626 106.648C323.388 106.579 323.157 106.545 322.933 106.545C322.733 106.545 322.572 106.567 322.451 106.611C322.329 106.65 322.241 106.704 322.188 106.772C322.134 106.84 322.107 106.918 322.107 107.005C322.107 107.117 322.159 107.207 322.261 107.276C322.368 107.339 322.507 107.392 322.677 107.436C322.852 107.475 323.042 107.517 323.247 107.56C323.456 107.604 323.663 107.66 323.867 107.728C324.077 107.792 324.267 107.879 324.437 107.991C324.607 108.098 324.744 108.242 324.846 108.422C324.953 108.597 325.007 108.819 325.007 109.087C325.007 109.384 324.921 109.659 324.751 109.912C324.585 110.16 324.335 110.36 323.999 110.511C323.668 110.662 323.249 110.737 322.743 110.737Z" fill="white"/>
<path d="M325.598 111.781L326.146 109.883L326.343 110.671C326.099 110.671 325.9 110.601 325.744 110.46C325.588 110.313 325.51 110.119 325.51 109.875C325.51 109.622 325.588 109.423 325.744 109.276C325.905 109.13 326.104 109.057 326.343 109.057C326.581 109.057 326.779 109.133 326.934 109.284C327.09 109.43 327.168 109.627 327.168 109.875C327.168 109.943 327.163 110.012 327.153 110.08C327.144 110.148 327.122 110.231 327.088 110.328C327.054 110.425 327 110.554 326.927 110.715L326.467 111.781H325.598Z" fill="white"/>
<path d="M329.397 110.635L331.653 105.523H333.077L335.341 110.635H333.837L332.07 106.231H332.639L330.872 110.635H329.397ZM330.631 109.642L331.004 108.575H333.501L333.873 109.642H330.631Z" fill="white"/>
<path d="M338.236 110.737C337.832 110.737 337.457 110.674 337.111 110.547C336.766 110.416 336.466 110.231 336.213 109.992C335.965 109.754 335.77 109.474 335.629 109.152C335.488 108.826 335.417 108.468 335.417 108.079C335.417 107.689 335.488 107.334 335.629 107.013C335.77 106.686 335.967 106.404 336.22 106.166C336.473 105.927 336.773 105.744 337.119 105.618C337.469 105.486 337.851 105.421 338.265 105.421C338.747 105.421 339.178 105.501 339.558 105.662C339.937 105.822 340.251 106.054 340.5 106.355L339.58 107.188C339.404 106.998 339.214 106.857 339.01 106.764C338.81 106.667 338.586 106.618 338.338 106.618C338.119 106.618 337.919 106.652 337.739 106.721C337.559 106.789 337.406 106.889 337.279 107.02C337.153 107.147 337.053 107.3 336.98 107.48C336.912 107.655 336.878 107.855 336.878 108.079C336.878 108.293 336.912 108.49 336.98 108.67C337.053 108.85 337.153 109.006 337.279 109.138C337.406 109.264 337.557 109.364 337.732 109.437C337.912 109.505 338.109 109.539 338.323 109.539C338.538 109.539 338.747 109.505 338.952 109.437C339.156 109.364 339.363 109.242 339.572 109.072L340.383 110.087C340.091 110.296 339.752 110.457 339.368 110.569C338.983 110.681 338.606 110.737 338.236 110.737ZM340.383 110.087L339.105 109.897V107.969H340.383V110.087Z" fill="white"/>
<path d="M341.299 110.635V105.523H343.585C344.33 105.523 344.902 105.693 345.301 106.034C345.705 106.37 345.908 106.83 345.908 107.414C345.908 107.799 345.815 108.132 345.63 108.415C345.445 108.692 345.182 108.906 344.841 109.057C344.505 109.203 344.104 109.276 343.636 109.276H342.103L342.745 108.67V110.635H341.299ZM344.462 110.635L343.191 108.773H344.732L346.01 110.635H344.462ZM342.745 108.824L342.103 108.159H343.549C343.851 108.159 344.074 108.093 344.221 107.962C344.371 107.831 344.447 107.648 344.447 107.414C344.447 107.176 344.371 106.991 344.221 106.859C344.074 106.728 343.851 106.662 343.549 106.662H342.103L342.745 105.998V108.824Z" fill="white"/>
<path d="M346.705 110.635V105.523H348.151V110.635H346.705Z" fill="white"/>
<path d="M351.728 110.737C351.324 110.737 350.949 110.674 350.604 110.547C350.263 110.416 349.966 110.231 349.713 109.992C349.465 109.754 349.27 109.474 349.129 109.152C348.988 108.826 348.917 108.468 348.917 108.079C348.917 107.689 348.988 107.334 349.129 107.013C349.27 106.686 349.465 106.404 349.713 106.166C349.966 105.927 350.263 105.744 350.604 105.618C350.949 105.486 351.324 105.421 351.728 105.421C352.201 105.421 352.622 105.503 352.992 105.669C353.367 105.834 353.678 106.073 353.927 106.385L353.006 107.217C352.841 107.022 352.658 106.874 352.459 106.772C352.264 106.669 352.045 106.618 351.801 106.618C351.592 106.618 351.4 106.652 351.225 106.721C351.049 106.789 350.898 106.889 350.772 107.02C350.65 107.147 350.553 107.3 350.48 107.48C350.411 107.66 350.377 107.86 350.377 108.079C350.377 108.298 350.411 108.498 350.48 108.678C350.553 108.858 350.65 109.014 350.772 109.145C350.898 109.272 351.049 109.369 351.225 109.437C351.4 109.505 351.592 109.539 351.801 109.539C352.045 109.539 352.264 109.488 352.459 109.386C352.658 109.284 352.841 109.135 353.006 108.941L353.927 109.773C353.678 110.08 353.367 110.318 352.992 110.489C352.622 110.654 352.201 110.737 351.728 110.737Z" fill="white"/>
<path d="M356.823 110.737C356.068 110.737 355.479 110.53 355.056 110.116C354.632 109.702 354.42 109.116 354.42 108.356V105.523H355.866V108.313C355.866 108.751 355.952 109.065 356.122 109.255C356.297 109.444 356.536 109.539 356.838 109.539C357.139 109.539 357.376 109.444 357.546 109.255C357.716 109.065 357.802 108.751 357.802 108.313V105.523H359.226V108.356C359.226 109.116 359.014 109.702 358.59 110.116C358.167 110.53 357.578 110.737 356.823 110.737Z" fill="white"/>
<path d="M360.205 110.635V105.523H361.651V109.488H364.09V110.635H360.205Z" fill="white"/>
<path d="M365.201 110.635V106.669H363.631V105.523H368.21V106.669H366.647V110.635H365.201Z" fill="white"/>
<path d="M371.255 110.737C370.846 110.737 370.469 110.671 370.123 110.54C369.778 110.408 369.476 110.223 369.218 109.985C368.965 109.741 368.767 109.459 368.626 109.138C368.485 108.816 368.414 108.463 368.414 108.079C368.414 107.694 368.485 107.341 368.626 107.02C368.767 106.699 368.965 106.419 369.218 106.18C369.476 105.937 369.778 105.749 370.123 105.618C370.469 105.486 370.846 105.421 371.255 105.421C371.669 105.421 372.046 105.486 372.387 105.618C372.733 105.749 373.032 105.937 373.285 106.18C373.538 106.419 373.736 106.699 373.877 107.02C374.023 107.341 374.096 107.694 374.096 108.079C374.096 108.463 374.023 108.819 373.877 109.145C373.736 109.466 373.538 109.746 373.285 109.985C373.032 110.223 372.733 110.408 372.387 110.54C372.046 110.671 371.669 110.737 371.255 110.737ZM371.255 109.539C371.45 109.539 371.63 109.505 371.796 109.437C371.966 109.369 372.112 109.272 372.234 109.145C372.36 109.014 372.458 108.858 372.526 108.678C372.599 108.498 372.635 108.298 372.635 108.079C372.635 107.855 372.599 107.655 372.526 107.48C372.458 107.3 372.36 107.147 372.234 107.02C372.112 106.889 371.966 106.789 371.796 106.721C371.63 106.652 371.45 106.618 371.255 106.618C371.06 106.618 370.878 106.652 370.707 106.721C370.542 106.789 370.396 106.889 370.269 107.02C370.148 107.147 370.05 107.3 369.977 107.48C369.909 107.655 369.875 107.855 369.875 108.079C369.875 108.298 369.909 108.498 369.977 108.678C370.05 108.858 370.148 109.014 370.269 109.145C370.396 109.272 370.542 109.369 370.707 109.437C370.878 109.505 371.06 109.539 371.255 109.539Z" fill="white"/>
<path d="M374.853 110.635V105.523H377.139C377.884 105.523 378.456 105.693 378.855 106.034C379.259 106.37 379.461 106.83 379.461 107.414C379.461 107.799 379.369 108.132 379.184 108.415C378.999 108.692 378.736 108.906 378.395 109.057C378.059 109.203 377.657 109.276 377.19 109.276H375.656L376.299 108.67V110.635H374.853ZM378.015 110.635L376.745 108.773H378.285L379.563 110.635H378.015ZM376.299 108.824L375.656 108.159H377.102C377.404 108.159 377.628 108.093 377.774 107.962C377.925 107.831 378.001 107.648 378.001 107.414C378.001 107.176 377.925 106.991 377.774 106.859C377.628 106.728 377.404 106.662 377.102 106.662H375.656L376.299 105.998V108.824Z" fill="white"/>
<path d="M380.259 110.635V105.523H384.268V106.64H381.69V109.517H384.363V110.635H380.259ZM381.588 108.583V107.502H383.961V108.583H381.588Z" fill="white"/>
<path d="M386.962 110.737C386.543 110.737 386.139 110.686 385.749 110.584C385.365 110.477 385.051 110.34 384.807 110.175L385.282 109.109C385.511 109.255 385.774 109.376 386.071 109.474C386.373 109.566 386.672 109.612 386.969 109.612C387.169 109.612 387.329 109.595 387.451 109.561C387.573 109.522 387.66 109.474 387.714 109.415C387.772 109.352 387.802 109.279 387.802 109.196C387.802 109.079 387.748 108.987 387.641 108.919C387.534 108.85 387.395 108.795 387.225 108.751C387.054 108.707 386.864 108.663 386.655 108.619C386.451 108.575 386.244 108.519 386.034 108.451C385.83 108.383 385.642 108.295 385.472 108.188C385.302 108.076 385.163 107.933 385.056 107.758C384.949 107.577 384.895 107.351 384.895 107.078C384.895 106.772 384.978 106.494 385.143 106.246C385.314 105.998 385.567 105.798 385.903 105.647C386.239 105.496 386.657 105.421 387.159 105.421C387.495 105.421 387.823 105.46 388.145 105.538C388.471 105.611 388.761 105.72 389.014 105.866L388.568 106.94C388.325 106.808 388.084 106.711 387.845 106.648C387.607 106.579 387.375 106.545 387.152 106.545C386.952 106.545 386.791 106.567 386.67 106.611C386.548 106.65 386.46 106.704 386.407 106.772C386.353 106.84 386.326 106.918 386.326 107.005C386.326 107.117 386.378 107.207 386.48 107.276C386.587 107.339 386.726 107.392 386.896 107.436C387.071 107.475 387.261 107.517 387.466 107.56C387.675 107.604 387.882 107.66 388.086 107.728C388.296 107.792 388.486 107.879 388.656 107.991C388.826 108.098 388.963 108.242 389.065 108.422C389.172 108.597 389.225 108.819 389.225 109.087C389.225 109.384 389.14 109.659 388.97 109.912C388.804 110.16 388.554 110.36 388.218 110.511C387.887 110.662 387.468 110.737 386.962 110.737Z" fill="white"/>
<path d="M267.705 128.891V123.78H270.042C270.509 123.78 270.911 123.855 271.247 124.006C271.588 124.157 271.85 124.376 272.035 124.663C272.22 124.946 272.313 125.281 272.313 125.671C272.313 126.056 272.22 126.389 272.035 126.671C271.85 126.954 271.588 127.173 271.247 127.329C270.911 127.48 270.509 127.555 270.042 127.555H268.508L269.151 126.927V128.891H267.705ZM269.151 127.08L268.508 126.416H269.954C270.256 126.416 270.48 126.35 270.626 126.219C270.777 126.087 270.852 125.905 270.852 125.671C270.852 125.432 270.777 125.247 270.626 125.116C270.48 124.984 270.256 124.919 269.954 124.919H268.508L269.151 124.254V127.08Z" fill="white"/>
<path d="M273.018 128.891V123.78H277.027V124.897H274.449V127.774H277.122V128.891H273.018ZM274.347 126.839V125.759H276.72V126.839H274.347Z" fill="white"/>
<path d="M280.473 128.994C280.069 128.994 279.694 128.93 279.348 128.804C279.008 128.672 278.711 128.487 278.458 128.249C278.209 128.01 278.015 127.73 277.873 127.409C277.732 127.083 277.662 126.725 277.662 126.335C277.662 125.946 277.732 125.591 277.873 125.269C278.015 124.943 278.209 124.661 278.458 124.422C278.711 124.184 279.008 124.001 279.348 123.874C279.694 123.743 280.069 123.677 280.473 123.677C280.945 123.677 281.366 123.76 281.736 123.926C282.111 124.091 282.423 124.33 282.671 124.641L281.751 125.474C281.585 125.279 281.403 125.131 281.203 125.028C281.009 124.926 280.79 124.875 280.546 124.875C280.337 124.875 280.144 124.909 279.969 124.977C279.794 125.045 279.643 125.145 279.516 125.277C279.395 125.403 279.297 125.557 279.224 125.737C279.156 125.917 279.122 126.116 279.122 126.335C279.122 126.555 279.156 126.754 279.224 126.934C279.297 127.114 279.395 127.27 279.516 127.402C279.643 127.528 279.794 127.626 279.969 127.694C280.144 127.762 280.337 127.796 280.546 127.796C280.79 127.796 281.009 127.745 281.203 127.643C281.403 127.54 281.585 127.392 281.751 127.197L282.671 128.03C282.423 128.336 282.111 128.575 281.736 128.745C281.366 128.911 280.945 128.994 280.473 128.994Z" fill="white"/>
<path d="M285.568 128.994C284.813 128.994 284.224 128.787 283.8 128.373C283.377 127.959 283.165 127.372 283.165 126.613V123.78H284.611V126.569C284.611 127.007 284.696 127.321 284.867 127.511C285.042 127.701 285.28 127.796 285.582 127.796C285.884 127.796 286.12 127.701 286.291 127.511C286.461 127.321 286.546 127.007 286.546 126.569V123.78H287.97V126.613C287.97 127.372 287.758 127.959 287.335 128.373C286.911 128.787 286.322 128.994 285.568 128.994Z" fill="white"/>
<path d="M288.229 128.891L290.486 123.78H291.91L294.174 128.891H292.669L290.902 124.488H291.472L289.704 128.891H288.229ZM289.463 127.898L289.836 126.832H292.333L292.706 127.898H289.463Z" fill="white"/>
<path d="M294.584 128.891V123.78H296.869C297.614 123.78 298.186 123.95 298.585 124.291C298.99 124.627 299.192 125.087 299.192 125.671C299.192 126.056 299.099 126.389 298.914 126.671C298.729 126.949 298.466 127.163 298.125 127.314C297.789 127.46 297.388 127.533 296.92 127.533H295.387L296.03 126.927V128.891H294.584ZM297.746 128.891L296.475 127.029H298.016L299.294 128.891H297.746ZM296.03 127.08L295.387 126.416H296.833C297.135 126.416 297.359 126.35 297.505 126.219C297.656 126.087 297.731 125.905 297.731 125.671C297.731 125.432 297.656 125.247 297.505 125.116C297.359 124.984 297.135 124.919 296.833 124.919H295.387L296.03 124.254V127.08Z" fill="white"/>
<path d="M299.989 128.891V123.78H301.435V128.891H299.989Z" fill="white"/>
<path d="M304.26 128.994C303.842 128.994 303.438 128.943 303.048 128.84C302.663 128.733 302.349 128.597 302.106 128.431L302.581 127.365C302.81 127.511 303.072 127.633 303.369 127.73C303.671 127.823 303.971 127.869 304.268 127.869C304.467 127.869 304.628 127.852 304.75 127.818C304.871 127.779 304.959 127.73 305.012 127.672C305.071 127.609 305.1 127.536 305.1 127.453C305.1 127.336 305.047 127.243 304.939 127.175C304.832 127.107 304.694 127.051 304.523 127.007C304.353 126.963 304.163 126.92 303.954 126.876C303.749 126.832 303.542 126.776 303.333 126.708C303.128 126.64 302.941 126.552 302.771 126.445C302.6 126.333 302.461 126.189 302.354 126.014C302.247 125.834 302.194 125.608 302.194 125.335C302.194 125.028 302.276 124.751 302.442 124.502C302.612 124.254 302.866 124.055 303.201 123.904C303.537 123.753 303.956 123.677 304.457 123.677C304.793 123.677 305.122 123.716 305.443 123.794C305.77 123.867 306.059 123.977 306.312 124.123L305.867 125.196C305.623 125.065 305.382 124.967 305.144 124.904C304.905 124.836 304.674 124.802 304.45 124.802C304.251 124.802 304.09 124.824 303.968 124.868C303.846 124.907 303.759 124.96 303.705 125.028C303.652 125.096 303.625 125.174 303.625 125.262C303.625 125.374 303.676 125.464 303.778 125.532C303.885 125.595 304.024 125.649 304.195 125.693C304.37 125.732 304.56 125.773 304.764 125.817C304.974 125.861 305.18 125.917 305.385 125.985C305.594 126.048 305.784 126.136 305.955 126.248C306.125 126.355 306.261 126.499 306.363 126.679C306.471 126.854 306.524 127.075 306.524 127.343C306.524 127.64 306.439 127.915 306.269 128.168C306.103 128.417 305.852 128.616 305.516 128.767C305.185 128.918 304.767 128.994 304.26 128.994Z" fill="white"/>
<path d="M308.209 128.891V124.926H306.639V123.78H311.217V124.926H309.655V128.891H308.209Z" fill="white"/>
<path d="M310.886 128.891L313.143 123.78H314.567L316.83 128.891H315.326L313.559 124.488H314.128L312.361 128.891H310.886ZM312.12 127.898L312.493 126.832H314.99L315.363 127.898H312.12Z" fill="white"/>
<path d="M319.037 128.994C318.618 128.994 318.214 128.943 317.824 128.84C317.44 128.733 317.126 128.597 316.882 128.431L317.357 127.365C317.586 127.511 317.849 127.633 318.146 127.73C318.448 127.823 318.747 127.869 319.044 127.869C319.244 127.869 319.404 127.852 319.526 127.818C319.648 127.779 319.735 127.73 319.789 127.672C319.847 127.609 319.877 127.536 319.877 127.453C319.877 127.336 319.823 127.243 319.716 127.175C319.609 127.107 319.47 127.051 319.3 127.007C319.129 126.963 318.939 126.92 318.73 126.876C318.526 126.832 318.319 126.776 318.109 126.708C317.905 126.64 317.717 126.552 317.547 126.445C317.377 126.333 317.238 126.189 317.131 126.014C317.024 125.834 316.97 125.608 316.97 125.335C316.97 125.028 317.053 124.751 317.218 124.502C317.389 124.254 317.642 124.055 317.978 123.904C318.314 123.753 318.732 123.677 319.234 123.677C319.57 123.677 319.898 123.716 320.22 123.794C320.546 123.867 320.836 123.977 321.089 124.123L320.643 125.196C320.4 125.065 320.159 124.967 319.92 124.904C319.682 124.836 319.451 124.802 319.227 124.802C319.027 124.802 318.866 124.824 318.745 124.868C318.623 124.907 318.535 124.96 318.482 125.028C318.428 125.096 318.401 125.174 318.401 125.262C318.401 125.374 318.453 125.464 318.555 125.532C318.662 125.595 318.801 125.649 318.971 125.693C319.146 125.732 319.336 125.773 319.541 125.817C319.75 125.861 319.957 125.917 320.161 125.985C320.371 126.048 320.561 126.136 320.731 126.248C320.901 126.355 321.038 126.499 321.14 126.679C321.247 126.854 321.301 127.075 321.301 127.343C321.301 127.64 321.215 127.915 321.045 128.168C320.879 128.417 320.629 128.616 320.293 128.767C319.962 128.918 319.543 128.994 319.037 128.994Z" fill="white"/>
<path d="M321.892 130.038L322.44 128.139L322.637 128.928C322.393 128.928 322.194 128.857 322.038 128.716C321.882 128.57 321.804 128.375 321.804 128.132C321.804 127.879 321.882 127.679 322.038 127.533C322.199 127.387 322.398 127.314 322.637 127.314C322.875 127.314 323.073 127.389 323.228 127.54C323.384 127.686 323.462 127.884 323.462 128.132C323.462 128.2 323.457 128.268 323.447 128.336C323.438 128.405 323.416 128.487 323.382 128.585C323.348 128.682 323.294 128.811 323.221 128.972L322.761 130.038H321.892Z" fill="white"/>
<path d="M326.304 128.891V123.78H327.75V128.891H326.304Z" fill="white"/>
<path d="M328.779 128.891V123.78H329.969L332.788 127.183H332.226V123.78H333.643V128.891H332.452L329.633 125.488H330.196V128.891H328.779Z" fill="white"/>
<path d="M334.662 128.891V123.78H337.08C337.644 123.78 338.141 123.884 338.569 124.094C338.998 124.303 339.331 124.597 339.57 124.977C339.813 125.357 339.935 125.81 339.935 126.335C339.935 126.856 339.813 127.309 339.57 127.694C339.331 128.073 338.998 128.368 338.569 128.577C338.141 128.787 337.644 128.891 337.08 128.891H334.662ZM336.108 127.738H337.021C337.313 127.738 337.567 127.684 337.781 127.577C338 127.465 338.17 127.304 338.292 127.095C338.414 126.881 338.474 126.628 338.474 126.335C338.474 126.038 338.414 125.785 338.292 125.576C338.17 125.367 338 125.208 337.781 125.101C337.567 124.989 337.313 124.933 337.021 124.933H336.108V127.738Z" fill="white"/>
<path d="M343.054 128.994C342.3 128.994 341.711 128.787 341.287 128.373C340.864 127.959 340.652 127.372 340.652 126.613V123.78H342.098V126.569C342.098 127.007 342.183 127.321 342.353 127.511C342.529 127.701 342.767 127.796 343.069 127.796C343.371 127.796 343.607 127.701 343.777 127.511C343.948 127.321 344.033 127.007 344.033 126.569V123.78H345.457V126.613C345.457 127.372 345.245 127.959 344.822 128.373C344.398 128.787 343.809 128.994 343.054 128.994Z" fill="white"/>
<path d="M348.233 128.994C347.814 128.994 347.41 128.943 347.021 128.84C346.636 128.733 346.322 128.597 346.079 128.431L346.553 127.365C346.782 127.511 347.045 127.633 347.342 127.73C347.644 127.823 347.943 127.869 348.24 127.869C348.44 127.869 348.601 127.852 348.722 127.818C348.844 127.779 348.932 127.73 348.985 127.672C349.044 127.609 349.073 127.536 349.073 127.453C349.073 127.336 349.019 127.243 348.912 127.175C348.805 127.107 348.666 127.051 348.496 127.007C348.326 126.963 348.136 126.92 347.926 126.876C347.722 126.832 347.515 126.776 347.306 126.708C347.101 126.64 346.914 126.552 346.743 126.445C346.573 126.333 346.434 126.189 346.327 126.014C346.22 125.834 346.166 125.608 346.166 125.335C346.166 125.028 346.249 124.751 346.415 124.502C346.585 124.254 346.838 124.055 347.174 123.904C347.51 123.753 347.929 123.677 348.43 123.677C348.766 123.677 349.095 123.716 349.416 123.794C349.742 123.867 350.032 123.977 350.285 124.123L349.84 125.196C349.596 125.065 349.355 124.967 349.117 124.904C348.878 124.836 348.647 124.802 348.423 124.802C348.223 124.802 348.063 124.824 347.941 124.868C347.819 124.907 347.732 124.96 347.678 125.028C347.624 125.096 347.598 125.174 347.598 125.262C347.598 125.374 347.649 125.464 347.751 125.532C347.858 125.595 347.997 125.649 348.167 125.693C348.343 125.732 348.532 125.773 348.737 125.817C348.946 125.861 349.153 125.917 349.358 125.985C349.567 126.048 349.757 126.136 349.927 126.248C350.098 126.355 350.234 126.499 350.336 126.679C350.443 126.854 350.497 127.075 350.497 127.343C350.497 127.64 350.412 127.915 350.241 128.168C350.076 128.417 349.825 128.616 349.489 128.767C349.158 128.918 348.739 128.994 348.233 128.994Z" fill="white"/>
<path d="M352.182 128.891V124.926H350.611V123.78H355.19V124.926H353.627V128.891H352.182Z" fill="white"/>
<path d="M355.729 128.891V123.78H358.015C358.759 123.78 359.332 123.95 359.731 124.291C360.135 124.627 360.337 125.087 360.337 125.671C360.337 126.056 360.244 126.389 360.059 126.671C359.874 126.949 359.611 127.163 359.271 127.314C358.935 127.46 358.533 127.533 358.066 127.533H356.532L357.175 126.927V128.891H355.729ZM358.891 128.891L357.62 127.029H359.161L360.439 128.891H358.891ZM357.175 127.08L356.532 126.416H357.978C358.28 126.416 358.504 126.35 358.65 126.219C358.801 126.087 358.876 125.905 358.876 125.671C358.876 125.432 358.801 125.247 358.65 125.116C358.504 124.984 358.28 124.919 357.978 124.919H356.532L357.175 124.254V127.08Z" fill="white"/>
<path d="M361.135 128.891V123.78H362.58V128.891H361.135Z" fill="white"/>
<path d="M362.996 128.891L365.252 123.78H366.676L368.94 128.891H367.436L365.669 124.488H366.238L364.471 128.891H362.996ZM364.23 127.898L364.602 126.832H367.1L367.472 127.898H364.23Z" fill="white"/>
<path d="M371.146 128.994C370.728 128.994 370.324 128.943 369.934 128.84C369.55 128.733 369.236 128.597 368.992 128.431L369.467 127.365C369.696 127.511 369.959 127.633 370.256 127.73C370.557 127.823 370.857 127.869 371.154 127.869C371.353 127.869 371.514 127.852 371.636 127.818C371.757 127.779 371.845 127.73 371.899 127.672C371.957 127.609 371.986 127.536 371.986 127.453C371.986 127.336 371.933 127.243 371.826 127.175C371.718 127.107 371.58 127.051 371.409 127.007C371.239 126.963 371.049 126.92 370.84 126.876C370.635 126.832 370.428 126.776 370.219 126.708C370.015 126.64 369.827 126.552 369.657 126.445C369.486 126.333 369.348 126.189 369.24 126.014C369.133 125.834 369.08 125.608 369.08 125.335C369.08 125.028 369.163 124.751 369.328 124.502C369.498 124.254 369.752 124.055 370.088 123.904C370.423 123.753 370.842 123.677 371.344 123.677C371.68 123.677 372.008 123.716 372.329 123.794C372.656 123.867 372.945 123.977 373.199 124.123L372.753 125.196C372.51 125.065 372.269 124.967 372.03 124.904C371.792 124.836 371.56 124.802 371.336 124.802C371.137 124.802 370.976 124.824 370.854 124.868C370.733 124.907 370.645 124.96 370.591 125.028C370.538 125.096 370.511 125.174 370.511 125.262C370.511 125.374 370.562 125.464 370.664 125.532C370.772 125.595 370.91 125.649 371.081 125.693C371.256 125.732 371.446 125.773 371.65 125.817C371.86 125.861 372.067 125.917 372.271 125.985C372.48 126.048 372.67 126.136 372.841 126.248C373.011 126.355 373.147 126.499 373.25 126.679C373.357 126.854 373.41 127.075 373.41 127.343C373.41 127.64 373.325 127.915 373.155 128.168C372.989 128.417 372.738 128.616 372.402 128.767C372.071 128.918 371.653 128.994 371.146 128.994Z" fill="white"/>
<path d="M374.002 130.038L374.549 128.139L374.747 128.928C374.503 128.928 374.304 128.857 374.148 128.716C373.992 128.57 373.914 128.375 373.914 128.132C373.914 127.879 373.992 127.679 374.148 127.533C374.308 127.387 374.508 127.314 374.747 127.314C374.985 127.314 375.182 127.389 375.338 127.54C375.494 127.686 375.572 127.884 375.572 128.132C375.572 128.2 375.567 128.268 375.557 128.336C375.547 128.405 375.526 128.487 375.491 128.585C375.457 128.682 375.404 128.811 375.331 128.972L374.871 130.038H374.002Z" fill="white"/>
<path d="M378.414 128.891V123.78H380.751C381.218 123.78 381.62 123.855 381.956 124.006C382.297 124.157 382.56 124.376 382.745 124.663C382.93 124.946 383.022 125.281 383.022 125.671C383.022 126.056 382.93 126.389 382.745 126.671C382.56 126.954 382.297 127.173 381.956 127.329C381.62 127.48 381.218 127.555 380.751 127.555H379.217L379.86 126.927V128.891H378.414ZM379.86 127.08L379.217 126.416H380.663C380.965 126.416 381.189 126.35 381.335 126.219C381.486 126.087 381.562 125.905 381.562 125.671C381.562 125.432 381.486 125.247 381.335 125.116C381.189 124.984 380.965 124.919 380.663 124.919H379.217L379.86 124.254V127.08Z" fill="white"/>
<path d="M386.376 128.994C385.967 128.994 385.59 128.928 385.244 128.796C384.899 128.665 384.597 128.48 384.339 128.241C384.086 127.998 383.888 127.716 383.747 127.394C383.606 127.073 383.535 126.72 383.535 126.335C383.535 125.951 383.606 125.598 383.747 125.277C383.888 124.955 384.086 124.675 384.339 124.437C384.597 124.193 384.899 124.006 385.244 123.874C385.59 123.743 385.967 123.677 386.376 123.677C386.79 123.677 387.167 123.743 387.508 123.874C387.854 124.006 388.153 124.193 388.406 124.437C388.659 124.675 388.857 124.955 388.998 125.277C389.144 125.598 389.217 125.951 389.217 126.335C389.217 126.72 389.144 127.075 388.998 127.402C388.857 127.723 388.659 128.003 388.406 128.241C388.153 128.48 387.854 128.665 387.508 128.796C387.167 128.928 386.79 128.994 386.376 128.994ZM386.376 127.796C386.571 127.796 386.751 127.762 386.917 127.694C387.087 127.626 387.233 127.528 387.355 127.402C387.481 127.27 387.579 127.114 387.647 126.934C387.72 126.754 387.756 126.555 387.756 126.335C387.756 126.112 387.72 125.912 387.647 125.737C387.579 125.557 387.481 125.403 387.355 125.277C387.233 125.145 387.087 125.045 386.917 124.977C386.751 124.909 386.571 124.875 386.376 124.875C386.181 124.875 385.999 124.909 385.828 124.977C385.663 125.045 385.517 125.145 385.39 125.277C385.269 125.403 385.171 125.557 385.098 125.737C385.03 125.912 384.996 126.112 384.996 126.335C384.996 126.555 385.03 126.754 385.098 126.934C385.171 127.114 385.269 127.27 385.39 127.402C385.517 127.528 385.663 127.626 385.828 127.694C385.999 127.762 386.181 127.796 386.376 127.796Z" fill="white"/>
<path d="M389.974 128.891V123.78H391.42V127.745H393.859V128.891H389.974Z" fill="white"/>
<path d="M394.431 128.891V123.78H395.877V128.891H394.431ZM394.439 123.363L395.417 122.253H396.805L395.432 123.363H394.439Z" fill="white"/>
<path d="M397.994 128.891V124.926H396.424V123.78H401.003V124.926H399.44V128.891H397.994Z" fill="white"/>
<path d="M401.542 128.891V123.78H402.987V128.891H401.542Z" fill="white"/>
<path d="M406.565 128.994C406.161 128.994 405.786 128.93 405.44 128.804C405.099 128.672 404.802 128.487 404.549 128.249C404.301 128.01 404.106 127.73 403.965 127.409C403.824 127.083 403.753 126.725 403.753 126.335C403.753 125.946 403.824 125.591 403.965 125.269C404.106 124.943 404.301 124.661 404.549 124.422C404.802 124.184 405.099 124.001 405.44 123.874C405.786 123.743 406.161 123.677 406.565 123.677C407.037 123.677 407.458 123.76 407.828 123.926C408.203 124.091 408.515 124.33 408.763 124.641L407.843 125.474C407.677 125.279 407.495 125.131 407.295 125.028C407.1 124.926 406.881 124.875 406.638 124.875C406.428 124.875 406.236 124.909 406.061 124.977C405.886 125.045 405.735 125.145 405.608 125.277C405.486 125.403 405.389 125.557 405.316 125.737C405.248 125.917 405.214 126.116 405.214 126.335C405.214 126.555 405.248 126.754 405.316 126.934C405.389 127.114 405.486 127.27 405.608 127.402C405.735 127.528 405.886 127.626 406.061 127.694C406.236 127.762 406.428 127.796 406.638 127.796C406.881 127.796 407.1 127.745 407.295 127.643C407.495 127.54 407.677 127.392 407.843 127.197L408.763 128.03C408.515 128.336 408.203 128.575 407.828 128.745C407.458 128.911 407.037 128.994 406.565 128.994Z" fill="white"/>
<path d="M411.721 128.994C411.313 128.994 410.935 128.928 410.59 128.796C410.244 128.665 409.942 128.48 409.684 128.241C409.431 127.998 409.234 127.716 409.093 127.394C408.951 127.073 408.881 126.72 408.881 126.335C408.881 125.951 408.951 125.598 409.093 125.277C409.234 124.955 409.431 124.675 409.684 124.437C409.942 124.193 410.244 124.006 410.59 123.874C410.935 123.743 411.313 123.677 411.721 123.677C412.135 123.677 412.513 123.743 412.853 123.874C413.199 124.006 413.498 124.193 413.752 124.437C414.005 124.675 414.202 124.955 414.343 125.277C414.489 125.598 414.562 125.951 414.562 126.335C414.562 126.72 414.489 127.075 414.343 127.402C414.202 127.723 414.005 128.003 413.752 128.241C413.498 128.48 413.199 128.665 412.853 128.796C412.513 128.928 412.135 128.994 411.721 128.994ZM411.721 127.796C411.916 127.796 412.096 127.762 412.262 127.694C412.432 127.626 412.578 127.528 412.7 127.402C412.827 127.27 412.924 127.114 412.992 126.934C413.065 126.754 413.102 126.555 413.102 126.335C413.102 126.112 413.065 125.912 412.992 125.737C412.924 125.557 412.827 125.403 412.7 125.277C412.578 125.145 412.432 125.045 412.262 124.977C412.096 124.909 411.916 124.875 411.721 124.875C411.527 124.875 411.344 124.909 411.174 124.977C411.008 125.045 410.862 125.145 410.736 125.277C410.614 125.403 410.517 125.557 410.444 125.737C410.375 125.912 410.341 126.112 410.341 126.335C410.341 126.555 410.375 126.754 410.444 126.934C410.517 127.114 410.614 127.27 410.736 127.402C410.862 127.528 411.008 127.626 411.174 127.694C411.344 127.762 411.527 127.796 411.721 127.796Z" fill="white"/>
<path d="M417.116 128.994C416.697 128.994 416.293 128.943 415.904 128.84C415.519 128.733 415.205 128.597 414.962 128.431L415.436 127.365C415.665 127.511 415.928 127.633 416.225 127.73C416.527 127.823 416.826 127.869 417.123 127.869C417.323 127.869 417.484 127.852 417.605 127.818C417.727 127.779 417.815 127.73 417.868 127.672C417.927 127.609 417.956 127.536 417.956 127.453C417.956 127.336 417.902 127.243 417.795 127.175C417.688 127.107 417.549 127.051 417.379 127.007C417.208 126.963 417.019 126.92 416.809 126.876C416.605 126.832 416.398 126.776 416.189 126.708C415.984 126.64 415.797 126.552 415.626 126.445C415.456 126.333 415.317 126.189 415.21 126.014C415.103 125.834 415.049 125.608 415.049 125.335C415.049 125.028 415.132 124.751 415.298 124.502C415.468 124.254 415.721 124.055 416.057 123.904C416.393 123.753 416.812 123.677 417.313 123.677C417.649 123.677 417.978 123.716 418.299 123.794C418.625 123.867 418.915 123.977 419.168 124.123L418.723 125.196C418.479 125.065 418.238 124.967 418 124.904C417.761 124.836 417.53 124.802 417.306 124.802C417.106 124.802 416.946 124.824 416.824 124.868C416.702 124.907 416.615 124.96 416.561 125.028C416.507 125.096 416.481 125.174 416.481 125.262C416.481 125.374 416.532 125.464 416.634 125.532C416.741 125.595 416.88 125.649 417.05 125.693C417.225 125.732 417.415 125.773 417.62 125.817C417.829 125.861 418.036 125.917 418.241 125.985C418.45 126.048 418.64 126.136 418.81 126.248C418.981 126.355 419.117 126.499 419.219 126.679C419.326 126.854 419.38 127.075 419.38 127.343C419.38 127.64 419.295 127.915 419.124 128.168C418.959 128.417 418.708 128.616 418.372 128.767C418.041 128.918 417.622 128.994 417.116 128.994Z" fill="white"/>
<path d="M267.705 147.148V142.036H269.991C270.736 142.036 271.308 142.207 271.707 142.547C272.111 142.883 272.313 143.343 272.313 143.928C272.313 144.312 272.22 144.646 272.035 144.928C271.85 145.205 271.588 145.42 271.247 145.571C270.911 145.717 270.509 145.79 270.042 145.79H268.508L269.151 145.184V147.148H267.705ZM270.867 147.148L269.596 145.286H271.137L272.415 147.148H270.867ZM269.151 145.337L268.508 144.672H269.954C270.256 144.672 270.48 144.607 270.626 144.475C270.777 144.344 270.852 144.161 270.852 143.928C270.852 143.689 270.777 143.504 270.626 143.373C270.48 143.241 270.256 143.175 269.954 143.175H268.508L269.151 142.511V145.337Z" fill="white"/>
<path d="M273.111 147.148V142.036H277.12V143.153H274.542V146.031H277.215V147.148H273.111ZM274.44 145.096V144.015H276.813V145.096H274.44Z" fill="white"/>
<path d="M278.017 147.148V142.036H280.354C280.821 142.036 281.223 142.112 281.559 142.263C281.9 142.413 282.163 142.633 282.348 142.92C282.533 143.202 282.625 143.538 282.625 143.928C282.625 144.312 282.533 144.646 282.348 144.928C282.163 145.21 281.9 145.429 281.559 145.585C281.223 145.736 280.821 145.812 280.354 145.812H278.82L279.463 145.184V147.148H278.017ZM279.463 145.337L278.82 144.672H280.266C280.568 144.672 280.792 144.607 280.938 144.475C281.089 144.344 281.165 144.161 281.165 143.928C281.165 143.689 281.089 143.504 280.938 143.373C280.792 143.241 280.568 143.175 280.266 143.175H278.82L279.463 142.511V145.337Z" fill="white"/>
<path d="M283.33 147.148V142.036H285.616C286.361 142.036 286.933 142.207 287.332 142.547C287.736 142.883 287.938 143.343 287.938 143.928C287.938 144.312 287.846 144.646 287.661 144.928C287.476 145.205 287.213 145.42 286.872 145.571C286.536 145.717 286.134 145.79 285.667 145.79H284.133L284.776 145.184V147.148H283.33ZM286.492 147.148L285.221 145.286H286.762L288.04 147.148H286.492ZM284.776 145.337L284.133 144.672H285.579C285.881 144.672 286.105 144.607 286.251 144.475C286.402 144.344 286.478 144.161 286.478 143.928C286.478 143.689 286.402 143.504 286.251 143.373C286.105 143.241 285.881 143.175 285.579 143.175H284.133L284.776 142.511V145.337Z" fill="white"/>
<path d="M288.736 147.148V142.036H292.745V143.153H290.167V146.031H292.84V147.148H288.736ZM290.065 145.096V144.015H292.438V145.096H290.065Z" fill="white"/>
<path d="M295.439 147.25C295.02 147.25 294.616 147.199 294.226 147.097C293.842 146.99 293.528 146.853 293.284 146.688L293.759 145.622C293.988 145.768 294.251 145.89 294.548 145.987C294.85 146.079 295.149 146.126 295.446 146.126C295.646 146.126 295.806 146.109 295.928 146.075C296.05 146.036 296.137 145.987 296.191 145.928C296.249 145.865 296.278 145.792 296.278 145.709C296.278 145.593 296.225 145.5 296.118 145.432C296.011 145.364 295.872 145.308 295.702 145.264C295.531 145.22 295.341 145.176 295.132 145.132C294.927 145.089 294.721 145.033 294.511 144.965C294.307 144.896 294.119 144.809 293.949 144.702C293.779 144.59 293.64 144.446 293.533 144.271C293.426 144.091 293.372 143.864 293.372 143.592C293.372 143.285 293.455 143.007 293.62 142.759C293.791 142.511 294.044 142.311 294.38 142.16C294.716 142.009 295.134 141.934 295.636 141.934C295.972 141.934 296.3 141.973 296.622 142.051C296.948 142.124 297.238 142.233 297.491 142.379L297.045 143.453C296.802 143.321 296.561 143.224 296.322 143.161C296.084 143.093 295.852 143.059 295.629 143.059C295.429 143.059 295.268 143.08 295.147 143.124C295.025 143.163 294.937 143.217 294.884 143.285C294.83 143.353 294.803 143.431 294.803 143.519C294.803 143.631 294.854 143.721 294.957 143.789C295.064 143.852 295.203 143.906 295.373 143.949C295.548 143.988 295.738 144.03 295.943 144.074C296.152 144.117 296.359 144.173 296.563 144.242C296.773 144.305 296.962 144.392 297.133 144.504C297.303 144.612 297.44 144.755 297.542 144.935C297.649 145.111 297.702 145.332 297.702 145.6C297.702 145.897 297.617 146.172 297.447 146.425C297.281 146.673 297.031 146.873 296.695 147.024C296.364 147.175 295.945 147.25 295.439 147.25Z" fill="white"/>
<path d="M298.37 147.148V142.036H302.38V143.153H299.802V146.031H302.474V147.148H298.37ZM299.699 145.096V144.015H302.073V145.096H299.699Z" fill="white"/>
<path d="M303.277 147.148V142.036H304.467L307.286 145.439H306.724V142.036H308.14V147.148H306.95L304.131 143.745H304.694V147.148H303.277Z" fill="white"/>
<path d="M310.248 147.148V143.183H308.678V142.036H313.257V143.183H311.694V147.148H310.248Z" fill="white"/>
<path d="M312.926 147.148L315.182 142.036H316.606L318.87 147.148H317.366L315.598 142.745H316.168L314.401 147.148H312.926ZM314.16 146.155L314.532 145.089H317.03L317.402 146.155H314.16Z" fill="white"/>
<path d="M319.28 147.148V142.036H320.47L323.289 145.439H322.727V142.036H324.143V147.148H322.953L320.134 143.745H320.697V147.148H319.28Z" fill="white"/>
<path d="M326.251 147.148V143.183H324.681V142.036H329.26V143.183H327.697V147.148H326.251Z" fill="white"/>
<path d="M329.799 147.148V142.036H333.808V143.153H331.23V146.031H333.903V147.148H329.799ZM331.128 145.096V144.015H333.501V145.096H331.128Z" fill="white"/>
<path d="M336.502 147.25C336.083 147.25 335.679 147.199 335.289 147.097C334.905 146.99 334.591 146.853 334.347 146.688L334.822 145.622C335.051 145.768 335.314 145.89 335.611 145.987C335.913 146.079 336.212 146.126 336.509 146.126C336.709 146.126 336.869 146.109 336.991 146.075C337.113 146.036 337.2 145.987 337.254 145.928C337.312 145.865 337.342 145.792 337.342 145.709C337.342 145.593 337.288 145.5 337.181 145.432C337.074 145.364 336.935 145.308 336.765 145.264C336.594 145.22 336.404 145.176 336.195 145.132C335.991 145.089 335.784 145.033 335.574 144.965C335.37 144.896 335.182 144.809 335.012 144.702C334.842 144.59 334.703 144.446 334.596 144.271C334.489 144.091 334.435 143.864 334.435 143.592C334.435 143.285 334.518 143.007 334.683 142.759C334.854 142.511 335.107 142.311 335.443 142.16C335.779 142.009 336.197 141.934 336.699 141.934C337.035 141.934 337.363 141.973 337.685 142.051C338.011 142.124 338.301 142.233 338.554 142.379L338.108 143.453C337.865 143.321 337.624 143.224 337.385 143.161C337.147 143.093 336.916 143.059 336.692 143.059C336.492 143.059 336.331 143.08 336.21 143.124C336.088 143.163 336 143.217 335.947 143.285C335.893 143.353 335.866 143.431 335.866 143.519C335.866 143.631 335.918 143.721 336.02 143.789C336.127 143.852 336.266 143.906 336.436 143.949C336.611 143.988 336.801 144.03 337.006 144.074C337.215 144.117 337.422 144.173 337.626 144.242C337.836 144.305 338.026 144.392 338.196 144.504C338.366 144.612 338.503 144.755 338.605 144.935C338.712 145.111 338.766 145.332 338.766 145.6C338.766 145.897 338.68 146.172 338.51 146.425C338.344 146.673 338.094 146.873 337.758 147.024C337.427 147.175 337.008 147.25 336.502 147.25Z" fill="white"/>
<path d="M341.559 147.148V142.036H343.976C344.541 142.036 345.037 142.141 345.466 142.35C345.894 142.56 346.227 142.854 346.466 143.234C346.709 143.614 346.831 144.066 346.831 144.592C346.831 145.113 346.709 145.566 346.466 145.95C346.227 146.33 345.894 146.625 345.466 146.834C345.037 147.043 344.541 147.148 343.976 147.148H341.559ZM343.005 145.994H343.917C344.21 145.994 344.463 145.941 344.677 145.834C344.896 145.722 345.066 145.561 345.188 145.352C345.31 145.137 345.371 144.884 345.371 144.592C345.371 144.295 345.31 144.042 345.188 143.833C345.066 143.623 344.896 143.465 344.677 143.358C344.463 143.246 344.21 143.19 343.917 143.19H343.005V145.994Z" fill="white"/>
<path d="M347.592 147.148V142.036H351.601V143.153H349.023V146.031H351.696V147.148H347.592ZM348.921 145.096V144.015H351.294V145.096H348.921Z" fill="white"/>
<path d="M354.624 147.148V142.036H358.633V143.153H356.055V146.031H358.728V147.148H354.624ZM355.953 145.096V144.015H358.326V145.096H355.953Z" fill="white"/>
<path d="M359.53 147.148V142.036H360.72L363.539 145.439H362.977V142.036H364.393V147.148H363.203L360.384 143.745H360.947V147.148H359.53Z" fill="white"/>
<path d="M366.502 147.148V143.183H364.931V142.036H369.51V143.183H367.947V147.148H366.502Z" fill="white"/>
<path d="M370.049 147.148V142.036H371.495V147.148H370.049Z" fill="white"/>
<path d="M372.523 147.148V142.036H374.941C375.505 142.036 376.002 142.141 376.43 142.35C376.859 142.56 377.192 142.854 377.431 143.234C377.674 143.614 377.796 144.066 377.796 144.592C377.796 145.113 377.674 145.566 377.431 145.95C377.192 146.33 376.859 146.625 376.43 146.834C376.002 147.043 375.505 147.148 374.941 147.148H372.523ZM373.969 145.994H374.882C375.174 145.994 375.428 145.941 375.642 145.834C375.861 145.722 376.031 145.561 376.153 145.352C376.275 145.137 376.335 144.884 376.335 144.592C376.335 144.295 376.275 144.042 376.153 143.833C376.031 143.623 375.861 143.465 375.642 143.358C375.428 143.246 375.174 143.19 374.882 143.19H373.969V145.994Z" fill="white"/>
<path d="M377.872 147.148L380.129 142.036H381.553L383.816 147.148H382.312L380.545 142.745H381.114L379.347 147.148H377.872ZM379.106 146.155L379.479 145.089H381.976L382.349 146.155H379.106Z" fill="white"/>
<path d="M384.226 147.148V142.036H386.643C387.208 142.036 387.705 142.141 388.133 142.35C388.562 142.56 388.895 142.854 389.134 143.234C389.377 143.614 389.499 144.066 389.499 144.592C389.499 145.113 389.377 145.566 389.134 145.95C388.895 146.33 388.562 146.625 388.133 146.834C387.705 147.043 387.208 147.148 386.643 147.148H384.226ZM385.672 145.994H386.585C386.877 145.994 387.13 145.941 387.345 145.834C387.564 145.722 387.734 145.561 387.856 145.352C387.977 145.137 388.038 144.884 388.038 144.592C388.038 144.295 387.977 144.042 387.856 143.833C387.734 143.623 387.564 143.465 387.345 143.358C387.13 143.246 386.877 143.19 386.585 143.19H385.672V145.994Z" fill="white"/>
<path d="M390.259 147.148V142.036H394.269V143.153H391.691V146.031H394.364V147.148H390.259ZM391.589 145.096V144.015H393.962V145.096H391.589Z" fill="white"/>
<path d="M396.962 147.25C396.544 147.25 396.14 147.199 395.75 147.097C395.366 146.99 395.052 146.853 394.808 146.688L395.283 145.622C395.512 145.768 395.775 145.89 396.072 145.987C396.373 146.079 396.673 146.126 396.97 146.126C397.169 146.126 397.33 146.109 397.452 146.075C397.573 146.036 397.661 145.987 397.715 145.928C397.773 145.865 397.802 145.792 397.802 145.709C397.802 145.593 397.749 145.5 397.642 145.432C397.534 145.364 397.396 145.308 397.225 145.264C397.055 145.22 396.865 145.176 396.656 145.132C396.451 145.089 396.244 145.033 396.035 144.965C395.83 144.896 395.643 144.809 395.473 144.702C395.302 144.59 395.164 144.446 395.056 144.271C394.949 144.091 394.896 143.864 394.896 143.592C394.896 143.285 394.979 143.007 395.144 142.759C395.314 142.511 395.568 142.311 395.904 142.16C396.239 142.009 396.658 141.934 397.16 141.934C397.495 141.934 397.824 141.973 398.145 142.051C398.472 142.124 398.761 142.233 399.014 142.379L398.569 143.453C398.326 143.321 398.085 143.224 397.846 143.161C397.607 143.093 397.376 143.059 397.152 143.059C396.953 143.059 396.792 143.08 396.67 143.124C396.549 143.163 396.461 143.217 396.407 143.285C396.354 143.353 396.327 143.431 396.327 143.519C396.327 143.631 396.378 143.721 396.48 143.789C396.588 143.852 396.726 143.906 396.897 143.949C397.072 143.988 397.262 144.03 397.466 144.074C397.676 144.117 397.883 144.173 398.087 144.242C398.296 144.305 398.486 144.392 398.657 144.504C398.827 144.612 398.963 144.755 399.066 144.935C399.173 145.111 399.226 145.332 399.226 145.6C399.226 145.897 399.141 146.172 398.971 146.425C398.805 146.673 398.554 146.873 398.218 147.024C397.887 147.175 397.469 147.25 396.962 147.25Z" fill="white"/>
<path d="M267.705 165.405V160.293H269.151V165.405H267.705Z" fill="white"/>
<path d="M270.18 165.405V160.293H271.37L274.189 163.696H273.626V160.293H275.043V165.405H273.853L271.034 162.002H271.596V165.405H270.18Z" fill="white"/>
<path d="M277.86 165.507C277.441 165.507 277.037 165.456 276.647 165.354C276.263 165.246 275.949 165.11 275.705 164.945L276.18 163.878C276.409 164.024 276.672 164.146 276.969 164.243C277.27 164.336 277.57 164.382 277.867 164.382C278.066 164.382 278.227 164.365 278.349 164.331C278.471 164.292 278.558 164.243 278.612 164.185C278.67 164.122 278.699 164.049 278.699 163.966C278.699 163.849 278.646 163.757 278.539 163.688C278.432 163.62 278.293 163.564 278.122 163.521C277.952 163.477 277.762 163.433 277.553 163.389C277.348 163.345 277.141 163.289 276.932 163.221C276.728 163.153 276.54 163.065 276.37 162.958C276.199 162.846 276.061 162.703 275.954 162.527C275.846 162.347 275.793 162.121 275.793 161.848C275.793 161.542 275.876 161.264 276.041 161.016C276.212 160.767 276.465 160.568 276.801 160.417C277.137 160.266 277.555 160.191 278.057 160.191C278.393 160.191 278.721 160.229 279.043 160.307C279.369 160.38 279.658 160.49 279.912 160.636L279.466 161.709C279.223 161.578 278.982 161.481 278.743 161.417C278.505 161.349 278.273 161.315 278.049 161.315C277.85 161.315 277.689 161.337 277.567 161.381C277.446 161.42 277.358 161.473 277.305 161.542C277.251 161.61 277.224 161.688 277.224 161.775C277.224 161.887 277.275 161.977 277.378 162.045C277.485 162.109 277.623 162.162 277.794 162.206C277.969 162.245 278.159 162.286 278.363 162.33C278.573 162.374 278.78 162.43 278.984 162.498C279.194 162.561 279.383 162.649 279.554 162.761C279.724 162.868 279.861 163.012 279.963 163.192C280.07 163.367 280.123 163.589 280.123 163.856C280.123 164.153 280.038 164.428 279.868 164.682C279.702 164.93 279.452 165.13 279.116 165.28C278.785 165.431 278.366 165.507 277.86 165.507Z" fill="white"/>
<path d="M281.808 165.405V161.439H280.238V160.293H284.817V161.439H283.254V165.405H281.808Z" fill="white"/>
<path d="M285.355 165.405V160.293H286.801V165.405H285.355Z" fill="white"/>
<path d="M288.918 165.405V161.439H287.348V160.293H291.927V161.439H290.364V165.405H288.918Z" fill="white"/>
<path d="M294.724 165.507C293.97 165.507 293.381 165.3 292.957 164.886C292.534 164.472 292.322 163.886 292.322 163.126V160.293H293.768V163.082C293.768 163.521 293.853 163.835 294.023 164.024C294.199 164.214 294.437 164.309 294.739 164.309C295.041 164.309 295.277 164.214 295.447 164.024C295.618 163.835 295.703 163.521 295.703 163.082V160.293H297.127V163.126C297.127 163.886 296.915 164.472 296.492 164.886C296.068 165.3 295.479 165.507 294.724 165.507Z" fill="white"/>
<path d="M298.107 165.405V160.293H299.552V165.405H298.107Z" fill="white"/>
<path d="M303.13 165.507C302.726 165.507 302.351 165.444 302.005 165.317C301.664 165.186 301.367 165.001 301.114 164.762C300.866 164.523 300.671 164.243 300.53 163.922C300.389 163.596 300.318 163.238 300.318 162.849C300.318 162.459 300.389 162.104 300.53 161.783C300.671 161.456 300.866 161.174 301.114 160.935C301.367 160.697 301.664 160.514 302.005 160.388C302.351 160.256 302.726 160.191 303.13 160.191C303.602 160.191 304.023 160.273 304.393 160.439C304.768 160.604 305.08 160.843 305.328 161.154L304.408 161.987C304.242 161.792 304.06 161.644 303.86 161.542C303.665 161.439 303.446 161.388 303.203 161.388C302.993 161.388 302.801 161.422 302.626 161.49C302.451 161.559 302.3 161.658 302.173 161.79C302.051 161.916 301.954 162.07 301.881 162.25C301.813 162.43 301.779 162.63 301.779 162.849C301.779 163.068 301.813 163.267 301.881 163.448C301.954 163.628 302.051 163.783 302.173 163.915C302.3 164.041 302.451 164.139 302.626 164.207C302.801 164.275 302.993 164.309 303.203 164.309C303.446 164.309 303.665 164.258 303.86 164.156C304.06 164.054 304.242 163.905 304.408 163.71L305.328 164.543C305.08 164.85 304.768 165.088 304.393 165.259C304.023 165.424 303.602 165.507 303.13 165.507ZM302.823 167.128C302.701 167.128 302.575 167.113 302.443 167.084C302.317 167.055 302.212 167.019 302.129 166.975L302.319 166.427C302.382 166.456 302.451 166.481 302.524 166.5C302.602 166.519 302.684 166.529 302.772 166.529C302.903 166.529 302.996 166.51 303.049 166.471C303.108 166.432 303.137 166.383 303.137 166.325C303.137 166.266 303.11 166.22 303.057 166.186C303.008 166.157 302.925 166.142 302.808 166.142H302.538L302.728 165.339H303.451L303.349 165.777C303.573 165.801 303.733 165.872 303.831 165.989C303.928 166.106 303.977 166.232 303.977 166.369C303.977 166.602 303.872 166.787 303.663 166.924C303.453 167.06 303.174 167.128 302.823 167.128Z" fill="white"/>
<path d="M308.286 165.507C307.878 165.507 307.5 165.441 307.155 165.31C306.809 165.178 306.507 164.993 306.249 164.755C305.996 164.511 305.799 164.229 305.658 163.908C305.516 163.586 305.446 163.233 305.446 162.849C305.446 162.464 305.516 162.111 305.658 161.79C305.799 161.468 305.996 161.189 306.249 160.95C306.507 160.707 306.809 160.519 307.155 160.388C307.5 160.256 307.878 160.191 308.286 160.191C308.7 160.191 309.078 160.256 309.418 160.388C309.764 160.519 310.064 160.707 310.317 160.95C310.57 161.189 310.767 161.468 310.908 161.79C311.054 162.111 311.127 162.464 311.127 162.849C311.127 163.233 311.054 163.589 310.908 163.915C310.767 164.236 310.57 164.516 310.317 164.755C310.064 164.993 309.764 165.178 309.418 165.31C309.078 165.441 308.7 165.507 308.286 165.507ZM308.286 164.309C308.481 164.309 308.661 164.275 308.827 164.207C308.997 164.139 309.143 164.041 309.265 163.915C309.392 163.783 309.489 163.628 309.557 163.448C309.63 163.267 309.667 163.068 309.667 162.849C309.667 162.625 309.63 162.425 309.557 162.25C309.489 162.07 309.392 161.916 309.265 161.79C309.143 161.658 308.997 161.559 308.827 161.49C308.661 161.422 308.481 161.388 308.286 161.388C308.092 161.388 307.909 161.422 307.739 161.49C307.573 161.559 307.427 161.658 307.301 161.79C307.179 161.916 307.082 162.07 307.009 162.25C306.94 162.425 306.906 162.625 306.906 162.849C306.906 163.068 306.94 163.267 307.009 163.448C307.082 163.628 307.179 163.783 307.301 163.915C307.427 164.041 307.573 164.139 307.739 164.207C307.909 164.275 308.092 164.309 308.286 164.309ZM308.871 159.935C308.739 159.935 308.62 159.913 308.513 159.869C308.411 159.821 308.318 159.767 308.235 159.709C308.153 159.645 308.075 159.592 308.002 159.548C307.929 159.499 307.856 159.475 307.783 159.475C307.69 159.475 307.612 159.511 307.549 159.584C307.491 159.657 307.456 159.752 307.447 159.869H306.753C306.763 159.519 306.85 159.234 307.016 159.015C307.181 158.796 307.41 158.686 307.702 158.686C307.839 158.686 307.958 158.711 308.06 158.759C308.162 158.803 308.255 158.857 308.338 158.92C308.425 158.978 308.506 159.032 308.579 159.081C308.652 159.124 308.722 159.146 308.79 159.146C308.888 159.146 308.966 159.112 309.024 159.044C309.087 158.971 309.121 158.878 309.126 158.767H309.813C309.808 159.112 309.723 159.395 309.557 159.614C309.392 159.828 309.163 159.935 308.871 159.935Z" fill="white"/>
<path d="M311.885 165.405V160.293H315.894V161.41H313.316V164.287H315.989V165.405H311.885ZM313.214 163.353V162.272H315.587V163.353H313.214Z" fill="white"/>
<path d="M318.587 165.507C318.169 165.507 317.765 165.456 317.375 165.354C316.991 165.246 316.677 165.11 316.433 164.945L316.908 163.878C317.137 164.024 317.4 164.146 317.697 164.243C317.998 164.336 318.298 164.382 318.595 164.382C318.794 164.382 318.955 164.365 319.077 164.331C319.198 164.292 319.286 164.243 319.34 164.185C319.398 164.122 319.427 164.049 319.427 163.966C319.427 163.849 319.374 163.757 319.267 163.688C319.159 163.62 319.021 163.564 318.85 163.521C318.68 163.477 318.49 163.433 318.281 163.389C318.076 163.345 317.869 163.289 317.66 163.221C317.456 163.153 317.268 163.065 317.098 162.958C316.927 162.846 316.789 162.703 316.681 162.527C316.574 162.347 316.521 162.121 316.521 161.848C316.521 161.542 316.604 161.264 316.769 161.016C316.939 160.767 317.193 160.568 317.529 160.417C317.864 160.266 318.283 160.191 318.785 160.191C319.121 160.191 319.449 160.229 319.77 160.307C320.097 160.38 320.386 160.49 320.639 160.636L320.194 161.709C319.951 161.578 319.71 161.481 319.471 161.417C319.233 161.349 319.001 161.315 318.777 161.315C318.578 161.315 318.417 161.337 318.295 161.381C318.174 161.42 318.086 161.473 318.032 161.542C317.979 161.61 317.952 161.688 317.952 161.775C317.952 161.887 318.003 161.977 318.105 162.045C318.213 162.109 318.351 162.162 318.522 162.206C318.697 162.245 318.887 162.286 319.091 162.33C319.301 162.374 319.508 162.43 319.712 162.498C319.921 162.561 320.111 162.649 320.282 162.761C320.452 162.868 320.588 163.012 320.691 163.192C320.798 163.367 320.851 163.589 320.851 163.856C320.851 164.153 320.766 164.428 320.596 164.682C320.43 164.93 320.179 165.13 319.844 165.28C319.512 165.431 319.094 165.507 318.587 165.507Z" fill="white"/>
<path d="M321.443 166.551L321.99 164.652L322.188 165.441C321.944 165.441 321.745 165.371 321.589 165.229C321.433 165.083 321.355 164.889 321.355 164.645C321.355 164.392 321.433 164.192 321.589 164.046C321.749 163.9 321.949 163.827 322.188 163.827C322.426 163.827 322.623 163.903 322.779 164.054C322.935 164.2 323.013 164.397 323.013 164.645C323.013 164.713 323.008 164.781 322.998 164.85C322.988 164.918 322.967 165.001 322.932 165.098C322.898 165.195 322.845 165.324 322.772 165.485L322.312 166.551H321.443Z" fill="white"/>
<path d="M325.855 165.405V160.293H329.864V161.41H327.286V164.287H329.959V165.405H325.855ZM327.184 163.353V162.272H329.558V163.353H327.184Z" fill="white"/>
<path d="M332.558 165.507C332.139 165.507 331.735 165.456 331.346 165.354C330.961 165.246 330.647 165.11 330.404 164.945L330.878 163.878C331.107 164.024 331.37 164.146 331.667 164.243C331.969 164.336 332.268 164.382 332.565 164.382C332.765 164.382 332.926 164.365 333.047 164.331C333.169 164.292 333.257 164.243 333.31 164.185C333.369 164.122 333.398 164.049 333.398 163.966C333.398 163.849 333.344 163.757 333.237 163.688C333.13 163.62 332.991 163.564 332.821 163.521C332.65 163.477 332.461 163.433 332.251 163.389C332.047 163.345 331.84 163.289 331.631 163.221C331.426 163.153 331.239 163.065 331.068 162.958C330.898 162.846 330.759 162.703 330.652 162.527C330.545 162.347 330.491 162.121 330.491 161.848C330.491 161.542 330.574 161.264 330.74 161.016C330.91 160.767 331.163 160.568 331.499 160.417C331.835 160.266 332.254 160.191 332.755 160.191C333.091 160.191 333.42 160.229 333.741 160.307C334.067 160.38 334.357 160.49 334.61 160.636L334.165 161.709C333.921 161.578 333.68 161.481 333.442 161.417C333.203 161.349 332.972 161.315 332.748 161.315C332.548 161.315 332.388 161.337 332.266 161.381C332.144 161.42 332.057 161.473 332.003 161.542C331.949 161.61 331.923 161.688 331.923 161.775C331.923 161.887 331.974 161.977 332.076 162.045C332.183 162.109 332.322 162.162 332.492 162.206C332.668 162.245 332.857 162.286 333.062 162.33C333.271 162.374 333.478 162.43 333.683 162.498C333.892 162.561 334.082 162.649 334.252 162.761C334.423 162.868 334.559 163.012 334.661 163.192C334.768 163.367 334.822 163.589 334.822 163.856C334.822 164.153 334.737 164.428 334.566 164.682C334.401 164.93 334.15 165.13 333.814 165.28C333.483 165.431 333.064 165.507 332.558 165.507Z" fill="white"/>
<path d="M336.507 165.405V161.439H334.936V160.293H339.515V161.439H337.952V165.405H336.507Z" fill="white"/>
<path d="M342.313 165.507C341.558 165.507 340.969 165.3 340.546 164.886C340.122 164.472 339.91 163.886 339.91 163.126V160.293H341.356V163.082C341.356 163.521 341.441 163.835 341.612 164.024C341.787 164.214 342.026 164.309 342.327 164.309C342.629 164.309 342.865 164.214 343.036 164.024C343.206 163.835 343.291 163.521 343.291 163.082V160.293H344.715V163.126C344.715 163.886 344.504 164.472 344.08 164.886C343.656 165.3 343.067 165.507 342.313 165.507Z" fill="white"/>
<path d="M345.695 165.405V160.293H348.112C348.677 160.293 349.173 160.397 349.602 160.607C350.03 160.816 350.364 161.111 350.602 161.49C350.846 161.87 350.967 162.323 350.967 162.849C350.967 163.37 350.846 163.822 350.602 164.207C350.364 164.587 350.03 164.881 349.602 165.091C349.173 165.3 348.677 165.405 348.112 165.405H345.695ZM347.141 164.251H348.054C348.346 164.251 348.599 164.197 348.813 164.09C349.032 163.978 349.203 163.818 349.324 163.608C349.446 163.394 349.507 163.141 349.507 162.849C349.507 162.552 349.446 162.299 349.324 162.089C349.203 161.88 349.032 161.722 348.813 161.615C348.599 161.503 348.346 161.447 348.054 161.447H347.141V164.251Z" fill="white"/>
<path d="M351.043 165.405L353.3 160.293H354.724L356.988 165.405H355.483L353.716 161.001H354.286L352.519 165.405H351.043ZM352.278 164.411L352.65 163.345H355.147L355.52 164.411H352.278Z" fill="white"/>
<path d="M357.398 165.405V160.293H358.588L361.407 163.696H360.844V160.293H362.261V165.405H361.071L358.252 162.002H358.814V165.405H357.398Z" fill="white"/>
<path d="M364.369 165.405V161.439H362.799V160.293H367.378V161.439H365.815V165.405H364.369Z" fill="white"/>
<path d="M367.917 165.405V160.293H371.926V161.41H369.348V164.287H372.021V165.405H367.917ZM369.246 163.353V162.272H371.619V163.353H369.246Z" fill="white"/>
<path d="M374.619 165.507C374.201 165.507 373.797 165.456 373.407 165.354C373.023 165.246 372.709 165.11 372.465 164.945L372.94 163.878C373.169 164.024 373.432 164.146 373.729 164.243C374.03 164.336 374.33 164.382 374.627 164.382C374.826 164.382 374.987 164.365 375.109 164.331C375.23 164.292 375.318 164.243 375.372 164.185C375.43 164.122 375.459 164.049 375.459 163.966C375.459 163.849 375.406 163.757 375.299 163.688C375.191 163.62 375.053 163.564 374.882 163.521C374.712 163.477 374.522 163.433 374.313 163.389C374.108 163.345 373.901 163.289 373.692 163.221C373.488 163.153 373.3 163.065 373.13 162.958C372.959 162.846 372.821 162.703 372.714 162.527C372.606 162.347 372.553 162.121 372.553 161.848C372.553 161.542 372.636 161.264 372.801 161.016C372.971 160.767 373.225 160.568 373.561 160.417C373.897 160.266 374.315 160.191 374.817 160.191C375.153 160.191 375.481 160.229 375.802 160.307C376.129 160.38 376.418 160.49 376.672 160.636L376.226 161.709C375.983 161.578 375.742 161.481 375.503 161.417C375.265 161.349 375.033 161.315 374.809 161.315C374.61 161.315 374.449 161.337 374.327 161.381C374.206 161.42 374.118 161.473 374.064 161.542C374.011 161.61 373.984 161.688 373.984 161.775C373.984 161.887 374.035 161.977 374.138 162.045C374.245 162.109 374.383 162.162 374.554 162.206C374.729 162.245 374.919 162.286 375.123 162.33C375.333 162.374 375.54 162.43 375.744 162.498C375.953 162.561 376.143 162.649 376.314 162.761C376.484 162.868 376.62 163.012 376.723 163.192C376.83 163.367 376.883 163.589 376.883 163.856C376.883 164.153 376.798 164.428 376.628 164.682C376.462 164.93 376.211 165.13 375.876 165.28C375.544 165.431 375.126 165.507 374.619 165.507Z" fill="white"/>
<path d="M377.475 166.551L378.022 164.652L378.22 165.441C377.976 165.441 377.777 165.371 377.621 165.229C377.465 165.083 377.387 164.889 377.387 164.645C377.387 164.392 377.465 164.192 377.621 164.046C377.781 163.9 377.981 163.827 378.22 163.827C378.458 163.827 378.655 163.903 378.811 164.054C378.967 164.2 379.045 164.397 379.045 164.645C379.045 164.713 379.04 164.781 379.03 164.85C379.02 164.918 378.999 165.001 378.964 165.098C378.93 165.195 378.877 165.324 378.804 165.485L378.344 166.551H377.475Z" fill="white"/>
<path d="M267.705 183.661V178.549H270.042C270.509 178.549 270.911 178.625 271.247 178.776C271.588 178.927 271.85 179.146 272.035 179.433C272.22 179.715 272.313 180.051 272.313 180.441C272.313 180.825 272.22 181.159 272.035 181.441C271.85 181.724 271.588 181.943 271.247 182.098C270.911 182.249 270.509 182.325 270.042 182.325H268.508L269.151 181.697V183.661H267.705ZM269.151 181.85L268.508 181.186H269.954C270.256 181.186 270.48 181.12 270.626 180.988C270.777 180.857 270.852 180.674 270.852 180.441C270.852 180.202 270.777 180.017 270.626 179.886C270.48 179.754 270.256 179.689 269.954 179.689H268.508L269.151 179.024V181.85Z" fill="white"/>
<path d="M275.667 183.763C275.258 183.763 274.881 183.698 274.535 183.566C274.19 183.435 273.888 183.25 273.63 183.011C273.377 182.768 273.179 182.486 273.038 182.164C272.897 181.843 272.826 181.49 272.826 181.105C272.826 180.721 272.897 180.368 273.038 180.046C273.179 179.725 273.377 179.445 273.63 179.207C273.888 178.963 274.19 178.776 274.535 178.644C274.881 178.513 275.258 178.447 275.667 178.447C276.081 178.447 276.458 178.513 276.799 178.644C277.145 178.776 277.444 178.963 277.697 179.207C277.95 179.445 278.148 179.725 278.289 180.046C278.435 180.368 278.508 180.721 278.508 181.105C278.508 181.49 278.435 181.845 278.289 182.171C278.148 182.493 277.95 182.773 277.697 183.011C277.444 183.25 277.145 183.435 276.799 183.566C276.458 183.698 276.081 183.763 275.667 183.763ZM275.667 182.566C275.862 182.566 276.042 182.532 276.208 182.464C276.378 182.395 276.524 182.298 276.646 182.171C276.772 182.04 276.87 181.884 276.938 181.704C277.011 181.524 277.047 181.324 277.047 181.105C277.047 180.881 277.011 180.682 276.938 180.506C276.87 180.326 276.772 180.173 276.646 180.046C276.524 179.915 276.378 179.815 276.208 179.747C276.042 179.679 275.862 179.645 275.667 179.645C275.472 179.645 275.29 179.679 275.119 179.747C274.954 179.815 274.808 179.915 274.681 180.046C274.56 180.173 274.462 180.326 274.389 180.506C274.321 180.682 274.287 180.881 274.287 181.105C274.287 181.324 274.321 181.524 274.389 181.704C274.462 181.884 274.56 182.04 274.681 182.171C274.808 182.298 274.954 182.395 275.119 182.464C275.29 182.532 275.472 182.566 275.667 182.566Z" fill="white"/>
<path d="M279.265 183.661V178.549H281.602C282.069 178.549 282.471 178.625 282.807 178.776C283.148 178.927 283.411 179.146 283.596 179.433C283.781 179.715 283.873 180.051 283.873 180.441C283.873 180.825 283.781 181.159 283.596 181.441C283.411 181.724 283.148 181.943 282.807 182.098C282.471 182.249 282.069 182.325 281.602 182.325H280.068L280.711 181.697V183.661H279.265ZM280.711 181.85L280.068 181.186H281.514C281.816 181.186 282.04 181.12 282.186 180.988C282.337 180.857 282.413 180.674 282.413 180.441C282.413 180.202 282.337 180.017 282.186 179.886C282.04 179.754 281.816 179.689 281.514 179.689H280.068L280.711 179.024V181.85Z" fill="white"/>
<path d="M286.887 183.763C286.132 183.763 285.543 183.557 285.12 183.143C284.696 182.729 284.484 182.142 284.484 181.383V178.549H285.93V181.339C285.93 181.777 286.016 182.091 286.186 182.281C286.361 182.471 286.6 182.566 286.902 182.566C287.203 182.566 287.44 182.471 287.61 182.281C287.78 182.091 287.866 181.777 287.866 181.339V178.549H289.29V181.383C289.29 182.142 289.078 182.729 288.654 183.143C288.231 183.557 287.642 183.763 286.887 183.763Z" fill="white"/>
<path d="M290.269 183.661V178.549H291.715V182.515H294.154V183.661H290.269Z" fill="white"/>
<path d="M294.163 183.661L296.419 178.549H297.843L300.107 183.661H298.603L296.835 179.258H297.405L295.638 183.661H294.163ZM295.397 182.668L295.769 181.602H298.267L298.639 182.668H295.397Z" fill="white"/>
<path d="M302.994 183.763C302.59 183.763 302.215 183.7 301.87 183.574C301.529 183.442 301.232 183.257 300.979 183.019C300.73 182.78 300.536 182.5 300.395 182.179C300.253 181.853 300.183 181.495 300.183 181.105C300.183 180.716 300.253 180.36 300.395 180.039C300.536 179.713 300.73 179.431 300.979 179.192C301.232 178.953 301.529 178.771 301.87 178.644C302.215 178.513 302.59 178.447 302.994 178.447C303.466 178.447 303.888 178.53 304.258 178.695C304.633 178.861 304.944 179.1 305.192 179.411L304.272 180.244C304.107 180.049 303.924 179.9 303.725 179.798C303.53 179.696 303.311 179.645 303.067 179.645C302.858 179.645 302.666 179.679 302.49 179.747C302.315 179.815 302.164 179.915 302.038 180.046C301.916 180.173 301.819 180.326 301.746 180.506C301.677 180.687 301.643 180.886 301.643 181.105C301.643 181.324 301.677 181.524 301.746 181.704C301.819 181.884 301.916 182.04 302.038 182.171C302.164 182.298 302.315 182.395 302.49 182.464C302.666 182.532 302.858 182.566 303.067 182.566C303.311 182.566 303.53 182.515 303.725 182.412C303.924 182.31 304.107 182.162 304.272 181.967L305.192 182.8C304.944 183.106 304.633 183.345 304.258 183.515C303.888 183.681 303.466 183.763 302.994 183.763ZM302.688 185.385C302.566 185.385 302.439 185.37 302.308 185.341C302.181 185.312 302.077 185.275 301.994 185.231L302.184 184.684C302.247 184.713 302.315 184.737 302.388 184.757C302.466 184.776 302.549 184.786 302.636 184.786C302.768 184.786 302.86 184.766 302.914 184.727C302.972 184.688 303.002 184.64 303.002 184.581C303.002 184.523 302.975 184.477 302.921 184.443C302.873 184.413 302.79 184.399 302.673 184.399H302.403L302.593 183.596H303.316L303.213 184.034C303.437 184.058 303.598 184.129 303.695 184.245C303.793 184.362 303.841 184.489 303.841 184.625C303.841 184.859 303.737 185.044 303.527 185.18C303.318 185.316 303.038 185.385 302.688 185.385Z" fill="white"/>
<path d="M305.081 183.661L307.338 178.549H308.762L311.025 183.661H309.521L307.754 179.258H308.323L306.556 183.661H305.081ZM306.315 182.668L306.688 181.602H309.185L309.558 182.668H306.315ZM308.637 178.192C308.506 178.192 308.387 178.17 308.28 178.126C308.177 178.077 308.085 178.024 308.002 177.965C307.919 177.902 307.841 177.848 307.768 177.805C307.695 177.756 307.622 177.731 307.549 177.731C307.457 177.731 307.379 177.768 307.316 177.841C307.257 177.914 307.223 178.009 307.213 178.126H306.52C306.529 177.775 306.617 177.49 306.783 177.271C306.948 177.052 307.177 176.943 307.469 176.943C307.605 176.943 307.725 176.967 307.827 177.016C307.929 177.06 308.022 177.113 308.104 177.176C308.192 177.235 308.272 177.288 308.345 177.337C308.418 177.381 308.489 177.403 308.557 177.403C308.654 177.403 308.732 177.369 308.791 177.301C308.854 177.228 308.888 177.135 308.893 177.023H309.579C309.575 177.369 309.489 177.651 309.324 177.87C309.158 178.084 308.93 178.192 308.637 178.192Z" fill="white"/>
<path d="M313.942 183.763C313.533 183.763 313.156 183.698 312.81 183.566C312.464 183.435 312.162 183.25 311.904 183.011C311.651 182.768 311.454 182.486 311.313 182.164C311.172 181.843 311.101 181.49 311.101 181.105C311.101 180.721 311.172 180.368 311.313 180.046C311.454 179.725 311.651 179.445 311.904 179.207C312.162 178.963 312.464 178.776 312.81 178.644C313.156 178.513 313.533 178.447 313.942 178.447C314.356 178.447 314.733 178.513 315.074 178.644C315.419 178.776 315.719 178.963 315.972 179.207C316.225 179.445 316.422 179.725 316.563 180.046C316.709 180.368 316.783 180.721 316.783 181.105C316.783 181.49 316.709 181.845 316.563 182.171C316.422 182.493 316.225 182.773 315.972 183.011C315.719 183.25 315.419 183.435 315.074 183.566C314.733 183.698 314.356 183.763 313.942 183.763ZM313.942 182.566C314.137 182.566 314.317 182.532 314.482 182.464C314.653 182.395 314.799 182.298 314.92 182.171C315.047 182.04 315.144 181.884 315.212 181.704C315.285 181.524 315.322 181.324 315.322 181.105C315.322 180.881 315.285 180.682 315.212 180.506C315.144 180.326 315.047 180.173 314.92 180.046C314.799 179.915 314.653 179.815 314.482 179.747C314.317 179.679 314.137 179.645 313.942 179.645C313.747 179.645 313.564 179.679 313.394 179.747C313.229 179.815 313.082 179.915 312.956 180.046C312.834 180.173 312.737 180.326 312.664 180.506C312.596 180.682 312.562 180.881 312.562 181.105C312.562 181.324 312.596 181.524 312.664 181.704C312.737 181.884 312.834 182.04 312.956 182.171C313.082 182.298 313.229 182.395 313.394 182.464C313.564 182.532 313.747 182.566 313.942 182.566Z" fill="white"/>
<path d="M319.665 183.661V178.549H323.674V179.667H321.096V182.544H323.769V183.661H319.665ZM320.994 181.609V180.528H323.367V181.609H320.994Z" fill="white"/>
<path d="M324.571 183.661V178.549H325.762L327.88 182.025H327.252L329.311 178.549H330.501L330.516 183.661H329.187L329.172 180.572H329.398L327.858 183.157H327.215L325.63 180.572H325.908V183.661H324.571Z" fill="white"/>
<path d="M336.22 183.763C335.816 183.763 335.441 183.7 335.095 183.574C334.75 183.442 334.45 183.257 334.197 183.019C333.949 182.78 333.754 182.5 333.613 182.179C333.472 181.853 333.401 181.495 333.401 181.105C333.401 180.716 333.472 180.36 333.613 180.039C333.754 179.713 333.951 179.431 334.204 179.192C334.458 178.953 334.757 178.771 335.103 178.644C335.453 178.513 335.835 178.447 336.249 178.447C336.731 178.447 337.162 178.527 337.542 178.688C337.922 178.849 338.236 179.08 338.484 179.382L337.564 180.214C337.388 180.025 337.199 179.883 336.994 179.791C336.794 179.693 336.571 179.645 336.322 179.645C336.103 179.645 335.904 179.679 335.723 179.747C335.543 179.815 335.39 179.915 335.263 180.046C335.137 180.173 335.037 180.326 334.964 180.506C334.896 180.682 334.862 180.881 334.862 181.105C334.862 181.32 334.896 181.517 334.964 181.697C335.037 181.877 335.137 182.033 335.263 182.164C335.39 182.291 335.541 182.391 335.716 182.464C335.896 182.532 336.093 182.566 336.308 182.566C336.522 182.566 336.731 182.532 336.936 182.464C337.14 182.391 337.347 182.269 337.556 182.098L338.367 183.114C338.075 183.323 337.737 183.484 337.352 183.596C336.967 183.707 336.59 183.763 336.22 183.763ZM338.367 183.114L337.089 182.924V180.996H338.367V183.114Z" fill="white"/>
<path d="M339.284 183.661V178.549H343.293V179.667H340.715V182.544H343.388V183.661H339.284ZM340.613 181.609V180.528H342.986V181.609H340.613Z" fill="white"/>
<path d="M344.19 183.661V178.549H346.476C347.221 178.549 347.793 178.72 348.192 179.061C348.596 179.396 348.798 179.857 348.798 180.441C348.798 180.825 348.706 181.159 348.521 181.441C348.336 181.719 348.073 181.933 347.732 182.084C347.396 182.23 346.994 182.303 346.527 182.303H344.993L345.636 181.697V183.661H344.19ZM347.352 183.661L346.082 181.799H347.622L348.9 183.661H347.352ZM345.636 181.85L344.993 181.186H346.439C346.741 181.186 346.965 181.12 347.111 180.988C347.262 180.857 347.338 180.674 347.338 180.441C347.338 180.202 347.262 180.017 347.111 179.886C346.965 179.754 346.741 179.689 346.439 179.689H344.993L345.636 179.024V181.85Z" fill="white"/>
<path d="M348.982 183.661L351.239 178.549H352.663L354.927 183.661H353.422L351.655 179.258H352.225L350.458 183.661H348.982ZM350.217 182.668L350.589 181.602H353.086L353.459 182.668H350.217Z" fill="white"/>
<path d="M355.337 183.661V178.549H356.783V182.515H359.222V183.661H355.337Z" fill="white"/>
</svg>
