<svg width="398" height="150" viewBox="0 0 398 150" fill="none" xmlns="http://www.w3.org/2000/svg">
<path d="M2.70197 16.5953V3.81563H8.54408C9.7125 3.81563 10.7166 4.00428 11.5564 4.38159C12.4084 4.75889 13.0656 5.30659 13.5281 6.02468C13.9906 6.73061 14.2219 7.57041 14.2219 8.5441C14.2219 9.50561 13.9906 10.3393 13.5281 11.0453C13.0656 11.7512 12.4084 12.2989 11.5564 12.6883C10.7166 13.0657 9.7125 13.2543 8.54408 13.2543H4.7102L6.31678 11.6842V16.5953H2.70197ZM6.31678 12.0676L4.7102 10.4063H8.325C9.07961 10.4063 9.63948 10.242 10.0046 9.91334C10.3819 9.58472 10.5706 9.12831 10.5706 8.5441C10.5706 7.94771 10.3819 7.48521 10.0046 7.15659C9.63948 6.82797 9.07961 6.66366 8.325 6.66366H4.7102L6.31678 5.00231V12.0676Z" fill="#7EB647"/>
<path d="M21.7564 16.8509C19.8699 16.8509 18.3972 16.3336 17.3383 15.299C16.2795 14.2645 15.75 12.7979 15.75 10.8992V3.81563H19.3648V10.7897C19.3648 11.8851 19.5778 12.6701 20.0038 13.1448C20.442 13.6194 21.0383 13.8568 21.7929 13.8568C22.5475 13.8568 23.1378 13.6194 23.5638 13.1448C23.9898 12.6701 24.2028 11.8851 24.2028 10.7897V3.81563H27.7628V10.8992C27.7628 12.7979 27.2334 14.2645 26.1745 15.299C25.1156 16.3336 23.6429 16.8509 21.7564 16.8509ZM20.0038 2.77501L22.4502 0H25.9189L22.4867 2.77501H20.0038Z" fill="#7EB647"/>
<path d="M30.2117 16.5953V3.81563H36.7475C38.4271 3.81563 39.6807 4.12599 40.5084 4.74672C41.336 5.35527 41.7498 6.15856 41.7498 7.15659C41.7498 7.81383 41.5733 8.39196 41.2204 8.89097C40.8796 9.37781 40.3927 9.76729 39.7599 10.0594C39.1391 10.3393 38.3967 10.4793 37.5325 10.4793L37.8977 9.60298C38.7983 9.60298 39.5834 9.74295 40.2528 10.0229C40.9222 10.2906 41.4395 10.6862 41.8046 11.2096C42.1819 11.7207 42.3705 12.3476 42.3705 13.09C42.3705 14.1976 41.9202 15.0617 41.0196 15.6824C40.1311 16.291 38.8288 16.5953 37.1126 16.5953H30.2117ZM33.7899 13.9846H36.8205C37.4413 13.9846 37.9099 13.8811 38.2263 13.6742C38.5549 13.4551 38.7192 13.1265 38.7192 12.6883C38.7192 12.2502 38.5549 11.9277 38.2263 11.7207C37.9099 11.5017 37.4413 11.3921 36.8205 11.3921H33.5344V8.89097H36.2728C36.8814 8.89097 37.3378 8.78752 37.6421 8.58061C37.9464 8.3737 38.0985 8.06334 38.0985 7.64952C38.0985 7.2357 37.9464 6.93143 37.6421 6.73669C37.3378 6.52978 36.8814 6.42633 36.2728 6.42633H33.7899V13.9846Z" fill="#7EB647"/>
<path d="M44.2428 16.5953V3.81563H47.8576V13.729H53.9553V16.5953H44.2428Z" fill="#7EB647"/>
<path d="M55.3858 16.5953V3.81563H59.0006V16.5953H55.3858Z" fill="#7EB647"/>
<path d="M68.0169 16.8509C66.9945 16.8509 66.0513 16.6865 65.1871 16.3579C64.323 16.0293 63.5684 15.5668 62.9233 14.9704C62.2904 14.3619 61.7975 13.6559 61.4445 12.8527C61.0916 12.0494 60.9151 11.167 60.9151 10.2054C60.9151 9.24393 61.0916 8.36153 61.4445 7.55824C61.7975 6.75495 62.2904 6.05511 62.9233 5.45873C63.5684 4.85017 64.323 4.38159 65.1871 4.05297C66.0513 3.72435 66.9945 3.56004 68.0169 3.56004C69.0514 3.56004 69.9947 3.72435 70.8467 4.05297C71.7108 4.38159 72.4593 4.85017 73.0922 5.45873C73.7251 6.05511 74.2181 6.75495 74.571 7.55824C74.9362 8.36153 75.1187 9.24393 75.1187 10.2054C75.1187 11.167 74.9362 12.0555 74.571 12.8709C74.2181 13.6742 73.7251 14.374 73.0922 14.9704C72.4593 15.5668 71.7108 16.0293 70.8467 16.3579C69.9947 16.6865 69.0514 16.8509 68.0169 16.8509ZM68.0169 13.8568C68.5038 13.8568 68.9541 13.7716 69.3679 13.6012C69.7939 13.4308 70.159 13.1874 70.4633 12.8709C70.7797 12.5423 71.0232 12.1528 71.1936 11.7025C71.3761 11.2522 71.4674 10.7531 71.4674 10.2054C71.4674 9.64558 71.3761 9.14656 71.1936 8.70841C71.0232 8.25808 70.7797 7.87469 70.4633 7.55824C70.159 7.22962 69.7939 6.98011 69.3679 6.80972C68.9541 6.63932 68.5038 6.55412 68.0169 6.55412C67.5301 6.55412 67.0737 6.63932 66.6477 6.80972C66.2338 6.98011 65.8687 7.22962 65.5523 7.55824C65.248 7.87469 65.0046 8.25808 64.822 8.70841C64.6516 9.14656 64.5664 9.64558 64.5664 10.2054C64.5664 10.7531 64.6516 11.2522 64.822 11.7025C65.0046 12.1528 65.248 12.5423 65.5523 12.8709C65.8687 13.1874 66.2338 13.4308 66.6477 13.6012C67.0737 13.7716 67.5301 13.8568 68.0169 13.8568Z" fill="#7EB647"/>
<path d="M76.646 12.7249V10.0594H81.9769V12.7249H76.646Z" fill="#7EB647"/>
<path d="M82.1107 16.5953L87.752 3.81563H91.312L96.9716 16.5953H93.2107L88.7926 5.58652H90.2166L85.7985 16.5953H82.1107ZM85.1961 14.1124L86.1272 11.4469H92.3709L93.302 14.1124H85.1961Z" fill="#7EB647"/>
<path d="M97.9964 16.5953V3.81563H101.611V13.729H107.709V16.5953H97.9964Z" fill="#7EB647"/>
<path d="M112.209 16.5953L106.75 3.81563H110.657L115.258 14.8791H112.957L117.667 3.81563H121.246L115.769 16.5953H112.209Z" fill="#7EB647"/>
<path d="M128.278 16.8509C127.256 16.8509 126.312 16.6865 125.448 16.3579C124.584 16.0293 123.829 15.5668 123.184 14.9704C122.551 14.3619 122.058 13.6559 121.706 12.8527C121.353 12.0494 121.176 11.167 121.176 10.2054C121.176 9.24393 121.353 8.36153 121.706 7.55824C122.058 6.75495 122.551 6.05511 123.184 5.45873C123.829 4.85017 124.584 4.38159 125.448 4.05297C126.312 3.72435 127.256 3.56004 128.278 3.56004C129.312 3.56004 130.256 3.72435 131.108 4.05297C131.972 4.38159 132.72 4.85017 133.353 5.45873C133.986 6.05511 134.479 6.75495 134.832 7.55824C135.197 8.36153 135.38 9.24393 135.38 10.2054C135.38 11.167 135.197 12.0555 134.832 12.8709C134.479 13.6742 133.986 14.374 133.353 14.9704C132.72 15.5668 131.972 16.0293 131.108 16.3579C130.256 16.6865 129.312 16.8509 128.278 16.8509ZM128.278 13.8568C128.765 13.8568 129.215 13.7716 129.629 13.6012C130.055 13.4308 130.42 13.1874 130.724 12.8709C131.041 12.5423 131.284 12.1528 131.455 11.7025C131.637 11.2522 131.728 10.7531 131.728 10.2054C131.728 9.64558 131.637 9.14656 131.455 8.70841C131.284 8.25808 131.041 7.87469 130.724 7.55824C130.42 7.22962 130.055 6.98011 129.629 6.80972C129.215 6.63932 128.765 6.55412 128.278 6.55412C127.791 6.55412 127.335 6.63932 126.909 6.80972C126.495 6.98011 126.13 7.22962 125.813 7.55824C125.509 7.87469 125.266 8.25808 125.083 8.70841C124.913 9.14656 124.827 9.64558 124.827 10.2054C124.827 10.7531 124.913 11.2522 125.083 11.7025C125.266 12.1528 125.509 12.5423 125.813 12.8709C126.13 13.1874 126.495 13.4308 126.909 13.6012C127.335 13.7716 127.791 13.8568 128.278 13.8568Z" fill="#7EB647"/>
<path d="M142.586 20.137V3.04885H145.763V20.137H142.586Z" fill="white"/>
<path d="M160.011 16.8509C159.001 16.8509 158.064 16.6926 157.2 16.3762C156.348 16.0476 155.605 15.5851 154.972 14.9887C154.352 14.3923 153.865 13.6925 153.512 12.8892C153.159 12.0737 152.982 11.1791 152.982 10.2054C152.982 9.23176 153.159 8.34327 153.512 7.53998C153.865 6.72452 154.352 6.0186 154.972 5.42221C155.605 4.82583 156.348 4.36942 157.2 4.05297C158.064 3.72435 159.001 3.56004 160.011 3.56004C161.192 3.56004 162.245 3.76695 163.17 4.18077C164.107 4.59458 164.886 5.19096 165.507 5.96991L163.206 8.05117C162.792 7.56432 162.336 7.19311 161.837 6.93751C161.35 6.68192 160.802 6.55412 160.194 6.55412C159.67 6.55412 159.19 6.63932 158.752 6.80972C158.313 6.98011 157.936 7.22962 157.62 7.55824C157.315 7.87469 157.072 8.25808 156.889 8.70841C156.719 9.15874 156.634 9.65775 156.634 10.2054C156.634 10.7531 156.719 11.2522 156.889 11.7025C157.072 12.1528 157.315 12.5423 157.62 12.8709C157.936 13.1874 158.313 13.4308 158.752 13.6012C159.19 13.7716 159.67 13.8568 160.194 13.8568C160.802 13.8568 161.35 13.729 161.837 13.4734C162.336 13.2178 162.792 12.8466 163.206 12.3597L165.507 14.441C164.886 15.2078 164.107 15.8041 163.17 16.2301C162.245 16.6439 161.192 16.8509 160.011 16.8509Z" fill="#7EB647"/>
<path d="M172.903 16.8509C171.881 16.8509 170.938 16.6865 170.073 16.3579C169.209 16.0293 168.455 15.5668 167.81 14.9704C167.177 14.3619 166.684 13.6559 166.331 12.8527C165.978 12.0494 165.801 11.167 165.801 10.2054C165.801 9.24393 165.978 8.36153 166.331 7.55824C166.684 6.75495 167.177 6.05511 167.81 5.45873C168.455 4.85017 169.209 4.38159 170.073 4.05297C170.938 3.72435 171.881 3.56004 172.903 3.56004C173.938 3.56004 174.881 3.72435 175.733 4.05297C176.597 4.38159 177.346 4.85017 177.978 5.45873C178.611 6.05511 179.104 6.75495 179.457 7.55824C179.822 8.36153 180.005 9.24393 180.005 10.2054C180.005 11.167 179.822 12.0555 179.457 12.8709C179.104 13.6742 178.611 14.374 177.978 14.9704C177.346 15.5668 176.597 16.0293 175.733 16.3579C174.881 16.6865 173.938 16.8509 172.903 16.8509ZM172.903 13.8568C173.39 13.8568 173.84 13.7716 174.254 13.6012C174.68 13.4308 175.045 13.1874 175.35 12.8709C175.666 12.5423 175.909 12.1528 176.08 11.7025C176.262 11.2522 176.354 10.7531 176.354 10.2054C176.354 9.64558 176.262 9.14656 176.08 8.70841C175.909 8.25808 175.666 7.87469 175.35 7.55824C175.045 7.22962 174.68 6.98011 174.254 6.80972C173.84 6.63932 173.39 6.55412 172.903 6.55412C172.416 6.55412 171.96 6.63932 171.534 6.80972C171.12 6.98011 170.755 7.22962 170.439 7.55824C170.134 7.87469 169.891 8.25808 169.708 8.70841C169.538 9.14656 169.453 9.64558 169.453 10.2054C169.453 10.7531 169.538 11.2522 169.708 11.7025C169.891 12.1528 170.134 12.5423 170.439 12.8709C170.755 13.1874 171.12 13.4308 171.534 13.6012C171.96 13.7716 172.416 13.8568 172.903 13.8568Z" fill="#7EB647"/>
<path d="M181.898 16.5953V3.81563H184.874L190.168 12.5058H188.598L193.747 3.81563H196.723L196.759 16.5953H193.436L193.4 8.87271H193.966L190.114 15.3356H188.507L184.545 8.87271H185.239V16.5953H181.898Z" fill="#7EB647"/>
<path d="M205.214 16.8509C203.327 16.8509 201.855 16.3336 200.796 15.299C199.737 14.2645 199.207 12.7979 199.207 10.8992V3.81563H202.822V10.7897C202.822 11.8851 203.035 12.6701 203.461 13.1448C203.899 13.6194 204.496 13.8568 205.25 13.8568C206.005 13.8568 206.595 13.6194 207.021 13.1448C207.447 12.6701 207.66 11.8851 207.66 10.7897V3.81563H211.22V10.8992C211.22 12.7979 210.691 14.2645 209.632 15.299C208.573 16.3336 207.1 16.8509 205.214 16.8509Z" fill="#7EB647"/>
<path d="M213.669 16.5953V3.81563H216.645L223.692 12.3232H222.286V3.81563H225.828V16.5953H222.852L215.805 8.08768H217.211V16.5953H213.669Z" fill="#7EB647"/>
<path d="M228.378 16.5953V3.81563H231.992V16.5953H228.378Z" fill="#7EB647"/>
<path d="M234.564 16.5953V3.81563H240.607C242.019 3.81563 243.26 4.07731 244.331 4.60067C245.403 5.12402 246.236 5.86037 246.833 6.80972C247.441 7.75906 247.745 8.89097 247.745 10.2054C247.745 11.5078 247.441 12.6397 246.833 13.6012C246.236 14.5505 245.403 15.2869 244.331 15.8102C243.26 16.3336 242.019 16.5953 240.607 16.5953H234.564ZM238.179 13.7107H240.461C241.191 13.7107 241.824 13.5768 242.36 13.3091C242.907 13.0291 243.333 12.6275 243.638 12.1041C243.942 11.5686 244.094 10.9357 244.094 10.2054C244.094 9.46301 243.942 8.83012 243.638 8.30676C243.333 7.7834 242.907 7.38784 242.36 7.12008C241.824 6.84015 241.191 6.70018 240.461 6.70018H238.179V13.7107Z" fill="#7EB647"/>
<path d="M247.935 16.5953L253.577 3.81563H257.137L262.796 16.5953H259.035L254.617 5.58652H256.041L251.623 16.5953H247.935ZM251.021 14.1124L251.952 11.4469H258.196L259.127 14.1124H251.021Z" fill="#7EB647"/>
<path d="M263.821 16.5953V3.81563H269.864C271.276 3.81563 272.517 4.07731 273.588 4.60067C274.659 5.12402 275.493 5.86037 276.09 6.80972C276.698 7.75906 277.002 8.89097 277.002 10.2054C277.002 11.5078 276.698 12.6397 276.09 13.6012C275.493 14.5505 274.659 15.2869 273.588 15.8102C272.517 16.3336 271.276 16.5953 269.864 16.5953H263.821ZM267.436 13.7107H269.718C270.448 13.7107 271.081 13.5768 271.617 13.3091C272.164 13.0291 272.59 12.6275 272.895 12.1041C273.199 11.5686 273.351 10.9357 273.351 10.2054C273.351 9.46301 273.199 8.83012 272.895 8.30676C272.59 7.7834 272.164 7.38784 271.617 7.12008C271.081 6.84015 270.448 6.70018 269.718 6.70018H267.436V13.7107Z" fill="#7EB647"/>
<path d="M278.904 16.5953V3.81563H288.927V6.60889H282.482V13.802H289.164V16.5953H278.904ZM282.227 11.4652V8.76318H288.16V11.4652H282.227Z" fill="#7EB647"/>
<path d="M296.483 16.5953V3.81563H306.506V6.60889H300.062V13.802H306.743V16.5953H296.483ZM299.806 11.4652V8.76318H305.739V11.4652H299.806Z" fill="#7EB647"/>
<path d="M308.749 16.5953V3.81563H311.725L317.02 12.5058H315.45L320.598 3.81563H323.574L323.61 16.5953H320.288L320.251 8.87271H320.817L316.965 15.3356H315.358L311.397 8.87271H312.09V16.5953H308.749Z" fill="#7EB647"/>
<path d="M337.871 16.8509C336.861 16.8509 335.923 16.6926 335.059 16.3762C334.195 16.0476 333.447 15.5851 332.814 14.9887C332.193 14.3923 331.706 13.6925 331.353 12.8892C331 12.0737 330.824 11.1791 330.824 10.2054C330.824 9.23176 331 8.34327 331.353 7.53998C331.706 6.72452 332.199 6.0186 332.832 5.42221C333.465 4.82583 334.213 4.36942 335.078 4.05297C335.954 3.72435 336.909 3.56004 337.944 3.56004C339.149 3.56004 340.226 3.76086 341.175 4.16251C342.125 4.56415 342.91 5.14228 343.53 5.89689L341.23 7.97814C340.792 7.50347 340.317 7.15051 339.806 6.91926C339.307 6.67584 338.747 6.55412 338.126 6.55412C337.579 6.55412 337.08 6.63932 336.629 6.80972C336.179 6.98011 335.796 7.22962 335.479 7.55824C335.163 7.87469 334.913 8.25808 334.731 8.70841C334.56 9.14656 334.475 9.64558 334.475 10.2054C334.475 10.741 334.56 11.2339 334.731 11.6842C334.913 12.1346 335.163 12.524 335.479 12.8527C335.796 13.1691 336.173 13.4186 336.611 13.6012C337.061 13.7716 337.554 13.8568 338.09 13.8568C338.625 13.8568 339.149 13.7716 339.66 13.6012C340.171 13.4186 340.688 13.1143 341.212 12.6883L343.238 15.226C342.508 15.7494 341.662 16.151 340.701 16.431C339.739 16.7109 338.796 16.8509 337.871 16.8509ZM343.238 15.226L340.043 14.7513V9.9316H343.238V15.226Z" fill="#7EB647"/>
<path d="M345.53 16.5953V3.81563H355.553V6.60889H349.108V13.802H355.79V16.5953H345.53ZM348.853 11.4652V8.76318H354.786V11.4652H348.853Z" fill="#7EB647"/>
<path d="M357.796 16.5953V3.81563H363.51C365.373 3.81563 366.803 4.24162 367.801 5.0936C368.811 5.9334 369.316 7.08357 369.316 8.5441C369.316 9.50561 369.085 10.3393 368.622 11.0453C368.16 11.739 367.503 12.2745 366.651 12.6518C365.811 13.017 364.807 13.1995 363.638 13.1995H359.804L361.411 11.6842V16.5953H357.796ZM365.701 16.5953L362.525 11.9398H366.377L369.572 16.5953H365.701ZM361.411 12.0676L359.804 10.4063H363.419C364.174 10.4063 364.734 10.242 365.099 9.91334C365.476 9.58472 365.665 9.12831 365.665 8.5441C365.665 7.94771 365.476 7.48521 365.099 7.15659C364.734 6.82797 364.174 6.66366 363.419 6.66366H359.804L361.411 5.00231V12.0676Z" fill="#7EB647"/>
<path d="M369.777 16.5953L375.418 3.81563H378.978L384.638 16.5953H380.877L376.459 5.58652H377.883L373.465 16.5953H369.777ZM372.862 14.1124L373.793 11.4469H380.037L380.968 14.1124H372.862Z" fill="#7EB647"/>
<path d="M385.662 16.5953V3.81563H389.277V13.729H395.375V16.5953H385.662Z" fill="#7EB647"/>
<path d="M4.49112 105.444V89.5609L32.2046 63.9286C33.9573 62.249 35.2352 60.7884 36.0385 59.547C36.9148 58.3055 37.499 57.2101 37.7911 56.2608C38.0832 55.2384 38.2293 54.2891 38.2293 53.4128C38.2293 51.5141 37.6086 50.0535 36.3671 49.0312C35.1257 47.9358 33.2635 47.3881 30.7806 47.3881C28.5168 47.3881 26.3625 48.0088 24.3178 49.2503C22.273 50.4187 20.6665 52.1713 19.498 54.5082L0 44.7591C2.775 39.5012 6.9375 35.2292 12.4875 31.943C18.0375 28.6568 24.9385 27.0137 33.1905 27.0137C39.2517 27.0137 44.6191 27.9996 49.2928 29.9713C53.9665 31.943 57.6178 34.718 60.2467 38.2963C62.8757 41.8746 64.1902 46.1101 64.1902 51.0029C64.1902 53.4858 63.8615 55.9687 63.2043 58.4516C62.6201 60.9345 61.3786 63.5634 59.48 66.3384C57.5813 69.0404 54.7698 72.071 51.0454 75.4302L30.2329 94.3806L26.1799 85.3984H65.9428V105.444H4.49112Z" fill="white"/>
<path d="M105.968 107.197C99.1769 107.197 93.1522 105.627 87.8943 102.487C82.7095 99.3464 78.62 94.7823 75.6259 88.7941C72.7049 82.8059 71.2443 75.5763 71.2443 67.1052C71.2443 58.6342 72.7049 51.4045 75.6259 45.4164C78.62 39.4282 82.7095 34.864 87.8943 31.7239C93.1522 28.5838 99.1769 27.0137 105.968 27.0137C112.76 27.0137 118.748 28.5838 123.933 31.7239C129.191 34.864 133.28 39.4282 136.201 45.4164C139.195 51.4045 140.692 58.6342 140.692 67.1052C140.692 75.5763 139.195 82.8059 136.201 88.7941C133.28 94.7823 129.191 99.3464 123.933 102.487C118.748 105.627 112.76 107.197 105.968 107.197ZM105.968 86.4938C107.648 86.4938 109.145 85.9095 110.459 84.7411C111.774 83.5727 112.796 81.5645 113.527 78.7164C114.33 75.8684 114.732 71.998 114.732 67.1052C114.732 62.1394 114.33 58.269 113.527 55.494C112.796 52.646 111.774 50.6378 110.459 49.4693C109.145 48.3009 107.648 47.7167 105.968 47.7167C104.289 47.7167 102.792 48.3009 101.477 49.4693C100.163 50.6378 99.1039 52.646 98.3006 55.494C97.5703 58.269 97.2052 62.1394 97.2052 67.1052C97.2052 71.998 97.5703 75.8684 98.3006 78.7164C99.1039 81.5645 100.163 83.5727 101.477 84.7411C102.792 85.9095 104.289 86.4938 105.968 86.4938Z" fill="white"/>
<path d="M181.812 107.197C175.02 107.197 168.996 105.627 163.738 102.487C158.553 99.3464 154.463 94.7823 151.469 88.7941C148.548 82.8059 147.088 75.5763 147.088 67.1052C147.088 58.6342 148.548 51.4045 151.469 45.4164C154.463 39.4282 158.553 34.864 163.738 31.7239C168.996 28.5838 175.02 27.0137 181.812 27.0137C188.603 27.0137 194.591 28.5838 199.776 31.7239C205.034 34.864 209.124 39.4282 212.045 45.4164C215.039 51.4045 216.536 58.6342 216.536 67.1052C216.536 75.5763 215.039 82.8059 212.045 88.7941C209.124 94.7823 205.034 99.3464 199.776 102.487C194.591 105.627 188.603 107.197 181.812 107.197ZM181.812 86.4938C183.491 86.4938 184.988 85.9095 186.303 84.7411C187.617 83.5727 188.64 81.5645 189.37 78.7164C190.173 75.8684 190.575 71.998 190.575 67.1052C190.575 62.1394 190.173 58.269 189.37 55.494C188.64 52.646 187.617 50.6378 186.303 49.4693C184.988 48.3009 183.491 47.7167 181.812 47.7167C180.132 47.7167 178.635 48.3009 177.321 49.4693C176.006 50.6378 174.947 52.646 174.144 55.494C173.414 58.269 173.048 62.1394 173.048 67.1052C173.048 71.998 173.414 75.8684 174.144 78.7164C174.947 81.5645 176.006 83.5727 177.321 84.7411C178.635 85.9095 180.132 86.4938 181.812 86.4938Z" fill="white"/>
<path d="M5.27737 149.26V116.885H14.2499L27.1999 138.021H22.4824L35.0624 116.885H44.0349L44.1274 149.26H34.1836L34.0911 131.87H35.6636L27.0611 146.346H22.2511L13.2786 131.87H15.2211V149.26H5.27737Z" fill="white"/>
<path d="M49.4046 149.26V116.885H60.3196V149.26H49.4046Z" fill="white"/>
<path d="M65.574 149.26V116.885H76.489V140.796H91.104V149.26H65.574Z" fill="white"/>
<path d="M118.16 149.26L104.47 116.885H116.217L127.364 144.219H120.38L131.85 116.885H142.58L128.89 149.26H118.16Z" fill="white"/>
<path d="M143.666 149.26V116.885H154.581V149.26H143.666Z" fill="white"/>
<path d="M171.907 150C169.193 150 166.573 149.692 164.044 149.075C161.516 148.458 159.435 147.657 157.801 146.67L161.316 138.715C162.857 139.609 164.568 140.334 166.449 140.889C168.361 141.413 170.211 141.675 171.999 141.675C173.048 141.675 173.865 141.613 174.451 141.49C175.067 141.336 175.514 141.135 175.792 140.889C176.069 140.611 176.208 140.287 176.208 139.917C176.208 139.332 175.884 138.869 175.237 138.53C174.589 138.191 173.726 137.913 172.647 137.697C171.598 137.451 170.442 137.204 169.178 136.957C167.914 136.68 166.634 136.325 165.339 135.894C164.075 135.462 162.903 134.892 161.824 134.182C160.776 133.473 159.928 132.548 159.281 131.407C158.633 130.236 158.309 128.787 158.309 127.06C158.309 125.056 158.864 123.237 159.974 121.602C161.115 119.937 162.796 118.612 165.016 117.625C167.266 116.638 170.057 116.145 173.387 116.145C175.576 116.145 177.734 116.376 179.862 116.839C181.989 117.301 183.901 118.01 185.597 118.966L182.313 126.875C180.71 126.073 179.153 125.472 177.642 125.071C176.162 124.67 174.713 124.47 173.294 124.47C172.246 124.47 171.413 124.562 170.797 124.747C170.18 124.932 169.733 125.179 169.456 125.487C169.209 125.796 169.086 126.135 169.086 126.505C169.086 127.06 169.409 127.507 170.057 127.846C170.704 128.155 171.552 128.417 172.601 128.632C173.68 128.848 174.851 129.08 176.116 129.326C177.411 129.573 178.69 129.912 179.954 130.344C181.218 130.775 182.375 131.346 183.423 132.055C184.502 132.764 185.366 133.689 186.013 134.83C186.661 135.971 186.984 137.389 186.984 139.085C186.984 141.058 186.414 142.877 185.273 144.542C184.163 146.177 182.498 147.502 180.278 148.52C178.058 149.507 175.268 150 171.907 150Z" fill="white"/>
<path d="M190.232 149.26V116.885H201.147V149.26H190.232Z" fill="white"/>
<path d="M213.432 149.26V125.349H203.95V116.885H233.828V125.349H224.347V149.26H213.432Z" fill="white"/>
<path d="M231.522 149.26L245.674 116.885H256.404L270.557 149.26H259.272L248.819 122.065H253.074L242.622 149.26H231.522ZM239.939 143.617L242.714 135.755H257.607L260.382 143.617H239.939Z" fill="white"/>
<path d="M272.299 149.26V116.885H281.271L297.736 136.587H293.574V116.885H304.211V149.26H295.239L278.774 129.557H282.936V149.26H272.299Z" fill="white"/>
<path d="M316.501 149.26V125.349H307.019V116.885H336.897V125.349H327.416V149.26H316.501Z" fill="white"/>
<path d="M339.732 149.26V116.885H366.048V125.117H350.462V141.027H366.649V149.26H339.732ZM349.722 136.772V128.91H364.152V136.772H349.722Z" fill="white"/>
<path d="M382.922 150C380.209 150 377.588 149.692 375.06 149.075C372.532 148.458 370.45 147.657 368.816 146.67L372.331 138.715C373.873 139.609 375.584 140.334 377.465 140.889C379.377 141.413 381.227 141.675 383.015 141.675C384.063 141.675 384.88 141.613 385.466 141.49C386.083 141.336 386.53 141.135 386.808 140.889C387.085 140.611 387.224 140.287 387.224 139.917C387.224 139.332 386.9 138.869 386.253 138.53C385.605 138.191 384.742 137.913 383.663 137.697C382.614 137.451 381.458 137.204 380.194 136.957C378.93 136.68 377.65 136.325 376.355 135.894C375.091 135.462 373.919 134.892 372.84 134.182C371.792 133.473 370.944 132.548 370.296 131.407C369.649 130.236 369.325 128.787 369.325 127.06C369.325 125.056 369.88 123.237 370.99 121.602C372.131 119.937 373.811 118.612 376.031 117.625C378.282 116.638 381.073 116.145 384.402 116.145C386.592 116.145 388.75 116.376 390.878 116.839C393.005 117.301 394.917 118.01 396.613 118.966L393.329 126.875C391.725 126.073 390.168 125.472 388.658 125.071C387.178 124.67 385.728 124.47 384.31 124.47C383.262 124.47 382.429 124.562 381.812 124.747C381.196 124.932 380.749 125.179 380.471 125.487C380.225 125.796 380.101 126.135 380.101 126.505C380.101 127.06 380.425 127.507 381.073 127.846C381.72 128.155 382.568 128.417 383.616 128.632C384.695 128.848 385.867 129.08 387.131 129.326C388.426 129.573 389.706 129.912 390.97 130.344C392.234 130.775 393.39 131.346 394.439 132.055C395.518 132.764 396.381 133.689 397.029 134.83C397.676 135.971 398 137.389 398 139.085C398 141.058 397.43 142.877 396.289 144.542C395.179 146.177 393.514 147.502 391.294 148.52C389.074 149.507 386.283 150 382.922 150Z" fill="white"/>
<path d="M238.76 22.6808H395.766V38.5032H238.76V22.6808Z" fill="#7EB647"/>
<path d="M238.76 40.9374H395.766V56.7598H238.76V40.9374Z" fill="#7EB647"/>
<path d="M238.76 59.194H395.766V75.0164H238.76V59.194Z" fill="#7EB647"/>
<path d="M238.76 77.4506H395.766V93.273H238.76V77.4506Z" fill="#7EB647"/>
<path d="M238.76 95.7073H395.766V111.53H238.76V95.7073Z" fill="#7EB647"/>
<path d="M242.922 33.6348V28.5229H246.931V29.6402H244.353V32.5175H247.026V33.6348H242.922ZM244.251 31.5827V30.5019H246.625V31.5827H244.251Z" fill="white"/>
<path d="M247.829 33.6348V28.5229H249.019L251.137 31.999H250.509L252.568 28.5229H253.758L253.773 33.6348H252.444L252.429 30.5458H252.656L251.115 33.1309H250.472L248.887 30.5458H249.165V33.6348H247.829Z" fill="white"/>
<path d="M254.796 33.6348V28.5229H257.133C257.6 28.5229 258.002 28.5984 258.338 28.7493C258.679 28.9002 258.941 29.1193 259.126 29.4065C259.311 29.6889 259.404 30.0248 259.404 30.4143C259.404 30.7989 259.311 31.1324 259.126 31.4148C258.941 31.6971 258.679 31.9162 258.338 32.072C258.002 32.2229 257.6 32.2984 257.133 32.2984H255.599L256.242 31.6704V33.6348H254.796ZM256.242 31.8237L255.599 31.1592H257.045C257.347 31.1592 257.571 31.0935 257.717 30.962C257.868 30.8306 257.943 30.648 257.943 30.4143C257.943 30.1758 257.868 29.9908 257.717 29.8593C257.571 29.7279 257.347 29.6621 257.045 29.6621H255.599L256.242 28.9976V31.8237Z" fill="white"/>
<path d="M260.109 33.6348V28.5229H262.395C263.14 28.5229 263.712 28.6933 264.111 29.0341C264.515 29.37 264.717 29.8301 264.717 30.4143C264.717 30.7989 264.624 31.1324 264.439 31.4148C264.254 31.6923 263.992 31.9065 263.651 32.0574C263.315 32.2035 262.913 32.2765 262.446 32.2765H260.912L261.555 31.6704V33.6348H260.109ZM263.271 33.6348L262 31.7726H263.541L264.819 33.6348H263.271ZM261.555 31.8237L260.912 31.1592H262.358C262.66 31.1592 262.884 31.0935 263.03 30.962C263.181 30.8306 263.256 30.648 263.256 30.4143C263.256 30.1758 263.181 29.9908 263.03 29.8593C262.884 29.7279 262.66 29.6621 262.358 29.6621H260.912L261.555 28.9976V31.8237Z" fill="white"/>
<path d="M265.515 33.6348V28.5229H269.524V29.6402H266.946V32.5175H269.619V33.6348H265.515ZM266.844 31.5827V30.5019H269.217V31.5827H266.844Z" fill="white"/>
<path d="M272.218 33.737C271.799 33.737 271.395 33.6859 271.005 33.5837C270.621 33.4765 270.307 33.3402 270.063 33.1747L270.538 32.1085C270.767 32.2546 271.03 32.3763 271.327 32.4736C271.628 32.5662 271.928 32.6124 272.225 32.6124C272.424 32.6124 272.585 32.5954 272.707 32.5613C272.829 32.5223 272.916 32.4737 272.97 32.4152C273.028 32.3519 273.057 32.2789 273.057 32.1962C273.057 32.0793 273.004 31.9868 272.897 31.9186C272.79 31.8505 272.651 31.7945 272.48 31.7507C272.31 31.7069 272.12 31.6631 271.911 31.6192C271.706 31.5754 271.499 31.5194 271.29 31.4513C271.086 31.3831 270.898 31.2955 270.728 31.1884C270.557 31.0764 270.419 30.9328 270.312 30.7575C270.204 30.5774 270.151 30.351 270.151 30.0784C270.151 29.7717 270.234 29.4942 270.399 29.2459C270.57 28.9976 270.823 28.798 271.159 28.6471C271.495 28.4961 271.913 28.4207 272.415 28.4207C272.751 28.4207 273.079 28.4596 273.401 28.5375C273.727 28.6105 274.016 28.7201 274.27 28.8661L273.824 29.9396C273.581 29.8082 273.34 29.7108 273.101 29.6475C272.863 29.5794 272.631 29.5453 272.407 29.5453C272.208 29.5453 272.047 29.5672 271.925 29.611C271.804 29.65 271.716 29.7035 271.663 29.7717C271.609 29.8398 271.582 29.9177 271.582 30.0054C271.582 30.1173 271.633 30.2074 271.736 30.2756C271.843 30.3388 271.981 30.3924 272.152 30.4362C272.327 30.4752 272.517 30.5165 272.721 30.5604C272.931 30.6042 273.138 30.6602 273.342 30.7283C273.552 30.7916 273.741 30.8792 273.912 30.9912C274.082 31.0983 274.219 31.2419 274.321 31.4221C274.428 31.5973 274.481 31.8188 274.481 32.0866C274.481 32.3836 274.396 32.6586 274.226 32.9118C274.06 33.1601 273.81 33.3597 273.474 33.5106C273.143 33.6615 272.724 33.737 272.218 33.737Z" fill="white"/>
<path d="M274.536 33.6348L276.792 28.5229H278.216L280.48 33.6348H278.976L277.209 29.2313H277.778L276.011 33.6348H274.536ZM275.77 32.6416L276.142 31.5754H278.64L279.012 32.6416H275.77ZM276.792 28.1067L277.771 26.9967H279.158L277.786 28.1067H276.792Z" fill="white"/>
<path d="M280.89 33.6348V28.5229H283.176C283.921 28.5229 284.493 28.6933 284.892 29.0341C285.296 29.37 285.498 29.8301 285.498 30.4143C285.498 30.7989 285.406 31.1324 285.221 31.4148C285.036 31.6923 284.773 31.9065 284.432 32.0574C284.096 32.2035 283.694 32.2765 283.227 32.2765H281.693L282.336 31.6704V33.6348H280.89ZM284.052 33.6348L282.781 31.7726H284.322L285.6 33.6348H284.052ZM282.336 31.8237L281.693 31.1592H283.139C283.441 31.1592 283.665 31.0935 283.811 30.962C283.962 30.8306 284.038 30.648 284.038 30.4143C284.038 30.1758 283.962 29.9908 283.811 29.8593C283.665 29.7279 283.441 29.6621 283.139 29.6621H281.693L282.336 28.9976V31.8237Z" fill="white"/>
<path d="M286.296 33.6348V28.5229H287.742V33.6348H286.296Z" fill="white"/>
<path d="M291.348 33.737C290.939 33.737 290.562 33.6713 290.216 33.5398C289.871 33.4084 289.569 33.2234 289.311 32.9848C289.058 32.7414 288.86 32.459 288.719 32.1377C288.578 31.8164 288.508 31.4634 288.508 31.0788C288.508 30.6942 288.578 30.3413 288.719 30.02C288.86 29.6986 289.058 29.4187 289.311 29.1802C289.569 28.9367 289.871 28.7493 290.216 28.6179C290.562 28.4864 290.939 28.4207 291.348 28.4207C291.762 28.4207 292.139 28.4864 292.48 28.6179C292.826 28.7493 293.125 28.9367 293.378 29.1802C293.632 29.4187 293.829 29.6986 293.97 30.02C294.116 30.3413 294.189 30.6942 294.189 31.0788C294.189 31.4634 294.116 31.8188 293.97 32.145C293.829 32.4663 293.632 32.7463 293.378 32.9848C293.125 33.2234 292.826 33.4084 292.48 33.5398C292.139 33.6713 291.762 33.737 291.348 33.737ZM291.348 32.5394C291.543 32.5394 291.723 32.5053 291.889 32.4371C292.059 32.369 292.205 32.2716 292.327 32.145C292.453 32.0136 292.551 31.8578 292.619 31.6777C292.692 31.4975 292.728 31.2979 292.728 31.0788C292.728 30.8549 292.692 30.6553 292.619 30.48C292.551 30.2999 292.453 30.1465 292.327 30.02C292.205 29.8885 292.059 29.7887 291.889 29.7206C291.723 29.6524 291.543 29.6183 291.348 29.6183C291.154 29.6183 290.971 29.6524 290.801 29.7206C290.635 29.7887 290.489 29.8885 290.362 30.02C290.241 30.1465 290.143 30.2999 290.07 30.48C290.002 30.6553 289.968 30.8549 289.968 31.0788C289.968 31.2979 290.002 31.4975 290.07 31.6777C290.143 31.8578 290.241 32.0136 290.362 32.145C290.489 32.2716 290.635 32.369 290.801 32.4371C290.971 32.5053 291.154 32.5394 291.348 32.5394Z" fill="white"/>
<path d="M296.743 33.737C296.324 33.737 295.92 33.6859 295.53 33.5837C295.146 33.4765 294.832 33.3402 294.588 33.1747L295.063 32.1085C295.292 32.2546 295.555 32.3763 295.852 32.4736C296.154 32.5662 296.453 32.6124 296.75 32.6124C296.95 32.6124 297.11 32.5954 297.232 32.5613C297.354 32.5223 297.441 32.4737 297.495 32.4152C297.553 32.3519 297.583 32.2789 297.583 32.1962C297.583 32.0793 297.529 31.9868 297.422 31.9186C297.315 31.8505 297.176 31.7945 297.006 31.7507C296.835 31.7069 296.645 31.6631 296.436 31.6192C296.232 31.5754 296.025 31.5194 295.815 31.4513C295.611 31.3831 295.423 31.2955 295.253 31.1884C295.083 31.0764 294.944 30.9328 294.837 30.7575C294.73 30.5774 294.676 30.351 294.676 30.0784C294.676 29.7717 294.759 29.4942 294.924 29.2459C295.095 28.9976 295.348 28.798 295.684 28.6471C296.02 28.4961 296.438 28.4207 296.94 28.4207C297.276 28.4207 297.604 28.4596 297.926 28.5375C298.252 28.6105 298.542 28.7201 298.795 28.8661L298.349 29.9396C298.106 29.8082 297.865 29.7108 297.626 29.6475C297.388 29.5794 297.157 29.5453 296.933 29.5453C296.733 29.5453 296.572 29.5672 296.451 29.611C296.329 29.65 296.241 29.7035 296.188 29.7717C296.134 29.8398 296.107 29.9177 296.107 30.0054C296.107 30.1173 296.159 30.2074 296.261 30.2756C296.368 30.3388 296.507 30.3924 296.677 30.4362C296.852 30.4752 297.042 30.5165 297.247 30.5604C297.456 30.6042 297.663 30.6602 297.867 30.7283C298.077 30.7916 298.267 30.8792 298.437 30.9912C298.607 31.0983 298.744 31.2419 298.846 31.4221C298.953 31.5973 299.007 31.8188 299.007 32.0866C299.007 32.3836 298.921 32.6586 298.751 32.9118C298.585 33.1601 298.335 33.3597 297.999 33.5106C297.668 33.6615 297.249 33.737 296.743 33.737Z" fill="white"/>
<path d="M299.598 34.7813L300.146 32.8826L300.343 33.6713C300.099 33.6713 299.9 33.6007 299.744 33.4595C299.588 33.3135 299.51 33.1187 299.51 32.8753C299.51 32.6221 299.588 32.4225 299.744 32.2765C299.905 32.1304 300.104 32.0574 300.343 32.0574C300.581 32.0574 300.779 32.1329 300.934 32.2838C301.09 32.4298 301.168 32.627 301.168 32.8753C301.168 32.9435 301.163 33.0116 301.153 33.0798C301.144 33.1479 301.122 33.2307 301.088 33.3281C301.054 33.4254 301 33.5544 300.927 33.7151L300.467 34.7813H299.598Z" fill="white"/>
<path d="M303.397 33.6348L305.653 28.5229H307.077L309.341 33.6348H307.837L306.07 29.2313H306.639L304.872 33.6348H303.397ZM304.631 32.6416L305.004 31.5754H307.501L307.873 32.6416H304.631Z" fill="white"/>
<path d="M312.236 33.737C311.832 33.737 311.457 33.6737 311.111 33.5471C310.766 33.4157 310.466 33.2307 310.213 32.9921C309.965 32.7536 309.77 32.4736 309.629 32.1523C309.488 31.8261 309.417 31.4683 309.417 31.0788C309.417 30.6894 309.488 30.334 309.629 30.0127C309.77 29.6865 309.967 29.4041 310.22 29.1656C310.473 28.927 310.773 28.7444 311.119 28.6179C311.469 28.4864 311.851 28.4207 312.265 28.4207C312.747 28.4207 313.178 28.501 313.558 28.6617C313.937 28.8223 314.251 29.0536 314.5 29.3554L313.58 30.1879C313.404 29.9981 313.214 29.8569 313.01 29.7644C312.81 29.667 312.586 29.6183 312.338 29.6183C312.119 29.6183 311.919 29.6524 311.739 29.7206C311.559 29.7887 311.406 29.8885 311.279 30.02C311.153 30.1465 311.053 30.2999 310.98 30.48C310.912 30.6553 310.878 30.8549 310.878 31.0788C310.878 31.2931 310.912 31.4902 310.98 31.6704C311.053 31.8505 311.153 32.0063 311.279 32.1377C311.406 32.2643 311.557 32.3641 311.732 32.4371C311.912 32.5053 312.109 32.5394 312.323 32.5394C312.538 32.5394 312.747 32.5053 312.952 32.4371C313.156 32.3641 313.363 32.2424 313.572 32.072L314.383 33.0871C314.091 33.2964 313.752 33.4571 313.368 33.569C312.983 33.681 312.606 33.737 312.236 33.737ZM314.383 33.0871L313.105 32.8972V30.9693H314.383V33.0871Z" fill="white"/>
<path d="M315.299 33.6348V28.5229H317.585C318.33 28.5229 318.902 28.6933 319.301 29.0341C319.705 29.37 319.908 29.8301 319.908 30.4143C319.908 30.7989 319.815 31.1324 319.63 31.4148C319.445 31.6923 319.182 31.9065 318.841 32.0574C318.505 32.2035 318.104 32.2765 317.636 32.2765H316.103L316.745 31.6704V33.6348H315.299ZM318.462 33.6348L317.191 31.7726H318.732L320.01 33.6348H318.462ZM316.745 31.8237L316.103 31.1592H317.549C317.851 31.1592 318.074 31.0935 318.221 30.962C318.371 30.8306 318.447 30.648 318.447 30.4143C318.447 30.1758 318.371 29.9908 318.221 29.8593C318.074 29.7279 317.851 29.6621 317.549 29.6621H316.103L316.745 28.9976V31.8237Z" fill="white"/>
<path d="M320.705 33.6348V28.5229H322.151V33.6348H320.705Z" fill="white"/>
<path d="M325.728 33.737C325.324 33.737 324.949 33.6737 324.604 33.5471C324.263 33.4157 323.966 33.2307 323.713 32.9921C323.465 32.7536 323.27 32.4736 323.129 32.1523C322.987 31.8261 322.917 31.4683 322.917 31.0788C322.917 30.6894 322.987 30.334 323.129 30.0127C323.27 29.6865 323.465 29.4041 323.713 29.1656C323.966 28.927 324.263 28.7444 324.604 28.6179C324.949 28.4864 325.324 28.4207 325.728 28.4207C326.201 28.4207 326.622 28.5034 326.992 28.669C327.367 28.8345 327.678 29.073 327.927 29.3846L327.006 30.2171C326.841 30.0224 326.658 29.8739 326.459 29.7717C326.264 29.6694 326.045 29.6183 325.801 29.6183C325.592 29.6183 325.4 29.6524 325.225 29.7206C325.049 29.7887 324.898 29.8885 324.772 30.02C324.65 30.1465 324.553 30.2999 324.48 30.48C324.411 30.6602 324.377 30.8598 324.377 31.0788C324.377 31.2979 324.411 31.4975 324.48 31.6777C324.553 31.8578 324.65 32.0136 324.772 32.145C324.898 32.2716 325.049 32.369 325.225 32.4371C325.4 32.5053 325.592 32.5394 325.801 32.5394C326.045 32.5394 326.264 32.4883 326.459 32.386C326.658 32.2838 326.841 32.1353 327.006 31.9406L327.927 32.7731C327.678 33.0798 327.367 33.3183 326.992 33.4887C326.622 33.6542 326.201 33.737 325.728 33.737Z" fill="white"/>
<path d="M330.823 33.737C330.068 33.737 329.479 33.5301 329.056 33.1163C328.632 32.7025 328.42 32.1158 328.42 31.3563V28.5229H329.866V31.3125C329.866 31.7507 329.952 32.0647 330.122 32.2546C330.297 32.4444 330.536 32.5394 330.838 32.5394C331.139 32.5394 331.376 32.4444 331.546 32.2546C331.716 32.0647 331.802 31.7507 331.802 31.3125V28.5229H333.226V31.3563C333.226 32.1158 333.014 32.7025 332.59 33.1163C332.167 33.5301 331.578 33.737 330.823 33.737Z" fill="white"/>
<path d="M334.205 33.6348V28.5229H335.651V32.4883H338.09V33.6348H334.205Z" fill="white"/>
<path d="M339.201 33.6348V29.6694H337.631V28.5229H342.21V29.6694H340.647V33.6348H339.201Z" fill="white"/>
<path d="M345.255 33.737C344.846 33.737 344.469 33.6713 344.123 33.5398C343.778 33.4084 343.476 33.2234 343.218 32.9848C342.965 32.7414 342.767 32.459 342.626 32.1377C342.485 31.8164 342.414 31.4634 342.414 31.0788C342.414 30.6942 342.485 30.3413 342.626 30.02C342.767 29.6986 342.965 29.4187 343.218 29.1802C343.476 28.9367 343.778 28.7493 344.123 28.6179C344.469 28.4864 344.846 28.4207 345.255 28.4207C345.669 28.4207 346.046 28.4864 346.387 28.6179C346.733 28.7493 347.032 28.9367 347.285 29.1802C347.538 29.4187 347.736 29.6986 347.877 30.02C348.023 30.3413 348.096 30.6942 348.096 31.0788C348.096 31.4634 348.023 31.8188 347.877 32.145C347.736 32.4663 347.538 32.7463 347.285 32.9848C347.032 33.2234 346.733 33.4084 346.387 33.5398C346.046 33.6713 345.669 33.737 345.255 33.737ZM345.255 32.5394C345.45 32.5394 345.63 32.5053 345.796 32.4371C345.966 32.369 346.112 32.2716 346.234 32.145C346.36 32.0136 346.458 31.8578 346.526 31.6777C346.599 31.4975 346.635 31.2979 346.635 31.0788C346.635 30.8549 346.599 30.6553 346.526 30.48C346.458 30.2999 346.36 30.1465 346.234 30.02C346.112 29.8885 345.966 29.7887 345.796 29.7206C345.63 29.6524 345.45 29.6183 345.255 29.6183C345.06 29.6183 344.878 29.6524 344.707 29.7206C344.542 29.7887 344.396 29.8885 344.269 30.02C344.148 30.1465 344.05 30.2999 343.977 30.48C343.909 30.6553 343.875 30.8549 343.875 31.0788C343.875 31.2979 343.909 31.4975 343.977 31.6777C344.05 31.8578 344.148 32.0136 344.269 32.145C344.396 32.2716 344.542 32.369 344.707 32.4371C344.878 32.5053 345.06 32.5394 345.255 32.5394Z" fill="white"/>
<path d="M348.853 33.6348V28.5229H351.139C351.884 28.5229 352.456 28.6933 352.855 29.0341C353.259 29.37 353.461 29.8301 353.461 30.4143C353.461 30.7989 353.369 31.1324 353.184 31.4148C352.999 31.6923 352.736 31.9065 352.395 32.0574C352.059 32.2035 351.657 32.2765 351.19 32.2765H349.656L350.299 31.6704V33.6348H348.853ZM352.015 33.6348L350.745 31.7726H352.285L353.563 33.6348H352.015ZM350.299 31.8237L349.656 31.1592H351.102C351.404 31.1592 351.628 31.0935 351.774 30.962C351.925 30.8306 352.001 30.648 352.001 30.4143C352.001 30.1758 351.925 29.9908 351.774 29.8593C351.628 29.7279 351.404 29.6621 351.102 29.6621H349.656L350.299 28.9976V31.8237Z" fill="white"/>
<path d="M354.259 33.6348V28.5229H358.268V29.6402H355.69V32.5175H358.363V33.6348H354.259ZM355.588 31.5827V30.5019H357.961V31.5827H355.588Z" fill="white"/>
<path d="M360.962 33.737C360.543 33.737 360.139 33.6859 359.749 33.5837C359.365 33.4765 359.051 33.3402 358.807 33.1747L359.282 32.1085C359.511 32.2546 359.774 32.3763 360.071 32.4736C360.373 32.5662 360.672 32.6124 360.969 32.6124C361.169 32.6124 361.329 32.5954 361.451 32.5613C361.573 32.5223 361.66 32.4737 361.714 32.4152C361.772 32.3519 361.802 32.2789 361.802 32.1962C361.802 32.0793 361.748 31.9868 361.641 31.9186C361.534 31.8505 361.395 31.7945 361.225 31.7507C361.054 31.7069 360.864 31.6631 360.655 31.6192C360.451 31.5754 360.244 31.5194 360.034 31.4513C359.83 31.3831 359.642 31.2955 359.472 31.1884C359.302 31.0764 359.163 30.9328 359.056 30.7575C358.949 30.5774 358.895 30.351 358.895 30.0784C358.895 29.7717 358.978 29.4942 359.143 29.2459C359.314 28.9976 359.567 28.798 359.903 28.6471C360.239 28.4961 360.657 28.4207 361.159 28.4207C361.495 28.4207 361.823 28.4596 362.145 28.5375C362.471 28.6105 362.761 28.7201 363.014 28.8661L362.568 29.9396C362.325 29.8082 362.084 29.7108 361.845 29.6475C361.607 29.5794 361.375 29.5453 361.152 29.5453C360.952 29.5453 360.791 29.5672 360.67 29.611C360.548 29.65 360.46 29.7035 360.407 29.7717C360.353 29.8398 360.326 29.9177 360.326 30.0054C360.326 30.1173 360.378 30.2074 360.48 30.2756C360.587 30.3388 360.726 30.3924 360.896 30.4362C361.071 30.4752 361.261 30.5165 361.466 30.5604C361.675 30.6042 361.882 30.6602 362.086 30.7283C362.296 30.7916 362.486 30.8792 362.656 30.9912C362.826 31.0983 362.963 31.2419 363.065 31.4221C363.172 31.5973 363.225 31.8188 363.225 32.0866C363.225 32.3836 363.14 32.6586 362.97 32.9118C362.804 33.1601 362.554 33.3597 362.218 33.5106C361.887 33.6615 361.468 33.737 360.962 33.737Z" fill="white"/>
<path d="M241.705 51.8914V46.7795H244.042C244.509 46.7795 244.911 46.855 245.247 47.0059C245.588 47.1568 245.85 47.3759 246.035 47.6632C246.22 47.9455 246.313 48.2814 246.313 48.6709C246.313 49.0555 246.22 49.389 246.035 49.6714C245.85 49.9538 245.588 50.1728 245.247 50.3286C244.911 50.4795 244.509 50.555 244.042 50.555H242.508L243.151 49.927V51.8914H241.705ZM243.151 50.0803L242.508 49.4158H243.954C244.256 49.4158 244.48 49.3501 244.626 49.2186C244.777 49.0872 244.852 48.9046 244.852 48.6709C244.852 48.4324 244.777 48.2474 244.626 48.1159C244.48 47.9845 244.256 47.9187 243.954 47.9187H242.508L243.151 47.2542V50.0803Z" fill="white"/>
<path d="M247.018 51.8914V46.7795H251.027V47.8968H248.449V50.7741H251.122V51.8914H247.018ZM248.347 49.8393V48.7586H250.72V49.8393H248.347Z" fill="white"/>
<path d="M254.473 51.9936C254.069 51.9936 253.694 51.9303 253.348 51.8038C253.008 51.6723 252.711 51.4873 252.458 51.2488C252.209 51.0102 252.015 50.7303 251.873 50.4089C251.732 50.0828 251.662 49.7249 251.662 49.3355C251.662 48.946 251.732 48.5906 251.873 48.2693C252.015 47.9431 252.209 47.6607 252.458 47.4222C252.711 47.1836 253.008 47.001 253.348 46.8745C253.694 46.743 254.069 46.6773 254.473 46.6773C254.945 46.6773 255.366 46.7601 255.736 46.9256C256.111 47.0911 256.423 47.3297 256.671 47.6412L255.751 48.4737C255.585 48.279 255.403 48.1305 255.203 48.0283C255.009 47.926 254.79 47.8749 254.546 47.8749C254.337 47.8749 254.144 47.909 253.969 47.9772C253.794 48.0453 253.643 48.1451 253.516 48.2766C253.395 48.4032 253.297 48.5565 253.224 48.7366C253.156 48.9168 253.122 49.1164 253.122 49.3355C253.122 49.5545 253.156 49.7541 253.224 49.9343C253.297 50.1144 253.395 50.2702 253.516 50.4016C253.643 50.5282 253.794 50.6256 253.969 50.6938C254.144 50.7619 254.337 50.796 254.546 50.796C254.79 50.796 255.009 50.7449 255.203 50.6426C255.403 50.5404 255.585 50.3919 255.751 50.1972L256.671 51.0297C256.423 51.3364 256.111 51.5749 255.736 51.7453C255.366 51.9109 254.945 51.9936 254.473 51.9936Z" fill="white"/>
<path d="M259.568 51.9936C258.813 51.9936 258.224 51.7867 257.8 51.3729C257.377 50.9591 257.165 50.3724 257.165 49.613V46.7795H258.611V49.5691C258.611 50.0073 258.696 50.3213 258.867 50.5112C259.042 50.7011 259.28 50.796 259.582 50.796C259.884 50.796 260.12 50.7011 260.291 50.5112C260.461 50.3213 260.546 50.0073 260.546 49.5691V46.7795H261.97V49.613C261.97 50.3724 261.758 50.9591 261.335 51.3729C260.911 51.7867 260.322 51.9936 259.568 51.9936Z" fill="white"/>
<path d="M262.229 51.8914L264.486 46.7795H265.91L268.174 51.8914H266.669L264.902 47.4879H265.472L263.704 51.8914H262.229ZM263.463 50.8982L263.836 49.832H266.333L266.706 50.8982H263.463Z" fill="white"/>
<path d="M268.584 51.8914V46.7795H270.869C271.614 46.7795 272.186 46.9499 272.585 47.2907C272.99 47.6266 273.192 48.0867 273.192 48.6709C273.192 49.0555 273.099 49.389 272.914 49.6714C272.729 49.9489 272.466 50.1631 272.125 50.314C271.789 50.4601 271.388 50.5331 270.92 50.5331H269.387L270.03 49.927V51.8914H268.584ZM271.746 51.8914L270.475 50.0292H272.016L273.294 51.8914H271.746ZM270.03 50.0803L269.387 49.4158H270.833C271.135 49.4158 271.359 49.3501 271.505 49.2186C271.656 49.0872 271.731 48.9046 271.731 48.6709C271.731 48.4324 271.656 48.2474 271.505 48.1159C271.359 47.9845 271.135 47.9187 270.833 47.9187H269.387L270.03 47.2542V50.0803Z" fill="white"/>
<path d="M273.989 51.8914V46.7795H275.435V51.8914H273.989Z" fill="white"/>
<path d="M278.26 51.9936C277.842 51.9936 277.438 51.9425 277.048 51.8403C276.663 51.7332 276.349 51.5968 276.106 51.4313L276.581 50.3651C276.81 50.5112 277.072 50.6329 277.369 50.7303C277.671 50.8228 277.971 50.869 278.268 50.869C278.467 50.869 278.628 50.852 278.75 50.8179C278.871 50.7789 278.959 50.7303 279.012 50.6718C279.071 50.6086 279.1 50.5355 279.1 50.4528C279.1 50.3359 279.047 50.2434 278.939 50.1753C278.832 50.1071 278.694 50.0511 278.523 50.0073C278.353 49.9635 278.163 49.9197 277.954 49.8759C277.749 49.832 277.542 49.7761 277.333 49.7079C277.128 49.6397 276.941 49.5521 276.771 49.445C276.6 49.333 276.461 49.1894 276.354 49.0141C276.247 48.834 276.194 48.6076 276.194 48.335C276.194 48.0283 276.276 47.7508 276.442 47.5025C276.612 47.2542 276.866 47.0546 277.201 46.9037C277.537 46.7528 277.956 46.6773 278.457 46.6773C278.793 46.6773 279.122 46.7162 279.443 46.7941C279.77 46.8672 280.059 46.9767 280.312 47.1228L279.867 48.1962C279.623 48.0648 279.382 47.9674 279.144 47.9041C278.905 47.836 278.674 47.8019 278.45 47.8019C278.251 47.8019 278.09 47.8238 277.968 47.8676C277.846 47.9066 277.759 47.9601 277.705 48.0283C277.652 48.0964 277.625 48.1743 277.625 48.262C277.625 48.3739 277.676 48.464 277.778 48.5322C277.885 48.5955 278.024 48.649 278.195 48.6928C278.37 48.7318 278.56 48.7732 278.764 48.817C278.974 48.8608 279.18 48.9168 279.385 48.9849C279.594 49.0482 279.784 49.1359 279.955 49.2478C280.125 49.3549 280.261 49.4986 280.363 49.6787C280.471 49.8539 280.524 50.0755 280.524 50.3432C280.524 50.6402 280.439 50.9153 280.269 51.1684C280.103 51.4167 279.852 51.6163 279.516 51.7672C279.185 51.9182 278.767 51.9936 278.26 51.9936Z" fill="white"/>
<path d="M282.209 51.8914V47.926H280.639V46.7795H285.217V47.926H283.655V51.8914H282.209Z" fill="white"/>
<path d="M284.886 51.8914L287.143 46.7795H288.567L290.83 51.8914H289.326L287.559 47.4879H288.128L286.361 51.8914H284.886ZM286.12 50.8982L286.493 49.832H288.99L289.363 50.8982H286.12Z" fill="white"/>
<path d="M293.037 51.9936C292.618 51.9936 292.214 51.9425 291.824 51.8403C291.44 51.7332 291.126 51.5968 290.882 51.4313L291.357 50.3651C291.586 50.5112 291.849 50.6329 292.146 50.7303C292.448 50.8228 292.747 50.869 293.044 50.869C293.244 50.869 293.404 50.852 293.526 50.8179C293.648 50.7789 293.735 50.7303 293.789 50.6718C293.847 50.6086 293.877 50.5355 293.877 50.4528C293.877 50.3359 293.823 50.2434 293.716 50.1753C293.609 50.1071 293.47 50.0511 293.3 50.0073C293.129 49.9635 292.939 49.9197 292.73 49.8759C292.526 49.832 292.319 49.7761 292.109 49.7079C291.905 49.6397 291.717 49.5521 291.547 49.445C291.377 49.333 291.238 49.1894 291.131 49.0141C291.024 48.834 290.97 48.6076 290.97 48.335C290.97 48.0283 291.053 47.7508 291.218 47.5025C291.389 47.2542 291.642 47.0546 291.978 46.9037C292.314 46.7528 292.732 46.6773 293.234 46.6773C293.57 46.6773 293.898 46.7162 294.22 46.7941C294.546 46.8672 294.836 46.9767 295.089 47.1228L294.643 48.1962C294.4 48.0648 294.159 47.9674 293.92 47.9041C293.682 47.836 293.451 47.8019 293.227 47.8019C293.027 47.8019 292.866 47.8238 292.745 47.8676C292.623 47.9066 292.535 47.9601 292.482 48.0283C292.428 48.0964 292.401 48.1743 292.401 48.262C292.401 48.3739 292.453 48.464 292.555 48.5322C292.662 48.5955 292.801 48.649 292.971 48.6928C293.146 48.7318 293.336 48.7732 293.541 48.817C293.75 48.8608 293.957 48.9168 294.161 48.9849C294.371 49.0482 294.561 49.1359 294.731 49.2478C294.901 49.3549 295.038 49.4986 295.14 49.6787C295.247 49.8539 295.301 50.0755 295.301 50.3432C295.301 50.6402 295.215 50.9153 295.045 51.1684C294.879 51.4167 294.629 51.6163 294.293 51.7672C293.962 51.9182 293.543 51.9936 293.037 51.9936Z" fill="white"/>
<path d="M295.892 53.0379L296.44 51.1392L296.637 51.9279C296.393 51.9279 296.194 51.8573 296.038 51.7161C295.882 51.5701 295.804 51.3753 295.804 51.1319C295.804 50.8788 295.882 50.6791 296.038 50.5331C296.199 50.387 296.398 50.314 296.637 50.314C296.875 50.314 297.073 50.3895 297.228 50.5404C297.384 50.6865 297.462 50.8836 297.462 51.1319C297.462 51.2001 297.457 51.2682 297.447 51.3364C297.438 51.4045 297.416 51.4873 297.382 51.5847C297.348 51.682 297.294 51.8111 297.221 51.9717L296.761 53.0379H295.892Z" fill="white"/>
<path d="M300.304 51.8914V46.7795H301.75V51.8914H300.304Z" fill="white"/>
<path d="M302.779 51.8914V46.7795H303.969L306.788 50.1826H306.226V46.7795H307.643V51.8914H306.452L303.633 48.4884H304.196V51.8914H302.779Z" fill="white"/>
<path d="M308.662 51.8914V46.7795H311.08C311.644 46.7795 312.141 46.8842 312.569 47.0935C312.998 47.3029 313.331 47.5974 313.57 47.9772C313.813 48.3569 313.935 48.8097 313.935 49.3355C313.935 49.8564 313.813 50.3091 313.57 50.6938C313.331 51.0735 312.998 51.368 312.569 51.5774C312.141 51.7867 311.644 51.8914 311.08 51.8914H308.662ZM310.108 50.7376H311.021C311.313 50.7376 311.566 50.684 311.781 50.5769C312 50.4649 312.17 50.3043 312.292 50.0949C312.414 49.8807 312.474 49.6276 312.474 49.3355C312.474 49.0385 312.414 48.7853 312.292 48.576C312.17 48.3666 312 48.2084 311.781 48.1013C311.566 47.9893 311.313 47.9333 311.021 47.9333H310.108V50.7376Z" fill="white"/>
<path d="M317.054 51.9936C316.3 51.9936 315.711 51.7867 315.287 51.3729C314.864 50.9591 314.652 50.3724 314.652 49.613V46.7795H316.098V49.5691C316.098 50.0073 316.183 50.3213 316.353 50.5112C316.529 50.7011 316.767 50.796 317.069 50.796C317.371 50.796 317.607 50.7011 317.777 50.5112C317.948 50.3213 318.033 50.0073 318.033 49.5691V46.7795H319.457V49.613C319.457 50.3724 319.245 50.9591 318.822 51.3729C318.398 51.7867 317.809 51.9936 317.054 51.9936Z" fill="white"/>
<path d="M322.233 51.9936C321.814 51.9936 321.41 51.9425 321.021 51.8403C320.636 51.7332 320.322 51.5968 320.079 51.4313L320.553 50.3651C320.782 50.5112 321.045 50.6329 321.342 50.7303C321.644 50.8228 321.943 50.869 322.24 50.869C322.44 50.869 322.601 50.852 322.722 50.8179C322.844 50.7789 322.932 50.7303 322.985 50.6718C323.044 50.6086 323.073 50.5355 323.073 50.4528C323.073 50.3359 323.019 50.2434 322.912 50.1753C322.805 50.1071 322.666 50.0511 322.496 50.0073C322.326 49.9635 322.136 49.9197 321.926 49.8759C321.722 49.832 321.515 49.7761 321.306 49.7079C321.101 49.6397 320.914 49.5521 320.743 49.445C320.573 49.333 320.434 49.1894 320.327 49.0141C320.22 48.834 320.166 48.6076 320.166 48.335C320.166 48.0283 320.249 47.7508 320.415 47.5025C320.585 47.2542 320.838 47.0546 321.174 46.9037C321.51 46.7528 321.929 46.6773 322.43 46.6773C322.766 46.6773 323.095 46.7162 323.416 46.7941C323.742 46.8672 324.032 46.9767 324.285 47.1228L323.84 48.1962C323.596 48.0648 323.355 47.9674 323.117 47.9041C322.878 47.836 322.647 47.8019 322.423 47.8019C322.223 47.8019 322.063 47.8238 321.941 47.8676C321.819 47.9066 321.732 47.9601 321.678 48.0283C321.624 48.0964 321.598 48.1743 321.598 48.262C321.598 48.3739 321.649 48.464 321.751 48.5322C321.858 48.5955 321.997 48.649 322.167 48.6928C322.343 48.7318 322.532 48.7732 322.737 48.817C322.946 48.8608 323.153 48.9168 323.358 48.9849C323.567 49.0482 323.757 49.1359 323.927 49.2478C324.098 49.3549 324.234 49.4986 324.336 49.6787C324.443 49.8539 324.497 50.0755 324.497 50.3432C324.497 50.6402 324.412 50.9153 324.241 51.1684C324.076 51.4167 323.825 51.6163 323.489 51.7672C323.158 51.9182 322.739 51.9936 322.233 51.9936Z" fill="white"/>
<path d="M326.182 51.8914V47.926H324.611V46.7795H329.19V47.926H327.627V51.8914H326.182Z" fill="white"/>
<path d="M329.729 51.8914V46.7795H332.015C332.759 46.7795 333.331 46.9499 333.731 47.2907C334.135 47.6266 334.337 48.0867 334.337 48.6709C334.337 49.0555 334.244 49.389 334.059 49.6714C333.874 49.9489 333.611 50.1631 333.271 50.314C332.935 50.4601 332.533 50.5331 332.066 50.5331H330.532L331.175 49.927V51.8914H329.729ZM332.891 51.8914L331.62 50.0292H333.161L334.439 51.8914H332.891ZM331.175 50.0803L330.532 49.4158H331.978C332.28 49.4158 332.504 49.3501 332.65 49.2186C332.801 49.0872 332.876 48.9046 332.876 48.6709C332.876 48.4324 332.801 48.2474 332.65 48.1159C332.504 47.9845 332.28 47.9187 331.978 47.9187H330.532L331.175 47.2542V50.0803Z" fill="white"/>
<path d="M335.135 51.8914V46.7795H336.58V51.8914H335.135Z" fill="white"/>
<path d="M336.996 51.8914L339.252 46.7795H340.676L342.94 51.8914H341.436L339.669 47.4879H340.238L338.471 51.8914H336.996ZM338.23 50.8982L338.602 49.832H341.1L341.472 50.8982H338.23Z" fill="white"/>
<path d="M345.146 51.9936C344.728 51.9936 344.324 51.9425 343.934 51.8403C343.55 51.7332 343.236 51.5968 342.992 51.4313L343.467 50.3651C343.696 50.5112 343.959 50.6329 344.256 50.7303C344.557 50.8228 344.857 50.869 345.154 50.869C345.353 50.869 345.514 50.852 345.636 50.8179C345.757 50.7789 345.845 50.7303 345.899 50.6718C345.957 50.6086 345.986 50.5355 345.986 50.4528C345.986 50.3359 345.933 50.2434 345.826 50.1753C345.718 50.1071 345.58 50.0511 345.409 50.0073C345.239 49.9635 345.049 49.9197 344.84 49.8759C344.635 49.832 344.428 49.7761 344.219 49.7079C344.015 49.6397 343.827 49.5521 343.657 49.445C343.486 49.333 343.348 49.1894 343.24 49.0141C343.133 48.834 343.08 48.6076 343.08 48.335C343.08 48.0283 343.163 47.7508 343.328 47.5025C343.498 47.2542 343.752 47.0546 344.088 46.9037C344.423 46.7528 344.842 46.6773 345.344 46.6773C345.68 46.6773 346.008 46.7162 346.329 46.7941C346.656 46.8672 346.945 46.9767 347.199 47.1228L346.753 48.1962C346.51 48.0648 346.269 47.9674 346.03 47.9041C345.792 47.836 345.56 47.8019 345.336 47.8019C345.137 47.8019 344.976 47.8238 344.854 47.8676C344.733 47.9066 344.645 47.9601 344.591 48.0283C344.538 48.0964 344.511 48.1743 344.511 48.262C344.511 48.3739 344.562 48.464 344.664 48.5322C344.772 48.5955 344.91 48.649 345.081 48.6928C345.256 48.7318 345.446 48.7732 345.65 48.817C345.86 48.8608 346.067 48.9168 346.271 48.9849C346.48 49.0482 346.67 49.1359 346.841 49.2478C347.011 49.3549 347.147 49.4986 347.25 49.6787C347.357 49.8539 347.41 50.0755 347.41 50.3432C347.41 50.6402 347.325 50.9153 347.155 51.1684C346.989 51.4167 346.738 51.6163 346.402 51.7672C346.071 51.9182 345.653 51.9936 345.146 51.9936Z" fill="white"/>
<path d="M348.002 53.0379L348.549 51.1392L348.747 51.9279C348.503 51.9279 348.304 51.8573 348.148 51.7161C347.992 51.5701 347.914 51.3753 347.914 51.1319C347.914 50.8788 347.992 50.6791 348.148 50.5331C348.308 50.387 348.508 50.314 348.747 50.314C348.985 50.314 349.182 50.3895 349.338 50.5404C349.494 50.6865 349.572 50.8836 349.572 51.1319C349.572 51.2001 349.567 51.2682 349.557 51.3364C349.547 51.4045 349.526 51.4873 349.491 51.5847C349.457 51.682 349.404 51.8111 349.331 51.9717L348.871 53.0379H348.002Z" fill="white"/>
<path d="M352.414 51.8914V46.7795H354.751C355.218 46.7795 355.62 46.855 355.956 47.0059C356.297 47.1568 356.56 47.3759 356.745 47.6632C356.93 47.9455 357.022 48.2814 357.022 48.6709C357.022 49.0555 356.93 49.389 356.745 49.6714C356.56 49.9538 356.297 50.1728 355.956 50.3286C355.62 50.4795 355.218 50.555 354.751 50.555H353.217L353.86 49.927V51.8914H352.414ZM353.86 50.0803L353.217 49.4158H354.663C354.965 49.4158 355.189 49.3501 355.335 49.2186C355.486 49.0872 355.562 48.9046 355.562 48.6709C355.562 48.4324 355.486 48.2474 355.335 48.1159C355.189 47.9845 354.965 47.9187 354.663 47.9187H353.217L353.86 47.2542V50.0803Z" fill="white"/>
<path d="M360.376 51.9936C359.967 51.9936 359.59 51.9279 359.244 51.7964C358.899 51.665 358.597 51.48 358.339 51.2415C358.086 50.998 357.888 50.7157 357.747 50.3943C357.606 50.073 357.535 49.7201 357.535 49.3355C357.535 48.9509 357.606 48.5979 357.747 48.2766C357.888 47.9553 358.086 47.6753 358.339 47.4368C358.597 47.1934 358.899 47.0059 359.244 46.8745C359.59 46.743 359.967 46.6773 360.376 46.6773C360.79 46.6773 361.167 46.743 361.508 46.8745C361.854 47.0059 362.153 47.1934 362.406 47.4368C362.66 47.6753 362.857 47.9553 362.998 48.2766C363.144 48.5979 363.217 48.9509 363.217 49.3355C363.217 49.7201 363.144 50.0755 362.998 50.4016C362.857 50.723 362.66 51.0029 362.406 51.2415C362.153 51.48 361.854 51.665 361.508 51.7964C361.167 51.9279 360.79 51.9936 360.376 51.9936ZM360.376 50.796C360.571 50.796 360.751 50.7619 360.917 50.6938C361.087 50.6256 361.233 50.5282 361.355 50.4016C361.481 50.2702 361.579 50.1144 361.647 49.9343C361.72 49.7541 361.756 49.5545 361.756 49.3355C361.756 49.1115 361.72 48.9119 361.647 48.7366C361.579 48.5565 361.481 48.4032 361.355 48.2766C361.233 48.1451 361.087 48.0453 360.917 47.9772C360.751 47.909 360.571 47.8749 360.376 47.8749C360.181 47.8749 359.999 47.909 359.828 47.9772C359.663 48.0453 359.517 48.1451 359.39 48.2766C359.269 48.4032 359.171 48.5565 359.098 48.7366C359.03 48.9119 358.996 49.1115 358.996 49.3355C358.996 49.5545 359.03 49.7541 359.098 49.9343C359.171 50.1144 359.269 50.2702 359.39 50.4016C359.517 50.5282 359.663 50.6256 359.828 50.6938C359.999 50.7619 360.181 50.796 360.376 50.796Z" fill="white"/>
<path d="M363.974 51.8914V46.7795H365.42V50.7449H367.859V51.8914H363.974Z" fill="white"/>
<path d="M368.431 51.8914V46.7795H369.877V51.8914H368.431ZM368.439 46.3633L369.417 45.2533H370.805L369.432 46.3633H368.439Z" fill="white"/>
<path d="M371.994 51.8914V47.926H370.424V46.7795H375.003V47.926H373.44V51.8914H371.994Z" fill="white"/>
<path d="M375.542 51.8914V46.7795H376.987V51.8914H375.542Z" fill="white"/>
<path d="M380.565 51.9936C380.161 51.9936 379.786 51.9303 379.44 51.8038C379.099 51.6723 378.802 51.4873 378.549 51.2488C378.301 51.0102 378.106 50.7303 377.965 50.4089C377.824 50.0828 377.753 49.7249 377.753 49.3355C377.753 48.946 377.824 48.5906 377.965 48.2693C378.106 47.9431 378.301 47.6607 378.549 47.4222C378.802 47.1836 379.099 47.001 379.44 46.8745C379.786 46.743 380.161 46.6773 380.565 46.6773C381.037 46.6773 381.458 46.7601 381.828 46.9256C382.203 47.0911 382.515 47.3297 382.763 47.6412L381.843 48.4737C381.677 48.279 381.495 48.1305 381.295 48.0283C381.1 47.926 380.881 47.8749 380.638 47.8749C380.428 47.8749 380.236 47.909 380.061 47.9772C379.886 48.0453 379.735 48.1451 379.608 48.2766C379.486 48.4032 379.389 48.5565 379.316 48.7366C379.248 48.9168 379.214 49.1164 379.214 49.3355C379.214 49.5545 379.248 49.7541 379.316 49.9343C379.389 50.1144 379.486 50.2702 379.608 50.4016C379.735 50.5282 379.886 50.6256 380.061 50.6938C380.236 50.7619 380.428 50.796 380.638 50.796C380.881 50.796 381.1 50.7449 381.295 50.6426C381.495 50.5404 381.677 50.3919 381.843 50.1972L382.763 51.0297C382.515 51.3364 382.203 51.5749 381.828 51.7453C381.458 51.9109 381.037 51.9936 380.565 51.9936Z" fill="white"/>
<path d="M385.721 51.9936C385.313 51.9936 384.935 51.9279 384.59 51.7964C384.244 51.665 383.942 51.48 383.684 51.2415C383.431 50.998 383.234 50.7157 383.093 50.3943C382.951 50.073 382.881 49.7201 382.881 49.3355C382.881 48.9509 382.951 48.5979 383.093 48.2766C383.234 47.9553 383.431 47.6753 383.684 47.4368C383.942 47.1934 384.244 47.0059 384.59 46.8745C384.935 46.743 385.313 46.6773 385.721 46.6773C386.135 46.6773 386.513 46.743 386.853 46.8745C387.199 47.0059 387.498 47.1934 387.752 47.4368C388.005 47.6753 388.202 47.9553 388.343 48.2766C388.489 48.5979 388.562 48.9509 388.562 49.3355C388.562 49.7201 388.489 50.0755 388.343 50.4016C388.202 50.723 388.005 51.0029 387.752 51.2415C387.498 51.48 387.199 51.665 386.853 51.7964C386.513 51.9279 386.135 51.9936 385.721 51.9936ZM385.721 50.796C385.916 50.796 386.096 50.7619 386.262 50.6938C386.432 50.6256 386.578 50.5282 386.7 50.4016C386.827 50.2702 386.924 50.1144 386.992 49.9343C387.065 49.7541 387.102 49.5545 387.102 49.3355C387.102 49.1115 387.065 48.9119 386.992 48.7366C386.924 48.5565 386.827 48.4032 386.7 48.2766C386.578 48.1451 386.432 48.0453 386.262 47.9772C386.096 47.909 385.916 47.8749 385.721 47.8749C385.527 47.8749 385.344 47.909 385.174 47.9772C385.008 48.0453 384.862 48.1451 384.736 48.2766C384.614 48.4032 384.517 48.5565 384.444 48.7366C384.375 48.9119 384.341 49.1115 384.341 49.3355C384.341 49.5545 384.375 49.7541 384.444 49.9343C384.517 50.1144 384.614 50.2702 384.736 50.4016C384.862 50.5282 385.008 50.6256 385.174 50.6938C385.344 50.7619 385.527 50.796 385.721 50.796Z" fill="white"/>
<path d="M391.116 51.9936C390.697 51.9936 390.293 51.9425 389.904 51.8403C389.519 51.7332 389.205 51.5968 388.962 51.4313L389.436 50.3651C389.665 50.5112 389.928 50.6329 390.225 50.7303C390.527 50.8228 390.826 50.869 391.123 50.869C391.323 50.869 391.484 50.852 391.605 50.8179C391.727 50.7789 391.815 50.7303 391.868 50.6718C391.927 50.6086 391.956 50.5355 391.956 50.4528C391.956 50.3359 391.902 50.2434 391.795 50.1753C391.688 50.1071 391.549 50.0511 391.379 50.0073C391.208 49.9635 391.019 49.9197 390.809 49.8759C390.605 49.832 390.398 49.7761 390.189 49.7079C389.984 49.6397 389.797 49.5521 389.626 49.445C389.456 49.333 389.317 49.1894 389.21 49.0141C389.103 48.834 389.049 48.6076 389.049 48.335C389.049 48.0283 389.132 47.7508 389.298 47.5025C389.468 47.2542 389.721 47.0546 390.057 46.9037C390.393 46.7528 390.812 46.6773 391.313 46.6773C391.649 46.6773 391.978 46.7162 392.299 46.7941C392.625 46.8672 392.915 46.9767 393.168 47.1228L392.723 48.1962C392.479 48.0648 392.238 47.9674 392 47.9041C391.761 47.836 391.53 47.8019 391.306 47.8019C391.106 47.8019 390.946 47.8238 390.824 47.8676C390.702 47.9066 390.615 47.9601 390.561 48.0283C390.507 48.0964 390.481 48.1743 390.481 48.262C390.481 48.3739 390.532 48.464 390.634 48.5322C390.741 48.5955 390.88 48.649 391.05 48.6928C391.225 48.7318 391.415 48.7732 391.62 48.817C391.829 48.8608 392.036 48.9168 392.241 48.9849C392.45 49.0482 392.64 49.1359 392.81 49.2478C392.981 49.3549 393.117 49.4986 393.219 49.6787C393.326 49.8539 393.38 50.0755 393.38 50.3432C393.38 50.6402 393.295 50.9153 393.124 51.1684C392.959 51.4167 392.708 51.6163 392.372 51.7672C392.041 51.9182 391.622 51.9936 391.116 51.9936Z" fill="white"/>
<path d="M241.705 70.148V65.0361H243.991C244.736 65.0361 245.308 65.2065 245.707 65.5473C246.111 65.8833 246.313 66.3433 246.313 66.9275C246.313 67.3121 246.22 67.6456 246.035 67.928C245.85 68.2055 245.588 68.4197 245.247 68.5706C244.911 68.7167 244.509 68.7897 244.042 68.7897H242.508L243.151 68.1836V70.148H241.705ZM244.867 70.148L243.596 68.2858H245.137L246.415 70.148H244.867ZM243.151 68.3369L242.508 67.6724H243.954C244.256 67.6724 244.48 67.6067 244.626 67.4752C244.777 67.3438 244.852 67.1612 244.852 66.9275C244.852 66.689 244.777 66.504 244.626 66.3725C244.48 66.2411 244.256 66.1754 243.954 66.1754H242.508L243.151 65.5108V68.3369Z" fill="white"/>
<path d="M247.111 70.148V65.0361H251.12V66.1535H248.542V69.0307H251.215V70.148H247.111ZM248.44 68.096V67.0152H250.813V68.096H248.44Z" fill="white"/>
<path d="M252.017 70.148V65.0361H254.354C254.821 65.0361 255.223 65.1116 255.559 65.2625C255.9 65.4135 256.163 65.6325 256.348 65.9198C256.533 66.2021 256.625 66.5381 256.625 66.9275C256.625 67.3121 256.533 67.6456 256.348 67.928C256.163 68.2104 255.9 68.4294 255.559 68.5852C255.223 68.7362 254.821 68.8116 254.354 68.8116H252.82L253.463 68.1836V70.148H252.017ZM253.463 68.3369L252.82 67.6724H254.266C254.568 67.6724 254.792 67.6067 254.938 67.4752C255.089 67.3438 255.165 67.1612 255.165 66.9275C255.165 66.689 255.089 66.504 254.938 66.3725C254.792 66.2411 254.568 66.1754 254.266 66.1754H252.82L253.463 65.5108V68.3369Z" fill="white"/>
<path d="M257.33 70.148V65.0361H259.616C260.361 65.0361 260.933 65.2065 261.332 65.5473C261.736 65.8833 261.938 66.3433 261.938 66.9275C261.938 67.3121 261.846 67.6456 261.661 67.928C261.476 68.2055 261.213 68.4197 260.872 68.5706C260.536 68.7167 260.134 68.7897 259.667 68.7897H258.133L258.776 68.1836V70.148H257.33ZM260.492 70.148L259.221 68.2858H260.762L262.04 70.148H260.492ZM258.776 68.3369L258.133 67.6724H259.579C259.881 67.6724 260.105 67.6067 260.251 67.4752C260.402 67.3438 260.478 67.1612 260.478 66.9275C260.478 66.689 260.402 66.504 260.251 66.3725C260.105 66.2411 259.881 66.1754 259.579 66.1754H258.133L258.776 65.5108V68.3369Z" fill="white"/>
<path d="M262.736 70.148V65.0361H266.745V66.1535H264.167V69.0307H266.84V70.148H262.736ZM264.065 68.096V67.0152H266.438V68.096H264.065Z" fill="white"/>
<path d="M269.439 70.2502C269.02 70.2502 268.616 70.1991 268.226 70.0969C267.842 69.9898 267.528 69.8535 267.284 69.6879L267.759 68.6217C267.988 68.7678 268.251 68.8895 268.548 68.9869C268.85 69.0794 269.149 69.1256 269.446 69.1256C269.646 69.1256 269.806 69.1086 269.928 69.0745C270.05 69.0356 270.137 68.9869 270.191 68.9285C270.249 68.8652 270.278 68.7921 270.278 68.7094C270.278 68.5925 270.225 68.5 270.118 68.4319C270.011 68.3637 269.872 68.3077 269.702 68.2639C269.531 68.2201 269.341 68.1763 269.132 68.1325C268.927 68.0887 268.721 68.0327 268.511 67.9645C268.307 67.8963 268.119 67.8087 267.949 67.7016C267.779 67.5896 267.64 67.446 267.533 67.2708C267.426 67.0906 267.372 66.8642 267.372 66.5916C267.372 66.2849 267.455 66.0074 267.62 65.7591C267.791 65.5108 268.044 65.3112 268.38 65.1603C268.716 65.0094 269.134 64.9339 269.636 64.9339C269.972 64.9339 270.3 64.9729 270.622 65.0508C270.948 65.1238 271.238 65.2333 271.491 65.3794L271.045 66.4529C270.802 66.3214 270.561 66.224 270.322 66.1608C270.084 66.0926 269.852 66.0585 269.629 66.0585C269.429 66.0585 269.268 66.0804 269.147 66.1242C269.025 66.1632 268.937 66.2167 268.884 66.2849C268.83 66.3531 268.803 66.431 268.803 66.5186C268.803 66.6306 268.854 66.7206 268.957 66.7888C269.064 66.8521 269.203 66.9056 269.373 66.9494C269.548 66.9884 269.738 67.0298 269.943 67.0736C270.152 67.1174 270.359 67.1734 270.563 67.2415C270.773 67.3048 270.962 67.3925 271.133 67.5044C271.303 67.6115 271.44 67.7552 271.542 67.9353C271.649 68.1106 271.702 68.3321 271.702 68.5998C271.702 68.8968 271.617 69.1719 271.447 69.425C271.281 69.6733 271.031 69.8729 270.695 70.0239C270.364 70.1748 269.945 70.2502 269.439 70.2502Z" fill="white"/>
<path d="M272.37 70.148V65.0361H276.38V66.1535H273.802V69.0307H276.474V70.148H272.37ZM273.699 68.096V67.0152H276.073V68.096H273.699Z" fill="white"/>
<path d="M277.277 70.148V65.0361H278.467L281.286 68.4392H280.724V65.0361H282.14V70.148H280.95L278.131 66.745H278.694V70.148H277.277Z" fill="white"/>
<path d="M284.248 70.148V66.1827H282.678V65.0361H287.257V66.1827H285.694V70.148H284.248Z" fill="white"/>
<path d="M286.926 70.148L289.182 65.0361H290.606L292.87 70.148H291.366L289.598 65.7445H290.168L288.401 70.148H286.926ZM288.16 69.1548L288.532 68.0887H291.03L291.402 69.1548H288.16Z" fill="white"/>
<path d="M293.28 70.148V65.0361H294.47L297.289 68.4392H296.727V65.0361H298.143V70.148H296.953L294.134 66.745H294.697V70.148H293.28Z" fill="white"/>
<path d="M300.251 70.148V66.1827H298.681V65.0361H303.26V66.1827H301.697V70.148H300.251Z" fill="white"/>
<path d="M303.799 70.148V65.0361H307.808V66.1535H305.23V69.0307H307.903V70.148H303.799ZM305.128 68.096V67.0152H307.501V68.096H305.128Z" fill="white"/>
<path d="M310.502 70.2502C310.083 70.2502 309.679 70.1991 309.289 70.0969C308.905 69.9898 308.591 69.8535 308.347 69.6879L308.822 68.6217C309.051 68.7678 309.314 68.8895 309.611 68.9869C309.913 69.0794 310.212 69.1256 310.509 69.1256C310.709 69.1256 310.869 69.1086 310.991 69.0745C311.113 69.0356 311.2 68.9869 311.254 68.9285C311.312 68.8652 311.342 68.7921 311.342 68.7094C311.342 68.5925 311.288 68.5 311.181 68.4319C311.074 68.3637 310.935 68.3077 310.765 68.2639C310.594 68.2201 310.404 68.1763 310.195 68.1325C309.991 68.0887 309.784 68.0327 309.574 67.9645C309.37 67.8963 309.182 67.8087 309.012 67.7016C308.842 67.5896 308.703 67.446 308.596 67.2708C308.489 67.0906 308.435 66.8642 308.435 66.5916C308.435 66.2849 308.518 66.0074 308.683 65.7591C308.854 65.5108 309.107 65.3112 309.443 65.1603C309.779 65.0094 310.197 64.9339 310.699 64.9339C311.035 64.9339 311.363 64.9729 311.685 65.0508C312.011 65.1238 312.301 65.2333 312.554 65.3794L312.108 66.4529C311.865 66.3214 311.624 66.224 311.385 66.1608C311.147 66.0926 310.916 66.0585 310.692 66.0585C310.492 66.0585 310.331 66.0804 310.21 66.1242C310.088 66.1632 310 66.2167 309.947 66.2849C309.893 66.3531 309.866 66.431 309.866 66.5186C309.866 66.6306 309.918 66.7206 310.02 66.7888C310.127 66.8521 310.266 66.9056 310.436 66.9494C310.611 66.9884 310.801 67.0298 311.006 67.0736C311.215 67.1174 311.422 67.1734 311.626 67.2415C311.836 67.3048 312.026 67.3925 312.196 67.5044C312.366 67.6115 312.503 67.7552 312.605 67.9353C312.712 68.1106 312.766 68.3321 312.766 68.5998C312.766 68.8968 312.68 69.1719 312.51 69.425C312.344 69.6733 312.094 69.8729 311.758 70.0239C311.427 70.1748 311.008 70.2502 310.502 70.2502Z" fill="white"/>
<path d="M315.559 70.148V65.0361H317.976C318.541 65.0361 319.037 65.1408 319.466 65.3502C319.894 65.5595 320.227 65.854 320.466 66.2338C320.709 66.6135 320.831 67.0663 320.831 67.5921C320.831 68.113 320.709 68.5658 320.466 68.9504C320.227 69.3301 319.894 69.6246 319.466 69.834C319.037 70.0433 318.541 70.148 317.976 70.148H315.559ZM317.005 68.9942H317.917C318.21 68.9942 318.463 68.9406 318.677 68.8335C318.896 68.7215 319.066 68.5609 319.188 68.3515C319.31 68.1373 319.371 67.8842 319.371 67.5921C319.371 67.2951 319.31 67.0419 319.188 66.8326C319.066 66.6233 318.896 66.465 318.677 66.3579C318.463 66.2459 318.21 66.19 317.917 66.19H317.005V68.9942Z" fill="white"/>
<path d="M321.592 70.148V65.0361H325.601V66.1535H323.023V69.0307H325.696V70.148H321.592ZM322.921 68.096V67.0152H325.294V68.096H322.921Z" fill="white"/>
<path d="M328.624 70.148V65.0361H332.633V66.1535H330.055V69.0307H332.728V70.148H328.624ZM329.953 68.096V67.0152H332.326V68.096H329.953Z" fill="white"/>
<path d="M333.53 70.148V65.0361H334.72L337.539 68.4392H336.977V65.0361H338.393V70.148H337.203L334.384 66.745H334.947V70.148H333.53Z" fill="white"/>
<path d="M340.502 70.148V66.1827H338.931V65.0361H343.51V66.1827H341.947V70.148H340.502Z" fill="white"/>
<path d="M344.049 70.148V65.0361H345.495V70.148H344.049Z" fill="white"/>
<path d="M346.523 70.148V65.0361H348.941C349.505 65.0361 350.002 65.1408 350.43 65.3502C350.859 65.5595 351.192 65.854 351.431 66.2338C351.674 66.6135 351.796 67.0663 351.796 67.5921C351.796 68.113 351.674 68.5658 351.431 68.9504C351.192 69.3301 350.859 69.6246 350.43 69.834C350.002 70.0433 349.505 70.148 348.941 70.148H346.523ZM347.969 68.9942H348.882C349.174 68.9942 349.428 68.9406 349.642 68.8335C349.861 68.7215 350.031 68.5609 350.153 68.3515C350.275 68.1373 350.335 67.8842 350.335 67.5921C350.335 67.2951 350.275 67.0419 350.153 66.8326C350.031 66.6233 349.861 66.465 349.642 66.3579C349.428 66.2459 349.174 66.19 348.882 66.19H347.969V68.9942Z" fill="white"/>
<path d="M351.872 70.148L354.129 65.0361H355.553L357.816 70.148H356.312L354.545 65.7445H355.114L353.347 70.148H351.872ZM353.106 69.1548L353.479 68.0887H355.976L356.349 69.1548H353.106Z" fill="white"/>
<path d="M358.226 70.148V65.0361H360.643C361.208 65.0361 361.705 65.1408 362.133 65.3502C362.562 65.5595 362.895 65.854 363.134 66.2338C363.377 66.6135 363.499 67.0663 363.499 67.5921C363.499 68.113 363.377 68.5658 363.134 68.9504C362.895 69.3301 362.562 69.6246 362.133 69.834C361.705 70.0433 361.208 70.148 360.643 70.148H358.226ZM359.672 68.9942H360.585C360.877 68.9942 361.13 68.9406 361.345 68.8335C361.564 68.7215 361.734 68.5609 361.856 68.3515C361.977 68.1373 362.038 67.8842 362.038 67.5921C362.038 67.2951 361.977 67.0419 361.856 66.8326C361.734 66.6233 361.564 66.465 361.345 66.3579C361.13 66.2459 360.877 66.19 360.585 66.19H359.672V68.9942Z" fill="white"/>
<path d="M364.259 70.148V65.0361H368.269V66.1535H365.691V69.0307H368.364V70.148H364.259ZM365.589 68.096V67.0152H367.962V68.096H365.589Z" fill="white"/>
<path d="M370.962 70.2502C370.544 70.2502 370.14 70.1991 369.75 70.0969C369.366 69.9898 369.052 69.8535 368.808 69.6879L369.283 68.6217C369.512 68.7678 369.775 68.8895 370.072 68.9869C370.373 69.0794 370.673 69.1256 370.97 69.1256C371.169 69.1256 371.33 69.1086 371.452 69.0745C371.573 69.0356 371.661 68.9869 371.715 68.9285C371.773 68.8652 371.802 68.7921 371.802 68.7094C371.802 68.5925 371.749 68.5 371.642 68.4319C371.534 68.3637 371.396 68.3077 371.225 68.2639C371.055 68.2201 370.865 68.1763 370.656 68.1325C370.451 68.0887 370.244 68.0327 370.035 67.9645C369.83 67.8963 369.643 67.8087 369.473 67.7016C369.302 67.5896 369.164 67.446 369.056 67.2708C368.949 67.0906 368.896 66.8642 368.896 66.5916C368.896 66.2849 368.979 66.0074 369.144 65.7591C369.314 65.5108 369.568 65.3112 369.904 65.1603C370.239 65.0094 370.658 64.9339 371.16 64.9339C371.495 64.9339 371.824 64.9729 372.145 65.0508C372.472 65.1238 372.761 65.2333 373.014 65.3794L372.569 66.4529C372.326 66.3214 372.085 66.224 371.846 66.1608C371.607 66.0926 371.376 66.0585 371.152 66.0585C370.953 66.0585 370.792 66.0804 370.67 66.1242C370.549 66.1632 370.461 66.2167 370.407 66.2849C370.354 66.3531 370.327 66.431 370.327 66.5186C370.327 66.6306 370.378 66.7206 370.48 66.7888C370.588 66.8521 370.726 66.9056 370.897 66.9494C371.072 66.9884 371.262 67.0298 371.466 67.0736C371.676 67.1174 371.883 67.1734 372.087 67.2415C372.296 67.3048 372.486 67.3925 372.657 67.5044C372.827 67.6115 372.963 67.7552 373.066 67.9353C373.173 68.1106 373.226 68.3321 373.226 68.5998C373.226 68.8968 373.141 69.1719 372.971 69.425C372.805 69.6733 372.554 69.8729 372.218 70.0239C371.887 70.1748 371.469 70.2502 370.962 70.2502Z" fill="white"/>
<path d="M241.705 88.4046V83.2928H243.151V88.4046H241.705Z" fill="white"/>
<path d="M244.18 88.4046V83.2928H245.37L248.189 86.6958H247.626V83.2928H249.043V88.4046H247.853L245.034 85.0016H245.596V88.4046H244.18Z" fill="white"/>
<path d="M251.86 88.5069C251.441 88.5069 251.037 88.4557 250.647 88.3535C250.263 88.2464 249.949 88.1101 249.705 87.9445L250.18 86.8784C250.409 87.0244 250.672 87.1461 250.969 87.2435C251.27 87.336 251.57 87.3822 251.867 87.3822C252.066 87.3822 252.227 87.3652 252.349 87.3311C252.471 87.2922 252.558 87.2435 252.612 87.1851C252.67 87.1218 252.699 87.0488 252.699 86.966C252.699 86.8492 252.646 86.7566 252.539 86.6885C252.432 86.6203 252.293 86.5643 252.122 86.5205C251.952 86.4767 251.762 86.4329 251.553 86.3891C251.348 86.3453 251.141 86.2893 250.932 86.2211C250.728 86.153 250.54 86.0653 250.37 85.9582C250.199 85.8463 250.061 85.7026 249.954 85.5274C249.846 85.3472 249.793 85.1209 249.793 84.8482C249.793 84.5415 249.876 84.264 250.041 84.0157C250.212 83.7674 250.465 83.5678 250.801 83.4169C251.137 83.266 251.555 83.1905 252.057 83.1905C252.393 83.1905 252.721 83.2295 253.043 83.3074C253.369 83.3804 253.658 83.4899 253.912 83.636L253.466 84.7095C253.223 84.578 252.982 84.4807 252.743 84.4174C252.505 84.3492 252.273 84.3151 252.049 84.3151C251.85 84.3151 251.689 84.337 251.567 84.3809C251.446 84.4198 251.358 84.4734 251.305 84.5415C251.251 84.6097 251.224 84.6876 251.224 84.7752C251.224 84.8872 251.275 84.9772 251.378 85.0454C251.485 85.1087 251.623 85.1622 251.794 85.2061C251.969 85.245 252.159 85.2864 252.363 85.3302C252.573 85.374 252.78 85.43 252.984 85.4982C253.194 85.5615 253.383 85.6491 253.554 85.7611C253.724 85.8682 253.861 86.0118 253.963 86.1919C254.07 86.3672 254.123 86.5887 254.123 86.8565C254.123 87.1534 254.038 87.4285 253.868 87.6817C253.702 87.9299 253.452 88.1295 253.116 88.2805C252.785 88.4314 252.366 88.5069 251.86 88.5069Z" fill="white"/>
<path d="M255.808 88.4046V84.4393H254.238V83.2928H258.817V84.4393H257.254V88.4046H255.808Z" fill="white"/>
<path d="M259.355 88.4046V83.2928H260.801V88.4046H259.355Z" fill="white"/>
<path d="M262.918 88.4046V84.4393H261.348V83.2928H265.927V84.4393H264.364V88.4046H262.918Z" fill="white"/>
<path d="M268.724 88.5069C267.97 88.5069 267.381 88.2999 266.957 87.8861C266.534 87.4723 266.322 86.8857 266.322 86.1262V83.2928H267.768V86.0824C267.768 86.5205 267.853 86.8345 268.023 87.0244C268.199 87.2143 268.437 87.3092 268.739 87.3092C269.041 87.3092 269.277 87.2143 269.447 87.0244C269.618 86.8345 269.703 86.5205 269.703 86.0824V83.2928H271.127V86.1262C271.127 86.8857 270.915 87.4723 270.492 87.8861C270.068 88.2999 269.479 88.5069 268.724 88.5069Z" fill="white"/>
<path d="M272.107 88.4046V83.2928H273.552V88.4046H272.107Z" fill="white"/>
<path d="M277.13 88.5069C276.726 88.5069 276.351 88.4436 276.005 88.317C275.664 88.1855 275.367 88.0005 275.114 87.762C274.866 87.5234 274.671 87.2435 274.53 86.9222C274.389 86.596 274.318 86.2382 274.318 85.8487C274.318 85.4592 274.389 85.1038 274.53 84.7825C274.671 84.4563 274.866 84.1739 275.114 83.9354C275.367 83.6968 275.664 83.5143 276.005 83.3877C276.351 83.2562 276.726 83.1905 277.13 83.1905C277.602 83.1905 278.023 83.2733 278.393 83.4388C278.768 83.6043 279.08 83.8429 279.328 84.1545L278.408 84.987C278.242 84.7922 278.06 84.6438 277.86 84.5415C277.665 84.4393 277.446 84.3882 277.203 84.3882C276.993 84.3882 276.801 84.4222 276.626 84.4904C276.451 84.5586 276.3 84.6584 276.173 84.7898C276.051 84.9164 275.954 85.0697 275.881 85.2499C275.813 85.43 275.779 85.6296 275.779 85.8487C275.779 86.0678 275.813 86.2674 275.881 86.4475C275.954 86.6276 276.051 86.7834 276.173 86.9149C276.3 87.0415 276.451 87.1388 276.626 87.207C276.801 87.2751 276.993 87.3092 277.203 87.3092C277.446 87.3092 277.665 87.2581 277.86 87.1559C278.06 87.0536 278.242 86.9051 278.408 86.7104L279.328 87.5429C279.08 87.8496 278.768 88.0882 278.393 88.2586C278.023 88.4241 277.602 88.5069 277.13 88.5069ZM276.823 90.128C276.701 90.128 276.575 90.1134 276.443 90.0842C276.317 90.055 276.212 90.0185 276.129 89.9747L276.319 89.427C276.382 89.4562 276.451 89.4805 276.524 89.5C276.602 89.5195 276.684 89.5292 276.772 89.5292C276.903 89.5292 276.996 89.5098 277.049 89.4708C277.108 89.4319 277.137 89.3832 277.137 89.3247C277.137 89.2663 277.11 89.2201 277.057 89.186C277.008 89.1568 276.925 89.1422 276.808 89.1422H276.538L276.728 88.3389H277.451L277.349 88.7771C277.573 88.8014 277.733 88.872 277.831 88.9888C277.928 89.1057 277.977 89.2322 277.977 89.3686C277.977 89.6022 277.872 89.7873 277.663 89.9236C277.454 90.0599 277.174 90.128 276.823 90.128Z" fill="white"/>
<path d="M282.286 88.5069C281.878 88.5069 281.5 88.4411 281.155 88.3097C280.809 88.1782 280.507 87.9932 280.249 87.7547C279.996 87.5113 279.799 87.2289 279.658 86.9076C279.516 86.5863 279.446 86.2333 279.446 85.8487C279.446 85.4641 279.516 85.1111 279.658 84.7898C279.799 84.4685 279.996 84.1886 280.249 83.95C280.507 83.7066 280.809 83.5191 281.155 83.3877C281.5 83.2562 281.878 83.1905 282.286 83.1905C282.7 83.1905 283.078 83.2562 283.418 83.3877C283.764 83.5191 284.064 83.7066 284.317 83.95C284.57 84.1886 284.767 84.4685 284.908 84.7898C285.054 85.1111 285.127 85.4641 285.127 85.8487C285.127 86.2333 285.054 86.5887 284.908 86.9149C284.767 87.2362 284.57 87.5161 284.317 87.7547C284.064 87.9932 283.764 88.1782 283.418 88.3097C283.078 88.4411 282.7 88.5069 282.286 88.5069ZM282.286 87.3092C282.481 87.3092 282.661 87.2751 282.827 87.207C282.997 87.1388 283.143 87.0415 283.265 86.9149C283.392 86.7834 283.489 86.6276 283.557 86.4475C283.63 86.2674 283.667 86.0678 283.667 85.8487C283.667 85.6247 283.63 85.4251 283.557 85.2499C283.489 85.0697 283.392 84.9164 283.265 84.7898C283.143 84.6584 282.997 84.5586 282.827 84.4904C282.661 84.4222 282.481 84.3882 282.286 84.3882C282.092 84.3882 281.909 84.4222 281.739 84.4904C281.573 84.5586 281.427 84.6584 281.301 84.7898C281.179 84.9164 281.082 85.0697 281.009 85.2499C280.94 85.4251 280.906 85.6247 280.906 85.8487C280.906 86.0678 280.94 86.2674 281.009 86.4475C281.082 86.6276 281.179 86.7834 281.301 86.9149C281.427 87.0415 281.573 87.1388 281.739 87.207C281.909 87.2751 282.092 87.3092 282.286 87.3092ZM282.871 82.9349C282.739 82.9349 282.62 82.913 282.513 82.8692C282.411 82.8205 282.318 82.767 282.235 82.7085C282.153 82.6453 282.075 82.5917 282.002 82.5479C281.929 82.4992 281.856 82.4749 281.783 82.4749C281.69 82.4749 281.612 82.5114 281.549 82.5844C281.491 82.6574 281.456 82.7524 281.447 82.8692H280.753C280.763 82.5187 280.85 82.2339 281.016 82.0148C281.181 81.7957 281.41 81.6862 281.702 81.6862C281.839 81.6862 281.958 81.7105 282.06 81.7592C282.162 81.803 282.255 81.8566 282.338 81.9199C282.425 81.9783 282.506 82.0318 282.579 82.0805C282.652 82.1243 282.722 82.1462 282.79 82.1462C282.888 82.1462 282.966 82.1122 283.024 82.044C283.087 81.971 283.121 81.8785 283.126 81.7665H283.813C283.808 82.1122 283.723 82.3945 283.557 82.6136C283.392 82.8278 283.163 82.9349 282.871 82.9349Z" fill="white"/>
<path d="M285.885 88.4046V83.2928H289.894V84.4101H287.316V87.2873H289.989V88.4046H285.885ZM287.214 86.3526V85.2718H289.587V86.3526H287.214Z" fill="white"/>
<path d="M292.587 88.5069C292.169 88.5069 291.765 88.4557 291.375 88.3535C290.991 88.2464 290.677 88.1101 290.433 87.9445L290.908 86.8784C291.137 87.0244 291.4 87.1461 291.697 87.2435C291.998 87.336 292.298 87.3822 292.595 87.3822C292.794 87.3822 292.955 87.3652 293.077 87.3311C293.198 87.2922 293.286 87.2435 293.34 87.1851C293.398 87.1218 293.427 87.0488 293.427 86.966C293.427 86.8492 293.374 86.7566 293.267 86.6885C293.159 86.6203 293.021 86.5643 292.85 86.5205C292.68 86.4767 292.49 86.4329 292.281 86.3891C292.076 86.3453 291.869 86.2893 291.66 86.2211C291.456 86.153 291.268 86.0653 291.098 85.9582C290.927 85.8463 290.789 85.7026 290.681 85.5274C290.574 85.3472 290.521 85.1209 290.521 84.8482C290.521 84.5415 290.604 84.264 290.769 84.0157C290.939 83.7674 291.193 83.5678 291.529 83.4169C291.864 83.266 292.283 83.1905 292.785 83.1905C293.121 83.1905 293.449 83.2295 293.77 83.3074C294.097 83.3804 294.386 83.4899 294.639 83.636L294.194 84.7095C293.951 84.578 293.71 84.4807 293.471 84.4174C293.233 84.3492 293.001 84.3151 292.777 84.3151C292.578 84.3151 292.417 84.337 292.295 84.3809C292.174 84.4198 292.086 84.4734 292.032 84.5415C291.979 84.6097 291.952 84.6876 291.952 84.7752C291.952 84.8872 292.003 84.9772 292.105 85.0454C292.213 85.1087 292.351 85.1622 292.522 85.2061C292.697 85.245 292.887 85.2864 293.091 85.3302C293.301 85.374 293.508 85.43 293.712 85.4982C293.921 85.5615 294.111 85.6491 294.282 85.7611C294.452 85.8682 294.588 86.0118 294.691 86.1919C294.798 86.3672 294.851 86.5887 294.851 86.8565C294.851 87.1534 294.766 87.4285 294.596 87.6817C294.43 87.9299 294.179 88.1295 293.844 88.2805C293.512 88.4314 293.094 88.5069 292.587 88.5069Z" fill="white"/>
<path d="M295.443 89.5511L295.99 87.6524L296.188 88.4411C295.944 88.4411 295.745 88.3705 295.589 88.2293C295.433 88.0833 295.355 87.8886 295.355 87.6451C295.355 87.392 295.433 87.1924 295.589 87.0463C295.749 86.9003 295.949 86.8272 296.188 86.8272C296.426 86.8272 296.623 86.9027 296.779 87.0536C296.935 87.1997 297.013 87.3969 297.013 87.6451C297.013 87.7133 297.008 87.7815 296.998 87.8496C296.988 87.9178 296.967 88.0005 296.932 88.0979C296.898 88.1953 296.845 88.3243 296.772 88.4849L296.312 89.5511H295.443Z" fill="white"/>
<path d="M299.855 88.4046V83.2928H303.864V84.4101H301.286V87.2873H303.959V88.4046H299.855ZM301.184 86.3526V85.2718H303.558V86.3526H301.184Z" fill="white"/>
<path d="M306.558 88.5069C306.139 88.5069 305.735 88.4557 305.346 88.3535C304.961 88.2464 304.647 88.1101 304.404 87.9445L304.878 86.8784C305.107 87.0244 305.37 87.1461 305.667 87.2435C305.969 87.336 306.268 87.3822 306.565 87.3822C306.765 87.3822 306.926 87.3652 307.047 87.3311C307.169 87.2922 307.257 87.2435 307.31 87.1851C307.369 87.1218 307.398 87.0488 307.398 86.966C307.398 86.8492 307.344 86.7566 307.237 86.6885C307.13 86.6203 306.991 86.5643 306.821 86.5205C306.651 86.4767 306.461 86.4329 306.251 86.3891C306.047 86.3453 305.84 86.2893 305.631 86.2211C305.426 86.153 305.239 86.0653 305.068 85.9582C304.898 85.8463 304.759 85.7026 304.652 85.5274C304.545 85.3472 304.491 85.1209 304.491 84.8482C304.491 84.5415 304.574 84.264 304.74 84.0157C304.91 83.7674 305.163 83.5678 305.499 83.4169C305.835 83.266 306.254 83.1905 306.755 83.1905C307.091 83.1905 307.42 83.2295 307.741 83.3074C308.067 83.3804 308.357 83.4899 308.61 83.636L308.165 84.7095C307.921 84.578 307.68 84.4807 307.442 84.4174C307.203 84.3492 306.972 84.3151 306.748 84.3151C306.548 84.3151 306.388 84.337 306.266 84.3809C306.144 84.4198 306.057 84.4734 306.003 84.5415C305.949 84.6097 305.923 84.6876 305.923 84.7752C305.923 84.8872 305.974 84.9772 306.076 85.0454C306.183 85.1087 306.322 85.1622 306.492 85.2061C306.668 85.245 306.857 85.2864 307.062 85.3302C307.271 85.374 307.478 85.43 307.683 85.4982C307.892 85.5615 308.082 85.6491 308.252 85.7611C308.423 85.8682 308.559 86.0118 308.661 86.1919C308.768 86.3672 308.822 86.5887 308.822 86.8565C308.822 87.1534 308.737 87.4285 308.566 87.6817C308.401 87.9299 308.15 88.1295 307.814 88.2805C307.483 88.4314 307.064 88.5069 306.558 88.5069Z" fill="white"/>
<path d="M310.507 88.4046V84.4393H308.936V83.2928H313.515V84.4393H311.952V88.4046H310.507Z" fill="white"/>
<path d="M316.313 88.5069C315.558 88.5069 314.969 88.2999 314.546 87.8861C314.122 87.4723 313.91 86.8857 313.91 86.1262V83.2928H315.356V86.0824C315.356 86.5205 315.441 86.8345 315.612 87.0244C315.787 87.2143 316.026 87.3092 316.327 87.3092C316.629 87.3092 316.865 87.2143 317.036 87.0244C317.206 86.8345 317.291 86.5205 317.291 86.0824V83.2928H318.715V86.1262C318.715 86.8857 318.504 87.4723 318.08 87.8861C317.656 88.2999 317.067 88.5069 316.313 88.5069Z" fill="white"/>
<path d="M319.695 88.4046V83.2928H322.112C322.677 83.2928 323.173 83.3974 323.602 83.6068C324.03 83.8161 324.364 84.1107 324.602 84.4904C324.846 84.8701 324.967 85.3229 324.967 85.8487C324.967 86.3696 324.846 86.8224 324.602 87.207C324.364 87.5867 324.03 87.8813 323.602 88.0906C323.173 88.2999 322.677 88.4046 322.112 88.4046H319.695ZM321.141 87.2508H322.054C322.346 87.2508 322.599 87.1972 322.813 87.0901C323.032 86.9782 323.203 86.8175 323.324 86.6082C323.446 86.394 323.507 86.1408 323.507 85.8487C323.507 85.5517 323.446 85.2986 323.324 85.0892C323.203 84.8799 323.032 84.7216 322.813 84.6145C322.599 84.5026 322.346 84.4466 322.054 84.4466H321.141V87.2508Z" fill="white"/>
<path d="M325.043 88.4046L327.3 83.2928H328.724L330.988 88.4046H329.483L327.716 84.0011H328.286L326.519 88.4046H325.043ZM326.278 87.4115L326.65 86.3453H329.147L329.52 87.4115H326.278Z" fill="white"/>
<path d="M331.398 88.4046V83.2928H332.588L335.407 86.6958H334.844V83.2928H336.261V88.4046H335.071L332.252 85.0016H332.814V88.4046H331.398Z" fill="white"/>
<path d="M338.369 88.4046V84.4393H336.799V83.2928H341.378V84.4393H339.815V88.4046H338.369Z" fill="white"/>
<path d="M341.917 88.4046V83.2928H345.926V84.4101H343.348V87.2873H346.021V88.4046H341.917ZM343.246 86.3526V85.2718H345.619V86.3526H343.246Z" fill="white"/>
<path d="M348.619 88.5069C348.201 88.5069 347.797 88.4557 347.407 88.3535C347.023 88.2464 346.709 88.1101 346.465 87.9445L346.94 86.8784C347.169 87.0244 347.432 87.1461 347.729 87.2435C348.03 87.336 348.33 87.3822 348.627 87.3822C348.826 87.3822 348.987 87.3652 349.109 87.3311C349.23 87.2922 349.318 87.2435 349.372 87.1851C349.43 87.1218 349.459 87.0488 349.459 86.966C349.459 86.8492 349.406 86.7566 349.299 86.6885C349.191 86.6203 349.053 86.5643 348.882 86.5205C348.712 86.4767 348.522 86.4329 348.313 86.3891C348.108 86.3453 347.901 86.2893 347.692 86.2211C347.488 86.153 347.3 86.0653 347.13 85.9582C346.959 85.8463 346.821 85.7026 346.714 85.5274C346.606 85.3472 346.553 85.1209 346.553 84.8482C346.553 84.5415 346.636 84.264 346.801 84.0157C346.971 83.7674 347.225 83.5678 347.561 83.4169C347.897 83.266 348.315 83.1905 348.817 83.1905C349.153 83.1905 349.481 83.2295 349.802 83.3074C350.129 83.3804 350.418 83.4899 350.672 83.636L350.226 84.7095C349.983 84.578 349.742 84.4807 349.503 84.4174C349.265 84.3492 349.033 84.3151 348.809 84.3151C348.61 84.3151 348.449 84.337 348.327 84.3809C348.206 84.4198 348.118 84.4734 348.064 84.5415C348.011 84.6097 347.984 84.6876 347.984 84.7752C347.984 84.8872 348.035 84.9772 348.138 85.0454C348.245 85.1087 348.383 85.1622 348.554 85.2061C348.729 85.245 348.919 85.2864 349.123 85.3302C349.333 85.374 349.54 85.43 349.744 85.4982C349.953 85.5615 350.143 85.6491 350.314 85.7611C350.484 85.8682 350.62 86.0118 350.723 86.1919C350.83 86.3672 350.883 86.5887 350.883 86.8565C350.883 87.1534 350.798 87.4285 350.628 87.6817C350.462 87.9299 350.211 88.1295 349.876 88.2805C349.544 88.4314 349.126 88.5069 348.619 88.5069Z" fill="white"/>
<path d="M351.475 89.5511L352.022 87.6524L352.22 88.4411C351.976 88.4411 351.777 88.3705 351.621 88.2293C351.465 88.0833 351.387 87.8886 351.387 87.6451C351.387 87.392 351.465 87.1924 351.621 87.0463C351.781 86.9003 351.981 86.8272 352.22 86.8272C352.458 86.8272 352.655 86.9027 352.811 87.0536C352.967 87.1997 353.045 87.3969 353.045 87.6451C353.045 87.7133 353.04 87.7815 353.03 87.8496C353.02 87.9178 352.999 88.0005 352.964 88.0979C352.93 88.1953 352.877 88.3243 352.804 88.4849L352.344 89.5511H351.475Z" fill="white"/>
<path d="M241.705 106.661V101.549H244.042C244.509 101.549 244.911 101.625 245.247 101.776C245.588 101.927 245.85 102.146 246.035 102.433C246.22 102.715 246.313 103.051 246.313 103.441C246.313 103.825 246.22 104.159 246.035 104.441C245.85 104.724 245.588 104.943 245.247 105.098C244.911 105.249 244.509 105.325 244.042 105.325H242.508L243.151 104.697V106.661H241.705ZM243.151 104.85L242.508 104.186H243.954C244.256 104.186 244.48 104.12 244.626 103.988C244.777 103.857 244.852 103.674 244.852 103.441C244.852 103.202 244.777 103.017 244.626 102.886C244.48 102.754 244.256 102.689 243.954 102.689H242.508L243.151 102.024V104.85Z" fill="white"/>
<path d="M249.667 106.763C249.258 106.763 248.881 106.698 248.535 106.566C248.19 106.435 247.888 106.25 247.63 106.011C247.377 105.768 247.179 105.486 247.038 105.164C246.897 104.843 246.826 104.49 246.826 104.105C246.826 103.721 246.897 103.368 247.038 103.046C247.179 102.725 247.377 102.445 247.63 102.207C247.888 101.963 248.19 101.776 248.535 101.644C248.881 101.513 249.258 101.447 249.667 101.447C250.081 101.447 250.458 101.513 250.799 101.644C251.145 101.776 251.444 101.963 251.697 102.207C251.95 102.445 252.148 102.725 252.289 103.046C252.435 103.368 252.508 103.721 252.508 104.105C252.508 104.49 252.435 104.845 252.289 105.171C252.148 105.493 251.95 105.773 251.697 106.011C251.444 106.25 251.145 106.435 250.799 106.566C250.458 106.698 250.081 106.763 249.667 106.763ZM249.667 105.566C249.862 105.566 250.042 105.532 250.208 105.464C250.378 105.395 250.524 105.298 250.646 105.171C250.772 105.04 250.87 104.884 250.938 104.704C251.011 104.524 251.047 104.324 251.047 104.105C251.047 103.881 251.011 103.682 250.938 103.506C250.87 103.326 250.772 103.173 250.646 103.046C250.524 102.915 250.378 102.815 250.208 102.747C250.042 102.679 249.862 102.645 249.667 102.645C249.472 102.645 249.29 102.679 249.119 102.747C248.954 102.815 248.808 102.915 248.681 103.046C248.56 103.173 248.462 103.326 248.389 103.506C248.321 103.682 248.287 103.881 248.287 104.105C248.287 104.324 248.321 104.524 248.389 104.704C248.462 104.884 248.56 105.04 248.681 105.171C248.808 105.298 248.954 105.395 249.119 105.464C249.29 105.532 249.472 105.566 249.667 105.566Z" fill="white"/>
<path d="M253.265 106.661V101.549H255.602C256.069 101.549 256.471 101.625 256.807 101.776C257.148 101.927 257.411 102.146 257.596 102.433C257.781 102.715 257.873 103.051 257.873 103.441C257.873 103.825 257.781 104.159 257.596 104.441C257.411 104.724 257.148 104.943 256.807 105.098C256.471 105.249 256.069 105.325 255.602 105.325H254.068L254.711 104.697V106.661H253.265ZM254.711 104.85L254.068 104.186H255.514C255.816 104.186 256.04 104.12 256.186 103.988C256.337 103.857 256.413 103.674 256.413 103.441C256.413 103.202 256.337 103.017 256.186 102.886C256.04 102.754 255.816 102.689 255.514 102.689H254.068L254.711 102.024V104.85Z" fill="white"/>
<path d="M260.887 106.763C260.132 106.763 259.543 106.557 259.12 106.143C258.696 105.729 258.484 105.142 258.484 104.383V101.549H259.93V104.339C259.93 104.777 260.015 105.091 260.186 105.281C260.361 105.471 260.6 105.566 260.902 105.566C261.203 105.566 261.439 105.471 261.61 105.281C261.78 105.091 261.866 104.777 261.866 104.339V101.549H263.29V104.383C263.29 105.142 263.078 105.729 262.654 106.143C262.231 106.557 261.642 106.763 260.887 106.763Z" fill="white"/>
<path d="M264.269 106.661V101.549H265.715V105.515H268.154V106.661H264.269Z" fill="white"/>
<path d="M268.163 106.661L270.419 101.549H271.843L274.107 106.661H272.603L270.835 102.258H271.405L269.638 106.661H268.163ZM269.397 105.668L269.769 104.602H272.267L272.639 105.668H269.397Z" fill="white"/>
<path d="M276.994 106.763C276.59 106.763 276.215 106.7 275.87 106.574C275.529 106.442 275.232 106.257 274.979 106.019C274.73 105.78 274.536 105.5 274.395 105.179C274.253 104.853 274.183 104.495 274.183 104.105C274.183 103.716 274.253 103.36 274.395 103.039C274.536 102.713 274.73 102.431 274.979 102.192C275.232 101.953 275.529 101.771 275.87 101.644C276.215 101.513 276.59 101.447 276.994 101.447C277.467 101.447 277.888 101.53 278.258 101.695C278.633 101.861 278.944 102.1 279.192 102.411L278.272 103.244C278.107 103.049 277.924 102.9 277.725 102.798C277.53 102.696 277.311 102.645 277.067 102.645C276.858 102.645 276.666 102.679 276.49 102.747C276.315 102.815 276.164 102.915 276.038 103.046C275.916 103.173 275.819 103.326 275.746 103.506C275.677 103.687 275.643 103.886 275.643 104.105C275.643 104.324 275.677 104.524 275.746 104.704C275.819 104.884 275.916 105.04 276.038 105.171C276.164 105.298 276.315 105.395 276.49 105.464C276.666 105.532 276.858 105.566 277.067 105.566C277.311 105.566 277.53 105.515 277.725 105.412C277.924 105.31 278.107 105.162 278.272 104.967L279.192 105.8C278.944 106.106 278.633 106.345 278.258 106.515C277.888 106.681 277.467 106.763 276.994 106.763ZM276.688 108.385C276.566 108.385 276.439 108.37 276.308 108.341C276.181 108.312 276.077 108.275 275.994 108.231L276.184 107.684C276.247 107.713 276.315 107.737 276.388 107.757C276.466 107.776 276.549 107.786 276.636 107.786C276.768 107.786 276.86 107.766 276.914 107.727C276.972 107.688 277.002 107.64 277.002 107.581C277.002 107.523 276.975 107.477 276.921 107.443C276.873 107.413 276.79 107.399 276.673 107.399H276.403L276.593 106.596H277.316L277.213 107.034C277.437 107.058 277.598 107.129 277.695 107.245C277.793 107.362 277.841 107.489 277.841 107.625C277.841 107.859 277.737 108.044 277.527 108.18C277.318 108.316 277.038 108.385 276.688 108.385Z" fill="white"/>
<path d="M279.081 106.661L281.338 101.549H282.762L285.025 106.661H283.521L281.754 102.258H282.323L280.556 106.661H279.081ZM280.315 105.668L280.688 104.602H283.185L283.558 105.668H280.315ZM282.637 101.192C282.506 101.192 282.387 101.17 282.28 101.126C282.177 101.077 282.085 101.024 282.002 100.965C281.919 100.902 281.841 100.848 281.768 100.805C281.695 100.756 281.622 100.731 281.549 100.731C281.457 100.731 281.379 100.768 281.316 100.841C281.257 100.914 281.223 101.009 281.213 101.126H280.52C280.529 100.775 280.617 100.49 280.783 100.271C280.948 100.052 281.177 99.9428 281.469 99.9428C281.605 99.9428 281.725 99.9671 281.827 100.016C281.929 100.06 282.022 100.113 282.104 100.176C282.192 100.235 282.272 100.288 282.345 100.337C282.418 100.381 282.489 100.403 282.557 100.403C282.654 100.403 282.732 100.369 282.791 100.301C282.854 100.228 282.888 100.135 282.893 100.023H283.579C283.575 100.369 283.489 100.651 283.324 100.87C283.158 101.084 282.929 101.192 282.637 101.192Z" fill="white"/>
<path d="M287.942 106.763C287.533 106.763 287.156 106.698 286.81 106.566C286.464 106.435 286.162 106.25 285.904 106.011C285.651 105.768 285.454 105.486 285.313 105.164C285.172 104.843 285.101 104.49 285.101 104.105C285.101 103.721 285.172 103.368 285.313 103.046C285.454 102.725 285.651 102.445 285.904 102.207C286.162 101.963 286.464 101.776 286.81 101.644C287.156 101.513 287.533 101.447 287.942 101.447C288.356 101.447 288.733 101.513 289.074 101.644C289.419 101.776 289.719 101.963 289.972 102.207C290.225 102.445 290.422 102.725 290.563 103.046C290.709 103.368 290.783 103.721 290.783 104.105C290.783 104.49 290.709 104.845 290.563 105.171C290.422 105.493 290.225 105.773 289.972 106.011C289.719 106.25 289.419 106.435 289.074 106.566C288.733 106.698 288.356 106.763 287.942 106.763ZM287.942 105.566C288.137 105.566 288.317 105.532 288.482 105.464C288.653 105.395 288.799 105.298 288.92 105.171C289.047 105.04 289.144 104.884 289.212 104.704C289.285 104.524 289.322 104.324 289.322 104.105C289.322 103.881 289.285 103.682 289.212 103.506C289.144 103.326 289.047 103.173 288.92 103.046C288.799 102.915 288.653 102.815 288.482 102.747C288.317 102.679 288.137 102.645 287.942 102.645C287.747 102.645 287.564 102.679 287.394 102.747C287.229 102.815 287.082 102.915 286.956 103.046C286.834 103.173 286.737 103.326 286.664 103.506C286.596 103.682 286.562 103.881 286.562 104.105C286.562 104.324 286.596 104.524 286.664 104.704C286.737 104.884 286.834 105.04 286.956 105.171C287.082 105.298 287.229 105.395 287.394 105.464C287.564 105.532 287.747 105.566 287.942 105.566Z" fill="white"/>
<path d="M293.665 106.661V101.549H297.674V102.667H295.096V105.544H297.769V106.661H293.665ZM294.994 104.609V103.528H297.367V104.609H294.994Z" fill="white"/>
<path d="M298.571 106.661V101.549H299.762L301.88 105.025H301.252L303.311 101.549H304.501L304.516 106.661H303.187L303.172 103.572H303.398L301.858 106.157H301.215L299.63 103.572H299.908V106.661H298.571Z" fill="white"/>
<path d="M310.22 106.763C309.816 106.763 309.441 106.7 309.095 106.574C308.75 106.442 308.45 106.257 308.197 106.019C307.949 105.78 307.754 105.5 307.613 105.179C307.472 104.853 307.401 104.495 307.401 104.105C307.401 103.716 307.472 103.36 307.613 103.039C307.754 102.713 307.951 102.431 308.204 102.192C308.458 101.953 308.757 101.771 309.103 101.644C309.453 101.513 309.835 101.447 310.249 101.447C310.731 101.447 311.162 101.527 311.542 101.688C311.922 101.849 312.236 102.08 312.484 102.382L311.564 103.214C311.388 103.025 311.199 102.883 310.994 102.791C310.794 102.693 310.571 102.645 310.322 102.645C310.103 102.645 309.904 102.679 309.723 102.747C309.543 102.815 309.39 102.915 309.263 103.046C309.137 103.173 309.037 103.326 308.964 103.506C308.896 103.682 308.862 103.881 308.862 104.105C308.862 104.32 308.896 104.517 308.964 104.697C309.037 104.877 309.137 105.033 309.263 105.164C309.39 105.291 309.541 105.391 309.716 105.464C309.896 105.532 310.093 105.566 310.308 105.566C310.522 105.566 310.731 105.532 310.936 105.464C311.14 105.391 311.347 105.269 311.556 105.098L312.367 106.114C312.075 106.323 311.737 106.484 311.352 106.596C310.967 106.707 310.59 106.763 310.22 106.763ZM312.367 106.114L311.089 105.924V103.996H312.367V106.114Z" fill="white"/>
<path d="M313.284 106.661V101.549H317.293V102.667H314.715V105.544H317.388V106.661H313.284ZM314.613 104.609V103.528H316.986V104.609H314.613Z" fill="white"/>
<path d="M318.19 106.661V101.549H320.476C321.221 101.549 321.793 101.72 322.192 102.061C322.596 102.396 322.798 102.857 322.798 103.441C322.798 103.825 322.706 104.159 322.521 104.441C322.336 104.719 322.073 104.933 321.732 105.084C321.396 105.23 320.994 105.303 320.527 105.303H318.993L319.636 104.697V106.661H318.19ZM321.352 106.661L320.082 104.799H321.622L322.9 106.661H321.352ZM319.636 104.85L318.993 104.186H320.439C320.741 104.186 320.965 104.12 321.111 103.988C321.262 103.857 321.338 103.674 321.338 103.441C321.338 103.202 321.262 103.017 321.111 102.886C320.965 102.754 320.741 102.689 320.439 102.689H318.993L319.636 102.024V104.85Z" fill="white"/>
<path d="M322.982 106.661L325.239 101.549H326.663L328.927 106.661H327.422L325.655 102.258H326.225L324.458 106.661H322.982ZM324.217 105.668L324.589 104.602H327.086L327.459 105.668H324.217Z" fill="white"/>
<path d="M329.337 106.661V101.549H330.783V105.515H333.222V106.661H329.337Z" fill="white"/>
</svg>
