<svg width="331" height="13" viewBox="0 0 331 13" fill="none" xmlns="http://www.w3.org/2000/svg">
<path d="M3.66477 1.09091V12H0.703125V1.09091H3.66477ZM5.06836 1.09091H8.75444L11.29 7.26989H11.4178L13.9533 1.09091H17.6394V12H14.7417V5.69318H14.6564L12.2275 11.9148H10.4803L8.05131 5.65057H7.96609V12H5.06836V1.09091ZM21.8768 12H18.6808L22.2816 1.09091H26.3299L29.9308 12H26.7347L24.3484 4.09517H24.2631L21.8768 12ZM21.2802 7.69602H27.2887V9.91193H21.2802V7.69602ZM37.5533 4.69176C37.5071 4.50355 37.4343 4.33842 37.3349 4.19638C37.2354 4.05078 37.1112 3.92827 36.962 3.82884C36.8164 3.72585 36.646 3.6495 36.4506 3.59979C36.2589 3.54652 36.0476 3.51989 35.8168 3.51989C35.3196 3.51989 34.8952 3.63885 34.5437 3.87678C34.1957 4.1147 33.9293 4.45739 33.7447 4.90483C33.5636 5.35227 33.473 5.89205 33.473 6.52415C33.473 7.16335 33.56 7.71023 33.734 8.16477C33.908 8.61932 34.1673 8.96733 34.5117 9.20881C34.8562 9.45028 35.2841 9.57102 35.7955 9.57102C36.2464 9.57102 36.6211 9.50533 36.9194 9.37393C37.2212 9.24254 37.4467 9.05611 37.5959 8.81463C37.745 8.57315 37.8196 8.28906 37.8196 7.96236L38.331 8.01562H35.8381V5.90625H40.6747V7.41903C40.6747 8.41335 40.4634 9.26385 40.0408 9.97053C39.6218 10.6737 39.043 11.2134 38.3043 11.5898C37.5692 11.9627 36.7259 12.1491 35.7741 12.1491C34.7124 12.1491 33.7802 11.9237 32.9776 11.4727C32.1751 11.0217 31.5483 10.3789 31.0973 9.54439C30.6499 8.70987 30.4261 7.71733 30.4261 6.56676C30.4261 5.66477 30.5629 4.86577 30.8363 4.16974C31.1133 3.47372 31.4968 2.88601 31.9869 2.4066C32.4769 1.92365 33.0433 1.55966 33.6861 1.31463C34.3288 1.06605 35.0178 0.941761 35.7528 0.941761C36.3991 0.941761 36.9993 1.03409 37.5533 1.21875C38.1108 1.39986 38.6026 1.65909 39.0288 1.99645C39.4585 2.33026 39.8047 2.72621 40.0675 3.1843C40.3303 3.6424 40.4901 4.14489 40.5469 4.69176H37.5533ZM42.0557 12V1.09091H49.9179V3.47727H45.0173V5.35227H49.5131V7.73864H45.0173V9.61364H49.8966V12H42.0557ZM51.3867 1.09091H55.0728L57.6083 7.26989H57.7362L60.2717 1.09091H63.9577V12H61.06V5.69318H60.9748L58.5458 11.9148H56.7987L54.3697 5.65057H54.2844V12H51.3867V1.09091ZM72.5471 12H68.3496V1.09091H72.5044C73.6266 1.09091 74.5961 1.3093 75.4128 1.74609C76.2331 2.17933 76.8652 2.80433 77.3091 3.62109C77.7566 4.4343 77.9803 5.40909 77.9803 6.54545C77.9803 7.68182 77.7583 8.65838 77.3145 9.47514C76.8706 10.2884 76.242 10.9134 75.4288 11.3501C74.6156 11.7834 73.655 12 72.5471 12ZM71.3113 9.4858H72.4405C72.9803 9.4858 73.4402 9.39879 73.8201 9.22479C74.2037 9.05078 74.4949 8.75071 74.6937 8.32457C74.8961 7.89844 74.9973 7.3054 74.9973 6.54545C74.9973 5.78551 74.8944 5.19247 74.6884 4.76633C74.486 4.3402 74.1877 4.04013 73.7935 3.86612C73.4029 3.69212 72.9235 3.60511 72.3553 3.60511H71.3113V9.4858ZM79.3506 12V1.09091H87.2128V3.47727H82.3122V5.35227H86.808V7.73864H82.3122V9.61364H87.1915V12H79.3506ZM91.6699 12V1.09091H99.3404V3.47727H94.6316V5.35227H98.8716V7.73864H94.6316V12H91.6699ZM106.886 1.09091H109.847V8.07955C109.847 8.91051 109.648 9.62962 109.251 10.2369C108.857 10.8406 108.306 11.3075 107.599 11.6378C106.893 11.9645 106.072 12.1278 105.138 12.1278C104.197 12.1278 103.374 11.9645 102.667 11.6378C101.96 11.3075 101.41 10.8406 101.016 10.2369C100.625 9.62962 100.43 8.91051 100.43 8.07955V1.09091H103.391V7.82386C103.391 8.16122 103.466 8.46307 103.615 8.7294C103.764 8.99219 103.97 9.19815 104.233 9.3473C104.499 9.49645 104.801 9.57102 105.138 9.57102C105.479 9.57102 105.781 9.49645 106.044 9.3473C106.307 9.19815 106.513 8.99219 106.662 8.7294C106.811 8.46307 106.886 8.16122 106.886 7.82386V1.09091ZM120.694 1.09091V12H118.222L114.28 6.26847H114.217V12H111.255V1.09091H113.769L117.647 6.80114H117.732V1.09091H120.694ZM126.292 12H122.095V1.09091H126.25C127.372 1.09091 128.341 1.3093 129.158 1.74609C129.978 2.17933 130.61 2.80433 131.054 3.62109C131.502 4.4343 131.725 5.40909 131.725 6.54545C131.725 7.68182 131.503 8.65838 131.06 9.47514C130.616 10.2884 129.987 10.9134 129.174 11.3501C128.361 11.7834 127.4 12 126.292 12ZM125.056 9.4858H126.186C126.725 9.4858 127.185 9.39879 127.565 9.22479C127.949 9.05078 128.24 8.75071 128.439 8.32457C128.641 7.89844 128.742 7.3054 128.742 6.54545C128.742 5.78551 128.639 5.19247 128.434 4.76633C128.231 4.3402 127.933 4.04013 127.539 3.86612C127.148 3.69212 126.669 3.60511 126.1 3.60511H125.056V9.4858ZM143.664 6.54545C143.664 7.75994 143.428 8.78445 142.955 9.61896C142.483 10.4499 141.846 11.0803 141.043 11.5099C140.241 11.9361 139.346 12.1491 138.358 12.1491C137.364 12.1491 136.466 11.9343 135.663 11.5046C134.864 11.0714 134.229 10.4393 133.756 9.60831C133.287 8.77379 133.053 7.75284 133.053 6.54545C133.053 5.33097 133.287 4.30824 133.756 3.47727C134.229 2.64276 134.864 2.01243 135.663 1.58629C136.466 1.1566 137.364 0.941761 138.358 0.941761C139.346 0.941761 140.241 1.1566 141.043 1.58629C141.846 2.01243 142.483 2.64276 142.955 3.47727C143.428 4.30824 143.664 5.33097 143.664 6.54545ZM140.617 6.54545C140.617 5.89205 140.53 5.34162 140.356 4.89418C140.186 4.44318 139.932 4.10227 139.594 3.87145C139.26 3.63707 138.849 3.51989 138.358 3.51989C137.868 3.51989 137.455 3.63707 137.117 3.87145C136.784 4.10227 136.53 4.44318 136.356 4.89418C136.185 5.34162 136.1 5.89205 136.1 6.54545C136.1 7.19886 136.185 7.75107 136.356 8.20206C136.53 8.6495 136.784 8.99041 137.117 9.22479C137.455 9.45561 137.868 9.57102 138.358 9.57102C138.849 9.57102 139.26 9.45561 139.594 9.22479C139.932 8.99041 140.186 8.6495 140.356 8.20206C140.53 7.75107 140.617 7.19886 140.617 6.54545ZM152.22 12H148.022V1.09091H152.177C153.299 1.09091 154.269 1.3093 155.086 1.74609C155.906 2.17933 156.538 2.80433 156.982 3.62109C157.429 4.4343 157.653 5.40909 157.653 6.54545C157.653 7.68182 157.431 8.65838 156.987 9.47514C156.543 10.2884 155.915 10.9134 155.102 11.3501C154.288 11.7834 153.328 12 152.22 12ZM150.984 9.4858H152.113C152.653 9.4858 153.113 9.39879 153.493 9.22479C153.877 9.05078 154.168 8.75071 154.367 8.32457C154.569 7.89844 154.67 7.3054 154.67 6.54545C154.67 5.78551 154.567 5.19247 154.361 4.76633C154.159 4.3402 153.861 4.04013 153.466 3.86612C153.076 3.69212 152.596 3.60511 152.028 3.60511H150.984V9.4858ZM161.169 12H157.973L161.574 1.09091H165.622L169.223 12H166.027L163.64 4.09517H163.555L161.169 12ZM160.572 7.69602H166.581V9.91193H160.572V7.69602ZM173.262 1.09091H176.948L179.483 7.26989H179.611L182.147 1.09091H185.833V12H182.935V5.69318H182.85L180.421 11.9148H178.674L176.245 5.65057H176.159V12H173.262V1.09091ZM190.07 12H186.874L190.475 1.09091H194.523L198.124 12H194.928L192.542 4.09517H192.456L190.07 12ZM189.474 7.69602H195.482V9.91193H189.474V7.69602ZM199.175 12V1.09091H203.884C204.693 1.09091 205.402 1.23828 206.009 1.53303C206.616 1.82777 207.089 2.25213 207.426 2.80611C207.763 3.36009 207.932 4.02415 207.932 4.7983C207.932 5.57955 207.758 6.23828 207.41 6.7745C207.065 7.31072 206.581 7.71555 205.956 7.98899C205.334 8.26243 204.608 8.39915 203.777 8.39915H200.965V6.09801H203.18C203.528 6.09801 203.825 6.0554 204.07 5.97017C204.319 5.88139 204.509 5.74112 204.64 5.54936C204.775 5.3576 204.842 5.10724 204.842 4.7983C204.842 4.4858 204.775 4.23189 204.64 4.03658C204.509 3.83771 204.319 3.69212 204.07 3.59979C203.825 3.50391 203.528 3.45597 203.18 3.45597H202.136V12H199.175ZM205.567 6.9929L208.294 12H205.077L202.413 6.9929H205.567ZM219.379 5.18182H216.375C216.353 4.93324 216.297 4.70774 216.204 4.50533C216.116 4.30291 215.991 4.12891 215.831 3.98331C215.675 3.83416 215.485 3.72053 215.261 3.6424C215.038 3.56072 214.784 3.51989 214.5 3.51989C214.003 3.51989 213.582 3.64062 213.237 3.8821C212.896 4.12358 212.637 4.46981 212.46 4.92081C212.286 5.3718 212.199 5.91335 212.199 6.54545C212.199 7.21307 212.287 7.77237 212.465 8.22337C212.646 8.67081 212.907 9.00817 213.248 9.23544C213.589 9.45916 213.999 9.57102 214.478 9.57102C214.752 9.57102 214.997 9.53729 215.214 9.46982C215.43 9.39879 215.618 9.29759 215.778 9.16619C215.938 9.0348 216.068 8.87678 216.167 8.69212C216.27 8.50391 216.339 8.29261 216.375 8.05824L219.379 8.07955C219.343 8.54119 219.214 9.01172 218.99 9.49112C218.766 9.96697 218.449 10.4073 218.037 10.8121C217.628 11.2134 217.122 11.5366 216.519 11.7816C215.915 12.0266 215.214 12.1491 214.415 12.1491C213.413 12.1491 212.515 11.9343 211.719 11.5046C210.927 11.0749 210.301 10.4428 209.839 9.60831C209.381 8.77379 209.152 7.75284 209.152 6.54545C209.152 5.33097 209.386 4.30824 209.855 3.47727C210.324 2.64276 210.956 2.01243 211.751 1.58629C212.547 1.1566 213.434 0.941761 214.415 0.941761C215.103 0.941761 215.737 1.03587 216.316 1.22408C216.895 1.41229 217.403 1.6875 217.84 2.04972C218.276 2.40838 218.628 2.8505 218.894 3.37607C219.161 3.90163 219.322 4.50355 219.379 5.18182ZM223.22 12H220.024L223.624 1.09091H227.673L231.274 12H228.078L225.691 4.09517H225.606L223.22 12ZM222.623 7.69602H228.631V9.91193H222.623V7.69602ZM245.881 6.54545C245.881 7.75994 245.645 8.78445 245.172 9.61896C244.7 10.4499 244.063 11.0803 243.26 11.5099C242.457 11.9361 241.563 12.1491 240.575 12.1491C239.581 12.1491 238.683 11.9343 237.88 11.5046C237.081 11.0714 236.445 10.4393 235.973 9.60831C235.504 8.77379 235.27 7.75284 235.27 6.54545C235.27 5.33097 235.504 4.30824 235.973 3.47727C236.445 2.64276 237.081 2.01243 237.88 1.58629C238.683 1.1566 239.581 0.941761 240.575 0.941761C241.563 0.941761 242.457 1.1566 243.26 1.58629C244.063 2.01243 244.7 2.64276 245.172 3.47727C245.645 4.30824 245.881 5.33097 245.881 6.54545ZM242.834 6.54545C242.834 5.89205 242.747 5.34162 242.573 4.89418C242.402 4.44318 242.148 4.10227 241.811 3.87145C241.477 3.63707 241.065 3.51989 240.575 3.51989C240.085 3.51989 239.672 3.63707 239.334 3.87145C239 4.10227 238.746 4.44318 238.572 4.89418C238.402 5.34162 238.317 5.89205 238.317 6.54545C238.317 7.19886 238.402 7.75107 238.572 8.20206C238.746 8.6495 239 8.99041 239.334 9.22479C239.672 9.45561 240.085 9.57102 240.575 9.57102C241.065 9.57102 241.477 9.45561 241.811 9.22479C242.148 8.99041 242.402 8.6495 242.573 8.20206C242.747 7.75107 242.834 7.19886 242.834 6.54545ZM253.707 1.09091H256.669V8.07955C256.669 8.91051 256.47 9.62962 256.072 10.2369C255.678 10.8406 255.127 11.3075 254.421 11.6378C253.714 11.9645 252.894 12.1278 251.96 12.1278C251.019 12.1278 250.195 11.9645 249.488 11.6378C248.782 11.3075 248.231 10.8406 247.837 10.2369C247.446 9.62962 247.251 8.91051 247.251 8.07955V1.09091H250.213V7.82386C250.213 8.16122 250.287 8.46307 250.436 8.7294C250.585 8.99219 250.791 9.19815 251.054 9.3473C251.321 9.49645 251.622 9.57102 251.96 9.57102C252.301 9.57102 252.603 9.49645 252.865 9.3473C253.128 9.19815 253.334 8.99219 253.483 8.7294C253.632 8.46307 253.707 8.16122 253.707 7.82386V1.09091ZM261.064 12V1.09091H268.927V3.47727H264.026V5.35227H268.522V7.73864H264.026V9.61364H268.905V12H261.064ZM276.276 4.5C276.248 4.14489 276.115 3.8679 275.877 3.66903C275.642 3.47017 275.285 3.37074 274.806 3.37074C274.501 3.37074 274.25 3.40803 274.055 3.4826C273.863 3.55362 273.721 3.65128 273.629 3.77557C273.536 3.89986 273.489 4.0419 273.485 4.2017C273.478 4.3331 273.501 4.45206 273.554 4.55859C273.611 4.66158 273.7 4.75568 273.821 4.84091C273.941 4.92259 274.096 4.99716 274.284 5.06463C274.472 5.1321 274.696 5.19247 274.955 5.24574L275.85 5.4375C276.454 5.56534 276.97 5.73402 277.4 5.94354C277.83 6.15305 278.181 6.39986 278.455 6.68395C278.728 6.96449 278.929 7.28054 279.057 7.6321C279.188 7.98366 279.256 8.36719 279.259 8.78267C279.256 9.5 279.076 10.1072 278.721 10.6044C278.366 11.1016 277.858 11.4798 277.198 11.739C276.541 11.9982 275.751 12.1278 274.827 12.1278C273.879 12.1278 273.052 11.9876 272.345 11.707C271.642 11.4265 271.095 10.995 270.704 10.4126C270.317 9.8267 270.122 9.07741 270.119 8.16477H272.931C272.949 8.49858 273.032 8.77912 273.181 9.00639C273.331 9.23366 273.54 9.40589 273.81 9.52308C274.083 9.64027 274.408 9.69886 274.785 9.69886C275.101 9.69886 275.365 9.6598 275.578 9.58168C275.791 9.50355 275.953 9.39524 276.063 9.25675C276.173 9.11825 276.23 8.96023 276.234 8.78267C276.23 8.61577 276.175 8.47017 276.068 8.34588C275.965 8.21804 275.795 8.1044 275.557 8.00497C275.319 7.90199 274.998 7.80611 274.593 7.71733L273.506 7.48295C272.54 7.27344 271.779 6.92365 271.221 6.43359C270.667 5.93999 270.392 5.26705 270.396 4.41477C270.392 3.7223 270.577 3.11683 270.949 2.59837C271.326 2.07635 271.846 1.66974 272.51 1.37855C273.178 1.08736 273.943 0.941761 274.806 0.941761C275.687 0.941761 276.448 1.08913 277.091 1.38388C277.734 1.67862 278.229 2.09411 278.577 2.63033C278.929 3.163 279.106 3.78622 279.11 4.5H276.276ZM280.087 3.47727V1.09091H289.569V3.47727H286.288V12H283.369V3.47727H280.087ZM292.14 12H288.944L292.545 1.09091H296.594L300.194 12H296.998L294.612 4.09517H294.527L292.14 12ZM291.544 7.69602H297.552V9.91193H291.544V7.69602ZM310.684 1.09091V12H308.212L304.271 6.26847H304.207V12H301.245V1.09091H303.759L307.637 6.80114H307.722V1.09091H310.684ZM316.282 12H312.085V1.09091H316.24C317.362 1.09091 318.331 1.3093 319.148 1.74609C319.968 2.17933 320.601 2.80433 321.044 3.62109C321.492 4.4343 321.716 5.40909 321.716 6.54545C321.716 7.68182 321.494 8.65838 321.05 9.47514C320.606 10.2884 319.977 10.9134 319.164 11.3501C318.351 11.7834 317.39 12 316.282 12ZM315.047 9.4858H316.176C316.716 9.4858 317.176 9.39879 317.555 9.22479C317.939 9.05078 318.23 8.75071 318.429 8.32457C318.631 7.89844 318.733 7.3054 318.733 6.54545C318.733 5.78551 318.63 5.19247 318.424 4.76633C318.221 4.3402 317.923 4.04013 317.529 3.86612C317.138 3.69212 316.659 3.60511 316.091 3.60511H315.047V9.4858ZM323.086 12V1.09091H330.948V3.47727H326.048V5.35227H330.543V7.73864H326.048V9.61364H330.927V12H323.086Z" fill="black" fill-opacity="0.17"/>
</svg>
