<svg width="37" height="33" viewBox="0 0 37 33" fill="none" xmlns="http://www.w3.org/2000/svg">
<path d="M0.703125 11V0.0909088H3.66477V8.61364H8.07528V11H0.703125ZM13.2568 11.1491C12.3691 11.1491 11.6091 10.9734 10.977 10.6218C10.3449 10.2667 9.86017 9.77308 9.52282 9.14098C9.18546 8.50533 9.01678 7.76847 9.01678 6.9304C9.01678 6.09233 9.18546 5.35724 9.52282 4.72514C9.86017 4.08949 10.3449 3.59588 10.977 3.24432C11.6091 2.8892 12.3691 2.71165 13.2568 2.71165C14.1446 2.71165 14.9046 2.8892 15.5367 3.24432C16.1688 3.59588 16.6535 4.08949 16.9909 4.72514C17.3282 5.35724 17.4969 6.09233 17.4969 6.9304C17.4969 7.76847 17.3282 8.50533 16.9909 9.14098C16.6535 9.77308 16.1688 10.2667 15.5367 10.6218C14.9046 10.9734 14.1446 11.1491 13.2568 11.1491ZM13.2781 8.97585C13.5267 8.97585 13.7416 8.8924 13.9227 8.7255C14.1038 8.55859 14.2441 8.32067 14.3435 8.01172C14.4429 7.70277 14.4926 7.33523 14.4926 6.90909C14.4926 6.4794 14.4429 6.11186 14.3435 5.80646C14.2441 5.49751 14.1038 5.25959 13.9227 5.09268C13.7416 4.92578 13.5267 4.84233 13.2781 4.84233C13.0154 4.84233 12.7899 4.92578 12.6017 5.09268C12.4134 5.25959 12.2696 5.49751 12.1702 5.80646C12.0708 6.11186 12.021 6.4794 12.021 6.90909C12.021 7.33523 12.0708 7.70277 12.1702 8.01172C12.2696 8.32067 12.4134 8.55859 12.6017 8.7255C12.7899 8.8924 13.0154 8.97585 13.2781 8.97585ZM22.6318 14.2386C21.8115 14.2386 21.1084 14.1214 20.5225 13.8871C19.9401 13.6562 19.4873 13.3366 19.1642 12.9283C18.8445 12.5234 18.6652 12.0582 18.6262 11.5327H21.46C21.4884 11.7067 21.5594 11.8469 21.673 11.9535C21.7867 12.06 21.9323 12.1364 22.1098 12.1825C22.2909 12.2322 22.4933 12.2571 22.7171 12.2571C23.097 12.2571 23.4113 12.1648 23.6599 11.9801C23.912 11.7955 24.0381 11.4616 24.0381 10.9787V9.59375H23.9529C23.8463 9.87074 23.683 10.1069 23.4628 10.3022C23.2426 10.494 22.9781 10.6413 22.6691 10.7443C22.3602 10.8437 22.021 10.8935 21.6517 10.8935C21.0693 10.8935 20.5331 10.7585 20.0431 10.4886C19.5566 10.2187 19.1659 9.79084 18.8712 9.2049C18.58 8.61896 18.4344 7.85369 18.4344 6.90909C18.4344 5.92187 18.5871 5.11932 18.8925 4.50142C19.2014 3.88352 19.5992 3.43075 20.0857 3.14311C20.5757 2.85547 21.0906 2.71165 21.6304 2.71165C22.0352 2.71165 22.3904 2.78267 22.6958 2.92472C23.0012 3.06321 23.2568 3.24964 23.4628 3.48402C23.6688 3.71484 23.825 3.96875 23.9316 4.24574H23.9955V2.81818H26.9358V10.9787C26.9358 11.6712 26.7565 12.2589 26.3978 12.7418C26.0427 13.2283 25.542 13.5994 24.8957 13.8551C24.2494 14.1108 23.4948 14.2386 22.6318 14.2386ZM22.7384 8.8054C23.0083 8.8054 23.2391 8.73082 23.4308 8.58168C23.6262 8.42898 23.7753 8.21236 23.8783 7.93182C23.9848 7.64773 24.0381 7.30682 24.0381 6.90909C24.0381 6.50426 23.9848 6.15803 23.8783 5.87038C23.7753 5.57919 23.6262 5.35724 23.4308 5.20455C23.2391 5.0483 23.0083 4.97017 22.7384 4.97017C22.4685 4.97017 22.2377 5.0483 22.0459 5.20455C21.8577 5.35724 21.7121 5.57919 21.6091 5.87038C21.5097 6.15803 21.46 6.50426 21.46 6.90909C21.46 7.31392 21.5097 7.65838 21.6091 7.94247C21.7121 8.22301 21.8577 8.43786 22.0459 8.587C22.2377 8.7326 22.4685 8.8054 22.7384 8.8054ZM32.373 11.1491C31.4853 11.1491 30.7253 10.9734 30.0932 10.6218C29.4611 10.2667 28.9764 9.77308 28.639 9.14098C28.3017 8.50533 28.133 7.76847 28.133 6.9304C28.133 6.09233 28.3017 5.35724 28.639 4.72514C28.9764 4.08949 29.4611 3.59588 30.0932 3.24432C30.7253 2.8892 31.4853 2.71165 32.373 2.71165C33.2608 2.71165 34.0208 2.8892 34.6529 3.24432C35.285 3.59588 35.7697 4.08949 36.1071 4.72514C36.4444 5.35724 36.6131 6.09233 36.6131 6.9304C36.6131 7.76847 36.4444 8.50533 36.1071 9.14098C35.7697 9.77308 35.285 10.2667 34.6529 10.6218C34.0208 10.9734 33.2608 11.1491 32.373 11.1491ZM32.3944 8.97585C32.6429 8.97585 32.8578 8.8924 33.0389 8.7255C33.22 8.55859 33.3603 8.32067 33.4597 8.01172C33.5591 7.70277 33.6088 7.33523 33.6088 6.90909C33.6088 6.4794 33.5591 6.11186 33.4597 5.80646C33.3603 5.49751 33.22 5.25959 33.0389 5.09268C32.8578 4.92578 32.6429 4.84233 32.3944 4.84233C32.1316 4.84233 31.9061 4.92578 31.7179 5.09268C31.5297 5.25959 31.3858 5.49751 31.2864 5.80646C31.187 6.11186 31.1373 6.4794 31.1373 6.90909C31.1373 7.33523 31.187 7.70277 31.2864 8.01172C31.3858 8.32067 31.5297 8.55859 31.7179 8.7255C31.9061 8.8924 32.1316 8.97585 32.3944 8.97585ZM3.02557 29.1278C2.50355 29.1278 2.0419 29.0426 1.64062 28.8722C1.2429 28.6982 0.930398 28.4354 0.703125 28.0838C0.475852 27.7322 0.362216 27.2848 0.362216 26.7415C0.362216 26.294 0.438565 25.9123 0.591264 25.5962C0.743963 25.2766 0.957031 25.0156 1.23047 24.8132C1.50391 24.6108 1.82173 24.4563 2.18395 24.3498C2.54972 24.2433 2.94389 24.174 3.36648 24.142C3.82457 24.1065 4.19212 24.0639 4.46911 24.0142C4.74965 23.9609 4.95206 23.8881 5.07635 23.7958C5.20064 23.6999 5.26278 23.5739 5.26278 23.4176V23.3963C5.26278 23.1832 5.18111 23.0199 5.01776 22.9062C4.8544 22.7926 4.64489 22.7358 4.3892 22.7358C4.10866 22.7358 3.87962 22.7979 3.70206 22.9222C3.52805 23.043 3.4233 23.2294 3.38778 23.4815H0.681818C0.71733 22.9844 0.875355 22.5263 1.15589 22.1072C1.43999 21.6847 1.85369 21.3473 2.39702 21.0952C2.94034 20.8395 3.61861 20.7116 4.43182 20.7116C5.01776 20.7116 5.54332 20.7809 6.00852 20.9194C6.47372 21.0543 6.86967 21.2443 7.19638 21.4893C7.52308 21.7308 7.77166 22.0149 7.94212 22.3416C8.11612 22.6648 8.20312 23.0163 8.20312 23.3963V29H5.45455V27.8494H5.39062C5.22727 28.1548 5.02841 28.4016 4.79403 28.5898C4.56321 28.7781 4.29865 28.9148 4.00036 29C3.70561 29.0852 3.38068 29.1278 3.02557 29.1278ZM3.98438 27.2741C4.2081 27.2741 4.41761 27.228 4.61293 27.1357C4.81179 27.0433 4.97337 26.9102 5.09766 26.7362C5.22195 26.5621 5.28409 26.3509 5.28409 26.1023V25.4205C5.20597 25.4524 5.12251 25.4826 5.03374 25.511C4.94851 25.5394 4.85618 25.5661 4.75675 25.5909C4.66087 25.6158 4.55788 25.6388 4.4478 25.6602C4.34126 25.6815 4.2294 25.701 4.11222 25.7188C3.88494 25.7543 3.69851 25.8129 3.55291 25.8945C3.41087 25.9727 3.30433 26.0703 3.23331 26.1875C3.16584 26.3011 3.1321 26.429 3.1321 26.571C3.1321 26.7983 3.212 26.9723 3.3718 27.093C3.53161 27.2138 3.7358 27.2741 3.98438 27.2741ZM14.8921 32.0682V27.6577H14.8495C14.7359 27.9347 14.5725 28.1832 14.3595 28.4034C14.1499 28.62 13.8943 28.7923 13.5924 28.9201C13.2941 29.0444 12.9532 29.1065 12.5697 29.1065C11.9873 29.1065 11.4511 28.9538 10.961 28.6484C10.4745 28.343 10.0839 27.8796 9.78915 27.2582C9.49796 26.6367 9.35236 25.8537 9.35236 24.9091C9.35236 23.9219 9.50506 23.1193 9.81046 22.5014C10.1194 21.8835 10.5171 21.4308 11.0036 21.1431C11.4937 20.8555 12.0086 20.7116 12.5484 20.7116C12.9532 20.7116 13.3083 20.7827 13.6137 20.9247C13.9191 21.0632 14.1748 21.2496 14.3808 21.484C14.5867 21.7148 14.743 21.9687 14.8495 22.2457H14.9134V20.8182H17.8325V32.0682H14.8921ZM13.6563 26.848C13.9262 26.848 14.157 26.7699 14.3488 26.6136C14.5441 26.4538 14.6933 26.2301 14.7963 25.9425C14.9028 25.6513 14.9561 25.3068 14.9561 24.9091C14.9561 24.5043 14.9028 24.158 14.7963 23.8704C14.6933 23.5792 14.5441 23.3572 14.3488 23.2045C14.157 23.0483 13.9262 22.9702 13.6563 22.9702C13.3865 22.9702 13.1556 23.0483 12.9639 23.2045C12.7757 23.3572 12.6301 23.5792 12.5271 23.8704C12.4276 24.158 12.3779 24.5043 12.3779 24.9091C12.3779 25.3139 12.4276 25.6619 12.5271 25.9531C12.6301 26.2408 12.7757 26.4627 12.9639 26.619C13.1556 26.7717 13.3865 26.848 13.6563 26.848ZM24.6254 25.4205V20.8182H27.5657V29H24.7745V27.4446H24.6893C24.5117 27.9666 24.201 28.375 23.7571 28.6697C23.3132 28.9609 22.7859 29.1065 22.1751 29.1065C21.6033 29.1065 21.1026 28.9751 20.6729 28.7124C20.2468 28.4496 19.9148 28.0874 19.6768 27.6257C19.4425 27.1641 19.3235 26.6349 19.32 26.0384V20.8182H22.2603V25.4205C22.2638 25.8253 22.3668 26.1431 22.5692 26.3739C22.7752 26.6048 23.0629 26.7202 23.4322 26.7202C23.6772 26.7202 23.8885 26.6687 24.0661 26.5657C24.2472 26.4592 24.3857 26.31 24.4815 26.1183C24.581 25.9229 24.6289 25.6903 24.6254 25.4205ZM29.0612 29V20.8182H32.0015V29H29.0612ZM30.5313 19.9659C30.1336 19.9659 29.7927 19.8345 29.5086 19.5717C29.2245 19.3089 29.0825 18.9929 29.0825 18.6236C29.0825 18.2543 29.2245 17.9382 29.5086 17.6754C29.7927 17.4126 30.1336 17.2812 30.5313 17.2812C30.9326 17.2812 31.2735 17.4126 31.5541 17.6754C31.8382 17.9382 31.9802 18.2543 31.9802 18.6236C31.9802 18.9929 31.8382 19.3089 31.5541 19.5717C31.2735 19.8345 30.9326 19.9659 30.5313 19.9659Z" fill="black" fill-opacity="0.38"/>
</svg>
