<svg width="27" height="30" viewBox="0 0 27 30" fill="none" xmlns="http://www.w3.org/2000/svg">
<path fill-rule="evenodd" clip-rule="evenodd" d="M12.4029 0.175178C12.0048 0.297825 11.6481 0.535382 11.2253 0.959489C10.5371 1.64976 10.2273 2.3799 10.2257 3.31629L10.2245 3.911L9.31965 4.34848C6.77022 5.58105 4.873 7.90784 4.13101 10.7117L3.88283 11.6498L3.8107 15.4548L3.73857 19.2597L3.03715 19.3895C2.12355 19.5584 1.51436 19.8606 0.954161 20.4225C-0.631516 22.0129 -0.180035 24.6787 1.85759 25.757L2.45263 26.072L5.79618 26.1078L9.13986 26.1436L9.32748 26.8204C9.8269 28.6221 11.6349 30 13.5 30C14.2828 30 15.4432 29.6059 16.1073 29.1144C16.7832 28.6142 17.517 27.5174 17.707 26.7233L17.8457 26.1438L21.1965 26.1079L24.5474 26.072L25.1424 25.757C27.18 24.6787 27.6315 22.0129 26.0458 20.4225C25.4856 19.8606 24.8765 19.5584 23.9629 19.3895L23.2614 19.2597L23.1881 15.572L23.1148 11.8843L22.8691 10.9197C22.13 8.01935 20.2382 5.65152 17.6241 4.35575L16.7733 3.93399V3.32778C16.7733 2.38237 16.466 1.65281 15.7763 0.961013L15.1713 0.354107L14.5482 0.168611C13.7866 -0.0582748 13.1547 -0.0562816 12.4029 0.175178ZM12.6602 2.21868C12.3603 2.44322 12.0039 3.2117 12.1375 3.34561C12.2205 3.42886 14.7795 3.42886 14.8625 3.34561C15.0014 3.20643 14.6329 2.43548 14.3211 2.21282C13.8829 1.89987 13.0822 1.90268 12.6602 2.21868ZM12.5028 5.37762C10.7542 5.61682 9.39576 6.3119 8.05265 7.65481L7.10609 8.60116L6.61848 9.59782C6.35031 10.146 6.05384 10.9638 5.95961 11.4153L5.78847 12.236L5.78636 15.8186L5.78438 19.4011L5.4941 19.9811C5.07255 20.8234 4.22898 21.3232 3.22875 21.3232H2.83432L2.38038 21.7784L1.92656 22.2337V22.6637C1.92656 23.2308 2.20047 23.7397 2.62413 23.9594L2.96712 24.1373H13.5H24.0329L24.3759 23.9594C24.7995 23.7397 25.0734 23.2308 25.0734 22.6637V22.2337L24.6196 21.7784L24.1657 21.3232L23.7721 21.3225C22.8221 21.321 21.913 20.7928 21.4727 19.9867L21.2741 19.623L21.2091 15.695L21.1441 11.767L20.8334 10.829C19.6238 7.17852 16.1165 4.88339 12.5028 5.37762ZM11.2079 26.3161C11.2469 26.4181 11.2788 26.5498 11.2788 26.6089C11.2788 26.8194 12.1622 27.6935 12.5318 27.8487C12.982 28.0378 13.9415 28.055 14.3984 27.8823C14.9726 27.6651 15.8381 26.6861 15.8381 26.2537C15.8381 26.1719 15.0507 26.1306 13.4875 26.1306H11.1369L11.2079 26.3161Z" fill="#3E5943"/>
</svg>
