<svg width="24" height="27" viewBox="0 0 24 27" fill="none" xmlns="http://www.w3.org/2000/svg">
<path fill-rule="evenodd" clip-rule="evenodd" d="M11.0248 0.15766C10.6709 0.268043 10.3539 0.481843 9.97804 0.86354C9.3663 1.48479 9.09092 2.14191 9.08947 2.98466L9.08843 3.5199L8.28413 3.91363C6.01798 5.02295 4.33155 7.11706 3.67201 9.64056L3.4514 10.4848L3.38728 13.9093L3.32317 17.3337L2.69969 17.4505C1.8876 17.6026 1.3461 17.8745 0.848143 18.3802C-0.561348 19.8116 -0.160031 22.2108 1.65119 23.1813L2.18011 23.4648L5.15216 23.497L8.12432 23.5293L8.2911 24.1384C8.73502 25.7599 10.3422 27 12 27C12.6958 27 13.7273 26.6453 14.3176 26.2029C14.9184 25.7528 15.5707 24.7656 15.7396 24.051L15.8628 23.5294L18.8413 23.4971L21.8199 23.4648L22.3488 23.1813C24.16 22.2108 24.5613 19.8116 23.1519 18.3802C22.6539 17.8745 22.1124 17.6026 21.3003 17.4505L20.6768 17.3337L20.6117 14.0148L20.5465 10.6958L20.3281 9.82777C19.6712 7.21741 17.9895 5.08637 15.6659 3.92017L14.9096 3.54059V2.99501C14.9096 2.14413 14.6364 1.48753 14.0234 0.864912L13.4856 0.318697L12.9317 0.15175C12.2548 -0.0524474 11.693 -0.0506534 11.0248 0.15766ZM11.2535 1.99681C10.9869 2.1989 10.6701 2.89053 10.7889 3.01105C10.8627 3.08597 13.1373 3.08597 13.2111 3.01105C13.3346 2.88578 13.007 2.19193 12.7299 1.99153C12.3403 1.70988 11.6286 1.71241 11.2535 1.99681ZM11.1136 4.83986C9.55927 5.05513 8.35178 5.68071 7.15791 6.88932L6.31652 7.74105L5.8831 8.63804C5.64472 9.13138 5.38119 9.86744 5.29744 10.2737L5.14531 11.0124L5.14343 14.2367L5.14167 17.461L4.88365 17.983C4.50893 18.741 3.75909 19.1909 2.87 19.1909H2.51939L2.1159 19.6006L1.7125 20.0103V20.3973C1.7125 20.9077 1.95597 21.3657 2.33256 21.5635L2.63744 21.7236H12H21.3626L21.6674 21.5635C22.044 21.3657 22.2875 20.9077 22.2875 20.3973V20.0103L21.8841 19.6006L21.4806 19.1909L21.1307 19.1903C20.2863 19.1889 19.4782 18.7135 19.0868 17.9881L18.9103 17.6607L18.8525 14.1255L18.7947 10.5903L18.5185 9.74609C17.4433 6.46067 14.3258 4.39505 11.1136 4.83986ZM9.96256 23.6845C9.99726 23.7763 10.0256 23.8948 10.0256 23.948C10.0256 24.1374 10.8108 24.9242 11.1394 25.0639C11.5396 25.234 12.3925 25.2495 12.7986 25.094C13.309 24.8986 14.0783 24.0174 14.0783 23.6284C14.0783 23.5547 13.3784 23.5176 11.9889 23.5176H9.89948L9.96256 23.6845Z" fill="#FFBB00"/>
</svg>
