<svg width="440" height="303" viewBox="0 0 440 303" fill="none" xmlns="http://www.w3.org/2000/svg">
<path d="M461.172 0.876883C459.423 1.32843 453.447 1.79886 447.893 1.92389L437.794 2.14967L432.902 5.20704C430.211 6.88909 426.49 9.01009 424.633 9.92127C422.333 11.0492 421.423 12.0063 421.779 12.9247C422.365 14.4367 417.305 16.9616 413.688 16.9616H411.572L408.661 22.5834C407.059 25.6759 405.288 30.6339 404.725 33.6022C404.162 36.5705 403.362 39.8087 402.947 40.7981C402.53 41.7876 401.767 44.2513 401.249 46.2724L400.308 49.9478L394.476 55.4922C391.269 58.5415 388.222 61.0367 387.706 61.0367C387.191 61.0367 386.235 62.1026 385.584 63.406C384.932 64.7084 381.741 67.3421 378.493 69.2571C374.614 71.5437 371.964 73.8554 370.77 75.9907L368.953 79.2415L360.936 84.0817C356.526 86.7433 352.591 88.9209 352.191 88.9209C351.791 88.9209 351.219 90.0345 350.921 91.3945C350.546 93.1063 348.481 95.2444 344.221 98.3332C340.833 100.789 335.768 104.837 332.966 107.328C323.285 115.934 322.124 116.805 320.344 116.805C316.679 116.805 296.59 112.178 290.659 109.967C283.378 107.254 273.1 101.715 273.1 100.505C273.1 100.035 271.361 98.9044 269.238 97.9923C264.868 96.1151 260.799 92.232 261.696 90.7946C262.033 90.254 260.871 89.1656 259.028 88.2949C257.197 87.4305 254.58 84.9875 253.073 82.736L250.385 78.718V74.664C250.385 72.4333 250.889 69.232 251.503 67.549L252.621 64.488L251.128 63.6614C250.307 63.2063 248.524 59.8997 247.166 56.3135C245.809 52.7272 243.435 47.4742 241.891 44.6399L239.084 39.4858L240.85 38.2076L242.617 36.9285L239.233 34.9514C237.371 33.8639 235.849 32.5606 235.849 32.0542C235.849 31.5145 235.284 31.5963 234.486 32.253C233.736 32.8691 233.123 34.4657 233.123 35.8014V38.2301L229.716 40.4374C227.842 41.6508 224.878 43.2043 223.129 43.8897C218.548 45.6824 218.124 46.3282 221.018 47.1099L223.583 47.8025L221.312 48.3844L219.04 48.9664L218.586 52.5284L218.132 56.0895L213.816 55.79L209.5 55.4913V57.8732C209.5 60.6229 208.23 63.343 205.623 66.1791L203.789 68.1733L204.331 72.7013L204.872 77.2293L203.412 79.7479L201.952 82.2656L204.363 84.6529C205.69 85.9661 206.775 87.6661 206.775 88.4307V89.8204H210.342H213.911L215.794 92.1906C218.087 95.0762 218.301 97.4463 216.197 96.6467L214.718 96.0845L215.25 98.7182L215.782 101.351L214.397 101.877C213.509 102.215 213.116 103.29 213.301 104.882L213.589 107.361L220.115 107.136L226.641 106.912L227.076 108.485C227.316 109.351 227.78 111.618 228.105 113.523C228.43 115.428 229.377 118.398 230.208 120.124L231.72 123.263L228.56 125.869C226.545 127.532 225.758 128.724 226.387 129.162C227.533 129.958 229.489 135.239 229.489 137.538C229.489 138.406 228.16 139.945 226.536 140.958C224.911 141.972 221.899 144.07 219.841 145.62L216.099 148.438L212.8 147.535L209.5 146.633V149.709V152.785H204.049C198.289 152.785 197.866 153.102 199.969 155.854C201.271 157.557 200.987 161.353 199.431 163.043C199.019 163.489 197.436 163.82 195.914 163.777C194.157 163.727 193.146 164.143 193.146 164.914C193.146 166.599 191.421 167.003 187.726 166.181C183.864 165.321 182.809 166.102 180.805 171.296L179.271 175.272L176.896 175.241C175.589 175.223 173.499 174.63 172.249 173.923C169.035 172.104 168.813 172.189 167.032 175.923C165.652 178.815 163.481 180.646 159.998 181.849C159.507 182.019 160.223 183.474 161.588 185.081C163.948 187.857 164.93 191.463 163.327 191.463C162.917 191.463 160.832 192.946 158.693 194.759L154.803 198.055L151.877 197.007C147.168 195.322 146.035 195.654 145.49 198.884C145.22 200.492 145.099 202.414 145.222 203.156C145.542 205.078 144.748 205.175 138.588 203.975C134.989 203.274 132.668 202.285 131.825 201.093L130.54 199.278L127.862 202.117C124.733 205.433 123.727 205.6 121.613 203.156C120.757 202.167 119.637 201.368 119.124 201.382C118.61 201.394 115.803 203.19 112.887 205.371C107.443 209.44 106.175 209.626 102.839 206.843L101.116 205.405L100.701 206.582C100.473 207.228 98.0452 208.74 95.305 209.939C92.5657 211.138 89.1013 213.139 87.6059 214.384C84.7448 216.768 81.514 217.308 79.8667 215.677L78.8855 214.706L75.3693 215.672C70.3895 217.041 67.0805 216.882 64.0832 215.129L61.4838 213.608L59.5613 216.028C58.3929 217.499 56.7502 218.448 55.3737 218.448C52.1347 218.448 49.3536 220.129 49.9687 221.716C50.7183 223.65 48.1116 229.242 46.4598 229.242C45.6848 229.242 45.0507 228.864 45.0507 228.402C45.0507 227.941 44.1766 227.289 43.1082 226.953L41.1666 226.344L38.986 229.1C37.7131 230.711 36.2721 231.655 35.5217 231.37L34.2361 230.881L34.7648 234.108L35.2936 237.335L30.8598 236.822C28.4203 236.539 24.4236 235.924 21.9768 235.454C19.5301 234.986 17.3541 234.774 17.1397 234.986C16.9261 235.198 17.395 236.603 18.1809 238.108C20.9901 243.486 21.0765 243.424 8.03042 245.464C4.40889 246.03 1.20531 246.88 0.910933 247.351C0.616559 247.822 1.46061 249.618 2.78711 251.339C4.11361 253.061 5.06306 255.169 4.8977 256.022L4.59606 257.576L-1.20783 257.727L-7.01172 257.877L-9.37307 259.619C-13.0082 262.302 -14.7617 266.009 -16.3081 274.279C-18.2443 284.64 -19.1356 287.107 -21.7513 289.359L-24 291.295V294.931C-24 296.93 -23.3395 299.564 -22.5327 300.783L-21.0653 303H112.479H246.023L249.043 301.581C252.322 300.041 253.796 297.679 252.12 296.653C251.415 296.221 252.239 294.71 254.612 292.084C256.562 289.925 260.117 285.834 262.513 282.993L266.869 277.828L271.574 276.532C274.163 275.819 278.528 274.959 281.277 274.62C284.025 274.281 288.727 273.081 291.725 271.953C318.45 261.903 320.649 260.712 338.135 246.828L340.343 245.074L356.601 244.694L372.859 244.314L373.916 246.27C374.498 247.345 375.545 250.93 376.244 254.237L377.514 260.248L375.274 262.563L373.033 264.879L378.358 271.141C381.286 274.585 384.366 278.71 385.2 280.308L386.716 283.211H392.01H397.304L400.391 280.963C402.089 279.727 404.586 278.009 405.938 277.146L408.399 275.576L407.908 273.641L407.418 271.706L410.458 270.713C415.054 269.211 424.499 261.269 425.222 258.298C426.496 253.061 432.401 241.757 433.621 242.22C435.255 242.841 435.17 239.933 433.49 237.734C432.073 235.88 431.769 232.797 432.673 229.458C433.392 226.803 447.305 216.07 452.28 214.333C458.158 212.279 460.817 209.162 463.504 201.178L465.888 194.088L468.548 192.141L471.208 190.195L473.071 184.308L474.935 178.42L474.967 89.9347L475 1.44896L473.764 0.673597C472.2 -0.307749 465.328 -0.19711 461.172 0.876883Z" fill="#1E4844"/>
</svg>
