<svg width="34" height="34" viewBox="0 0 34 34" fill="none" xmlns="http://www.w3.org/2000/svg">
<path fill-rule="evenodd" clip-rule="evenodd" d="M24.5121 16.0814C24.2775 16.2003 24.0853 16.4049 24.0109 16.6151C23.9747 16.7176 23.936 17.09 23.9204 17.4856L23.8932 18.177L23.5925 18.2292C23.2799 18.2835 22.5469 18.519 22.3152 18.6396C22.2418 18.6778 22.1574 18.7091 22.1277 18.7093C22.0981 18.7095 22.0669 18.7252 22.0583 18.7442C22.0499 18.7633 21.9493 18.8282 21.8348 18.8885C21.3141 19.1629 20.8043 19.5508 20.2512 20.0933C19.9271 20.4111 19.6618 20.696 19.6614 20.7265C19.6611 20.757 19.6347 20.7985 19.6028 20.8188C19.571 20.8391 19.4826 20.9492 19.4064 21.0634C19.3302 21.1777 19.2574 21.2815 19.2446 21.2942C19.1261 21.412 18.6119 22.497 18.4791 22.9096C18.4342 23.0492 18.3804 23.2049 18.3595 23.2557C18.3387 23.3065 18.2773 23.5557 18.2232 23.8095L18.1248 24.2711L18.1011 25.9395L18.0774 27.6079L17.825 27.6393C17.1 27.7297 16.4913 28.1758 16.1547 28.8633L15.9853 29.2095L15.9844 30.2248L15.9835 31.2402L16.0874 31.5071C16.2198 31.8467 16.2989 31.9692 16.5756 32.2625C16.8505 32.5541 17.216 32.751 17.6659 32.8499L18.0069 32.9248H20.9532H23.8994L23.983 33.1902C24.0957 33.5475 24.3552 33.8049 24.7158 33.9169L24.9834 34L25.2574 33.9172C25.4207 33.8679 25.5912 33.7764 25.6791 33.6911C25.8323 33.5426 26.0428 33.1465 26.0436 33.0056L26.044 32.9248H28.9987H31.9534L32.2944 32.8508C32.482 32.8101 32.7291 32.7339 32.8436 32.6814C33.0592 32.5827 33.7685 31.9125 33.769 31.8071C33.7692 31.7745 33.7983 31.6924 33.8338 31.6245C33.9551 31.3926 34 31.0278 34 30.275C34 29.4152 33.9643 29.1702 33.7835 28.7892C33.6401 28.487 33.1424 27.9589 32.9573 27.9126C32.8948 27.8969 32.8436 27.868 32.8436 27.8484C32.8436 27.8084 32.5325 27.7162 32.1498 27.6429L31.8954 27.5941L31.8635 25.7711C31.8459 24.7684 31.8109 23.8545 31.7856 23.7403C31.6603 23.175 31.6325 23.0641 31.5942 22.9788C31.5714 22.928 31.5333 22.8138 31.5094 22.7249C31.4071 22.3448 31.0159 21.5488 30.736 21.1515C30.6486 21.0274 30.5771 20.9174 30.5771 20.9071C30.5771 20.8247 29.3737 19.5865 29.2936 19.5865C29.2618 19.5865 29.2357 19.5685 29.2357 19.5464C29.2357 19.497 28.5563 19.0515 28.2411 18.8942C28.1139 18.8308 28.003 18.7633 27.9945 18.7442C27.986 18.7252 27.9548 18.7089 27.9251 18.708C27.8954 18.7072 27.7879 18.6664 27.6861 18.6173C27.5844 18.5682 27.4689 18.5274 27.4294 18.5266C27.3899 18.5257 27.3379 18.5062 27.3138 18.4832C27.2627 18.4347 26.8181 18.3083 26.4835 18.2472C26.3563 18.224 26.2075 18.194 26.1529 18.1807L26.0536 18.1564L26.0372 17.4061L26.0209 16.6558L25.8812 16.4493C25.7854 16.3077 25.6616 16.2027 25.488 16.1154L25.2346 15.9881L24.957 15.9924C24.7869 15.995 24.6147 16.0294 24.5121 16.0814ZM23.9243 20.3207C23.9763 20.2929 24.157 20.2526 24.326 20.2311C24.7592 20.1759 25.8526 20.2164 26.0971 20.2966C26.2078 20.333 26.3706 20.3776 26.4588 20.3959C26.547 20.4141 26.6511 20.4453 26.6901 20.4652C26.7291 20.4852 26.9275 20.5799 27.1311 20.6759C28.4189 21.2829 29.3842 22.5201 29.7022 23.9711C29.7376 24.1328 29.768 24.93 29.7858 26.1679C29.8052 27.5093 29.8301 28.1308 29.8664 28.1756C29.8952 28.2111 29.9333 28.3077 29.951 28.3903C29.9686 28.4728 30 28.5403 30.0207 28.5403C30.0414 28.5403 30.0715 28.5928 30.0876 28.657C30.1313 28.8307 30.6563 29.3298 30.9471 29.4742C31.0871 29.5436 31.3056 29.6217 31.4328 29.6477C31.56 29.6736 31.7213 29.7075 31.7913 29.7229L31.9185 29.751V30.2764V30.8018H24.9802H18.0418V30.2797V29.7577L18.2616 29.7053C18.3824 29.6765 18.5514 29.6392 18.6372 29.6225C18.9103 29.5691 19.319 29.3274 19.5543 29.08C19.7784 28.8444 19.901 28.6527 20.0617 28.2864L20.1427 28.1018L20.1731 26.348C20.2116 24.1238 20.2419 23.9385 20.7302 22.9326C20.8411 22.7042 20.9477 22.4965 20.9669 22.4711C20.9862 22.4457 21.1199 22.2692 21.264 22.0788C21.736 21.4555 22.292 20.9945 22.9485 20.6823C23.4978 20.4212 23.6234 20.3711 23.7297 20.3711C23.7848 20.3711 23.8724 20.3484 23.9243 20.3207Z" fill="#3E5943"/>
<path fill-rule="evenodd" clip-rule="evenodd" d="M9.19546 0.0703376C9.10008 0.0971065 9.02201 0.137721 9.02201 0.160567C9.02201 0.183459 8.99601 0.202521 8.96419 0.202936C8.89369 0.203905 8.69822 0.403149 8.69822 0.47404C8.69822 0.502194 8.67981 0.525224 8.65737 0.525224C8.57976 0.525224 8.54738 0.735452 8.51879 1.42521L8.49007 2.11751L5.50658 2.141L2.5231 2.1645L2.22905 2.27323C2.0673 2.33305 1.87996 2.41058 1.81275 2.44562C1.7455 2.4806 1.66622 2.50935 1.63652 2.50954C1.60687 2.50968 1.57565 2.52541 1.56714 2.54443C1.55867 2.56344 1.46061 2.64084 1.34918 2.71635C1.08159 2.89778 0.752208 3.22524 0.580507 3.48056C0.504232 3.59395 0.427864 3.69734 0.410703 3.71026C0.393588 3.72323 0.365234 3.79071 0.347749 3.86026C0.330265 3.92981 0.297377 3.98672 0.274712 3.98672C0.252 3.98672 0.233313 4.02304 0.233174 4.06749C0.232989 4.11193 0.202831 4.20572 0.16615 4.27591C0.129423 4.34611 0.0775243 4.5605 0.0507886 4.75231C-0.0169295 5.23798 -0.0169295 26.5967 0.0507886 27.0824C0.0775243 27.2742 0.129423 27.4886 0.16615 27.5588C0.202831 27.629 0.232989 27.708 0.233174 27.7344C0.233729 27.8277 0.561959 28.4011 0.61506 28.4015C0.634163 28.4017 0.649752 28.4247 0.649752 28.4526C0.649752 28.634 1.72422 29.4633 1.95925 29.4633C1.98182 29.4633 2.06591 29.4933 2.14607 29.5301C2.22623 29.5667 2.48439 29.6291 2.71969 29.6685L3.1476 29.7402H8.03043H12.9132L13.1532 29.6631C13.2851 29.6207 13.4098 29.5584 13.4302 29.5247C13.4505 29.4909 13.4898 29.4633 13.5175 29.4633C13.5797 29.4633 13.6674 29.3551 13.7874 29.1306C13.85 29.0133 13.8788 28.8697 13.8788 28.6753V28.3912L13.7588 28.1712C13.6251 27.926 13.4881 27.8102 13.1956 27.695L12.9981 27.6172H7.95262H2.90711L2.73824 27.5394C2.52981 27.4435 2.28035 27.1979 2.16814 26.9784L2.08367 26.8131V18.6999V10.5866H15.9357H29.7878L29.8008 13.8289L29.8139 17.0712L29.9057 17.2096C30.0483 17.4248 30.2876 17.6433 30.4156 17.6754C30.4794 17.6914 30.5431 17.7229 30.5571 17.7455C30.6024 17.8186 31.0264 17.789 31.2324 17.6984C31.4664 17.5956 31.6535 17.4283 31.7678 17.2197L31.8491 17.0712L31.8624 11.1174C31.8759 5.0992 31.8641 4.57402 31.7093 4.27781C31.672 4.20655 31.6414 4.11193 31.6412 4.06749C31.6411 4.02304 31.6224 3.98672 31.5997 3.98672C31.577 3.98672 31.5442 3.92981 31.5267 3.86026C31.5092 3.79071 31.4808 3.72323 31.4637 3.71026C31.4466 3.69734 31.3702 3.59395 31.2939 3.48056C31.1222 3.22524 30.7928 2.89778 30.5252 2.71635C30.4138 2.64084 30.3157 2.56344 30.3073 2.54443C30.2988 2.52541 30.2675 2.50968 30.2379 2.50954C30.2082 2.50935 30.1289 2.4806 30.0617 2.44562C29.9945 2.41058 29.8071 2.33305 29.6454 2.27323L29.3513 2.1645L26.3678 2.141L23.3844 2.11751L23.3596 1.42521L23.3349 0.732914L23.2434 0.571377C23.1204 0.354457 22.9835 0.202151 22.9115 0.202151C22.879 0.202151 22.8524 0.183459 22.8524 0.160613C22.8524 0.0896758 22.3919 0.00470766 22.1713 0.0348919C21.8435 0.0797067 21.5741 0.268058 21.3977 0.57567L21.3075 0.732914L21.282 1.42521L21.2566 2.11751H19.1288H17.0011L16.9778 1.42521L16.9545 0.732914L16.8621 0.573316C16.7806 0.432456 16.6832 0.325611 16.4799 0.154106C16.4476 0.126875 16.3087 0.0810913 16.1713 0.0522917L15.9213 0L15.685 0.0544609C15.555 0.0843682 15.4233 0.130198 15.3923 0.156229C15.1935 0.323165 15.0936 0.432918 15.0123 0.573316L14.92 0.732914L14.8966 1.42521L14.8733 2.11751H12.7456H10.6178L10.5924 1.42521L10.5669 0.732914L10.4767 0.57567C10.3589 0.370195 10.2809 0.290535 10.0715 0.161352C9.87089 0.0376611 9.46282 -0.00475378 9.19546 0.0703376ZM2.18224 4.85025C2.30191 4.61426 2.50668 4.42005 2.75438 4.30762L2.9394 4.22362L5.71473 4.23207L8.49007 4.24056L8.51653 4.93286C8.54123 5.57859 8.56653 5.73925 8.66191 5.85593C8.80423 6.02997 8.93162 6.14517 9.0702 6.22515L9.23015 6.31746L9.56421 6.31557L9.89827 6.31367L10.0956 6.17531C10.2041 6.0992 10.3556 5.94426 10.4321 5.83105L10.5712 5.62516L10.5879 4.92132L10.6046 4.21748H12.7464H14.8882L14.9039 4.92903L14.9196 5.64053L15.0597 5.83926C15.1367 5.94856 15.2894 6.10086 15.399 6.17771L15.5984 6.31746L15.9399 6.31557L16.2815 6.31367L16.4781 6.17581C16.5863 6.09998 16.7378 5.94856 16.8148 5.83926L16.9548 5.64053L16.9706 4.92903L16.9862 4.21748H19.1281H21.2698L21.2865 4.92132L21.3032 5.62516L21.4428 5.83179C21.5197 5.94546 21.675 6.1004 21.788 6.17614L21.9935 6.31391L22.3189 6.31566L22.6443 6.31746L22.8042 6.22515C22.9428 6.14517 23.0702 6.02997 23.2125 5.85593C23.3079 5.73925 23.3332 5.57859 23.3579 4.93286L23.3844 4.24056L26.1434 4.22865L28.9025 4.21675L29.1038 4.3043C29.3645 4.41774 29.5691 4.60753 29.6922 4.85025L29.7907 5.04455V6.77714V8.50974H15.9372H2.08367V6.77714V5.04455L2.18224 4.85025Z" fill="#3E5943"/>
</svg>
