<svg width="440" height="62" viewBox="0 0 440 62" fill="none" xmlns="http://www.w3.org/2000/svg">
<path fill-rule="evenodd" clip-rule="evenodd" d="M-16.5367 1.4543C-17.1237 2.04886 -17.6053 15.7085 -17.6053 31.8122V61.0891H-15.0968H-12.5882V31.6298C-12.5882 4.85612 -13.4428 -1.6705 -16.5367 1.4543ZM-8.17483 1.4543C-8.76183 2.04886 -9.24348 15.7085 -9.24348 31.8122V61.0891H-6.73492H-4.22638V31.6298C-4.22638 4.85612 -5.08095 -1.6705 -8.17483 1.4543ZM0.187004 1.4543C-0.399994 2.04886 -0.881645 15.7085 -0.881645 31.8122V61.0891H1.62694H4.13548V31.6298C4.13548 4.85612 3.28089 -1.6705 0.187004 1.4543ZM7.48022 30.6856C7.48022 49.828 8.09899 61.0891 9.15259 61.0891C10.2062 61.0891 10.825 49.828 10.825 30.6856C10.825 11.5432 10.2062 0.282077 9.15259 0.282077C8.09899 0.282077 7.48022 11.5432 7.48022 30.6856ZM15.2383 6.64992C14.6697 10.1142 14.1981 23.7806 14.1881 37.0197L14.1697 61.0891H16.6782H19.1868V31.6298C19.1868 3.64504 17.4877 -7.09922 15.2383 6.64992ZM23.3811 2.17385C21.7171 6.55027 23.254 61.0959 25.0401 61.0959C27.3045 61.0959 28.2025 3.64504 25.9716 1.39181C24.8762 0.285455 23.9965 0.548952 23.3811 2.17385ZM30.8934 30.5454V61.0891H33.4404H35.9874L35.5309 31.2464L35.0743 1.40532L32.9839 0.702659L30.8934 0V30.5454ZM39.2552 31.868C39.2552 51.4782 39.8472 62.8457 40.8189 61.8492C41.6785 60.9675 42.4879 49.9834 42.6167 37.4419C42.9595 4.22947 42.7789 0.282077 40.9276 0.282077C39.8723 0.282077 39.2552 11.9368 39.2552 31.868ZM76.9086 3.94232L72.5404 7.41339L69.5636 4.69228C65.3626 0.852987 59.312 1.41207 53.544 6.1736L48.5987 10.2544L51.4033 11.3422C53.0757 11.9891 56.0274 10.9841 58.7099 8.85249L63.2119 5.2767L66.8109 8.69034C71.0854 12.7458 74.8616 13.0516 77.7197 9.57204C78.8653 8.17854 81.123 7.03841 82.7368 7.03841C84.3507 7.03841 86.6084 8.17854 87.7539 9.57204C90.7374 13.2019 94.5739 12.6259 100.101 7.71743C106.372 2.14852 103.703 -1.40194 97.1577 3.79875L92.6088 7.41339L89.7625 4.94902C84.7587 0.614826 81.4257 0.353018 76.9086 3.94232ZM110.328 1.97623C109.757 2.9086 109.824 7.27826 110.475 11.6885C114.386 38.1699 135.353 58.9862 159.923 60.7817L169.7 61.4945V58.7582V56.0219H163.308C140.74 56.0219 118.367 34.2225 115.201 9.14977C114.127 0.653675 112.555 -1.66375 110.328 1.97623ZM117.857 6.59756C117.857 17.9364 122.708 28.9053 131.915 38.3794L140.434 47.1457L150.113 50.7401C161.651 55.0236 169.7 55.4594 169.7 51.7991C169.7 50.2553 168.141 49.2655 165.711 49.2655C157.126 49.2655 144.223 43.5125 137.079 36.4994C128.152 27.7365 124.901 21.5392 123.287 10.2122C121.755 -0.530373 117.857 -3.12818 117.857 6.59756ZM125.486 1.80225C123.571 4.93044 128.294 20.7791 133.47 28.6013L138.761 36.5974L147.959 41.1512C153.018 43.6544 159.78 45.9346 162.985 46.2184L168.814 46.7319L169.379 43.776L169.946 40.8201H164.298C156.443 40.8201 142.982 33.4861 137.591 26.2669C135.107 22.9445 132.157 16.0818 131.037 11.0213C128.983 1.75158 127.264 -1.10297 125.486 1.80225ZM134.023 1.4087C130.388 5.08076 136.015 22.029 143.17 28.9543C151.679 37.1903 169.7 42.3825 169.7 36.5974C169.7 35.2039 168.76 34.0587 167.61 34.0536C162.303 34.03 152.608 30.1552 147.949 26.196C142.161 21.2757 137.925 12.3793 137.925 5.14326C137.925 0.481389 136.393 -0.984737 134.023 1.4087ZM140.512 1.84279C138.888 4.49634 142.507 16.1595 146.573 21.3804C152.654 29.1857 169.7 34.1786 169.7 28.152C169.7 26.7585 168.307 25.6183 166.604 25.6183C156.239 25.6183 148.175 18.2674 146.376 7.17692C145.429 1.34113 142.467 -1.35296 140.512 1.84279ZM148.655 2.57754C146.168 9.11936 152.314 18.965 161.029 22.4023C171.52 26.5389 172.886 21.3112 162.614 16.3284L155.65 12.9502L153.896 7.5823C151.638 0.6807 149.978 -0.905349 148.655 2.57754ZM-47.3133 13.7593C-55.4778 15.7152 -65.8933 23.3347 -67.1125 28.2465C-67.7028 30.618 -67.7396 35.3323 -67.1944 38.7223L-66.2027 44.8874L-68.8333 47.823C-72.8035 52.2535 -70.8753 55.081 -66.6175 51.0745L-62.9968 47.6676L-57.9111 49.4598L-52.8254 51.2502L-46.9504 49.2908C-37.9748 46.2995 -32.8607 37.1818 -30.118 19.2843L-29.0176 12.1057L-35.4361 12.278C-38.9665 12.3742 -44.3114 13.0397 -47.3133 13.7593ZM54.7246 17.0783C52.6559 18.8215 50.9618 21.0764 50.9618 22.0882C50.9618 25.0001 56.2281 24.2299 58.5979 20.9734L60.7485 18.0175L65.7288 20.9734C71.8313 24.5948 74.9988 24.7062 77.7197 21.3956C78.8653 20.0021 81.123 18.862 82.7368 18.862C84.3507 18.862 86.6084 20.0021 87.7539 21.3956C88.8995 22.7891 91.1472 23.9293 92.751 23.9293C96.0355 23.9293 104.478 17.7607 104.478 15.3605C104.478 12.8134 99.1311 13.5735 95.8298 16.5902L92.771 19.3856L89.7123 16.5902C85.8006 13.0144 79.673 13.0144 75.7614 16.5902L72.7026 19.3856L69.6438 16.5902C65.6335 12.9249 59.4123 13.1276 54.7246 17.0783ZM-43.9451 16.6763L-47.708 17.4077V21.5139C-47.708 26.3379 -46.7765 26.6081 -43.0638 22.8584C-39.1856 18.9414 -38.1437 23.1658 -41.9417 27.4054L-44.8817 30.6856H-41.4818C-37.1269 30.6856 -34.9411 27.8496 -33.9929 20.9734L-33.2353 15.4838L-36.7088 15.7135C-38.6187 15.8402 -41.8747 16.2726 -43.9451 16.6763ZM-54.0981 22.7722C-56.4963 28.5557 -56.6568 34.0638 -54.4292 34.0638C-52.3053 34.0638 -50.5844 27.0828 -51.4524 21.9902L-52.128 18.0175L-54.0981 22.7722ZM-62.3412 26.7737C-64.8564 31.2126 -65.0805 38.5263 -62.7476 39.9823C-60.3544 41.4755 -59.1035 37.1835 -59.7206 29.5961L-60.2507 23.0847L-62.3412 26.7737ZM54.7246 28.9019C50.6641 32.3223 49.7611 35.7528 52.9202 35.7528C53.9972 35.7528 56.2565 34.4945 57.9406 32.954L61.0011 30.1569L66.9129 33.3729L72.8247 36.5872L78.009 33.5841L83.1917 30.5792L86.023 33.1652C87.58 34.5891 90.1839 35.7528 91.8078 35.7528C95.9536 35.7528 104.478 30.3934 104.478 27.7871C104.478 24.8515 101.748 25.0593 96.1074 28.4256L91.4014 31.2329L88.6219 28.4256C85.1467 24.914 81.2116 24.8582 76.4203 28.2482L72.7026 30.8765L68.9849 28.2482C64.0949 24.7873 59.3487 25.0052 54.7246 28.9019ZM-50.2165 35.7528C-50.8403 36.773 -48.5609 37.4419 -44.4619 37.4419C-40.7292 37.4419 -37.6737 36.6818 -37.6737 35.7528C-37.6737 34.8238 -40.2626 34.0638 -43.4284 34.0638C-46.5942 34.0638 -49.6479 34.8238 -50.2165 35.7528ZM54.7246 41.5092C47.8713 48.8128 50.5387 51.9005 58.3437 45.6999L62.8306 42.1342L65.8074 44.8553C69.6455 48.3635 75.7948 48.3298 79.678 44.781L82.7368 41.9856L85.7956 44.781C87.478 46.3181 90.6756 47.5511 92.9032 47.5207C97.2447 47.4599 104.478 42.3116 104.478 39.283C104.478 36.4876 100.056 37.0821 96.8616 40.3066L94.0253 43.173L89.0818 40.3066C82.9141 36.7325 79.6396 36.692 75.8634 40.1445L72.9066 42.8453L69.0886 40.1445C63.7621 36.3761 59.1297 36.817 54.7246 41.5092ZM-56.6267 41.9467C-60.2407 45.5968 -54.379 47.7656 -47.2899 45.4026C-44.7612 44.558 -42.6909 43.1814 -42.6909 42.3436C-42.6909 40.5954 -54.9443 40.2458 -56.6267 41.9467ZM55.1779 53.4984L50.1942 57.6113L51.9636 59.3983L53.7329 61.1854L58.2818 57.5724L62.8306 53.9578L65.677 56.4222C70.6807 60.7564 74.0137 61.0182 78.5308 57.4289L82.899 53.9578L85.8759 56.6789C90.0769 60.5182 96.1275 59.9591 101.895 55.1976L106.841 51.1167L103.924 49.9867C102.203 49.3196 99.7799 49.9783 98.0123 51.5948C94.2695 55.0152 90.4598 55.0912 87.7539 51.7991C86.6084 50.4056 84.3507 49.2655 82.7368 49.2655C81.123 49.2655 78.8653 50.4056 77.7197 51.7991C76.5742 53.1926 74.3165 54.3328 72.7026 54.3328C71.0888 54.3328 68.8311 53.1926 67.6855 51.7991C64.7472 48.2233 60.9442 48.7385 55.1779 53.4984Z" fill="#FFBB00"/>
<path fill-rule="evenodd" clip-rule="evenodd" d="M179.381 1.4543C178.794 2.04886 178.312 15.7085 178.312 31.8122V61.0891H180.821H183.329V31.6298C183.329 4.85612 182.475 -1.6705 179.381 1.4543ZM187.743 1.4543C187.156 2.04886 186.674 15.7085 186.674 31.8122V61.0891H189.182H191.691V31.6298C191.691 4.85612 190.836 -1.6705 187.743 1.4543ZM196.104 1.4543C195.517 2.04886 195.036 15.7085 195.036 31.8122V61.0891H197.544H200.053V31.6298C200.053 4.85612 199.198 -1.6705 196.104 1.4543ZM203.398 30.6856C203.398 49.828 204.016 61.0891 205.07 61.0891C206.124 61.0891 206.742 49.828 206.742 30.6856C206.742 11.5432 206.124 0.282077 205.07 0.282077C204.016 0.282077 203.398 11.5432 203.398 30.6856ZM211.156 6.64992C210.587 10.1142 210.116 23.7806 210.105 37.0197L210.087 61.0891H212.596H215.104V31.6298C215.104 3.64504 213.405 -7.09922 211.156 6.64992ZM219.298 2.17385C217.634 6.55027 219.171 61.0959 220.957 61.0959C223.222 61.0959 224.12 3.64504 221.889 1.3918C220.794 0.285455 219.914 0.548952 219.298 2.17385ZM226.811 30.5454V61.0891H229.358H231.905L231.448 31.2464L230.992 1.40532L228.901 0.702659L226.811 0V30.5454ZM235.173 31.868C235.173 51.4782 235.765 62.8457 236.736 61.8492C237.596 60.9675 238.405 49.9834 238.534 37.4419C238.877 4.22947 238.696 0.282077 236.845 0.282077C235.79 0.282077 235.173 11.9368 235.173 31.868Z" fill="#FFBB00"/>
<path fill-rule="evenodd" clip-rule="evenodd" d="M303.051 1.45442C302.464 2.04898 301.982 15.7086 301.982 31.8123V61.0892H304.491H306.999V31.6299C306.999 4.85624 306.145 -1.67038 303.051 1.45442ZM311.413 1.45442C310.826 2.04898 310.344 15.7086 310.344 31.8123V61.0892H312.853H315.361V31.6299C315.361 4.85624 314.507 -1.67038 311.413 1.45442ZM319.775 1.45442C319.188 2.04898 318.706 15.7086 318.706 31.8123V61.0892H321.215H323.723V31.6299C323.723 4.85624 322.869 -1.67038 319.775 1.45442ZM327.068 30.6857C327.068 49.8281 327.687 61.0892 328.74 61.0892C329.794 61.0892 330.413 49.8281 330.413 30.6857C330.413 11.5433 329.794 0.282199 328.74 0.282199C327.687 0.282199 327.068 11.5433 327.068 30.6857ZM334.826 6.65005C334.257 10.1144 333.786 23.7807 333.776 37.0198L333.757 61.0892H336.266L338.774 61.0892V31.6299C338.774 3.64516 337.075 -7.0991 334.826 6.65005ZM342.969 2.17397C341.305 6.55039 342.842 61.096 344.628 61.096C346.892 61.096 347.79 3.64517 345.559 1.39193C344.464 0.285577 343.584 0.549074 342.969 2.17397ZM350.481 30.5455V61.0892H353.028H355.575L355.119 31.2465L354.662 1.40544L352.572 0.702781L350.481 0.00012207V30.5455ZM358.843 31.8681C358.843 51.4783 359.435 62.8459 360.407 61.8493C361.266 60.9676 362.076 49.9835 362.204 37.442C362.547 4.22959 362.367 0.282199 360.515 0.282199C359.46 0.282199 358.843 11.9369 358.843 31.8681ZM396.496 3.94244L392.128 7.41351L389.151 4.6924C384.95 0.853109 378.9 1.4122 373.132 6.17372L368.186 10.2546L370.991 11.3423C372.663 11.9892 375.615 10.9842 378.298 8.85261L382.8 5.27682L386.399 8.69046C390.673 12.7459 394.449 13.0517 397.307 9.57216C398.453 8.17867 400.711 7.03853 402.324 7.03853C403.938 7.03853 406.196 8.17867 407.342 9.57216C410.325 13.202 414.161 12.626 419.689 7.71755C425.96 2.14864 423.291 -1.40182 416.745 3.79887L412.196 7.41351L409.35 4.94914C404.346 0.614948 401.013 0.35314 396.496 3.94244ZM429.915 1.97635C429.345 2.90872 429.412 7.27839 430.062 11.6886C433.974 38.17 454.941 58.9863 479.511 60.7818L489.288 61.4946V58.7583V56.022H482.896C460.327 56.022 437.954 34.2227 434.788 9.14989C433.715 0.653797 432.143 -1.66363 429.915 1.97635ZM437.444 6.59768C437.444 17.9365 442.296 28.9054 451.502 38.3795L460.021 47.1458L469.701 50.7402C481.239 55.0237 489.288 55.4595 489.288 51.7993C489.288 50.2554 487.729 49.2656 485.299 49.2656C476.713 49.2656 463.811 43.5126 456.666 36.4995C447.739 27.7366 444.488 21.5393 442.874 10.2123C441.343 -0.530251 437.444 -3.12806 437.444 6.59768ZM445.074 1.80237C443.159 4.93056 447.881 20.7792 453.057 28.6014L458.349 36.5975L467.547 41.1513C472.606 43.6545 479.367 45.9348 482.573 46.2185L488.401 46.732L488.967 43.7761L489.534 40.8202H483.886C476.031 40.8202 462.57 33.4862 457.178 26.2671C454.695 22.9446 451.745 16.0819 450.624 11.0214C448.571 1.7517 446.851 -1.10285 445.074 1.80237ZM453.611 1.40882C449.975 5.08089 455.603 22.0292 462.757 28.9544C471.266 37.1904 489.288 42.3826 489.288 36.5975C489.288 35.204 488.348 34.0588 487.197 34.0537C481.891 34.0301 472.196 30.1553 467.537 26.1961C461.749 21.2758 457.513 12.3794 457.513 5.14338C457.513 0.481511 455.981 -0.984615 453.611 1.40882ZM460.1 1.84291C458.476 4.49646 462.095 16.1596 466.161 21.3805C472.241 29.1858 489.288 34.1787 489.288 28.1521C489.288 26.7586 487.895 25.6185 486.192 25.6185C475.827 25.6185 467.763 18.2676 465.963 7.17704C465.017 1.34125 462.055 -1.35283 460.1 1.84291ZM468.243 2.57766C465.756 9.11949 471.902 18.9652 480.616 22.4024C491.107 26.539 492.474 21.3113 482.202 16.3285L475.238 12.9503L473.484 7.58242C471.226 0.680822 469.565 -0.905227 468.243 2.57766ZM272.274 13.7594C264.11 15.7154 253.694 23.3348 252.475 28.2467C251.885 30.6181 251.848 35.3324 252.393 38.7224L253.385 44.8875L250.754 47.8232C246.784 52.2536 248.712 55.0812 252.97 51.0746L256.591 47.6678L261.677 49.4599L266.762 51.2503L272.637 49.291C281.613 46.2996 286.727 37.1819 289.47 19.2844L290.57 12.1058L284.152 12.2781C280.621 12.3744 275.276 13.0399 272.274 13.7594ZM374.312 17.0784C372.244 18.8216 370.549 21.0765 370.549 22.0883C370.549 25.0003 375.816 24.23 378.186 20.9735L380.336 18.0176L385.316 20.9735C391.419 24.5949 394.586 24.7064 397.307 21.3958C398.453 20.0023 400.711 18.8621 402.324 18.8621C403.938 18.8621 406.196 20.0023 407.342 21.3958C408.487 22.7892 410.735 23.9294 412.339 23.9294C415.623 23.9294 424.065 17.7608 424.065 15.3607C424.065 12.8135 418.719 13.5736 415.417 16.5903L412.359 19.3857L409.3 16.5903C405.388 13.0145 399.261 13.0145 395.349 16.5903L392.29 19.3857L389.231 16.5903C385.221 12.925 379 13.1277 374.312 17.0784ZM275.643 16.6764L271.88 17.4078V21.514C271.88 26.338 272.811 26.6083 276.524 22.8585C280.402 18.9415 281.444 23.1659 277.646 27.4055L274.706 30.6857H278.106C282.461 30.6857 284.647 27.8497 285.595 20.9735L286.352 15.484L282.879 15.7137C280.969 15.8404 277.713 16.2728 275.643 16.6764ZM265.49 22.7724C263.091 28.5558 262.931 34.0639 265.158 34.0639C267.282 34.0639 269.003 27.0829 268.135 21.9903L267.46 18.0176L265.49 22.7724ZM257.246 26.7738C254.731 31.2127 254.507 38.5264 256.84 39.9824C259.233 41.4756 260.484 37.1836 259.867 29.5963L259.337 23.0848L257.246 26.7738ZM374.312 28.902C370.252 32.3224 369.349 35.753 372.508 35.753C373.585 35.753 375.844 34.4946 377.528 32.9542L380.589 30.157L386.501 33.373L392.412 36.5874L397.597 33.5842L402.779 30.5793L405.611 33.1653C407.168 34.5892 409.772 35.753 411.395 35.753C415.541 35.753 424.065 30.3935 424.065 27.7872C424.065 24.8516 421.336 25.0594 415.695 28.4257L410.989 31.233L408.21 28.4257C404.734 24.9141 400.799 24.8584 396.008 28.2484L392.29 30.8766L388.573 28.2484C383.683 24.7874 378.936 25.0053 374.312 28.902ZM269.371 35.753C268.747 36.7732 271.027 37.442 275.126 37.442C278.858 37.442 281.914 36.682 281.914 35.753C281.914 34.824 279.325 34.0639 276.159 34.0639C272.993 34.0639 269.94 34.824 269.371 35.753ZM374.312 41.5094C367.459 48.813 370.126 51.9006 377.931 45.7L382.418 42.1343L385.395 44.8554C389.233 48.3637 395.382 48.3299 399.266 44.7811L402.324 41.9857L405.383 44.7811C407.066 46.3182 410.263 47.5512 412.491 47.5208C416.832 47.46 424.065 42.3117 424.065 39.2831C424.065 36.4877 419.644 37.0823 416.449 40.3067L413.613 43.1731L408.669 40.3067C402.502 36.7326 399.227 36.6921 395.451 40.1446L392.494 42.8454L388.676 40.1446C383.35 36.3762 378.717 36.8171 374.312 41.5094ZM262.961 41.9468C259.347 45.5969 265.209 47.7657 272.298 45.4027C274.826 44.5582 276.897 43.1816 276.897 42.3438C276.897 40.5956 264.643 40.2459 262.961 41.9468ZM374.766 53.4985L369.782 57.6114L371.551 59.3984L373.321 61.1855L377.869 57.5725L382.418 53.9579L385.265 56.4223C390.268 60.7565 393.601 61.0183 398.118 57.429L402.487 53.9579L405.464 56.679C409.665 60.5183 415.715 59.9592 421.483 55.1977L426.428 51.1169L423.512 49.9869C421.791 49.3197 419.368 49.9784 417.6 51.5949C413.857 55.0153 410.047 55.0913 407.342 51.7993C406.196 50.4058 403.938 49.2656 402.324 49.2656C400.711 49.2656 398.453 50.4058 397.307 51.7993C396.162 53.1928 393.904 54.3329 392.29 54.3329C390.676 54.3329 388.419 53.1928 387.273 51.7993C384.335 48.2235 380.532 48.7386 374.766 53.4985Z" fill="#FFBB00"/>
<path fill-rule="evenodd" clip-rule="evenodd" d="M498.968 1.45442C498.381 2.04898 497.9 15.7086 497.9 31.8123V61.0892H500.408H502.917V31.6299C502.917 4.85624 502.062 -1.67038 498.968 1.45442ZM507.33 1.45442C506.743 2.04898 506.262 15.7086 506.262 31.8123V61.0892H508.77H511.279V31.6299C511.279 4.85624 510.424 -1.67038 507.33 1.45442ZM515.692 1.45442C515.105 2.04898 514.623 15.7086 514.623 31.8123V61.0892H517.132H519.641V31.6299C519.641 4.85624 518.786 -1.67038 515.692 1.45442ZM522.985 30.6857C522.985 49.8281 523.604 61.0892 524.658 61.0892C525.711 61.0892 526.33 49.8281 526.33 30.6857C526.33 11.5433 525.711 0.282199 524.658 0.282199C523.604 0.282199 522.985 11.5433 522.985 30.6857ZM530.743 6.65005C530.175 10.1144 529.703 23.7807 529.693 37.0198L529.675 61.0892H532.183H534.692V31.6299C534.692 3.64516 532.993 -7.0991 530.743 6.65005ZM538.886 2.17397C537.222 6.55039 538.759 61.096 540.545 61.096C542.81 61.096 543.708 3.64516 541.477 1.39193C540.381 0.285577 539.502 0.549074 538.886 2.17397ZM546.398 30.5455V61.0892H548.945H551.492L551.036 31.2465L550.579 1.40544L548.489 0.702781L546.398 0.00012207V30.5455ZM554.76 31.8681C554.76 51.4783 555.352 62.8459 556.324 61.8493C557.184 60.9676 557.993 49.9835 558.122 37.442C558.465 4.22959 558.284 0.282199 556.433 0.282199C555.377 0.282199 554.76 11.9369 554.76 31.8681Z" fill="#FFBB00"/>
</svg>
