<svg width="440" height="59" viewBox="0 0 440 59" fill="none" xmlns="http://www.w3.org/2000/svg">
<path fill-rule="evenodd" clip-rule="evenodd" d="M-0.536667 -1.5457C-1.12367 -0.951142 -1.60532 12.7085 -1.60532 28.8122V58.0891H0.903236H3.41179V28.6298C3.41179 1.85612 2.55722 -4.6705 -0.536667 -1.5457ZM7.82517 -1.5457C7.23817 -0.951142 6.75652 12.7085 6.75652 28.8122V58.0891H9.26508H11.7736V28.6298C11.7736 1.85612 10.9191 -4.6705 7.82517 -1.5457ZM16.187 -1.5457C15.6 -0.951142 15.1184 12.7085 15.1184 28.8122V58.0891H17.6269H20.1355V28.6298C20.1355 1.85612 19.2809 -4.6705 16.187 -1.5457ZM23.4802 27.6856C23.4802 46.828 24.099 58.0891 25.1526 58.0891C26.2062 58.0891 26.825 46.828 26.825 27.6856C26.825 8.5432 26.2062 -2.71792 25.1526 -2.71792C24.099 -2.71792 23.4802 8.5432 23.4802 27.6856ZM31.2383 3.64992C30.6697 7.11423 30.1981 20.7806 30.1881 34.0197L30.1697 58.0891H32.6782H35.1868V28.6298C35.1868 0.645043 33.4877 -10.0992 31.2383 3.64992ZM39.3811 -0.826149C37.7171 3.55027 39.254 58.0959 41.0401 58.0959C43.3045 58.0959 44.2025 0.645043 41.9716 -1.60819C40.8762 -2.71454 39.9965 -2.45105 39.3811 -0.826149ZM46.8934 27.5454V58.0891H49.4404H51.9874L51.5309 28.2464L51.0743 -1.59468L48.9839 -2.29734L46.8934 -3V27.5454ZM55.2552 28.868C55.2552 48.4782 55.8472 59.8457 56.8189 58.8492C57.6785 57.9675 58.4879 46.9834 58.6167 34.4419C58.9595 1.22947 58.7789 -2.71792 56.9276 -2.71792C55.8723 -2.71792 55.2552 8.93676 55.2552 28.868ZM92.9086 0.942321L88.5404 4.41339L85.5636 1.69228C81.3626 -2.14701 75.312 -1.58793 69.544 3.1736L64.5987 7.25443L67.4033 8.3422C69.0757 8.98912 72.0274 7.98411 74.7099 5.85249L79.2119 2.2767L82.8109 5.69034C87.0854 9.74583 90.8616 10.0516 93.7197 6.57204C94.8653 5.17854 97.123 4.03841 98.7368 4.03841C100.351 4.03841 102.608 5.17854 103.754 6.57204C106.737 10.2019 110.574 9.6259 116.101 4.71743C122.372 -0.851484 119.703 -4.40194 113.158 0.798749L108.609 4.41339L105.762 1.94902C100.759 -2.38517 97.4257 -2.64698 92.9086 0.942321ZM126.328 -1.02377C125.757 -0.0913973 125.824 4.27826 126.475 8.68846C130.386 35.1699 151.353 55.9862 175.923 57.7817L185.7 58.4945V55.7582V53.0219H179.308C156.74 53.0219 134.367 31.2225 131.201 6.14977C130.127 -2.34633 128.555 -4.66375 126.328 -1.02377ZM133.857 3.59756C133.857 14.9364 138.708 25.9053 147.915 35.3794L156.434 44.1457L166.113 47.7401C177.651 52.0236 185.7 52.4594 185.7 48.7991C185.7 47.2553 184.141 46.2655 181.711 46.2655C173.126 46.2655 160.223 40.5125 153.079 33.4994C144.152 24.7365 140.901 18.5392 139.287 7.2122C137.755 -3.53037 133.857 -6.12818 133.857 3.59756ZM141.486 -1.19775C139.571 1.93044 144.294 17.7791 149.47 25.6013L154.761 33.5974L163.959 38.1512C169.018 40.6544 175.78 42.9346 178.985 43.2184L184.814 43.7319L185.379 40.776L185.946 37.8201H180.298C172.443 37.8201 158.982 30.4861 153.591 23.2669C151.107 19.9445 148.157 13.0818 147.037 8.02127C144.983 -1.24842 143.264 -4.10297 141.486 -1.19775ZM150.023 -1.5913C146.388 2.08076 152.015 19.029 159.17 25.9543C167.679 34.1903 185.7 39.3825 185.7 33.5974C185.7 32.2039 184.76 31.0587 183.61 31.0536C178.303 31.03 168.608 27.1552 163.949 23.196C158.161 18.2757 153.925 9.3793 153.925 2.14326C153.925 -2.51861 152.393 -3.98474 150.023 -1.5913ZM156.512 -1.15721C154.888 1.49634 158.507 13.1595 162.573 18.3804C168.654 26.1857 185.7 31.1786 185.7 25.152C185.7 23.7585 184.307 22.6183 182.604 22.6183C172.239 22.6183 164.175 15.2674 162.376 4.17692C161.429 -1.65887 158.467 -4.35296 156.512 -1.15721ZM164.655 -0.422458C162.168 6.11936 168.314 15.965 177.029 19.4023C187.52 23.5389 188.886 18.3112 178.614 13.3284L171.65 9.95021L169.896 4.5823C167.638 -2.3193 165.978 -3.90535 164.655 -0.422458ZM-31.3133 10.7593C-39.4778 12.7152 -49.8933 20.3347 -51.1125 25.2465C-51.7028 27.618 -51.7396 32.3323 -51.1944 35.7223L-50.2027 41.8874L-52.8333 44.823C-56.8035 49.2535 -54.8753 52.081 -50.6175 48.0745L-46.9968 44.6676L-41.9111 46.4598L-36.8254 48.2502L-30.9504 46.2908C-21.9748 43.2995 -16.8607 34.1818 -14.118 16.2843L-13.0176 9.10566L-19.4361 9.27795C-22.9665 9.37423 -28.3114 10.0397 -31.3133 10.7593ZM70.7246 14.0783C68.6559 15.8215 66.9618 18.0764 66.9618 19.0882C66.9618 22.0001 72.2281 21.2299 74.5979 17.9734L76.7485 15.0175L81.7288 17.9734C87.8313 21.5948 90.9988 21.7062 93.7197 18.3956C94.8653 17.0021 97.123 15.862 98.7368 15.862C100.351 15.862 102.608 17.0021 103.754 18.3956C104.9 19.7891 107.147 20.9293 108.751 20.9293C112.035 20.9293 120.478 14.7607 120.478 12.3605C120.478 9.81339 115.131 10.5735 111.83 13.5902L108.771 16.3856L105.712 13.5902C101.801 10.0144 95.673 10.0144 91.7614 13.5902L88.7026 16.3856L85.6438 13.5902C81.6335 9.92487 75.4123 10.1276 70.7246 14.0783ZM-27.9451 13.6763L-31.708 14.4077V18.5139C-31.708 23.3379 -30.7765 23.6081 -27.0638 19.8584C-23.1856 15.9414 -22.1437 20.1658 -25.9417 24.4054L-28.8817 27.6856H-25.4818C-21.1269 27.6856 -18.9411 24.8496 -17.9929 17.9734L-17.2353 12.4838L-20.7088 12.7135C-22.6187 12.8402 -25.8747 13.2726 -27.9451 13.6763ZM-38.0981 19.7722C-40.4963 25.5557 -40.6568 31.0638 -38.4292 31.0638C-36.3053 31.0638 -34.5844 24.0828 -35.4524 18.9902L-36.128 15.0175L-38.0981 19.7722ZM-46.3412 23.7737C-48.8564 28.2126 -49.0805 35.5263 -46.7476 36.9823C-44.3544 38.4755 -43.1035 34.1835 -43.7206 26.5961L-44.2507 20.0847L-46.3412 23.7737ZM70.7246 25.9019C66.6641 29.3223 65.7611 32.7528 68.9202 32.7528C69.9972 32.7528 72.2565 31.4945 73.9406 29.954L77.0011 27.1569L82.9129 30.3729L88.8247 33.5872L94.009 30.5841L99.1917 27.5792L102.023 30.1652C103.58 31.5891 106.184 32.7528 107.808 32.7528C111.954 32.7528 120.478 27.3934 120.478 24.7871C120.478 21.8515 117.748 22.0593 112.107 25.4256L107.401 28.2329L104.622 25.4256C101.147 21.914 97.2116 21.8582 92.4203 25.2482L88.7026 27.8765L84.9849 25.2482C80.0949 21.7873 75.3487 22.0052 70.7246 25.9019ZM-34.2165 32.7528C-34.8403 33.773 -32.5609 34.4419 -28.4619 34.4419C-24.7292 34.4419 -21.6737 33.6818 -21.6737 32.7528C-21.6737 31.8238 -24.2626 31.0638 -27.4284 31.0638C-30.5942 31.0638 -33.6479 31.8238 -34.2165 32.7528ZM70.7246 38.5092C63.8713 45.8128 66.5387 48.9005 74.3437 42.6999L78.8306 39.1342L81.8074 41.8553C85.6455 45.3635 91.7948 45.3298 95.678 41.781L98.7368 38.9856L101.796 41.781C103.478 43.3181 106.676 44.5511 108.903 44.5207C113.245 44.4599 120.478 39.3116 120.478 36.283C120.478 33.4876 116.056 34.0821 112.862 37.3066L110.025 40.173L105.082 37.3066C98.9141 33.7325 95.6396 33.692 91.8634 37.1445L88.9066 39.8453L85.0886 37.1445C79.7621 33.3761 75.1297 33.817 70.7246 38.5092ZM-40.6267 38.9467C-44.2407 42.5968 -38.379 44.7656 -31.2899 42.4026C-28.7612 41.558 -26.6909 40.1814 -26.6909 39.3436C-26.6909 37.5954 -38.9443 37.2458 -40.6267 38.9467ZM71.1779 50.4984L66.1942 54.6113L67.9636 56.3983L69.7329 58.1854L74.2818 54.5724L78.8306 50.9578L81.677 53.4222C86.6807 57.7564 90.0137 58.0182 94.5308 54.4289L98.899 50.9578L101.876 53.6789C106.077 57.5182 112.127 56.9591 117.895 52.1976L122.841 48.1167L119.924 46.9867C118.203 46.3196 115.78 46.9783 114.012 48.5948C110.269 52.0152 106.46 52.0912 103.754 48.7991C102.608 47.4056 100.351 46.2655 98.7368 46.2655C97.123 46.2655 94.8653 47.4056 93.7197 48.7991C92.5742 50.1926 90.3165 51.3328 88.7026 51.3328C87.0888 51.3328 84.8311 50.1926 83.6855 48.7991C80.7472 45.2233 76.9442 45.7385 71.1779 50.4984Z" fill="black" fill-opacity="0.11"/>
<path fill-rule="evenodd" clip-rule="evenodd" d="M195.381 -1.5457C194.794 -0.951142 194.312 12.7085 194.312 28.8122V58.0891H196.821H199.329V28.6298C199.329 1.85612 198.475 -4.6705 195.381 -1.5457ZM203.743 -1.5457C203.156 -0.951142 202.674 12.7085 202.674 28.8122V58.0891H205.182H207.691V28.6298C207.691 1.85612 206.836 -4.6705 203.743 -1.5457ZM212.104 -1.5457C211.517 -0.951142 211.036 12.7085 211.036 28.8122V58.0891H213.544H216.053V28.6298C216.053 1.85612 215.198 -4.6705 212.104 -1.5457ZM219.398 27.6856C219.398 46.828 220.016 58.0891 221.07 58.0891C222.124 58.0891 222.742 46.828 222.742 27.6856C222.742 8.5432 222.124 -2.71792 221.07 -2.71792C220.016 -2.71792 219.398 8.5432 219.398 27.6856ZM227.156 3.64992C226.587 7.11424 226.116 20.7806 226.105 34.0197L226.087 58.0891H228.596H231.104V28.6298C231.104 0.645043 229.405 -10.0992 227.156 3.64992ZM235.298 -0.826149C233.634 3.55027 235.171 58.0959 236.957 58.0959C239.222 58.0959 240.12 0.645043 237.889 -1.6082C236.794 -2.71454 235.914 -2.45105 235.298 -0.826149ZM242.811 27.5454V58.0891H245.358H247.905L247.448 28.2464L246.992 -1.59468L244.901 -2.29734L242.811 -3V27.5454ZM251.173 28.868C251.173 48.4782 251.765 59.8457 252.736 58.8492C253.596 57.9675 254.405 46.9834 254.534 34.4419C254.877 1.22947 254.696 -2.71792 252.845 -2.71792C251.79 -2.71792 251.173 8.93676 251.173 28.868Z" fill="black" fill-opacity="0.11"/>
<path fill-rule="evenodd" clip-rule="evenodd" d="M319.051 -1.54558C318.464 -0.95102 317.982 12.7086 317.982 28.8123V58.0892H320.491H322.999V28.6299C322.999 1.85624 322.145 -4.67038 319.051 -1.54558ZM327.413 -1.54558C326.826 -0.95102 326.344 12.7086 326.344 28.8123V58.0892H328.853H331.361V28.6299C331.361 1.85624 330.507 -4.67038 327.413 -1.54558ZM335.775 -1.54558C335.188 -0.95102 334.706 12.7086 334.706 28.8123V58.0892H337.215H339.723V28.6299C339.723 1.85624 338.869 -4.67038 335.775 -1.54558ZM343.068 27.6857C343.068 46.8281 343.687 58.0892 344.74 58.0892C345.794 58.0892 346.413 46.8281 346.413 27.6857C346.413 8.54332 345.794 -2.7178 344.74 -2.7178C343.687 -2.7178 343.068 8.54332 343.068 27.6857ZM350.826 3.65005C350.257 7.11436 349.786 20.7807 349.776 34.0198L349.757 58.0892H352.266L354.774 58.0892V28.6299C354.774 0.645165 353.075 -10.0991 350.826 3.65005ZM358.969 -0.826027C357.305 3.55039 358.842 58.096 360.628 58.096C362.892 58.096 363.79 0.645165 361.559 -1.60807C360.464 -2.71442 359.584 -2.45093 358.969 -0.826027ZM366.481 27.5455V58.0892H369.028H371.575L371.119 28.2465L370.662 -1.59456L368.572 -2.29722L366.481 -2.99988V27.5455ZM374.843 28.8681C374.843 48.4783 375.435 59.8459 376.407 58.8493C377.266 57.9676 378.076 46.9835 378.204 34.442C378.547 1.22959 378.367 -2.7178 376.515 -2.7178C375.46 -2.7178 374.843 8.93688 374.843 28.8681ZM412.496 0.942443L408.128 4.41351L405.151 1.6924C400.95 -2.14689 394.9 -1.5878 389.132 3.17372L384.186 7.25455L386.991 8.34232C388.663 8.98924 391.615 7.98424 394.298 5.85261L398.8 2.27682L402.399 5.69046C406.673 9.74595 410.449 10.0517 413.307 6.57216C414.453 5.17867 416.711 4.03853 418.324 4.03853C419.938 4.03853 422.196 5.17867 423.342 6.57216C426.325 10.202 430.161 9.62603 435.689 4.71755C441.96 -0.851362 439.291 -4.40182 432.745 0.798871L428.196 4.41351L425.35 1.94914C420.346 -2.38505 417.013 -2.64686 412.496 0.942443ZM445.915 -1.02365C445.345 -0.0912752 445.412 4.27839 446.062 8.68858C449.974 35.17 470.941 55.9863 495.511 57.7818L505.288 58.4946V55.7583V53.022H498.896C476.327 53.022 453.954 31.2227 450.788 6.14989C449.715 -2.3462 448.143 -4.66363 445.915 -1.02365ZM453.444 3.59768C453.444 14.9365 458.296 25.9054 467.502 35.3795L476.021 44.1458L485.701 47.7402C497.239 52.0237 505.288 52.4595 505.288 48.7993C505.288 47.2554 503.729 46.2656 501.299 46.2656C492.713 46.2656 479.811 40.5126 472.666 33.4995C463.739 24.7366 460.488 18.5393 458.874 7.21232C457.343 -3.53025 453.444 -6.12806 453.444 3.59768ZM461.074 -1.19763C459.159 1.93056 463.881 17.7792 469.057 25.6014L474.349 33.5975L483.547 38.1513C488.606 40.6545 495.367 42.9348 498.573 43.2185L504.401 43.732L504.967 40.7761L505.534 37.8202H499.886C492.031 37.8202 478.57 30.4862 473.178 23.2671C470.695 19.9446 467.745 13.0819 466.624 8.02139C464.571 -1.2483 462.851 -4.10285 461.074 -1.19763ZM469.611 -1.59118C465.975 2.08089 471.603 19.0292 478.757 25.9544C487.266 34.1904 505.288 39.3826 505.288 33.5975C505.288 32.204 504.348 31.0588 503.197 31.0537C497.891 31.0301 488.196 27.1553 483.537 23.1961C477.749 18.2758 473.513 9.37942 473.513 2.14338C473.513 -2.51849 471.981 -3.98461 469.611 -1.59118ZM476.1 -1.15709C474.476 1.49646 478.095 13.1596 482.161 18.3805C488.241 26.1858 505.288 31.1787 505.288 25.1521C505.288 23.7586 503.895 22.6185 502.192 22.6185C491.827 22.6185 483.763 15.2676 481.963 4.17704C481.017 -1.65875 478.055 -4.35283 476.1 -1.15709ZM484.243 -0.422336C481.756 6.11949 487.902 15.9652 496.616 19.4024C507.107 23.539 508.474 18.3113 498.202 13.3285L491.238 9.95033L489.484 4.58242C487.226 -2.31918 485.565 -3.90523 484.243 -0.422336ZM288.274 10.7594C280.11 12.7154 269.694 20.3348 268.475 25.2467C267.885 27.6181 267.848 32.3324 268.393 35.7224L269.385 41.8875L266.754 44.8232C262.784 49.2536 264.712 52.0812 268.97 48.0746L272.591 44.6678L277.677 46.4599L282.762 48.2503L288.637 46.291C297.613 43.2996 302.727 34.1819 305.47 16.2844L306.57 9.10579L300.152 9.27807C296.621 9.37435 291.276 10.0399 288.274 10.7594ZM390.312 14.0784C388.244 15.8216 386.549 18.0765 386.549 19.0883C386.549 22.0003 391.816 21.23 394.186 17.9735L396.336 15.0176L401.316 17.9735C407.419 21.5949 410.586 21.7064 413.307 18.3958C414.453 17.0023 416.711 15.8621 418.324 15.8621C419.938 15.8621 422.196 17.0023 423.342 18.3958C424.487 19.7892 426.735 20.9294 428.339 20.9294C431.623 20.9294 440.065 14.7608 440.065 12.3607C440.065 9.81351 434.719 10.5736 431.417 13.5903L428.359 16.3857L425.3 13.5903C421.388 10.0145 415.261 10.0145 411.349 13.5903L408.29 16.3857L405.231 13.5903C401.221 9.92499 395 10.1277 390.312 14.0784ZM291.643 13.6764L287.88 14.4078V18.514C287.88 23.338 288.811 23.6083 292.524 19.8585C296.402 15.9415 297.444 20.1659 293.646 24.4055L290.706 27.6857H294.106C298.461 27.6857 300.647 24.8497 301.595 17.9735L302.352 12.484L298.879 12.7137C296.969 12.8404 293.713 13.2728 291.643 13.6764ZM281.49 19.7724C279.091 25.5558 278.931 31.0639 281.158 31.0639C283.282 31.0639 285.003 24.0829 284.135 18.9903L283.46 15.0176L281.49 19.7724ZM273.246 23.7738C270.731 28.2127 270.507 35.5264 272.84 36.9824C275.233 38.4756 276.484 34.1836 275.867 26.5963L275.337 20.0848L273.246 23.7738ZM390.312 25.902C386.252 29.3224 385.349 32.753 388.508 32.753C389.585 32.753 391.844 31.4946 393.528 29.9542L396.589 27.157L402.501 30.373L408.412 33.5874L413.597 30.5842L418.779 27.5793L421.611 30.1653C423.168 31.5892 425.772 32.753 427.395 32.753C431.541 32.753 440.065 27.3935 440.065 24.7872C440.065 21.8516 437.336 22.0594 431.695 25.4257L426.989 28.233L424.21 25.4257C420.734 21.9141 416.799 21.8584 412.008 25.2484L408.29 27.8766L404.573 25.2484C399.683 21.7874 394.936 22.0053 390.312 25.902ZM285.371 32.753C284.747 33.7732 287.027 34.442 291.126 34.442C294.858 34.442 297.914 33.682 297.914 32.753C297.914 31.824 295.325 31.0639 292.159 31.0639C288.993 31.0639 285.94 31.824 285.371 32.753ZM390.312 38.5094C383.459 45.813 386.126 48.9006 393.931 42.7L398.418 39.1343L401.395 41.8554C405.233 45.3637 411.382 45.3299 415.266 41.7811L418.324 38.9857L421.383 41.7811C423.066 43.3182 426.263 44.5512 428.491 44.5208C432.832 44.46 440.065 39.3117 440.065 36.2831C440.065 33.4877 435.644 34.0823 432.449 37.3067L429.613 40.1731L424.669 37.3067C418.502 33.7326 415.227 33.6921 411.451 37.1446L408.494 39.8454L404.676 37.1446C399.35 33.3762 394.717 33.8171 390.312 38.5094ZM278.961 38.9468C275.347 42.5969 281.209 44.7657 288.298 42.4027C290.826 41.5582 292.897 40.1816 292.897 39.3438C292.897 37.5956 280.643 37.2459 278.961 38.9468ZM390.766 50.4985L385.782 54.6114L387.551 56.3984L389.321 58.1855L393.869 54.5725L398.418 50.9579L401.265 53.4223C406.268 57.7565 409.601 58.0183 414.118 54.429L418.487 50.9579L421.464 53.679C425.665 57.5183 431.715 56.9592 437.483 52.1977L442.428 48.1169L439.512 46.9869C437.791 46.3197 435.368 46.9784 433.6 48.5949C429.857 52.0153 426.047 52.0913 423.342 48.7993C422.196 47.4058 419.938 46.2656 418.324 46.2656C416.711 46.2656 414.453 47.4058 413.307 48.7993C412.162 50.1928 409.904 51.3329 408.29 51.3329C406.676 51.3329 404.419 50.1928 403.273 48.7993C400.335 45.2235 396.532 45.7386 390.766 50.4985Z" fill="black" fill-opacity="0.11"/>
<path fill-rule="evenodd" clip-rule="evenodd" d="M514.968 -1.54558C514.381 -0.95102 513.9 12.7086 513.9 28.8123V58.0892H516.408H518.917V28.6299C518.917 1.85624 518.062 -4.67038 514.968 -1.54558ZM523.33 -1.54558C522.743 -0.95102 522.262 12.7086 522.262 28.8123V58.0892H524.77H527.279V28.6299C527.279 1.85624 526.424 -4.67038 523.33 -1.54558ZM531.692 -1.54558C531.105 -0.95102 530.623 12.7086 530.623 28.8123V58.0892H533.132H535.641V28.6299C535.641 1.85624 534.786 -4.67038 531.692 -1.54558ZM538.985 27.6857C538.985 46.8281 539.604 58.0892 540.658 58.0892C541.711 58.0892 542.33 46.8281 542.33 27.6857C542.33 8.54332 541.711 -2.7178 540.658 -2.7178C539.604 -2.7178 538.985 8.54332 538.985 27.6857ZM546.743 3.65005C546.175 7.11436 545.703 20.7807 545.693 34.0198L545.675 58.0892H548.183H550.692V28.6299C550.692 0.645165 548.993 -10.0991 546.743 3.65005ZM554.886 -0.826027C553.222 3.55039 554.759 58.096 556.545 58.096C558.81 58.096 559.708 0.645165 557.477 -1.60807C556.381 -2.71442 555.502 -2.45093 554.886 -0.826027ZM562.398 27.5455V58.0892H564.945H567.492L567.036 28.2465L566.579 -1.59456L564.489 -2.29722L562.398 -2.99988V27.5455ZM570.76 28.8681C570.76 48.4783 571.352 59.8459 572.324 58.8493C573.184 57.9676 573.993 46.9835 574.122 34.442C574.465 1.22959 574.284 -2.7178 572.433 -2.7178C571.377 -2.7178 570.76 8.93688 570.76 28.8681Z" fill="black" fill-opacity="0.11"/>
</svg>
